<svg width="273" height="265" viewBox="0 0 273 265" fill="none" xmlns="http://www.w3.org/2000/svg">
<path d="M65.0637 26.4133H9.26562V101.344H65.0637V26.4133Z" stroke="#676F74" stroke-linecap="round" stroke-linejoin="round"/>
<path d="M59.7187 33.5859H14.6055V94.1657H59.7187V33.5859Z" stroke="#676F74" stroke-linecap="round" stroke-linejoin="round"/>
<path d="M110.593 71.2534H72.0771V122.976H110.593V71.2534Z" stroke="#676F74" stroke-linecap="round" stroke-linejoin="round"/>
<path d="M106.904 76.2058H75.7656V118.023H106.904V76.2058Z" stroke="#676F74" stroke-linecap="round" stroke-linejoin="round"/>
<path d="M229.156 14.8291H231.274C240.634 14.8291 249.611 18.5475 256.23 25.1664C262.849 31.7852 266.567 40.7623 266.567 50.1227V181.893H193.862V50.1227C193.862 40.7623 197.581 31.7852 204.2 25.1664C210.818 18.5475 219.795 14.8291 229.156 14.8291V14.8291Z" stroke="#676F74" stroke-linecap="round" stroke-linejoin="round"/>
<path d="M202.071 181.5V52.3713C202.071 44.9086 205.036 37.7515 210.313 32.4746C215.59 27.1977 222.747 24.2332 230.209 24.2332V24.2332C233.904 24.2332 237.563 24.961 240.977 26.3752C244.39 27.7893 247.492 29.862 250.104 32.475C252.716 35.0879 254.789 38.1899 256.202 41.6037C257.615 45.0176 258.343 48.6764 258.342 52.3713V181.5" stroke="#676F74" stroke-linecap="round" stroke-linejoin="round"/>
<path d="M230.209 14.8291V181.694" stroke="#676F74" stroke-linecap="round" stroke-linejoin="round"/>
<path d="M194.256 46.9749H266.061" stroke="#676F74" stroke-linecap="round" stroke-linejoin="round"/>
<path d="M237.547 64.0239L236.044 65.1624" stroke="#676F74" stroke-linecap="round" stroke-linejoin="round"/>
<path d="M256.389 49.7014L240.559 61.7354" stroke="#676F74" stroke-linecap="round" stroke-linejoin="round"/>
<path d="M249.473 59.0601L240.929 65.5723" stroke="#676F74" stroke-linecap="round" stroke-linejoin="round"/>
<path d="M222.035 121.849L207.969 133.518" stroke="#676F74" stroke-linecap="round" stroke-linejoin="round"/>
<path d="M227.095 117.653L224.647 119.68" stroke="#676F74" stroke-linecap="round" stroke-linejoin="round"/>
<path d="M214.481 124.16L205.122 131.486" stroke="#676F74" stroke-linecap="round" stroke-linejoin="round"/>
<path d="M239.55 153.579L237.672 155.081" stroke="#676F74" stroke-linecap="round" stroke-linejoin="round"/>
<path d="M253.947 142.063L242.539 151.188" stroke="#676F74" stroke-linecap="round" stroke-linejoin="round"/>
<path d="M247.435 151.421L242.146 155.491" stroke="#676F74" stroke-linecap="round" stroke-linejoin="round"/>
<path d="M194.256 69.6367H266.061" stroke="#676F74" stroke-linecap="round" stroke-linejoin="round"/>
<path d="M194.256 92.3042H266.061" stroke="#676F74" stroke-linecap="round" stroke-linejoin="round"/>
<path d="M194.256 114.972H266.061" stroke="#676F74" stroke-linecap="round" stroke-linejoin="round"/>
<path d="M194.256 137.634H266.061" stroke="#676F74" stroke-linecap="round" stroke-linejoin="round"/>
<path d="M194.256 160.302H266.061" stroke="#676F74" stroke-linecap="round" stroke-linejoin="round"/>
<path d="M203.858 26.1743L210.371 32.1059" stroke="#676F74" stroke-linecap="round" stroke-linejoin="round"/>
<path d="M256.287 26.1743L249.774 32.1059" stroke="#676F74" stroke-linecap="round" stroke-linejoin="round"/>
<path d="M1 138.471H193.868" stroke="#676F74" stroke-linecap="round" stroke-linejoin="round"/>
<path d="M1 141.869H193.868" stroke="#676F74" stroke-linecap="round" stroke-linejoin="round"/>
<path d="M1 246.042H271.691" stroke="#676F74" stroke-linecap="round" stroke-linejoin="round"/>
<path d="M57.083 141.744V245.917" stroke="#676F74" stroke-linecap="round" stroke-linejoin="round"/>
<path d="M117.993 141.744V245.917" stroke="#676F74" stroke-linecap="round" stroke-linejoin="round"/>
<path d="M178.902 141.744V245.917" stroke="#676F74" stroke-linecap="round" stroke-linejoin="round"/>
<path d="M239.812 186.715V245.917" stroke="#676F74" stroke-linecap="round" stroke-linejoin="round"/>
<path d="M268.844 181.973H191.995V186.715H268.844V181.973Z" stroke="#676F74" stroke-linecap="round" stroke-linejoin="round"/>
<path d="M1 263.564H272.26" stroke="#263238" stroke-linecap="round" stroke-linejoin="round"/>
<path d="M39.2189 125.463C39.2189 125.463 39.2189 122.281 34.7674 117.83C30.3158 113.378 27.4809 110.833 27.4809 110.833C27.4809 110.833 25.2039 118.148 29.3595 122.6C32.4008 125.733 35.6988 128.606 39.2189 131.19V125.463Z" fill="#FB855E"/>
<path d="M32.7585 145.325C32.7585 145.325 32.7585 142.142 28.3013 137.691C23.844 133.239 20.9864 130.695 20.9864 130.695C20.9864 130.695 18.7606 138.01 22.9275 142.461C25.9689 145.594 29.2668 148.468 32.787 151.051L32.7585 145.325Z" fill="#FB855E"/>
<path d="M38.9402 130.883C38.9402 130.883 39.276 127.718 44.1716 123.761C49.0672 119.805 52.1867 117.573 52.1867 117.573C52.1867 117.573 53.6269 125.082 49.0444 129.078C45.6887 131.872 42.1051 134.379 38.3311 136.575L38.9402 130.883Z" fill="#FB855E"/>
<path d="M31.13 154.336C31.13 154.336 31.796 151.228 37.0844 147.806C42.3727 144.385 45.6972 142.495 45.6972 142.495C45.6972 142.495 46.3404 150.118 41.3652 153.601C37.7389 156.036 33.9154 158.163 29.9346 159.96L31.13 154.336Z" fill="#FB855E"/>
<path d="M32.6045 179.912C32.6045 179.912 32.6045 176.73 37.056 172.279C41.5076 167.827 44.3709 165.282 44.3709 165.282C44.3709 165.282 46.591 172.597 42.4582 177.038C39.4192 180.174 36.1231 183.051 32.6045 185.639V179.912Z" fill="#FB855E"/>
<path d="M32.5249 186.145C32.5249 186.145 32.9746 182.997 29.2005 177.954C25.4263 172.91 22.9387 169.984 22.9387 169.984C22.9387 169.984 19.6939 176.906 23.155 181.905C25.721 185.436 28.5771 188.747 31.6938 191.804L32.5249 186.145Z" fill="#FB855E"/>
<path d="M28.1357 204.652C28.1357 204.652 28.1357 201.475 32.5873 197.024C37.0388 192.572 39.9022 190.028 39.9022 190.028C39.9022 190.028 42.128 197.343 37.9952 201.794C34.9532 204.925 31.6552 207.796 28.1357 210.379V204.652Z" fill="#FB855E"/>
<path d="M31.1074 221.439C31.1074 221.439 30.299 218.365 33.4811 212.9C36.6633 207.435 38.7866 204.276 38.7866 204.276C38.7866 204.276 42.7713 210.788 39.9251 216.145C37.7792 219.95 35.3171 223.568 32.5647 226.961L31.1074 221.439Z" fill="#FB855E"/>
<path d="M39.6232 124.666C39.3966 127.978 38.9881 131.276 38.3993 134.543C36.6403 143.651 32.24 149.503 30.481 157.717C28.722 165.931 33.7712 176.502 32.4221 187.062C31.073 197.622 26.963 203.474 28.1357 210.515C29.3083 217.557 35.4505 236.61 35.4505 236.61" stroke="#263238" stroke-linecap="round" stroke-linejoin="round"/>
<path d="M38.8945 132.995L43.6933 129.312" stroke="#263238" stroke-linecap="round" stroke-linejoin="round"/>
<path d="M39.1169 128.754L37.1074 125.184" stroke="#263238" stroke-linecap="round" stroke-linejoin="round"/>
<path d="M30.749 157.319C30.749 157.319 34.7679 154.307 38.895 151.296" stroke="#263238" stroke-linecap="round" stroke-linejoin="round"/>
<path d="M32.7584 151.051C32.7584 151.051 29.4112 144.488 25.6143 140.133" stroke="#263238" stroke-linecap="round" stroke-linejoin="round"/>
<path d="M32.7578 184.438C35.051 180.212 37.9444 176.341 41.3478 172.945" stroke="#263238" stroke-linecap="round" stroke-linejoin="round"/>
<path d="M31.9726 188.901C30.7558 186.031 29.3011 183.268 27.6236 180.641C25.2782 177.186 24.9424 176.736 24.9424 176.736" stroke="#263238" stroke-linecap="round" stroke-linejoin="round"/>
<path d="M28.1357 210.498C29.1507 207.97 30.3592 205.525 31.7505 203.183C33.1428 201.012 34.7116 198.96 36.4411 197.047" stroke="#263238" stroke-linecap="round" stroke-linejoin="round"/>
<path d="M32.5594 226.967C32.5594 226.967 32.0869 223.147 33.7435 219.919C35.4 216.692 37.3127 212.445 38.0982 210.771" stroke="#263238" stroke-linecap="round" stroke-linejoin="round"/>
<path d="M10.0625 167.929C10.0625 167.929 9.71524 165.931 12.0264 162.658C14.3376 159.385 15.8518 157.478 15.8518 157.478C15.8518 157.478 18.0434 161.821 15.9315 165.06C14.3671 167.356 12.6113 169.516 10.683 171.516L10.0625 167.929Z" fill="#FB855E"/>
<path d="M16.2669 179.707C16.2669 179.707 15.9253 177.709 18.2308 174.436C20.5363 171.163 22.0619 169.256 22.0619 169.256C22.0619 169.256 24.2478 173.599 22.1415 176.838C20.5754 179.135 18.8198 181.296 16.893 183.299L16.2669 179.707Z" fill="#FB855E"/>
<path d="M10.8249 171.345C10.8249 171.345 10.2557 169.398 6.77187 167.451C3.28805 165.504 1.07935 164.44 1.07935 164.44C1.07935 164.44 0.988269 169.307 4.29562 171.311C6.70347 172.698 9.22257 173.882 11.8268 174.852L10.8249 171.345Z" fill="#FB855E"/>
<path d="M18.2648 185.178C18.2648 185.178 17.5077 183.299 13.8246 181.728C10.1416 180.157 7.8418 179.314 7.8418 179.314C7.8418 179.314 8.26874 184.164 11.7639 185.81C14.304 186.935 16.9336 187.848 19.6253 188.536L18.2648 185.178Z" fill="#FB855E"/>
<path d="M20.121 201.379C20.121 201.379 19.7794 199.381 16.5005 197.075C13.2216 194.77 11.1553 193.478 11.1553 193.478C11.1553 193.478 10.5518 198.31 13.6315 200.65C15.8764 202.285 18.2547 203.729 20.7415 204.965L20.121 201.379Z" fill="#FB855E"/>
<path d="M20.8435 205.284C20.8435 205.284 20.223 203.36 22.0389 199.785C23.8548 196.21 25.0958 194.092 25.0958 194.092C25.0958 194.092 27.8794 198.077 26.2343 201.589C25.0089 204.082 23.577 206.468 21.9535 208.722L20.8435 205.284Z" fill="#FB855E"/>
<path d="M26.4338 221.371C26.4338 221.371 26.6672 219.361 29.8037 216.868C32.9403 214.375 34.927 212.974 34.927 212.974C34.927 212.974 35.8037 217.762 32.8663 220.278C30.7142 222.036 28.4198 223.613 26.0068 224.991L26.4338 221.371Z" fill="#FB855E"/>
<path d="M25.6081 216.407C25.6081 216.407 25.2608 214.415 21.9877 212.103C18.7145 209.792 16.6651 208.511 16.6651 208.511C16.6651 208.511 16.0617 213.339 19.1357 215.684C21.3846 217.316 23.7646 218.759 26.2513 219.999L25.6081 216.407Z" fill="#FB855E"/>
<path d="M25.5627 227.246C25.5627 227.246 25.7334 225.23 23.149 222.168C20.5646 219.105 18.891 217.341 18.891 217.341C18.891 217.341 17.0865 221.855 19.4603 224.9C21.2195 227.051 23.156 229.05 25.2496 230.877L25.5627 227.246Z" fill="#FB855E"/>
<path d="M9.7207 167.485C10.217 169.536 10.8251 171.558 11.5423 173.542C13.6372 179.053 17.0299 182.257 19.028 187.204C21.0261 192.151 19.028 199.346 20.9976 205.819C22.9672 212.291 26.2006 215.496 26.229 220.05C26.2575 224.604 24.4643 237.219 24.4643 237.219" stroke="#263238" stroke-linecap="round" stroke-linejoin="round"/>
<path d="M11.0807 172.637L7.6709 170.85" stroke="#263238" stroke-linecap="round" stroke-linejoin="round"/>
<path d="M10.4834 170.002L11.3544 167.548" stroke="#263238" stroke-linecap="round" stroke-linejoin="round"/>
<path d="M18.8282 187.011C18.8282 187.011 15.982 185.553 13.0674 184.113" stroke="#263238" stroke-linecap="round" stroke-linejoin="round"/>
<path d="M16.8936 183.299C17.7267 180.654 18.8293 178.102 20.1838 175.683" stroke="#263238" stroke-linecap="round" stroke-linejoin="round"/>
<path d="M20.5135 204.231C18.6169 201.832 16.381 199.723 13.876 197.969" stroke="#263238" stroke-linecap="round" stroke-linejoin="round"/>
<path d="M21.4873 206.946C21.9412 205.014 22.5543 203.124 23.3203 201.293C24.4133 198.868 24.5783 198.555 24.5783 198.555" stroke="#263238" stroke-linecap="round" stroke-linejoin="round"/>
<path d="M26.0869 223.517C26.0869 223.517 28.3639 220.75 29.7529 219.714C30.601 219.089 31.3968 218.396 32.1324 217.642" stroke="#263238" stroke-linecap="round" stroke-linejoin="round"/>
<path d="M26.2402 220.073C25.3283 218.598 24.3044 217.196 23.1776 215.878C22.0697 214.667 20.8645 213.55 19.5742 212.536" stroke="#263238" stroke-linecap="round" stroke-linejoin="round"/>
<path d="M25.2555 230.877C25.1383 229.339 24.6137 227.86 23.7356 226.591C22.3352 224.747 20.6844 222.293 20.0127 221.325" stroke="#263238" stroke-linecap="round" stroke-linejoin="round"/>
<path d="M41.9114 246.879C41.9884 242.66 40.7006 238.529 38.2397 235.101H21.1621C18.7082 238.528 17.4227 242.654 17.4961 246.868C17.4961 253.892 20.758 259.881 25.3461 262.238V263.564H34.2151V262.26H34.0557C38.6495 259.892 41.9114 253.887 41.9114 246.879Z" fill="#263238" stroke="#263238" stroke-linecap="round" stroke-linejoin="round"/>
<path d="M123.132 96.511H103.288V103.803H123.132V96.511Z" fill="#545454"/>
<path d="M123.138 96.511H104.433V103.803H123.138V96.511Z" fill="#263238"/>
<path d="M123.138 96.511H104.433V98.2017H123.138V96.511Z" fill="#545454"/>
<path d="M114.162 103.092H106.682L164.603 263.564H172.083L114.162 103.092Z" fill="#545454"/>
<path d="M115.516 103.092H108.036L165.958 263.564H173.438L115.516 103.092Z" fill="#263238"/>
<path d="M174.371 243.338H160.436V246.304H174.371V243.338Z" fill="white" stroke="#263238" stroke-miterlimit="10"/>
<path d="M162.992 211.967H149.057V214.933H162.992V211.967Z" fill="white" stroke="#263238" stroke-miterlimit="10"/>
<path d="M151.612 180.601H137.677V183.567H151.612V180.601Z" fill="white" stroke="#263238" stroke-miterlimit="10"/>
<path d="M140.233 149.229H126.298V152.195H140.233V149.229Z" fill="white" stroke="#263238" stroke-miterlimit="10"/>
<path d="M128.853 117.858H114.918V120.824H128.853V117.858Z" fill="white" stroke="#263238" stroke-miterlimit="10"/>
<path d="M129.451 130.205L139.191 123.34L142.572 98.1675C142.572 98.1675 132.428 119.543 131.085 122.122C129.741 124.7 129.451 130.205 129.451 130.205Z" fill="#263238" stroke="#263238" stroke-miterlimit="10"/>
<path d="M151.527 200.183C151.527 200.183 149.318 203.656 143.751 203.934C141.041 204.071 140.096 204.749 139.96 206.371C139.823 207.993 141.178 208.944 144.018 209.889C146.859 210.834 151.868 211.511 154.305 211.648C156.741 211.784 160.253 212.598 160.663 210.84C161.073 209.081 161.881 204.749 161.881 204.344C161.881 203.94 151.527 200.183 151.527 200.183Z" fill="#263238" stroke="#263238" stroke-miterlimit="10"/>
<path d="M139.095 117.795C138.383 126.607 137.569 138.152 137.569 144.852C137.569 156.761 141.901 167.451 143.524 171.373C145.146 175.296 147.947 183.504 148.078 184.045C148.209 184.586 149.569 192.162 150.11 194.058C150.651 195.954 150.918 197.309 150.918 197.309C150.918 197.309 149.433 200.155 149.433 201.367C149.433 202.58 151.1 200.838 151.1 200.838C153.358 201.656 155.664 202.333 158.005 202.864C161.654 203.678 162.56 206.024 162.56 206.024C162.56 206.024 162.804 203.394 163.078 191.895C163.351 180.396 156.514 157.683 156.514 154.188C156.514 150.692 159.081 120.226 159.081 120.226C159.081 120.226 144.879 120.363 140.547 118.336L139.095 117.795Z" fill="#5C5C5C" stroke="#263238" stroke-miterlimit="10"/>
<path d="M159.849 202.853C159.849 202.853 156.331 205.13 155.25 205.699C154.168 206.268 149.557 207.191 149.159 208.272C148.76 209.354 149.432 211.249 149.432 211.249C149.432 211.249 158.494 213.008 162.69 213.276C166.885 213.543 172.566 213.953 173.244 213.276C173.921 212.598 173.784 205.432 173.784 205.432C173.784 205.432 162.012 201.908 159.849 202.853Z" fill="#263238" stroke="#263238" stroke-miterlimit="10"/>
<path d="M150.439 134.571C150.439 134.571 152.198 156.356 153.286 160.142C154.373 163.927 160.413 184.455 160.686 187.022C160.948 189.222 161.038 191.44 160.954 193.654C160.823 194.462 160.145 195.413 160.009 197.439C159.872 199.466 159.872 202.853 159.872 202.853C161.491 203.12 163.023 203.77 164.341 204.748C166.504 206.371 170.033 206.775 171.781 206.507C173.528 206.24 173.807 206.371 173.807 205.426V201.908C173.807 199.335 173.54 197.035 173.807 192.299C174.075 187.563 172.367 172.859 171.53 168.533C170.693 164.206 168.149 158.383 168.012 156.624C167.876 154.865 170.859 140.793 170.859 136.193C170.859 131.594 170.05 120.772 170.05 120.772L152.597 120.363" fill="#5C5C5C"/>
<path d="M150.439 134.571C150.439 134.571 152.198 156.356 153.286 160.142C154.373 163.927 160.413 184.455 160.686 187.022C160.948 189.222 161.038 191.44 160.954 193.654C160.823 194.462 160.145 195.413 160.009 197.439C159.872 199.466 159.872 202.853 159.872 202.853C161.491 203.12 163.023 203.77 164.341 204.748C166.504 206.371 170.033 206.775 171.781 206.507C173.528 206.24 173.807 206.371 173.807 205.426V201.908C173.807 199.335 173.54 197.035 173.807 192.299C174.075 187.563 172.367 172.859 171.53 168.533C170.693 164.206 168.149 158.383 168.012 156.624C167.876 154.865 170.859 140.793 170.859 136.193C170.859 131.594 170.05 120.772 170.05 120.772L152.597 120.363" stroke="#263238" stroke-miterlimit="10"/>
<path d="M155.068 70.7866L151.322 70.9574C151.322 70.9574 143.837 82.8661 142.47 91.0349C141.104 99.2037 138.73 120.329 138.73 120.329C138.73 120.329 143.159 121.86 152.176 122.036C161.193 122.213 169.874 121.695 169.874 121.695C169.874 121.695 174.292 98.5263 175.823 88.8262C177.354 79.1262 174.633 76.9175 171.906 74.5323C170.183 73.0678 168.146 72.0198 165.952 71.4697L155.068 70.7866Z" fill="#263238" stroke="#263238" stroke-miterlimit="10"/>
<path d="M139.055 116.241C142.951 117.577 147.024 118.323 151.14 118.456C157.772 118.626 170.37 118.114 170.37 118.114V122.708L163.539 123.049C163.539 123.049 163.539 136.495 163.368 137.002C163.197 137.508 164.216 138.026 157.584 138.026C150.952 138.026 144.651 136.837 144.309 135.471C143.968 134.104 145.448 122.571 145.448 122.571L138.668 120.328L139.055 116.241Z" fill="white" stroke="#263238" stroke-miterlimit="10"/>
<path d="M151.048 121.427L148.071 121.376L148.174 115.353C148.183 114.958 148.348 114.583 148.632 114.309C148.917 114.035 149.299 113.884 149.694 113.89C150.088 113.899 150.462 114.063 150.736 114.347C151.01 114.63 151.161 115.01 151.157 115.405L151.048 121.427Z" fill="white" stroke="#263238" stroke-miterlimit="10"/>
<path d="M149.626 121.273L149.449 131.116" stroke="#263238" stroke-miterlimit="10"/>
<path d="M151.44 121.178L147.553 121.108L147.53 122.406L151.417 122.475L151.44 121.178Z" fill="white" stroke="#263238" stroke-miterlimit="10"/>
<path d="M149.489 120.448C149.41 120.452 149.33 120.44 149.256 120.411C149.181 120.382 149.114 120.338 149.057 120.282C149.001 120.226 148.957 120.158 148.929 120.084C148.9 120.01 148.887 119.93 148.891 119.85V115.558C148.891 115.481 148.907 115.405 148.937 115.334C148.968 115.263 149.012 115.199 149.068 115.145C149.124 115.092 149.19 115.051 149.262 115.024C149.335 114.997 149.412 114.985 149.489 114.989C149.566 114.985 149.643 114.997 149.716 115.024C149.788 115.051 149.854 115.092 149.91 115.145C149.966 115.199 150.011 115.263 150.041 115.334C150.071 115.405 150.087 115.481 150.087 115.558V119.828C150.094 119.909 150.084 119.991 150.057 120.068C150.03 120.145 149.987 120.216 149.93 120.275C149.873 120.334 149.804 120.379 149.728 120.409C149.652 120.439 149.571 120.453 149.489 120.448Z" fill="white" stroke="#263238" stroke-miterlimit="10"/>
<path d="M157.333 122.822L154.351 122.765L154.459 116.748C154.462 116.552 154.503 116.359 154.581 116.18C154.659 116 154.771 115.838 154.912 115.702C155.053 115.566 155.219 115.459 155.401 115.388C155.583 115.316 155.777 115.281 155.973 115.285C156.169 115.287 156.362 115.328 156.542 115.406C156.722 115.483 156.885 115.596 157.021 115.737C157.157 115.877 157.264 116.044 157.335 116.226C157.406 116.409 157.44 116.603 157.436 116.799L157.333 122.822Z" fill="white" stroke="#263238" stroke-miterlimit="10"/>
<path d="M155.91 122.668L155.733 132.511" stroke="#263238" stroke-miterlimit="10"/>
<path d="M157.467 122.95L153.579 122.873L153.553 124.17L157.441 124.248L157.467 122.95Z" fill="white" stroke="#263238" stroke-width="1.0002" stroke-miterlimit="10"/>
<path d="M155.773 121.82C155.613 121.82 155.46 121.756 155.347 121.643C155.233 121.53 155.17 121.377 155.17 121.216V116.953C155.17 116.874 155.186 116.795 155.216 116.722C155.246 116.649 155.291 116.582 155.347 116.526C155.403 116.47 155.469 116.426 155.542 116.395C155.616 116.365 155.694 116.349 155.773 116.349C155.932 116.351 156.084 116.415 156.196 116.528C156.308 116.641 156.371 116.794 156.371 116.953V121.251C156.362 121.404 156.296 121.548 156.185 121.653C156.074 121.759 155.927 121.819 155.773 121.82Z" fill="white" stroke="#263238" stroke-miterlimit="10"/>
<path d="M146.022 123.585C148.017 124.12 150.091 124.293 152.147 124.097L151.618 137.19C151.618 137.19 147.218 138.123 144.815 135.186L146.022 123.585Z" fill="white" stroke="#263238" stroke-miterlimit="10"/>
<path d="M152.148 124.097C152.148 124.097 154.817 125.435 160.151 124.632L160.817 137.565C160.817 137.565 155.483 139.433 151.618 137.167L152.148 124.097Z" fill="white" stroke="#263238" stroke-miterlimit="10"/>
<path d="M140.615 89.1278C140.615 89.1278 129.736 89.384 128.307 88.866C126.879 88.3479 127.533 85.6269 128.569 79.5416C129.605 73.4563 136.078 52.3371 136.078 52.3371C136.078 52.3371 133.88 50.0088 133.75 48.7109C133.619 47.413 134.786 42.6256 134.786 42.6256C134.786 42.6256 132.452 43.6617 131.808 43.0127C131.165 42.3638 133.75 39.9046 133.75 39.9046C133.75 39.9046 136.209 39.1247 137.894 40.2917C139.579 41.4587 141.264 43.3998 141.52 45.8647C141.776 48.3295 141.002 53.635 140.353 57.523C139.704 61.4109 138.543 75.2665 138.543 75.2665C138.543 75.2665 144.372 71.5095 146.182 70.7125C148.712 69.6252 151.506 69.3103 154.214 69.8074C154.214 69.8074 152.011 79.5245 150.85 82.9002C149.689 86.2759 142.402 101.959 139.425 108.824C136.448 115.689 129.452 130.199 129.452 130.199C129.452 130.199 128.416 124.507 131.524 116.338C134.632 108.169 140.615 89.1278 140.615 89.1278Z" fill="#B2B2B2" stroke="#263238" stroke-miterlimit="10"/>
<path d="M134.859 54.1929L141.491 55.1378L140.546 59.06L134.182 57.8418L134.859 54.1929Z" fill="white" stroke="#263238" stroke-miterlimit="10"/>
<path d="M133.778 56.6292L141.747 58.1149L139.47 73.8092C139.47 73.8092 144.593 70.9629 147.047 70.1546C149.5 69.3462 153.411 70.1546 153.411 70.1546C153.411 70.1546 154.402 71.2532 153.229 74.1393C152.056 77.0255 148.675 88.2682 147.047 92.3554C145.419 96.4426 128.922 132.004 128.922 132.004C128.922 132.004 128.244 126.186 129.736 121.587C131.227 116.987 139.743 89.105 139.743 89.105C139.743 89.105 129.326 89.7824 128.108 89.3782C126.89 88.974 127.026 84.642 127.157 83.5605C127.288 82.4789 133.778 56.6292 133.778 56.6292Z" fill="#FB855E" stroke="#263238" stroke-miterlimit="10"/>
<path d="M139.806 103.399L153.4 70.1547L150.622 69.8359L137.575 102.522L136.026 102.01C135.764 102.824 135.298 104.15 135.024 104.999L136.425 105.983L139.425 108.83C140.068 107.492 141.195 105.238 141.793 103.997L139.806 103.399Z" fill="white" stroke="#263238" stroke-miterlimit="10"/>
<path d="M152.426 45.8875C152.426 45.8875 155.056 40.2348 157.948 38.7889C160.84 37.343 166.099 39.4436 166.099 39.4436C166.099 39.4436 173.067 42.4663 174.917 47.2025C176.767 51.9387 173.471 60.6141 173.471 60.6141L152.033 46.8097L152.426 45.8875Z" fill="white" stroke="#263238" stroke-miterlimit="10"/>
<path d="M159.394 45.2156C159.945 44.2611 160.423 43.2658 160.822 42.2384C161.103 41.2121 161.057 40.1238 160.691 39.1246C161.967 39.0081 163.252 39.1853 164.448 39.6426" stroke="#263238" stroke-miterlimit="10"/>
<path d="M150.719 52.5932C150.719 52.5932 146.381 48.6483 146.381 47.2024C146.381 45.7565 157.948 44.5724 160.709 45.4946C163.47 46.4168 167.54 52.3256 169.248 54.0334C170.955 55.7411 176.079 59.1566 175.031 61.5247C173.984 63.8928 170.563 65.7372 166.493 63.2325C162.422 60.7278 151.009 53.1169 151.009 53.1169C152.455 51.8019 153.377 52.986 153.377 52.986" fill="white"/>
<path d="M150.719 52.5932C150.719 52.5932 146.381 48.6483 146.381 47.2024C146.381 45.7565 157.948 44.5724 160.709 45.4946C163.47 46.4168 167.54 52.3256 169.248 54.0334C170.955 55.7411 176.079 59.1566 175.031 61.5247C173.984 63.8928 170.563 65.7372 166.493 63.2325C162.422 60.7278 151.009 53.1169 151.009 53.1169C152.455 51.8019 153.377 52.986 153.377 52.986" stroke="#263238" stroke-miterlimit="10"/>
<path d="M170.705 57.0618C170.705 57.0618 165.707 51.1472 161.631 49.4395C157.555 47.7317 152.819 48.9101 151.641 50.2251C150.462 51.54 148.088 57.853 147.958 59.8226C147.827 61.7922 147.593 67.8434 148.732 68.5037C149.87 69.1641 153.599 69.5512 153.599 69.5512C153.164 72.3767 152.945 75.2312 152.944 78.0899C153.075 81.5054 155.477 81.3973 157.316 80.606C159.155 79.8148 166.749 72.4373 166.749 71.498C166.682 70.5261 166.549 69.5599 166.35 68.6062L167.933 64.2628C167.933 64.2628 172.936 61.2685 170.705 57.0618Z" fill="#B2B2B2" stroke="#263238" stroke-miterlimit="10"/>
<path d="M164.494 51.1416C164.912 51.8754 165.19 52.6803 165.314 53.5154C165.314 54.5628 164.13 60.614 164.13 60.614C164.13 60.614 165.576 61.3995 165.969 60.2155C166.361 59.0314 166.891 56.0087 170.705 57.0618C168.835 54.8887 166.754 52.9057 164.494 51.1416Z" fill="#263238" stroke="#263238" stroke-miterlimit="10"/>
<path d="M153.741 59.8226C153.348 59.6917 150.326 58.6386 150.195 57.853C150.064 57.0674 153.872 54.039 153.872 54.039V52.724C153.872 52.724 152.734 51.6595 150.98 53.1168" stroke="#263238" stroke-miterlimit="10"/>
<path d="M152.148 59.5608C152.148 59.5608 147.81 58.6386 148.465 61.3994C148.67 62.259 153.07 62.982 154.516 63.1072C155.962 63.2324 159.508 63.3691 158.854 61.7922C158.199 60.2154 153.856 59.168 152.148 59.5608Z" fill="#263238" stroke="#263238" stroke-miterlimit="10"/>
<path d="M157.162 53.2479C157.162 53.2479 160.185 51.671 161.5 54.4319" stroke="#263238" stroke-miterlimit="10"/>
<path d="M159.651 55.8493C159.548 56.4982 159.172 56.9878 158.814 56.9138C158.455 56.8398 158.244 56.2876 158.353 55.6443C158.461 55.0011 158.831 54.5058 159.189 54.5798C159.548 54.6538 159.753 55.2174 159.651 55.8493Z" fill="#263238"/>
<path d="M152.148 54.8247C152.062 55.3598 151.755 55.7526 151.459 55.7014C151.163 55.6502 150.992 55.1891 151.078 54.654C151.163 54.1189 151.47 53.7318 151.766 53.7773C152.062 53.8229 152.25 54.2953 152.148 54.8247Z" fill="#263238"/>
<path d="M157.271 56.8C157.271 56.8 157.925 58.5078 160.424 58.3769" stroke="#263238" stroke-miterlimit="10"/>
<path d="M153.611 69.5513L158.609 69.9498L153.218 74.1565L153.611 69.5513Z" fill="#263238" stroke="#263238" stroke-miterlimit="10"/>
<path d="M166.76 71.5266C166.76 71.5266 159.394 87.4372 158.079 91.6497C156.764 95.8621 158.46 114.625 158.46 118.308C158.46 121.991 160.737 139.433 160.737 139.433C160.737 139.433 168.758 138.511 173.494 136.41C176.079 135.304 178.545 133.938 180.855 132.334L173.323 108.841C173.323 108.841 181.361 87.8357 182.431 82.8377C183.502 77.8396 180.724 75.0787 177.308 73.7638C173.893 72.4488 166.76 71.5266 166.76 71.5266Z" fill="#FB855E" stroke="#263238" stroke-miterlimit="10"/>
<path d="M173.324 108.858L164.717 106.814C164.717 106.814 163.237 96.6533 166.47 86.5149C169.703 76.3765 173.591 72.9212 173.591 72.9212L168.844 72.0559C168.844 72.0559 164.29 81.7673 162.155 87.5908C160.02 93.4142 160.618 107.68 160.618 107.68L157.914 108.448C158.079 110.247 158.193 111.374 158.347 112.923C161.108 112.177 165.605 111.414 166.663 111.562C167.614 111.699 171.724 112.433 174.633 112.957L173.324 108.858Z" fill="white" stroke="#263238" stroke-miterlimit="10"/>
<path d="M132.741 60.096L130.601 53.9082H125.734L123.787 60.2212C123.34 61.0009 123.107 61.8843 123.109 62.7828C123.109 63.5839 123.294 64.3743 123.65 65.092C124.005 65.8098 124.522 66.4355 125.16 66.9201C125.798 67.4047 126.54 67.7351 127.326 67.8855C128.113 68.0359 128.924 68.0021 129.696 67.7869C130.468 67.5716 131.179 67.1807 131.774 66.6447C132.37 66.1088 132.833 65.4423 133.128 64.6974C133.423 63.9526 133.541 63.1496 133.474 62.3513C133.407 61.5531 133.156 60.7811 132.741 60.096Z" fill="white" stroke="#263238" stroke-miterlimit="10"/>
<path d="M130.732 49.9631H125.734V53.9081H130.732V49.9631Z" fill="#263238" stroke="#263238" stroke-miterlimit="10"/>
<path d="M127.972 35.2368H125.473V37.8668H127.972V35.2368Z" fill="#263238" stroke="#263238" stroke-miterlimit="10"/>
<path d="M126.264 37.4739C125.386 39.2722 124.28 40.95 122.974 42.4662C121.135 44.4415 122.188 45.8817 123.634 46.1493C125.08 46.4168 127.579 46.4111 127.579 47.3333V49.8323" stroke="#263238" stroke-miterlimit="10"/>
<path d="M127.185 37.9976C127.185 37.9976 123.109 43.3884 123.24 44.1796C123.371 44.9709 127.84 45.7565 128.762 46.1492C129.684 46.542 129.417 49.8323 129.417 49.8323" stroke="#263238" stroke-miterlimit="10"/>
<path d="M126.264 35.3676V0.130859" stroke="#263238" stroke-miterlimit="10"/>
<path d="M127.578 0V36.028" stroke="#263238" stroke-miterlimit="10"/>
<path d="M137.7 73.3652L135.731 69.6821C135.731 69.6821 134.416 63.5057 134.416 62.982C134.416 62.4583 132.708 58.9062 132.048 57.7221C131.387 56.5381 130.733 56.669 130.733 57.984C130.733 59.299 131.917 61.5304 131.917 61.9289C131.838 62.4235 131.706 62.9082 131.524 63.3748C131.524 63.3748 126.002 59.4299 125.342 58.7696C124.681 58.1092 123.503 59.0371 123.503 59.8227C123.531 60.4975 123.663 61.1639 123.896 61.798C124.027 62.1908 123.241 64.9516 123.241 65.8738C123.358 67.0498 123.765 68.1784 124.425 69.1584C125.08 70.2115 129.81 71.7884 129.81 71.7884L134.023 77.7029L137.7 73.3652Z" fill="#B2B2B2" stroke="#263238" stroke-miterlimit="10"/>
<path d="M140.728 74.2874L137.045 71.2646L131.443 76.7124C131.443 76.7124 135.428 80.8793 135.81 80.8793C136.191 80.8793 140.728 74.2874 140.728 74.2874Z" fill="white" stroke="#263238" stroke-miterlimit="10"/>
<path d="M171.889 76.9174L160.185 85.9913L139.937 73.2344L133.624 81.517C133.624 81.517 145.721 91.1146 149.796 95.0595C153.872 99.0044 160.316 102.687 163.459 100.98C166.601 99.272 179.238 89.6687 179.631 89.2759" fill="#FB855E"/>
<path d="M171.889 76.9174L160.185 85.9913L139.937 73.2344L133.624 81.517C133.624 81.517 145.721 91.1146 149.796 95.0595C153.872 99.0044 160.316 102.687 163.459 100.98C166.601 99.272 179.238 89.6687 179.631 89.2759" stroke="#263238" stroke-miterlimit="10"/>
<path d="M163.208 83.6232C163.208 83.6232 170.705 83.4923 172.02 95.0595L177.411 91.1146C177.411 91.1146 176.227 81.9155 167.677 80.4639L163.208 83.6232Z" fill="white" stroke="#263238" stroke-miterlimit="10"/>
<path d="M142.829 32.7378H111.275L121.875 20.1174H132.23L142.829 32.7378Z" fill="white" stroke="#263238" stroke-miterlimit="10"/>
<path d="M131.917 14.8574H121.875V20.1173H131.917V14.8574Z" fill="white" stroke="#263238" stroke-miterlimit="10"/>
<path d="M116.695 29.7891L115.38 31.4854" stroke="#263238" stroke-miterlimit="10"/>
<path d="M117.941 28.1723L123.97 20.3906V16.4514" stroke="#263238" stroke-miterlimit="10"/>
<path d="M137.979 38.3448C137.979 38.3448 136.692 37.2632 135.747 37.2404C134.802 37.2177 131.956 38.0886 132.417 38.7774C132.878 39.4662 137.979 38.3448 137.979 38.3448Z" fill="#B2B2B2" stroke="#263238" stroke-miterlimit="10"/>
<path d="M139.891 39.6201C139.369 39.0433 138.712 38.6052 137.979 38.3449C136.84 37.9977 133.692 39.0394 133.783 39.6087C133.874 40.1779 136.294 40.2633 136.869 40.1779C137.443 40.0925 139.891 39.6201 139.891 39.6201Z" fill="#B2B2B2" stroke="#263238" stroke-miterlimit="10"/>
<path d="M142.532 44.174C142.532 44.174 141.713 39.7908 141.064 39.2101C140.415 38.6295 136.817 39.5289 136.305 39.9274C135.793 40.3259 136.624 41.2253 136.999 41.3278C137.888 41.3901 138.779 41.4072 139.669 41.379L140.079 44.3106L142.532 44.174Z" fill="#B2B2B2" stroke="#263238" stroke-miterlimit="10"/>
<path d="M132.736 41.8855L134.609 39.563L139.3 43.3428C139.607 43.5915 139.802 43.9516 139.844 44.3443C139.886 44.7371 139.77 45.1302 139.522 45.4377C139.273 45.7445 138.913 45.9401 138.52 45.9818C138.128 46.0234 137.734 45.9076 137.427 45.6597L132.736 41.8855Z" fill="white" stroke="#263238" stroke-miterlimit="10"/>
<path d="M133.732 40.8553L126.064 34.679" stroke="#263238" stroke-miterlimit="10"/>
<path d="M132.69 42.3461L135.13 39.3186L134.119 38.5043L131.68 41.5318L132.69 42.3461Z" fill="white" stroke="#263238" stroke-miterlimit="10"/>
<path d="M138.542 50.5267C138.024 48.5799 139.965 45.6027 139.965 45.6027C139.178 45.2167 138.438 44.739 137.762 44.1796C137.119 43.5306 137.119 41.9766 138.024 42.2384C138.929 42.5003 142.425 43.9462 142.425 43.9462C142.821 44.1767 143.135 44.5262 143.322 44.945C143.509 45.3639 143.56 45.831 143.466 46.2801C143.205 47.9879 141.002 52.8834 141.002 52.8834" fill="#B2B2B2"/>
<path d="M138.542 50.5267C138.024 48.5799 139.965 45.6027 139.965 45.6027C139.178 45.2167 138.438 44.739 137.762 44.1796C137.119 43.5306 137.119 41.9766 138.024 42.2384C138.929 42.5003 142.425 43.9462 142.425 43.9462C142.821 44.1767 143.135 44.5262 143.322 44.945C143.509 45.3639 143.56 45.831 143.466 46.2801C143.205 47.9879 141.002 52.8834 141.002 52.8834" stroke="#263238" stroke-miterlimit="10"/>
<path d="M154.39 193.745H92.1484V196.722H154.39V193.745Z" fill="#545454"/>
<path d="M116.375 127.256L67.1748 263.564H71.9508L119.017 133.165L116.967 127.256H116.375Z" fill="#545454"/>
<path d="M115.021 127.256L65.8203 263.564H67.8924L117.025 127.433L116.968 127.256H115.021Z" fill="#263238"/>
<path d="M126.343 103.092H118.863L176.785 263.564H184.265L126.343 103.092Z" fill="#545454"/>
<path d="M127.692 103.092H120.212L178.133 263.564H185.613L127.692 103.092Z" fill="#263238"/>
<path d="M128.825 127.256L79.625 263.564H84.3953L131.467 133.165L129.412 127.256H128.825Z" fill="#545454"/>
<path d="M127.47 127.256L78.2695 263.564H80.3359L129.474 127.433L129.411 127.256H127.47Z" fill="#263238"/>
<path d="M132.178 96.511H112.334V103.803H132.178V96.511Z" fill="#545454"/>
<path d="M132.184 96.511H113.479V103.803H132.184V96.511Z" fill="#454545"/>
</svg>
