<svg width="212" height="114" viewBox="0 0 212 114" fill="none" xmlns="http://www.w3.org/2000/svg">
<path d="M204.099 46.4636H166.727V0.216675H204.099V46.4636ZM167.834 45.3557H202.988V1.32451H167.834V45.3557Z" fill="#EBEBEB"/>
<path d="M185.966 1.61572H184.859V45.9083H185.966V1.61572Z" fill="#EBEBEB"/>
<path d="M205.106 2.45911H165.723V4.00354H205.106V2.45911Z" fill="#EBEBEB"/>
<path d="M205.106 4.19666H165.723V5.74109H205.106V4.19666Z" fill="#EBEBEB"/>
<path d="M205.106 5.93408H165.723V7.47851H205.106V5.93408Z" fill="#EBEBEB"/>
<path d="M205.106 7.66858H165.723V9.21302H205.106V7.66858Z" fill="#EBEBEB"/>
<path d="M205.106 9.40601H165.723V10.9504H205.106V9.40601Z" fill="#EBEBEB"/>
<path d="M205.106 11.1436H165.723V12.688H205.106V11.1436Z" fill="#EBEBEB"/>
<path d="M205.106 12.8811H165.723V14.4255H205.106V12.8811Z" fill="#EBEBEB"/>
<path d="M205.106 14.6185H165.723V16.163H205.106V14.6185Z" fill="#EBEBEB"/>
<path d="M205.106 16.3561H165.723V17.9005H205.106V16.3561Z" fill="#EBEBEB"/>
<path d="M201.809 2.14441H201.533V26.2495H201.809V2.14441Z" fill="#263238"/>
<path d="M202.162 27.5413H201.179L201.426 26.1276H201.919L202.162 27.5413Z" fill="#263238"/>
<path d="M202.807 2.14441H202.531V33.832H202.807V2.14441Z" fill="#263238"/>
<path d="M203.163 34.8714H202.177L202.424 33.4576H202.917L203.163 34.8714Z" fill="#263238"/>
<path d="M206.822 0H164V3.23143H206.822V0Z" fill="#DBDBDB"/>
<path d="M9.53674e-05 93.8679H35.6765V91.7503H9.53674e-05V93.8679Z" fill="#EBEBEB"/>
<path d="M32.9707 93.8679H30.8501V100.874H32.9707V93.8679Z" fill="#EBEBEB"/>
<path d="M32.9707 93.8679H30.8501V96.0331H32.9707V93.8679Z" fill="#DBDBDB"/>
<path d="M4.82937 93.8679H2.70874V100.874H4.82937V93.8679Z" fill="#EBEBEB"/>
<path d="M4.82937 93.8679H2.70874V96.0331H4.82937V93.8679Z" fill="#DBDBDB"/>
<path d="M26.6592 91.7502V78.2483H23.2585V91.7502H26.6592Z" fill="#C7C7C7"/>
<path d="M26.6592 79.0087V77.5266H23.2585V79.0087H26.6592Z" fill="#DBDBDB"/>
<path d="M26.6592 81.4619V80.9125H23.2585V81.4619H26.6592Z" fill="#DBDBDB"/>
<path d="M26.6624 89.9831V88.498H22.8399V89.9831H26.6624Z" fill="#DBDBDB"/>
<path d="M23.2588 91.7503V76H20.8827V91.7503H23.2588Z" fill="#DBDBDB"/>
<path d="M22.7954 83.5381V77.4822H21.3698V83.5381H22.7954Z" fill="#EBEBEB"/>
<path d="M5.65464 91.7605L16.8557 80.6877L15.1853 78.998L3.98422 90.0708L5.65464 91.7605Z" fill="#C7C7C7"/>
<path d="M7.9427 88.8175L12.2495 84.5601L11.2473 83.5462L6.94045 87.8037L7.9427 88.8175Z" fill="#DBDBDB"/>
<path d="M20.8855 91.7532V79.7898H16.8492V91.7532H20.8855Z" fill="#A6A6A6"/>
<path d="M20.8855 90.485V89.3712H16.8492V90.485H20.8855Z" fill="#C7C7C7"/>
<path d="M20.8855 88.6405V88.2069H16.8492V88.6405H20.8855Z" fill="#C7C7C7"/>
<path d="M29.4482 91.7533V80.5116H26.6623V91.7533H29.4482Z" fill="#A6A6A6"/>
<path d="M29.4482 90.5622V89.5138H26.6623V90.5622H29.4482Z" fill="#C7C7C7"/>
<path d="M29.4482 83.8767V82.8282H26.6623V83.8767H29.4482Z" fill="#C7C7C7"/>
<path d="M29.4453 84.9992V84.5923H26.6594V84.9992H29.4453Z" fill="#C7C7C7"/>
<path d="M60.8201 91.055L79.6265 90.9807L98.4359 90.9569L136.055 90.9065L173.671 90.954L192.48 90.9807L211.289 91.055L192.48 91.1262L173.671 91.153L136.055 91.2005L98.4359 91.153L79.6265 91.1262L60.8201 91.055Z" fill="#263238"/>
<path d="M102.6 111.415C148.218 111.415 185.199 107.975 185.199 103.732C185.199 99.4888 148.218 96.0491 102.6 96.0491C56.9811 96.0491 20 99.4888 20 103.732C20 107.975 56.9811 111.415 102.6 111.415Z" fill="#EBEBEB"/>
<path d="M165.438 92.6945H153.082V94.0994H165.438V92.6945Z" fill="#37474F"/>
<path d="M159.994 37.475H158.529V92.6915H159.994V37.475Z" fill="#37474F"/>
<path d="M159.994 37.475H158.529V44.8943H159.994V37.475Z" fill="#263238"/>
<path d="M167.012 41.7727H151.511L152.637 38.0691L152.675 37.9384L155.954 27.166H162.566L165.847 37.9413V37.9443L165.883 38.0661L167.012 41.7727Z" fill="#FFC727"/>
<path d="M156.504 29.6548C156.504 29.6824 156.493 29.7088 156.473 29.7283C156.454 29.7478 156.427 29.7587 156.4 29.7587C156.386 29.7592 156.372 29.7567 156.359 29.7517C156.347 29.7466 156.335 29.7389 156.325 29.7292C156.316 29.7195 156.308 29.7078 156.303 29.695C156.298 29.6823 156.295 29.6686 156.296 29.6548C156.296 29.6272 156.307 29.6008 156.326 29.5813C156.346 29.5618 156.372 29.5508 156.4 29.5508C156.427 29.5508 156.454 29.5618 156.473 29.5813C156.493 29.6008 156.504 29.6272 156.504 29.6548ZM158.307 29.5508C158.279 29.5508 158.253 29.5618 158.233 29.5813C158.214 29.6008 158.203 29.6272 158.203 29.6548C158.203 29.6824 158.214 29.7088 158.233 29.7283C158.253 29.7478 158.279 29.7587 158.307 29.7587C158.32 29.7592 158.334 29.7567 158.347 29.7517C158.36 29.7466 158.371 29.7389 158.381 29.7292C158.391 29.7195 158.398 29.7078 158.403 29.695C158.408 29.6823 158.411 29.6686 158.41 29.6548C158.41 29.6411 158.408 29.6276 158.403 29.615C158.397 29.6024 158.39 29.5909 158.38 29.5813C158.37 29.5716 158.359 29.564 158.346 29.5587C158.334 29.5535 158.32 29.5508 158.307 29.5508ZM160.216 29.5508C160.189 29.5508 160.162 29.5618 160.143 29.5813C160.123 29.6008 160.112 29.6272 160.112 29.6548C160.112 29.6824 160.123 29.7088 160.143 29.7283C160.162 29.7478 160.189 29.7587 160.216 29.7587C160.244 29.7587 160.27 29.7478 160.29 29.7283C160.309 29.7088 160.32 29.6824 160.32 29.6548C160.32 29.6272 160.309 29.6008 160.29 29.5813C160.27 29.5618 160.244 29.5508 160.216 29.5508ZM162.126 29.5508C162.098 29.5508 162.072 29.5618 162.053 29.5813C162.033 29.6008 162.022 29.6272 162.022 29.6548C162.022 29.6686 162.024 29.6823 162.029 29.695C162.034 29.7078 162.042 29.7195 162.052 29.7292C162.061 29.7389 162.073 29.7466 162.086 29.7517C162.099 29.7567 162.112 29.7592 162.126 29.7587C162.154 29.7587 162.18 29.7478 162.2 29.7283C162.219 29.7088 162.23 29.6824 162.23 29.6548C162.23 29.6404 162.227 29.6261 162.221 29.6128C162.216 29.5996 162.207 29.5877 162.196 29.5779C162.186 29.5682 162.173 29.5607 162.16 29.556C162.146 29.5514 162.131 29.5496 162.117 29.5508H162.126ZM157.365 28.2143C157.337 28.2143 157.311 28.2253 157.292 28.2448C157.272 28.2642 157.261 28.2907 157.261 28.3183C157.261 28.3458 157.272 28.3723 157.292 28.3918C157.311 28.4113 157.337 28.4222 157.365 28.4222C157.393 28.4222 157.419 28.4113 157.439 28.3918C157.458 28.3723 157.469 28.3458 157.469 28.3183C157.469 28.2907 157.458 28.2642 157.439 28.2448C157.419 28.2253 157.393 28.2143 157.365 28.2143ZM159.275 28.2143C159.247 28.2143 159.221 28.2253 159.201 28.2448C159.182 28.2642 159.171 28.2907 159.171 28.3183C159.17 28.332 159.173 28.3457 159.178 28.3585C159.183 28.3713 159.191 28.3829 159.2 28.3927C159.21 28.4024 159.222 28.4101 159.234 28.4151C159.247 28.4202 159.261 28.4226 159.275 28.4222C159.302 28.4222 159.329 28.4113 159.348 28.3918C159.368 28.3723 159.379 28.3458 159.379 28.3183C159.379 28.3035 159.376 28.289 159.37 28.2755C159.364 28.2621 159.355 28.25 159.344 28.2402C159.333 28.2304 159.32 28.223 159.306 28.2185C159.292 28.2141 159.278 28.2126 159.263 28.2143H159.275ZM161.182 28.2143C161.154 28.2143 161.128 28.2253 161.108 28.2448C161.089 28.2642 161.078 28.2907 161.078 28.3183C161.078 28.3458 161.089 28.3723 161.108 28.3918C161.128 28.4113 161.154 28.4222 161.182 28.4222C161.195 28.4226 161.209 28.4202 161.222 28.4151C161.235 28.4101 161.246 28.4024 161.256 28.3927C161.266 28.3829 161.273 28.3713 161.278 28.3585C161.284 28.3457 161.286 28.332 161.286 28.3183C161.286 28.3035 161.283 28.289 161.277 28.2755C161.271 28.2621 161.262 28.25 161.251 28.2402C161.24 28.2304 161.227 28.223 161.213 28.2185C161.199 28.2141 161.184 28.2126 161.17 28.2143H161.182ZM154.502 32.3278C154.474 32.3278 154.448 32.3388 154.428 32.3583C154.409 32.3778 154.398 32.4042 154.398 32.4318C154.398 32.4594 154.409 32.4858 154.428 32.5053C154.448 32.5248 154.474 32.5357 154.502 32.5357C154.529 32.5357 154.556 32.5248 154.575 32.5053C154.595 32.4858 154.606 32.4594 154.606 32.4318C154.606 32.4171 154.603 32.4025 154.597 32.3891C154.591 32.3756 154.582 32.3636 154.571 32.3538C154.56 32.3439 154.547 32.3365 154.533 32.3321C154.519 32.3276 154.505 32.3262 154.49 32.3278H154.502ZM156.412 32.3278C156.398 32.3274 156.384 32.3298 156.371 32.3349C156.359 32.34 156.347 32.3476 156.337 32.3574C156.327 32.3671 156.32 32.3787 156.315 32.3915C156.31 32.4043 156.307 32.418 156.308 32.4318C156.308 32.4594 156.319 32.4858 156.338 32.5053C156.358 32.5248 156.384 32.5357 156.412 32.5357C156.439 32.5357 156.466 32.5248 156.485 32.5053C156.505 32.4858 156.516 32.4594 156.516 32.4318C156.516 32.4171 156.513 32.4025 156.507 32.3891C156.501 32.3756 156.492 32.3636 156.481 32.3538C156.47 32.3439 156.457 32.3365 156.443 32.3321C156.429 32.3276 156.414 32.3262 156.4 32.3278H156.412ZM158.318 32.3278C158.291 32.3278 158.264 32.3388 158.245 32.3583C158.225 32.3778 158.214 32.4042 158.214 32.4318C158.214 32.4594 158.225 32.4858 158.245 32.5053C158.264 32.5248 158.291 32.5357 158.318 32.5357C158.332 32.5357 158.346 32.5331 158.358 32.5278C158.371 32.5226 158.382 32.515 158.392 32.5053C158.402 32.4957 158.409 32.4842 158.414 32.4716C158.42 32.459 158.422 32.4455 158.422 32.4318C158.423 32.4169 158.42 32.4021 158.414 32.3884C158.409 32.3747 158.4 32.3625 158.389 32.3526C158.378 32.3426 158.365 32.3353 158.35 32.331C158.336 32.3267 158.321 32.3256 158.307 32.3278H158.318ZM160.228 32.3278C160.201 32.3278 160.174 32.3388 160.155 32.3583C160.135 32.3778 160.124 32.4042 160.124 32.4318C160.124 32.4594 160.135 32.4858 160.155 32.5053C160.174 32.5248 160.201 32.5357 160.228 32.5357C160.256 32.5357 160.282 32.5248 160.302 32.5053C160.321 32.4858 160.332 32.4594 160.332 32.4318C160.332 32.4171 160.329 32.4025 160.323 32.3891C160.317 32.3756 160.309 32.3636 160.298 32.3538C160.287 32.3439 160.274 32.3365 160.26 32.3321C160.246 32.3276 160.231 32.3262 160.216 32.3278H160.228ZM162.138 32.3278C162.124 32.3274 162.11 32.3298 162.098 32.3349C162.085 32.34 162.073 32.3476 162.063 32.3574C162.054 32.3671 162.046 32.3787 162.041 32.3915C162.036 32.4043 162.034 32.418 162.034 32.4318C162.034 32.4594 162.045 32.4858 162.064 32.5053C162.084 32.5248 162.11 32.5357 162.138 32.5357C162.165 32.5357 162.192 32.5248 162.211 32.5053C162.231 32.4858 162.242 32.4594 162.242 32.4318C162.242 32.4162 162.239 32.4007 162.232 32.3866C162.226 32.3724 162.216 32.3598 162.204 32.3498C162.192 32.3399 162.178 32.3327 162.163 32.3289C162.148 32.3251 162.132 32.3247 162.117 32.3278H162.138ZM164.045 32.3278C164.017 32.3278 163.991 32.3388 163.971 32.3583C163.952 32.3778 163.941 32.4042 163.941 32.4318C163.941 32.4594 163.952 32.4858 163.971 32.5053C163.991 32.5248 164.017 32.5357 164.045 32.5357C164.072 32.5357 164.099 32.5248 164.118 32.5053C164.138 32.4858 164.149 32.4594 164.149 32.4318C164.149 32.4169 164.147 32.4021 164.141 32.3884C164.135 32.3747 164.126 32.3625 164.115 32.3526C164.104 32.3426 164.091 32.3353 164.077 32.331C164.063 32.3267 164.048 32.3256 164.033 32.3278H164.045ZM155.455 30.9913C155.442 30.9913 155.428 30.994 155.415 30.9992C155.403 31.0045 155.391 31.0121 155.382 31.0218C155.372 31.0314 155.364 31.0429 155.359 31.0555C155.354 31.0681 155.351 31.0816 155.351 31.0953C155.351 31.1089 155.354 31.1224 155.359 31.135C155.364 31.1477 155.372 31.1591 155.382 31.1688C155.391 31.1784 155.403 31.1861 155.415 31.1913C155.428 31.1965 155.442 31.1992 155.455 31.1992C155.483 31.1992 155.509 31.1883 155.529 31.1688C155.548 31.1493 155.559 31.1228 155.559 31.0953C155.56 31.0804 155.557 31.0656 155.551 31.0519C155.546 31.0382 155.537 31.026 155.526 31.016C155.515 31.0061 155.502 30.9987 155.487 30.9945C155.473 30.9902 155.458 30.9891 155.443 30.9913H155.455ZM157.365 30.9913C157.337 30.9913 157.311 31.0023 157.292 31.0218C157.272 31.0413 157.261 31.0677 157.261 31.0953C157.261 31.1228 157.272 31.1493 157.292 31.1688C157.311 31.1883 157.337 31.1992 157.365 31.1992C157.393 31.1992 157.419 31.1883 157.439 31.1688C157.458 31.1493 157.469 31.1228 157.469 31.0953C157.469 31.0677 157.458 31.0413 157.439 31.0218C157.419 31.0023 157.393 30.9913 157.365 30.9913ZM159.275 30.9913C159.261 30.9909 159.247 30.9933 159.234 30.9984C159.222 31.0035 159.21 31.0111 159.2 31.0208C159.191 31.0306 159.183 31.0422 159.178 31.055C159.173 31.0678 159.17 31.0815 159.171 31.0953C159.171 31.1228 159.182 31.1493 159.201 31.1688C159.221 31.1883 159.247 31.1992 159.275 31.1992C159.302 31.1992 159.329 31.1883 159.348 31.1688C159.368 31.1493 159.379 31.1228 159.379 31.0953C159.379 31.0806 159.376 31.066 159.37 31.0525C159.364 31.0391 159.355 31.027 159.344 31.0172C159.333 31.0074 159.32 31 159.306 30.9955C159.292 30.9911 159.278 30.9896 159.263 30.9913H159.275ZM161.182 30.9913C161.154 30.9913 161.128 31.0023 161.108 31.0218C161.089 31.0413 161.078 31.0677 161.078 31.0953C161.078 31.1228 161.089 31.1493 161.108 31.1688C161.128 31.1883 161.154 31.1992 161.182 31.1992C161.209 31.1992 161.236 31.1883 161.255 31.1688C161.275 31.1493 161.286 31.1228 161.286 31.0953C161.286 31.0804 161.283 31.0656 161.278 31.0519C161.272 31.0382 161.263 31.026 161.252 31.016C161.241 31.0061 161.228 30.9987 161.214 30.9945C161.199 30.9902 161.184 30.9891 161.17 30.9913H161.182ZM163.091 30.9913C163.064 30.9913 163.037 31.0023 163.018 31.0218C162.998 31.0413 162.987 31.0677 162.987 31.0953C162.987 31.1228 162.998 31.1493 163.018 31.1688C163.037 31.1883 163.064 31.1992 163.091 31.1992C163.119 31.1992 163.145 31.1883 163.165 31.1688C163.184 31.1493 163.195 31.1228 163.195 31.0953C163.195 31.0806 163.192 31.066 163.186 31.0525C163.18 31.0391 163.172 31.027 163.161 31.0172C163.15 31.0074 163.137 31 163.123 30.9955C163.109 30.9911 163.094 30.9896 163.079 30.9913H163.091ZM154.502 35.1019C154.474 35.1019 154.448 35.1128 154.428 35.1323C154.409 35.1518 154.398 35.1783 154.398 35.2058C154.398 35.2334 154.409 35.2598 154.428 35.2793C154.448 35.2988 154.474 35.3098 154.502 35.3098C154.529 35.3098 154.556 35.2988 154.575 35.2793C154.595 35.2598 154.606 35.2334 154.606 35.2058C154.606 35.1911 154.603 35.1766 154.597 35.1631C154.591 35.1497 154.582 35.1376 154.571 35.1278C154.56 35.118 154.547 35.1106 154.533 35.1061C154.519 35.1016 154.505 35.1002 154.49 35.1019H154.502ZM156.412 35.1019C156.384 35.1019 156.358 35.1128 156.338 35.1323C156.319 35.1518 156.308 35.1783 156.308 35.2058C156.307 35.2196 156.31 35.2333 156.315 35.2461C156.32 35.2589 156.327 35.2705 156.337 35.2803C156.347 35.29 156.359 35.2976 156.371 35.3027C156.384 35.3078 156.398 35.3102 156.412 35.3098C156.439 35.3098 156.466 35.2988 156.485 35.2793C156.505 35.2598 156.516 35.2334 156.516 35.2058C156.516 35.1911 156.513 35.1766 156.507 35.1631C156.501 35.1497 156.492 35.1376 156.481 35.1278C156.47 35.118 156.457 35.1106 156.443 35.1061C156.429 35.1016 156.414 35.1002 156.4 35.1019H156.412ZM158.318 35.1019C158.291 35.1019 158.264 35.1128 158.245 35.1323C158.225 35.1518 158.214 35.1783 158.214 35.2058C158.214 35.2334 158.225 35.2598 158.245 35.2793C158.264 35.2988 158.291 35.3098 158.318 35.3098C158.332 35.3102 158.346 35.3078 158.359 35.3027C158.371 35.2976 158.383 35.29 158.393 35.2803C158.403 35.2705 158.41 35.2589 158.415 35.2461C158.42 35.2333 158.423 35.2196 158.422 35.2058C158.422 35.1911 158.419 35.1766 158.413 35.1631C158.408 35.1497 158.399 35.1376 158.388 35.1278C158.377 35.118 158.364 35.1106 158.35 35.1061C158.336 35.1016 158.321 35.1002 158.307 35.1019H158.318ZM160.228 35.1019C160.201 35.1019 160.174 35.1128 160.155 35.1323C160.135 35.1518 160.124 35.1783 160.124 35.2058C160.124 35.2334 160.135 35.2598 160.155 35.2793C160.174 35.2988 160.201 35.3098 160.228 35.3098C160.256 35.3098 160.282 35.2988 160.302 35.2793C160.321 35.2598 160.332 35.2334 160.332 35.2058C160.332 35.1911 160.329 35.1766 160.323 35.1631C160.317 35.1497 160.309 35.1376 160.298 35.1278C160.287 35.118 160.274 35.1106 160.26 35.1061C160.246 35.1016 160.231 35.1002 160.216 35.1019H160.228ZM162.138 35.1019C162.11 35.1019 162.084 35.1128 162.064 35.1323C162.045 35.1518 162.034 35.1783 162.034 35.2058C162.034 35.2196 162.036 35.2333 162.041 35.2461C162.046 35.2589 162.054 35.2705 162.063 35.2803C162.073 35.29 162.085 35.2976 162.098 35.3027C162.11 35.3078 162.124 35.3102 162.138 35.3098C162.152 35.3098 162.165 35.3071 162.178 35.3019C162.19 35.2967 162.202 35.289 162.211 35.2793C162.221 35.2697 162.229 35.2582 162.234 35.2456C162.239 35.233 162.242 35.2195 162.242 35.2058C162.242 35.1902 162.239 35.1748 162.232 35.1606C162.226 35.1464 162.216 35.1339 162.204 35.1239C162.192 35.1139 162.178 35.1067 162.163 35.1029C162.148 35.0991 162.132 35.0988 162.117 35.1019H162.138ZM164.045 35.1019C164.031 35.1019 164.018 35.1046 164.005 35.1098C163.992 35.115 163.981 35.1227 163.971 35.1323C163.962 35.142 163.954 35.1534 163.949 35.1661C163.943 35.1787 163.941 35.1922 163.941 35.2058C163.941 35.2195 163.943 35.233 163.949 35.2456C163.954 35.2582 163.962 35.2697 163.971 35.2793C163.981 35.289 163.992 35.2967 164.005 35.3019C164.018 35.3071 164.031 35.3098 164.045 35.3098C164.058 35.3102 164.072 35.3078 164.085 35.3027C164.098 35.2976 164.109 35.29 164.119 35.2803C164.129 35.2705 164.136 35.2589 164.142 35.2461C164.147 35.2333 164.149 35.2196 164.149 35.2058C164.149 35.1911 164.146 35.1766 164.14 35.1631C164.134 35.1497 164.125 35.1376 164.114 35.1278C164.103 35.118 164.09 35.1106 164.076 35.1061C164.062 35.1016 164.047 35.1002 164.033 35.1019H164.045ZM155.455 33.7654C155.428 33.7654 155.401 33.7763 155.382 33.7958C155.362 33.8153 155.351 33.8417 155.351 33.8693C155.351 33.8969 155.362 33.9233 155.382 33.9428C155.401 33.9623 155.428 33.9733 155.455 33.9733C155.469 33.9737 155.483 33.9713 155.496 33.9662C155.508 33.9611 155.52 33.9535 155.53 33.9437C155.539 33.934 155.547 33.9224 155.552 33.9096C155.557 33.8968 155.56 33.8831 155.559 33.8693C155.559 33.8546 155.556 33.84 155.55 33.8266C155.544 33.8131 155.536 33.8011 155.525 33.7913C155.514 33.7814 155.501 33.774 155.487 33.7696C155.473 33.7651 155.458 33.7637 155.443 33.7654H155.455ZM157.365 33.7654C157.337 33.7654 157.311 33.7763 157.292 33.7958C157.272 33.8153 157.261 33.8417 157.261 33.8693C157.261 33.8969 157.272 33.9233 157.292 33.9428C157.311 33.9623 157.337 33.9733 157.365 33.9733C157.393 33.9733 157.419 33.9623 157.439 33.9428C157.458 33.9233 157.469 33.8969 157.469 33.8693C157.469 33.8417 157.458 33.8153 157.439 33.7958C157.419 33.7763 157.393 33.7654 157.365 33.7654ZM159.275 33.7654C159.247 33.7654 159.221 33.7763 159.201 33.7958C159.182 33.8153 159.171 33.8417 159.171 33.8693C159.17 33.8831 159.173 33.8968 159.178 33.9096C159.183 33.9224 159.191 33.934 159.2 33.9437C159.21 33.9535 159.222 33.9611 159.234 33.9662C159.247 33.9713 159.261 33.9737 159.275 33.9733C159.288 33.9733 159.302 33.9706 159.315 33.9653C159.327 33.9601 159.339 33.9525 159.348 33.9428C159.358 33.9332 159.366 33.9217 159.371 33.9091C159.376 33.8965 159.379 33.883 159.379 33.8693C159.379 33.8546 159.376 33.84 159.37 33.8266C159.364 33.8131 159.355 33.8011 159.344 33.7913C159.333 33.7814 159.32 33.774 159.306 33.7696C159.292 33.7651 159.278 33.7637 159.263 33.7654H159.275ZM161.182 33.7654C161.168 33.7654 161.154 33.768 161.142 33.7733C161.129 33.7785 161.118 33.7861 161.108 33.7958C161.098 33.8055 161.091 33.8169 161.086 33.8295C161.08 33.8421 161.078 33.8557 161.078 33.8693C161.078 33.883 161.08 33.8965 161.086 33.9091C161.091 33.9217 161.098 33.9332 161.108 33.9428C161.118 33.9525 161.129 33.9601 161.142 33.9653C161.154 33.9706 161.168 33.9733 161.182 33.9733C161.195 33.9737 161.209 33.9713 161.222 33.9662C161.235 33.9611 161.246 33.9535 161.256 33.9437C161.266 33.934 161.273 33.9224 161.278 33.9096C161.284 33.8968 161.286 33.8831 161.286 33.8693C161.286 33.8546 161.283 33.84 161.277 33.8266C161.271 33.8131 161.262 33.8011 161.251 33.7913C161.24 33.7814 161.227 33.774 161.213 33.7696C161.199 33.7651 161.184 33.7637 161.17 33.7654H161.182ZM163.091 33.7654C163.064 33.7654 163.037 33.7763 163.018 33.7958C162.998 33.8153 162.987 33.8417 162.987 33.8693C162.987 33.8969 162.998 33.9233 163.018 33.9428C163.037 33.9623 163.064 33.9733 163.091 33.9733C163.119 33.9733 163.145 33.9623 163.165 33.9428C163.184 33.9233 163.195 33.8969 163.195 33.8693C163.195 33.8546 163.192 33.84 163.186 33.8266C163.18 33.8131 163.172 33.8011 163.161 33.7913C163.15 33.7814 163.137 33.774 163.123 33.7696C163.109 33.7651 163.094 33.7637 163.079 33.7654H163.091ZM152.696 37.9383L152.657 38.069C152.673 38.06 152.686 38.047 152.695 38.0313C152.704 38.0156 152.708 37.9979 152.708 37.9799C152.702 37.9627 152.691 37.9481 152.675 37.9383H152.696ZM154.511 37.8789C154.49 37.8789 154.47 37.885 154.453 37.8964C154.436 37.9078 154.423 37.9241 154.415 37.9431C154.407 37.9621 154.405 37.983 154.409 38.0031C154.413 38.0233 154.423 38.0418 154.437 38.0564C154.452 38.0709 154.47 38.0808 154.49 38.0848C154.511 38.0888 154.532 38.0868 154.551 38.0789C154.57 38.071 154.586 38.0577 154.597 38.0406C154.609 38.0235 154.615 38.0034 154.615 37.9828C154.615 37.9673 154.612 37.9518 154.605 37.9376C154.599 37.9234 154.589 37.9109 154.577 37.9009C154.565 37.8909 154.551 37.8837 154.536 37.8799C154.521 37.8761 154.505 37.8758 154.49 37.8789H154.511ZM156.421 37.8789C156.393 37.8789 156.367 37.8898 156.347 37.9093C156.328 37.9288 156.317 37.9553 156.317 37.9828C156.317 38.0104 156.328 38.0369 156.347 38.0564C156.367 38.0759 156.393 38.0868 156.421 38.0868C156.448 38.0868 156.475 38.0759 156.494 38.0564C156.514 38.0369 156.524 38.0104 156.524 37.9828C156.524 37.9553 156.514 37.9288 156.494 37.9093C156.475 37.8898 156.448 37.8789 156.421 37.8789ZM158.327 37.8789C158.3 37.8789 158.273 37.8898 158.254 37.9093C158.234 37.9288 158.223 37.9553 158.223 37.9828C158.223 38.0104 158.234 38.0369 158.254 38.0564C158.273 38.0759 158.3 38.0868 158.327 38.0868C158.355 38.0868 158.381 38.0759 158.401 38.0564C158.42 38.0369 158.431 38.0104 158.431 37.9828C158.431 37.9553 158.42 37.9288 158.401 37.9093C158.381 37.8898 158.355 37.8789 158.327 37.8789ZM160.237 37.8789C160.216 37.8789 160.196 37.885 160.179 37.8964C160.162 37.9078 160.149 37.9241 160.141 37.9431C160.133 37.9621 160.131 37.983 160.135 38.0031C160.139 38.0233 160.149 38.0418 160.164 38.0564C160.178 38.0709 160.197 38.0808 160.217 38.0848C160.237 38.0888 160.258 38.0868 160.277 38.0789C160.296 38.071 160.312 38.0577 160.323 38.0406C160.335 38.0235 160.341 38.0034 160.341 37.9828C160.341 37.9673 160.338 37.9518 160.332 37.9376C160.325 37.9234 160.316 37.9109 160.304 37.9009C160.292 37.8909 160.278 37.8837 160.262 37.8799C160.247 37.8761 160.232 37.8758 160.216 37.8789H160.237ZM162.147 37.8789C162.119 37.8789 162.093 37.8898 162.073 37.9093C162.054 37.9288 162.043 37.9553 162.043 37.9828C162.043 38.0104 162.054 38.0369 162.073 38.0564C162.093 38.0759 162.119 38.0868 162.147 38.0868C162.174 38.0868 162.201 38.0759 162.22 38.0564C162.24 38.0369 162.251 38.0104 162.251 37.9828C162.251 37.9553 162.24 37.9288 162.22 37.9093C162.201 37.8898 162.174 37.8789 162.147 37.8789ZM164.054 37.8789C164.026 37.8789 164 37.8898 163.98 37.9093C163.961 37.9288 163.95 37.9553 163.95 37.9828C163.95 38.0104 163.961 38.0369 163.98 38.0564C164 38.0759 164.026 38.0868 164.054 38.0868C164.081 38.0868 164.108 38.0759 164.127 38.0564C164.147 38.0369 164.158 38.0104 164.158 37.9828C164.158 37.9553 164.147 37.9288 164.127 37.9093C164.108 37.8898 164.081 37.8789 164.054 37.8789ZM165.868 37.9442C165.866 37.956 165.866 37.9681 165.868 37.9799C165.868 37.9968 165.872 38.0136 165.88 38.0286C165.887 38.0437 165.899 38.0565 165.913 38.066L165.868 37.9442ZM153.557 36.5424C153.544 36.542 153.53 36.5444 153.517 36.5494C153.504 36.5545 153.493 36.5622 153.483 36.5719C153.473 36.5816 153.466 36.5933 153.461 36.6061C153.455 36.6189 153.453 36.6326 153.453 36.6463C153.453 36.6739 153.464 36.7003 153.484 36.7198C153.503 36.7393 153.53 36.7503 153.557 36.7503C153.585 36.7503 153.611 36.7393 153.631 36.7198C153.65 36.7003 153.661 36.6739 153.661 36.6463C153.662 36.6307 153.658 36.6153 153.652 36.6011C153.646 36.5869 153.636 36.5743 153.624 36.5644C153.612 36.5544 153.598 36.5472 153.583 36.5434C153.568 36.5396 153.552 36.5392 153.537 36.5424H153.557ZM155.464 36.5424C155.437 36.5424 155.41 36.5533 155.391 36.5728C155.371 36.5923 155.36 36.6187 155.36 36.6463C155.36 36.6739 155.371 36.7003 155.391 36.7198C155.41 36.7393 155.437 36.7503 155.464 36.7503C155.478 36.7503 155.491 36.7476 155.504 36.7424C155.517 36.7371 155.528 36.7295 155.538 36.7198C155.547 36.7102 155.555 36.6987 155.56 36.6861C155.565 36.6735 155.568 36.66 155.568 36.6463C155.569 36.6306 155.566 36.6148 155.56 36.6003C155.554 36.5858 155.544 36.573 155.532 36.5629C155.52 36.5528 155.505 36.5457 155.49 36.5421C155.475 36.5385 155.459 36.5386 155.443 36.5424H155.464ZM157.374 36.5424C157.346 36.5424 157.32 36.5533 157.3 36.5728C157.281 36.5923 157.27 36.6187 157.27 36.6463C157.27 36.6739 157.281 36.7003 157.3 36.7198C157.32 36.7393 157.346 36.7503 157.374 36.7503C157.401 36.7503 157.428 36.7393 157.447 36.7198C157.467 36.7003 157.478 36.6739 157.478 36.6463C157.478 36.6319 157.475 36.6176 157.469 36.6044C157.463 36.5911 157.455 36.5793 157.444 36.5695C157.434 36.5597 157.421 36.5522 157.408 36.5476C157.394 36.5429 157.379 36.5411 157.365 36.5424H157.374ZM159.284 36.5424C159.27 36.542 159.256 36.5444 159.243 36.5494C159.231 36.5545 159.219 36.5622 159.209 36.5719C159.2 36.5816 159.192 36.5933 159.187 36.6061C159.182 36.6189 159.179 36.6326 159.18 36.6463C159.18 36.6739 159.191 36.7003 159.21 36.7198C159.23 36.7393 159.256 36.7503 159.284 36.7503C159.311 36.7503 159.338 36.7393 159.357 36.7198C159.377 36.7003 159.388 36.6739 159.388 36.6463C159.388 36.6307 159.385 36.6153 159.378 36.6011C159.372 36.5869 159.362 36.5743 159.35 36.5644C159.338 36.5544 159.324 36.5472 159.309 36.5434C159.294 36.5396 159.278 36.5392 159.263 36.5424H159.284ZM161.19 36.5424C161.163 36.5424 161.136 36.5533 161.117 36.5728C161.097 36.5923 161.087 36.6187 161.087 36.6463C161.087 36.6739 161.097 36.7003 161.117 36.7198C161.136 36.7393 161.163 36.7503 161.19 36.7503C161.218 36.7503 161.244 36.7393 161.264 36.7198C161.283 36.7003 161.294 36.6739 161.294 36.6463C161.295 36.6306 161.293 36.6148 161.286 36.6003C161.28 36.5858 161.27 36.573 161.258 36.5629C161.246 36.5528 161.232 36.5457 161.216 36.5421C161.201 36.5385 161.185 36.5386 161.17 36.5424H161.19ZM163.1 36.5424C163.073 36.5424 163.046 36.5533 163.027 36.5728C163.007 36.5923 162.996 36.6187 162.996 36.6463C162.996 36.6739 163.007 36.7003 163.027 36.7198C163.046 36.7393 163.073 36.7503 163.1 36.7503C163.128 36.7503 163.154 36.7393 163.174 36.7198C163.193 36.7003 163.204 36.6739 163.204 36.6463C163.204 36.6307 163.201 36.6153 163.195 36.6011C163.188 36.5869 163.179 36.5743 163.167 36.5644C163.155 36.5544 163.141 36.5472 163.126 36.5434C163.11 36.5396 163.095 36.5392 163.079 36.5424H163.1ZM165.01 36.5424C164.996 36.542 164.982 36.5444 164.97 36.5494C164.957 36.5545 164.945 36.5622 164.936 36.5719C164.926 36.5816 164.918 36.5933 164.913 36.6061C164.908 36.6189 164.906 36.6326 164.906 36.6463C164.906 36.66 164.909 36.6735 164.914 36.6861C164.919 36.6987 164.927 36.7102 164.936 36.7198C164.946 36.7295 164.958 36.7371 164.97 36.7424C164.983 36.7476 164.996 36.7503 165.01 36.7503C165.038 36.7503 165.064 36.7393 165.083 36.7198C165.103 36.7003 165.114 36.6739 165.114 36.6463C165.114 36.6307 165.111 36.6153 165.105 36.6011C165.098 36.5869 165.089 36.5743 165.077 36.5644C165.065 36.5544 165.05 36.5472 165.035 36.5434C165.02 36.5396 165.004 36.5392 164.989 36.5424H165.01ZM152.601 40.6529C152.573 40.6529 152.547 40.6639 152.528 40.6834C152.508 40.7029 152.497 40.7293 152.497 40.7569C152.497 40.7845 152.508 40.8109 152.528 40.8304C152.547 40.8499 152.573 40.8608 152.601 40.8608C152.615 40.8613 152.628 40.8588 152.641 40.8538C152.654 40.8487 152.666 40.841 152.675 40.8313C152.685 40.8216 152.693 40.81 152.698 40.7972C152.703 40.7844 152.705 40.7707 152.705 40.7569C152.705 40.7413 152.702 40.7258 152.696 40.7116C152.689 40.6975 152.68 40.6849 152.668 40.6749C152.656 40.6649 152.642 40.6578 152.626 40.654C152.611 40.6502 152.596 40.6498 152.58 40.6529H152.601ZM154.511 40.6529C154.483 40.6529 154.457 40.6639 154.437 40.6834C154.418 40.7029 154.407 40.7293 154.407 40.7569C154.407 40.7845 154.418 40.8109 154.437 40.8304C154.457 40.8499 154.483 40.8608 154.511 40.8608C154.538 40.8608 154.565 40.8499 154.584 40.8304C154.604 40.8109 154.615 40.7845 154.615 40.7569C154.615 40.7413 154.612 40.7258 154.605 40.7116C154.599 40.6975 154.589 40.6849 154.577 40.6749C154.565 40.6649 154.551 40.6578 154.536 40.654C154.521 40.6502 154.505 40.6498 154.49 40.6529H154.511ZM156.421 40.6529C156.393 40.6529 156.367 40.6639 156.347 40.6834C156.328 40.7029 156.317 40.7293 156.317 40.7569C156.316 40.7707 156.319 40.7844 156.324 40.7972C156.329 40.81 156.336 40.8216 156.346 40.8313C156.356 40.841 156.367 40.8487 156.38 40.8538C156.393 40.8588 156.407 40.8613 156.421 40.8608C156.448 40.8608 156.475 40.8499 156.494 40.8304C156.514 40.8109 156.524 40.7845 156.524 40.7569C156.525 40.7413 156.522 40.7258 156.515 40.7116C156.509 40.6975 156.499 40.6849 156.487 40.6749C156.475 40.6649 156.461 40.6578 156.446 40.654C156.431 40.6502 156.415 40.6498 156.4 40.6529H156.421ZM158.327 40.6529C158.3 40.6529 158.273 40.6639 158.254 40.6834C158.234 40.7029 158.223 40.7293 158.223 40.7569C158.223 40.7845 158.234 40.8109 158.254 40.8304C158.273 40.8499 158.3 40.8608 158.327 40.8608C158.341 40.8613 158.355 40.8588 158.368 40.8538C158.38 40.8487 158.392 40.841 158.402 40.8313C158.411 40.8216 158.419 40.81 158.424 40.7972C158.429 40.7844 158.432 40.7707 158.431 40.7569C158.432 40.7413 158.428 40.7258 158.422 40.7116C158.415 40.6975 158.406 40.6849 158.394 40.6749C158.382 40.6649 158.368 40.6578 158.353 40.654C158.338 40.6502 158.322 40.6498 158.307 40.6529H158.327ZM160.237 40.6529C160.209 40.6529 160.183 40.6639 160.164 40.6834C160.144 40.7029 160.133 40.7293 160.133 40.7569C160.133 40.7845 160.144 40.8109 160.164 40.8304C160.183 40.8499 160.209 40.8608 160.237 40.8608C160.265 40.8608 160.291 40.8499 160.311 40.8304C160.33 40.8109 160.341 40.7845 160.341 40.7569C160.341 40.7413 160.338 40.7258 160.332 40.7116C160.325 40.6975 160.316 40.6849 160.304 40.6749C160.292 40.6649 160.278 40.6578 160.262 40.654C160.247 40.6502 160.232 40.6498 160.216 40.6529H160.237ZM162.147 40.6529C162.133 40.6529 162.12 40.6556 162.107 40.6608C162.094 40.6661 162.083 40.6737 162.073 40.6834C162.064 40.693 162.056 40.7045 162.051 40.7171C162.046 40.7297 162.043 40.7432 162.043 40.7569C162.042 40.7707 162.045 40.7844 162.05 40.7972C162.055 40.81 162.063 40.8216 162.072 40.8313C162.082 40.841 162.094 40.8487 162.107 40.8538C162.119 40.8588 162.133 40.8613 162.147 40.8608C162.174 40.8608 162.201 40.8499 162.22 40.8304C162.24 40.8109 162.251 40.7845 162.251 40.7569C162.251 40.7403 162.248 40.7239 162.241 40.7088C162.234 40.6938 162.224 40.6806 162.211 40.6705C162.198 40.6603 162.182 40.6534 162.166 40.6504C162.15 40.6473 162.133 40.6482 162.117 40.6529H162.147ZM164.054 40.6529C164.026 40.6529 164 40.6639 163.98 40.6834C163.961 40.7029 163.95 40.7293 163.95 40.7569C163.95 40.7845 163.961 40.8109 163.98 40.8304C164 40.8499 164.026 40.8608 164.054 40.8608C164.067 40.8613 164.081 40.8588 164.094 40.8538C164.107 40.8487 164.118 40.841 164.128 40.8313C164.138 40.8216 164.145 40.81 164.15 40.7972C164.156 40.7844 164.158 40.7707 164.158 40.7569C164.158 40.7413 164.155 40.7258 164.148 40.7116C164.142 40.6975 164.132 40.6849 164.12 40.6749C164.108 40.6649 164.094 40.6578 164.079 40.654C164.064 40.6502 164.048 40.6498 164.033 40.6529H164.054ZM165.963 40.6529C165.936 40.6529 165.909 40.6639 165.89 40.6834C165.87 40.7029 165.859 40.7293 165.859 40.7569C165.859 40.7845 165.87 40.8109 165.89 40.8304C165.909 40.8499 165.936 40.8608 165.963 40.8608C165.991 40.8608 166.017 40.8499 166.037 40.8304C166.056 40.8109 166.067 40.7845 166.067 40.7569C166.068 40.7413 166.064 40.7258 166.058 40.7116C166.051 40.6975 166.042 40.6849 166.03 40.6749C166.018 40.6649 166.004 40.6578 165.989 40.654C165.974 40.6502 165.958 40.6498 165.943 40.6529H165.963ZM153.557 39.3164C153.53 39.3164 153.503 39.3274 153.484 39.3469C153.464 39.3663 153.453 39.3928 153.453 39.4204C153.453 39.4341 153.455 39.4478 153.461 39.4606C153.466 39.4734 153.473 39.485 153.483 39.4948C153.493 39.5045 153.504 39.5122 153.517 39.5172C153.53 39.5223 153.544 39.5247 153.557 39.5243C153.585 39.5243 153.611 39.5134 153.631 39.4939C153.65 39.4744 153.661 39.4479 153.661 39.4204C153.662 39.4048 153.658 39.3893 153.652 39.3751C153.646 39.3609 153.636 39.3484 153.624 39.3384C153.612 39.3284 153.598 39.3213 153.583 39.3174C153.568 39.3136 153.552 39.3133 153.537 39.3164H153.557ZM155.464 39.3164C155.437 39.3164 155.41 39.3274 155.391 39.3469C155.371 39.3663 155.36 39.3928 155.36 39.4204C155.36 39.4479 155.371 39.4744 155.391 39.4939C155.41 39.5134 155.437 39.5243 155.464 39.5243C155.478 39.5247 155.492 39.5223 155.504 39.5172C155.517 39.5122 155.529 39.5045 155.539 39.4948C155.548 39.485 155.556 39.4734 155.561 39.4606C155.566 39.4478 155.569 39.4341 155.568 39.4204C155.568 39.4048 155.565 39.3893 155.559 39.3751C155.552 39.3609 155.543 39.3484 155.531 39.3384C155.519 39.3284 155.505 39.3213 155.49 39.3174C155.474 39.3136 155.459 39.3133 155.443 39.3164H155.464ZM157.374 39.3164C157.346 39.3164 157.32 39.3274 157.3 39.3469C157.281 39.3663 157.27 39.3928 157.27 39.4204C157.27 39.4479 157.281 39.4744 157.3 39.4939C157.32 39.5134 157.346 39.5243 157.374 39.5243C157.401 39.5243 157.428 39.5134 157.447 39.4939C157.467 39.4744 157.478 39.4479 157.478 39.4204C157.478 39.4059 157.475 39.3916 157.469 39.3784C157.463 39.3652 157.455 39.3533 157.444 39.3435C157.434 39.3337 157.421 39.3263 157.408 39.3216C157.394 39.3169 157.379 39.3152 157.365 39.3164H157.374ZM159.284 39.3164C159.27 39.3164 159.257 39.3191 159.244 39.3243C159.231 39.3295 159.22 39.3372 159.21 39.3469C159.201 39.3565 159.193 39.368 159.188 39.3806C159.182 39.3932 159.18 39.4067 159.18 39.4204C159.179 39.4341 159.182 39.4478 159.187 39.4606C159.192 39.4734 159.2 39.485 159.209 39.4948C159.219 39.5045 159.231 39.5122 159.243 39.5172C159.256 39.5223 159.27 39.5247 159.284 39.5243C159.311 39.5243 159.338 39.5134 159.357 39.4939C159.377 39.4744 159.388 39.4479 159.388 39.4204C159.388 39.4048 159.385 39.3893 159.378 39.3751C159.372 39.3609 159.362 39.3484 159.35 39.3384C159.338 39.3284 159.324 39.3213 159.309 39.3174C159.294 39.3136 159.278 39.3133 159.263 39.3164H159.284ZM161.19 39.3164C161.163 39.3164 161.136 39.3274 161.117 39.3469C161.097 39.3663 161.087 39.3928 161.087 39.4204C161.087 39.4479 161.097 39.4744 161.117 39.4939C161.136 39.5134 161.163 39.5243 161.19 39.5243C161.204 39.5247 161.218 39.5223 161.231 39.5172C161.244 39.5122 161.255 39.5045 161.265 39.4948C161.275 39.485 161.282 39.4734 161.287 39.4606C161.292 39.4478 161.295 39.4341 161.294 39.4204C161.295 39.4048 161.292 39.3893 161.285 39.3751C161.279 39.3609 161.269 39.3484 161.257 39.3384C161.245 39.3284 161.231 39.3213 161.216 39.3174C161.201 39.3136 161.185 39.3133 161.17 39.3164H161.19ZM163.1 39.3164C163.073 39.3164 163.046 39.3274 163.027 39.3469C163.007 39.3663 162.996 39.3928 162.996 39.4204C162.996 39.4479 163.007 39.4744 163.027 39.4939C163.046 39.5134 163.073 39.5243 163.1 39.5243C163.128 39.5243 163.154 39.5134 163.174 39.4939C163.193 39.4744 163.204 39.4479 163.204 39.4204C163.204 39.4048 163.201 39.3893 163.195 39.3751C163.188 39.3609 163.179 39.3484 163.167 39.3384C163.155 39.3284 163.141 39.3213 163.126 39.3174C163.11 39.3136 163.095 39.3133 163.079 39.3164H163.1ZM165.01 39.3164C164.982 39.3164 164.956 39.3274 164.936 39.3469C164.917 39.3663 164.906 39.3928 164.906 39.4204C164.906 39.4341 164.908 39.4478 164.913 39.4606C164.918 39.4734 164.926 39.485 164.936 39.4948C164.945 39.5045 164.957 39.5122 164.97 39.5172C164.982 39.5223 164.996 39.5247 165.01 39.5243C165.038 39.5243 165.064 39.5134 165.083 39.4939C165.103 39.4744 165.114 39.4479 165.114 39.4204C165.114 39.4048 165.111 39.3893 165.105 39.3751C165.098 39.3609 165.089 39.3484 165.077 39.3384C165.065 39.3284 165.05 39.3213 165.035 39.3174C165.02 39.3136 165.004 39.3133 164.989 39.3164H165.01Z" fill="white"/>
<path d="M111.561 76.5751C111.619 75.6046 111.756 74.6405 111.971 73.6924C112.142 72.8191 112.494 71.9911 113.003 71.2614C113.24 70.9293 113.541 70.6473 113.887 70.4316C114.233 70.2159 114.619 70.0708 115.022 70.0046C115.408 69.9776 115.797 70.0306 116.162 70.1602C116.527 70.2899 116.862 70.4934 117.146 70.7581C117.853 71.4109 118.466 72.1597 118.965 72.9827C119.542 73.8694 120.066 74.7889 120.537 75.7364C120.552 75.7673 120.506 75.7931 120.49 75.7622C120.082 74.9584 119.612 74.1878 119.084 73.4576C118.602 72.7592 118.06 72.1038 117.466 71.4988C116.921 70.9827 116.232 70.4665 115.447 70.4484C115.062 70.453 114.682 70.5473 114.339 70.7238C113.996 70.9002 113.699 71.1541 113.471 71.4653C112.978 72.1649 112.64 72.9609 112.477 73.8008C112.269 74.7029 112.133 75.6203 112.072 76.5441C111.917 78.4435 111.876 80.3533 111.832 82.2553C111.808 83.334 111.791 84.4119 111.783 85.4889C111.783 86.0335 111.783 86.5806 111.77 87.1251C111.789 87.6524 111.769 88.1804 111.708 88.7045C111.69 88.8103 111.514 88.8 111.496 88.7045C111.433 88.2082 111.409 87.7078 111.424 87.2077C111.424 86.6916 111.411 86.1754 111.406 85.6593C111.406 84.6528 111.393 83.6463 111.406 82.6424C111.401 80.6165 111.424 78.5906 111.561 76.5751Z" fill="#263238"/>
<path d="M114.273 75.1453C114.356 74.5608 114.556 73.999 114.862 73.4936C115.411 72.7452 116.005 73.0704 115.455 73.8988C115.05 74.5128 114.785 75.2091 114.681 75.9376C114.681 75.9376 115.605 77.2589 116.72 77.9093C116.61 77.2347 116.58 76.5496 116.629 75.8679C116.844 74.2369 117.829 74.3195 117.584 75.6253C117.407 76.4858 117.332 77.3642 117.362 78.2422C117.734 78.4838 118.134 78.6805 118.552 78.828C118.49 78.637 118.42 78.4099 118.346 78.1364C117.951 76.6757 118.926 76.2189 118.957 77.0421C119.02 77.7403 119.146 78.4314 119.334 79.1067C119.871 79.2874 120.312 79.4087 120.586 79.5042C121.288 79.7641 121.916 80.1931 122.413 80.7532C122.92 80.299 123.342 79.758 123.659 79.1558C123.319 78.8616 122.782 78.4254 122.033 77.8989C120.632 76.9079 121.12 75.6589 122.232 76.4357C123.035 76.9957 123.654 78.0357 123.938 78.5674C124.313 77.6367 124.524 76.6484 124.563 75.646C123.461 74.6137 120.74 73.1736 121.561 73.1736C122.299 73.1736 123.951 74.255 124.557 74.673C124.539 74.3814 124.508 74.0975 124.464 73.824C123.432 73.1452 120.059 72.0871 120.593 71.7852C121.182 71.4497 123.533 72.5388 124.243 72.882C124.109 72.42 123.899 71.9837 123.621 71.5916C122.188 69.6742 119.605 69.0109 118.477 69.3774C117.68 69.6355 117.915 71.6613 117.742 71.5916C114.552 70.3039 113.096 71.2149 114.273 75.1453ZM122.126 74.9234C122.353 74.6498 123.404 75.4576 123.099 75.8989C122.795 76.3402 121.832 75.2847 122.126 74.9234ZM116.632 73.1994C116.908 73.3749 116.5 74.3969 116.074 74.0872C115.711 73.824 116.353 73.0214 116.632 73.1994Z" fill="#FFC727"/>
<path d="M117.053 73.5117C117.197 73.2252 117.347 72.9413 117.512 72.6678C117.663 72.3935 117.841 72.1343 118.041 71.8935C117.995 71.8368 117.951 71.78 117.904 71.7258C117.858 71.6716 117.917 71.6716 117.938 71.6948C117.958 71.7181 118.044 71.8187 118.095 71.8806C118.106 71.8859 118.114 71.8952 118.118 71.9064C118.315 72.1439 118.5 72.3865 118.678 72.6368C118.993 72.7059 119.304 72.7921 119.61 72.8949C119.925 73.0007 120.235 73.1091 120.542 73.2381C120.573 73.2536 120.557 73.3052 120.526 73.2923C120.222 73.1581 119.915 73.0342 119.602 72.9207C119.29 72.8071 119.004 72.7452 118.704 72.6626C118.8 72.7994 118.898 72.9387 118.988 73.0807C119.554 73.26 120.105 73.4844 120.635 73.7517C121.189 74.0097 121.726 74.322 122.258 74.6317C122.289 74.6472 122.258 74.6936 122.229 74.6756C121.705 74.3707 121.166 74.0925 120.614 73.842C120.098 73.5994 119.566 73.4007 119.047 73.171C120.353 75.2124 121.14 77.5582 122.188 79.7493C122.204 79.7828 122.155 79.8086 122.139 79.7751C121.819 79.0009 121.45 78.2654 121.107 77.5144C120.795 76.8382 120.49 76.1595 120.175 75.4833C120.085 75.2872 119.989 75.0885 119.894 74.8924C119.951 75.9814 119.927 77.0911 120.106 78.1699C120.106 78.1767 120.103 78.1833 120.098 78.1881C120.093 78.193 120.087 78.1957 120.08 78.1957C120.073 78.1957 120.066 78.193 120.061 78.1881C120.057 78.1833 120.054 78.1767 120.054 78.1699C119.977 77.0034 119.773 75.8472 119.78 74.6859C119.78 74.6859 119.78 74.6859 119.78 74.6704C119.558 74.2265 119.324 73.7852 119.068 73.3594C118.635 74.3788 118.178 75.424 117.976 76.5105C117.976 76.544 117.915 76.5285 117.925 76.495C118.219 75.3956 118.493 74.2962 119.022 73.282C118.744 72.8194 118.436 72.3755 118.1 71.9529C117.956 72.211 117.767 72.469 117.602 72.7271C117.437 72.9852 117.282 73.2433 117.135 73.5013C116.812 74.0524 116.538 74.631 116.317 75.2304C116.304 75.264 116.25 75.2459 116.263 75.2149C116.513 74.6601 116.766 74.0768 117.053 73.5117Z" fill="#263238"/>
<path d="M106.74 75.9944C107.579 75.1505 108.547 74.0459 109.852 74.0485C111.104 74.0485 112.025 75.0602 112.557 76.1131C113.109 77.1996 113.308 78.4358 113.465 79.6306C113.649 81.065 113.759 82.5078 113.796 83.9534C113.819 84.756 113.816 85.5611 113.796 86.3638C113.798 87.1776 113.737 87.9905 113.613 88.7948C113.589 88.9238 113.38 88.929 113.373 88.7948C113.336 88.1187 113.373 87.4399 113.373 86.7612C113.373 86.0825 113.373 85.4295 113.342 84.7637C113.29 83.4166 113.192 82.072 113.035 80.7326C112.898 79.5635 112.776 78.3609 112.436 77.2306C112.121 76.1983 111.53 75.0473 110.498 74.5982C109.086 73.9892 107.71 75.1144 106.787 76.046C106.756 76.0589 106.717 76.0176 106.74 75.9944Z" fill="#263238"/>
<path d="M102.459 77.8654C102.459 78.0383 102.474 78.2086 102.487 78.3816C102.891 78.0809 103.364 77.8857 103.862 77.8138C105.052 77.6848 104.977 78.588 104.18 78.6293C103.62 78.6363 103.066 78.7475 102.546 78.9571C102.74 80.5313 103.173 81.7959 103.238 81.8113C104.295 81.7524 105.347 81.6196 106.386 81.4139C106.09 80.7842 105.416 79.9455 105.759 79.8655C106.103 79.7855 106.479 80.5442 106.67 81.3468C107.448 81.1964 108.214 80.9859 108.959 80.7171C108.443 80.2629 107.625 79.6848 107.927 79.4577C108.229 79.2306 108.879 80.0126 109.264 80.5907C109.615 80.4462 109.948 80.2609 110.255 80.0384C109.548 79.0061 107.826 78.7893 108.051 78.0409C108.276 77.2925 109.886 78.3299 110.609 79.7184C111.458 78.8383 111.708 77.5918 111.618 76.5286C110.877 76.4408 109.455 76.5983 109.553 76.0666C109.651 75.535 110.683 75.6357 111.525 75.9453C111.447 75.5245 111.279 75.1256 111.032 74.7763C110.258 73.7749 107.873 75.0472 107.873 75.0472C107.873 75.0472 108.131 72.6575 107.22 72.2446C106.704 72.0072 105.775 72.0097 104.851 72.5543C105.367 72.5981 105.997 72.7607 106.25 73.122C106.572 73.5814 106.064 73.8317 105.734 73.6201C105.506 73.4678 105.081 72.9956 104.314 72.9336C103.985 73.209 103.696 73.5286 103.455 73.8833C103.367 74.0072 103.284 74.1414 103.197 74.2782C103.636 74.0811 104.113 73.9835 104.595 73.9924C105.076 74.0014 105.55 74.1166 105.981 74.3298C107.014 74.8459 106.435 75.9118 105.548 75.4963C104.66 75.0808 103.816 74.6705 102.877 74.9079C102.545 75.7563 102.391 76.6635 102.422 77.5738C102.883 77.2377 103.4 76.9884 103.95 76.8383C104.983 76.5802 105.287 77.1841 104.159 77.2976C103.56 77.3699 102.981 77.563 102.459 77.8654ZM103.705 76.2189C103.635 75.886 104.361 75.7905 104.479 76.0615C104.583 76.3015 103.775 76.575 103.705 76.2292V76.2189ZM109.925 78.059C109.994 77.8757 110.479 78.0822 110.441 78.317C110.368 78.6216 109.852 78.2499 109.925 78.0693V78.059ZM106.497 79.2332C106.854 79.0912 107.406 79.9739 107.014 80.1752C106.621 80.3765 106.201 79.3493 106.497 79.2332Z" fill="#FFC727"/>
<path d="M103.377 81.6331C103.911 80.7402 104.44 79.8421 105.001 78.9647C105.26 78.5569 105.533 78.1569 105.819 77.7646L105.692 77.7336L105.481 77.6924C105.308 77.6648 105.143 77.6416 104.985 77.6227C104.828 77.6072 104.673 77.5995 104.515 77.5969C104.348 77.5874 104.18 77.596 104.015 77.6227C103.994 77.6227 103.991 77.5969 104.015 77.5969C104.182 77.5969 104.353 77.5814 104.531 77.5788C104.709 77.5762 104.856 77.5788 105.016 77.5917C105.169 77.5995 105.321 77.615 105.473 77.6382L105.731 77.682C105.78 77.682 105.831 77.7001 105.881 77.713C106.17 77.3156 106.472 76.9259 106.781 76.5439C105.856 76.0938 104.872 75.7792 103.857 75.6097C103.839 75.6097 103.857 75.5813 103.857 75.5839C104.888 75.7269 105.889 76.0308 106.825 76.4846L107.341 75.8575C107.535 75.6252 107.741 75.3981 107.914 75.1529C107.914 75.1349 107.95 75.1529 107.937 75.1684C107.697 75.4329 107.471 75.7094 107.259 75.9968C107.64 76.2629 108.003 76.5543 108.345 76.8691C108.701 77.184 109.045 77.5091 109.377 77.8446C109.38 77.847 109.382 77.8504 109.382 77.854C109.382 77.8577 109.381 77.8612 109.379 77.864C109.376 77.8667 109.373 77.8684 109.369 77.8686C109.366 77.8689 109.362 77.8677 109.359 77.8653C109.026 77.5332 108.681 77.2175 108.327 76.9181C107.966 76.6162 107.586 76.3426 107.223 76.0459L106.964 76.371C106.921 76.4252 106.879 76.482 106.838 76.5362C106.701 76.7194 106.562 76.9001 106.425 77.0807C106.586 77.3159 106.724 77.5656 106.838 77.8266C106.957 78.0846 107.06 78.3427 107.158 78.6008C107.348 79.147 107.497 79.7069 107.602 80.2757C107.602 80.2912 107.579 80.2989 107.576 80.2757C107.462 79.7155 107.3 79.1663 107.091 78.6343C106.985 78.3608 106.869 78.0949 106.745 77.8291C106.621 77.5633 106.5 77.3543 106.397 77.1117C106.278 77.2691 106.157 77.4291 106.041 77.5917L105.94 77.7336V77.7569C105.573 78.273 105.225 78.7892 104.884 79.326C104.906 79.3621 104.921 79.4013 104.931 79.4421C104.953 79.5075 104.974 79.572 104.993 79.6356C105.031 79.7662 105.062 79.8989 105.086 80.0331C105.109 80.1595 105.127 80.2912 105.14 80.415C105.141 80.5592 105.151 80.7031 105.171 80.846C105.171 80.8667 105.142 80.8692 105.145 80.846C105.154 80.711 105.144 80.5754 105.114 80.4434C105.096 80.3066 105.07 80.1673 105.039 80.0331C105.008 79.8989 104.977 79.7879 104.941 79.6666C104.92 79.6073 104.902 79.5453 104.882 79.486C104.861 79.4266 104.856 79.4214 104.846 79.3879C104.686 79.6391 104.528 79.8894 104.373 80.1389C104.067 80.6396 103.761 81.1402 103.455 81.6409C103.4 81.6796 103.362 81.6589 103.377 81.6331Z" fill="#263238"/>
<path d="M111.618 88.4929C111.63 87.9768 111.71 87.4761 111.765 86.9729C111.819 86.4696 111.878 85.9612 111.932 85.4554C111.999 84.4725 112.129 83.4949 112.322 82.5288C112.493 81.6968 112.908 80.9347 113.514 80.3404C113.827 80.0257 114.239 79.8287 114.681 79.7829C115.126 79.7694 115.562 79.9037 115.922 80.1649C116.328 80.4686 116.677 80.8406 116.954 81.2643C117.257 81.6844 117.529 82.126 117.767 82.5856C117.767 82.6011 117.749 82.6114 117.739 82.5856C117.288 81.8191 116.69 81.1491 115.979 80.6139C115.664 80.3538 115.278 80.193 114.872 80.152C114.673 80.1489 114.476 80.1852 114.291 80.2587C114.106 80.3322 113.938 80.4415 113.796 80.5804C113.23 81.1259 112.835 81.8245 112.66 82.5908C112.453 83.4814 112.307 84.385 112.221 85.2954C112.149 85.8296 112.082 86.3664 112.01 86.9032C111.938 87.44 111.896 87.9819 111.783 88.5058C111.775 88.5225 111.763 88.5364 111.747 88.5458C111.732 88.5551 111.714 88.5594 111.696 88.558C111.677 88.5566 111.66 88.5495 111.646 88.5379C111.632 88.5262 111.622 88.5105 111.618 88.4929Z" fill="#263238"/>
<path d="M114.105 84.5752C114.262 84.7875 114.448 84.9768 114.658 85.1378C114.575 84.6423 114.474 83.7648 114.722 83.2977C115.109 82.5725 115.569 82.9338 115.336 83.5558C115.107 84.1261 114.982 84.7325 114.965 85.3468C115.492 85.6773 116.057 85.9433 116.647 86.1391C116.583 85.8556 116.564 85.5639 116.591 85.2746C116.668 84.5003 117.262 84.5132 117.107 85.3184C117.05 85.6318 117.024 85.9498 117.027 86.2681C117.888 86.53 118.768 86.7258 119.659 86.854C120.113 86.2656 120.479 85.6145 120.746 84.921C120.113 84.7636 118.836 84.7274 118.862 84.2758C118.898 83.6693 120.136 84.1365 120.862 84.5778C121.027 84.0496 121.101 83.4972 121.081 82.9442C120.513 82.7846 119.929 82.6877 119.339 82.6551C118.049 82.5416 118.103 81.8061 119.045 81.8215C119.739 81.8344 120.619 82.2603 121.037 82.4822C120.764 80.7144 119.416 79.5789 118.333 79.5376C116.526 79.4628 117.169 81.7261 117.169 81.7261C117.169 81.7261 115.938 80.8589 114.774 80.8822C113.61 80.9054 112.864 82.8306 114.105 84.5752ZM118.965 81.3028C118.924 81.0447 119.739 80.988 119.778 81.3028C119.827 81.6667 119.006 81.548 118.965 81.2899V81.3028ZM120.271 83.9584C120.253 83.7906 120.604 83.7622 120.684 83.9713C120.735 84.0952 120.284 84.1081 120.271 83.9455V83.9584ZM115.904 84.1132C116.178 84.1519 116.332 85.1326 115.86 85.112C115.501 85.0913 115.672 84.059 115.904 84.1003V84.1132Z" fill="#FFC727"/>
<path d="M116.283 85.1896C116.326 85.0657 116.368 84.9418 116.407 84.8179C116.371 84.9444 116.34 85.076 116.317 85.1973C116.304 85.2231 116.273 85.2128 116.283 85.1896Z" fill="#263238"/>
<path d="M116.407 84.8173C116.407 84.7891 116.423 84.7583 116.433 84.7301C116.423 84.7583 116.415 84.7891 116.407 84.8173Z" fill="#263238"/>
<path d="M108.575 87.5095L108.704 90.2166L109.032 97.1924H116.232L116.562 90.2166L116.689 87.5095H108.575Z" fill="#37474F"/>
<path d="M108.575 87.5095L108.704 90.2166H116.562L116.689 87.5095H108.575Z" fill="#263238"/>
<path d="M108.064 88.6037H117.2V86.4152H108.064V88.6037Z" fill="#37474F"/>
<path d="M115.649 97.1925H114.384V98.3383H115.649V97.1925Z" fill="#37474F"/>
<path d="M115.649 97.1925H114.384V97.7654H115.649V97.1925Z" fill="#263238"/>
<path d="M110.877 97.1925H109.615V98.3383H110.877V97.1925Z" fill="#37474F"/>
<path d="M110.877 97.1925H109.615V97.7654H110.877V97.1925Z" fill="#263238"/>
<path d="M185.426 40.9321C183.104 44.7219 185.296 48.4464 184.657 51.057C184.268 52.6549 182.049 54.9181 182.014 56.6289C181.957 59.4297 184.39 59.6465 184.351 61.1701C184.301 63.3293 181.654 64.0184 182.21 67.3449C182.765 70.6713 187.354 72.9197 195.94 71.1555C204.527 69.3913 208.118 64.8857 207.524 62.0968C206.93 59.3079 203.903 59.3019 203.068 57.3447C202.534 56.1002 203.959 54.6538 203.267 52.2599C202.575 49.866 200.036 49.8423 199.056 47.9385C198.076 46.0347 197.571 40.8103 193.808 39.2718C190.045 37.7333 186.57 39.0639 185.426 40.9321Z" fill="#263238"/>
<path d="M185.821 40.8845C185.128 41.8107 184.67 42.8909 184.485 44.0328C184.298 45.2372 184.253 46.4593 184.351 47.6741C184.429 48.392 184.424 49.1166 184.336 49.8334C184.219 50.4468 183.992 51.0342 183.668 51.5679C183.032 52.6698 182.162 53.6321 181.651 54.8023C181.167 55.9131 180.947 57.2585 181.631 58.3366C182.002 58.9307 182.593 59.3108 183.05 59.8217C183.508 60.3325 183.808 60.98 183.475 61.6037C183.178 62.1383 182.646 62.5155 182.287 62.9967C181.926 63.4694 181.645 63.9982 181.455 64.5619C181.258 65.1217 181.18 65.7166 181.226 66.3083C181.272 66.9001 181.441 67.4757 181.723 67.9983C183.041 70.4189 185.937 71.1049 188.468 71.3069C188.821 71.3336 189.175 71.3604 189.528 71.3812C189.584 71.3812 189.602 71.3039 189.546 71.298C186.98 71.0188 183.998 70.6802 182.326 68.4527C181.954 67.9681 181.699 67.4046 181.579 66.8058C181.46 66.2069 181.479 65.5886 181.637 64.9985C181.797 64.4126 182.062 63.8603 182.418 63.3679C182.762 62.8898 183.217 62.5185 183.573 62.0552C183.754 61.8371 183.874 61.5748 183.921 61.295C183.967 61.0152 183.939 60.7282 183.837 60.4632C183.576 59.8948 183.182 59.3977 182.688 59.0138C182.175 58.6142 181.795 58.0685 181.598 57.4486C181.471 56.8252 181.513 56.1791 181.72 55.5775C182.1 54.3627 182.908 53.3796 183.609 52.3341C184.31 51.2887 184.761 50.169 184.725 48.8918C184.705 48.2444 184.616 47.5999 184.571 46.9554C184.526 46.3565 184.515 45.7557 184.535 45.1555C184.554 43.9582 184.834 42.7794 185.355 41.7013C185.498 41.4243 185.667 41.1617 185.86 40.9172C185.878 40.8935 185.842 40.8578 185.821 40.8845Z" fill="#263238"/>
<path d="M207.262 60C207.018 59.5942 206.69 59.2457 206.3 58.9783C205.893 58.708 205.444 58.512 205.017 58.2773C204.593 58.0851 204.232 57.7761 203.977 57.3863C203.698 56.8903 203.757 56.3112 203.858 55.7736C203.99 55.2195 204.083 54.6567 204.135 54.0895C204.157 53.5339 204.095 52.9782 203.95 52.4412C203.644 51.3379 203.005 50.3558 202.121 49.6285C201.687 49.2543 201.23 48.9187 200.793 48.5504C200.315 48.15 199.892 47.6876 199.537 47.1752C198.762 46.0496 198.254 44.7576 197.541 43.5904C196.802 42.3982 195.943 41.2845 194.978 40.2669C194.954 40.2401 194.921 40.2817 194.945 40.3055C195.806 41.2301 196.568 42.2414 197.22 43.3231C197.841 44.3477 198.307 45.4467 198.866 46.504C199.362 47.529 200.083 48.4293 200.974 49.1384C201.83 49.8691 202.7 50.5849 203.205 51.6184C203.702 52.6307 203.866 53.7743 203.674 54.8855C203.505 55.8508 203.187 56.9646 203.879 57.7992C204.473 58.512 205.403 58.7496 206.139 59.2604C206.533 59.5447 206.861 59.9089 207.104 60.3291C207.347 60.7494 207.498 61.2161 207.547 61.6988C207.844 64.164 205.896 66.0678 203.754 66.8875C203.743 66.8943 203.735 66.9049 203.73 66.9173C203.726 66.9297 203.726 66.9432 203.731 66.9555C203.735 66.9678 203.744 66.9782 203.755 66.9848C203.767 66.9913 203.78 66.9937 203.793 66.9915C205.679 66.3589 207.47 64.859 207.785 62.8007C207.94 61.8348 207.755 60.8449 207.262 60Z" fill="#263238"/>
<path d="M201.423 112.558C201.159 111.688 186.819 91.5985 185.789 91.1737C185.4 91.0104 184.639 90.4045 181.022 92.8251L173.403 86.1395L169.073 100.292L187.957 108.335C187.957 108.335 196.885 113.571 198.055 113.913C199.225 114.254 201.69 113.428 201.423 112.558Z" fill="#AD6359"/>
<path d="M201.423 112.558C201.159 111.688 186.819 91.5985 185.789 91.1737C185.4 91.0104 184.639 90.4045 181.022 92.8251L173.403 86.1395L169.073 100.292L187.957 108.335C187.957 108.335 196.885 113.571 198.055 113.913C199.225 114.254 201.69 113.428 201.423 112.558Z" fill="#AD6359"/>
<path d="M180.252 105.059L187.939 108.326C187.939 108.326 196.87 113.559 198.037 113.901C199.204 114.242 201.678 113.417 201.411 112.549C201.144 111.682 186.807 91.5896 185.78 91.1649C185.388 91.0016 184.63 90.3957 181.013 92.8163L180.234 92.1094L180.252 105.059Z" fill="#C7C7C7"/>
<path d="M181.939 105.112C181.742 104.832 181.514 104.574 181.259 104.343C181.011 104.106 180.736 103.899 180.44 103.725C180.639 104.006 180.869 104.264 181.126 104.495C181.373 104.73 181.646 104.938 181.939 105.112Z" fill="#263238"/>
<path d="M181.957 103.77C181.759 103.49 181.531 103.232 181.277 103.001C181.027 102.765 180.752 102.558 180.457 102.383C180.653 102.665 180.881 102.924 181.137 103.152C181.387 103.388 181.662 103.595 181.957 103.77Z" fill="#263238"/>
<path d="M181.972 102.43C181.57 101.872 181.06 101.4 180.472 101.043C180.671 101.323 180.899 101.581 181.152 101.813C181.402 102.048 181.677 102.255 181.972 102.43Z" fill="#263238"/>
<path d="M181.99 101.088C181.593 100.531 181.088 100.059 180.505 99.7007C180.701 99.9827 180.929 100.241 181.185 100.47C181.43 100.705 181.699 100.912 181.99 101.088Z" fill="#263238"/>
<path d="M182.017 99.7483C181.821 99.4658 181.593 99.2075 181.336 98.9791C181.088 98.7412 180.813 98.5329 180.517 98.3583C180.714 98.6395 180.942 98.8975 181.197 99.1276C181.446 99.3639 181.721 99.5721 182.017 99.7483Z" fill="#263238"/>
<path d="M182.017 98.4059C181.819 98.1253 181.591 97.8674 181.336 97.6366C181.087 97.4005 180.812 97.1933 180.517 97.0189C180.713 97.3008 180.941 97.5589 181.197 97.7881C181.446 98.0242 181.721 98.2315 182.017 98.4059Z" fill="#263238"/>
<path d="M182.037 97.0634C181.634 96.5032 181.122 96.0304 180.531 95.6734C180.933 96.2318 181.443 96.7036 182.031 97.0604L182.037 97.0634Z" fill="#263238"/>
<path d="M182.055 95.7239C181.857 95.4433 181.629 95.1854 181.375 94.9546C181.127 94.7176 180.852 94.5103 180.555 94.3369C180.752 94.6188 180.98 94.8769 181.236 95.1061C181.485 95.3422 181.76 95.5494 182.055 95.7239Z" fill="#263238"/>
<path d="M182.07 94.3815C181.874 94.0996 181.646 93.8414 181.39 93.6122C181.141 93.3761 180.866 93.1689 180.57 92.9945C180.968 93.5514 181.472 94.0231 182.055 94.3815H182.07Z" fill="#263238"/>
<path d="M143.884 84.8653C146.201 91.2302 178.355 105.914 178.355 105.914L183.799 89.0056L169.037 82.712L200.315 78.1263L184.354 72.1683C184.354 72.1683 181.325 73.4514 179.091 72.8039C178.099 72.5069 157.026 69.5992 152.931 70.6209C143.881 72.8722 141.757 79.0232 143.884 84.8653Z" fill="#455A64"/>
<path d="M161.678 78.8539C162.302 79.1112 162.909 79.4088 163.495 79.7449C164.122 80.0598 164.755 80.3657 165.381 80.6835H165.402L164.98 80.3419C164.496 79.9588 164.051 79.537 163.531 79.1985C163.527 79.1935 163.524 79.1872 163.524 79.1806C163.523 79.1739 163.525 79.1674 163.529 79.1619C163.533 79.1564 163.538 79.1524 163.544 79.1504C163.551 79.1484 163.558 79.1486 163.564 79.1509C164.089 79.4806 164.648 79.7657 165.144 80.1429C165.378 80.3211 165.604 80.5053 165.827 80.6954C165.949 80.7993 166.073 80.9033 166.189 81.0132C166.247 81.0628 166.302 81.1164 166.353 81.1735C166.65 81.322 166.923 81.4706 167.202 81.6309C167.826 81.9814 168.42 82.3824 169.046 82.7269C169.079 82.7477 169.046 82.7952 169.014 82.7774C168.399 82.4655 167.754 82.2131 167.137 81.9072C166.519 81.6012 165.892 81.2656 165.277 80.927C164.663 80.5884 164.089 80.2558 163.495 79.9232C162.865 79.6174 162.255 79.2712 161.669 78.8866C161.642 78.8777 161.654 78.845 161.678 78.8539Z" fill="#263238"/>
<path d="M176.584 101.857C176.721 101.376 176.864 100.895 177.006 100.417C177.303 99.4602 177.579 98.5009 177.87 97.5445C178.464 95.6437 179.038 93.7429 179.652 91.8539C180.006 90.7876 180.359 89.7125 180.757 88.6611C180.761 88.6481 180.77 88.6372 180.782 88.6308C180.794 88.6244 180.808 88.623 180.821 88.6269C180.834 88.6308 180.845 88.6398 180.851 88.6518C180.858 88.6637 180.859 88.6778 180.855 88.6908C180.368 90.6302 179.765 92.5519 179.165 94.4497C178.565 96.3476 177.954 98.2366 177.333 100.126C177.158 100.657 176.985 101.186 176.804 101.712C176.623 102.237 176.409 102.781 176.228 103.318C176.228 103.345 176.177 103.333 176.186 103.318C176.335 102.825 176.448 102.338 176.584 101.857Z" fill="#263238"/>
<path d="M193.659 57.2229C190.689 63.0383 185.875 69.6972 184.319 70.5882C182.349 71.7079 171.164 71.8416 170.627 71.7762C169.299 71.5802 169.061 61.6038 170.49 61.7523C172.667 61.981 180.401 63.4957 180.977 63.1423C181.553 62.7888 185.824 59.5247 190.297 55.7706C193.386 53.1569 195.507 53.6173 193.659 57.2229Z" fill="#AD6359"/>
<path d="M171.794 71.5179C171.618 71.5565 169.15 72.1119 167.695 72.1535C166.611 72.1921 163.486 72.2159 163.326 71.0249C163.216 70.214 165.052 69.9824 166.347 69.7923C167.03 69.6913 167.953 69.2369 167.87 68.7944C167.728 68.0192 165.963 68.3162 164.766 68.6577C162.45 69.3201 159.224 70.7368 158.25 69.4151C157.882 68.9102 158.604 68.3429 159.569 67.8499C158.084 68.331 156.542 68.6459 156.112 68.1023C155.862 67.7905 155.93 67.4667 156.192 67.143C156.011 67.1778 155.823 67.158 155.654 67.0861C155.484 67.0141 155.339 66.8933 155.238 66.7391C154.941 66.1955 155.298 65.6015 155.925 65.055C155.848 65.0263 155.78 64.9802 155.725 64.9204C155.67 64.8606 155.629 64.7887 155.607 64.7105C155.063 63.1364 160.472 60.3831 162.096 60.4069C166.872 60.4752 171.571 61.8771 171.571 61.8771C172.985 63.7393 171.797 71.5149 171.794 71.5179Z" fill="#AD6359"/>
<path d="M166.216 65.6936C165.1 65.5893 163.975 65.7239 162.916 66.0886C161.583 66.5549 160.602 67.244 159.417 67.8914C159.413 67.8959 159.41 67.9018 159.409 67.9081C159.408 67.9145 159.409 67.9211 159.412 67.9268C159.415 67.9325 159.419 67.937 159.425 67.9398C159.431 67.9425 159.438 67.9433 159.444 67.9419C160.008 67.6449 162.301 66.5252 162.883 66.2876C163.935 65.8442 165.074 65.6472 166.213 65.7114C166.228 65.7114 166.228 65.6936 166.216 65.6936Z" fill="#263238"/>
<path d="M165.859 63.5671C164.583 63.5463 163.309 63.6558 162.055 63.8938C160.697 64.1908 159.503 64.966 158.333 65.6936C157.632 66.1292 156.939 66.5817 156.254 67.051C156.224 67.0688 156.254 67.1193 156.281 67.0985C157.469 66.3441 158.682 65.6243 159.919 64.9392C161.062 64.3039 162.318 63.9002 163.617 63.7512C164.359 63.6651 165.102 63.6354 165.853 63.6057C165.871 63.5968 165.874 63.5671 165.859 63.5671Z" fill="#263238"/>
<path d="M165.016 61.577C163.807 61.5206 162.75 61.4701 161.577 61.8295C160.02 62.3047 158.369 63.3502 157.79 63.7214C157.148 64.1313 156.522 64.5649 155.904 65.0074C155.877 65.0253 155.904 65.0698 155.934 65.052C157.343 64.0939 158.813 63.2288 160.335 62.4621C161.053 62.0859 161.824 61.8225 162.622 61.681C163.42 61.5815 164.225 61.5487 165.028 61.583C165.028 61.583 165.022 61.577 165.016 61.577Z" fill="#263238"/>
<path d="M189.365 65.7351L185.851 58.2773C187.497 56.9512 189.222 55.7253 191.016 54.6063C194.054 52.7025 195.539 53.742 193.728 58.2238C192.636 60.9216 191.167 63.4506 189.365 65.7351Z" fill="#FFC727"/>
<path d="M186.941 57.7635C187.265 58.2862 187.511 58.8624 187.787 59.4089C188.064 59.9554 188.319 60.4544 188.569 60.986C189.085 62.0889 189.58 63.2007 190.054 64.3214C190.054 64.3422 190.03 64.357 190.021 64.3392C189.472 63.267 188.937 62.1918 188.417 61.1048C188.159 60.5672 187.915 60.0178 187.672 59.4742C187.428 58.9307 187.125 58.3605 186.917 57.7813C186.917 57.7784 186.918 57.7754 186.919 57.7728C186.92 57.7701 186.922 57.7678 186.924 57.766C186.927 57.7643 186.929 57.7631 186.932 57.7627C186.935 57.7622 186.938 57.7625 186.941 57.7635Z" fill="#263238"/>
<path d="M206.748 81.1527C205.997 81.4497 183.941 76.2462 183.941 76.2462L186.127 68.5686C186.127 68.5686 184.737 66.2074 185.209 63.8432C185.836 60.683 191.351 55.2656 191.788 54.933C193.549 53.6351 195.15 53.3826 196.698 54.1073C203.152 57.1368 206.748 81.1527 206.748 81.1527Z" fill="#FFC727"/>
<path d="M188.943 57.808C188.417 58.4882 187.847 59.1386 187.3 59.8039C187.547 59.3168 187.79 58.8238 188.055 58.3456C188.055 58.3456 188.055 58.3248 188.04 58.3456C187.645 58.9157 187.306 59.5224 187.027 60.1573C186.618 60.6624 186.243 61.1943 185.904 61.7493C185.487 62.4109 185.185 63.1392 185.013 63.9026C184.871 64.6751 184.888 65.4685 185.064 66.2341C185.274 67.1127 185.564 67.9706 185.928 68.7973C185.976 68.9072 186.13 68.8299 186.094 68.72C185.61 67.2677 185.07 65.75 185.319 64.1818C185.569 62.6136 186.454 61.3097 187.318 60.0534C187.824 59.2859 188.378 58.5518 188.978 57.8555C189.017 57.814 188.967 57.7783 188.943 57.808Z" fill="#263238"/>
<path d="M177.407 71.0812H153.284V72.1623H177.407V71.0812Z" fill="#C7C7C7"/>
<path d="M153.284 71.0812V72.1623H169.682L168.856 71.0812H153.284Z" fill="#A6A6A6"/>
<path d="M167.814 72.1623H144.303L142.345 56.1953H165.859L167.814 72.1623Z" fill="#C7C7C7"/>
<path d="M156.513 64.1907C156.517 64.3778 156.483 64.5638 156.414 64.7377C156.345 64.9116 156.242 65.0699 156.111 65.2034C155.979 65.3368 155.823 65.4426 155.65 65.5145C155.477 65.5865 155.292 65.6231 155.105 65.6223C154.723 65.6208 154.358 65.4702 154.086 65.2028C153.814 64.9353 153.657 64.5721 153.649 64.1907C153.646 64.0039 153.679 63.8181 153.748 63.6444C153.817 63.4707 153.92 63.3125 154.05 63.1791C154.181 63.0457 154.338 62.9399 154.51 62.8677C154.682 62.7956 154.867 62.7587 155.054 62.7591C155.436 62.7606 155.802 62.911 156.075 63.1785C156.347 63.4459 156.504 63.8091 156.513 64.1907Z" fill="white"/>
<path d="M199.54 57.1309C202.118 61.4226 207.331 75.9997 204.292 78.0431C201.254 80.0865 187.452 74.2414 183.739 71.6159C182.634 70.8347 188.506 64.1224 189.953 64.1907C191.141 64.2471 196.442 67.8944 196.677 67.5766C196.912 67.2588 196.338 64.2442 195.786 58.7614C195.165 52.4411 198.055 54.6627 199.54 57.1309Z" fill="#AD6359"/>
<path d="M184.393 60.7366C181.538 59.8218 180.665 60.0267 178.666 57.9774C177.354 56.6319 175.931 56.8903 176.489 58.7644C177.401 61.8296 180.834 63.7809 182.222 64.1106L184.393 60.7366Z" fill="#AD6359"/>
<path d="M191.672 64.8946C191.672 64.8946 188.702 62.5008 185.756 61.2266C183.718 60.3356 179.073 58.9248 173.718 62.8245C172.447 63.7511 171.295 65.9698 173.917 65.2005C175.782 64.66 176.801 63.7571 177.942 63.6413C177.942 63.6413 176.81 66.6381 177.784 67.8736C178.639 68.9546 179.569 69.9739 180.567 70.9239C180.783 70.7793 180.989 70.6216 181.185 70.4516C181.185 70.4516 182.207 71.5208 184.452 71.6931L191.672 64.8946Z" fill="#AD6359"/>
<path d="M183.677 60.6978C182.569 61.0513 180.235 61.8413 178.548 63.1511C176.676 64.6094 173.46 67.9181 174.55 69.2902C175.349 70.2971 176.688 69.1388 176.688 69.1388C176.688 69.1388 175.646 70.7872 176.567 71.5386C177.404 72.2217 178.387 71.2653 178.387 71.2653C178.387 71.2653 177.927 72.3732 178.862 72.8781C179.988 73.4721 180.763 71.0604 182.427 70.6891C182.807 70.606 183.677 60.6978 183.677 60.6978Z" fill="#AD6359"/>
<path d="M180.416 64.8737C179.43 65.3787 177.481 67.0983 176.679 69.0912C176.662 69.1358 176.679 69.1744 176.712 69.1358C177.774 67.5751 179.023 66.1499 180.431 64.8916C180.431 64.8916 180.428 64.8678 180.416 64.8737Z" fill="#263238"/>
<path d="M181.832 66.8074C181.025 67.3301 179.094 69.1834 178.352 71.2387C178.352 71.2862 178.352 71.3219 178.387 71.2833C179.368 69.6717 180.529 68.177 181.847 66.8282C181.847 66.8282 181.841 66.8014 181.832 66.8074Z" fill="#263238"/>
<path d="M177.945 63.6323C176.941 63.7481 176.24 64.1105 175.34 64.5233C174.897 64.7377 174.442 64.9262 173.977 65.0876C173.552 65.2331 172.925 65.45 172.569 65.049C172.49 64.9305 172.444 64.7929 172.437 64.6508C172.43 64.5086 172.461 64.3671 172.527 64.2412C172.711 63.8741 172.952 63.5384 173.24 63.2462C173.24 63.2462 173.24 63.2165 173.219 63.2284C172.944 63.491 172.697 63.7806 172.48 64.0927C172.336 64.3091 172.262 64.5638 172.266 64.8233C172.313 65.3727 172.922 65.548 173.385 65.4797C173.664 65.4297 173.936 65.3521 174.199 65.248C174.455 65.153 174.704 65.049 174.951 64.951C175.456 64.7223 175.949 64.4669 176.436 64.2322C176.925 64.015 177.427 63.8285 177.939 63.6739C177.971 63.662 177.962 63.6323 177.945 63.6323Z" fill="#263238"/>
<path d="M175.367 66.641C176.166 65.5964 177.032 64.6043 177.96 63.6709C177.96 63.6709 177.96 63.6383 177.942 63.6502C177.077 64.2263 175.566 65.8896 175.18 66.442C174.793 66.9944 174.354 67.6894 174.241 68.3488C174.069 69.3438 174.695 69.6467 174.93 69.7388C175.213 69.8382 175.521 69.8382 175.803 69.7388C176.137 69.6029 176.44 69.4009 176.694 69.1448C176.694 69.1448 176.694 69.1121 176.676 69.124C176.264 69.4566 175.622 69.7447 175.093 69.5784C174.976 69.5458 174.866 69.4901 174.77 69.4147C174.674 69.3392 174.594 69.2454 174.535 69.1388C174.43 68.8738 174.423 68.5801 174.514 68.3102C174.703 67.7102 174.991 67.146 175.367 66.641Z" fill="#263238"/>
<path d="M203.808 64.9213L195.637 63.8432C195.412 61.7403 195.313 59.6258 195.34 57.511C195.382 53.9261 197.063 53.24 199.849 57.1873C201.529 59.564 202.863 62.1682 203.808 64.9213Z" fill="#FFC727"/>
<path d="M195.795 62.6492C196.41 62.6492 197.024 62.7621 197.636 62.8245C198.248 62.8868 198.803 62.9433 199.383 63.0205C200.591 63.1838 201.788 63.371 202.988 63.5848C203.009 63.5848 203.006 63.6234 202.988 63.6234C201.788 63.5046 200.592 63.37 199.4 63.2195C198.806 63.1452 198.212 63.0561 197.618 62.967C197.024 62.8779 196.386 62.8245 195.786 62.6849C195.781 62.6837 195.777 62.6807 195.775 62.6765C195.772 62.6723 195.771 62.6673 195.773 62.6626C195.774 62.6579 195.777 62.6538 195.781 62.6513C195.785 62.6488 195.79 62.648 195.795 62.6492Z" fill="#263238"/>
<path d="M195.447 63.0027C195.415 62.7057 195.391 62.4087 195.373 62.1116C195.373 62.0493 195.373 61.9869 195.373 61.9275C195.275 61.5652 195.177 61.1998 195.115 60.8286C195.115 60.8286 195.132 60.8108 195.135 60.8286C195.225 61.1036 195.299 61.3832 195.358 61.6661C195.334 61.2058 195.32 60.7454 195.34 60.288H195.364C195.438 60.882 195.474 61.4761 195.53 62.0879C195.557 62.3849 195.655 63.8105 195.67 63.8135C195.685 63.8165 196.35 63.9234 196.392 63.9471C196.433 63.9709 196.413 64.0036 196.392 64.0036L195.545 63.8937C195.545 63.8937 195.474 63.267 195.447 63.0027Z" fill="#263238"/>
<path d="M115.315 103.098C116.09 103.571 140.154 109.059 141.205 108.688C141.603 108.549 142.574 108.501 143.67 104.287C143.905 103.378 159.26 96.0357 159.26 96.0357L143.331 88.9075L128.184 97.3009C128.184 97.3009 118.032 99.3206 116.925 99.8522C115.817 100.384 114.54 102.623 115.315 103.098Z" fill="#AD6359"/>
<path d="M115.315 103.099C116.093 103.574 140.153 109.062 141.205 108.691C141.603 108.555 142.577 108.504 143.667 104.29C143.735 104.04 145.039 103.339 146.901 102.454L131.113 95.6734L128.196 97.2921C128.196 97.2921 118.044 99.3147 116.936 99.8404C115.829 100.366 114.54 102.623 115.315 103.099Z" fill="#C7C7C7"/>
<path d="M145.752 102.457C145.419 102.54 145.097 102.66 144.79 102.813C144.48 102.959 144.187 103.14 143.917 103.351C144.582 103.181 145.207 102.878 145.752 102.46V102.457Z" fill="#263238"/>
<path d="M144.508 101.955C144.175 102.038 143.852 102.158 143.545 102.311C143.235 102.457 142.941 102.639 142.672 102.852C143.005 102.769 143.328 102.65 143.635 102.496C143.945 102.35 144.238 102.168 144.508 101.955Z" fill="#263238"/>
<path d="M143.266 101.456C142.599 101.625 141.973 101.928 141.428 102.347C141.761 102.266 142.084 102.146 142.39 101.991C142.701 101.845 142.995 101.666 143.266 101.456Z" fill="#263238"/>
<path d="M142.022 100.954C141.355 101.123 140.729 101.426 140.183 101.845C140.517 101.763 140.841 101.644 141.148 101.489C141.458 101.343 141.751 101.164 142.022 100.954Z" fill="#263238"/>
<path d="M140.777 100.452C140.11 100.621 139.484 100.924 138.939 101.343C139.273 101.263 139.597 101.144 139.904 100.99C140.214 100.843 140.507 100.663 140.777 100.452Z" fill="#263238"/>
<path d="M139.545 99.9502C139.211 100.032 138.888 100.151 138.582 100.307C138.266 100.451 137.967 100.631 137.691 100.844C138.359 100.676 138.984 100.372 139.53 99.9532L139.545 99.9502Z" fill="#263238"/>
<path d="M138.289 99.4483C137.624 99.6215 137 99.9243 136.453 100.339C136.786 100.259 137.109 100.14 137.415 99.9859C137.726 99.8409 138.019 99.6605 138.289 99.4483Z" fill="#263238"/>
<path d="M137.044 98.9405C136.711 99.0231 136.388 99.1427 136.082 99.2969C135.771 99.441 135.478 99.6204 135.208 99.8315C135.541 99.7489 135.864 99.6294 136.171 99.4751C136.481 99.3311 136.774 99.1517 137.044 98.9405Z" fill="#263238"/>
<path d="M135.799 98.4475C135.134 98.6172 134.509 98.9204 133.964 99.3385C134.297 99.2571 134.62 99.1376 134.926 98.9821C135.236 98.8371 135.529 98.6578 135.799 98.4475Z" fill="#263238"/>
<path d="M134.555 97.9454C134.222 98.0275 133.899 98.146 133.593 98.2989C133.282 98.4448 132.989 98.6262 132.719 98.8394C133.053 98.7581 133.376 98.6385 133.682 98.483C133.992 98.3371 134.285 98.1568 134.555 97.9454Z" fill="#263238"/>
<path d="M133.308 97.4554C132.975 97.5375 132.652 97.656 132.345 97.8089C132.035 97.9558 131.742 98.1371 131.472 98.3494C131.806 98.2692 132.128 98.1506 132.434 97.996C132.745 97.8491 133.038 97.6677 133.308 97.4554Z" fill="#263238"/>
<path d="M132.069 96.9416C131.735 97.0234 131.411 97.143 131.104 97.298C130.794 97.4446 130.501 97.6249 130.231 97.8356C130.564 97.7554 130.887 97.6368 131.193 97.4822C131.504 97.3357 131.798 97.1544 132.069 96.9416Z" fill="#263238"/>
<path d="M130.825 96.4396C130.491 96.5227 130.167 96.6422 129.859 96.796C129.549 96.9425 129.256 97.1239 128.986 97.3366C129.32 97.2535 129.644 97.134 129.951 96.9802C130.262 96.8336 130.555 96.6523 130.825 96.4396Z" fill="#263238"/>
<path d="M132.212 94.4853L148.437 102.282L175.105 89.1066C175.105 89.1066 181.218 93.8408 187.781 95.0734C192.237 95.911 201.595 95.8753 205.216 90.6866C208.266 86.3206 206.463 81.1824 206.463 81.1824L201.352 78.8598C201.352 78.8598 189.317 70.2466 181.785 69.4685C170.294 68.2537 132.212 94.4853 132.212 94.4853Z" fill="#455A64"/>
<path d="M196.867 75.863C197.598 76.2996 198.307 76.7689 199.026 77.2204C199.745 77.6718 200.464 78.0728 201.144 78.5628C201.824 79.0529 202.492 79.5994 203.149 80.1429C203.463 80.4043 203.778 80.6686 204.084 80.9389C204.403 81.2004 204.701 81.4864 204.975 81.7943C204.999 81.824 204.957 81.8626 204.928 81.8477C204.586 81.6361 204.257 81.403 203.945 81.1498C203.597 80.8973 203.259 80.6419 202.914 80.3865C202.252 79.8964 201.578 79.4212 200.918 78.9311C200.259 78.4411 199.647 77.9005 198.994 77.4045C198.34 76.9085 197.568 76.3858 196.846 75.8868C196.834 75.8779 196.843 75.8541 196.867 75.863Z" fill="#263238"/>
<path d="M175.126 89.1096C176.493 90.122 177.927 91.0409 179.418 91.8598L186.175 83.3892L175.126 89.1096Z" fill="#263238"/>
<path d="M136.105 93.0181C136.637 93.226 137.16 93.4755 137.682 93.7102C138.205 93.9448 138.713 94.1735 139.227 94.4111C140.275 94.8952 141.306 95.3972 142.36 95.8961C144.439 96.9 149.126 99.5256 150.287 100.111C150.308 100.111 150.287 100.158 150.27 100.149C148.173 99.2167 141.606 95.9258 139.53 94.8833C138.954 94.5863 138.38 94.2893 137.81 93.9923C137.24 93.6953 136.643 93.3983 136.082 93.0597C136.058 93.0508 136.076 93.0003 136.105 93.0181Z" fill="#263238"/>
<path d="M144.701 86.3296C145.143 85.9643 154.573 80.2945 156.602 79.1421C158.63 77.9897 160.674 76.8819 162.747 75.8245C164.82 74.7672 166.905 73.7603 169.049 72.8544C171.194 71.9486 173.302 71.0932 175.494 70.3982C175.773 70.3091 176.053 70.22 176.332 70.125C176.359 70.125 176.367 70.1576 176.332 70.1665C175.221 70.5467 174.14 71.0071 173.065 71.4496C171.99 71.8921 170.935 72.3406 169.881 72.8099C167.772 73.7544 165.693 74.7563 163.644 75.8156C161.591 76.87 159.569 77.9778 157.564 79.1213C155.559 80.2647 153.548 81.4468 151.558 82.6408C150.564 83.2348 145.024 86.3088 144.766 86.4247C144.712 86.4336 144.653 86.3712 144.701 86.3296Z" fill="#263238"/>
<path d="M159.5 96.7129C160.495 96.1664 161.508 95.6555 162.515 95.1328C163.522 94.61 164.538 94.1051 165.553 93.6032C167.567 92.6132 169.59 91.6321 171.621 90.6599C172.768 90.1104 173.92 89.555 175.099 89.0798C175.123 89.0798 175.144 89.1036 175.12 89.1154C174.143 89.6887 173.127 90.2025 172.117 90.7133C171.107 91.2242 170.089 91.7291 169.073 92.234C167.059 93.2349 165.049 94.2418 163.011 95.1862C161.856 95.7238 160.706 96.2733 159.539 96.7812C159.495 96.802 159.444 96.7366 159.5 96.7129Z" fill="#263238"/>
<path d="M195.774 54.5143C195.774 54.9182 194.5 57.8259 192.727 58.1378C192.15 58.2417 191.455 55.1113 191.455 55.1113L191.351 54.8944L189.899 51.8234L193.621 48.0811C193.621 48.0811 195.771 54.345 195.774 54.5143Z" fill="#AD6359"/>
<path d="M189.899 51.8233L191.351 54.8914C192.149 54.3673 192.828 53.6819 193.345 52.8792C193.862 52.0766 194.205 51.1746 194.351 50.2313C193.983 49.1443 193.674 48.2414 193.629 48.1077L193.151 48.5532L189.899 51.8233Z" fill="#263238"/>
<path d="M183.923 48.3781C184.758 54.2796 188.378 54.4459 189.659 54.2647C190.814 54.0984 194.725 53.3915 194.506 47.4336C194.286 41.4756 191.28 40.0084 188.619 40.2371C185.958 40.4658 183.089 42.4736 183.923 48.3781Z" fill="#AD6359"/>
<path d="M184.645 47.7395C184.779 47.692 184.895 47.6296 185.022 47.5702C185.163 47.5305 185.287 47.4448 185.373 47.3267C185.393 47.2845 185.398 47.237 185.388 47.1915C185.379 47.1459 185.355 47.1047 185.319 47.0742C185.238 47.0267 185.146 47.0016 185.052 47.0016C184.958 47.0016 184.866 47.0267 184.785 47.0742C184.605 47.1406 184.457 47.272 184.369 47.4425C184.354 47.4819 184.35 47.5249 184.358 47.5664C184.366 47.6079 184.386 47.6463 184.414 47.6772C184.443 47.7082 184.48 47.7304 184.521 47.7414C184.562 47.7524 184.605 47.7518 184.645 47.7395Z" fill="#263238"/>
<path d="M188.616 46.9466C188.48 46.9541 188.343 46.9541 188.206 46.9466C188.061 46.9657 187.913 46.9376 187.784 46.8665C187.749 46.8359 187.725 46.7948 187.715 46.7492C187.706 46.7036 187.711 46.6562 187.731 46.614C187.784 46.5367 187.856 46.4748 187.941 46.4346C188.025 46.3944 188.119 46.3774 188.212 46.3853C188.404 46.373 188.593 46.4322 188.744 46.5516C188.777 46.5807 188.801 46.6189 188.813 46.6615C188.825 46.7041 188.824 46.7492 188.81 46.7913C188.797 46.8334 188.771 46.8705 188.737 46.8981C188.702 46.9258 188.66 46.9426 188.616 46.9466Z" fill="#263238"/>
<path d="M187.844 47.9831C187.844 47.9653 187.877 47.9831 187.88 48.0128C187.942 48.4138 188.082 48.8622 188.474 48.9246V48.9484C188.016 48.9692 187.838 48.3722 187.844 47.9831Z" fill="#263238"/>
<path d="M188.12 47.4989C188.753 47.3296 189.047 48.6038 188.462 48.7612C187.877 48.9186 187.591 47.6415 188.12 47.4989Z" fill="#263238"/>
<path d="M188.387 47.5079C188.515 47.5554 188.655 47.6564 188.791 47.6386C188.928 47.6207 189.038 47.4574 189.109 47.3059C189.109 47.2911 189.13 47.3059 189.133 47.3059C189.18 47.4182 189.183 47.5444 189.141 47.6587C189.098 47.773 189.013 47.8667 188.904 47.9207C188.673 48.0098 188.45 47.8316 188.334 47.6C188.31 47.5584 188.334 47.4901 188.387 47.5079Z" fill="#263238"/>
<path d="M185.649 48.3869C185.649 48.3869 185.622 48.4107 185.628 48.4285C185.735 48.8206 185.792 49.2869 185.465 49.5037V49.5245C185.893 49.3581 185.812 48.7463 185.649 48.3869Z" fill="#263238"/>
<path d="M185.198 48.0572C184.553 48.1612 184.806 49.4442 185.406 49.3492C186.005 49.2542 185.741 47.9711 185.198 48.0572Z" fill="#263238"/>
<path d="M184.948 48.1939C184.859 48.283 184.785 48.4256 184.651 48.4582C184.517 48.4909 184.381 48.3781 184.265 48.2622C184.265 48.2622 184.244 48.2622 184.247 48.28C184.289 48.5266 184.422 48.7671 184.666 48.7671C184.909 48.7671 185.007 48.5266 185.016 48.2682C185.031 48.2206 184.987 48.1523 184.948 48.1939Z" fill="#263238"/>
<path d="M186.7 50.3324C186.7 50.3324 186.748 50.9442 186.81 51.2234C186.81 51.2501 186.884 51.2472 186.982 51.2234C187.233 51.2163 187.476 51.1402 187.686 51.0034C187.895 50.8665 188.063 50.6744 188.171 50.4482C188.171 50.4155 188.144 50.3947 188.12 50.4185C187.817 50.7387 187.419 50.9531 186.985 51.0303C186.947 50.9561 186.938 49.9819 186.893 49.9878C186.683 50.0604 186.484 50.1603 186.299 50.2849C186.166 49.0166 186.234 47.7365 186.08 46.4772C186.08 46.4327 186.008 46.4327 186.005 46.4772C185.836 47.8138 185.961 49.275 186.065 50.5878C186.071 50.7393 186.599 50.4066 186.7 50.3324Z" fill="#263238"/>
<path d="M187.119 51.0987C187.316 51.2726 187.554 51.3924 187.811 51.4462C187.953 51.4741 188.1 51.4553 188.23 51.3927C188.527 51.2561 188.465 50.9828 188.367 50.7601C188.311 50.6416 188.243 50.53 188.162 50.4274C187.896 50.7576 187.53 50.993 187.119 51.0987Z" fill="#263238"/>
<path d="M187.811 51.4461C187.953 51.474 188.1 51.4553 188.23 51.3927C188.527 51.256 188.465 50.9828 188.367 50.76C188.21 50.7954 188.071 50.8823 187.97 51.0068C187.869 51.1312 187.813 51.286 187.811 51.4461Z" fill="#FF98B9"/>
<path d="M194.491 47.4425C193.552 47.7811 192.777 45.8328 192.777 45.8328C192.777 45.8328 190.829 46.3763 189.412 43.7537C189.7 44.5783 190.222 45.301 190.915 45.8328C190.915 45.8328 187.378 46.4268 185.138 43.9438C185.138 43.9438 186.118 45.2476 186.804 45.6189C186.804 45.6189 185.251 45.6189 184.226 44.6388C184.226 44.6388 184.084 46.4654 183.748 47.0505C183.748 47.0505 182.227 41.0005 187.975 40.1005C187.975 40.1005 191.539 39.3699 193.54 41.7846C195.542 44.1992 194.491 47.4425 194.491 47.4425Z" fill="#263238"/>
<path d="M194.732 47.0238C194.758 47.8643 195.501 43.7092 195.326 43.1627C195.15 42.6162 193.303 40.1332 190.63 39.6075C188.382 39.1739 186.136 40.5342 185.747 40.7777C185.311 41.0466 184.938 41.405 184.651 41.8291C184.651 41.8291 187.586 40.0471 190.511 40.0827C191.913 40.1065 194.631 43.8785 194.732 47.0238Z" fill="#FFC727"/>
<path d="M191.562 39.0759C191.562 39.0759 190.478 37.573 188.872 37.5077C188.872 37.5077 189.047 39.0848 189.647 39.5659C189.944 39.8065 191.203 39.8243 191.334 39.6046C191.429 39.437 191.505 39.2597 191.562 39.0759Z" fill="#FFC727"/>
<path opacity="0.1" d="M191.562 39.0759C191.503 39.259 191.427 39.4361 191.334 39.6046C191.329 39.6145 191.322 39.6229 191.313 39.6284C191.303 39.6395 191.291 39.6486 191.277 39.6551L191.248 39.6699C191.026 39.7432 190.792 39.7724 190.558 39.7561C190.577 39.52 190.617 39.2863 190.68 39.0581C190.775 38.8579 190.931 38.6934 191.126 38.5888C191.285 38.7386 191.431 38.9015 191.562 39.0759Z" fill="#050400"/>
<path d="M191.969 39.263C191.969 39.263 194.167 38.7581 195.272 39.162C195.272 39.162 194.773 40.3649 193.68 40.7302C193.19 40.8965 191.666 40.0976 191.726 39.8392C191.78 39.6367 191.862 39.4427 191.969 39.263Z" fill="#FFC727"/>
<path opacity="0.1" d="M192.471 39.165C192.541 39.4065 192.541 39.663 192.471 39.9046C192.411 40.0502 192.321 40.1817 192.207 40.2907C191.91 40.1125 191.693 39.9313 191.714 39.8273C191.769 39.629 191.851 39.4391 191.957 39.263C191.957 39.263 192.165 39.2155 192.471 39.165Z" fill="#050400"/>
<path d="M192.237 39.75C192.179 39.8835 192.084 39.997 191.962 40.0761C191.84 40.1552 191.698 40.1965 191.553 40.1946C191.408 40.1927 191.266 40.1478 191.147 40.0655C191.027 39.9832 190.934 39.8673 190.881 39.7324C190.827 39.5975 190.815 39.4497 190.845 39.3077C190.875 39.1657 190.947 39.036 191.051 38.9348C191.155 38.8336 191.287 38.7657 191.43 38.7395C191.573 38.7133 191.72 38.7301 191.854 38.7877C191.942 38.8255 192.022 38.8805 192.089 38.9494C192.157 39.0183 192.209 39.0998 192.245 39.1892C192.281 39.2786 192.298 39.3742 192.297 39.4705C192.295 39.5667 192.275 39.6617 192.237 39.75Z" fill="#FFC727"/>
<path d="M193.633 48.0216C193.633 48.0216 194.482 45.9158 195.415 46.1802C196.347 46.4445 196.009 49.2898 195.118 49.8719C195.009 49.9544 194.886 50.0142 194.754 50.0476C194.622 50.0809 194.485 50.0873 194.351 50.0662C194.216 50.0451 194.088 49.997 193.972 49.9248C193.857 49.8526 193.758 49.7579 193.68 49.6462L193.633 48.0216Z" fill="#AD6359"/>
<path d="M195.29 46.9941C195.29 46.9941 195.314 47.0089 195.29 47.0178C194.675 47.4485 194.464 48.1583 194.363 48.8682C194.387 48.7913 194.427 48.7206 194.481 48.6608C194.535 48.6009 194.601 48.5535 194.675 48.5216C194.749 48.4897 194.829 48.4742 194.909 48.4761C194.99 48.478 195.069 48.4972 195.141 48.5326C195.162 48.5326 195.141 48.5712 195.141 48.5712C195.014 48.5617 194.886 48.5916 194.776 48.657C194.666 48.7223 194.579 48.8199 194.527 48.9365C194.441 49.1331 194.376 49.3382 194.333 49.5483C194.316 49.6166 194.197 49.6077 194.206 49.5483V49.5305C193.989 48.6573 194.381 47.2941 195.29 46.9941Z" fill="#263238"/>
<path d="M82.0371 99.4584C82.0371 99.75 83.2036 100.689 84.6049 100.8C86.0063 100.911 88.2799 100.359 88.7651 100.413C89.2502 100.467 89.1909 101.794 89.6735 102.075C90.1561 102.357 91.2581 101.575 91.48 101.193C91.7019 100.811 91.2606 99.4068 90.8787 99.2261C90.4967 99.0455 88.0038 97.9616 87.6528 96.8106C87.3018 95.6595 82.0397 99.0016 82.0371 99.4584Z" fill="#FFC727"/>
<path opacity="0.1" d="M82.0371 99.4584C82.0371 99.75 83.2036 100.689 84.6049 100.8C86.0063 100.911 88.2799 100.359 88.7651 100.413C89.2502 100.467 89.1909 101.794 89.6735 102.075C90.1561 102.357 91.2581 101.575 91.48 101.193C91.7019 100.811 91.2606 99.4068 90.8787 99.2261C90.4967 99.0455 88.0038 97.9616 87.6528 96.8106C87.3018 95.6595 82.0397 99.0016 82.0371 99.4584Z" fill="black"/>
<path d="M67.3143 100.227C67.1749 100.96 68.2795 102.715 68.7569 102.989C69.2344 103.262 70.5247 103.624 70.7673 103.838C71.0099 104.052 71.1802 104.579 71.5183 104.785C71.8564 104.991 73.1416 104.968 73.3016 104.785C73.4616 104.602 73.3016 103.941 73.0435 103.825C72.8067 103.757 72.5808 103.655 72.3725 103.523C72.228 103.379 71.6886 100.385 70.9325 99.6675C70.1763 98.95 67.4433 99.5436 67.3143 100.227Z" fill="#FFC727"/>
<path opacity="0.1" d="M67.3143 100.227C67.1749 100.96 68.2795 102.715 68.7569 102.989C69.2344 103.262 70.5247 103.624 70.7673 103.838C71.0099 104.052 71.1802 104.579 71.5183 104.785C71.8564 104.991 73.1416 104.968 73.3016 104.785C73.4616 104.602 73.3016 103.941 73.0435 103.825C72.8067 103.757 72.5808 103.655 72.3725 103.523C72.228 103.379 71.6886 100.385 70.9325 99.6675C70.1763 98.95 67.4433 99.5436 67.3143 100.227Z" fill="black"/>
<path d="M95.2378 90.72C93.9191 92.3278 90.9951 92.9523 90.2518 93.342C89.5086 93.7317 88.2027 96.0466 87.4569 96.937C86.7111 97.8273 83.0851 100.442 80.9612 100.808C78.8373 101.175 74.7959 100.158 73.9803 100.186C73.1648 100.214 70.1428 100.72 70.0215 100.777C69.9002 100.834 68.5686 102.274 68.215 102.653C67.8614 103.033 66.6949 104.031 66.5736 104.14C66.5463 104.176 66.5267 104.218 66.516 104.263C66.5053 104.307 66.5038 104.354 66.5115 104.399C66.5193 104.444 66.5361 104.487 66.5609 104.525C66.5858 104.564 66.6182 104.597 66.6562 104.622C66.8162 104.739 67.1337 105.332 66.8395 105.502C66.5453 105.673 65.6059 105.789 65.2626 105.606C64.9194 105.422 64.6768 104.852 64.5039 104.558C64.331 104.264 65.451 102.194 65.6627 101.567C65.8743 100.94 64.5813 98.2635 64.9271 97.2957C65.273 96.3279 68.486 93.0504 70.1273 93.0994C70.3647 93.0994 70.7544 93.0994 71.2525 93.0994C72.8551 93.0994 75.5959 93.0581 78.1431 92.9033C80.3367 92.7742 82.3806 92.5601 83.4129 92.2297C86.0169 91.3987 87.0259 87.8863 88.4763 87.507C89.9267 87.1276 91.328 87.6618 91.9525 87.5302C92.861 87.3367 95.1707 85.7005 95.5888 85.9327C96.2185 86.3069 96.1075 89.6645 95.2378 90.72Z" fill="#FFC727"/>
<path d="M69.7943 100.898C69.917 100.791 70.0147 100.658 70.0808 100.509C70.153 100.359 70.2201 100.207 70.2795 100.052C70.3982 99.7448 70.4756 99.4274 70.5763 99.1151C70.5776 99.1118 70.5799 99.1089 70.5829 99.1069C70.5859 99.1048 70.5894 99.1038 70.5931 99.1038C70.5967 99.1038 70.6002 99.1048 70.6032 99.1069C70.6062 99.1089 70.6085 99.1118 70.6098 99.1151C70.5958 99.3763 70.557 99.6355 70.4937 99.8893C70.565 99.8153 70.6203 99.7275 70.6563 99.6313C70.658 99.6258 70.6618 99.6212 70.6669 99.6186C70.672 99.6159 70.6779 99.6154 70.6834 99.6171C70.6889 99.6188 70.6934 99.6226 70.6961 99.6277C70.6987 99.6328 70.6993 99.6387 70.6976 99.6442C70.6507 99.7707 70.5715 99.8828 70.4679 99.9693C70.4524 100.021 70.4369 100.075 70.4189 100.127C70.3653 100.284 70.2869 100.431 70.1866 100.563C70.0769 100.693 69.957 100.814 69.8279 100.924C69.8046 100.958 69.7685 100.919 69.7943 100.898Z" fill="#263238"/>
<path d="M70.122 93.0917C69.1697 93.0246 67.7735 93.0633 66.8987 93.6311C66.0238 94.1989 64.3386 96.968 63.0276 97.5899C61.7165 98.2119 59.5178 97.8687 59.5023 97.9977C59.4868 98.1267 61.5849 98.6042 63.0637 98.15C64.5424 97.6958 66.478 94.4286 67.8974 94.235C68.7465 94.1152 69.5303 93.7124 70.122 93.0917Z" fill="#FFC727"/>
<path d="M89.8569 89.2206C90.3498 88.7509 91.1989 89.7084 90.7421 90.1445C90.2853 90.5807 89.444 89.6052 89.8569 89.2206Z" fill="#263238"/>
<path d="M95.839 87.5845C96.1693 87.4632 96.2829 86.1625 95.9912 85.7444C95.6996 85.3263 93.746 86.6012 93.7666 87.0348C93.7873 87.4683 95.4777 87.7135 95.839 87.5845Z" fill="#263238"/>
<path d="M87.8129 87.907C87.8722 87.7161 86.7496 88.2632 85.8386 89.1174C85.3844 89.575 85.0125 90.1076 84.7392 90.6916C84.5663 91.1923 85.2786 94.4053 86.3444 94.875C87.0722 95.1924 88.0374 92.8336 88.0942 92.2685C88.151 91.7033 87.3148 89.5406 87.8129 87.907Z" fill="#263238"/>
<path d="M76.7312 95.8969C76.2409 96.173 75.6989 96.2143 75.1467 96.2969C74.3927 96.4112 73.6565 96.621 72.9556 96.9214C72.0317 97.3008 70.9891 97.4763 70.4884 96.3898C69.9878 95.3033 70.4601 94.0672 71.2472 93.1097C72.8498 93.1097 75.5905 93.0684 78.1377 92.9136C78.2693 94.0336 77.6526 95.3808 76.7312 95.8969Z" fill="#263238"/>
<path d="M81.1339 95.6053C80.5532 96.0053 79.4642 95.8969 79.1622 95.1743C78.9919 94.7614 79.3197 94.4491 79.5855 94.173C79.6664 94.0901 79.7526 94.0125 79.8435 93.9407C80.0021 93.7681 80.1878 93.6225 80.3932 93.5097C80.5408 93.407 80.7213 93.3628 80.8997 93.3857C81.078 93.4086 81.2415 93.497 81.3584 93.6336C81.903 94.1807 81.7455 95.182 81.1339 95.6053Z" fill="#263238"/>
<path d="M84.3288 91.8013C84.3468 92.1161 84.863 96.0001 88.0295 96.1602C88.2231 96.1602 88.0166 96.8131 87.6631 96.8079C87.3095 96.8027 83.792 96.2479 83.7739 91.9716C83.7868 91.7007 84.303 91.5432 84.3288 91.8013Z" fill="#455A64"/>
<path d="M81.2062 98.1938C80.6514 98.6454 79.4333 101.807 79.6036 102.38C79.7739 102.953 80.7649 104.031 80.8501 104.158C80.9352 104.284 80.8888 104.444 81.1649 104.579C81.4411 104.713 82.9327 104.638 83.1134 104.452C83.2009 104.299 83.2415 104.123 83.23 103.947C83.2186 103.771 83.1556 103.602 83.0489 103.461C82.8243 103.265 82.2746 103.262 82.1637 103.133C82.0527 103.004 81.8024 102.295 81.9056 102.078C82.0088 101.861 84.2282 100.491 84.4863 99.4197C84.7444 98.3487 82.0733 97.4789 81.2062 98.1938Z" fill="#FFC727"/>
<path d="M80.1094 100.044C80.1611 99.8842 80.223 99.7267 80.2849 99.5719C80.2849 99.5719 80.2849 99.5719 80.2849 99.559C80.3082 99.3783 80.3288 99.1977 80.3572 99.0196C80.3778 98.8398 80.4167 98.6625 80.4733 98.4906C80.4733 98.4751 80.5043 98.4777 80.5017 98.4906C80.4811 98.6635 80.4346 98.8364 80.4037 99.0067C80.3727 99.177 80.3624 99.2828 80.3495 99.4222L80.3985 99.2983C80.6131 98.8085 80.8534 98.3304 81.1185 97.866C81.1185 97.866 81.1392 97.866 81.1366 97.866C80.9224 98.3589 80.7288 98.8622 80.5301 99.3628C80.4346 99.608 80.3391 99.8584 80.2359 100.101C80.1327 100.344 80.0088 100.617 79.9262 100.875C79.9262 100.906 79.8669 100.893 79.8772 100.862C79.9649 100.594 80.0217 100.318 80.1094 100.044Z" fill="#263238"/>
<path opacity="0.6" d="M199.858 97.5268C199.858 97.5268 195.325 95.4477 195.325 92.638C195.325 89.8283 201.206 88.0344 201.206 85.8455C201.206 83.6566 198.64 82.3705 198.64 82.3705C198.64 82.3705 202.691 83.7546 202.691 86.5286C202.691 89.3026 198.815 91.1738 198.444 92.935C197.93 95.3764 199.858 97.5268 199.858 97.5268Z" fill="#DBDBDB"/>
<path opacity="0.6" d="M199.635 97.5267C199.635 97.5267 204.17 95.8842 204.17 93.6834C204.17 91.4826 198.29 90.0629 198.29 88.3373C198.29 86.6117 200.853 85.6049 200.853 85.6049C200.853 85.6049 196.802 86.6919 196.802 88.8719C196.802 91.052 201.257 92.5459 201.571 94.3131C201.886 96.0803 199.635 97.5267 199.635 97.5267Z" fill="#DBDBDB"/>
<path d="M201.966 104.569H197.654V105.243H201.966V104.569Z" fill="#FFC727"/>
<path d="M201.966 104.569H197.654V105.014H201.966V104.569Z" fill="#263238"/>
<path d="M207.087 102.757C206.825 103.145 206.456 103.45 206.025 103.634C205.594 103.819 205.119 103.875 204.657 103.797C204.508 103.768 204.362 103.726 204.221 103.672C204.011 103.588 203.812 103.48 203.627 103.351L204.173 102.537C204.275 102.609 204.383 102.671 204.497 102.721C204.811 102.866 205.167 102.892 205.499 102.794C205.831 102.697 206.116 102.484 206.303 102.193C206.897 101.361 207.105 99.4632 206.508 98.7355C206.466 98.6791 206.294 98.5959 205.599 98.7355C205.471 98.7652 205.326 98.7979 205.162 98.8425C205.035 98.8873 204.902 98.9162 204.767 98.9286L204.75 98.4415L204.702 97.9544L204.907 97.901C205.229 97.8066 205.557 97.738 205.89 97.696C206.401 97.6426 206.935 97.696 207.265 98.1089C208.222 99.3058 207.826 101.717 207.087 102.757Z" fill="#FFC727"/>
<path d="M204.158 102.537C204.26 102.609 204.369 102.67 204.482 102.721L204.221 103.672C204.011 103.588 203.812 103.48 203.627 103.351L204.158 102.537Z" fill="#263238"/>
<path d="M205.875 97.7019L205.578 98.7414C205.45 98.7711 205.305 98.8038 205.141 98.8484C205.014 98.8932 204.881 98.9221 204.746 98.9345L204.729 98.4474L204.681 97.9603L204.886 97.9069C205.21 97.8122 205.54 97.7436 205.875 97.7019Z" fill="#263238"/>
<path d="M194.075 96.4307C194.075 96.4307 194.592 100.826 195.486 102.668C196.38 104.509 197.627 104.723 198.402 104.723H201.221C201.996 104.723 203.244 104.518 204.138 102.668C205.032 100.817 205.548 96.4307 205.548 96.4307H194.075Z" fill="#FFC727"/>
<path d="M204.182 97.1762C204.283 97.1756 204.383 97.2051 204.467 97.2608C204.551 97.3166 204.617 97.3962 204.656 97.4895C204.695 97.5828 204.706 97.6856 204.687 97.7849C204.667 97.8842 204.619 97.9755 204.548 98.0472C204.476 98.1189 204.385 98.1679 204.286 98.1878C204.187 98.2078 204.084 98.1979 203.99 98.1593C203.897 98.1207 203.817 98.0552 203.761 97.9712C203.704 97.8871 203.674 97.7882 203.674 97.687C203.674 97.5521 203.728 97.4226 203.823 97.3269C203.918 97.2311 204.047 97.177 204.182 97.1762ZM199.181 97.5801C199.181 97.6813 199.211 97.7802 199.267 97.8642C199.323 97.9483 199.403 98.0138 199.497 98.0524C199.59 98.0909 199.693 98.1009 199.792 98.0809C199.891 98.061 199.982 98.012 200.054 97.9403C200.125 97.8685 200.174 97.7772 200.193 97.6779C200.212 97.5787 200.202 97.4758 200.163 97.3826C200.124 97.2893 200.058 97.2097 199.973 97.1539C199.889 97.0981 199.79 97.0687 199.689 97.0693C199.554 97.0701 199.424 97.1242 199.329 97.2199C199.234 97.3157 199.181 97.4451 199.181 97.5801ZM199.181 103.978C199.181 104.079 199.211 104.178 199.267 104.262C199.323 104.346 199.403 104.411 199.497 104.45C199.59 104.488 199.693 104.498 199.792 104.478C199.891 104.458 199.982 104.41 200.054 104.338C200.125 104.266 200.174 104.175 200.193 104.075C200.212 103.976 200.202 103.873 200.163 103.78C200.124 103.687 200.058 103.607 199.973 103.551C199.889 103.496 199.79 103.466 199.689 103.467C199.621 103.467 199.554 103.481 199.491 103.508C199.429 103.534 199.372 103.573 199.325 103.622C199.278 103.67 199.241 103.728 199.216 103.791C199.191 103.854 199.179 103.922 199.181 103.99V103.978ZM195.486 101.091C195.485 101.192 195.515 101.291 195.571 101.375C195.626 101.46 195.706 101.526 195.799 101.565C195.893 101.604 195.995 101.614 196.095 101.595C196.194 101.576 196.285 101.527 196.357 101.456C196.429 101.385 196.478 101.294 196.498 101.194C196.518 101.095 196.508 100.992 196.469 100.899C196.43 100.805 196.365 100.725 196.281 100.669C196.197 100.613 196.098 100.583 195.997 100.583C195.93 100.582 195.863 100.595 195.802 100.621C195.74 100.646 195.683 100.683 195.636 100.731C195.588 100.778 195.551 100.834 195.525 100.896C195.499 100.957 195.486 101.024 195.486 101.091ZM201.147 102.597C201.147 102.698 201.177 102.796 201.233 102.88C201.289 102.964 201.369 103.03 201.462 103.069C201.556 103.107 201.658 103.117 201.757 103.098C201.856 103.078 201.948 103.029 202.019 102.958C202.09 102.886 202.139 102.795 202.159 102.696C202.178 102.597 202.168 102.494 202.13 102.401C202.091 102.308 202.026 102.228 201.942 102.172C201.858 102.116 201.759 102.086 201.658 102.086C201.522 102.086 201.392 102.14 201.296 102.235C201.201 102.331 201.147 102.461 201.147 102.597ZM195.165 97.5801C195.165 97.681 195.195 97.7797 195.251 97.8636C195.307 97.9476 195.387 98.013 195.48 98.0518C195.573 98.0905 195.676 98.1008 195.775 98.0814C195.874 98.0619 195.965 98.0135 196.036 97.9424C196.108 97.8712 196.157 97.7805 196.177 97.6816C196.197 97.5827 196.187 97.4801 196.149 97.3867C196.111 97.2933 196.046 97.2133 195.962 97.1568C195.878 97.1003 195.78 97.0699 195.679 97.0693C195.612 97.0689 195.545 97.0818 195.483 97.1073C195.42 97.1328 195.364 97.1704 195.316 97.2178C195.268 97.2653 195.23 97.3218 195.204 97.3839C195.178 97.4461 195.165 97.5128 195.165 97.5801ZM199.243 101.019C199.242 101.121 199.272 101.22 199.328 101.304C199.384 101.389 199.464 101.455 199.557 101.494C199.65 101.533 199.753 101.543 199.853 101.524C199.952 101.504 200.044 101.455 200.115 101.384C200.187 101.312 200.235 101.221 200.255 101.121C200.275 101.022 200.264 100.919 200.225 100.826C200.186 100.732 200.12 100.652 200.036 100.596C199.951 100.541 199.852 100.511 199.751 100.512C199.616 100.512 199.488 100.566 199.393 100.661C199.298 100.756 199.244 100.885 199.243 101.019ZM203.104 101.1C203.104 101.201 203.133 101.3 203.189 101.384C203.245 101.469 203.324 101.535 203.417 101.574C203.511 101.613 203.614 101.623 203.713 101.604C203.812 101.585 203.903 101.536 203.975 101.465C204.047 101.394 204.096 101.303 204.116 101.203C204.136 101.104 204.126 101.001 204.087 100.908C204.049 100.814 203.983 100.734 203.899 100.678C203.815 100.622 203.716 100.592 203.615 100.592C203.481 100.591 203.353 100.643 203.257 100.736C203.161 100.83 203.106 100.957 203.104 101.091V101.1ZM197.164 99.3948C197.163 99.4961 197.193 99.5953 197.249 99.6797C197.305 99.7642 197.385 99.8302 197.478 99.8692C197.571 99.9082 197.674 99.9186 197.774 99.899C197.873 99.8794 197.964 99.8306 198.036 99.759C198.108 99.6874 198.156 99.5961 198.176 99.4967C198.196 99.3974 198.185 99.2944 198.146 99.2009C198.107 99.1075 198.041 99.0277 197.957 98.9718C197.872 98.9159 197.773 98.8864 197.672 98.8869C197.604 98.8846 197.537 98.8956 197.474 98.9195C197.411 98.9434 197.353 98.9797 197.304 99.0261C197.255 99.0726 197.216 99.1283 197.189 99.1901C197.162 99.2519 197.147 99.3184 197.146 99.3859L197.164 99.3948ZM197.304 102.689C197.304 102.79 197.334 102.889 197.39 102.973C197.446 103.057 197.526 103.122 197.62 103.161C197.713 103.199 197.816 103.209 197.915 103.189C198.014 103.169 198.105 103.121 198.177 103.049C198.248 102.977 198.296 102.886 198.316 102.786C198.335 102.687 198.325 102.584 198.286 102.491C198.246 102.398 198.181 102.318 198.096 102.262C198.012 102.207 197.913 102.177 197.811 102.178C197.744 102.175 197.676 102.187 197.613 102.211C197.55 102.235 197.492 102.271 197.443 102.318C197.394 102.365 197.355 102.421 197.328 102.483C197.301 102.545 197.287 102.612 197.286 102.68L197.304 102.689ZM201.405 99.3948C201.405 99.4961 201.434 99.5953 201.49 99.6797C201.546 99.7642 201.626 99.8302 201.719 99.8692C201.813 99.9082 201.916 99.9186 202.015 99.899C202.114 99.8794 202.206 99.8306 202.277 99.759C202.349 99.6874 202.398 99.5961 202.417 99.4967C202.437 99.3974 202.427 99.2944 202.388 99.2009C202.348 99.1075 202.283 99.0277 202.198 98.9718C202.114 98.9159 202.014 98.8864 201.913 98.8869C201.846 98.885 201.779 98.8963 201.716 98.9204C201.653 98.9444 201.595 98.9807 201.546 99.0271C201.498 99.0734 201.458 99.129 201.431 99.1906C201.404 99.2522 201.389 99.3186 201.387 99.3859L201.405 99.3948Z" fill="white"/>
</svg>
