<svg width="90" height="90" viewBox="0 0 90 90" fill="none" xmlns="http://www.w3.org/2000/svg">
<circle cx="45" cy="45" r="45" fill="#FEDACF"/>
<path d="M56.2315 42.1409V42.7814L56.8133 43.0493L67.337 47.8935C67.4244 47.9361 67.4981 48.0023 67.5497 48.0847C67.6021 48.1685 67.6296 48.2655 67.6289 48.3643V48.3715L67.6289 63.2337L67.6289 63.2361C67.6291 63.3355 67.6009 63.4329 67.5474 63.5167L68.3907 64.0542L67.5474 63.5167C67.4941 63.6004 67.418 63.667 67.328 63.7088C67.3278 63.7089 67.3277 63.7089 67.3275 63.709L55.9322 68.9509L55.9301 68.9518C55.8617 68.9835 55.7872 68.9999 55.7118 68.9999C55.6365 68.9999 55.562 68.9835 55.4936 68.9518L55.4918 68.951L44.7327 63.9969L44.3144 63.8044L43.8962 63.9969L33.1371 68.951L33.1353 68.9518C33.0669 68.9835 32.9924 68.9999 32.9171 68.9999C32.8417 68.9999 32.7672 68.9835 32.6988 68.9518L32.6967 68.9509L21.3014 63.709C21.3013 63.709 21.3012 63.7089 21.3011 63.7089C21.211 63.6671 21.1348 63.6004 21.0814 63.5167L20.2382 64.0542L21.0814 63.5167C21.028 63.4329 20.9998 63.3355 21 63.2361V63.2337L21 48.3715L21 48.369C20.9998 48.2696 21.028 48.1722 21.0814 48.0884C21.1348 48.0047 21.211 47.938 21.3011 47.8963C21.3012 47.8962 21.3013 47.8962 21.3014 47.8961L31.7856 43.0643L32.367 42.7963V42.1561L32.367 28.2665L32.367 28.264C32.3668 28.1646 32.395 28.0672 32.4484 27.9834C32.5017 27.8999 32.5777 27.8333 32.6675 27.7915C32.6678 27.7914 32.6681 27.7912 32.6684 27.7911L44.0637 22.5493L44.0658 22.5483C44.1342 22.5166 44.2087 22.5002 44.284 22.5002C44.3594 22.5002 44.4339 22.5166 44.5023 22.5483L44.5023 22.5483L44.5106 22.5521L50.2174 25.1302C50.1459 25.4841 50.0898 25.8408 50.0493 26.1994L44.7298 23.7704L44.3126 23.5799L43.896 23.7719L36.1457 27.343L34.1535 28.261L36.1531 29.1629L43.9033 32.6581L44.3151 32.8438L44.7267 32.6575L50.2475 30.1594C50.323 30.5154 50.4139 30.8681 50.52 31.2163L44.5544 33.9595C44.4948 33.9829 44.4319 33.9965 44.3679 33.9999L43.4208 34.0501V34.9985V46.6846V48.2547L44.8436 47.5909L54.615 43.0319L55.1922 42.7626V42.1257V37.6953C55.5273 37.9335 55.8742 38.1554 56.2315 38.3601V42.1409ZM24.7931 47.4636L22.8225 48.3737L24.7948 49.2801L32.4995 52.8209L32.9147 53.0117L33.3307 52.8227L41.1569 49.2667L43.1486 48.3618L41.1611 47.4477L33.3957 43.8766L32.9769 43.684L32.5586 43.8772L24.7931 47.4636ZM31.9171 66.8048V68.3698L33.3372 67.7123L43.1845 63.1534L43.7644 62.8849V62.2459V50.6965V49.1351L42.3461 49.7882L33.1066 54.0432L33.093 54.0495L33.0795 54.0562C33.0053 54.0931 32.9246 54.1153 32.842 54.1215L31.9171 54.1911V55.1187V66.8048ZM47.5438 47.4629L45.5598 48.3753L47.5467 49.2813L55.3122 52.8221L55.727 53.0113L56.1419 52.8221L63.9073 49.2813L65.8943 48.3753L63.9103 47.4629L56.1448 43.8917L55.727 43.6996L55.3092 43.8917L47.5438 47.4629ZM54.7726 66.8048V68.3739L56.1949 67.7113L65.9815 63.1524L66.5592 62.8832V62.2459V50.6965V49.1351L65.1409 49.7882L55.9014 54.0432L55.8659 54.0596L55.8318 54.0786C55.788 54.1032 55.7393 54.118 55.6893 54.1222L54.7726 54.1989V55.1187V66.8048Z" fill="#FB855E" stroke="#263238" stroke-width="2"/>
</svg>
