<svg width="90" height="90" viewBox="0 0 90 90" fill="none" xmlns="http://www.w3.org/2000/svg">
<circle cx="45" cy="45" r="45" fill="#FEDACF"/>
<path d="M37.2148 55.3009L37.2153 55.3018C37.359 55.5978 37.6058 55.8311 37.9094 55.9578C38.2129 56.0845 38.5523 56.0959 38.8636 55.99C38.8637 55.99 38.8638 55.9899 38.8639 55.9899L43.7072 54.3387C44.4085 54.0993 45.1694 54.0993 45.8707 54.3387L50.7143 55.99L50.7144 55.99C51.0257 56.0962 51.365 56.085 51.6686 55.9585C51.9721 55.8321 52.219 55.5992 52.3629 55.3035C52.3629 55.3035 52.363 55.3034 52.363 55.3033L54.7236 50.4482C55.0334 49.8104 55.5377 49.2874 56.1637 48.9545L56.1648 48.954L60.8607 46.4639L60.8607 46.4639C61.1389 46.3164 61.3568 46.0762 61.4765 45.785C61.5963 45.4937 61.6104 45.1698 61.5164 44.8692L61.5163 44.8689L59.8484 39.5293L59.8484 39.5292C59.6455 38.8793 59.6455 38.183 59.8484 37.5331L59.8484 37.5329L61.5163 32.1934C61.5163 32.1934 61.5163 32.1934 61.5163 32.1934C61.61 31.8932 61.5959 31.5697 61.4765 31.2788C61.357 30.9878 61.1396 30.7478 60.8619 30.6001L56.1649 28.1107L56.1631 28.1097C55.537 27.7762 55.0329 27.2525 54.7236 26.614C54.7234 26.6136 54.7232 26.6131 54.723 26.6127L52.363 21.7612L52.3626 21.7604C52.219 21.4644 51.9721 21.2311 51.6685 21.1044C51.365 20.9777 51.0257 20.9663 50.7143 21.0722L37.2148 55.3009ZM37.2148 55.3009L34.8549 50.4519C34.8547 50.4515 34.8545 50.4511 34.8543 50.4507C34.545 49.8122 34.041 49.2884 33.4148 48.9549L33.413 48.9539L28.716 46.4645C28.7157 46.4643 28.7154 46.4642 28.7151 46.464C28.4378 46.3163 28.2208 46.0765 28.1014 45.7858C27.982 45.4949 27.9679 45.1714 28.0616 44.8712L29.7295 39.5317L29.7295 39.5315C29.9324 38.8816 29.9324 38.1853 29.7295 37.5354L29.7295 37.5353L28.0616 32.1957L28.0615 32.1954C27.9675 31.8948 27.9816 31.5709 28.1014 31.2796C28.2211 30.9884 28.439 30.7482 28.7172 30.6007L28.7172 30.6007L33.4131 28.1106L33.4142 28.1101C34.0402 27.7772 34.5444 27.2542 34.8542 26.6165C34.8542 26.6165 34.8543 26.6164 34.8543 26.6164L37.2149 21.7589C37.3588 21.4632 37.6057 21.2302 37.9093 21.1037C38.2129 20.9773 38.5522 20.9661 38.8635 21.0722L38.8636 21.0722L43.7072 22.7236C43.7073 22.7236 43.7074 22.7236 43.7075 22.7237C44.4086 22.9629 45.1693 22.9629 45.8704 22.7237C45.8705 22.7236 45.8706 22.7236 45.8707 22.7236L50.714 21.0724L37.2148 55.3009ZM51.3564 62.1115C51.962 62.3186 52.5878 62.3673 53.1855 62.2776V68.6044L45.1104 65.863L44.789 65.7538L44.4675 65.863L36.3925 68.6044V62.2785C36.99 62.3685 37.6164 62.32 38.2232 62.1109C38.2238 62.1107 38.2245 62.1105 38.2252 62.1102L44.1788 60.0819L44.1791 60.0818C44.5745 59.9469 45.0034 59.9469 45.3988 60.0818L45.3991 60.0819L51.355 62.111C51.3555 62.1112 51.356 62.1113 51.3564 62.1115ZM44.789 30.4838C43.9007 30.4838 43.0488 30.8366 42.4208 31.4647C41.7927 32.0928 41.4398 32.9446 41.4398 33.8329V43.2294C41.4398 44.1176 41.7927 44.9695 42.4208 45.5976C43.0488 46.2256 43.9007 46.5785 44.789 46.5785C45.6772 46.5785 46.5291 46.2256 47.1571 45.5976C47.7852 44.9695 48.1381 44.1176 48.1381 43.2294V33.8329C48.1381 32.9446 47.7852 32.0928 47.1571 31.4647C46.5291 30.8366 45.6772 30.4838 44.789 30.4838Z" fill="#FB855E" stroke="#263238" stroke-width="2"/>
</svg>
