<svg width="90" height="90" viewBox="0 0 90 90" fill="none" xmlns="http://www.w3.org/2000/svg">
<circle cx="45" cy="45" r="45" fill="#FEDACF"/>
<path d="M63.4588 38.431L63.4194 38.8581L63.7018 39.181L68.6715 44.8636L63.7018 50.5462L63.4194 50.8691L63.4588 51.2963L64.1511 58.8099L56.8012 60.4794L56.3817 60.5747L56.1624 60.9448L52.3147 67.4391L45.3946 64.4675L44.9986 64.2975L44.6032 64.4685L37.6842 67.4599L33.8376 60.9675L33.6183 60.5974L33.1988 60.5021L25.8487 58.8326L26.5413 51.2961L26.5805 50.869L26.2982 50.5462L21.3274 44.8625L26.2994 39.157L26.5804 38.8345L26.5413 38.4085L25.8489 30.8743L33.1962 29.2257L33.6175 29.1312L33.8376 28.7597L37.6853 22.2655L44.6054 25.237L45 25.4065L45.3946 25.237L52.3136 22.2659L56.1617 28.7813L56.3809 29.1524L56.8012 29.2479L64.1511 30.9174L63.4588 38.431ZM39.9511 56.2971L40.6591 57.007L41.3672 56.2971L58.0262 39.5925L58.7314 38.8854L58.0253 38.1793L54.6617 34.8156L53.9533 34.1073L53.2462 34.8168L40.6594 47.4467L36.095 42.8626L35.3879 42.1524L34.6793 42.8611L31.3156 46.2247L30.6094 46.9309L31.3147 47.638L39.9511 56.2971Z" fill="#FB855E" stroke="#263238" stroke-width="2"/>
</svg>
