<svg width="90" height="90" viewBox="0 0 90 90" fill="none" xmlns="http://www.w3.org/2000/svg">
<circle cx="45" cy="45" r="45" fill="#FEDACF"/>
<path d="M61.8004 42.3628L61.7987 42.3652L52.5915 55.127C52.4166 55.3697 52.1866 55.5673 51.9204 55.7036L51.4646 54.8135L51.9204 55.7036C51.6541 55.8399 51.3593 55.911 51.0603 55.911C50.7612 55.911 50.4664 55.8399 50.2002 55.7036L50.2001 55.7036C49.9342 55.5674 49.7044 55.37 49.5296 55.1277L61.8004 42.3628ZM61.8004 42.3628C62.4909 41.3998 61.7962 40.0837 60.6404 40.066L60.6327 40.0658H60.625H57.567C56.9676 40.0658 56.3943 40.349 56.0349 40.8508C56.0344 40.8515 56.0339 40.8522 56.0334 40.8529L51.0599 47.7448L48.9245 44.7884L48.9245 44.7883L48.9209 44.7834C48.5699 44.3037 48.0054 44.0056 47.394 44.0056H44.3304C43.151 44.0056 42.4699 45.3415 43.1549 46.297L43.1568 46.2996L49.5291 55.127L61.8004 42.3628ZM58.2857 28.5714V29.5714H59.2857H68.2143C68.6497 29.5714 69 29.9217 69 30.3571V62.5C69 62.9354 68.6497 63.2857 68.2143 63.2857H21.7857C21.3503 63.2857 21 62.9354 21 62.5V30.3571C21 29.9217 21.3503 29.5714 21.7857 29.5714H30.7143H31.7143V28.5714V26H33.7321V28.5714V29.5714H34.7321H42.9911H43.9911V28.5714V26H46.0089V28.5714V29.5714H47.0089H55.2679H56.2679V28.5714V26H58.2857V28.5714ZM39.6429 55.9107C40.4407 55.9107 41.0893 55.2621 41.0893 54.4643V51.7857C41.0893 50.9879 40.4407 50.3393 39.6429 50.3393H29.375C28.5772 50.3393 27.9286 50.9879 27.9286 51.7857V54.4643C27.9286 55.2621 28.5772 55.9107 29.375 55.9107H39.6429ZM39.6429 48.3214C40.4407 48.3214 41.0893 47.6728 41.0893 46.875V44.1964C41.0893 43.3986 40.4407 42.75 39.6429 42.75H29.375C28.5772 42.75 27.9286 43.3986 27.9286 44.1964V46.875C27.9286 47.6728 28.5772 48.3214 29.375 48.3214H39.6429Z" fill="#FB855E" stroke="#263238" stroke-width="2"/>
</svg>
