<svg width="50" height="50" viewBox="0 0 50 50" fill="none" xmlns="http://www.w3.org/2000/svg">
<g clip-path="url(#clip0)">
<path d="M5.44492 9.2385C7.00742 9.2385 8.27399 7.96135 8.27399 6.38579C8.27399 4.81024 7.00742 3.53308 5.44492 3.53308C3.88242 3.53308 2.62769 4.81024 2.62769 6.38579C2.62769 7.96135 3.89426 9.2385 5.44492 9.2385ZM5.44492 5.16832C6.1078 5.16832 6.65231 5.71737 6.65231 6.38579C6.65231 7.05421 6.11964 7.60326 5.44492 7.60326C4.7702 7.60326 4.23753 7.05421 4.23753 6.38579C4.23753 5.71737 4.78204 5.16832 5.44492 5.16832Z" fill="#FB855E"/>
<path d="M49.0887 1.38464C48.5797 1.38464 48.1772 1.8024 48.1772 2.30372C48.1772 2.81697 48.5915 3.22279 49.0887 3.22279C49.5859 3.22279 50.0002 2.80503 50.0002 2.30372C50.0002 1.8024 49.5977 1.38464 49.0887 1.38464Z" fill="#FB855E"/>
<path d="M39.4293 4.38055C39.7489 4.05828 39.7489 3.54503 39.4293 3.22275L38.5179 2.30368L39.4293 1.38461C39.7489 1.06233 39.7489 0.549085 39.4293 0.226812C39.1097 -0.0954607 38.6007 -0.0954607 38.2811 0.226812L37.3697 1.14589L36.4582 0.238748C36.1386 -0.0835247 35.6296 -0.0835247 35.31 0.238748C34.9904 0.561021 34.9904 1.07427 35.31 1.39654L36.2215 2.31562L35.31 3.23469C34.9904 3.55696 34.9904 4.07021 35.31 4.39248C35.4639 4.54765 35.677 4.6312 35.8782 4.6312C36.0794 4.6312 36.2925 4.54765 36.4464 4.39248L37.3578 3.47341L38.2693 4.39248C38.4232 4.54765 38.6362 4.6312 38.8375 4.6312C39.0624 4.61927 39.2636 4.54765 39.4293 4.38055Z" fill="#FB855E"/>
<path d="M33.3097 34.7338L30.1373 33.2776L26.8703 31.7856V31.1053C29.9598 29.6133 32.3154 26.8441 33.2623 23.4901C33.7832 23.5139 34.2922 23.3588 34.7775 23.0484C35.5232 22.5829 36.0322 21.8071 36.1387 20.9954C36.2334 20.1838 35.9849 19.3602 35.4522 18.7515C35.0971 18.3456 34.6473 18.0592 34.1383 17.916C34.1383 17.916 34.1264 17.2953 34.1264 17.2356C35.0734 16.9014 35.76 16.0062 35.76 14.9319C35.76 14.2158 35.4404 13.5712 34.955 13.1177V12.8909C34.955 6.37381 29.6994 1.07422 23.2363 1.07422H22.4314C15.9683 1.07422 10.7126 6.37381 10.7126 12.8909V13.1177C10.2155 13.5712 9.90768 14.2038 9.90768 14.9319C9.90768 16.2807 10.9967 17.3788 12.3343 17.3788H12.3935C12.3935 17.5817 12.4053 17.7608 12.4053 17.8801C11.92 18.0114 11.482 18.274 11.1151 18.656C10.5824 19.217 10.2983 19.957 10.322 20.7448C10.3575 21.6161 10.8428 22.4636 11.6359 23.0007C12.1331 23.3468 12.6539 23.5139 13.1866 23.502C14.027 26.6173 16.0867 29.2313 18.821 30.8188C18.821 30.8307 18.821 30.8307 18.821 30.8427V31.7975L15.554 33.3015L12.3461 34.7338C9.38685 36.0945 7.46924 39.1263 7.46924 42.4564V49.1645C7.46924 49.618 7.83619 49.9761 8.27416 49.9761H37.3698C37.8196 49.9761 38.1747 49.6061 38.1747 49.1645V42.4564C38.1747 39.1263 36.269 36.0945 33.3097 34.7338ZM26.598 33.4567L28.7405 34.4354L26.6809 39.3531L24.2069 35.8558C25.3196 35.45 26.1956 34.5786 26.598 33.4567ZM32.4574 17.3908C32.4574 17.5221 32.4574 17.6534 32.4574 17.7727C28.7997 19.8138 25.0474 18.656 22.5971 17.3908H32.4574ZM22.4195 2.72139H23.2244C28.6577 2.72139 33.0848 7.07804 33.3097 12.497H12.3343C12.5592 7.0661 16.9863 2.72139 22.4195 2.72139ZM11.5057 14.9439C11.5057 14.4903 11.8726 14.1322 12.3106 14.1322H33.3215C33.7713 14.1322 34.1264 14.5022 34.1264 14.9439C34.1264 15.3974 33.7595 15.7555 33.3215 15.7555H12.3225C11.8726 15.7555 11.5057 15.3855 11.5057 14.9439ZM14.5597 22.4039C14.5123 22.1771 14.3703 21.9742 14.169 21.8668C13.9678 21.7474 13.7311 21.7235 13.5062 21.7952C13.1984 21.9026 12.9025 21.9145 12.5119 21.6519C12.1567 21.4132 11.92 21.0432 11.9082 20.697C11.8963 20.3628 12.0147 20.0406 12.2514 19.8018C12.4882 19.5631 12.7959 19.4318 13.1274 19.4318C13.3405 19.4318 13.5654 19.3363 13.7192 19.1812C13.7784 19.1215 13.8258 19.0618 13.8613 18.9783C13.9086 18.9902 13.9441 19.0021 13.9915 19.0021C14.0625 19.0021 14.1335 18.9902 14.1927 18.9783C15.0805 18.7395 16.0275 18.2263 17.01 17.4504C17.0336 17.4385 17.0455 17.4146 17.0573 17.3908H19.5076C20.8925 18.4053 24.2543 20.5299 28.1842 20.5299C29.723 20.5299 31.3565 20.1957 32.9782 19.3483C33.0848 19.396 33.2031 19.4318 33.3215 19.4318C33.6648 19.4318 33.9962 19.587 34.233 19.8496C34.4697 20.1122 34.5762 20.4583 34.5289 20.8164C34.4934 21.1506 34.2566 21.4729 33.9252 21.6877C33.5819 21.9026 33.2978 21.9384 32.9309 21.8071C32.7178 21.7235 32.4692 21.7474 32.268 21.8668C32.0668 21.9861 31.9247 22.1771 31.8774 22.4039C31.0843 26.0444 28.4209 29.0284 24.9053 30.1742L24.5502 30.2936C23.5559 30.6159 22.5024 30.6278 21.5791 30.3294C18.0043 29.1477 15.3172 26.116 14.5597 22.4039ZM21.0819 31.8572C21.6975 32.0601 22.3367 32.1556 22.9759 32.1556C23.6624 32.1556 24.3608 32.0482 25.0355 31.8214L25.2486 31.7498V32.0482C25.2486 33.397 24.1596 34.4951 22.822 34.4951C21.4844 34.4951 20.3954 33.397 20.3954 32.0482V31.5827C20.6321 31.6782 20.8452 31.7856 21.0819 31.8572ZM19.0459 33.4567C19.4602 34.5786 20.3362 35.45 21.437 35.8677L18.9631 39.365L16.9034 34.4473L19.0459 33.4567ZM9.09092 42.4564C9.09092 39.7589 10.6297 37.312 13.0208 36.2139L15.4356 35.1038L18.0516 41.3225C18.17 41.597 18.4186 41.788 18.7027 41.8119C18.7382 41.8119 18.7619 41.8119 18.7855 41.8119C19.0459 41.8119 19.2945 41.6806 19.4484 41.4657L22.0171 37.8252V48.317H14.7491V45.0585C14.7491 44.6049 14.3821 44.2468 13.9441 44.2468C13.5062 44.2468 13.1392 44.6168 13.1392 45.0585V48.317H9.09092V42.4564ZM36.5649 48.3528H33.3333V45.0943C33.3333 44.6407 32.9664 44.2826 32.5284 44.2826C32.0786 44.2826 31.7235 44.6526 31.7235 45.0943V48.3528H23.6387V37.861L26.2074 41.5015C26.3613 41.7164 26.6099 41.8477 26.8703 41.8477C26.894 41.8477 26.9295 41.8477 26.9531 41.8477C27.2491 41.8119 27.4976 41.6209 27.6042 41.3583L30.2202 35.1396L32.635 36.2497C35.0142 37.3478 36.5649 39.7947 36.5649 42.4922V48.3528Z" fill="#FB855E"/>
<path d="M27.2727 22.6785C27.7172 22.6785 28.0776 22.3151 28.0776 21.8668C28.0776 21.4186 27.7172 21.0552 27.2727 21.0552C26.8281 21.0552 26.4678 21.4186 26.4678 21.8668C26.4678 22.3151 26.8281 22.6785 27.2727 22.6785Z" fill="#FB855E"/>
<path d="M19.188 22.6785C19.6325 22.6785 19.9929 22.3151 19.9929 21.8668C19.9929 21.4186 19.6325 21.0552 19.188 21.0552C18.7434 21.0552 18.3831 21.4186 18.3831 21.8668C18.3831 22.3151 18.7434 22.6785 19.188 22.6785Z" fill="#FB855E"/>
<path d="M21.3779 9.16695L22.3604 9.20276L21.2951 10.3009C20.9873 10.6231 20.9873 11.1364 21.3069 11.4587C21.4608 11.6138 21.6739 11.6974 21.8751 11.6974C22.0882 11.6974 22.2894 11.6138 22.4551 11.4587L24.8107 9.03565C25.0356 8.80887 25.1066 8.46272 24.9883 8.16432C24.8699 7.86592 24.5858 7.66301 24.2662 7.65107L23.0588 7.61526L24.2425 6.08745C24.5266 5.74131 24.4674 5.22806 24.1123 4.9416C23.769 4.65513 23.26 4.71481 22.9759 5.07289L20.7742 7.84205C20.5848 8.08077 20.5375 8.41498 20.6677 8.68951C20.7979 8.97597 21.082 9.15501 21.3779 9.16695Z" fill="#FB855E"/>
<path d="M46.5435 10.8379C46.4015 10.5634 46.1292 10.3963 45.8214 10.3963H44.4602L45.4545 4.90569C45.5255 4.52374 45.3124 4.14178 44.9573 3.99855C44.6022 3.85532 44.1879 3.98661 43.9867 4.32082L38.7428 12.5328C38.589 12.7835 38.5771 13.1057 38.7192 13.3683C38.8612 13.6309 39.1335 13.798 39.4294 13.798H41.1813L39.2518 19.1573C39.1098 19.5393 39.2755 19.969 39.6306 20.1599C39.749 20.2196 39.8792 20.2554 40.0094 20.2554C40.258 20.2554 40.5066 20.1361 40.6723 19.9093L46.4961 11.6973C46.6619 11.4347 46.6855 11.1124 46.5435 10.8379ZM42.7793 14.0964L43.0871 13.249C43.1818 12.9983 43.1462 12.7238 42.9924 12.5089C42.8385 12.2941 42.5899 12.1628 42.3295 12.1628H40.8972L43.1344 8.6536L42.6964 11.0647C42.6491 11.3034 42.7201 11.5421 42.874 11.7331C43.0279 11.9241 43.2528 12.0315 43.4895 12.0315H44.2471L42.7793 14.0964Z" fill="#FB855E"/>
<path d="M7.46922 35.0203C7.57576 34.901 7.64678 34.7577 7.67045 34.5906L7.84801 32.8719C7.89536 32.3705 8.09659 31.9528 8.40436 31.6783C9.48153 30.7353 10.0852 29.3865 10.0852 27.9781C10.0852 25.2328 7.82434 23.0127 5.04261 23.0127C2.26089 23.0127 0 25.2209 0 27.9661C0 29.3746 0.61553 30.7234 1.68087 31.6663C1.98864 31.9408 2.18987 32.3586 2.23722 32.8599L2.41477 34.5787C2.43845 34.7458 2.50947 34.889 2.616 35.0084V36.1185C2.616 37.4672 3.70502 38.5653 5.04261 38.5653C6.38021 38.5653 7.46922 37.4672 7.46922 36.1185V35.0203ZM1.62169 27.9661C1.62169 26.128 3.16051 24.6241 5.05445 24.6241C6.94839 24.6241 8.48722 26.128 8.48722 27.9661C8.48722 28.9091 8.07292 29.8043 7.35085 30.4369C6.73532 30.974 6.3447 31.7737 6.25 32.6809L6.14347 33.6716H5.85938V29.9356L7.24432 28.5391C7.56392 28.2168 7.56392 27.7036 7.24432 27.3813C6.92472 27.059 6.41572 27.059 6.09612 27.3813L4.97159 28.5271L4.03646 27.441C3.74053 27.1068 3.23153 27.059 2.90009 27.3574C2.56866 27.6558 2.53314 28.1691 2.81723 28.5033L4.23769 30.1504V33.6716H3.9536L3.84706 32.6809C3.75237 31.7737 3.36174 30.974 2.74621 30.4369C2.02415 29.8043 1.62169 28.9091 1.62169 27.9661ZM5.85938 36.1304C5.85938 36.584 5.49242 36.942 5.05445 36.942C4.60464 36.942 4.24953 36.572 4.24953 36.1304V35.3187H5.87121V36.1304H5.85938Z" fill="#FB855E"/>
<path d="M47.0644 36.1303H45.4545V29.1358L47.6444 26.9276C47.8693 26.7009 47.9403 26.3547 47.822 26.0444L46.2003 21.9742C46.0819 21.6639 45.786 21.4609 45.4545 21.4609H43.8329C43.5014 21.4609 43.2055 21.6639 43.0871 21.9742L41.4654 26.0444C41.3471 26.3428 41.4181 26.7009 41.643 26.9276L43.8329 29.1119V36.1303H42.2112C41.7614 36.1303 41.4062 36.5003 41.4062 36.942V46.7176C41.4062 48.5199 42.8622 49.9761 44.6378 49.9761C46.4252 49.9761 47.8693 48.508 47.8693 46.7176V36.942C47.8693 36.4884 47.5142 36.1303 47.0644 36.1303ZM44.3774 23.0842H44.8982L46.1174 26.1518L44.6496 27.6319L43.17 26.1518L44.3774 23.0842ZM46.2595 46.7176C46.2595 47.6128 45.5374 48.3528 44.6378 48.3528C43.7382 48.3528 43.0161 47.6247 43.0161 46.7176V37.7536H46.2476V46.7176H46.2595Z" fill="#FB855E"/>
<path d="M30.1019 43.4591H26.0654C25.6156 43.4591 25.2605 43.8291 25.2605 44.2708C25.2605 44.7243 25.6274 45.0824 26.0654 45.0824H30.1019C30.5517 45.0824 30.9068 44.7124 30.9068 44.2708C30.9068 43.8291 30.5399 43.4591 30.1019 43.4591Z" fill="#FB855E"/>
<path d="M5.44492 9.2623C7.00742 9.2623 8.27399 7.98515 8.27399 6.40959C8.27399 4.83404 7.00742 3.55688 5.44492 3.55688C3.88242 3.55688 2.62769 4.83404 2.62769 6.40959C2.62769 7.98515 3.89426 9.2623 5.44492 9.2623ZM5.44492 5.19212C6.1078 5.19212 6.65231 5.74118 6.65231 6.40959C6.65231 7.07801 6.11964 7.639 5.44492 7.639C4.7702 7.639 4.23753 7.08995 4.23753 6.42153C4.23753 5.75311 4.78204 5.19212 5.44492 5.19212Z" fill="#FB855E"/>
<path d="M49.0887 1.42041C48.5797 1.42041 48.1772 1.83817 48.1772 2.33948C48.1772 2.85273 48.5915 3.25856 49.0887 3.25856C49.5859 3.25856 50.0002 2.8408 50.0002 2.33948C50.0002 1.82623 49.5977 1.42041 49.0887 1.42041Z" fill="#FB855E"/>
<path d="M39.4293 4.41631C39.7489 4.09404 39.7489 3.58079 39.4293 3.25852L38.5179 2.33945L39.4293 1.42037C39.7489 1.0981 39.7489 0.584851 39.4293 0.262579C39.1097 -0.0596941 38.6007 -0.0596941 38.2811 0.262579L37.3697 1.18165L36.4582 0.262579C36.1386 -0.0596941 35.6296 -0.0596941 35.31 0.262579C34.9904 0.584851 34.9904 1.0981 35.31 1.42037L36.2215 2.33945L35.31 3.25852C34.9904 3.58079 34.9904 4.09404 35.31 4.41631C35.4639 4.57148 35.677 4.65504 35.8782 4.65504C36.0794 4.65504 36.2925 4.57148 36.4464 4.41631L37.3578 3.49724L38.2693 4.41631C38.4232 4.57148 38.6362 4.65504 38.8375 4.65504C39.0387 4.65504 39.2636 4.57148 39.4293 4.41631Z" fill="#FB855E"/>
<path d="M33.3098 34.7697L30.1375 33.3135L26.8704 31.8095V31.1292C29.9599 29.6372 32.3155 26.868 33.2625 23.514C33.7833 23.5379 34.2923 23.3827 34.7776 23.0724C35.5233 22.6069 36.0323 21.831 36.1389 21.0194C36.2336 20.2077 35.985 19.3841 35.4523 18.7754C35.0972 18.3696 34.6474 18.0831 34.1384 17.9399C34.1384 17.9399 34.1266 17.3192 34.1266 17.2595C35.0735 16.9253 35.7601 16.0301 35.7601 14.9559C35.7601 14.2397 35.4405 13.5952 34.9552 13.1416V12.9148C34.9552 6.39774 29.6995 1.09814 23.2364 1.09814H22.4315C15.9684 1.09814 10.7127 6.39774 10.7127 12.9148V13.1416C10.2156 13.5952 9.90782 14.2278 9.90782 14.9559C9.90782 16.3046 10.9968 17.4027 12.3344 17.4027H12.3936C12.3936 17.6057 12.4055 17.7847 12.4055 17.9041C11.9201 18.0354 11.4822 18.298 11.1152 18.6799C10.5825 19.2409 10.2984 19.9809 10.3221 20.7687C10.3576 21.64 10.843 22.4875 11.636 23.0246C12.1332 23.3708 12.654 23.5379 13.1867 23.5259C14.0271 26.6412 16.0868 29.2552 18.8212 30.8427C18.8212 30.8546 18.8212 30.8546 18.8212 30.8666V31.8215L15.5541 33.3254L12.3818 34.7816C9.4225 36.1423 7.50488 39.174 7.50488 42.5042V49.2122C7.50488 49.6658 7.87183 50.0239 8.30981 50.0239H37.4054C37.8553 50.0239 38.2104 49.6539 38.2104 49.2122V42.4923C38.1749 39.1502 36.2691 36.1184 33.3098 34.7697ZM26.5982 33.4806L28.7407 34.4593L26.681 39.3889L24.2071 35.8916C25.3197 35.4858 26.1957 34.6026 26.5982 33.4806ZM32.4575 17.4147C32.4575 17.546 32.4575 17.6773 32.4575 17.7966C28.7999 19.8377 25.0475 18.6799 22.5972 17.4147H32.4575ZM22.4197 2.74532H23.2246C28.6578 2.74532 33.0849 7.10196 33.3098 12.5209H12.3344C12.5593 7.10196 16.9864 2.74532 22.4197 2.74532ZM11.5058 14.9678C11.5058 14.5142 11.8728 14.1562 12.3108 14.1562H33.3216C33.7715 14.1562 34.1266 14.5262 34.1266 14.9678C34.1266 15.4094 33.7596 15.7794 33.3216 15.7794H12.3226C11.8728 15.7794 11.5058 15.4214 11.5058 14.9678ZM14.5598 22.4278C14.5125 22.201 14.3704 21.9981 14.1692 21.8907C13.9679 21.7713 13.7312 21.7475 13.5063 21.8191C13.1985 21.9265 12.9026 21.9384 12.512 21.6758C12.1569 21.4371 11.9201 21.0671 11.9083 20.721C11.8965 20.3868 12.0148 20.0645 12.2516 19.8258C12.4883 19.587 12.7961 19.4557 13.1275 19.4557C13.3406 19.4557 13.5655 19.3603 13.7194 19.2051C13.7786 19.1454 13.8259 19.0857 13.8614 19.0022C13.9088 19.0141 13.9443 19.026 13.9916 19.026C14.0626 19.026 14.1337 19.0141 14.1929 19.0022C15.0806 18.7635 16.0276 18.2502 17.0101 17.4744C17.0338 17.4624 17.0456 17.4386 17.0574 17.4147H19.5077C20.8927 18.4292 24.2544 20.5539 28.1843 20.5539C29.7232 20.5539 31.3567 20.2197 32.9784 19.3722C33.0849 19.4199 33.2033 19.4557 33.3216 19.4557C33.6649 19.4557 33.9964 19.6109 34.2331 19.8735C34.4698 20.1361 34.5764 20.4822 34.529 20.8403C34.4935 21.1745 34.2568 21.4968 33.9253 21.7117C33.5821 21.9265 33.298 21.9623 32.931 21.831C32.718 21.7475 32.4694 21.7713 32.2681 21.8907C32.0669 22.0101 31.9249 22.201 31.8775 22.4278C31.0844 26.0683 28.4211 29.0523 24.9054 30.1982L24.5503 30.3175C23.556 30.6398 22.5025 30.6517 21.5792 30.3533C18.0044 29.1717 15.3174 26.1399 14.5598 22.4278ZM21.0821 31.8811C21.6976 32.0841 22.3368 32.1795 22.976 32.1795C23.6626 32.1795 24.3609 32.0721 25.0357 31.8453L25.2487 31.7737V32.0721C25.2487 33.4209 24.1597 34.519 22.8221 34.519C21.4845 34.519 20.3955 33.4209 20.3955 32.0721V31.6066C20.6322 31.7021 20.8453 31.8095 21.0821 31.8811ZM19.0461 33.4806C19.4604 34.6026 20.3363 35.4739 21.4372 35.8916L18.9632 39.3889L16.9036 34.4713L19.0461 33.4806ZM9.09106 42.4923C9.09106 39.7947 10.6299 37.3478 13.021 36.2497L15.4358 35.1397L18.0518 41.3583C18.1701 41.6329 18.4187 41.8238 18.7028 41.8477C18.7383 41.8477 18.762 41.8477 18.7857 41.8477C19.0461 41.8477 19.2947 41.7164 19.4485 41.5016L22.0172 37.8611V48.3528H14.7492V45.1182C14.7492 44.6646 14.3822 44.3065 13.9443 44.3065C13.4945 44.3065 13.1394 44.6766 13.1394 45.1182V48.3767H9.09106V42.4923ZM36.565 48.3767H33.3335V45.1182C33.3335 44.6646 32.9665 44.3065 32.5286 44.3065C32.0906 44.3065 31.7236 44.6766 31.7236 45.1182V48.3767H23.6389V37.885L26.2075 41.5254C26.3614 41.7403 26.61 41.8716 26.8704 41.8716C26.8941 41.8716 26.9296 41.8716 26.9533 41.8716C27.2492 41.8358 27.4978 41.6448 27.6043 41.3822L30.2203 35.1635L32.6351 36.2736C35.0144 37.3717 36.565 39.8186 36.565 42.5161V48.3767Z" fill="#FB855E"/>
<path d="M27.2727 22.7023C27.7172 22.7023 28.0776 22.3389 28.0776 21.8906C28.0776 21.4424 27.7172 21.079 27.2727 21.079C26.8281 21.079 26.4678 21.4424 26.4678 21.8906C26.4678 22.3389 26.8281 22.7023 27.2727 22.7023Z" fill="#FB855E"/>
<path d="M19.188 22.7023C19.6325 22.7023 19.9929 22.3389 19.9929 21.8906C19.9929 21.4424 19.6325 21.079 19.188 21.079C18.7434 21.079 18.3831 21.4424 18.3831 21.8906C18.3831 22.3389 18.7434 22.7023 19.188 22.7023Z" fill="#FB855E"/>
<path d="M21.3778 9.19068L22.3603 9.22649L21.295 10.3246C20.9872 10.6469 20.9872 11.1601 21.3068 11.4824C21.4607 11.6376 21.6737 11.7211 21.875 11.7211C22.088 11.7211 22.2893 11.6376 22.455 11.4824L24.8106 9.05939C25.0355 8.8326 25.1065 8.48646 24.9881 8.18806C24.8698 7.88966 24.5857 7.68674 24.2661 7.67481L23.0587 7.639L24.2542 6.13506C24.5383 5.78892 24.4791 5.27567 24.124 4.9892C23.7808 4.70274 23.2718 4.76242 22.9877 5.1205L20.786 7.88966C20.5966 8.12838 20.5492 8.46259 20.6794 8.73711C20.7978 8.99971 21.0819 9.17875 21.3778 9.19068Z" fill="#FB855E"/>
<path d="M46.5435 10.8618C46.4015 10.5873 46.1292 10.4202 45.8214 10.4202H44.4602L45.4545 4.92961C45.5255 4.54766 45.3124 4.16571 44.9573 4.02248C44.6022 3.87924 44.1879 4.01054 43.9867 4.34475L38.7428 12.5567C38.589 12.8074 38.5771 13.1297 38.7192 13.3923C38.8612 13.6548 39.1335 13.8219 39.4294 13.8219H41.1813L39.2518 19.1812C39.1098 19.5632 39.2755 19.9929 39.6306 20.1838C39.749 20.2435 39.8792 20.2793 40.0094 20.2793C40.258 20.2793 40.5066 20.16 40.6723 19.9332L46.4961 11.7212C46.6619 11.4586 46.6855 11.1363 46.5435 10.8618ZM42.7793 14.1203L43.0871 13.2729C43.1818 13.0222 43.1462 12.7477 42.9924 12.5329C42.8385 12.318 42.5899 12.1867 42.3295 12.1867H40.8972L43.1344 8.67752L42.6964 11.0886C42.6491 11.3273 42.7201 11.566 42.874 11.757C43.0279 11.948 43.2528 12.0554 43.4895 12.0554H44.2471L42.7793 14.1203Z" fill="#FB855E"/>
<path d="M7.46922 35.0441C7.57576 34.9248 7.64678 34.7815 7.67045 34.6144L7.84801 32.8957C7.89536 32.3943 8.09659 31.9766 8.40436 31.7021C9.48153 30.7591 10.0852 29.4103 10.0852 28.0019C10.0852 25.2566 7.82434 23.0365 5.04261 23.0365C2.26089 23.0365 0 25.2447 0 27.9899C0 29.3984 0.61553 30.7472 1.68087 31.6901C1.98864 31.9646 2.18987 32.3824 2.23722 32.8837L2.41477 34.6025C2.43845 34.7696 2.50947 34.9128 2.616 35.0322V36.1423C2.616 37.491 3.70502 38.5891 5.04261 38.5891C6.38021 38.5891 7.46922 37.491 7.46922 36.1423V35.0441ZM1.62169 27.9899C1.62169 26.1518 3.16051 24.6479 5.05445 24.6479C6.94839 24.6479 8.48722 26.1518 8.48722 27.9899C8.48722 28.9329 8.07292 29.8281 7.35085 30.4607C6.73532 30.9978 6.3447 31.7975 6.25 32.7047L6.14347 33.6954H5.85938V29.9594L7.24432 28.5629C7.56392 28.2406 7.56392 27.7274 7.24432 27.4051C6.92472 27.0828 6.41572 27.0828 6.09612 27.4051L4.98343 28.5271L4.0483 27.4409C3.75237 27.1067 3.24337 27.0589 2.91193 27.3573C2.58049 27.6557 2.54498 28.169 2.82907 28.5032L4.24953 30.1504V33.6715H3.96544L3.8589 32.6808C3.7642 31.7737 3.37358 30.974 2.75805 30.4368C2.02415 29.84 1.62169 28.9329 1.62169 27.9899ZM5.85938 36.1542C5.85938 36.6078 5.49242 36.9658 5.05445 36.9658C4.61648 36.9658 4.24953 36.5958 4.24953 36.1542V35.3425H5.87121V36.1542H5.85938Z" fill="#FB855E"/>
<path d="M47.0644 36.1542H45.4545V29.1597L47.6444 26.9516C47.8693 26.7248 47.9403 26.3786 47.822 26.0683L46.2003 21.9981C46.0819 21.6878 45.786 21.4849 45.4545 21.4849H43.8329C43.5014 21.4849 43.2055 21.6878 43.0871 21.9981L41.4654 26.0683C41.3471 26.3667 41.4181 26.7248 41.643 26.9516L43.8329 29.1359V36.1542H42.2112C41.7614 36.1542 41.4062 36.5243 41.4062 36.9659V46.7415C41.4062 48.5438 42.8622 50 44.6378 50C46.4134 50 47.8693 48.5319 47.8693 46.7415V36.9659C47.8693 36.5243 47.5142 36.1542 47.0644 36.1542ZM44.3774 23.1201H44.8982L46.1174 26.1877L44.6496 27.6677L43.17 26.1877L44.3774 23.1201ZM46.2595 46.7415C46.2595 47.6367 45.5374 48.3767 44.6378 48.3767C43.75 48.3767 43.0161 47.6486 43.0161 46.7415V37.7775H46.2476V46.7415H46.2595Z" fill="#FB855E"/>
<path d="M30.1019 43.4829H26.0654C25.6156 43.4829 25.2605 43.8529 25.2605 44.2946C25.2605 44.7362 25.6274 45.1062 26.0654 45.1062H30.1019C30.5517 45.1062 30.9068 44.7362 30.9068 44.2946C30.9068 43.8529 30.5399 43.4829 30.1019 43.4829Z" fill="#FB855E"/>
</g>
<defs>
<clipPath id="clip0">
<rect width="50" height="50" fill="white"/>
</clipPath>
</defs>
</svg>
