<svg width="57" height="50" viewBox="0 0 57 50" fill="none" xmlns="http://www.w3.org/2000/svg">
<g clip-path="url(#clip0)">
<path d="M18.9103 37.7358V34.9056H21.7468C22.2668 34.9056 22.6923 34.4811 22.6923 33.9622V17.9245C22.6923 17.9009 22.6805 17.8891 22.6805 17.8655C22.6805 17.783 22.6569 17.7004 22.6332 17.6179C22.6214 17.5825 22.6096 17.5589 22.5978 17.5236C22.5505 17.4292 22.4914 17.3349 22.4205 17.2523L16.7474 11.592C16.6647 11.5212 16.5819 11.4504 16.4756 11.4151C16.4519 11.4033 16.4165 11.3915 16.3928 11.3915C16.3101 11.3561 16.2155 11.3443 16.1328 11.3443C16.1092 11.3443 16.0974 11.3325 16.0855 11.3325H4.72756C4.20753 11.3325 3.78205 11.757 3.78205 12.2759V15.1061H0.945513C0.425481 15.1061 0 15.5306 0 16.0495V37.7476C0 38.2665 0.425481 38.691 0.945513 38.691H17.9647C18.4848 38.6792 18.9103 38.2547 18.9103 37.7358ZM17.0192 14.5401L19.4657 16.9811H17.0192V14.5401ZM5.67308 16.0377V13.2075H15.1282V17.9245C15.1282 18.4434 15.5537 18.8679 16.0737 18.8679H20.8013V33.0188H5.67308V16.0377ZM17.0192 36.7924H1.89103V16.9811H3.78205V33.9622C3.78205 34.4811 4.20753 34.9056 4.72756 34.9056H17.0192V36.7924Z" fill="#403F3E"/>
<path d="M56.6717 20.4481C56.6599 20.4127 56.6481 20.3891 56.6363 20.3538C56.589 20.2594 56.5299 20.1651 56.459 20.0825L50.7859 14.4222C50.7032 14.3514 50.6204 14.2806 50.5141 14.2453C50.4904 14.2335 50.455 14.2217 50.4313 14.2217C50.3486 14.1863 50.254 14.1745 50.1713 14.1745C50.1477 14.1745 50.1359 14.1627 50.124 14.1627H38.7661C38.246 14.1627 37.8206 14.5872 37.8206 15.1061V36.8042C37.8206 37.3231 38.246 37.7476 38.7661 37.7476H55.7853C56.3053 37.7476 56.7308 37.3231 56.7308 36.8042V20.7547C56.7308 20.7311 56.719 20.7193 56.719 20.6957C56.719 20.6132 56.6954 20.5306 56.6717 20.4481ZM51.0577 17.3703L53.5042 19.8113H51.0577V17.3703ZM54.8398 35.849H39.7116V16.0377H49.1667V20.7547C49.1667 21.2736 49.5922 21.6981 50.1122 21.6981H54.8398V35.849Z" fill="#403F3E"/>
<path d="M7.56421 19.8113H14.1828V21.6981H7.56421V19.8113Z" fill="#403F3E"/>
<path d="M7.56421 23.585H18.9104V25.4717H7.56421V23.585Z" fill="#403F3E"/>
<path d="M7.56421 27.3585H18.9104V29.2453H7.56421V27.3585Z" fill="#403F3E"/>
<path d="M42.5481 27.3585C42.5481 27.6297 42.5836 27.9009 42.6308 28.1603C42.6545 28.2665 42.6663 28.3608 42.6899 28.4669C42.7254 28.6203 42.7727 28.7618 42.8317 28.9151C42.9145 29.1391 43.009 29.3632 43.1272 29.5636C43.1627 29.6344 43.1981 29.7052 43.2336 29.7759C43.2454 29.7877 43.2572 29.7995 43.2572 29.8231C43.34 29.9528 43.4227 30.0707 43.5054 30.1886C43.5882 30.2948 43.6709 30.3891 43.7536 30.4835C43.8364 30.5778 43.9073 30.6603 43.99 30.7429C44.1673 30.908 44.3564 31.0613 44.5455 31.2028C44.6046 31.25 44.6755 31.2853 44.7464 31.3325C44.9473 31.4622 45.1483 31.5684 45.361 31.6627C45.3965 31.6745 45.4201 31.6981 45.4555 31.7099C45.7037 31.816 45.9638 31.8986 46.2356 31.9575C46.2947 31.9693 46.3538 31.9811 46.4247 31.9929C46.992 32.1108 47.5593 32.1108 48.1266 31.9929C48.1857 31.9811 48.2448 31.9693 48.3157 31.9575C48.5876 31.8986 48.8476 31.816 49.0958 31.7099C49.1312 31.6981 49.1549 31.6745 49.1903 31.6627C49.4031 31.5684 49.6158 31.4504 49.8049 31.3325C49.8758 31.2853 49.9349 31.25 50.0058 31.2028C50.2068 31.0613 50.3959 30.908 50.5613 30.7429C50.644 30.6603 50.715 30.5778 50.7977 30.4835C50.8804 30.4009 50.9632 30.283 51.0459 30.1886C51.1404 30.0707 51.2232 29.9528 51.2941 29.8231C51.3059 29.8113 51.3177 29.7995 51.3177 29.7759C51.3295 29.7641 51.3295 29.7523 51.3295 29.7405C51.7668 29.0212 51.9914 28.1957 51.9914 27.3585C51.9914 24.7523 49.8758 22.6415 47.2638 22.6415C44.6519 22.6415 42.5481 24.7523 42.5481 27.3585ZM44.4982 27.9245C44.4628 27.7358 44.4391 27.5471 44.4391 27.3585C44.4391 27.1816 44.4628 27.0047 44.4864 26.8396C44.4982 26.7924 44.51 26.7335 44.5219 26.6863C44.5455 26.5684 44.5809 26.4622 44.6282 26.3443C44.6519 26.2971 44.6755 26.2382 44.6991 26.191C44.7464 26.0849 44.8055 25.9787 44.8764 25.8726C44.9001 25.8372 44.9237 25.7901 44.9473 25.7547C45.0419 25.625 45.1483 25.4953 45.2664 25.3773C45.2901 25.3537 45.3137 25.342 45.3255 25.3184C45.4201 25.224 45.5383 25.1297 45.6447 25.0589C45.6919 25.0236 45.7392 25 45.7747 24.9764C45.8692 24.9174 45.9756 24.8585 46.0819 24.8113C46.1292 24.7877 46.1765 24.7641 46.2238 24.7405C46.2592 24.7287 46.2829 24.717 46.3183 24.717V26.8396L44.4982 27.9245ZM48.2212 24.7052C49.5567 25.1651 50.3368 26.5448 50.0531 27.9245L48.2212 26.8278V24.7052ZM49.0721 29.5283L49.0249 29.5754C48.9303 29.658 48.8239 29.7287 48.7176 29.7877C48.6939 29.7995 48.6703 29.8113 48.6348 29.8349C47.7839 30.2712 46.7793 30.2712 45.9283 29.8349C45.9047 29.8231 45.8692 29.8113 45.8456 29.7877C45.7392 29.7287 45.6328 29.658 45.5383 29.5754L45.491 29.5401L47.2875 28.4669L49.0721 29.5283Z" fill="#403F3E"/>
<path d="M41.6026 9.43389H46.3301C46.8502 9.43389 47.2756 9.00936 47.2756 8.4905V3.77352H45.3846V6.49757C35.1376 -2.66516 19.4657 -2.06375 9.9397 7.84191L11.2989 9.15087C19.9858 0.117856 34.2039 -0.577898 43.7181 7.5471H41.6026V9.43389Z" fill="#403F3E"/>
<path d="M15.3528 40.566H10.6252C10.1052 40.566 9.67969 40.9906 9.67969 41.5094V46.2264H11.5707V43.5024C21.8177 52.6533 37.4896 52.0637 47.0156 42.158L45.6446 40.8491C36.9696 49.8703 22.7632 50.5778 13.2372 42.4528H15.3646L15.3528 40.566Z" fill="#403F3E"/>
</g>
<defs>
<clipPath id="clip0">
<rect width="56.7308" height="50" fill="white"/>
</clipPath>
</defs>
</svg>
