<svg width="90" height="90" viewBox="0 0 90 90" fill="none" xmlns="http://www.w3.org/2000/svg">
<circle cx="45" cy="45" r="45" fill="#FEDACF"/>
<path d="M52.4981 36.0772L52.7307 36.5488L53.2511 36.6244L68.237 38.8024C68.2373 38.8024 68.2377 38.8025 68.238 38.8025C68.7338 38.8768 69.0626 39.3306 68.9896 39.8037L68.9895 39.8037L68.9879 39.8148C68.9606 40.0059 68.8705 40.1834 68.7296 40.3217C68.7294 40.3219 68.7292 40.3221 68.7289 40.3223L57.886 50.8937L57.5096 51.2607L57.5985 51.7789L60.1606 66.7089L60.1608 66.7097C60.2436 67.1902 59.9209 67.649 59.4355 67.7327L59.4341 67.7329C59.2412 67.7665 59.0423 67.7346 58.8769 67.6465L58.8724 67.6441L45.4655 60.5953L45.0001 60.3507L44.5348 60.5953L31.1279 67.6441L31.1263 67.6449C30.9799 67.7222 30.8147 67.757 30.6495 67.7452C30.4844 67.7334 30.3258 67.6756 30.1918 67.5783C30.0578 67.481 29.9538 67.3481 29.8915 67.1946C29.8292 67.0412 29.8111 66.8734 29.8394 66.7102L29.8396 66.7089L32.4017 51.7789L32.4906 51.2607L32.1142 50.8937L21.2695 40.3205L21.2694 40.3205C21.1001 40.1554 21.0032 39.9299 21.0001 39.6935C20.997 39.4576 21.0874 39.2302 21.2515 39.0608C21.3897 38.9204 21.5669 38.8305 21.7577 38.8032L21.7601 38.8028L36.7491 36.6244L37.2695 36.5488L37.5021 36.0772L44.2002 22.4981C44.2006 22.4974 44.2009 22.4967 44.2013 22.496C44.4237 22.0539 44.9602 21.8765 45.3958 22.0915L45.3969 22.0921C45.5708 22.1777 45.7116 22.3185 45.7972 22.4924L45.7976 22.4932L52.4981 36.0772Z" fill="#FB855E" stroke="#263238" stroke-width="2"/>
</svg>
