<svg width="90" height="90" viewBox="0 0 90 90" fill="none" xmlns="http://www.w3.org/2000/svg">
<circle cx="45" cy="45" r="45" fill="#FEDACF"/>
<path d="M21.025 30.0008V30C21.025 27.7707 22.7838 26 25 26H65C67.2227 26 69 27.7773 69 30V60C69 62.2227 67.2227 64 65 64H25C22.7774 64 21.0002 62.2229 21 60.0004C21 60.0003 21 60.0001 21 60L21.025 30.0008ZM50 49.625H47.5858L49.2929 51.3321L53.4179 55.4571C54.2834 56.3226 55.7166 56.3226 56.5821 55.4571L60.7071 51.3321L62.4142 49.625H60H50ZM49.2929 39.2929L47.5858 41H50H60H62.4039L60.7093 39.295L56.6093 35.17L56.6071 35.1679C55.7166 34.2774 54.3084 34.2774 53.4179 35.1679L49.2929 39.2929ZM36 41.5V41H42.5C44.4273 41 46 39.4273 46 37.5C46 35.5727 44.4273 34 42.5 34H40.854C40.4218 32.5571 39.0801 31.5 37.5 31.5C35.9199 31.5 34.5782 32.5571 34.146 34H32.5C30.5727 34 29 35.5727 29 37.5V45C29 46.9273 30.5727 48.5 32.5 48.5H39V49H32.5C30.5727 49 29 50.5727 29 52.5C29 54.4273 30.5727 56 32.5 56H34.146C34.5782 57.4429 35.9199 58.5 37.5 58.5C39.0801 58.5 40.4218 57.4429 40.854 56H42.5C44.4273 56 46 54.4273 46 52.5V45C46 43.0727 44.4273 41.5 42.5 41.5H36Z" fill="#FB855E" stroke="#263238" stroke-width="2"/>
</svg>
