<svg width="90" height="90" viewBox="0 0 90 90" fill="none" xmlns="http://www.w3.org/2000/svg">
<circle cx="45" cy="45" r="45" fill="#FEDACF"/>
<path d="M68.6597 48.7973L68.6572 48.803L62.035 64.1138C61.3106 65.2782 60.0065 66 58.625 66H38.35C37.0673 66 35.8368 65.4919 34.9278 64.5868C34.0194 63.6822 33.506 62.4548 33.5 61.1729V41.575C33.5 40.5156 33.9194 39.4948 34.6821 38.7321L49.9924 23.4219L50.4353 23.8745L50.4353 23.8745L50.4407 23.8799C51.2551 24.6995 51.9353 25.6423 52.4562 26.6736C52.6032 26.9684 52.648 27.3315 52.5749 27.6534L52.5717 27.6671L52.569 27.6809L50.269 39.3059L50.0328 40.5H51.25H65C67.1977 40.5 69 42.3023 69 44.5V47.2C69 47.7553 68.8813 48.2935 68.6597 48.7973ZM25 66H21V40.5H25C25.8227 40.5 26.5 41.1773 26.5 42V64.5C26.5 65.3227 25.8227 66 25 66Z" fill="#FB855E" stroke="#263238" stroke-width="2"/>
</svg>
