<svg width="90" height="90" viewBox="0 0 90 90" fill="none" xmlns="http://www.w3.org/2000/svg">
<circle cx="45" cy="45" r="45" fill="#FEDACF"/>
<path d="M56.611 25.4616L57.3679 26.0849L58.006 25.3404L61.6657 21.0707C62.0356 20.8684 62.4961 21.1317 62.4961 21.565V68.435C62.4961 68.87 62.0277 69.1286 61.6669 68.9307L58.006 64.6596L57.3679 63.9151L56.611 64.5384L51.3188 68.8968C51.2251 68.9637 51.1128 68.9998 50.9974 68.9998C50.882 68.9998 50.7696 68.9637 50.676 68.8968L45.3837 64.5384L44.748 64.0149L44.1123 64.5384L38.8201 68.8968C38.7264 68.9637 38.6141 68.9998 38.4987 68.9998C38.3833 68.9998 38.2709 68.9637 38.1773 68.8968L32.8851 64.5384L32.1282 63.9151L31.4901 64.6596L27.8304 68.9293C27.4604 69.1316 27 68.8683 27 68.435V21.565C27 21.1317 27.4604 20.8684 27.8304 21.0707L31.4901 25.3404L32.1282 26.0849L32.8851 25.4616L38.1773 21.1032C38.271 21.0363 38.3833 21.0002 38.4987 21.0002C38.6141 21.0002 38.7264 21.0363 38.8201 21.1032L44.1123 25.4616L44.748 25.9851L45.3837 25.4616L50.676 21.1032C50.7696 21.0363 50.882 21.0002 50.9974 21.0002C51.1127 21.0002 51.2251 21.0363 51.3188 21.1032L56.611 25.4616ZM56.4655 56.9364C57.4475 56.9364 58.2467 56.1371 58.2467 55.1552V53.5928C58.2467 52.6109 57.4475 51.8117 56.4655 51.8117H33.0305C32.0486 51.8117 31.2493 52.6109 31.2493 53.5928V55.1552C31.2493 56.1371 32.0486 56.9364 33.0305 56.9364H56.4655ZM56.4655 47.5623C57.4475 47.5623 58.2467 46.7631 58.2467 45.7812V44.2188C58.2467 43.2369 57.4475 42.4377 56.4655 42.4377H33.0305C32.0486 42.4377 31.2493 43.2369 31.2493 44.2188V45.7812C31.2493 46.7631 32.0486 47.5623 33.0305 47.5623H56.4655ZM56.4655 38.1883C57.4475 38.1883 58.2467 37.3891 58.2467 36.4072V34.8448C58.2467 33.8629 57.4475 33.0637 56.4655 33.0637H33.0305C32.0486 33.0637 31.2493 33.8629 31.2493 34.8448V36.4072C31.2493 37.3891 32.0486 38.1883 33.0305 38.1883H56.4655Z" fill="#FB855E" stroke="#263238" stroke-width="2"/>
</svg>
