<svg width="90" height="90" viewBox="0 0 90 90" fill="none" xmlns="http://www.w3.org/2000/svg">
<circle cx="45" cy="45" r="45" fill="#FEDACF"/>
<path d="M37.2148 54.3009L37.2153 54.3018C37.359 54.5978 37.6058 54.8311 37.9094 54.9578C38.2129 55.0845 38.5523 55.0959 38.8636 54.99C38.8637 54.99 38.8638 54.9899 38.8639 54.9899L43.7072 53.3387C44.4085 53.0993 45.1694 53.0993 45.8707 53.3387L50.7143 54.99L50.7144 54.99C51.0257 55.0962 51.365 55.085 51.6686 54.9585C51.9721 54.8321 52.219 54.5992 52.3629 54.3035C52.3629 54.3035 52.363 54.3034 52.363 54.3033L54.7236 49.4482C55.0334 48.8104 55.5377 48.2874 56.1637 47.9545L56.1648 47.954L60.8607 45.4639L60.8607 45.4639C61.1389 45.3164 61.3568 45.0762 61.4765 44.785C61.5963 44.4937 61.6104 44.1698 61.5164 43.8692L61.5163 43.8689L59.8484 38.5293L59.8484 38.5292C59.6455 37.8793 59.6455 37.183 59.8484 36.5331L59.8484 36.5329L61.5163 31.1934C61.5163 31.1934 61.5163 31.1934 61.5163 31.1934C61.61 30.8932 61.5959 30.5697 61.4765 30.2788C61.357 29.9878 61.1396 29.7478 60.8619 29.6001L56.1649 27.1107L56.1631 27.1097C55.537 26.7762 55.0329 26.2525 54.7236 25.614C54.7234 25.6136 54.7232 25.6131 54.723 25.6127L52.363 20.7612L52.3626 20.7604C52.219 20.4644 51.9721 20.2311 51.6685 20.1044C51.365 19.9777 51.0257 19.9663 50.7143 20.0722L37.2148 54.3009ZM37.2148 54.3009L34.8549 49.4519C34.8547 49.4515 34.8545 49.4511 34.8543 49.4507C34.545 48.8122 34.041 48.2884 33.4148 47.9549L33.413 47.9539L28.716 45.4645C28.7157 45.4643 28.7154 45.4642 28.7151 45.464C28.4378 45.3163 28.2208 45.0765 28.1014 44.7858C27.982 44.4949 27.9679 44.1714 28.0616 43.8712L29.7295 38.5317L29.7295 38.5315C29.9324 37.8816 29.9324 37.1853 29.7295 36.5354L29.7295 36.5353L28.0616 31.1957L28.0615 31.1954C27.9675 30.8948 27.9816 30.5709 28.1014 30.2796C28.2211 29.9884 28.439 29.7482 28.7172 29.6007L28.7172 29.6007L33.4131 27.1106L33.4142 27.1101C34.0402 26.7772 34.5444 26.2542 34.8542 25.6165C34.8542 25.6165 34.8543 25.6164 34.8543 25.6164L37.2149 20.7589C37.3588 20.4632 37.6057 20.2302 37.9093 20.1037C38.2129 19.9773 38.5522 19.9661 38.8635 20.0722L38.8636 20.0722L43.7072 21.7236C43.7073 21.7236 43.7074 21.7236 43.7075 21.7237C44.4086 21.9629 45.1693 21.9629 45.8704 21.7237C45.8705 21.7236 45.8706 21.7236 45.8707 21.7236L50.714 20.0724L37.2148 54.3009ZM51.3564 61.1115C51.962 61.3186 52.5878 61.3673 53.1855 61.2776V67.6044L45.1104 64.863L44.789 64.7538L44.4675 64.863L36.3925 67.6044V61.2785C36.99 61.3685 37.6164 61.32 38.2232 61.1109C38.2238 61.1107 38.2245 61.1105 38.2252 61.1102L44.1788 59.0819L44.1791 59.0818C44.5745 58.9469 45.0034 58.9469 45.3988 59.0818L45.3991 59.0819L51.355 61.111C51.3555 61.1112 51.356 61.1113 51.3564 61.1115ZM44.789 29.4838C43.9007 29.4838 43.0488 29.8366 42.4208 30.4647C41.7927 31.0928 41.4398 31.9446 41.4398 32.8329V42.2294C41.4398 43.1176 41.7927 43.9695 42.4208 44.5976C43.0488 45.2256 43.9007 45.5785 44.789 45.5785C45.6772 45.5785 46.5291 45.2256 47.1571 44.5976C47.7852 43.9695 48.1381 43.1176 48.1381 42.2294V32.8329C48.1381 31.9446 47.7852 31.0928 47.1571 30.4647C46.5291 29.8366 45.6772 29.4838 44.789 29.4838Z" fill="#FB855E" stroke="#263238" stroke-width="2"/>
</svg>
