<svg width="1440" height="707" viewBox="0 0 1440 707" fill="none" xmlns="http://www.w3.org/2000/svg">
<path d="M374.24 421.5C200.361 369 143.4 469.5 0 469.5V0H1440V706.5C1279.61 706.5 1263.12 588.5 1106.23 545.5C949.341 502.5 860.902 594 716.003 568C492.117 527.827 520.16 465.558 374.24 421.5Z" fill="#E2E5E9" fill-opacity="0.3"/>
<path d="M105.39 361.149C47.4506 342.642 7.3257 376.322 0 386.16V0H1439.5L1440 568.735C1244.7 568.735 1172.78 687.284 1029.43 665.275C886.077 643.266 867.097 500.207 739.23 479.698C611.363 459.19 543.434 554.729 389.095 518.715C184.308 470.928 163.33 379.657 105.39 361.149Z" fill="#E2E5E9" fill-opacity="0.3"/>
</svg>
