<svg width="280" height="274" viewBox="0 0 280 274" fill="none" xmlns="http://www.w3.org/2000/svg">
<path d="M211.86 245.69C211.86 245.69 221.478 245.637 232.145 230.779C241.465 217.784 223.774 177.553 213.857 168.299C203.94 159.046 184.637 209.585 186.879 222.387C190.07 240.629 203.82 245.226 211.86 245.69Z" fill="#FB675E"/>
<path d="M227.468 220.696L212.663 235.415L214.155 272.92H209.253C209.193 272.661 209.379 246.825 209.538 216.689L198.189 205.804C199.051 205.804 197.525 204.331 197.353 204.186L209.591 212.663C209.691 193.831 209.784 178.667 209.784 178.667L210.891 177.281L211.508 197.42L221.976 189.884C221.823 190.03 220.278 191.503 221.14 191.503L211.614 200.975L212.503 229.989L228.662 218.361C228.443 218.587 226.228 220.696 227.468 220.696Z" stroke="#263238" stroke-miterlimit="10"/>
<path d="M255.866 257.902C255.866 257.902 267.567 257.06 273.404 245.962C279.706 233.962 264.336 205.499 256.482 203.389C247.859 201.061 234.248 223.807 237.034 241.478C238.944 253.537 250.459 257.597 255.866 257.902Z" fill="#FB675E"/>
<path d="M264.648 236.145L256.489 242.626C256.237 227.409 256.025 215.257 256.025 215.257L255.023 214.116L254.651 229.658V229.996L247.726 224.563C247.726 224.563 248.834 225.691 248.264 225.698L254.565 232.55L254.141 250.42L243.68 242.188C243.68 242.188 245.245 243.787 244.443 243.793L254.041 254.234L253.988 256.297L253.928 258.519L253.603 272.615L256.986 272.575C256.907 268.045 256.834 263.289 256.761 258.539C256.695 254.493 256.615 250.44 256.562 246.546C256.562 246.254 256.562 245.982 256.562 245.697L264.058 237.492C263.368 237.498 264.648 236.145 264.648 236.145Z" stroke="#263238" stroke-miterlimit="10"/>
<path d="M241.292 266.625C240.204 265.749 238.247 265.769 236.529 265.842C236.655 264.748 237.113 263.667 237.246 262.565C237.351 261.997 237.294 261.411 237.082 260.874C236.869 260.337 236.51 259.87 236.045 259.527C234.161 258.201 230.845 258.718 228.244 259.474C228.602 256.901 225.863 254.393 222.195 253.995C218.526 253.597 214.447 255.388 213.372 257.902C211.886 256.483 208.921 255.912 206.447 256.576C203.973 257.239 202.215 259.09 202.341 260.874C200.444 260.748 198.328 260.662 196.756 261.478C194.447 262.685 194.607 265.126 192.829 266.705C192.255 266.595 191.661 266.643 191.112 266.844C190.563 267.045 190.079 267.391 189.711 267.846C189.108 268.635 189.001 269.537 188.637 270.386C187.894 272.084 185.426 272.296 183.071 273.039L242.002 273.53C243.282 273.119 244.377 272.243 244.323 271.295C244.27 270.346 242.685 269.577 241.458 270.048C241.882 270.068 242.559 267.633 241.292 266.625Z" fill="#FB675E"/>
<path d="M267.786 269.206C267.122 268.675 265.915 268.681 264.867 268.728C264.94 268.065 265.218 267.401 265.305 266.738C265.37 266.389 265.335 266.03 265.205 265.7C265.075 265.37 264.854 265.084 264.568 264.874C263.414 264.065 261.378 264.376 259.786 264.841C260.005 263.262 258.326 261.723 256.078 261.484C253.829 261.246 251.328 262.333 250.672 263.872C249.763 263.003 247.939 262.658 246.426 263.07C244.914 263.481 243.833 264.609 243.912 265.723C242.745 265.643 241.451 265.584 240.489 266.088C239.07 266.831 239.163 268.323 238.081 269.292C237.728 269.225 237.363 269.255 237.026 269.379C236.688 269.502 236.391 269.715 236.164 269.995C235.879 270.482 235.656 271.004 235.501 271.547C235.05 272.589 233.511 272.715 232.092 273.172L268.21 273.471C268.993 273.219 269.663 272.681 269.636 272.104C269.61 271.527 268.628 271.05 267.878 271.341C268.144 271.322 268.562 269.829 267.786 269.206Z" fill="#FB675E"/>
<path d="M121.899 154.615C120.271 153.498 118.368 152.848 116.397 152.735C114.426 152.621 112.462 153.049 110.716 153.972C108.971 154.895 107.511 156.278 106.495 157.971C105.479 159.663 104.945 161.602 104.951 163.576V163.642C104.621 163.22 104.206 162.873 103.733 162.622C103.259 162.372 102.738 162.225 102.204 162.19C101.669 162.156 101.134 162.235 100.632 162.422C100.13 162.61 99.6737 162.901 99.2927 163.278C99.0655 161.11 98.0158 159.112 96.3597 157.694C94.7036 156.277 92.5671 155.549 90.3902 155.659C88.2132 155.77 86.1615 156.711 84.6574 158.288C83.1533 159.866 82.3113 161.96 82.3048 164.14C81.9496 163.889 81.5365 163.733 81.1044 163.685C80.6722 163.638 80.235 163.701 79.8339 163.869C79.4328 164.037 79.0808 164.303 78.8111 164.644C78.5413 164.985 78.3626 165.389 78.2916 165.818H138.569C138.568 164.364 138.151 162.94 137.366 161.715C136.581 160.49 135.462 159.516 134.141 158.908C132.819 158.3 131.351 158.084 129.91 158.284C128.47 158.485 127.117 159.095 126.012 160.041C125.647 158.995 125.126 158.011 124.466 157.122" stroke="#263238" stroke-linecap="round" stroke-linejoin="round"/>
<path d="M225.485 75.2799C227.467 74.5875 229.586 74.3795 231.665 74.6736C233.744 74.9676 235.723 75.755 237.435 76.9699C239.147 78.1849 240.544 79.7921 241.508 81.6573C242.472 83.5224 242.976 85.5913 242.977 87.6909V87.7705C243.377 87.2589 243.881 86.8376 244.456 86.5343C245.03 86.231 245.662 86.0526 246.31 86.0106C246.959 85.9686 247.608 86.0641 248.217 86.2908C248.826 86.5175 249.38 86.8703 249.843 87.326C250.139 84.7109 251.421 82.3071 253.428 80.6044C255.434 78.9017 258.015 78.0281 260.643 78.1617C263.272 78.2954 265.75 79.4261 267.574 81.3236C269.398 83.221 270.43 85.7425 270.459 88.3741C270.981 87.999 271.608 87.7992 272.25 87.8036C272.989 87.8018 273.705 88.063 274.269 88.5407C274.833 89.0184 275.208 89.6812 275.328 90.4105H202.182C202.177 88.6408 202.681 86.9069 203.634 85.4156C204.586 83.9242 205.948 82.7383 207.556 81.9993C209.164 81.2603 210.951 80.9993 212.703 81.2475C214.455 81.4957 216.099 82.2426 217.439 83.3991C218.102 81.487 219.196 79.753 220.636 78.3312" stroke="#263238" stroke-linecap="round" stroke-linejoin="round"/>
<path d="M1 60.0101H74.1457C74.151 58.2403 73.6471 56.5064 72.6943 55.0151C71.7415 53.5237 70.3799 52.3378 68.7718 51.5988C67.1637 50.8598 65.3771 50.5989 63.6248 50.8471C61.8726 51.0952 60.2287 51.8421 58.8891 52.9986C57.8728 50.0629 55.8493 47.5822 53.1777 45.9968C50.506 44.4114 47.3591 43.8237 44.2954 44.3382C41.2316 44.8527 38.4492 46.436 36.442 48.8071C34.4348 51.1782 33.3325 54.1838 33.3309 57.2904V57.37C32.9306 56.8584 32.4268 56.4371 31.8523 56.1338C31.2779 55.8305 30.6459 55.6521 29.9976 55.6101C29.3494 55.5681 28.6997 55.6636 28.0909 55.8903C27.4822 56.117 26.9282 56.4698 26.4654 56.9256C26.1692 54.3105 24.8871 51.9067 22.8803 50.2039C20.8736 48.5012 18.2931 47.6276 15.6646 47.7613C13.0362 47.8949 10.5576 49.0256 8.73386 50.9231C6.9101 52.8205 5.8784 55.342 5.84897 57.9736C5.32749 57.5985 4.70033 57.3988 4.05797 57.4032C3.32232 57.406 2.61147 57.6694 2.05164 58.1467C1.4918 58.6239 1.11921 59.2841 1 60.0101Z" fill="white" stroke="#263238" stroke-miterlimit="10"/>
<path d="M98.4833 85.8667L100.752 100.049" stroke="#FB675E" stroke-miterlimit="10"/>
<path d="M89.9064 90.8882L99.3457 102.317" stroke="#FB675E" stroke-miterlimit="10"/>
<path d="M88.4141 100.593L97.2497 104.049" stroke="#FB675E" stroke-miterlimit="10"/>
<path d="M43.5859 125.275V114.35" stroke="#263238" stroke-linecap="round" stroke-linejoin="round"/>
<path d="M17.8619 125.275H43.5859V117.216H17.8619V125.275Z" fill="white" stroke="#263238" stroke-linecap="round" stroke-linejoin="round"/>
<path d="M17.8619 125.275V114.35" stroke="#263238" stroke-linecap="round" stroke-linejoin="round"/>
<path d="M108.38 273.079H160.372V182.547H108.38L108.38 273.079Z" fill="white" stroke="#263238" stroke-linecap="round" stroke-linejoin="round"/>
<path d="M56.554 273.079H108.546L108.546 148.983H56.554L56.554 273.079Z" fill="white" stroke="#263238" stroke-linecap="round" stroke-linejoin="round"/>
<path d="M4.3232 273.086H56.3152L56.3152 125.057H4.3232L4.3232 273.086Z" fill="white" stroke="#263238" stroke-linecap="round" stroke-linejoin="round"/>
<path d="M46.6371 134.39V267.474" stroke="#FB675E" stroke-linecap="round" stroke-linejoin="round"/>
<path d="M35.2676 134.39V267.474" stroke="#FB675E" stroke-linecap="round" stroke-linejoin="round"/>
<path d="M23.8981 134.39V267.474" stroke="#FB675E" stroke-linecap="round" stroke-linejoin="round"/>
<path d="M12.5352 134.39V267.474" stroke="#FB675E" stroke-linecap="round" stroke-linejoin="round"/>
<path d="M99.9162 155.391V167.775V180.153V192.537V204.915V217.306V229.691V242.068V254.453V266.837V267.076" stroke="#FB675E" stroke-linecap="round" stroke-linejoin="round"/>
<path d="M88.5467 155.391V167.775V180.153V192.537V204.915V217.306V229.691V242.068V254.453V266.837V267.076" stroke="#FB675E" stroke-linecap="round" stroke-linejoin="round"/>
<path d="M77.1705 155.391V167.775V180.153V192.537V204.915V217.306V229.691V242.068V254.453V266.837V267.076" stroke="#FB675E" stroke-linecap="round" stroke-linejoin="round"/>
<path d="M65.8076 155.391V167.775V180.153V192.537V204.915V217.306V229.691V242.068V254.453V266.837V267.076" stroke="#FB675E" stroke-linecap="round" stroke-linejoin="round"/>
<path d="M99.9162 155.391H97.6874H87.0608H76.4276H65.8076" stroke="#FB675E" stroke-linecap="round" stroke-linejoin="round"/>
<path d="M99.9162 167.775H97.6874H87.0608H76.4276H65.8076" stroke="#FB675E" stroke-linecap="round" stroke-linejoin="round"/>
<path d="M99.9162 180.153H97.6874H87.0608H76.4276H65.8076" stroke="#FB675E" stroke-linecap="round" stroke-linejoin="round"/>
<path d="M99.9162 192.537H97.6874H87.0608H76.4276H65.8076" stroke="#FB675E" stroke-linecap="round" stroke-linejoin="round"/>
<path d="M99.9162 204.915H97.6874H87.0608H76.4276H65.8076" stroke="#FB675E" stroke-linecap="round" stroke-linejoin="round"/>
<path d="M99.9162 217.306H97.6874H87.0608H76.4276H65.8076" stroke="#FB675E" stroke-linecap="round" stroke-linejoin="round"/>
<path d="M99.9162 229.691H97.6874H87.0608H76.4276H65.8076" stroke="#FB675E" stroke-linecap="round" stroke-linejoin="round"/>
<path d="M99.9162 242.068H97.6874H87.0608H76.4276H65.8076" stroke="#FB675E" stroke-linecap="round" stroke-linejoin="round"/>
<path d="M99.9162 254.453H97.6874H87.0608H76.4276H65.8076" stroke="#FB675E" stroke-linecap="round" stroke-linejoin="round"/>
<path d="M99.9162 266.837H97.6874H87.0608H76.4276H65.8076" stroke="#FB675E" stroke-linecap="round" stroke-linejoin="round"/>
<path d="M155.284 190.017H115.982" stroke="#FB675E" stroke-linecap="round" stroke-linejoin="round"/>
<path d="M155.284 202.401H115.982" stroke="#FB675E" stroke-linecap="round" stroke-linejoin="round"/>
<path d="M155.284 214.779H115.982" stroke="#FB675E" stroke-linecap="round" stroke-linejoin="round"/>
<path d="M155.284 227.163H115.982" stroke="#FB675E" stroke-linecap="round" stroke-linejoin="round"/>
<path d="M155.284 239.548H115.982" stroke="#FB675E" stroke-linecap="round" stroke-linejoin="round"/>
<path d="M155.284 251.932H115.982" stroke="#FB675E" stroke-linecap="round" stroke-linejoin="round"/>
<path d="M155.284 264.31H115.982" stroke="#FB675E" stroke-linecap="round" stroke-linejoin="round"/>
<path d="M275.328 273.471H251.554H248.788H1" stroke="#263238" stroke-linecap="round" stroke-linejoin="round"/>
<path d="M91.3255 272.701C90.974 272.867 88.4201 272.96 85.1631 273.013C78.5298 273.126 68.9845 273.073 68.9845 273.073C68.9845 273.073 68.4671 273.073 68.2681 270.486C68.0691 267.899 69.3427 265.842 69.4886 264.761C70.1519 259.799 68.4604 257.73 68.4339 257.365C68.4074 257 77.7206 256.794 77.7206 256.794L80.7719 256.589L80.1086 260.954C80.067 261.201 80.0449 261.452 80.0422 261.703C79.9792 263.247 80.4629 264.763 81.4082 265.985C82.3534 267.207 83.6996 268.056 85.2096 268.383H85.3489C85.5678 268.177 89.3289 266.439 90.8678 268.841C91.7102 270.147 91.3255 272.701 91.3255 272.701Z" fill="#263238"/>
<path opacity="0.2" d="M91.3259 272.701C90.9744 272.867 88.4205 272.96 85.1636 273.013C78.5302 273.126 68.9849 273.073 68.9849 273.073C68.9849 273.073 68.4675 273.073 68.2685 270.486C68.0695 267.899 69.3431 265.842 69.489 264.761C70.1524 259.799 68.4609 257.73 68.4343 257.365C68.4078 257 77.721 256.794 77.721 256.794L80.7723 256.589L80.109 260.954C80.0675 261.201 80.0453 261.452 80.0427 261.703C79.9796 263.247 80.4633 264.763 81.4086 265.985C82.3539 267.207 83.7001 268.056 85.21 268.383H85.3493C85.5682 268.177 89.3293 266.439 90.8682 268.841C91.7107 270.147 91.3259 272.701 91.3259 272.701Z" fill="white"/>
<path opacity="0.3" d="M85.1635 273.026C78.5302 273.139 68.9848 273.086 68.9848 273.086C68.9848 273.086 68.4674 273.086 68.2684 270.499C68.0694 267.912 69.343 265.856 69.489 264.774C70.1523 259.813 68.4608 257.743 68.4343 257.378C68.4077 257.013 77.7209 256.808 77.7209 256.808L80.7723 256.602L80.1089 260.967C80.0674 261.215 80.0452 261.465 80.0426 261.716C77.9398 263.454 76.2682 264.854 76.2682 264.854C76.2682 264.854 84.792 267.666 85.1635 273.026Z" fill="black"/>
<path d="M91.3255 272.701C90.974 272.867 88.4201 272.96 85.1631 273.013C78.5298 273.126 68.9845 273.073 68.9845 273.073C68.9845 273.073 68.4671 273.073 68.2681 270.486C68.0691 267.899 69.3427 265.842 69.4886 264.761C70.1519 259.799 68.4604 257.73 68.4339 257.365C68.4074 257 77.7206 256.794 77.7206 256.794L80.7719 256.589L80.1086 260.954C80.067 261.201 80.0449 261.452 80.0422 261.703C79.9792 263.247 80.4629 264.763 81.4082 265.985C82.3534 267.207 83.6996 268.056 85.2096 268.383H85.3489C85.5678 268.177 89.3289 266.439 90.8678 268.841C91.7102 270.147 91.3255 272.701 91.3255 272.701Z" stroke="#263238" stroke-linecap="round" stroke-linejoin="round"/>
<path d="M82.7887 250.884C83.1005 252.549 83.8766 253.02 83.3724 253.803C83.2995 253.922 83.2265 254.061 83.1535 254.207C82.7622 255.017 82.3443 256.158 80.8053 256.589C78.9944 257.1 70.3247 257.57 68.4541 257.338C66.5835 257.106 65.5221 255.348 65.416 253.862C65.3099 252.377 66.1191 251.448 65.9931 249.783C65.8671 248.118 64.5669 247.634 64.4807 246.526C64.3945 245.418 65.4691 243.806 65.4558 242.699C65.4558 240.364 65.4956 242.911 65.9599 229.638C66.2186 222.069 68.0494 220.424 65.9599 211.84C65.2037 208.743 57.0845 152.658 57.0845 152.658L82.1254 154.157C82.1254 154.157 82.5234 163.709 82.9744 174.992C83.5449 189.347 84.2016 206.5 84.2215 210.361C84.2613 218.202 83.5582 229.186 82.9678 238.937C82.7224 243.097 82.3045 245.962 82.9678 247.561C83.0465 247.728 83.0937 247.907 83.1071 248.091C83.2199 249.146 82.4703 249.219 82.7887 250.884Z" fill="#FB675E"/>
<path opacity="0.3" d="M83.1535 254.207C82.7622 255.017 82.3443 256.158 80.8053 256.589C78.9944 257.1 70.3247 257.57 68.4541 257.338C66.5835 257.106 65.5221 255.348 65.416 253.862C65.3099 252.377 66.1191 251.448 65.9931 249.783C65.8671 248.118 64.5669 247.634 64.4807 246.526C64.3945 245.418 65.4691 243.806 65.4558 242.699C65.4558 240.364 65.4956 242.911 65.9599 229.638C66.2186 222.069 68.0494 220.424 65.9599 211.84C65.2037 208.743 57.0845 152.658 57.0845 152.658L82.1254 154.157C82.1254 154.157 82.5234 163.709 82.9744 174.992C79.9563 187.542 76.4539 201.353 75.1405 203.675L77.2101 207.29C77.2101 207.29 72.2616 218.772 72.2616 220.158C72.2616 221.545 73.9332 234.513 74.5103 237.206C75.0874 239.899 72.2616 237.982 72.2616 240.251C72.2616 242.34 72.0361 252.509 83.1535 254.207Z" fill="black"/>
<path d="M82.7887 250.884C83.1005 252.549 83.8766 253.02 83.3724 253.803C83.2995 253.922 83.2265 254.061 83.1535 254.207C82.7622 255.017 82.3443 256.158 80.8053 256.589C78.9944 257.1 70.3247 257.57 68.4541 257.338C66.5835 257.106 65.5221 255.348 65.416 253.862C65.3099 252.377 66.1191 251.448 65.9931 249.783C65.8671 248.118 64.5669 247.634 64.4807 246.526C64.3945 245.418 65.4691 243.806 65.4558 242.699C65.4558 240.364 65.4956 242.911 65.9599 229.638C66.2186 222.069 68.0494 220.424 65.9599 211.84C65.2037 208.743 57.0845 152.658 57.0845 152.658L82.1254 154.157C82.1254 154.157 82.5234 163.709 82.9744 174.992C83.5449 189.347 84.2016 206.5 84.2215 210.361C84.2613 218.202 83.5582 229.186 82.9678 238.937C82.7224 243.097 82.3045 245.962 82.9678 247.561C83.0465 247.728 83.0937 247.907 83.1071 248.091C83.2199 249.146 82.4703 249.219 82.7887 250.884Z" stroke="#263238" stroke-linecap="round" stroke-linejoin="round"/>
<path d="M80.8716 172.286C80.8716 172.286 77.8004 174.939 75.1802 174.462" stroke="#263238" stroke-linecap="round" stroke-linejoin="round"/>
<path d="M80.5664 177.301C80.5664 177.301 75.3924 176.054 74.802 175.006" stroke="#263238" stroke-linecap="round" stroke-linejoin="round"/>
<path d="M73.9332 200.935C73.9332 200.935 76.7258 208.232 79.8302 209.996" stroke="#263238" stroke-linecap="round" stroke-linejoin="round"/>
<path d="M79.9695 249.365C79.9695 249.365 73.7673 251.282 70.6828 249.883C67.5983 248.483 73.1172 253.087 78.9148 252.682" stroke="#263238" stroke-linecap="round" stroke-linejoin="round"/>
<path d="M71.1868 216.285C71.1868 216.285 71.2399 235.687 76.3011 239.548" stroke="#263238" stroke-linecap="round" stroke-linejoin="round"/>
<path d="M76.3873 259.793C77.584 259.316 78.8542 259.049 80.1417 259.003" stroke="#263238" stroke-linecap="round" stroke-linejoin="round"/>
<path d="M76.5 262.307C76.5 262.307 78.2976 261.644 79.5978 261.378" stroke="#263238" stroke-linecap="round" stroke-linejoin="round"/>
<path d="M76.8386 264.715L79.7373 263.846" stroke="#263238" stroke-linecap="round" stroke-linejoin="round"/>
<path d="M78.2512 266.685L80.6326 265.75" stroke="#263238" stroke-linecap="round" stroke-linejoin="round"/>
<path d="M80.9513 268.376L82.3377 267.308" stroke="#263238" stroke-linecap="round" stroke-linejoin="round"/>
<path d="M76.9843 257.398C76.9843 257.398 76.7522 264.032 78.8483 266.214C80.9444 268.396 83.1666 268.443 82.9742 269.278" stroke="#263238" stroke-linecap="round" stroke-linejoin="round"/>
<path d="M57.8605 256.622C57.8605 256.622 48.481 256.814 48.4478 257.186C48.4146 257.557 49.7745 259.62 48.2289 264.575C47.8972 265.657 46.2389 267.706 46.0266 270.287C45.8144 272.867 46.2986 272.867 46.2986 272.867C46.2986 272.867 67.5253 272.986 68.6994 272.502C68.6994 272.502 69.5219 269.955 68.9183 268.688C67.7243 266.174 63.3396 268.204 63.4789 268.23H63.3396C60.0694 267.507 58.4243 264.25 59.5387 260.801L60.9516 256.443L57.8605 256.622Z" fill="#263238"/>
<path opacity="0.25" d="M57.8605 256.622C57.8605 256.622 48.481 256.814 48.4478 257.186C48.4146 257.557 49.7745 259.62 48.2289 264.575C47.8972 265.657 46.2389 267.706 46.0266 270.287C45.8144 272.867 46.2986 272.867 46.2986 272.867C46.2986 272.867 67.5253 272.986 68.6994 272.502C68.6994 272.502 69.5219 269.955 68.9183 268.688C67.7243 266.174 63.3396 268.204 63.4789 268.23H63.3396C60.0694 267.507 58.4243 264.25 59.5387 260.801L60.9516 256.443L57.8605 256.622Z" fill="white"/>
<path d="M57.8605 256.622C57.8605 256.622 48.481 256.814 48.4478 257.186C48.4146 257.557 49.7745 259.62 48.2289 264.575C47.8972 265.657 46.2389 267.706 46.0266 270.287C45.8144 272.867 46.2986 272.867 46.2986 272.867C46.2986 272.867 67.5253 272.986 68.6994 272.502C68.6994 272.502 69.5219 269.955 68.9183 268.688C67.7243 266.174 63.3396 268.204 63.4789 268.23H63.3396C60.0694 267.507 58.4243 264.25 59.5387 260.801L60.9516 256.443L57.8605 256.622Z" stroke="#263238" stroke-linecap="round" stroke-linejoin="round"/>
<path d="M79.9031 154.157L55.121 152.658C55.121 152.658 53.602 208.65 53.7943 211.741C54.4112 220.311 52.3018 221.949 50.7364 229.511C47.9902 242.778 48.3617 240.218 47.9902 242.546C47.8111 243.654 46.4579 245.266 46.3518 246.373C46.2456 247.481 47.4662 247.965 47.307 249.624C47.1478 251.282 46.166 252.224 46.0267 253.697C45.8874 255.169 46.637 256.934 48.4678 257.166C50.2986 257.398 59.0811 256.927 60.9517 256.416C62.8223 255.905 63.3596 254.426 63.9964 253.637C64.6332 252.848 63.9433 252.383 63.9102 250.718C63.877 249.053 64.6266 249.007 64.7261 247.919C64.7442 247.741 64.7285 247.561 64.6796 247.388C64.275 245.803 65.1904 242.944 66.1456 238.765C68.4009 229.034 71.0078 218.062 72.308 210.242C72.9713 206.341 75.2996 188.869 77.21 174.422C77.21 174.422 79.0408 171.47 79.9695 165.752" fill="#FB675E"/>
<path opacity="0.3" d="M55.0414 154.601L54.8225 162.966C59.0167 163.306 63.2316 163.306 67.4258 162.966C75.6114 162.236 80.593 158.608 80.593 158.608L79.9297 154.157C79.9297 154.157 70.643 156.658 66.0726 156.306C61.5023 155.955 57.1243 155.404 55.0414 154.601Z" fill="black"/>
<path d="M79.9031 154.157L55.121 152.658C55.121 152.658 53.602 208.65 53.7943 211.741C54.4112 220.311 52.3018 221.949 50.7364 229.511C47.9902 242.778 48.3617 240.218 47.9902 242.546C47.8111 243.654 46.4579 245.266 46.3518 246.373C46.2456 247.481 47.4662 247.965 47.307 249.624C47.1478 251.282 46.166 252.224 46.0267 253.697C45.8874 255.169 46.637 256.934 48.4678 257.166C50.2986 257.398 59.0811 256.927 60.9517 256.416C62.8223 255.905 63.3596 254.426 63.9964 253.637C64.6332 252.848 63.9433 252.383 63.9102 250.718C63.877 249.053 64.6266 249.007 64.7261 247.919C64.7442 247.741 64.7285 247.561 64.6796 247.388C64.275 245.803 65.1904 242.944 66.1456 238.765C68.4009 229.034 71.0078 218.062 72.308 210.242C72.9713 206.341 75.2996 188.869 77.21 174.422C77.21 174.422 79.0408 171.47 79.9695 165.752" stroke="#263238" stroke-linecap="round" stroke-linejoin="round"/>
<path d="M67.6579 221.877C67.6579 221.877 59.0876 236.47 50.6301 241.239" stroke="#263238" stroke-linecap="round" stroke-linejoin="round"/>
<path d="M50.4843 249.365L59.6847 250.526C60.3481 250.612 61.2038 250.878 61.1374 251.581C61.0711 252.284 60.3613 252.602 59.7511 252.821C57.7026 253.585 55.4757 253.735 53.3433 253.252" stroke="#263238" stroke-linecap="round" stroke-linejoin="round"/>
<path d="M50.756 244.941C54.0611 246.836 57.7923 247.863 61.6015 247.926" stroke="#263238" stroke-linecap="round" stroke-linejoin="round"/>
<path d="M56.5274 218.381C56.5274 218.381 61.1707 218.56 63.5587 218.348C61.7876 220.775 58.9154 221.83 56.1426 221.969" stroke="#263238" stroke-linecap="round" stroke-linejoin="round"/>
<path d="M60.0033 159.596C60.0033 159.596 59.3399 183.436 59.1011 193.353C58.8623 203.27 58.4378 214.832 58.4378 214.832C58.2126 215.186 58.0598 215.581 57.9881 215.994C57.9163 216.407 57.9272 216.831 58.0199 217.24L58.3914 218.46L58.1923 221.903C57.9258 222.216 57.7322 222.584 57.6255 222.981C57.5188 223.378 57.5017 223.794 57.5754 224.198C57.8938 225.452 55.3201 234.188 55.3201 234.188L54.8757 234.765C54.4211 235.309 54.117 235.963 53.9936 236.661C53.8703 237.36 53.932 238.078 54.1726 238.745L53.2505 246.228C52.7548 246.633 52.4227 247.205 52.3154 247.836C52.2081 248.468 52.3329 249.117 52.6668 249.664V249.664L51.8045 253.564C51.3669 253.935 51.0745 254.448 50.9786 255.014C50.8827 255.579 50.9896 256.161 51.2804 256.655L51.4264 256.874" stroke="#263238" stroke-linecap="round" stroke-linejoin="round"/>
<path d="M102.927 115.631C102.264 117.083 96.6126 120.937 96.6126 120.937C96.6075 120.301 96.7434 119.671 97.0106 119.093C97.4152 118.47 97.6739 117.873 97.9326 117.501C97.9993 116.494 97.6683 115.501 97.0106 114.735C96.2411 113.879 95.6375 116.015 95.2992 117.435C94.9609 118.854 92.7453 121.017 92.8448 122.078C93.0372 123.299 93.2826 124.499 93.5944 125.693C93.5944 125.693 84.1419 129.01 83.1005 127.02C80.8953 122.745 78.4595 118.593 75.8038 114.582C73.5816 117.687 75.3328 121.972 76.5865 127.239C77.8402 132.506 81.7008 139.882 81.7008 139.882C88.6128 136.565 96.4666 127.942 96.4666 127.942C96.4666 127.942 98.3107 127.119 100.593 126.337C102.874 125.554 102.543 124.884 102.908 122.642C103.272 120.4 105.189 117.335 105.077 116.181C104.964 115.027 103.604 114.184 102.927 115.631Z" fill="white" stroke="#263238" stroke-linecap="round" stroke-linejoin="round"/>
<path d="M80.5663 126.834C80.48 131.637 81.4286 147.922 82.4568 154.382L54.3248 153.673V153.202C56.3878 145.56 55.0478 137.282 51.7909 130.098C50.0662 126.284 49.2967 121.408 48.4079 116.791C46.1459 105.037 51.824 101.395 56.5669 100.944C58.3977 100.858 58.5569 99.6177 59.8835 99.7172C60.7992 99.8283 61.7282 99.7145 62.5899 99.3855C63.1803 101.793 66.4505 108.865 67.5716 109.674C68.1161 110.104 68.7771 110.36 69.469 110.41C70.1609 110.459 70.8518 110.3 71.4521 109.952C72.5797 109.163 72.8915 107.657 73.1502 106.304C73.2667 105.571 73.4762 104.855 73.7737 104.175C75.4321 105.004 78.3242 105.986 80.4734 109.853C83.1267 118.39 81.6674 112.917 83.7105 125.441C84.062 127.358 80.5663 126.834 80.5663 126.834Z" fill="white" stroke="#263238" stroke-linecap="round" stroke-linejoin="round"/>
<path d="M76.1419 104.613L73.4222 103.664C75.2663 109.999 73.6677 117.196 69.0044 114.35C64.3412 111.505 62.4905 103.326 61.0975 99.7571C60.3678 99.5316 57.4027 99.4255 55.8638 100.606C57.4691 103.545 61.8338 109.382 61.323 114.125C60.7393 119.432 56.5669 124.141 48.7728 118.808C49.8341 126.848 53.2038 132.645 53.8539 135.391C56.2286 145.341 54.6433 146.701 53.5355 156.519C64.8122 162.27 78.4569 159.411 84.4336 157.659C82.6094 147.656 83.412 122.45 76.1419 104.613Z" fill="#FB675E"/>
<path opacity="0.3" d="M58.9555 146.84C58.9555 146.84 77.3497 154.867 79.9699 147.073C75.1417 148.121 70.1684 148.325 65.2704 147.676L58.9555 146.84Z" fill="black"/>
<path opacity="0.3" d="M52.4346 129.474L65.8007 118.861C65.8007 118.861 68.4541 126.158 61.3431 130.343C56.534 133.176 52.4346 129.474 52.4346 129.474Z" fill="black"/>
<path d="M76.1419 104.613L73.4222 103.664C75.2663 109.999 73.6677 117.196 69.0044 114.35C64.3412 111.505 62.4905 103.326 61.0975 99.7571C60.3678 99.5316 57.4027 99.4255 55.8638 100.606C57.4691 103.545 61.8338 109.382 61.323 114.125C60.7393 119.432 56.5669 124.141 48.7728 118.808C49.8341 126.848 53.2038 132.645 53.8539 135.391C56.2286 145.341 54.6433 146.701 53.5355 156.519C64.8122 162.27 78.4569 159.411 84.4336 157.659C82.6094 147.656 83.412 122.45 76.1419 104.613Z" stroke="#263238" stroke-linecap="round" stroke-linejoin="round"/>
<path d="M79.9694 146.814C79.8545 147.313 79.6268 147.78 79.3037 148.178C78.9806 148.576 78.5707 148.894 78.1054 149.109" stroke="#263238" stroke-linecap="round" stroke-linejoin="round"/>
<path d="M75.1404 149.825C69.5457 150.335 63.9234 149.211 58.9551 146.588" stroke="#263238" stroke-linecap="round" stroke-linejoin="round"/>
<path d="M100.918 104.871L95.1598 120.228C95.0577 120.501 95.0196 120.795 95.0483 121.086C95.077 121.377 95.1719 121.657 95.3257 121.906L96.3936 123.617C96.9177 124.46 98.7684 124.712 99.5644 124.168C99.8553 123.972 100.085 123.699 100.228 123.378L105.906 108.036C106.053 107.685 106.092 107.298 106.019 106.925C105.946 106.552 105.763 106.209 105.495 105.939L103.704 104.208C103.541 104.046 103.347 103.919 103.134 103.835C102.92 103.751 102.692 103.713 102.463 103.721C102.234 103.73 102.009 103.786 101.802 103.886C101.596 103.986 101.412 104.127 101.262 104.301C101.114 104.468 100.997 104.662 100.918 104.871Z" fill="#263238"/>
<path d="M48.7595 109.004C48.8969 111.296 49.4498 113.543 50.3913 115.637C53.1574 122.218 63.7177 138.595 66.0327 139.703C68.3477 140.811 92.0088 128.075 93.7202 126.33C94.2068 125.787 94.5346 125.12 94.668 124.403C94.8014 123.686 94.7351 122.946 94.4764 122.264C94.4764 122.264 94.4433 123.896 95.8363 123.591C96.7119 123.398 95.9888 120.692 95.9888 120.692C95.9888 120.692 97.5941 119.558 96.0618 117.461C96.0618 117.461 98.2243 117.461 98.0518 115.83C97.9921 115.166 91.6241 115.08 90.649 116.917C89.4616 119.146 88.2809 124.957 88.2809 124.957C88.2809 124.957 72.865 128.937 69.6678 129.527L61.3297 111.239" fill="white"/>
<path d="M48.7595 109.004C48.8969 111.296 49.4498 113.543 50.3913 115.637C53.1574 122.218 63.7177 138.595 66.0327 139.703C68.3477 140.811 92.0088 128.075 93.7202 126.33C94.2068 125.787 94.5346 125.12 94.668 124.403C94.8014 123.686 94.7351 122.946 94.4764 122.264C94.4764 122.264 94.4433 123.896 95.8363 123.591C96.7119 123.398 95.9888 120.692 95.9888 120.692C95.9888 120.692 97.5941 119.558 96.0618 117.461C96.0618 117.461 98.2243 117.461 98.0518 115.83C97.9921 115.166 91.6241 115.08 90.649 116.917C89.4616 119.146 88.2809 124.957 88.2809 124.957C88.2809 124.957 72.865 128.937 69.6678 129.527L61.3297 111.239" stroke="#263238" stroke-linecap="round" stroke-linejoin="round"/>
<path d="M93.9656 127.319C94.4461 126.108 95.2748 125.067 96.3469 124.327C97.594 123.737 99.312 123.551 100.672 123.292C100.672 123.292 101.733 118.795 102.31 118.921C104.068 119.286 102.695 123.418 102.695 123.418" fill="white"/>
<path d="M93.9656 127.319C94.4461 126.108 95.2748 125.067 96.3469 124.327C97.594 123.737 99.312 123.551 100.672 123.292C100.672 123.292 101.733 118.795 102.31 118.921C104.068 119.286 102.695 123.418 102.695 123.418" stroke="#263238" stroke-linecap="round" stroke-linejoin="round"/>
<path d="M104.811 117.302C104.584 117.075 104.28 116.942 103.96 116.928C103.639 116.915 103.325 117.022 103.08 117.229C102.224 118.005 100.924 120.201 99.5376 121.375" stroke="#263238" stroke-linecap="round" stroke-linejoin="round"/>
<path d="M92.5063 122.025C92.8844 121.189 95.5709 119.776 96.1016 121.587" stroke="#263238" stroke-linecap="round" stroke-linejoin="round"/>
<path d="M92.5063 119.796C92.5063 119.796 95.6173 118.098 96.2409 120.201" stroke="#263238" stroke-linecap="round" stroke-linejoin="round"/>
<path d="M92.8977 117.806C92.8977 117.806 94.1912 117.554 94.4764 117.528C95.5046 117.428 96.6256 117.296 97.1828 117.296" stroke="#263238" stroke-linecap="round" stroke-linejoin="round"/>
<path d="M77.21 174.462C77.21 174.462 73.0641 170.807 70.6562 170.11L77.21 174.462Z" fill="#FB675E"/>
<path d="M77.21 174.462C77.21 174.462 73.0641 170.807 70.6562 170.11" stroke="#263238" stroke-linecap="round" stroke-linejoin="round"/>
<path d="M56.2752 259.832C57.4973 259.353 58.791 259.082 60.1026 259.03" stroke="#263238" stroke-linecap="round" stroke-linejoin="round"/>
<path d="M56.1823 262.413C56.1823 262.413 58.033 261.75 59.353 261.464" stroke="#263238" stroke-linecap="round" stroke-linejoin="round"/>
<path d="M56.3083 264.834L59.28 263.958" stroke="#263238" stroke-linecap="round" stroke-linejoin="round"/>
<path d="M57.5487 266.837L60.0163 265.889" stroke="#263238" stroke-linecap="round" stroke-linejoin="round"/>
<path d="M60.1027 268.555L61.5819 267.474" stroke="#263238" stroke-linecap="round" stroke-linejoin="round"/>
<path d="M57.0843 257.398C57.0843 257.398 56.2751 264.164 58.1921 266.36C60.1091 268.555 62.3114 268.622 62.0527 269.477" stroke="#263238" stroke-linecap="round" stroke-linejoin="round"/>
<path d="M73.1634 103.392C73.1634 103.392 75.9627 114.304 71.4719 115.133C65.3494 116.261 61.0974 99.7372 61.0974 99.7372C62.0327 99.6775 62.1455 99.2861 62.9614 98.8218C62.9614 98.8218 69.8003 112.5 73.1634 103.392Z" fill="#263238"/>
<path d="M54.5439 101.322C54.5439 101.322 48.1428 102.589 48.1229 112.108C48.103 121.627 52.3218 129.554 52.3218 129.554C52.3218 129.554 57.3167 129.149 60.4741 126.834C67.1075 121.992 66.0329 119.272 66.0329 119.272L62.557 112.387C62.557 112.387 61.4161 107.976 56.4543 100.944L54.5439 101.322Z" fill="#263238"/>
<path d="M76.5334 104.991C80.0225 114.894 80.1817 118.602 80.8119 123.173C80.8119 123.173 84.228 122.509 84.7521 121.753C84.7521 121.753 83.0938 113.647 81.3028 109.455C80.1618 106.795 78.6627 105.866 76.5334 104.991Z" fill="#263238"/>
<path d="M73.1569 93.7473C73.1569 93.7473 72.6594 102.822 72.6926 103.551C72.7523 104.924 73.7473 106.749 72.8319 107.777C72.3271 108.252 71.6912 108.566 71.0064 108.676C70.3216 108.786 69.6195 108.687 68.9912 108.394C67.7468 107.775 66.6704 106.865 65.8536 105.74C64.2804 103.813 62.9151 101.726 61.7808 99.5117C62.5398 98.7814 63.0973 97.8674 63.3993 96.8584C63.3993 96.8584 63.5784 96.0889 63.585 96.0491C63.8162 94.1795 63.7916 92.2871 63.5121 90.424C63.1947 88.1188 62.6594 85.8489 61.9134 83.6448L73.1569 93.7473Z" fill="white" stroke="#263238" stroke-linecap="round" stroke-linejoin="round"/>
<path d="M63.7244 102.41C65.2945 102.923 66.817 103.571 68.2749 104.347L63.7244 102.41Z" fill="#263238"/>
<path d="M63.7244 102.41C65.2945 102.923 66.817 103.571 68.2749 104.347" stroke="#263238" stroke-linecap="round" stroke-linejoin="round"/>
<path d="M62.338 71.7977C62.338 71.7977 56.6864 75.0281 59.6117 83.459C62.537 91.89 69.0575 101.309 74.9678 100.042C80.8781 98.7754 82.4104 87.0344 79.2861 79.2071C76.1618 71.3798 68.2018 67.0482 62.338 71.7977Z" fill="white" stroke="#263238" stroke-linecap="round" stroke-linejoin="round"/>
<path d="M79.1933 87.3592C79.2331 88.0226 78.9612 88.6328 78.5897 88.6859C78.2183 88.739 77.88 88.1552 77.8402 87.4654C77.8004 86.7755 78.0591 86.1984 78.4438 86.1719C78.8285 86.1453 79.1535 86.6627 79.1933 87.3592Z" fill="#263238"/>
<path d="M73.4288 87.0873C73.4686 87.7506 73.2033 88.3542 72.8385 88.3808C72.4736 88.4073 72.1221 87.8501 72.0823 87.1669C72.0425 86.4836 72.3078 85.8933 72.6859 85.8402C73.064 85.7871 73.3824 86.3841 73.4288 87.0873Z" fill="#263238"/>
<path d="M75.5981 73.2503C71.8105 69.5622 66.6564 68.4213 62.5304 71.7578C62.5304 71.7578 56.8855 74.9883 59.8108 83.4259C60.5197 85.4372 61.3778 87.3929 62.3779 89.2765L62.484 89.3693C62.484 89.3693 60.6267 87.5186 67.9963 83.4458C70.4175 82.0793 73.9928 73.5555 75.5981 73.2503Z" fill="#263238" stroke="#263238" stroke-linecap="round" stroke-linejoin="round"/>
<path d="M69.6813 76.0165C69.6813 76.0165 70.1987 70.146 74.2848 69.947C76.4141 69.8408 79.2266 72.6998 79.5915 74.2056C79.8203 75.2251 80.3401 76.1564 81.0878 76.8864C81.8354 77.6164 82.7789 78.1138 83.8036 78.3182C83.8036 78.3182 82.6229 82.2982 80.3211 82.5901C76.5202 83.0544 74.5501 82.1656 72.0958 78.8157C71.4104 77.8431 70.6378 76.935 69.7874 76.1027L69.6813 76.0165Z" fill="#263238" stroke="#263238" stroke-linecap="round" stroke-linejoin="round"/>
<path d="M63.5983 87.293C63.5983 87.293 61.3628 82.6895 59.3728 87.7573C58.1324 90.9148 63.0941 93.4421 64.7923 92.6063" fill="white"/>
<path d="M63.5983 87.293C63.5983 87.293 61.3628 82.6895 59.3728 87.7573C58.1324 90.9148 63.0941 93.4421 64.7923 92.6063" stroke="#263238" stroke-linecap="round" stroke-linejoin="round"/>
<path d="M76.9046 84.5002C76.5283 84.9165 76.2563 85.4163 76.111 85.9584C75.9657 86.5004 75.9512 87.0692 76.0689 87.6179C76.2405 88.8224 76.6486 89.9811 77.2695 91.0274L74.4304 91.9362" stroke="#263238" stroke-linecap="round" stroke-linejoin="round"/>
<path d="M71.9429 94.0127C72.3892 94.4581 72.9533 94.767 73.5689 94.9033C74.1845 95.0396 74.8262 94.9976 75.4188 94.7822" stroke="#263238" stroke-linecap="round" stroke-linejoin="round"/>
<path d="M68.7658 84.4208C68.7658 84.4208 70.7558 82.2185 73.1571 83.2798" stroke="#263238" stroke-linecap="round" stroke-linejoin="round"/>
<path d="M77.9993 83.8369C77.9993 83.8369 80.6062 83.021 80.2746 85.3228" stroke="#263238" stroke-linecap="round" stroke-linejoin="round"/>
<path d="M63.5518 89.8138C63.321 89.8215 63.0938 89.7556 62.903 89.6256C62.7122 89.4956 62.5677 89.3083 62.4904 89.0907C62.2981 88.6728 62.245 88.1952 62.0526 87.7641C61.9733 87.5466 61.8273 87.3597 61.6356 87.2298C61.4439 87.1 61.2161 87.034 60.9847 87.041" fill="#263238"/>
<path d="M63.5518 89.8138C63.321 89.8215 63.0938 89.7556 62.903 89.6256C62.7122 89.4956 62.5677 89.3083 62.4904 89.0907C62.2981 88.6728 62.245 88.1952 62.0526 87.7641C61.9733 87.5466 61.8273 87.3597 61.6356 87.2298C61.4439 87.1 61.2161 87.034 60.9847 87.041" stroke="#263238" stroke-linecap="round" stroke-linejoin="round"/>
<path d="M71.8236 71.6184C71.5419 70.4321 71.0953 69.2911 70.4969 68.2288C70.4969 68.2288 71.5781 67.9568 72.1751 67.8308C72.0425 68.9916 71.943 70.451 71.8236 71.6184Z" fill="#263238" stroke="#263238" stroke-linecap="round" stroke-linejoin="round"/>
<path d="M72.9579 99.7902L73.0043 101.78C72.5671 101.973 72.0839 102.038 71.6113 101.966C69.0641 101.667 66.497 95.9959 66.3378 95.6709L66.3909 95.7306C69.4024 99.0539 71.6379 99.7703 72.9579 99.7902Z" fill="#263238"/>
<path d="M159.013 118.881H175.775" stroke="#263238" stroke-linecap="round" stroke-linejoin="round"/>
<path d="M139.782 118.881H156.803" stroke="#263238" stroke-linecap="round" stroke-linejoin="round"/>
<path d="M130.715 118.881H135.949" stroke="#263238" stroke-linecap="round" stroke-linejoin="round"/>
<path d="M144.479 127.982H175.709" stroke="#263238" stroke-linecap="round" stroke-linejoin="round"/>
<path d="M135.948 127.982H139.782" stroke="#263238" stroke-linecap="round" stroke-linejoin="round"/>
<path d="M158.455 137.089H175.642" stroke="#263238" stroke-linecap="round" stroke-linejoin="round"/>
<path d="M141.182 137.089H155.915" stroke="#263238" stroke-linecap="round" stroke-linejoin="round"/>
<path d="M156.1 146.19H175.576" stroke="#263238" stroke-linecap="round" stroke-linejoin="round"/>
<path d="M146.416 146.19H153.335" stroke="#263238" stroke-linecap="round" stroke-linejoin="round"/>
<path d="M213.373 146.522H164.565L167.012 118.536H215.82L213.373 146.522Z" fill="white" stroke="#263238" stroke-linecap="round" stroke-linejoin="round"/>
<path d="M215.82 118.542H167.012" stroke="#263238" stroke-linecap="round" stroke-linejoin="round"/>
<path d="M213.373 146.522H164.565L181.247 130.682L189.725 137.905L199.648 130.542L213.373 146.522Z" fill="white" stroke="#263238" stroke-linecap="round" stroke-linejoin="round"/>
<path d="M215.82 118.536L199.648 130.542L189.725 137.905L181.247 130.682L167.012 118.536H215.82Z" fill="white" stroke="#263238" stroke-linecap="round" stroke-linejoin="round"/>
<path d="M126.045 118.881H113.793" stroke="#263238" stroke-linecap="round" stroke-linejoin="round"/>
<path d="M172.989 86.822C163.212 94.782 145.163 99.6442 145.163 99.6442L154.257 89.8999C149.821 88.4715 145.992 85.5947 143.386 81.7309C140.78 77.867 139.547 73.24 139.885 68.5916C140.222 63.9433 142.111 59.543 145.248 56.0964C148.386 52.6497 152.589 50.3564 157.185 49.5842C161.782 48.812 166.504 49.6056 170.595 51.8377C174.687 54.0699 177.91 57.6113 179.748 61.894C181.586 66.1768 181.933 70.9528 180.733 75.4562C179.532 79.9595 176.855 83.9294 173.129 86.7291" fill="white"/>
<path d="M172.989 86.822C163.212 94.782 145.163 99.6442 145.163 99.6442L154.257 89.8999C149.821 88.4715 145.992 85.5947 143.386 81.7309C140.78 77.867 139.547 73.24 139.885 68.5916C140.222 63.9433 142.111 59.543 145.248 56.0964C148.386 52.6497 152.589 50.3564 157.185 49.5842C161.782 48.812 166.504 49.6056 170.595 51.8377C174.687 54.0699 177.91 57.6113 179.748 61.894C181.586 66.1768 181.933 70.9528 180.733 75.4562C179.532 79.9595 176.855 83.9294 173.129 86.7291" stroke="#263238" stroke-linecap="round" stroke-linejoin="round"/>
<path d="M173.487 61.1377C176.868 61.1377 179.609 58.3965 179.609 55.0151C179.609 51.6337 176.868 48.8926 173.487 48.8926C170.105 48.8926 167.364 51.6337 167.364 55.0151C167.364 58.3965 170.105 61.1377 173.487 61.1377Z" fill="#FB675E" stroke="#263238" stroke-linecap="round" stroke-linejoin="round"/>
<path d="M169.938 53.6487L173.487 57.642L181.56 48.09L181.274 47.7915L173.487 54.4912L171.424 52.2425L169.938 53.6487Z" fill="#263238" stroke="#263238" stroke-linecap="round" stroke-linejoin="round"/>
<path d="M149.872 65.0647H172.737" stroke="#263238" stroke-linecap="round" stroke-linejoin="round"/>
<path d="M149.355 70.9683H172.22" stroke="#263238" stroke-linecap="round" stroke-linejoin="round"/>
<path d="M148.844 76.8721H171.702" stroke="#263238" stroke-linecap="round" stroke-linejoin="round"/>
<path d="M220.848 12.9665V23.4339L249.484 1.35815L220.848 12.9665Z" fill="#FB675E" stroke="#263238" stroke-linecap="round" stroke-linejoin="round"/>
<path d="M220.848 12.9665L250.141 1L210.142 5.14583L220.848 12.9665Z" fill="#FB675E" stroke="#263238" stroke-linecap="round" stroke-linejoin="round"/>
<path d="M224.291 15.1356L238.082 25.3377L250.141 1L224.291 15.1356Z" fill="#FB675E" stroke="#263238" stroke-linecap="round" stroke-linejoin="round"/>
<path d="M224.291 15.1355L220.848 23.4338L228.185 18.0144L224.291 15.1355Z" fill="#FB675E" stroke="#263238" stroke-linecap="round" stroke-linejoin="round"/>
<path d="M111.113 102.861C111.186 102.649 111.266 102.443 111.339 102.238" stroke="#263238" stroke-linecap="round" stroke-linejoin="round"/>
<path d="M112.208 99.7306C118.377 81.3098 117.269 70.2388 127.285 52.3951C129.275 48.7866 139.351 31.7124 153.666 25.623C161.109 22.4589 165.845 27.1818 163.928 30.525C159.649 37.9676 143.935 29.0458 159.649 20.2367C174.19 12.091 205.141 28.0176 219.648 23.4473" stroke="#263238" stroke-linecap="round" stroke-linejoin="round" stroke-dasharray="2 4"/>
<path d="M220.888 22.9895C221.094 22.9033 221.293 22.8104 221.492 22.7109" stroke="#263238" stroke-linecap="round" stroke-linejoin="round"/>
</svg>
