
<svg xmlns="http://www.w3.org/2000/svg" width="536" height="594" viewBox="0 0 536 594">
    <g fill="none" fill-rule="evenodd">
        <path fill="#070441" d="M0 594L536 594 536 0 0 0z"/>
        <g fill="#97B9D4" opacity=".25">
            <path d="M168.052 109.017h15.211V92.963h-15.211v16.054zm15.615.8h-16.014c-.22 0-.399-.179-.399-.4V92.563c0-.22.178-.405.399-.405h16.014c.22 0 .4.184.4.405v16.854c0 .221-.18.4-.4.4z" transform="translate(18 29)"/>
            <path d="M195.676 109.817h-12.01v-.805h11.61V92.963h-11.61v-.805h12.01c.22 0 .399.184.399.4v16.859c0 .221-.179.4-.4.4M167.655 109.817h-12.01c-.22 0-.404-.179-.404-.4V92.558c0-.216.184-.4.405-.4h12.009v.805h-11.61v16.049h11.61v.805zM170.057 106.207L181.269 106.207 181.269 98.983 170.057 98.983zM168.619 84.135h4.498l9.584-.016-4.781-4.788c-.079-.074-.121-.174-.121-.28v-3.745h-4.278v3.746c0 .105-.042.205-.12.279l-4.782 4.804zm4.498.805h-5.464c-.163 0-.31-.1-.367-.253-.063-.147-.032-.32.083-.436l5.35-5.367v-3.978c0-.221.183-.406.398-.406h5.086c.215 0 .4.185.4.406v3.978l5.348 5.35c.11.117.147.29.084.443-.063.147-.205.247-.368.247l-10.55.016zM170.052 96.578L181.263 96.578 181.263 95.773 170.052 95.773z" transform="translate(18 29)"/>
            <path d="M158.047 96.578L165.254 96.578 165.254 95.773 158.047 95.773zM186.066 96.578L193.273 96.578 193.273 95.773 186.066 95.773zM269.129 101.976h24.985c0 2.615-2.116 4.74-4.73 4.74h-15.526c-2.614 0-4.729-2.125-4.729-4.74" transform="translate(18 29)"/>
            <path d="M269.465 95.545v5.75c0 2.8 2.294 5.079 5.112 5.079h14.088c2.819 0 5.108-2.279 5.108-5.078v-5.751h-24.308zm19.2 11.507h-14.088c-3.191 0-5.79-2.578-5.79-5.756v-6.088c0-.19.153-.337.342-.337h24.98c.188 0 .34.147.34.337v6.088c0 3.178-2.592 5.756-5.784 5.756zM278.261 85.391h7.396c-.174-1.894-1.764-3.383-3.7-3.383-1.145 0-2.216.521-2.924 1.431-.447.569-.709 1.237-.772 1.952m7.747.68h-8.099c-.189 0-.336-.153-.336-.343 0-.99.32-1.926.93-2.704.834-1.08 2.099-1.695 3.453-1.695 2.425 0 4.394 1.973 4.394 4.4 0 .189-.153.341-.342.341" transform="translate(18 29)"/>
            <path d="M290.4 95.09h-.678V81.64c0-2.036-1.664-3.693-3.711-3.693-2.047 0-3.716 1.657-3.716 3.694h-.672c0-2.41 1.968-4.373 4.388-4.373s4.388 1.963 4.388 4.373V95.09zM279.594 91.822c-.184 0-.336-.153-.336-.337v-2.71c0-.184.152-.336.336-.336.189 0 .336.152.336.336v2.71c0 .184-.147.337-.336.337M281.62 91.822c-.188 0-.335-.153-.335-.337v-2.71c0-.184.147-.336.336-.336.184 0 .336.152.336.336v2.71c0 .184-.152.337-.336.337M284.32 91.822c-.184 0-.336-.153-.336-.337v-2.71c0-.184.152-.336.336-.336.189 0 .336.152.336.336v2.71c0 .184-.147.337-.336.337M77.51 90.46h4.566l-2.284-2.862-2.283 2.862zm5.437.837h-6.31c-.162 0-.304-.09-.377-.237-.068-.142-.047-.316.052-.442l3.155-3.952c.079-.1.2-.158.325-.158.126 0 .247.058.331.158l3.15 3.952c.1.126.12.3.052.442-.068.147-.215.237-.378.237zm-5.438 2.625l2.283 2.863 2.284-2.863h-4.567zm2.283 3.952c-.126 0-.246-.058-.325-.158l-3.155-3.951c-.1-.127-.12-.3-.052-.442.073-.148.215-.237.378-.237h6.309c.163 0 .31.09.378.237.068.142.047.315-.053.442l-3.149 3.951c-.084.1-.205.158-.33.158zm-22.218.574h14.214v-12.57H57.574v12.57zm14.634.836H57.159c-.23 0-.42-.19-.42-.415V85.456c0-.231.19-.42.42-.42h15.049c.23 0 .42.189.42.42V98.87c0 .226-.19.415-.42.415zm-19.647 3.357h34.28V81.69h-34.28v20.952zm34.695.837H52.141c-.23 0-.42-.19-.42-.421V81.262c0-.231.19-.415.42-.415h35.115c.231 0 .42.184.42.415v21.795c0 .232-.189.42-.42.42z" transform="translate(18 29)"/>
            <path d="M77.509 93.893L79.792 96.755 82.076 93.893zM77.509 90.43L82.076 90.43 79.792 87.567zM478.9 92.136L469.142 92.12 469.142 91.141 478.9 91.157zM498.416 92.169L488.659 92.153 488.659 91.174 498.416 91.19zM517.936 92.202L508.178 92.187 508.178 91.208 517.936 91.224zM489.159 85.304L479.402 85.288 479.402 84.31 489.159 84.325zM508.189 85.337L498.432 85.321 498.432 84.343 508.189 84.359zM489.136 99.001L479.379 98.985 479.379 98.006 489.136 98.022zM508.166 99.034L498.409 99.018 498.409 98.039 508.166 98.055z" transform="translate(18 29)"/>
            <path d="M479.851 107.302L478.874 107.302 478.927 76.972 479.903 76.978zM489.121 107.317L488.144 107.317 488.197 76.988 489.173 76.993zM498.88 107.333L497.904 107.333 497.957 77.004 498.933 77.009zM508.64 107.351L507.664 107.351 507.716 77.021 508.693 77.027zM389.733 97.276h17.768l-10.997-13.08h-17.652l10.881 13.08zm18.676.847h-18.875c-.121 0-.242-.057-.32-.157l-11.265-13.534-11.258 13.534-.646-.537 11.584-13.923c.079-.1.2-.152.32-.152h18.75c.125 0 .246.052.325.147l11.705 13.928c.105.12.131.3.058.447-.069.148-.216.247-.378.247zM408.694 100.971H389.34c-.231 0-.42-.19-.42-.42 0-.232.189-.422.42-.422h19.353c.23 0 .42.19.42.421 0 .232-.19.421-.42.421M121.215 23.166h17.767l-10.996-13.08h-17.652l10.881 13.08zm18.676.842h-18.87c-.126 0-.247-.052-.326-.152l-11.264-13.534-11.259 13.534-.645-.537L109.11 9.396c.079-.1.2-.152.32-.152h18.755c.12 0 .241.052.32.147l11.705 13.928c.105.121.13.3.057.447-.068.148-.215.242-.377.242zM140.176 26.86h-19.358c-.226 0-.415-.189-.415-.42 0-.232.189-.421.415-.421h19.358c.23 0 .42.19.42.42 0 .232-.19.422-.42.422M323.64 34.904h15.21V18.85h-15.21v16.054zm15.615.805H323.24c-.22 0-.399-.179-.399-.4V18.45c0-.22.179-.4.4-.4h16.014c.22 0 .399.18.399.4v16.86c0 .22-.179.4-.4.4z" transform="translate(18 29)"/>
            <path d="M351.264 35.71h-12.01v-.805h11.61V18.856h-11.61v-.805h12.01c.22 0 .398.179.398.4V35.31c0 .22-.178.4-.398.4M323.24 35.71h-12.01c-.22 0-.403-.18-.403-.4V18.45c0-.22.183-.4.404-.4h12.01v.806H311.63v16.049h11.61v.805zM325.644 32.1L336.856 32.1 336.856 24.875 325.644 24.875zM324.207 10.025h4.498l9.584-.011-4.787-4.788c-.073-.08-.115-.18-.115-.284V1.195h-4.278v3.747c0 .105-.047.205-.12.284l-4.782 4.799zm4.498.805h-5.464c-.163 0-.31-.1-.373-.253-.058-.147-.026-.321.09-.437l5.348-5.367V.795c0-.22.178-.4.399-.4h5.08c.221 0 .4.18.4.4v3.978l5.354 5.357c.115.11.147.284.084.431-.063.153-.205.253-.368.253l-10.55.016zM325.639 22.465L336.851 22.465 336.851 21.66 325.639 21.66z" transform="translate(18 29)"/>
            <path d="M313.635 22.465L320.842 22.465 320.842 21.66 313.635 21.66zM341.653 22.465L348.86 22.465 348.86 21.66 341.653 21.66zM220.467 17.725c.86 0 1.564.589 1.564 1.31 0 .72-.704 1.31-1.564 1.31-.861 0-1.565-.59-1.565-1.31 0-.721.704-1.31 1.565-1.31" transform="translate(18 29)"/>
            <path d="M206.789 30.82h17.19V5.28h-17.19v25.54zm17.583.659H206.4c-.215 0-.388-.148-.388-.332V4.954c0-.184.173-.327.388-.327h17.972c.216 0 .394.143.394.327v26.193c0 .184-.178.332-.394.332zM235.311 21.655L236.093 21.655 236.093 7.243 235.311 7.243zM227.427 21.655L228.209 21.655 228.209 7.243 227.427 7.243z" transform="translate(18 29)"/>
            <path d="M228.283 14.778L243.909 14.778 243.909 14.125 228.283 14.125z" transform="translate(18 29)"/>
            <path d="M243.908 21.653h-15.626v-.652h15.232V7.899h-15.232V7.24h15.626c.215 0 .388.147.388.331v13.755c0 .179-.173.326-.388.326M.478 27.865h24.98c0 2.615-2.116 4.741-4.725 4.741H5.207c-2.614 0-4.73-2.126-4.73-4.74" transform="translate(18 29)"/>
            <path d="M.816 21.435v5.756c0 2.794 2.294 5.073 5.113 5.073h14.088c2.818 0 5.107-2.279 5.107-5.073v-5.756H.816zm19.2 11.507H5.93c-3.192 0-5.79-2.578-5.79-5.75v-6.094c0-.19.152-.342.341-.342h24.98c.189 0 .34.153.34.342v6.093c0 3.173-2.592 5.751-5.783 5.751zM9.607 11.284h7.396C16.829 9.389 15.239 7.9 13.307 7.9c-1.149 0-2.22.521-2.928 1.432-.447.568-.709 1.236-.772 1.952m7.747.678H9.255c-.189 0-.336-.152-.336-.342 0-.989.32-1.925.93-2.704.84-1.079 2.099-1.694 3.458-1.694 2.42 0 4.389 1.973 4.389 4.398 0 .19-.153.342-.342.342" transform="translate(18 29)"/>
            <path d="M21.748 20.982h-.677V7.538c0-2.041-1.664-3.699-3.711-3.699-2.047 0-3.717 1.658-3.717 3.7h-.677c0-2.416 1.974-4.379 4.394-4.379s4.388 1.963 4.388 4.378v13.444zM10.945 17.714c-.189 0-.336-.152-.336-.337v-2.71c0-.184.147-.336.336-.336.184 0 .336.152.336.337v2.71c0 .184-.152.336-.336.336M12.97 17.714c-.184 0-.336-.152-.336-.337v-2.71c0-.184.152-.336.335-.336.184 0 .336.152.336.337v2.71c0 .184-.152.336-.336.336M15.671 17.714c-.189 0-.336-.152-.336-.337v-2.71c0-.184.147-.336.336-.336.184 0 .336.152.336.337v2.71c0 .184-.152.336-.336.336M445.149 16.35h4.566l-2.283-2.862-2.283 2.862zm5.438.837h-6.304c-.168 0-.31-.09-.384-.237-.063-.142-.047-.316.053-.442l3.155-3.951c.078-.1.199-.158.325-.158s.247.058.33.158l3.15 3.951c.1.126.12.3.052.442-.068.147-.215.237-.377.237zm-5.438 2.626l2.283 2.862 2.283-2.862h-4.566zm2.283 3.951c-.126 0-.247-.058-.325-.158l-3.155-3.951c-.1-.127-.116-.3-.053-.442.074-.148.216-.237.384-.237h6.304c.162 0 .31.09.377.237.069.142.048.315-.052.442l-3.15 3.951c-.083.1-.204.158-.33.158zm-22.213.574h14.214v-12.57h-14.214v12.57zm14.628.836H424.8c-.231 0-.42-.184-.42-.415V11.346c0-.231.189-.42.42-.42h15.048c.231 0 .42.189.42.42V24.76c0 .231-.189.415-.42.415zm-19.646 3.357h34.28V7.58h-34.28V28.53zm34.695.837H419.78c-.231 0-.42-.19-.42-.42V7.152c0-.232.189-.416.42-.416h35.115c.23 0 .42.184.42.416v21.794c0 .232-.19.421-.42.421z" transform="translate(18 29)"/>
            <path d="M445.149 19.783L447.432 22.645 449.715 19.783zM445.149 16.322L449.715 16.322 447.432 13.459zM168.052 257.233h15.211v-16.054h-15.211v16.054zm15.615.805h-16.014c-.22 0-.399-.18-.399-.406V240.78c0-.221.178-.4.399-.4h16.014c.22 0 .4.179.4.4v16.853c0 .227-.18.406-.4.406z" transform="translate(18 29)"/>
            <path d="M195.676 258.038h-12.01v-.805h11.61v-16.05h-11.61v-.804h12.01c.22 0 .399.179.399.4v16.859c0 .22-.179.4-.4.4M167.655 258.038h-12.01c-.22 0-.404-.18-.404-.4v-16.86c0-.22.184-.4.405-.4h12.009v.806h-11.61v16.049h11.61v.805zM170.057 254.423L181.269 254.423 181.269 247.198 170.057 247.198zM168.619 232.352h4.498l9.584-.015-4.781-4.789c-.079-.073-.121-.173-.121-.278v-3.747h-4.278v3.747c0 .105-.042.205-.12.278l-4.782 4.804zm4.498.806h-5.464c-.163 0-.31-.1-.367-.253-.063-.147-.032-.321.083-.437l5.35-5.367v-3.978c0-.226.183-.405.398-.405h5.086c.215 0 .4.179.4.405v3.978l5.348 5.351c.11.116.147.29.084.442-.063.148-.205.248-.368.248l-10.55.016zM170.052 244.794L181.263 244.794 181.263 243.988 170.052 243.988z" transform="translate(18 29)"/>
            <path d="M158.047 244.794L165.254 244.794 165.254 243.988 158.047 243.988zM186.066 244.794L193.273 244.794 193.273 243.988 186.066 243.988zM269.129 250.194h24.985c0 2.615-2.116 4.74-4.73 4.74h-15.526c-2.614 0-4.729-2.125-4.729-4.74" transform="translate(18 29)"/>
            <path d="M269.465 243.763v5.751c0 2.8 2.294 5.078 5.112 5.078h14.088c2.819 0 5.108-2.279 5.108-5.078v-5.751h-24.308zm19.2 11.507h-14.088c-3.191 0-5.79-2.583-5.79-5.756v-6.088c0-.19.153-.342.342-.342h24.98c.188 0 .34.153.34.342v6.088c0 3.173-2.592 5.756-5.784 5.756zM278.261 233.609h7.396c-.174-1.894-1.764-3.383-3.7-3.383-1.145 0-2.216.52-2.924 1.43-.447.57-.709 1.237-.772 1.953m7.747.679h-8.099c-.189 0-.336-.153-.336-.342 0-.99.32-1.926.93-2.705.834-1.079 2.099-1.694 3.453-1.694 2.425 0 4.394 1.973 4.394 4.399 0 .19-.153.342-.342.342" transform="translate(18 29)"/>
            <path d="M290.4 243.308h-.678v-13.444c0-2.041-1.664-3.699-3.711-3.699-2.047 0-3.716 1.658-3.716 3.7h-.672c0-2.416 1.968-4.379 4.388-4.379s4.388 1.963 4.388 4.378v13.444zM279.594 240.043c-.184 0-.336-.153-.336-.337v-2.71c0-.184.152-.337.336-.337.189 0 .336.153.336.337v2.71c0 .184-.147.337-.336.337M281.62 240.043c-.188 0-.335-.153-.335-.337v-2.71c0-.184.147-.337.336-.337.184 0 .336.153.336.337v2.71c0 .184-.152.337-.336.337M284.32 240.043c-.184 0-.336-.153-.336-.337v-2.71c0-.184.152-.337.336-.337.189 0 .336.153.336.337v2.71c0 .184-.147.337-.336.337M77.51 238.678h4.566l-2.284-2.862-2.283 2.862zm5.437.837h-6.31c-.162 0-.304-.09-.377-.237-.068-.147-.047-.316.052-.442l3.155-3.952c.079-.1.2-.157.325-.157.126 0 .247.057.331.157l3.15 3.952c.1.126.12.295.052.442-.068.147-.215.237-.378.237zm-5.438 2.626l2.283 2.862 2.284-2.862h-4.567zm2.283 3.946c-.126 0-.246-.053-.325-.153l-3.155-3.951c-.1-.127-.12-.3-.052-.442.073-.148.215-.237.378-.237h6.309c.163 0 .31.09.378.237.068.142.047.315-.053.442l-3.149 3.951c-.084.1-.205.153-.33.153zm-22.218.579h14.214v-12.57H57.574v12.57zm14.634.836H57.159c-.23 0-.42-.19-.42-.415v-13.413c0-.231.19-.42.42-.42h15.049c.23 0 .42.189.42.42v13.413c0 .226-.19.415-.42.415zM52.56 250.86h34.28v-20.952h-34.28v20.952zm34.695.837H52.141c-.23 0-.42-.19-.42-.42V229.48c0-.232.19-.416.42-.416h35.115c.231 0 .42.184.42.416v21.794c0 .232-.189.421-.42.421z" transform="translate(18 29)"/>
            <path d="M77.509 242.111L79.792 244.973 82.076 242.111zM77.509 238.647L82.076 238.647 79.792 235.785zM478.9 240.353L469.142 240.337 469.142 239.359 478.9 239.374zM498.416 240.387L488.659 240.371 488.659 239.392 498.416 239.408zM517.936 240.42L508.178 240.404 508.178 239.425 517.936 239.441zM489.159 233.524L479.402 233.508 479.402 232.53 489.159 232.546zM508.189 233.555L498.432 233.54 498.432 232.561 508.189 232.577zM489.136 247.218L479.379 247.202 479.379 246.224 489.136 246.24zM508.166 247.252L498.409 247.236 498.409 246.257 508.166 246.273z" transform="translate(18 29)"/>
            <path d="M479.851 255.52L478.874 255.52 478.927 225.191 479.903 225.196zM489.121 255.535L488.144 255.535 488.197 225.206 489.173 225.211zM498.88 255.55L497.904 255.55 497.957 225.221 498.933 225.226zM508.64 255.568L507.664 255.568 507.716 225.239 508.693 225.244zM389.733 245.494h17.768l-10.997-13.08h-17.652l10.881 13.08zm18.676.842h-18.875c-.121 0-.242-.052-.32-.152l-11.265-13.534-11.258 13.534-.646-.537 11.584-13.923c.079-.1.2-.152.32-.152h18.75c.125 0 .246.052.325.147l11.705 13.928c.105.121.131.3.058.447-.069.148-.216.242-.378.242zM408.694 249.189H389.34c-.231 0-.42-.19-.42-.421 0-.232.189-.421.42-.421h19.353c.23 0 .42.19.42.42 0 .232-.19.422-.42.422M122.05 171.387h17.768l-10.997-13.081H111.17l10.881 13.08zm18.676.842h-18.87c-.126 0-.247-.053-.326-.153l-11.264-13.533-11.258 13.533-.646-.537 11.584-13.923c.079-.1.2-.152.32-.152h18.755c.12 0 .241.052.32.147l11.705 13.923c.105.126.131.305.058.453-.069.147-.216.242-.378.242zM141.013 175.082h-19.358c-.225 0-.42-.19-.42-.421 0-.232.195-.421.42-.421h19.358c.231 0 .42.19.42.42 0 .232-.189.422-.42.422M324.479 183.125h15.211V167.07H324.48v16.054zm15.61.805h-16.014c-.22 0-.4-.179-.4-.405V166.67c0-.221.18-.4.4-.4h16.014c.22 0 .4.179.4.4v16.854c0 .226-.18.405-.4.405z" transform="translate(18 29)"/>
            <path d="M352.1 183.927h-12.01v-.805h11.61v-16.048h-11.61v-.805h12.01c.22 0 .398.184.398.4v16.858c0 .221-.178.4-.399.4M324.076 183.927h-12.01c-.22 0-.404-.179-.404-.4v-16.859c0-.215.184-.4.404-.4h12.01v.806h-11.61v16.048h11.61v.805zM326.479 180.315L337.69 180.315 337.69 173.09 326.479 173.09zM325.042 158.243h4.498l9.58-.01-4.782-4.794c-.074-.074-.116-.174-.116-.28v-3.746h-4.277v3.747c0 .105-.048.205-.121.279l-4.782 4.804zm4.498.805h-5.464c-.162 0-.31-.1-.372-.253-.058-.147-.027-.32.089-.437l5.349-5.367v-3.978c0-.22.178-.4.398-.4h5.081c.22 0 .4.18.4.4v3.978l5.348 5.357c.115.116.152.284.09.437-.064.147-.206.247-.368.247l-10.55.016zM326.479 170.686L337.69 170.686 337.69 169.881 326.479 169.881z" transform="translate(18 29)"/>
            <path d="M314.469 170.686L321.676 170.686 321.676 169.881 314.469 169.881zM342.488 170.686L349.695 170.686 349.695 169.881 342.488 169.881zM221.302 165.942c.861 0 1.564.59 1.564 1.31 0 .721-.703 1.31-1.564 1.31-.86 0-1.564-.589-1.564-1.31 0-.72.703-1.31 1.564-1.31" transform="translate(18 29)"/>
            <path d="M207.628 179.042h17.19V153.5h-17.19v25.54zm17.584.657h-17.977c-.215 0-.389-.147-.389-.331v-26.199c0-.179.174-.326.389-.326h17.977c.215 0 .389.147.389.326v26.199c0 .184-.174.331-.389.331zM236.151 169.875L236.933 169.875 236.933 155.469 236.151 155.469zM228.267 169.875L229.049 169.875 229.049 155.469 228.267 155.469z" transform="translate(18 29)"/>
            <path d="M229.112 162.993L244.743 162.993 244.743 162.341 229.112 162.341z" transform="translate(18 29)"/>
            <path d="M244.745 169.873h-15.63v-.652h15.237v-13.102h-15.238v-.653h15.631c.216 0 .389.143.389.327v13.754c0 .18-.173.326-.389.326M1.313 176.086h24.985c0 2.615-2.115 4.741-4.73 4.741H6.043c-2.613 0-4.729-2.126-4.729-4.741" transform="translate(18 29)"/>
            <path d="M1.652 169.655v5.751c0 2.8 2.294 5.078 5.112 5.078h14.088c2.819 0 5.107-2.278 5.107-5.078v-5.751H1.652zm19.2 11.508H6.764c-3.191 0-5.79-2.584-5.79-5.757v-6.088c0-.19.153-.336.342-.336h24.98c.188 0 .34.147.34.336v6.088c0 3.173-2.592 5.757-5.784 5.757zM10.445 159.501h7.395c-.173-1.894-1.763-3.383-3.695-3.383-1.15 0-2.22.52-2.929 1.426-.446.573-.708 1.242-.771 1.957m7.747.679h-8.099c-.189 0-.336-.153-.336-.342 0-.99.32-1.926.93-2.705.839-1.078 2.099-1.694 3.458-1.694 2.42 0 4.388 1.973 4.388 4.399 0 .19-.152.342-.34.342" transform="translate(18 29)"/>
            <path d="M22.583 169.2h-.677v-13.444c0-2.041-1.664-3.699-3.711-3.699-2.047 0-3.717 1.658-3.717 3.7h-.671c0-2.416 1.968-4.378 4.388-4.378s4.388 1.962 4.388 4.377V169.2zM11.78 165.932c-.189 0-.336-.152-.336-.336v-2.71c0-.184.147-.337.336-.337.184 0 .336.153.336.337v2.71c0 .184-.152.336-.336.336M13.805 165.932c-.189 0-.336-.152-.336-.336v-2.71c0-.184.147-.337.336-.337.184 0 .336.153.336.337v2.71c0 .184-.152.336-.336.336M16.506 165.932c-.189 0-.336-.152-.336-.336v-2.71c0-.184.147-.337.336-.337.184 0 .336.153.336.337v2.71c0 .184-.152.336-.336.336M445.984 164.568h4.567l-2.283-2.863-2.284 2.863zm5.438.837h-6.304c-.168 0-.31-.09-.383-.237-.068-.142-.047-.316.053-.442l3.154-3.952c.079-.1.2-.158.326-.158s.246.058.33.158l3.15 3.952c.1.126.12.3.052.442-.068.147-.215.237-.378.237zm-5.438 2.625l2.284 2.863 2.283-2.863h-4.567zm2.284 3.947c-.126 0-.247-.053-.326-.153l-3.154-3.952c-.1-.126-.121-.3-.053-.442.074-.147.215-.236.383-.236h6.304c.163 0 .31.089.378.236.068.142.047.316-.052.442l-3.15 3.952c-.084.1-.204.153-.33.153zm-22.219.578h14.214v-12.57h-14.214v12.57zm14.634.837h-15.049c-.23 0-.42-.19-.42-.416v-13.412c0-.232.19-.421.42-.421h15.049c.23 0 .42.19.42.42v13.413c0 .227-.19.416-.42.416zm-19.647 3.357h34.28v-20.953h-34.28v20.953zm34.695.837h-35.115c-.23 0-.42-.19-.42-.421V155.37c0-.231.19-.416.42-.416h35.115c.231 0 .42.185.42.416v21.795c0 .231-.189.42-.42.42z" transform="translate(18 29)"/>
            <path d="M445.984 168.001L448.268 170.863 450.551 168.001zM445.984 164.539L450.551 164.539 448.268 161.677zM168.052 405.453h15.211V389.4h-15.211v16.054zm15.615.805h-16.014c-.22 0-.399-.184-.399-.405V389c0-.221.178-.406.399-.406h16.014c.22 0 .4.185.4.406v16.853c0 .221-.18.405-.4.405z" transform="translate(18 29)"/>
            <path d="M195.676 406.255h-12.01v-.805h11.61v-16.048h-11.61v-.806h12.01c.22 0 .399.18.399.4v16.86c0 .22-.179.4-.4.4M167.655 406.255h-12.01c-.22 0-.404-.179-.404-.4v-16.859c0-.22.184-.4.405-.4h12.009v.806h-11.61v16.048h11.61v.805zM170.057 402.643L181.269 402.643 181.269 395.419 170.057 395.419zM168.619 380.57h4.498l9.584-.015-4.781-4.788c-.079-.074-.121-.174-.121-.28v-3.746h-4.278v3.747c0 .105-.042.205-.12.279l-4.782 4.804zm4.498.806h-5.464c-.163 0-.31-.1-.367-.253-.063-.147-.032-.32.083-.437l5.35-5.367v-3.978c0-.22.183-.405.398-.405h5.086c.215 0 .4.184.4.405v3.978l5.348 5.357c.11.11.147.284.084.431-.063.153-.205.253-.368.253l-10.55.016zM170.052 393.014L181.263 393.014 181.263 392.209 170.052 392.209z" transform="translate(18 29)"/>
            <path d="M158.047 393.014L165.254 393.014 165.254 392.209 158.047 392.209zM186.066 393.014L193.273 393.014 193.273 392.209 186.066 392.209zM269.129 398.411h24.985c0 2.62-2.116 4.741-4.73 4.741h-15.526c-2.614 0-4.729-2.12-4.729-4.74" transform="translate(18 29)"/>
            <path d="M269.465 391.98v5.757c0 2.794 2.294 5.073 5.112 5.073h14.088c2.819 0 5.108-2.279 5.108-5.073v-5.756h-24.308zm19.2 11.509h-14.088c-3.191 0-5.79-2.579-5.79-5.752v-6.093c0-.19.153-.342.342-.342h24.98c.188 0 .34.153.34.342v6.093c0 3.173-2.592 5.752-5.784 5.752zM278.261 381.83h7.396c-.174-1.895-1.764-3.384-3.7-3.384-1.145 0-2.216.521-2.924 1.432-.447.568-.709 1.241-.772 1.952m7.747.679h-8.099c-.189 0-.336-.153-.336-.343 0-.989.32-1.925.93-2.704.834-1.079 2.099-1.694 3.453-1.694 2.425 0 4.394 1.973 4.394 4.398 0 .19-.153.343-.342.343" transform="translate(18 29)"/>
            <path d="M290.4 391.528h-.678v-13.444c0-2.041-1.664-3.699-3.711-3.699-2.047 0-3.716 1.658-3.716 3.7h-.672c0-2.416 1.968-4.378 4.388-4.378s4.388 1.962 4.388 4.377v13.444zM279.594 388.26c-.184 0-.336-.152-.336-.337v-2.71c0-.184.152-.336.336-.336.189 0 .336.152.336.337v2.71c0 .184-.147.336-.336.336M281.62 388.26c-.188 0-.335-.152-.335-.337v-2.71c0-.184.147-.336.336-.336.184 0 .336.152.336.337v2.71c0 .184-.152.336-.336.336M284.32 388.26c-.184 0-.336-.152-.336-.337v-2.71c0-.184.152-.336.336-.336.189 0 .336.152.336.337v2.71c0 .184-.147.336-.336.336M77.51 386.896h4.566l-2.284-2.863-2.283 2.863zm5.437.836h-6.31c-.162 0-.304-.089-.377-.236-.068-.142-.047-.316.052-.442l3.155-3.952c.079-.1.2-.158.325-.158.126 0 .247.058.331.158l3.15 3.952c.1.126.12.3.052.442-.068.147-.215.236-.378.236zm-5.438 2.626l2.283 2.863 2.284-2.863h-4.567zm2.283 3.952c-.126 0-.246-.058-.325-.158l-3.155-3.952c-.1-.126-.12-.3-.052-.442.073-.147.215-.237.378-.237h6.309c.163 0 .31.09.378.237.068.142.047.316-.053.442l-3.149 3.952c-.084.1-.205.158-.33.158zm-22.218.573h14.214v-12.57H57.574v12.57zm14.634.842H57.159c-.23 0-.42-.194-.42-.42v-13.413c0-.232.19-.421.42-.421h15.049c.23 0 .42.19.42.42v13.413c0 .227-.19.421-.42.421zm-19.647 3.352h34.28v-20.953h-34.28v20.953zm34.695.837H52.141c-.23 0-.42-.19-.42-.421v-21.795c0-.231.19-.416.42-.416h35.115c.231 0 .42.185.42.416v21.795c0 .231-.189.42-.42.42z" transform="translate(18 29)"/>
            <path d="M77.509 390.329L79.792 393.191 82.076 390.329zM77.509 386.868L82.076 386.868 79.792 384.005zM501.348 389.488h4.567l-2.283-2.862-2.284 2.862zm5.438.837h-6.304c-.168 0-.31-.09-.383-.237-.068-.147-.047-.316.053-.442l3.154-3.951c.079-.1.2-.158.326-.158s.246.058.33.158l3.15 3.951c.1.126.12.295.052.442-.068.148-.215.237-.378.237zm-5.438 2.626l2.284 2.862 2.283-2.862h-4.567zm2.284 3.946c-.126 0-.247-.053-.326-.153l-3.154-3.951c-.1-.127-.121-.3-.053-.442.074-.148.215-.242.383-.242h6.304c.163 0 .31.094.378.242.068.142.047.315-.052.442l-3.15 3.951c-.084.1-.204.153-.33.153zm-22.214.579h14.214v-12.57h-14.214v12.57zm14.63.836h-15.05c-.23 0-.42-.189-.42-.415v-13.413c0-.231.19-.42.42-.42h15.05c.23 0 .419.189.419.42v13.413c0 .226-.189.415-.42.415zm-19.653 3.352h34.28v-20.952h-34.28v20.952zm34.7.842h-35.114c-.231 0-.42-.19-.42-.42V380.29c0-.232.189-.416.42-.416h35.115c.23 0 .42.184.42.416v21.794c0 .232-.19.421-.42.421z" transform="translate(18 29)"/>
            <path d="M501.348 392.921L503.632 395.784 505.915 392.921zM501.348 389.46L505.915 389.46 503.632 386.598zM389.733 393.713h17.768l-10.997-13.081h-17.652l10.881 13.08zm18.676.841h-18.875c-.121 0-.242-.052-.32-.152l-11.265-13.534-11.258 13.534-.646-.537 11.584-13.923c.079-.1.2-.152.32-.152h18.75c.125 0 .246.052.325.147l11.705 13.928c.105.121.131.3.058.447-.069.148-.216.242-.378.242zM408.694 397.407H389.34c-.231 0-.42-.19-.42-.421 0-.232.189-.421.42-.421h19.353c.23 0 .42.19.42.42 0 .232-.19.422-.42.422M122.888 319.605h17.768l-10.997-13.081h-17.652l10.881 13.08zm18.676.847h-18.87c-.126 0-.247-.058-.325-.158l-11.264-13.533-11.26 13.533-.645-.537 11.584-13.922c.08-.1.2-.153.32-.153h18.755c.12 0 .241.053.32.147l11.705 13.928c.105.121.131.3.058.448-.068.147-.215.247-.378.247zM141.846 323.3h-19.352c-.231 0-.42-.19-.42-.422 0-.231.189-.42.42-.42h19.352c.231 0 .42.189.42.42 0 .232-.189.421-.42.421M325.314 331.34h15.21v-16.054h-15.21v16.054zm15.615.805h-16.014c-.22 0-.4-.179-.4-.4v-16.858c0-.216.18-.4.4-.4h16.014c.215 0 .399.184.399.4v16.858c0 .221-.184.4-.399.4z" transform="translate(18 29)"/>
            <path d="M352.934 332.148h-12.01v-.805h11.611v-16.049h-11.61v-.805h12.01c.22 0 .398.18.398.4v16.86c0 .22-.178.399-.399.399M324.914 332.148h-12.01c-.22 0-.403-.179-.403-.4V314.89c0-.22.183-.4.404-.4h12.01v.805h-11.611v16.049h11.61v.805zM327.313 328.536L338.525 328.536 338.525 321.311 327.313 321.311zM325.88 306.463h4.498l9.58-.01-4.782-4.794c-.074-.074-.116-.174-.116-.28v-3.746h-4.278v3.747c0 .105-.047.205-.12.279l-4.782 4.804zm4.498.805h-5.464c-.163 0-.31-.1-.373-.253-.063-.147-.026-.32.09-.436l5.348-5.367v-3.978c0-.227.179-.406.4-.406h5.08c.22 0 .399.18.399.406v3.978l5.354 5.356c.11.116.147.284.084.432-.063.152-.205.252-.368.252l-10.55.016zM327.313 318.901L338.525 318.901 338.525 318.096 327.313 318.096z" transform="translate(18 29)"/>
            <path d="M315.304 318.901L322.511 318.901 322.511 318.096 315.304 318.096zM343.328 318.901L350.534 318.901 350.534 318.096 343.328 318.096zM222.138 314.16c.86 0 1.564.59 1.564 1.31 0 .721-.703 1.31-1.564 1.31-.86 0-1.564-.589-1.564-1.31 0-.72.703-1.31 1.564-1.31" transform="translate(18 29)"/>
            <path d="M208.463 327.262h17.19v-25.54h-17.19v25.54zm17.584.653h-17.972c-.22 0-.394-.148-.394-.326v-26.2c0-.183.173-.325.394-.325h17.972c.215 0 .388.142.388.326v26.199c0 .178-.173.326-.388.326zM236.985 318.091L237.767 318.091 237.767 303.684 236.985 303.684zM229.102 318.091L229.884 318.091 229.884 303.684 229.102 303.684z" transform="translate(18 29)"/>
            <path d="M229.952 311.214L245.578 311.214 245.578 310.561 229.952 310.561z" transform="translate(18 29)"/>
            <path d="M245.581 318.091h-15.626v-.652h15.238v-13.102h-15.238v-.652h15.626c.215 0 .394.142.394.326v13.754c0 .18-.179.326-.394.326M2.149 324.304h24.985c0 2.62-2.116 4.74-4.73 4.74H6.878c-2.614 0-4.73-2.12-4.73-4.74" transform="translate(18 29)"/>
            <path d="M2.487 317.873v5.751c0 2.8 2.294 5.078 5.112 5.078h14.088c2.819 0 5.107-2.278 5.107-5.078v-5.75H2.487zm19.2 11.508H7.6c-3.191 0-5.79-2.584-5.79-5.757v-6.088c0-.19.153-.342.342-.342h24.98c.188 0 .34.153.34.342v6.088c0 3.173-2.592 5.757-5.784 5.757zM11.28 307.72h7.396c-.173-1.895-1.764-3.384-3.7-3.384-1.145 0-2.215.52-2.924 1.431-.446.568-.709 1.237-.772 1.952m7.748.68h-8.1c-.188 0-.335-.153-.335-.343 0-.99.32-1.926.929-2.704.84-1.08 2.1-1.695 3.454-1.695 2.425 0 4.393 1.973 4.393 4.4 0 .189-.152.341-.341.341" transform="translate(18 29)"/>
            <path d="M23.418 317.418h-.677v-13.444c0-2.042-1.664-3.7-3.71-3.7-2.048 0-3.717 1.658-3.717 3.7h-.672c0-2.415 1.969-4.378 4.388-4.378 2.42 0 4.388 1.963 4.388 4.378v13.444zM12.616 314.15c-.184 0-.336-.152-.336-.336v-2.71c0-.19.152-.337.336-.337.189 0 .336.147.336.337v2.71c0 .184-.147.336-.336.336M14.64 314.15c-.188 0-.335-.152-.335-.336v-2.71c0-.19.147-.337.336-.337.183 0 .336.147.336.337v2.71c0 .184-.153.336-.336.336M17.342 314.15c-.19 0-.336-.152-.336-.336v-2.71c0-.19.147-.337.336-.337.183 0 .336.147.336.337v2.71c0 .184-.153.336-.336.336M446.823 312.789h4.566l-2.283-2.863-2.283 2.863zm5.437.836h-6.309c-.162 0-.304-.09-.378-.237-.068-.147-.047-.32.053-.442l3.154-3.951c.08-.1.2-.158.326-.158s.247.058.33.158l3.15 3.951c.1.121.12.295.052.442-.068.148-.215.237-.378.237zm-5.437 2.626l2.283 2.862 2.283-2.862h-4.566zm2.283 3.946c-.126 0-.247-.052-.326-.152l-3.154-3.952c-.1-.126-.12-.3-.053-.442.074-.147.216-.242.378-.242h6.31c.162 0 .31.095.377.242.069.142.048.316-.052.442l-3.15 3.952c-.083.1-.204.152-.33.152zm-22.219.58h14.214v-12.571h-14.214v12.57zm14.634.836h-15.048c-.231 0-.42-.19-.42-.421v-13.407c0-.232.189-.421.42-.421h15.048c.231 0 .42.19.42.42v13.408c0 .231-.189.42-.42.42zm-19.646 3.352h34.28v-20.953h-34.28v20.953zm34.695.841h-35.115c-.231 0-.42-.189-.42-.42V303.59c0-.232.189-.416.42-.416h35.115c.23 0 .42.184.42.416v21.794c0 .232-.19.421-.42.421z" transform="translate(18 29)"/>
            <path d="M446.823 316.218L449.106 319.081 451.389 316.218zM446.823 312.758L451.389 312.758 449.106 309.895zM168.052 553.669h15.211v-16.054h-15.211v16.054zm15.615.805h-16.014c-.22 0-.399-.18-.399-.4V537.22c0-.226.178-.405.399-.405h16.014c.22 0 .4.179.4.405v16.854c0 .22-.18.4-.4.4z" transform="translate(18 29)"/>
            <path d="M195.676 554.473h-12.01v-.805h11.61V537.62h-11.61v-.805h12.01c.22 0 .399.178.399.4v16.858c0 .221-.179.4-.4.4M167.655 554.473h-12.01c-.22 0-.404-.179-.404-.4v-16.859c0-.22.184-.4.405-.4h12.009v.806h-11.61v16.048h11.61v.805zM170.057 550.864L181.269 550.864 181.269 543.64 170.057 543.64zM168.619 528.79h4.498l9.584-.015-4.781-4.788c-.079-.074-.121-.174-.121-.28v-3.746h-4.278v3.747c0 .105-.042.205-.12.279l-4.782 4.804zm4.498.806h-5.464c-.163 0-.31-.1-.367-.253-.063-.147-.032-.32.083-.436l5.35-5.368v-3.977c0-.221.183-.406.398-.406h5.086c.215 0 .4.185.4.406v3.977l5.348 5.352c.11.116.147.29.084.442-.063.147-.205.247-.368.247l-10.55.016zM170.052 541.23L181.263 541.23 181.263 540.425 170.052 540.425z" transform="translate(18 29)"/>
            <path d="M158.047 541.23L165.254 541.23 165.254 540.425 158.047 540.425zM186.066 541.23L193.273 541.23 193.273 540.425 186.066 540.425zM269.129 546.632h24.985c0 2.615-2.116 4.741-4.73 4.741h-15.526c-2.614 0-4.729-2.126-4.729-4.74" transform="translate(18 29)"/>
            <path d="M269.465 540.201v5.751c0 2.8 2.294 5.078 5.112 5.078h14.088c2.819 0 5.108-2.278 5.108-5.078v-5.75h-24.308zm19.2 11.508h-14.088c-3.191 0-5.79-2.584-5.79-5.757v-6.088c0-.19.153-.342.342-.342h24.98c.188 0 .34.153.34.342v6.088c0 3.173-2.592 5.757-5.784 5.757zM278.261 530.047h7.396c-.174-1.894-1.764-3.383-3.7-3.383-1.145 0-2.216.52-2.924 1.431-.447.568-.709 1.237-.772 1.952m7.747.68h-8.099c-.189 0-.336-.154-.336-.343 0-.99.32-1.926.93-2.705.834-1.078 2.099-1.694 3.453-1.694 2.425 0 4.394 1.973 4.394 4.4 0 .188-.153.341-.342.341" transform="translate(18 29)"/>
            <path d="M290.4 539.746h-.678v-13.444c0-2.041-1.664-3.699-3.711-3.699-2.047 0-3.716 1.658-3.716 3.7h-.672c0-2.416 1.968-4.378 4.388-4.378s4.388 1.962 4.388 4.377v13.444zM279.594 536.478c-.184 0-.336-.152-.336-.336v-2.71c0-.184.152-.337.336-.337.189 0 .336.153.336.337v2.71c0 .184-.147.336-.336.336M281.62 536.478c-.188 0-.335-.152-.335-.336v-2.71c0-.184.147-.337.336-.337.184 0 .336.153.336.337v2.71c0 .184-.152.336-.336.336M284.32 536.478c-.184 0-.336-.152-.336-.336v-2.71c0-.184.152-.337.336-.337.189 0 .336.153.336.337v2.71c0 .184-.147.336-.336.336M77.51 535.114h4.566l-2.284-2.863-2.283 2.863zm5.437.837h-6.31c-.162 0-.304-.09-.377-.237-.068-.142-.047-.316.052-.442l3.155-3.952c.079-.1.2-.158.325-.158.126 0 .247.058.331.158l3.15 3.952c.1.126.12.3.052.442-.068.147-.215.237-.378.237zm-5.438 2.625l2.283 2.863 2.284-2.863h-4.567zm2.283 3.947c-.126 0-.246-.053-.325-.153l-3.155-3.952c-.1-.126-.12-.3-.052-.442.073-.147.215-.236.378-.236h6.309c.163 0 .31.089.378.236.068.142.047.316-.053.442l-3.149 3.952c-.084.1-.205.153-.33.153zm-22.218.578h14.214v-12.57H57.574v12.57zm14.634.837H57.159c-.23 0-.42-.19-.42-.416V530.11c0-.232.19-.421.42-.421h15.049c.23 0 .42.19.42.42v13.413c0 .227-.19.416-.42.416zm-19.647 3.357h34.28v-20.953h-34.28v20.953zm34.695.837H52.141c-.23 0-.42-.19-.42-.421v-21.795c0-.231.19-.415.42-.415h35.115c.231 0 .42.184.42.415v21.795c0 .231-.189.42-.42.42z" transform="translate(18 29)"/>
            <path d="M77.509 538.546L79.792 541.409 82.076 538.546zM77.509 535.086L82.076 535.086 79.792 532.223zM478.9 536.792L469.142 536.776 469.142 535.797 478.9 535.813zM498.416 536.822L488.659 536.807 488.659 535.828 498.416 535.844zM517.936 536.856L508.178 536.84 508.178 535.862 517.936 535.877zM489.159 529.96L479.402 529.944 479.402 528.965 489.159 528.981zM508.189 529.994L498.432 529.978 498.432 528.999 508.189 529.015zM489.136 543.657L479.379 543.641 479.379 542.662 489.136 542.678zM508.166 543.688L498.409 543.672 498.409 542.693 508.166 542.709z" transform="translate(18 29)"/>
            <path d="M479.851 551.958L478.874 551.958 478.927 521.629 479.903 521.634zM489.121 551.971L488.144 551.971 488.197 521.642 489.173 521.647zM498.88 551.989L497.904 551.989 497.957 521.659 498.933 521.665zM508.64 552.004L507.664 552.004 507.716 521.675 508.693 521.68zM389.733 541.93h17.768l-10.997-13.08h-17.652l10.881 13.08zm18.676.842h-18.875c-.121 0-.242-.053-.32-.153l-11.265-13.533-11.258 13.533-.646-.536 11.584-13.923c.079-.1.2-.153.32-.153h18.75c.125 0 .246.053.325.148l11.705 13.928c.105.12.131.3.058.447-.069.147-.216.242-.378.242zM408.694 545.628H389.34c-.231 0-.42-.19-.42-.421 0-.232.189-.421.42-.421h19.353c.23 0 .42.19.42.42 0 .232-.19.422-.42.422M123.724 467.822h17.767l-10.996-13.08h-17.652l10.881 13.08zm18.676.842h-18.87c-.126 0-.247-.052-.326-.152l-11.264-13.534-11.259 13.534-.645-.537 11.584-13.923c.079-.1.2-.152.32-.152h18.75c.125 0 .246.052.325.147l11.705 13.923c.105.126.13.305.057.452-.068.148-.215.242-.377.242zM142.685 471.517h-19.353c-.231 0-.42-.19-.42-.42 0-.232.189-.422.42-.422h19.353c.23 0 .42.19.42.421 0 .232-.19.421-.42.421M326.148 479.561h15.211v-16.054h-15.21v16.054zm15.616.8h-16.015c-.22 0-.399-.18-.399-.395v-16.859c0-.22.179-.4.4-.4h16.014c.22 0 .398.18.398.4v16.86c0 .215-.178.394-.398.394z" transform="translate(18 29)"/>
            <path d="M353.772 480.363h-12.009v-.805h11.61v-16.049h-11.61v-.805h12.01c.22 0 .398.184.398.4v16.859c0 .221-.178.4-.399.4M325.75 480.363h-12.01c-.22 0-.404-.179-.404-.4v-16.859c0-.216.183-.4.404-.4h12.01v.805h-11.611v16.049h11.61v.805zM328.153 476.756L339.365 476.756 339.365 469.532 328.153 469.532zM326.716 454.68h4.498l9.584-.01-4.781-4.793c-.08-.074-.121-.174-.121-.279v-3.746h-4.278v3.746c0 .105-.042.205-.12.279l-4.782 4.804zm4.498.806h-5.464c-.163 0-.31-.1-.368-.253-.063-.147-.031-.32.084-.436l5.349-5.367v-3.978c0-.221.184-.4.399-.4h5.086c.215 0 .399.179.399.4v3.978l5.349 5.356c.11.116.146.284.084.437-.063.147-.205.247-.368.247l-10.55.016zM328.148 467.122L339.36 467.122 339.36 466.317 328.148 466.317z" transform="translate(18 29)"/>
            <path d="M316.139 467.122L323.345 467.122 323.345 466.317 316.139 466.317zM344.162 467.122L351.369 467.122 351.369 466.317 344.162 466.317zM222.976 462.38c.861 0 1.564.59 1.564 1.31 0 .722-.703 1.311-1.564 1.311-.866 0-1.564-.59-1.564-1.31 0-.721.698-1.31 1.564-1.31" transform="translate(18 29)"/>
            <path d="M209.298 475.478h17.19v-25.541h-17.19v25.54zm17.583.658H208.91c-.215 0-.388-.148-.388-.332v-26.199c0-.179.173-.326.388-.326h17.972c.216 0 .394.147.394.326v26.2c0 .183-.178.33-.394.33zM237.82 466.312L238.602 466.312 238.602 451.905 237.82 451.905zM229.936 466.312L230.718 466.312 230.718 451.905 229.936 451.905z" transform="translate(18 29)"/>
            <path d="M230.792 459.434L246.418 459.434 246.418 458.782 230.792 458.782z" transform="translate(18 29)"/>
            <path d="M246.417 466.31H230.79v-.653h15.237v-13.102h-15.237v-.653h15.626c.215 0 .393.142.393.326v13.755c0 .179-.178.326-.393.326M2.987 472.522H27.97c0 2.615-2.115 4.74-4.729 4.74H7.716c-2.614 0-4.73-2.125-4.73-4.74" transform="translate(18 29)"/>
            <path d="M3.323 466.09v5.752c0 2.8 2.293 5.078 5.112 5.078h14.088c2.819 0 5.107-2.279 5.107-5.078v-5.751H3.323zm19.2 11.508H8.435c-3.191 0-5.79-2.578-5.79-5.756v-6.088c0-.19.153-.342.342-.342h24.979c.189 0 .341.153.341.342v6.088c0 3.178-2.593 5.756-5.784 5.756zM12.116 455.94h7.396c-.174-1.895-1.764-3.384-3.7-3.384-1.145 0-2.216.521-2.924 1.426-.447.574-.709 1.242-.772 1.958m7.747.678h-8.099c-.189 0-.336-.152-.336-.342 0-.989.32-1.926.93-2.704.834-1.079 2.099-1.695 3.453-1.695 2.425 0 4.394 1.974 4.394 4.4 0 .189-.153.341-.342.341" transform="translate(18 29)"/>
            <path d="M24.254 465.636h-.677v-13.444c0-2.042-1.664-3.699-3.711-3.699-2.047 0-3.716 1.657-3.716 3.7h-.672c0-2.416 1.968-4.379 4.388-4.379s4.388 1.963 4.388 4.378v13.444zM13.451 462.368c-.183 0-.336-.153-.336-.337v-2.71c0-.184.153-.336.336-.336.19 0 .336.152.336.336v2.71c0 .184-.147.337-.336.337M15.478 462.368c-.189 0-.336-.153-.336-.337v-2.71c0-.184.147-.336.336-.336.184 0 .336.152.336.336v2.71c0 .184-.152.337-.336.337M18.177 462.368c-.183 0-.336-.153-.336-.337v-2.71c0-.184.153-.336.336-.336.19 0 .336.152.336.336v2.71c0 .184-.147.337-.336.337M447.658 461.006h4.566l-2.283-2.862-2.283 2.862zm5.437.837h-6.309c-.162 0-.304-.09-.378-.237-.068-.142-.047-.316.053-.442l3.154-3.952c.08-.1.2-.157.326-.157s.247.057.33.157l3.15 3.952c.1.126.12.3.052.442-.068.147-.215.237-.378.237zm-5.437 2.625l2.283 2.863 2.283-2.863h-4.566zm2.283 3.952c-.126 0-.247-.058-.326-.158l-3.154-3.951c-.1-.127-.12-.3-.053-.442.074-.148.216-.237.378-.237h6.31c.162 0 .31.09.377.237.069.142.048.315-.052.442l-3.15 3.951c-.083.1-.204.158-.33.158zm-22.219.574h14.214v-12.576h-14.214v12.576zm14.634.836h-15.048c-.231 0-.42-.19-.42-.415v-13.413c0-.231.189-.42.42-.42h15.048c.231 0 .42.189.42.42v13.413c0 .226-.189.415-.42.415zm-19.646 3.357h34.28v-20.952h-34.28v20.952zm34.695.837H422.29c-.231 0-.42-.19-.42-.421v-21.794c0-.232.189-.416.42-.416h35.115c.23 0 .42.184.42.416v21.794c0 .232-.19.421-.42.421z" transform="translate(18 29)"/>
            <path d="M447.658 464.439L449.941 467.301 452.224 464.439zM447.658 460.976L452.224 460.976 449.941 458.113z" transform="translate(18 29)"/>
        </g>
    </g>
</svg>
