<svg width="256" height="254" viewBox="0 0 256 254" fill="none" xmlns="http://www.w3.org/2000/svg">
<path d="M229.36 163.171C229.36 163.171 235.285 163.171 241.849 153.987C247.557 145.995 236.712 121.217 230.587 115.52C224.463 109.823 212.596 140.944 213.977 148.826C215.946 160.066 224.406 162.897 229.36 163.171Z" fill="#FB855E"/>
<path d="M235.588 128.837L229.144 133.489L228.761 121.091L228.082 121.947C228.082 121.947 228.025 131.28 227.962 142.878L220.445 137.644C220.536 137.735 221.489 138.643 220.958 138.643L227.945 145.344C227.911 151.737 227.877 157.811 227.842 163.039C227.842 167.731 227.797 171.744 227.779 174.678L230.582 175.249L230.097 163.136L229.851 156.897L238.984 147.833C238.219 147.833 239.584 146.537 239.715 146.406L229.766 153.57L229.195 135.703L235.063 129.87C234.561 129.87 235.394 129.048 235.56 128.894" fill="white"/>
<path d="M234.201 183.748C218.001 207.288 193.948 228.379 165.75 238.807C110.793 215.142 67.1949 205.13 36.1089 201.18C29.5273 194.029 23.6209 186.284 18.4654 178.045C45.0877 170.208 115.645 156.714 234.201 183.748Z" fill="#BFBFBF"/>
<path d="M18.4654 178.045L18.6081 178.011L19.7097 177.692L19.9552 177.623L21.3879 177.224H21.4507L22.6722 176.892C23.4999 176.664 24.3846 176.442 25.2579 176.219L25.9372 176.048C26.7877 175.831 27.6496 175.62 28.58 175.408L29.499 175.191L30.2468 175.02L31.0687 174.838L31.7822 174.683C32.2788 174.569 32.7868 174.461 33.3063 174.352L33.4604 174.318L33.7287 174.261L34.1682 174.17L34.9274 174.01L36.069 173.782L36.674 173.656L37.2448 173.542L38.3864 173.319L40.1616 172.988L41.9882 172.657L42.3649 172.589L43.067 172.469L46.1208 171.955L47.4565 171.744H47.5421L47.7419 171.715L48.0444 171.67L50.6587 171.276H50.79L51.1667 171.219L51.5663 171.162L51.9887 171.105L52.8164 170.985H52.8734C54.3861 170.779 55.9387 170.574 57.5312 170.38L58.9639 170.208L61.8979 169.877H61.9549L63.3934 169.729L65.0259 169.563L66.8182 169.392L68.4906 169.238L70.2544 169.084L71.8869 168.947C74.3452 168.753 76.8758 168.58 79.4786 168.427L81.0598 168.336L83.1318 168.228L85.9858 168.102H86.3625L87.2644 168.068C87.7324 168.045 88.2005 168.028 88.6686 168.016C89.7531 167.977 90.8433 167.942 91.945 167.914L93.8001 167.868L95.6838 167.828H95.8949H97.6074C100.439 167.79 103.342 167.781 106.318 167.8H108.316H109.309L111.295 167.828L112.682 167.857H112.722L115.005 167.908L116.221 167.942L117.466 167.977L118.921 168.022H118.95L120.16 168.068H120.833L121.553 168.096L123.659 168.182L124.681 168.228L125.463 168.262L128.277 168.405L130.103 168.507L132.672 168.656H132.946L135.532 168.827L136.159 168.867L137.039 168.93L138.968 169.067C140.49 169.181 142.046 169.303 143.637 169.432H143.945L145.304 169.546C146.765 169.672 148.238 169.805 149.722 169.946L150.829 170.049L151.691 170.134L155.441 170.511L157.667 170.745L160.065 171.013C163.341 171.394 166.673 171.795 170.06 172.218L172.571 172.549L175.031 172.885L177.594 173.245L180.18 173.616C181.527 173.816 182.886 174.016 184.255 174.227L185.397 174.404L188.04 174.82L190.706 175.249L195.095 175.985L196.528 176.23L198.491 176.567L201.956 177.189L204.142 177.589L206.083 177.943L208.555 178.417L210.775 178.845C213.302 179.336 215.857 179.845 218.441 180.374L220.69 180.842L221.626 181.037L221.883 181.094C224.547 181.649 227.222 182.22 229.908 182.806L231.666 183.2L234.149 183.771" stroke="#263238" stroke-linecap="round" stroke-linejoin="round"/>
<path d="M36.1088 201.18C26.203 199.9 16.2358 199.151 6.25 198.937" stroke="#263238" stroke-linecap="round" stroke-linejoin="round"/>
<path d="M165.75 238.807C110.793 215.142 67.1946 205.13 36.1086 201.18" stroke="#263238" stroke-linecap="round" stroke-linejoin="round"/>
<path d="M196.18 252.786C185.677 247.661 175.534 242.999 165.75 238.802" stroke="#263238" stroke-linecap="round" stroke-linejoin="round"/>
<path d="M137.153 216.586C143.744 219.029 150.19 221.647 156.491 224.44" stroke="#263238" stroke-miterlimit="10"/>
<path d="M95.7687 203.605C108.812 206.996 121.518 210.9 133.79 215.347" stroke="#263238" stroke-miterlimit="10"/>
<path d="M68.7416 197.367C76.3219 198.908 83.8127 200.6 91.2141 202.442" stroke="#263238" stroke-miterlimit="10"/>
<path d="M62.3773 196.117L65.7736 196.774" stroke="#263238" stroke-miterlimit="10"/>
<path d="M152.205 208.264C169.884 213.581 187.099 220.331 203.68 228.447" stroke="#263238" stroke-miterlimit="10"/>
<path d="M146.713 206.683C147.855 206.997 148.957 207.322 150.076 207.653" stroke="#263238" stroke-miterlimit="10"/>
<path d="M130.245 202.476C134.115 203.362 137.97 204.314 141.81 205.33" stroke="#263238" stroke-miterlimit="10"/>
<path d="M78.691 195.911C82.7494 196.727 88.2691 197.829 92.3446 198.611" stroke="#263238" stroke-miterlimit="10"/>
<path d="M62.3773 192.658C66.9438 193.537 72.081 194.57 77.361 195.638" stroke="#263238" stroke-miterlimit="10"/>
<path d="M56.515 191.602C57.8849 191.841 59.2644 192.091 60.6533 192.349" stroke="#263238" stroke-miterlimit="10"/>
<path d="M19.6985 188.001C30.2799 188.066 40.8391 188.976 51.2754 190.724" stroke="#263238" stroke-miterlimit="10"/>
<path d="M220.062 190.642C218.921 190.408 217.779 190.174 216.609 189.951L216.038 189.837L215.684 189.769C208.454 188.368 201.199 187.208 193.919 186.287C190.746 185.883 187.568 185.528 184.387 185.219C179.706 184.751 175.018 184.388 170.322 184.129H170.294L167.582 183.986" stroke="#263238" stroke-miterlimit="10"/>
<path d="M227.842 192.351C226.134 191.97 224.421 191.59 222.705 191.209" stroke="#263238" stroke-miterlimit="10"/>
<path d="M238.687 176.869L235.41 176.196L232.808 175.671L230.581 175.231L227.779 174.66L227.271 174.563L224.782 174.09C223.089 173.77 221.405 173.458 219.73 173.153L219.371 173.091L216.699 172.611L215.838 172.451H215.786L214.559 172.234L212.567 171.892C210.963 171.618 209.365 171.35 207.783 171.093L205.5 170.722L205.278 170.688L203.046 170.334C201.482 170.086 199.925 169.848 198.377 169.62L197.235 169.449L196.093 169.278L194.672 169.072L193.799 168.947L191.516 168.627L189.232 168.313L186.612 167.965C185.003 167.748 183.41 167.548 181.829 167.354C178.929 166.996 176.075 166.663 173.267 166.355L172.479 166.27H172.331L171.326 166.161C169.123 165.929 166.946 165.71 164.796 165.505L163.946 165.425L161.52 165.202L159.122 164.991C157.65 164.865 156.194 164.745 154.744 164.637L152.033 164.432L149.71 164.272C148.134 164.163 146.57 164.066 145.018 163.969L141.593 163.775L139.881 163.689L137.027 163.553L134.823 163.461L133.162 163.398L131.513 163.341L128.476 163.244L126.632 163.199L125.028 163.164L122.288 163.113H120.273H117.22H117.174C103.041 163.05 90.3462 163.638 79.0043 164.62C77.1036 164.78 75.237 164.957 73.4162 165.145C72.8054 165.202 72.2061 165.265 71.6067 165.333C69.8087 165.522 68.0506 165.727 66.3325 165.938C65.7617 166.001 65.2251 166.075 64.6829 166.144H64.6258L64.2719 166.19L63.1702 166.338L62.1884 166.469L59.8082 166.8L58.5125 166.989L55.921 167.383L53.4038 167.788C52.6846 167.908 51.9768 168.022 51.2804 168.147L50.1388 168.342L49.899 168.387C48.8031 168.581 47.73 168.772 46.6797 168.958H46.6055C43.3367 169.582 40.2772 170.219 37.427 170.87C37.0845 170.939 36.7477 171.019 36.4109 171.099L35.4177 171.333L35.1038 171.407L33.9964 171.669L33.6654 171.749H33.5626L32.5409 172L31.3194 172.309L30.6001 172.491C29.0647 172.891 27.6034 173.285 26.2278 173.673L25.1147 173.992L24.0359 174.306L23.2082 174.552C22.6374 174.729 22.0666 174.9 21.4958 175.077C20.8223 175.283 20.1773 175.488 19.5551 175.694C18.8302 175.928 18.1395 176.15 17.4888 176.373" stroke="#263238" stroke-miterlimit="10"/>
<path d="M59.7579 166.738C48.4207 168.305 37.1992 170.618 26.1661 173.661L25.133 173.77L17.6554 119.504C18.2262 118.899 31.5374 100.873 50.2769 101.124L59.7579 166.738Z" stroke="#263238" stroke-miterlimit="10"/>
<path d="M189.204 168.307C143.62 162.131 107.009 162.114 78.9536 164.551L76.3279 126.176C76.3279 126.176 122.563 94.3136 186.493 106.067L189.204 168.307Z" stroke="#263238" stroke-miterlimit="10"/>
<path d="M19.459 128.203C20.6006 125.765 37.1539 112.22 47.7937 112.391" stroke="#263238" stroke-miterlimit="10"/>
<path d="M20.5947 137.312C22.5012 135.029 39.4313 123.042 49.5402 123.401" stroke="#263238" stroke-miterlimit="10"/>
<path d="M21.7249 146.429C24.3848 144.277 41.703 133.917 51.2868 134.442" stroke="#263238" stroke-miterlimit="10"/>
<path d="M22.8616 155.544C26.2864 153.535 43.9357 144.762 53.0343 145.435" stroke="#263238" stroke-miterlimit="10"/>
<path d="M23.9973 164.655C28.1528 162.788 46.1902 155.608 54.7865 156.447" stroke="#263238" stroke-miterlimit="10"/>
<path d="M79.5367 128.922L80.5984 145.281" stroke="#263238" stroke-miterlimit="10"/>
<path d="M91.2033 123.66L92.305 137.103" stroke="#263238" stroke-miterlimit="10"/>
<path d="M104.447 118.327L105.628 132.517" stroke="#263238" stroke-miterlimit="10"/>
<path d="M120.754 114.036L122.301 130.972" stroke="#263238" stroke-miterlimit="10"/>
<path d="M139.905 111.238L141.326 131.239" stroke="#263238" stroke-miterlimit="10"/>
<path d="M159.734 110.594L160.933 134.842" stroke="#263238" stroke-miterlimit="10"/>
<path d="M179.113 112.552L179.741 125.423" stroke="#263238" stroke-miterlimit="10"/>
<path d="M36.7815 188.401L43.3457 188.549C43.3457 188.549 32.9286 171.796 35.3545 166.596C37.7461 161.487 30.4399 170.591 35.5428 187.459C35.628 187.724 35.7924 187.956 36.014 188.125C36.2355 188.293 36.5034 188.389 36.7815 188.401Z" fill="#263238" stroke="#263238" stroke-miterlimit="10"/>
<path d="M156.114 200.844C156.114 200.844 155.029 197.253 152.689 196.968C150.348 196.683 154.076 189.742 153.397 181.944C153.402 181.922 155.389 187.715 156.114 200.844Z" fill="#263238" stroke="#263238" stroke-linecap="round" stroke-linejoin="round"/>
<path d="M118.39 199.514H129.303C129.303 199.514 124.052 167.623 124.531 164.981C125.667 158.713 105.94 168.628 118.39 199.514Z" fill="#263238" stroke="#263238" stroke-miterlimit="10"/>
<path d="M56.6291 188.942C54.0205 190.021 43.9972 189.593 43.9972 189.593C49.2086 189.593 52.9131 183.548 52.2624 176.105C51.6916 169.649 48.0499 164.255 43.7003 162.931C52.9873 161.858 59.2376 187.852 56.6291 188.942Z" fill="#263238" stroke="#263238" stroke-miterlimit="10"/>
<path d="M134.703 204.355C134.703 204.355 138.63 205.571 151.827 201.101C154.396 200.234 156.759 196.015 155.76 191.061C154.761 186.106 153.271 172.538 141.33 167.167C129.389 161.796 134.703 204.355 134.703 204.355Z" fill="#263238" stroke="#263238" stroke-miterlimit="10"/>
<path d="M138.674 203.81C147.708 201.177 152.448 190.178 149.261 179.243C146.074 168.308 136.166 161.578 127.132 164.212C118.098 166.845 113.358 177.844 116.545 188.779C119.732 199.714 129.64 206.443 138.674 203.81Z" fill="#5C5C5C" stroke="#263238" stroke-linecap="round" stroke-linejoin="round"/>
<path d="M145.708 183.286C146.211 188.995 144.156 194 140.657 196.894C138.61 198.62 136.016 199.561 133.339 199.549C125.724 199.549 118.915 192.265 118.127 183.286C117.339 174.308 122.876 167.019 130.491 167.019C134.096 167.102 137.526 168.589 140.052 171.163C143.321 174.401 145.327 178.7 145.708 183.286Z" fill="#263238" stroke="#263238" stroke-miterlimit="10"/>
<path d="M145.137 183.286C145.639 188.994 143.585 194 140.085 196.894C139.41 197.048 138.718 197.125 138.025 197.122C131.775 197.122 126.186 191.14 125.541 183.765C124.896 176.39 129.434 170.414 135.685 170.414C136.986 170.416 138.274 170.668 139.48 171.156C142.751 174.396 144.757 178.698 145.137 183.286Z" fill="#BFBFBF"/>
<path d="M219.297 174.29C219.223 174.456 219.16 174.61 219.091 174.747C212.813 175.489 196.99 177.601 192.406 179.216C214.359 168.999 218.698 172.795 219.2 174.393L219.234 174.205L219.297 174.29Z" fill="#263238" stroke="#263238" stroke-miterlimit="10"/>
<path d="M221.288 176.145C219.952 176.59 218.331 177.075 216.391 177.572C209.193 179.41 197.097 181.145 197.097 181.145C194.757 182.447 192.959 189.416 191.167 193.731C190.927 194.302 190.682 194.873 190.436 195.33C190.12 195.904 189.696 196.412 189.186 196.825C188.897 197.082 188.588 197.314 188.261 197.522C177.987 197.619 177.154 195.649 177.154 195.649C173.928 190.512 171.817 186.836 170.447 184.296L170.549 184.45C170.669 184.621 170.789 184.793 170.915 184.947C171.04 185.101 171.16 185.266 171.291 185.409C171.423 185.552 171.503 185.655 171.611 185.769C171.714 185.877 171.817 185.986 171.925 186.088C176.086 190.084 181.189 187.595 185.196 184.621C188.022 182.527 190.305 180.186 191.332 179.695L192.405 179.193C196.972 177.583 212.806 175.466 219.091 174.724H219.359C219.302 175.066 220.626 175.802 221.288 176.145Z" fill="#5C5C5C" stroke="#263238" stroke-linecap="round" stroke-linejoin="round"/>
<path d="M192.405 179.217L191.332 179.719C191.663 179.5 192.025 179.331 192.405 179.217Z" fill="white" stroke="#263238" stroke-miterlimit="10"/>
<path d="M221.648 176.327C221.772 179.014 221.713 181.707 221.471 184.387C217.584 184.284 215.506 190.049 215.038 191.522C209.604 193.109 202.515 194.735 197.286 195.86H197.269C195.813 196.174 194.506 196.431 193.422 196.67H193.382C191.669 197.036 190.493 197.241 190.208 197.315L189.175 197.504L187.931 197.732C177.521 199.522 166.993 200.546 156.434 200.797C156.254 197.863 155.909 194.942 155.4 192.047C154.725 188.058 153.575 184.164 151.976 180.448L167.387 179.466H167.496L168.067 179.426C168.067 179.426 168.067 179.466 168.107 179.541C168.12 179.568 168.131 179.597 168.141 179.626C168.341 180.197 168.552 180.699 168.763 181.19L169.003 181.727L169.248 182.235L169.437 182.6C169.499 182.726 169.562 182.845 169.631 182.96C169.699 183.074 169.825 183.308 169.922 183.473C170.019 183.639 170.161 183.867 170.276 184.044C170.333 184.128 170.39 184.208 170.447 184.284C171.817 186.824 173.929 190.511 177.154 195.637C177.154 195.637 178.01 197.606 188.262 197.509C188.588 197.302 188.897 197.069 189.186 196.813C189.696 196.4 190.121 195.892 190.436 195.318C190.682 194.849 190.927 194.313 191.167 193.719C192.959 189.404 194.757 182.434 197.098 181.133C197.098 181.133 209.193 179.421 216.391 177.56C218.332 177.063 219.953 176.578 221.288 176.133C221.505 176.264 221.648 176.327 221.648 176.327Z" fill="#263238" stroke="#263238" stroke-miterlimit="10"/>
<path d="M55.7097 188.896C55.6767 187.175 55.5184 185.458 55.2359 183.759C57.9758 184.901 59.5169 184.981 61.6917 185.443C62.7591 185.671 64.8083 186.014 67.4568 186.351C77.3375 187.641 95.6546 188.976 103.663 184.792C103.798 184.761 103.936 184.738 104.074 184.724C105.37 184.575 109.554 184.187 114.919 183.702C115.417 189.101 116.587 194.416 118.401 199.525L55.7097 188.896Z" fill="#263238" stroke="#263238" stroke-miterlimit="10"/>
<path d="M219.046 166.646C219.263 167.246 219.399 167.872 219.451 168.507V168.507C219.52 169.131 219.549 169.758 219.537 170.385C219.512 171.661 219.411 172.934 219.234 174.198L219.297 174.284L219.571 174.712C219.668 174.075 219.729 173.432 219.754 172.788C219.754 172.218 219.788 171.584 219.754 170.945C219.772 169.481 219.533 168.026 219.046 166.646V166.646Z" stroke="#263238" stroke-linecap="round" stroke-linejoin="round"/>
<path d="M228.212 139.934C224.091 147.303 218.177 149.033 218.177 149.033C217.079 148.379 215.888 147.898 214.644 147.606C211.046 146.762 207.373 146.286 203.679 146.184C203.901 146.184 204.118 146.15 204.341 146.144L206.521 146.213C206.521 146.213 207.709 145.785 209.096 143.473C209.319 143.11 209.51 142.728 209.667 142.331C209.949 141.644 209.949 140.873 209.667 140.185C212.521 140.465 220.672 140.825 225.598 136.572C226.557 135.744 226.197 134.34 225.101 133.49C224.977 133.395 224.847 133.307 224.713 133.227C225.626 133.164 232.042 133.09 228.212 139.934Z" fill="#FB855E" stroke="#263238" stroke-miterlimit="10"/>
<path d="M157.376 137.553L174.003 142.307C172.177 147.473 169.676 149.905 167.941 151.029L155.463 151.56C149.984 151.925 144.356 152.376 139.007 152.93C121.626 154.722 115.604 165.06 115.604 165.06C103.663 179.581 64.5572 170.916 64.5572 170.916C60.0706 169.204 59.9907 168.53 57.0568 165.385C55.5499 163.781 54.4311 161.835 52.8671 160.276C51.657 159.083 48.1351 156.772 44.8758 156.281L43.7228 156.321C43.7742 156.258 43.7856 156.207 43.7571 156.184C43.0892 155.961 69.1636 154.157 70.8931 153.507L72.2345 150.624C72.6993 149.64 73.4546 148.822 74.3986 148.28C75.3427 147.738 76.4301 147.498 77.5144 147.593C78.4791 147.656 79.2839 147.707 79.4209 147.73C79.7691 147.473 91.0082 139.225 103.68 135.384C116.557 131.485 126.153 134.733 132.58 133.871C139.007 133.009 152.335 133.506 152.335 133.506L150.515 135.823L157.376 137.553Z" fill="#FB855E" stroke="#263238" stroke-miterlimit="10"/>
<path d="M173.775 142.936V142.97C173.484 143.749 173.151 144.511 172.776 145.253L172.748 145.31C172.548 145.693 172.348 146.058 172.148 146.401C172.057 146.557 171.966 146.705 171.874 146.846C171.606 147.285 171.304 147.685 171.052 148.05C170.887 148.267 170.727 148.478 170.562 148.673L170.504 148.735C170.413 148.844 170.322 148.952 170.23 149.049L170.162 149.129C170.002 149.306 169.848 149.466 169.694 149.614L169.386 149.911C169.226 150.054 169.072 150.191 168.918 150.316L168.649 150.533L168.427 150.699C168.267 150.819 168.113 150.922 167.964 151.019L183.913 150.334C184.341 150.02 184.78 149.763 185.231 149.472C183.724 150.254 182.737 150.842 183.216 149.677C183.236 149.627 183.261 149.58 183.29 149.534C184.101 147.97 187.857 145.539 187.857 145.539H187.931C188.742 145.231 192.6 143.256 194.946 136.537H195.021C195.968 133.273 196.174 129.839 195.626 126.485C195.232 125.915 194.427 125.418 192.772 125.623C189.655 126.017 179.009 128.164 176.572 128.654H176.515C175.917 128.772 175.35 129.013 174.85 129.361C174.35 129.71 173.927 130.158 173.609 130.678C173.291 131.197 173.084 131.777 173.002 132.381C172.919 132.985 172.963 133.599 173.13 134.186C173.353 134.956 173.575 135.692 173.781 136.372C173.781 136.372 173.878 136.686 174.021 137.119C174.549 138.801 174.549 140.604 174.021 142.285" fill="#FB855E"/>
<path d="M173.775 142.936V142.97C173.484 143.749 173.151 144.511 172.776 145.253V145.253L172.748 145.31C172.548 145.693 172.348 146.058 172.148 146.401C172.057 146.557 171.966 146.705 171.874 146.846C171.606 147.285 171.304 147.685 171.052 148.05C170.887 148.267 170.727 148.478 170.562 148.673L170.504 148.735C170.413 148.844 170.322 148.952 170.23 149.049L170.162 149.129C170.002 149.306 169.848 149.466 169.694 149.614L169.386 149.911C169.226 150.054 169.072 150.191 168.918 150.316L168.649 150.533L168.427 150.699C168.267 150.819 168.113 150.922 167.964 151.019L183.913 150.334C184.341 150.02 184.78 149.763 185.231 149.472C183.724 150.254 182.737 150.842 183.216 149.677C183.236 149.627 183.261 149.58 183.29 149.534C184.101 147.97 187.857 145.539 187.857 145.539H187.931C188.742 145.231 192.6 143.256 194.946 136.537H195.021C195.968 133.273 196.174 129.839 195.626 126.485C195.232 125.915 194.427 125.418 192.772 125.623C189.655 126.017 179.009 128.164 176.572 128.654H176.515C175.917 128.772 175.35 129.013 174.85 129.361C174.35 129.71 173.927 130.158 173.609 130.678C173.291 131.197 173.084 131.777 173.002 132.381C172.919 132.985 172.963 133.599 173.13 134.186C173.353 134.956 173.575 135.692 173.781 136.372C173.781 136.372 173.878 136.686 174.021 137.119C174.549 138.801 174.549 140.604 174.021 142.285" stroke="#263238" stroke-miterlimit="10"/>
<path d="M173.775 142.936C173.849 142.731 173.929 142.52 174.004 142.309" stroke="#263238" stroke-miterlimit="10"/>
<path d="M225.587 136.56C220.661 140.813 212.527 140.453 209.656 140.174C209.439 139.613 209.076 139.12 208.604 138.748C208.132 138.375 207.569 138.136 206.973 138.056L194.986 136.549C195.932 133.285 196.137 129.85 195.585 126.497C195.84 126.884 195.968 127.341 195.951 127.804L224.582 133.221H224.696C224.831 133.301 224.96 133.389 225.084 133.484C226.186 134.328 226.546 135.733 225.587 136.56Z" fill="#263238" stroke="#263238" stroke-linecap="round" stroke-linejoin="round"/>
<path d="M95.9234 140.676L81.8474 148.382L82.4182 155.1L120.993 152.714L140.971 145.145L104.902 138.941C101.802 138.59 98.6694 139.196 95.9234 140.676Z" fill="#263238" stroke="#263238" stroke-miterlimit="10"/>
<path d="M174.003 142.308L173.729 142.228C171.001 141.417 151.297 135.618 150.515 135.818C149.733 136.017 129.595 136.902 129.595 136.902L172.154 146.412C172.353 146.069 172.553 145.704 172.753 145.321L172.782 145.264L173.78 142.981V142.947" fill="#263238"/>
<path d="M174.003 142.308L173.729 142.228C171.001 141.417 151.297 135.618 150.515 135.818C149.733 136.017 129.595 136.902 129.595 136.902L172.154 146.412C172.353 146.069 172.553 145.704 172.753 145.321L172.782 145.264L173.78 142.981V142.947" stroke="#263238" stroke-miterlimit="10"/>
<path d="M183.89 150.345C172.08 158.661 168.278 178.925 168.193 179.456H168.05L167.371 179.496L151.959 180.483L151.879 180.312C144.738 164.329 131.992 164.426 131.992 164.426C119.897 163.285 115.764 169.821 114.942 177.555C114.749 179.607 114.736 181.671 114.902 183.725C109.56 184.211 105.376 184.599 104.057 184.747C104.21 184.595 104.342 184.425 104.451 184.239C107.807 178.246 108.795 173.211 111.078 168.879C111.77 168.47 112.435 168.018 113.07 167.526L113.133 167.48C113.674 167.074 114.178 166.621 114.64 166.127C114.975 165.794 115.293 165.443 115.593 165.077C115.593 165.077 117.768 161.361 123.253 157.999C126.912 155.756 132.055 153.673 139.019 152.948C144.362 152.377 149.99 151.943 155.469 151.578L183.89 150.345Z" fill="#FB855E" stroke="#263238" stroke-miterlimit="10"/>
<path d="M111.078 168.879C108.794 173.228 107.813 178.263 104.485 184.222C104.376 184.408 104.244 184.578 104.091 184.73C103.953 184.744 103.815 184.767 103.68 184.798C99.3989 187.036 92.1782 187.698 84.8777 187.652H84.09H83.3422C83.0283 187.652 82.7086 187.652 82.389 187.652C81.4471 187.624 80.5224 187.59 79.6091 187.538C79.1982 187.538 78.7872 187.498 78.3819 187.47H78.1479L76.2813 187.344L75.3738 187.27L74.4662 187.196C72.6168 187.042 70.853 186.859 69.2605 186.671L67.9533 186.505L67.4738 186.442C64.8253 186.106 62.7761 185.763 61.7087 185.535C59.5339 185.072 57.9985 184.964 55.2529 183.851C54.6336 179.754 53.5101 175.748 51.908 171.927C49.3051 165.916 45.3152 161.259 39.7841 162.794C36.2337 163.77 34.527 166.733 33.8478 170.3C33.829 170.362 33.8156 170.425 33.8078 170.488C32.4607 177.955 35.4803 187.926 35.4803 187.926L30.9138 185.112L33.2427 184.462L30.0234 170.266L32.4322 168.097L34.3615 162.897C34.3615 162.897 43.0092 157.32 43.7227 156.321L44.8186 156.275C48.1122 156.766 51.6283 159.078 52.8099 160.271C54.3739 161.829 55.4927 163.776 57.0053 165.38C59.9563 168.525 60.0134 169.176 64.4999 170.911C64.4999 170.911 64.7682 170.974 65.282 171.076C70.2537 172.075 97.3783 177.036 111.078 168.879Z" fill="#FB855E" stroke="#263238" stroke-miterlimit="10"/>
<path d="M114.634 166.11C114.172 166.604 113.668 167.057 113.127 167.463C113.656 167.043 114.159 166.591 114.634 166.11Z" fill="#FB855E" stroke="#263238" stroke-miterlimit="10"/>
<path d="M123.247 157.982C117.762 161.344 115.587 165.06 115.587 165.06C115.288 165.426 114.969 165.777 114.634 166.111C114.172 166.604 113.668 167.057 113.127 167.463L113.064 167.509C111.974 168.291 111.301 168.417 111.072 168.862C108.789 173.211 107.807 178.246 104.479 184.205C104.371 184.391 104.238 184.561 104.086 184.713C103.947 184.727 103.81 184.75 103.675 184.782C99.3935 187.019 92.1729 187.681 84.8723 187.636H84.0846H83.3368C83.0229 187.636 82.7032 187.636 82.3836 187.636C81.4418 187.607 80.5171 187.573 79.6038 187.521C79.1928 187.521 78.7818 187.481 78.3765 187.453H78.1425L76.276 187.327L75.3684 187.253L74.4608 187.179C72.6114 187.025 70.8476 186.842 69.2551 186.654L67.9479 186.488L67.4685 186.425C67.029 185.74 67.4685 180.535 67.4685 180.535C67.4685 180.535 66.207 175.934 65.3165 171.168C64.7457 168.097 64.3176 164.946 64.4717 162.914C64.8884 157.714 69.9458 154.392 69.9458 154.392C75.4883 151.789 81.8413 148.473 81.8413 148.473L82.4121 155.185L120.987 152.805L123.247 157.982Z" fill="#FB855E" stroke="#263238" stroke-miterlimit="10"/>
<path d="M79.0615 147.879C79.0615 147.879 75.9278 146.737 73.4334 148.746L70.8876 153.512C73.7132 154.627 76.7829 154.975 79.7864 154.523C79.7864 154.523 79.5182 153.079 79.0615 147.879Z" fill="#FB855E" stroke="#263238" stroke-miterlimit="10"/>
<path d="M74.6085 149.3C74.351 149.495 74.1385 149.742 73.9857 150.027C73.8329 150.311 73.7435 150.625 73.7234 150.947C73.7033 151.269 73.7532 151.592 73.8695 151.893C73.9858 152.194 74.1659 152.466 74.3973 152.691C75.9042 154.209 79.0779 153.262 79.3119 153.262L78.8325 148.923C78.8325 148.923 77.4283 147.708 74.6085 149.3Z" fill="white"/>
<path d="M76.3726 180.866C84.2155 180.603 99.8213 179.987 103.2 179.153" stroke="#263238" stroke-miterlimit="10"/>
<path d="M71.852 181.026L74.5919 180.94" stroke="#263238" stroke-miterlimit="10"/>
<path d="M32.5693 168.022C32.6014 168.411 32.7127 168.788 32.8963 169.132C33.0799 169.475 33.3318 169.778 33.6367 170.02" fill="white"/>
<path d="M32.5693 168.022C32.6014 168.411 32.7127 168.788 32.8963 169.132C33.0799 169.475 33.3318 169.778 33.6367 170.02" stroke="#263238" stroke-miterlimit="10"/>
<path d="M168.05 179.438V179.444L167.371 179.478L168.05 179.438Z" fill="white" stroke="#263238" stroke-miterlimit="10"/>
<path d="M219.45 168.508C219.519 169.132 219.548 169.759 219.536 170.386C219.511 171.662 219.41 172.935 219.233 174.199C219.233 174.262 219.233 174.325 219.199 174.388C218.697 172.789 214.358 168.994 192.405 179.211L191.326 179.719C190.305 180.204 188.021 182.544 185.196 184.639C181.2 187.613 176.063 190.091 171.919 186.106C171.816 186.004 171.714 185.901 171.611 185.787C171.502 185.672 171.4 185.558 171.291 185.427C171.183 185.296 171.04 185.13 170.914 184.965C170.789 184.799 170.663 184.639 170.549 184.468L170.441 184.291C169.602 182.776 168.84 181.219 168.158 179.628C168.148 179.598 168.137 179.57 168.123 179.542C168.113 179.505 168.099 179.469 168.083 179.434H168.232H168.334C173.797 178.788 179.085 177.094 183.906 174.445C193.353 169.199 215.86 158.12 219.45 168.508Z" fill="#FB855E"/>
<path opacity="0.3" d="M219.45 168.508C219.519 169.132 219.548 169.759 219.536 170.386C219.511 171.662 219.41 172.935 219.233 174.199C219.233 174.262 219.233 174.325 219.199 174.388C218.697 172.789 214.358 168.994 192.405 179.211L191.326 179.719C190.305 180.204 188.021 182.544 185.196 184.639C181.2 187.613 176.063 190.091 171.919 186.106C171.816 186.004 171.714 185.901 171.611 185.787C171.502 185.672 171.4 185.558 171.291 185.427C171.183 185.296 171.04 185.13 170.914 184.965C170.789 184.799 170.663 184.639 170.549 184.468L170.441 184.291C169.602 182.776 168.84 181.219 168.158 179.628C168.148 179.598 168.137 179.57 168.123 179.542C168.113 179.505 168.099 179.469 168.083 179.434H168.232H168.334C173.797 178.788 179.085 177.094 183.906 174.445C193.353 169.199 215.86 158.12 219.45 168.508Z" fill="black"/>
<path d="M219.45 168.508C219.519 169.132 219.548 169.759 219.536 170.386C219.511 171.662 219.41 172.935 219.233 174.199C219.233 174.262 219.233 174.325 219.199 174.388C218.697 172.789 214.358 168.994 192.405 179.211L191.326 179.719C190.305 180.204 188.021 182.544 185.196 184.639C181.2 187.613 176.063 190.091 171.919 186.106C171.816 186.004 171.714 185.901 171.611 185.787C171.502 185.672 171.4 185.558 171.291 185.427C171.183 185.296 171.04 185.13 170.914 184.965C170.789 184.799 170.663 184.639 170.549 184.468L170.441 184.291C169.602 182.776 168.84 181.219 168.158 179.628C168.148 179.598 168.137 179.57 168.123 179.542C168.113 179.505 168.099 179.469 168.083 179.434H168.232H168.334C173.797 178.788 179.085 177.094 183.906 174.445C193.353 169.199 215.86 158.12 219.45 168.508Z" stroke="#263238" stroke-miterlimit="10"/>
<path d="M168.124 179.639C168.806 181.23 169.568 182.787 170.407 184.302L170.241 184.062C170.121 183.88 170.002 183.686 169.887 183.492C169.773 183.298 169.688 183.155 169.596 182.978C169.505 182.801 169.465 182.744 169.396 182.618C169.328 182.493 169.277 182.379 169.214 182.259L168.968 181.745C168.888 181.568 168.803 181.391 168.729 181.208C168.535 180.712 168.323 180.192 168.124 179.639Z" fill="#FB855E" stroke="#263238" stroke-miterlimit="10"/>
<path d="M219.045 166.647C219.261 167.247 219.398 167.873 219.45 168.508C215.86 158.119 193.353 169.199 183.872 174.422C179.05 177.07 173.763 178.764 168.3 179.41H168.198C168.226 179.268 168.409 178.269 168.768 176.762C168.985 175.906 169.254 174.867 169.596 173.708C169.784 173.069 170.001 172.389 170.23 171.676C170.698 170.249 171.257 168.696 171.913 167.11C172.57 165.523 173.323 163.845 174.197 162.201L174.728 161.213C174.904 160.888 175.093 160.557 175.298 160.237C175.504 159.917 175.578 159.746 175.726 159.512C175.822 159.349 175.924 159.183 176.035 159.016C176.177 158.787 176.326 158.553 176.48 158.325C176.634 158.097 176.891 157.703 177.102 157.394C177.319 157.092 177.536 156.784 177.759 156.487C177.981 156.19 178.221 155.882 178.455 155.585C178.689 155.288 178.894 155.048 179.117 154.786C179.34 154.523 179.568 154.266 179.796 154.015C180.202 153.57 180.618 153.142 181.052 152.725C181.195 152.588 181.337 152.451 181.486 152.32C181.634 152.189 181.783 152.052 181.931 151.926C182.079 151.801 182.279 151.618 182.456 151.475L182.839 151.161L183.312 150.802L183.581 150.596L183.855 150.402C183.911 150.359 183.97 150.319 184.032 150.282C184.414 150.014 184.791 149.774 185.173 149.534C186.31 148.853 187.515 148.292 188.769 147.862C188.769 147.862 194.78 145.967 203.61 146.241C207.306 146.342 210.982 146.819 214.581 147.662C215.823 147.955 217.013 148.436 218.109 149.089C216.271 151.644 215.406 154.772 215.671 157.908C216.002 161.664 217.846 164.684 218.737 166.208C218.789 166.288 218.833 166.374 218.868 166.465C218.93 166.522 218.989 166.583 219.045 166.647Z" fill="#FB855E"/>
<path opacity="0.2" d="M172.724 165.763C174.534 161.722 179.272 158.04 179.272 158.04C193.958 155.871 215.803 155.22 215.598 157.247H215.712C215.608 154.312 216.479 151.426 218.189 149.038C217.093 148.385 215.903 147.904 214.661 147.611C211.062 146.768 207.386 146.292 203.691 146.19C194.843 145.916 188.85 147.811 188.85 147.811C187.596 148.241 186.39 148.802 185.254 149.484C184.86 149.723 184.483 149.963 184.112 150.231C184.051 150.268 183.992 150.308 183.935 150.351L183.661 150.545L183.393 150.751L182.919 151.11L182.537 151.424C182.36 151.567 182.183 151.721 182.011 151.875C181.84 152.029 181.709 152.132 181.566 152.269C181.424 152.406 181.275 152.538 181.132 152.674C180.699 153.091 180.282 153.519 179.877 153.965C179.648 154.216 179.414 154.473 179.197 154.735C178.98 154.998 178.758 155.266 178.535 155.534C178.313 155.803 178.067 156.134 177.839 156.436C177.611 156.739 177.399 157.041 177.182 157.344C176.971 157.652 176.76 157.966 176.56 158.274C176.36 158.582 176.258 158.736 176.115 158.965C175.972 159.193 175.904 159.296 175.807 159.461C175.658 159.695 175.516 159.941 175.379 160.186C175.242 160.432 174.996 160.837 174.808 161.162L174.277 162.15C173.506 163.617 172.827 165.095 172.222 166.539H172.342L172.724 165.763Z" fill="black"/>
<path opacity="0.1" d="M218.96 166.408C218.925 166.318 218.881 166.232 218.828 166.151C217.938 164.627 216.094 161.585 215.763 157.852C215.763 157.652 215.735 157.447 215.723 157.241H215.609C215.792 155.215 193.97 155.865 179.283 158.034C179.283 158.034 174.545 161.716 172.736 165.757L172.296 166.557H172.177C172.108 166.728 172.028 166.905 171.96 167.076C171.303 168.68 170.744 170.233 170.276 171.642C170.047 172.356 169.831 173.035 169.642 173.674C169.3 174.816 169.031 175.872 168.814 176.728C168.438 178.264 168.244 179.234 168.244 179.377H168.346C173.809 178.731 179.097 177.037 183.918 174.388C193.399 169.165 215.883 158.086 219.496 168.474C219.444 167.839 219.308 167.213 219.091 166.614C219.051 166.543 219.007 166.474 218.96 166.408Z" fill="black"/>
<path d="M219.045 166.647C219.261 167.247 219.398 167.873 219.45 168.508C215.86 158.119 193.353 169.199 183.872 174.422C179.05 177.07 173.763 178.764 168.3 179.41H168.198C168.226 179.268 168.409 178.269 168.768 176.762C168.985 175.906 169.254 174.867 169.596 173.708C169.784 173.069 170.001 172.389 170.23 171.676C170.698 170.249 171.257 168.696 171.913 167.11C172.57 165.523 173.323 163.845 174.197 162.201L174.728 161.213C174.904 160.888 175.093 160.557 175.298 160.237C175.504 159.917 175.578 159.746 175.726 159.512C175.822 159.349 175.924 159.183 176.035 159.016C176.177 158.787 176.326 158.553 176.48 158.325C176.634 158.097 176.891 157.703 177.102 157.394C177.319 157.092 177.536 156.784 177.759 156.487C177.981 156.19 178.221 155.882 178.455 155.585C178.689 155.288 178.894 155.048 179.117 154.786C179.34 154.523 179.568 154.266 179.796 154.015C180.202 153.57 180.618 153.142 181.052 152.725C181.195 152.588 181.337 152.451 181.486 152.32C181.634 152.189 181.783 152.052 181.931 151.926C182.079 151.801 182.279 151.618 182.456 151.475L182.839 151.161L183.312 150.802L183.581 150.596L183.855 150.402C183.911 150.359 183.97 150.319 184.032 150.282C184.414 150.014 184.791 149.774 185.173 149.534C186.31 148.853 187.515 148.292 188.769 147.862C188.769 147.862 194.78 145.967 203.61 146.241C207.306 146.342 210.982 146.819 214.581 147.662C215.823 147.955 217.013 148.436 218.109 149.089C216.271 151.644 215.406 154.772 215.671 157.908C216.002 161.664 217.846 164.684 218.737 166.208C218.789 166.288 218.833 166.374 218.868 166.465C218.93 166.522 218.989 166.583 219.045 166.647V166.647Z" stroke="#263238" stroke-miterlimit="10"/>
<path d="M63.5917 171.996C63.5917 171.996 59.0253 171.779 58.9796 173.708C58.934 175.637 64.5107 184.976 65.1443 184.759C65.7779 184.542 65.7722 179.559 65.7722 179.559L63.5917 171.996Z" fill="#263238" stroke="#263238" stroke-miterlimit="10"/>
<path d="M146.713 164.198L155.355 176.334L157.701 175.9L153.209 164.992L146.713 164.198Z" fill="#263238" stroke="#263238" stroke-miterlimit="10"/>
<path d="M204.341 146.143C204.118 146.143 203.901 146.143 203.679 146.183C194.831 145.909 188.838 147.804 188.838 147.804C187.584 148.234 186.379 148.795 185.242 149.477C183.735 150.259 182.747 150.847 183.227 149.682C183.247 149.632 183.272 149.585 183.301 149.54C184.112 147.976 187.868 145.544 187.868 145.544H187.936L204.341 146.143Z" fill="#FB855E" stroke="#263238" stroke-miterlimit="10"/>
<path d="M133.789 134.729C138.772 135.688 142.682 136.287 147.631 135.962C147.631 135.962 150.44 133.364 151.764 133.65" stroke="#263238" stroke-miterlimit="10"/>
<path d="M168.124 179.438H168.193" stroke="#263238" stroke-miterlimit="10"/>
<path d="M189.158 197.517H188.25" stroke="#263238" stroke-miterlimit="10"/>
<path d="M179.26 158.033C179.26 158.033 174.522 161.715 172.713 165.756L172.273 166.555L199.13 160.63L204.113 159.329C207.432 158.492 210.933 158.746 214.096 160.054L216.174 160.705C215.675 159.622 215.478 158.425 215.603 157.24C215.769 155.219 193.947 155.87 179.26 158.033Z" fill="white"/>
<path d="M183.889 150.345L185.259 157.314" stroke="#263238" stroke-miterlimit="10"/>
<path d="M188.244 197.527C188.136 197.602 188.027 197.676 187.913 197.744" stroke="#263238" stroke-miterlimit="10"/>
<path d="M221.295 176.146H221.288" stroke="#263238" stroke-miterlimit="10"/>
<path d="M198.24 195.445C197.937 195.617 197.618 195.756 197.286 195.861H197.269C196.01 196.233 194.724 196.504 193.422 196.672H193.382C191.099 197.009 188.987 197.168 188.987 197.168L189.192 196.82C189.702 196.407 190.127 195.899 190.442 195.325C190.688 194.857 190.933 194.32 191.173 193.726C192.358 192.66 193.486 191.532 194.552 190.347C194.552 190.347 196.921 188.943 198.251 189.371C199.581 189.799 200.192 194.252 198.24 195.445Z" fill="white" stroke="#263238" stroke-miterlimit="10"/>
<path d="M197.2 191.003C197.2 191.003 195.676 192.196 196.35 194.902C196.35 194.902 197.76 193.709 197.2 191.003Z" fill="#263238" stroke="#263238" stroke-miterlimit="10"/>
<path d="M216.899 187.909C216.899 187.909 218.937 184.393 220.443 184.941C221.123 185.186 221.471 188.12 220.523 188.896C219.576 189.673 215.957 190.038 215.957 190.038C215.957 190.038 216.454 188.896 216.899 187.909Z" fill="white" stroke="#263238" stroke-miterlimit="10"/>
<path d="M220.455 185.729C220.455 185.729 219.718 186.505 220.089 188.274C220.101 188.286 220.769 187.498 220.455 185.729Z" fill="#263238"/>
<path d="M52.2853 176.106C52.9361 183.526 49.2315 189.594 44.0201 189.594C38.8086 189.594 34.0196 183.549 33.3746 176.106C32.7296 168.663 36.4227 162.601 41.6341 162.601C42.3328 162.602 43.0274 162.708 43.6947 162.915C48.05 164.256 51.7145 169.65 52.2853 176.106Z" fill="#5C5C5C" stroke="#263238" stroke-linecap="round" stroke-linejoin="round"/>
<path d="M48.0891 175.044C48.66 181.443 46.1655 186.626 42.5466 186.626C38.9277 186.626 35.5372 181.437 34.9778 175.044C34.4184 168.651 37.261 163.794 40.9084 163.794C44.5559 163.794 47.5241 168.64 48.0891 175.044Z" fill="#263238" stroke="#263238" stroke-miterlimit="10"/>
<path d="M43.3265 185.926C46.2454 185.591 48.0528 180.452 47.3634 174.448C46.6741 168.444 43.749 163.849 40.8301 164.184C37.9112 164.519 36.1037 169.658 36.7931 175.662C37.4825 181.666 40.4075 186.261 43.3265 185.926Z" fill="#BFBFBF"/>
<path d="M75.8193 171.498C82.3587 171.706 88.9045 171.431 95.4035 170.676L107.328 169.295" stroke="#263238" stroke-miterlimit="10"/>
<path d="M71.2753 171.311L73.4386 171.402" stroke="#263238" stroke-miterlimit="10"/>
<path d="M67.485 171.14L69.8481 171.248" stroke="#263238" stroke-miterlimit="10"/>
<path d="M152.33 133.488C152.33 133.488 150.046 133.226 147.632 135.943L150.486 135.8L152.33 133.488Z" fill="#263238" stroke="#263238" stroke-miterlimit="10"/>
<path d="M90.705 153.679L103.114 139.637L111.996 140.927L102.098 152.862L90.705 153.679Z" fill="white"/>
<path d="M104.913 152.794L114.103 141.264L116.54 141.675L107.995 152.657L104.913 152.794Z" fill="white"/>
<path d="M87.3489 145.772L82.3258 148.558L82.4628 150.727L87.3489 145.772Z" fill="white"/>
<path d="M132.197 144.454C132.278 144.939 132.216 145.436 132.021 145.887C131.826 146.337 131.504 146.722 131.096 146.994L127.585 149.334L138.859 145.31L132.197 144.454Z" fill="white"/>
<path d="M134.515 137.199L148.351 140.178C148.351 140.178 149.704 137.398 156.485 137.941L159.202 138.346L151.605 136.588V137.13L147.13 137.672L142.923 136.856" fill="white"/>
<path d="M114.502 167.938C114.599 168.023 127.516 166.796 127.465 166.796" stroke="#FB855E" stroke-miterlimit="10"/>
<path d="M112.277 171.431C115.531 171.157 121.376 170.969 121.53 170.969" stroke="#FB855E" stroke-miterlimit="10"/>
<path d="M113.891 174.188C114 174.228 119.291 174.073 120.712 173.971" stroke="#FB855E" stroke-miterlimit="10"/>
<path d="M109.833 178.737C109.833 178.497 115.678 178.246 117.916 178.092" stroke="#FB855E" stroke-miterlimit="10"/>
<path d="M113.492 183.201L117.562 182.921" stroke="#FB855E" stroke-miterlimit="10"/>
<path d="M33.7341 166.739C35.4978 166.848 35.4465 166.791 37.1931 166.899" stroke="#FB855E" stroke-miterlimit="10"/>
<path d="M32.5974 171.437L36.6558 171.785" stroke="#FB855E" stroke-miterlimit="10"/>
<path d="M31.838 173.211L33.6588 173.365" stroke="#FB855E" stroke-miterlimit="10"/>
<path d="M172.285 154.86C180.74 153.276 189.322 152.465 197.925 152.439" stroke="#FB855E" stroke-miterlimit="10"/>
<path d="M175.11 156.155C178.073 155.619 181.077 155.339 184.088 155.316" stroke="#FB855E" stroke-miterlimit="10"/>
<path d="M167.41 168.588L181.851 166.904" stroke="#FB855E" stroke-miterlimit="10"/>
<path d="M165.378 170.837L175.139 169.564" stroke="#FB855E" stroke-miterlimit="10"/>
<path d="M33.6357 184.804C33.8355 185.083 34.549 185.414 36.3813 186.025" stroke="#FB855E" stroke-miterlimit="10"/>
<path d="M55.0646 174.588C58.0773 175.007 61.1111 175.257 64.1518 175.336" stroke="#FB855E" stroke-miterlimit="10"/>
<path d="M57.9475 177.298C59.701 177.542 61.4686 177.671 63.2389 177.686" stroke="#FB855E" stroke-miterlimit="10"/>
<path d="M58.9635 179.924C60.6478 180.189 62.3458 180.359 64.0493 180.432" stroke="#FB855E" stroke-miterlimit="10"/>
<path d="M147.261 182.242L161.303 181.711" stroke="#5C5C5C" stroke-miterlimit="10"/>
<path d="M148.077 184.194L153.163 183.994" stroke="#5C5C5C" stroke-miterlimit="10"/>
<path d="M147.267 186.643L159.882 186.438" stroke="#5C5C5C" stroke-miterlimit="10"/>
<path d="M146.856 191.328L161.508 190.495" stroke="#5C5C5C" stroke-miterlimit="10"/>
<path d="M146.856 195.216L155.6 195.021" stroke="#5C5C5C" stroke-miterlimit="10"/>
<path d="M144.824 199.024L151.331 198.624" stroke="#5C5C5C" stroke-miterlimit="10"/>
<path d="M139.532 202.91C141.097 202.344 142.753 202.069 144.418 202.1" stroke="#5C5C5C" stroke-miterlimit="10"/>
<path d="M46.0974 187.944C48.8724 187.526 51.6877 187.443 54.4825 187.699" stroke="#5C5C5C" stroke-miterlimit="10"/>
<path d="M48.3867 185.21H51.6403" stroke="#5C5C5C" stroke-miterlimit="10"/>
<path d="M49.1966 182.927L53.4719 182.738" stroke="#5C5C5C" stroke-miterlimit="10"/>
<path d="M50.618 180.689L53.8772 180.495" stroke="#5C5C5C" stroke-miterlimit="10"/>
<path d="M50.8286 178.058L53.2717 178.24" stroke="#5C5C5C" stroke-miterlimit="10"/>
<path d="M193.463 183.303L215.227 181.02" stroke="#5C5C5C" stroke-miterlimit="10"/>
<path d="M190.191 186.214L207.481 184.559" stroke="#5C5C5C" stroke-miterlimit="10"/>
<path d="M187.343 188.857C193.856 188.451 195.688 188.04 202.4 187.43" stroke="#5C5C5C" stroke-miterlimit="10"/>
<path d="M170.052 191.42C170.458 191.825 186.937 191.009 186.731 191.009" stroke="#263238" stroke-miterlimit="10"/>
<path d="M172.29 193.857H171.628C176.326 193.646 177.154 193.441 181.851 193.224" stroke="#263238" stroke-miterlimit="10"/>
<path d="M171.069 189.69H176.777" stroke="#263238" stroke-miterlimit="10"/>
<path d="M173.512 195.992L186.532 195.599" stroke="#263238" stroke-miterlimit="10"/>
<path d="M128.008 69.0213C145.902 69.0213 160.407 54.5159 160.407 36.6225C160.407 18.7291 145.902 4.22363 128.008 4.22363C110.115 4.22363 95.6093 18.7291 95.6093 36.6225C95.6093 54.5159 110.115 69.0213 128.008 69.0213Z" fill="white" stroke="#263238" stroke-miterlimit="10"/>
<path d="M155.686 53.4671C152.779 58.244 148.685 62.1871 143.802 64.9129C138.92 67.6386 133.415 69.0543 127.823 69.0221C122.231 68.9899 116.743 67.511 111.892 64.7292C107.041 61.9474 102.993 57.9575 100.141 53.1475L121.227 40.978L127.631 37.2734L128.287 37.6616L133.807 40.841L135.383 41.7485L155.686 53.4671Z" fill="#263238" stroke="#263238" stroke-miterlimit="10"/>
<path d="M157.177 37.2236V37.1143C157.18 37.1506 157.18 37.1872 157.177 37.2236Z" fill="#FB855E"/>
<path d="M107.22 24.0995C103.936 27.406 101.69 31.6002 100.758 36.1663H98.8574C99.0401 31.0648 100.564 26.1015 103.275 21.7764L107.22 24.0995Z" fill="#FB855E"/>
<path opacity="0.6" d="M107.22 24.0995C103.936 27.406 101.69 31.6002 100.758 36.1663H98.8574C99.0401 31.0648 100.564 26.1015 103.275 21.7764L107.22 24.0995Z" fill="white"/>
<path d="M117.659 17.8948C113.704 19.0327 110.109 21.1695 107.219 24.0995L103.275 21.7535C105.953 17.4817 109.689 13.974 114.12 11.5703L117.659 17.8948Z" fill="#FB855E"/>
<path opacity="0.5" d="M117.659 17.8948C113.704 19.0327 110.109 21.1695 107.219 24.0995L103.275 21.7535C105.953 17.4817 109.689 13.974 114.12 11.5703L117.659 17.8948Z" fill="white"/>
<path d="M128.441 8.05472L128.333 17.3132C126.998 17.0832 125.646 16.9686 124.292 16.9707C122.048 16.9701 119.816 17.2813 117.659 17.8954L114.108 11.5709C118.375 9.25617 123.153 8.04732 128.007 8.05472H128.441Z" fill="#FB855E"/>
<path opacity="0.4" d="M128.441 8.05472L128.333 17.3132C126.998 17.0832 125.646 16.9686 124.292 16.9707C122.048 16.9701 119.816 17.2813 117.659 17.8954L114.108 11.5709C118.375 9.25617 123.153 8.04732 128.007 8.05472H128.441Z" fill="white"/>
<path d="M142.649 11.9875L137.386 20.8521C134.645 19.0601 131.563 17.8551 128.333 17.3131L128.442 8.05469C133.436 8.12498 138.329 9.47935 142.649 11.9875Z" fill="#FB855E"/>
<path opacity="0.3" d="M142.649 11.9875L137.386 20.8521C134.645 19.0601 131.563 17.8551 128.333 17.3131L128.442 8.05469C133.436 8.12498 138.329 9.47935 142.649 11.9875Z" fill="white"/>
<path d="M153.158 22.433L144.185 27.4789C142.386 24.8444 140.084 22.5921 137.41 20.8519L142.673 11.9873C147.003 14.5161 150.613 18.1124 153.158 22.433Z" fill="#FB855E"/>
<path opacity="0.2" d="M153.158 22.433L144.185 27.4789C142.386 24.8444 140.084 22.5921 137.41 20.8519L142.673 11.9873C147.003 14.5161 150.613 18.1124 153.158 22.433Z" fill="white"/>
<path d="M157.17 36.8454L147.934 36.7313C147.351 33.4169 146.073 30.2635 144.184 27.4785L153.18 22.4326C155.747 26.8054 157.123 31.7749 157.17 36.8454Z" fill="#FB855E"/>
<path opacity="0.1" d="M157.17 36.8454L147.934 36.7313C147.351 33.4169 146.073 30.2635 144.184 27.4785L153.18 22.4326C155.747 26.8054 157.123 31.7749 157.17 36.8454Z" fill="white"/>
<path d="M157.182 37.1136C157.185 37.1497 157.185 37.186 157.182 37.2221C157.103 40.4307 156.551 43.6101 155.544 46.6575L147.93 44.9451L148.283 42.0911C148.283 41.72 148.318 41.349 148.318 40.9495V40.7211C148.308 39.3676 148.182 38.0174 147.941 36.6855L157.177 36.7997C157.179 36.851 157.179 36.9025 157.177 36.9538C157.184 37.0068 157.186 37.0603 157.182 37.1136Z" fill="#FB855E"/>
<path d="M100.861 46.0641L100.318 46.184C100.079 45.4762 99.8731 44.7513 99.6904 44.0207C99.1419 41.7956 98.8565 39.5139 98.8399 37.2224V37.1139C98.837 37.0759 98.837 37.0378 98.8399 36.9998C98.8399 36.7087 98.8399 36.429 98.8399 36.1436H100.741C100.433 37.6583 100.271 39.1988 100.255 40.7442C100.248 40.8202 100.248 40.8966 100.255 40.9726C100.266 41.8963 100.329 42.8186 100.444 43.7353C100.541 44.5184 100.68 45.2958 100.861 46.0641Z" fill="#FB855E"/>
<path opacity="0.7" d="M100.861 46.0641L100.318 46.184C100.079 45.4762 99.8731 44.7513 99.6904 44.0207C99.1419 41.7956 98.8565 39.5139 98.8399 37.2224V37.1139C98.837 37.0759 98.837 37.0378 98.8399 36.9998C98.8399 36.7087 98.8399 36.429 98.8399 36.1436H100.741C100.433 37.6583 100.271 39.1988 100.255 40.7442C100.248 40.8202 100.248 40.8966 100.255 40.9726C100.266 41.8963 100.329 42.8186 100.444 43.7353C100.541 44.5184 100.68 45.2958 100.861 46.0641Z" fill="white"/>
<path d="M127.632 3.98992V0" stroke="#263238" stroke-miterlimit="10"/>
<path d="M111.169 8.80171L108.977 5.00586" stroke="#263238" stroke-miterlimit="10"/>
<path d="M159.94 55.968L155.676 53.5078" stroke="#263238" stroke-miterlimit="10"/>
<path d="M99.5877 21.1251L95.3181 18.6592" stroke="#263238" stroke-miterlimit="10"/>
<path d="M164.939 37.3125H160.549" stroke="#263238" stroke-miterlimit="10"/>
<path d="M95.7806 37.3125H90.3237" stroke="#263238" stroke-miterlimit="10"/>
<path d="M159.938 18.6592L156.49 20.6513" stroke="#263238" stroke-miterlimit="10"/>
<path d="M100.375 53.0449L95.3181 55.9674" stroke="#263238" stroke-miterlimit="10"/>
<path d="M146.286 5.00586L144.368 8.32223" stroke="#263238" stroke-miterlimit="10"/>
<path d="M157.77 44.522L157.159 46.4741L155.532 46.1145L140.36 42.7297L133.825 41.2798C134.227 40.7054 134.543 40.0745 134.761 39.4076C135.022 38.6164 135.146 37.7862 135.126 36.9531L149.756 41.8278L157.77 44.522Z" fill="#BFBFBF" stroke="#263238" stroke-miterlimit="10"/>
<path d="M135.126 36.9713C135.159 38.5147 134.704 40.0292 133.825 41.298L127.957 39.9966L129.344 35.042L135.126 36.9713Z" fill="#263238"/>
<path d="M135.241 36.4518C135.274 37.9952 134.819 39.5097 133.939 40.7785C133.308 41.6941 132.474 42.4519 131.502 42.9932C130.238 43.7043 128.791 44.0244 127.345 43.913C125.899 43.8015 124.519 43.2636 123.379 42.3673C122.239 41.4709 121.39 40.2565 120.94 38.8776C120.491 37.4988 120.46 36.0175 120.853 34.6214C121.246 33.2253 122.044 31.977 123.146 31.0346C124.248 30.0922 125.606 29.498 127.046 29.3273C128.486 29.1566 129.944 29.417 131.237 30.0756C132.529 30.7342 133.596 31.7613 134.305 33.027C134.897 34.0729 135.219 35.2501 135.241 36.4518Z" fill="#BFBFBF" stroke="#263238" stroke-miterlimit="10"/>
<path d="M83.5714 92.2488C93.9886 87.5054 104.383 83.6468 114.851 81.1124C131.576 77.054 164.78 76.6602 164.78 76.6602" stroke="#263238" stroke-miterlimit="10"/>
<path d="M70.7905 98.4824C73.3249 97.1771 75.8554 95.9118 78.3822 94.6865" stroke="#263238" stroke-miterlimit="10"/>
<path d="M212.801 98.1338L213.714 98.2594" stroke="#263238" stroke-miterlimit="10"/>
<path d="M207.469 97.415L209.627 97.7004" stroke="#263238" stroke-miterlimit="10"/>
<path d="M200.312 96.501C201.568 96.6551 202.829 96.8092 204.085 96.9747" stroke="#263238" stroke-miterlimit="10"/>
<path d="M134.316 96.2275C144.469 94.512 154.758 93.7287 165.054 93.8872C175.825 94.0598 186.579 94.8106 197.27 96.1362" stroke="#263238" stroke-miterlimit="10"/>
<path d="M114.982 101.183C118.859 99.8377 122.803 98.6945 126.798 97.7578" stroke="#263238" stroke-miterlimit="10"/>
<path d="M160.972 68.7429L164.431 68.0465C211.026 62.0531 237.951 77.2936 237.951 77.2936C238.55 71.928 236.056 61.762 230.69 61.1626C228.367 60.9001 226.027 61.4816 224.098 62.8009C223.302 59.2952 221.186 56.2312 218.189 54.2463C215.192 52.2613 211.545 51.5083 208.007 52.1439C205.054 52.6714 202.353 54.1461 200.313 56.3448C198.273 58.5435 197.004 61.3468 196.699 64.3306V64.4219C196.311 63.7905 195.784 63.2563 195.158 62.8605C194.531 62.4647 193.823 62.2177 193.086 62.1387C191.811 61.9987 190.533 62.3634 189.524 63.1547C189.533 60.3584 188.472 57.6647 186.558 55.626C184.643 53.5874 182.022 52.3584 179.231 52.1912C176.439 52.024 173.69 52.9312 171.546 54.7268C169.402 56.5224 168.027 59.0702 167.702 61.8476C167.472 61.5945 167.192 61.3918 166.879 61.2523C166.567 61.1128 166.229 61.0395 165.887 61.0371C161.806 61.3738 160.738 67.2132 160.972 68.7429Z" fill="#FB855E"/>
<path opacity="0.3" d="M160.972 68.7429L164.431 68.0465C211.026 62.0531 237.951 77.2936 237.951 77.2936C238.55 71.928 236.056 61.762 230.69 61.1626C228.367 60.9001 226.027 61.4816 224.098 62.8009C223.302 59.2952 221.186 56.2312 218.189 54.2463C215.192 52.2613 211.545 51.5083 208.007 52.1439C205.054 52.6714 202.353 54.1461 200.313 56.3448C198.273 58.5435 197.004 61.3468 196.699 64.3306V64.4219C196.311 63.7905 195.784 63.2563 195.158 62.8605C194.531 62.4647 193.823 62.2177 193.086 62.1387C191.811 61.9987 190.533 62.3634 189.524 63.1547C189.533 60.3584 188.472 57.6647 186.558 55.626C184.643 53.5874 182.022 52.3584 179.231 52.1912C176.439 52.024 173.69 52.9312 171.546 54.7268C169.402 56.5224 168.027 59.0702 167.702 61.8476C167.472 61.5945 167.192 61.3918 166.879 61.2523C166.567 61.1128 166.229 61.0395 165.887 61.0371C161.806 61.3738 160.738 67.2132 160.972 68.7429Z" fill="white"/>
<path d="M58.3254 88.6514L60.1691 87.3957C85.8039 72.4007 105.263 74.6211 105.263 74.6211C104.281 71.3504 100.319 66.059 97.0488 67.0294C95.6354 67.4491 94.4199 68.3627 93.6239 69.6037C92.2961 67.7617 90.3093 66.5025 88.0767 66.0878C85.8442 65.6732 83.5377 66.1352 81.637 67.3776C80.0485 68.4124 78.8404 69.9366 78.1957 71.7194C77.5509 73.5023 77.5046 75.4467 78.0638 77.2582V77.3096C77.7091 77.058 77.3053 76.8843 76.8787 76.7999C76.4522 76.7156 76.0126 76.7224 75.5888 76.82C75.1651 76.9175 74.7668 77.1037 74.4201 77.3661C74.0734 77.6286 73.7862 77.9614 73.5773 78.3427C72.8819 76.7275 71.5979 75.4375 69.9861 74.7344C68.3742 74.0313 66.5552 73.9679 64.8983 74.557C63.2414 75.1461 61.8707 76.3436 61.0645 77.9064C60.2583 79.4692 60.0769 81.2803 60.5572 82.9719C60.3595 82.8845 60.1456 82.8393 59.9294 82.8393C59.7131 82.8393 59.4992 82.8845 59.3015 82.9719C56.9897 84.1592 57.806 87.8238 58.3254 88.6514Z" fill="#FB855E"/>
<path opacity="0.3" d="M58.3254 88.6514L60.1691 87.3957C85.8039 72.4007 105.263 74.6211 105.263 74.6211C104.281 71.3504 100.319 66.059 97.0488 67.0294C95.6354 67.4491 94.4199 68.3627 93.6239 69.6037C92.2961 67.7617 90.3093 66.5025 88.0767 66.0878C85.8442 65.6732 83.5377 66.1352 81.637 67.3776C80.0485 68.4124 78.8404 69.9366 78.1957 71.7194C77.5509 73.5023 77.5046 75.4467 78.0638 77.2582V77.3096C77.7091 77.058 77.3053 76.8843 76.8787 76.7999C76.4522 76.7156 76.0126 76.7224 75.5888 76.82C75.1651 76.9175 74.7668 77.1037 74.4201 77.3661C74.0734 77.6286 73.7862 77.9614 73.5773 78.3427C72.8819 76.7275 71.5979 75.4375 69.9861 74.7344C68.3742 74.0313 66.5552 73.9679 64.8983 74.557C63.2414 75.1461 61.8707 76.3436 61.0645 77.9064C60.2583 79.4692 60.0769 81.2803 60.5572 82.9719C60.3595 82.8845 60.1456 82.8393 59.9294 82.8393C59.7131 82.8393 59.4992 82.8845 59.3015 82.9719C56.9897 84.1592 57.806 87.8238 58.3254 88.6514Z" fill="white"/>
<path d="M254.79 109.596C243.889 107.224 232.771 105.994 221.615 105.926L218.093 106.143C218.053 104.596 219.931 98.9561 224.03 99.173C224.372 99.2218 224.7 99.3402 224.995 99.5208C225.289 99.7015 225.544 99.9406 225.742 100.223C226.458 97.5311 228.173 95.2131 230.539 93.7414C232.904 92.2697 235.741 91.755 238.473 92.3022C241.204 92.8493 243.624 94.4172 245.24 96.6864C246.856 98.9556 247.546 101.756 247.17 104.516C247.764 104.169 248.425 103.952 249.109 103.878C249.793 103.805 250.484 103.876 251.139 104.088C251.793 104.299 252.396 104.647 252.907 105.107C253.418 105.567 253.826 106.13 254.105 106.759C254.105 106.759 254.585 108.626 254.79 109.596Z" fill="#FB855E"/>
<path opacity="0.3" d="M254.79 109.596C243.889 107.224 232.771 105.994 221.615 105.926L218.093 106.143C218.053 104.596 219.931 98.9561 224.03 99.173C224.372 99.2218 224.7 99.3402 224.995 99.5208C225.289 99.7015 225.544 99.9406 225.742 100.223C226.458 97.5311 228.173 95.2131 230.539 93.7414C232.904 92.2697 235.741 91.755 238.473 92.3022C241.204 92.8493 243.624 94.4172 245.24 96.6864C246.856 98.9556 247.546 101.756 247.17 104.516C247.764 104.169 248.425 103.952 249.109 103.878C249.793 103.805 250.484 103.876 251.139 104.088C251.793 104.299 252.396 104.647 252.907 105.107C253.418 105.567 253.826 106.13 254.105 106.759C254.105 106.759 254.585 108.626 254.79 109.596Z" fill="white"/>
</svg>
