<svg width="318" height="260" viewBox="0 0 318 260" fill="none" xmlns="http://www.w3.org/2000/svg">
<path d="M247.599 209.745C247.599 209.849 204.434 209.932 151.197 209.932C97.9596 209.932 54.8152 209.849 54.8152 209.745C54.8152 209.64 97.9666 209.564 151.225 209.564C204.483 209.564 247.599 209.647 247.599 209.745Z" fill="#263238"/>
<path d="M229.889 221.77C229.889 221.867 196.899 221.95 156.209 221.95C115.518 221.95 82.5287 221.867 82.5287 221.77C82.5287 221.672 115.511 221.582 156.209 221.582C196.906 221.582 229.889 221.645 229.889 221.77Z" fill="#263238"/>
<path d="M265.899 50.3598H38.3507C27.305 50.3598 18.3507 59.3142 18.3507 70.3598V111.526C18.3507 122.572 27.305 131.526 38.3507 131.526H265.899C276.945 131.526 285.899 122.572 285.899 111.526V70.3598C285.899 59.3141 276.945 50.3598 265.899 50.3598Z" fill="#FF725E"/>
<path d="M286.281 240C286.281 251.046 277.327 260 266.281 260H37.9751C26.9294 260 17.9751 251.046 17.9751 240V70.0123C17.9751 58.9666 26.9294 50.0123 37.9751 50.0123H266.281C277.327 50.0123 286.281 58.9666 286.281 70.0123V240ZM18.6702 239.305C18.6702 250.351 27.6245 259.305 38.6702 259.305H265.586C276.632 259.305 285.586 250.351 285.586 239.305V70.7074C285.586 59.6617 276.632 50.7074 265.586 50.7074H38.6702C27.6245 50.7074 18.6702 59.6617 18.6702 70.7074V239.305Z" fill="#263238"/>
<path d="M121.019 121.762C121.244 122.016 121.167 122.088 120.911 121.864C120.51 121.518 120.138 121.139 119.799 120.731C118.654 119.395 117.753 117.868 117.137 116.22C116.517 114.572 116.188 112.829 116.164 111.069C116.157 110.539 116.187 110.01 116.254 109.484C116.27 109.129 116.404 109.136 116.402 109.492C116.4 109.866 116.397 110.403 116.421 111.062C116.601 114.525 117.849 117.847 119.994 120.571C120.42 121.087 120.775 121.486 121.019 121.762Z" fill="white"/>
<path d="M191.721 98.837C191.627 98.349 191.753 98.3209 191.853 98.8078C191.95 99.1058 192.027 99.41 192.082 99.7184C192.174 100.127 192.243 100.54 192.291 100.956C192.435 102.034 192.479 103.123 192.423 104.209C192.343 105.54 192.134 106.86 191.797 108.15C191.435 109.435 190.951 110.682 190.351 111.876C189.853 112.853 189.267 113.784 188.6 114.656C188.329 115.031 188.037 115.351 187.793 115.615C187.59 115.862 187.369 116.094 187.133 116.31C186.815 116.648 186.726 116.569 187.032 116.219C187.37 115.833 187.851 115.267 188.391 114.524C189.021 113.645 189.577 112.715 190.053 111.744C191.222 109.391 191.914 106.83 192.089 104.209C192.159 103.141 192.143 102.069 192.04 101.004C191.948 100.076 191.819 99.3423 191.721 98.837Z" fill="white"/>
<path d="M131.598 115.955C130.265 115.954 128.957 115.604 127.803 114.941C126.649 114.277 125.69 113.323 125.023 112.175C124.355 111.026 124.003 109.723 124 108.396C123.997 107.069 124.345 105.764 125.008 104.613L146.79 66.7681C147.452 65.6172 148.409 64.6619 149.563 63.9999C150.716 63.3379 152.026 62.9929 153.358 63.0001C154.689 62.9921 155.999 63.3368 157.153 63.9989C158.307 64.6609 159.264 65.6167 159.925 66.7681L181.942 104.485C182.625 105.632 182.99 106.939 183 108.272C183.01 109.605 182.665 110.917 181.999 112.074C181.334 113.231 180.372 114.192 179.212 114.858C178.052 115.523 176.736 115.871 175.397 115.864L131.59 116L131.598 115.955ZM153.388 65.2232C152.452 65.2226 151.532 65.4691 150.723 65.9377C149.913 66.4064 149.243 67.0803 148.78 67.8909L126.998 105.736C126.532 106.544 126.288 107.459 126.29 108.39C126.291 109.321 126.539 110.236 127.007 111.042C127.475 111.848 128.148 112.517 128.957 112.983C129.767 113.448 130.686 113.693 131.621 113.694L175.428 113.558C176.368 113.567 177.293 113.325 178.109 112.859C178.925 112.393 179.601 111.719 180.069 110.907C180.536 110.094 180.778 109.172 180.77 108.236C180.761 107.299 180.503 106.382 180.02 105.578L158.003 67.8985C157.541 67.0853 156.87 66.4091 156.059 65.9391C155.248 65.469 154.326 65.222 153.388 65.2232Z" fill="white"/>
<path d="M150 104.149C149.999 103.766 150.075 103.385 150.225 103.032C150.375 102.678 150.595 102.359 150.872 102.092C151.149 101.825 151.477 101.617 151.837 101.48C152.197 101.343 152.58 101.28 152.965 101.294C153.353 101.271 153.742 101.327 154.107 101.459C154.473 101.59 154.808 101.794 155.091 102.059C155.375 102.323 155.602 102.642 155.758 102.997C155.915 103.351 155.997 103.734 156 104.121C156.003 104.509 155.927 104.892 155.777 105.25C155.626 105.607 155.405 105.929 155.125 106.198C154.845 106.467 154.514 106.677 154.151 106.814C153.787 106.952 153.4 107.014 153.011 106.997C152.624 107.015 152.237 106.954 151.874 106.819C151.511 106.684 151.179 106.478 150.898 106.212C150.617 105.946 150.392 105.626 150.238 105.272C150.084 104.917 150.003 104.536 150 104.149ZM150.092 81H155.561L154.79 98.2316H151.132L150.092 81Z" fill="white"/>
<path d="M126 125C125.654 124.925 125.318 124.807 125.001 124.649C124.114 124.27 123.265 123.81 122.465 123.275C119.792 121.497 117.688 118.996 116.402 116.067C115.116 113.138 114.703 109.904 115.211 106.748C115.353 105.802 115.588 104.871 115.911 103.969C116.014 103.631 116.156 103.306 116.333 103C115.971 104.253 115.689 105.528 115.488 106.817C115.068 109.915 115.511 113.069 116.77 115.934C118.028 118.8 120.054 121.267 122.627 123.069C123.71 123.781 124.837 124.426 126 125Z" fill="white"/>
<path d="M116.998 124C116.998 124 116.79 123.89 116.462 123.627C116 123.263 115.572 122.864 115.183 122.436C113.866 121.03 112.829 119.424 112.12 117.691C111.407 115.958 111.028 114.125 111.001 112.274C110.993 111.716 111.028 111.159 111.105 110.607C111.115 110.399 111.161 110.194 111.241 110C111.313 110 111.241 110.877 111.297 112.266C111.503 115.908 112.939 119.402 115.407 122.267C116.39 123.357 117.046 123.949 116.998 124Z" fill="white"/>
<path d="M193.131 98C193.253 98.2579 193.343 98.5314 193.398 98.8136C193.497 99.1307 193.574 99.4544 193.631 99.7825C193.724 100.217 193.794 100.657 193.842 101.099C193.988 102.246 194.033 103.405 193.976 104.561C193.895 105.977 193.683 107.382 193.342 108.754C192.975 110.122 192.484 111.449 191.877 112.719C191.372 113.76 190.777 114.75 190.102 115.678C189.827 116.077 189.531 116.417 189.285 116.698C189.078 116.961 188.855 117.208 188.615 117.438C188.429 117.646 188.224 117.834 188.003 118C187.946 117.941 188.799 117.112 189.89 115.537C190.529 114.602 191.092 113.612 191.574 112.578C192.759 110.075 193.46 107.35 193.638 104.561C193.709 103.425 193.692 102.284 193.589 101.151C193.398 99.1538 193.06 98 193.131 98Z" fill="white"/>
<path d="M198.856 106C198.995 106.663 199.034 107.341 198.97 108.015C198.848 111.284 197.901 114.48 196.207 117.338C195.89 117.943 195.484 118.502 195 119C195.274 118.385 195.587 117.787 195.938 117.207C197.46 114.334 198.387 111.214 198.669 108.015C198.688 107.34 198.751 106.667 198.856 106Z" fill="white"/>
<path d="M18.51 156.556C18.5102 156.556 18.5101 156.556 18.5103 156.556C18.5158 156.555 33.6079 152.546 34.4974 153.268C37.9599 156.029 52.5276 155.107 59.6516 154.467C62.2679 154.232 64.9091 154.435 67.4371 155.149L74.3486 157.1C82.0125 159.264 87.6534 165.765 88.8295 173.641C90.1473 182.466 91.9237 193.59 93.3302 199.589C94.553 204.794 91.6166 211.872 89.8445 215.482C89.0746 217.05 88.3821 218.661 87.9176 220.345L81.0881 245.106C80.632 246.76 80.8767 248.528 81.7647 249.996C84.2817 254.156 81.2849 259.469 76.4229 259.466L38.4724 259.447C27.4307 259.441 18.4825 250.489 18.4825 239.447V156.592C18.4825 156.575 18.4938 156.56 18.51 156.556Z" fill="#FF725E"/>
<path d="M77.9934 188.765C78.0082 188.765 78.0111 188.799 77.9965 188.802C77.6003 188.864 77.0095 188.878 76.2588 188.968C74.137 189.201 72.0282 189.54 69.9404 189.983C67.2851 190.525 64.1641 191.311 60.6887 192.159C58.9509 192.576 57.1159 193.007 55.2044 193.389C54.2452 193.57 53.279 193.778 52.2711 193.876L51.5134 193.959H50.7488C50.2345 193.959 49.7201 194.001 49.1988 193.959C45.317 193.745 41.4598 193.208 37.6672 192.353C34.1917 191.658 31.0221 190.887 28.3807 190.31C25.7394 189.733 23.5915 189.288 22.1249 189.066C21.3811 188.927 20.7903 188.871 20.4011 188.815C20.3505 188.808 20.3558 188.765 20.4066 188.77C20.8045 188.809 21.3894 188.875 22.1388 188.982C23.6402 189.198 25.788 189.601 28.4363 190.157C31.0846 190.713 34.2265 191.443 37.7297 192.152C41.5143 192.997 45.3618 193.529 49.2335 193.744C49.7479 193.778 50.2623 193.744 50.7697 193.744H51.5273C51.7776 193.744 52.0209 193.688 52.2711 193.66C53.2651 193.57 54.2382 193.361 55.1905 193.181C57.102 192.805 58.9301 192.374 60.6678 191.964C64.1433 191.13 67.2782 190.352 69.9334 189.837C72.5863 189.258 75.2822 188.9 77.9934 188.765Z" fill="#FAFAFA"/>
<path d="M81.076 241.851C81.1133 241.881 81.0818 241.923 81.0424 241.896L81.0273 241.886C80.6867 241.629 80.1584 241.288 79.4772 240.85C77.5293 239.65 75.4546 238.668 73.2909 237.924C70.0795 236.831 66.7214 236.228 63.3302 236.138C59.1735 236.187 55.0254 236.526 50.9158 237.152C46.7969 237.767 42.6484 238.164 38.4876 238.341C35.0812 238.454 31.6741 238.138 28.3462 237.403C26.1043 236.894 23.9399 236.09 21.9096 235.011C21.2145 234.615 20.6584 234.316 20.3039 234.045C20.3004 234.043 20.328 234.008 20.3317 234.011C20.6932 234.233 21.2354 234.553 21.9513 234.935C23.9923 235.982 26.1605 236.76 28.4018 237.25C31.7185 237.963 35.1111 238.262 38.5015 238.139C42.6553 237.954 46.7967 237.552 50.9089 236.937C55.0269 236.306 59.1851 235.974 63.3511 235.943C66.7617 236.039 70.1374 236.658 73.3604 237.778C75.5307 238.539 77.6065 239.546 79.5468 240.781C80.2418 241.226 80.7423 241.587 81.076 241.851Z" fill="#FAFAFA"/>
<path d="M81.9032 252.194C81.9781 252.185 81.9966 252.275 81.9236 252.295C81.9191 252.296 81.9146 252.297 81.9101 252.298C81.4931 252.41 80.8883 252.569 80.1098 252.82C77.9204 253.531 75.7717 254.362 73.6733 255.308C70.5783 256.773 67.3498 257.936 64.0323 258.784C62.0551 259.232 60.0332 259.453 58.0058 259.444C55.832 259.411 53.6658 259.178 51.5345 258.749C47.1554 257.859 43.1308 256.483 39.426 255.419C36.162 254.413 32.8072 253.728 29.4097 253.376C27.12 253.146 24.8099 253.228 22.5422 253.619C21.7428 253.779 21.152 253.911 20.7141 254.036C20.6471 254.055 20.6335 254.015 20.7002 253.994C21.1103 253.869 21.7289 253.709 22.5283 253.536C24.8014 253.115 27.1217 253.01 29.4236 253.223C32.8345 253.558 36.2038 254.23 39.4816 255.232C43.1934 256.288 47.218 257.651 51.5762 258.533C53.6964 258.959 55.8507 259.191 58.0128 259.228C60.0233 259.238 62.0285 259.021 63.9906 258.582C67.2983 257.725 70.519 256.562 73.6107 255.107C75.7169 254.168 77.8779 253.358 80.082 252.681C80.8675 252.437 81.4722 252.291 81.9032 252.194Z" fill="#FAFAFA"/>
<g opacity="0.3">
<path opacity="0.3" d="M82.4173 240.398C82.5998 234.76 83.1854 228.6 83.4556 222.588C83.5664 220.122 86.8373 219.981 87.3811 222.389C87.4485 222.687 87.3554 222.571 87.2892 222.87C86.9436 224.428 86.5123 225.966 85.9971 227.477C84.8223 231.446 83.599 236.443 82.4243 240.419" fill="black"/>
</g>
<path d="M86.2124 217.996C86.2679 218.038 86.2405 218.072 86.1846 218.03C85.6223 217.6 85.0351 217.203 84.426 216.842C82.1484 215.541 79.6507 214.672 77.058 214.277C73.2246 213.7 69.3231 213.749 65.5055 214.423C61.189 215.118 56.5597 216.508 51.6454 217.676C46.7311 218.844 41.9141 219.761 37.5211 219.24C33.6445 218.822 29.8762 217.703 26.3996 215.938C25.0669 215.262 23.7969 214.468 22.6044 213.568C22.0969 213.144 21.6173 212.755 21.2142 212.372C20.811 211.99 20.4426 211.615 20.1368 211.267L19.3652 210.301C19.1865 210.058 19.0217 209.805 18.8717 209.543C18.8387 209.491 18.8729 209.47 18.9065 209.522C19.0455 209.717 19.1915 209.988 19.4139 210.266L20.1993 211.211C20.5121 211.552 20.8944 211.906 21.2837 212.296C21.6729 212.685 22.1734 213.06 22.6739 213.47C23.8674 214.358 25.1375 215.137 26.4691 215.799C29.9358 217.535 33.6864 218.635 37.5419 219.045C41.9002 219.539 46.7033 218.628 51.5967 217.467C56.4902 216.306 61.1334 214.916 65.4986 214.228C69.3363 213.558 73.2582 213.525 77.1066 214.131C79.7028 214.543 82.1992 215.437 84.4677 216.765C85.0732 217.14 85.6558 217.551 86.2124 217.996Z" fill="#FAFAFA"/>
<path d="M71.7547 242.233C71.8333 242.214 71.848 242.282 71.7689 242.299C71.7618 242.3 71.7548 242.302 71.7478 242.303L70.6287 242.574C69.6625 242.803 68.2584 243.116 66.5137 243.492C63.0382 244.235 58.1726 245.208 52.8621 246.189C47.5516 247.169 42.6581 247.968 39.1409 248.503C37.3823 248.767 35.9504 248.976 34.9704 249.101L33.8374 249.247C33.7395 249.26 33.7261 249.166 33.8235 249.15L34.9495 248.941L39.1201 248.246C42.5955 247.648 47.4612 246.814 52.8204 245.834C58.1795 244.854 62.9896 243.923 66.4859 243.234L70.6217 242.435L71.7547 242.233Z" fill="#263238"/>
<path d="M73.3292 217.933C73.3801 217.7 73.4499 217.714 73.4017 217.947C73.3531 218.218 73.3322 218.642 73.2071 219.142C72.9073 220.602 72.4408 222.022 71.8169 223.376C70.8884 225.377 69.6987 227.247 68.2789 228.936C66.5371 231.01 64.5376 232.853 62.3289 234.421C58.2698 237.179 53.8763 239.409 49.2542 241.059C47.5025 241.754 46.0637 242.226 45.0836 242.56L43.9367 242.942C43.8501 242.974 43.8223 242.902 43.9104 242.875C43.9122 242.874 43.914 242.873 43.9158 242.873L45.0419 242.428L49.2125 240.822C53.783 239.115 58.1364 236.875 62.1829 234.149C64.3442 232.586 66.3051 230.763 68.0217 228.721C69.4404 227.06 70.6368 225.221 71.5806 223.25C72.2198 221.916 72.716 220.518 73.0611 219.08C73.1859 218.588 73.271 218.199 73.3292 217.933Z" fill="#263238"/>
<path d="M44.4288 87.9972C42.4942 80.911 44.4315 72.7325 51.3416 70.2411C56.4426 68.4019 61.9715 68.1816 66.8264 70.4965C72.4706 73.1866 76.1824 78.6847 81.0828 82.5634C84.6555 85.3924 89.1111 87.6306 90.8975 91.822C92.4684 95.513 91.5161 99.7252 90.9809 103.701C90.4457 107.677 90.5778 112.299 93.5875 114.955C95.1654 116.345 97.2854 116.957 99.0787 118.062C102.693 120.293 104.744 124.464 105.397 128.662C105.578 129.827 105.666 130.996 105.686 132.169C105.779 137.633 101.223 141.923 95.8245 142.774L88.3553 143.95C87.7033 144.052 87.0569 143.736 86.7382 143.158C86.0187 141.853 84.0557 142.193 83.8173 143.664L83.5806 145.125C83.4248 146.086 82.6227 146.81 81.6508 146.867L72.1407 147.426C65.551 147.813 59.5904 143.532 57.8519 137.164L44.4288 87.9972Z" fill="#263238"/>
<path d="M42.9991 83.4681C40.2511 83.5735 38.0451 85.7726 37.9313 88.5204L34.1778 161.658C33.7816 170.138 41.664 177.645 50.7419 177.979C59.9171 178.34 63.8792 171.57 64.4213 163.007C64.461 162.382 64.5016 161.754 64.5428 161.128C65.175 151.527 74.0138 143.383 78.4581 134.849C79.3957 133.048 80.1914 130.918 80.7491 128.398C82.3964 120.953 82.7579 108.622 82.7301 98.5088C82.7237 96.3549 82.2821 94.2244 81.4318 92.2453C80.5815 90.2662 79.34 88.4794 77.782 86.9921C76.2239 85.5048 74.3813 84.3477 72.3649 83.5902C70.3485 82.8328 68.1998 82.4906 66.0478 82.5842L42.9991 83.4681Z" fill="#FFBE9D"/>
<path d="M79.6997 104.779C79.4425 105.015 78.0384 103.84 75.9601 103.722C73.8818 103.604 72.283 104.549 72.0745 104.278C71.9702 104.16 72.2413 103.722 72.9364 103.277C73.8745 102.704 74.9676 102.437 76.0644 102.513C77.1485 102.575 78.1852 102.979 79.0254 103.666C79.6371 104.202 79.8387 104.667 79.6997 104.779Z" fill="#263238"/>
<path d="M59.187 103.931C58.9368 104.174 57.5327 102.999 55.4474 102.874C53.3621 102.749 51.7703 103.708 51.5618 103.437C51.4576 103.319 51.7286 102.881 52.4237 102.436C53.3625 101.865 54.4551 101.597 55.5517 101.672C56.6366 101.73 57.6742 102.135 58.5128 102.825C59.1244 103.354 59.3121 103.826 59.187 103.931Z" fill="#263238"/>
<path d="M65.8254 119.841C65.8254 119.723 67.1322 119.577 69.2453 119.438C69.4017 119.438 69.5557 119.43 69.6983 119.409C70.2729 119.325 70.4922 118.682 70.387 118.111C70.2939 117.605 70.0636 117.135 69.9076 116.645L68.8143 113.21C66.9723 107.309 65.6794 102.471 65.9158 102.401C66.1521 102.332 67.8342 107.052 69.6762 112.953C70.1141 114.406 70.5381 115.796 70.9344 117.124C71.146 117.597 71.2331 118.113 71.192 118.624C71.1602 119.018 71.0227 119.421 70.7073 119.66C70.5485 119.781 70.3649 119.864 70.1697 119.904C69.868 119.966 69.5598 119.989 69.2522 119.973C67.1391 120.029 65.8254 119.96 65.8254 119.841Z" fill="#263238"/>
<path d="M65.5392 146.598C65.671 145.528 64.8632 144.577 63.7906 144.473C59.7061 144.076 55.7217 143.03 51.9855 141.384C47.9874 139.622 46.8125 140.639 50.1431 143.467C52.9111 145.817 57.2468 148.06 63.7617 148.179C64.6716 148.196 65.4278 147.501 65.5392 146.598Z" fill="#EB996E"/>
<path d="M64.0734 123.428C63.512 123.123 62.8821 122.967 62.2434 122.974C61.6047 122.982 60.9784 123.152 60.4242 123.47C60.0196 123.688 59.6629 123.984 59.3752 124.342C59.0874 124.701 58.8745 125.113 58.749 125.555C58.6298 125.984 58.6452 126.44 58.7931 126.86C59.086 127.692 59.9894 128.208 60.8677 128.128C60.9229 128.123 60.9779 128.116 61.0328 128.108C61.5278 128.03 61.9885 127.807 62.3565 127.466C63.1252 126.757 63.7443 125.902 64.1777 124.95C64.3319 124.704 64.4358 124.43 64.4835 124.144C64.5054 124.011 64.4882 123.874 64.4339 123.751C64.3796 123.627 64.2906 123.523 64.1777 123.449" fill="#EB996E"/>
<path d="M58.4506 98.0432C58.3741 98.641 56.2749 98.8217 53.9464 99.628C51.6178 100.434 49.8245 101.512 49.3935 101.081C49.2058 100.872 49.3935 100.281 50.0886 99.5724C50.9803 98.6787 52.0714 98.0093 53.2721 97.6192C54.4648 97.2024 55.7402 97.0785 56.9909 97.2577C57.9432 97.4107 58.4784 97.7513 58.4506 98.0432Z" fill="#263238"/>
<path d="M80.5338 101.609C79.9638 101.922 78.4485 100.914 76.4466 100.254C74.4448 99.5933 72.6514 99.3708 72.4081 98.7731C72.3108 98.4881 72.7279 98.1197 73.6037 97.932C74.8004 97.7276 76.0299 97.8403 77.1695 98.2587C78.3199 98.6358 79.3491 99.3124 80.1515 100.219C80.7215 100.907 80.8049 101.449 80.5338 101.609Z" fill="#263238"/>
<path d="M49.2544 75.1051C51.8679 78.8725 53.0774 81.7363 54.5093 88.3119C55.2044 91.5371 52.5283 93.7128 49.88 95.5826C49.5954 95.7842 49.2647 95.9112 48.9183 95.952C48.5719 95.9928 48.2208 95.946 47.8972 95.816C47.5735 95.686 47.2877 95.4769 47.0658 95.2078C46.8438 94.9387 46.693 94.6183 46.6269 94.2758L-nan -nanL46.6269 94.2758C46.6269 94.2758 47.1691 104.299 43.4226 108.678C41.657 110.729 41.4971 113.426 41.8308 115.712C42.2011 118.051 43.2556 120.228 44.8614 121.968C48.9207 126.514 49.8522 133.785 46.7799 139.075C45.8968 140.377 45.0824 141.725 44.3401 143.113C43.9623 143.942 43.7702 144.843 43.7771 145.754C43.8049 146.288 43.6273 146.811 43.2807 147.217C42.9342 147.623 42.4451 147.881 41.9142 147.937C29.4143 149.335 16.7957 149.305 4.30269 147.847C3.87386 147.795 3.47167 147.611 3.15167 147.321C2.83167 147.031 2.60965 146.649 2.5163 146.227C1.66828 142.057 3.45467 137.573 5.67202 133.82C8.1535 129.649 11.2745 125.624 12.2337 120.849C13.1373 116.359 12.0669 111.445 14.0201 107.295C16.4112 102.207 22.5489 99.9616 25.7324 95.3254C28.7422 90.9532 28.7005 85.0797 31.4113 80.5199C34.8868 74.6602 43.0889 72.1788 49.2474 75.0982" fill="#263238"/>
<path d="M49.7617 80.6659C54.4397 83.2656 56.4416 89.153 60.9736 91.9959C64.9973 94.5158 70.1037 94.1047 74.8387 93.5803C75.0419 93.5578 75.1864 93.3727 75.1591 93.1701C75.1019 92.7461 76.0019 92.4318 76.2844 92.753C76.3487 92.8261 76.4143 92.8981 76.4811 92.9691C76.8479 93.3502 77.311 93.6251 77.8212 93.7646C78.3315 93.9041 78.87 93.903 79.3797 93.7615C81.0201 93.1567 81.3051 90.9463 80.9436 89.2434C80.2936 86.5129 78.923 84.0069 76.9746 81.9866C73.5009 78.2168 68.7847 75.8255 63.6908 75.251C58.5969 74.6765 53.4666 75.9573 49.2404 78.8587" fill="#263238"/>
<path d="M32.3638 91.5927C33.2947 89.3073 33.5923 86.8131 33.2253 84.3728C32.8584 81.9325 31.8404 79.6362 30.2785 77.7256C28.7825 76.0104 26.8163 74.7715 24.6233 74.1624C22.4304 73.5533 20.1069 73.6007 17.9406 74.2988C15.9233 74.9152 14.1632 76.1749 12.929 77.8855C10.6699 81.1524 10.9271 86.0806 13.0471 89.431C14.095 91.0123 15.4886 92.3346 17.1228 93.298C18.7569 94.2613 20.5887 94.8405 22.4796 94.9917C26.1358 95.3393 29.8128 94.2966 33.2535 92.8578" fill="#263238"/>
<path d="M36.3003 147.68C36.3481 147.725 36.3077 147.783 36.2561 147.742C35.8838 147.444 35.5763 147.072 35.3524 146.651C34.9866 145.974 34.7775 145.223 34.7408 144.455C34.6973 143.438 34.8435 142.422 35.1717 141.459C35.8668 139.255 37.7783 137.288 39.2519 134.807C40.0483 133.523 40.4874 132.049 40.5239 130.539C40.4943 128.915 40.1224 127.317 39.4326 125.847C38.0911 122.761 35.9572 120.286 34.5183 117.693C33.8037 116.483 33.2455 115.187 32.8571 113.836C32.5307 112.646 32.4456 111.403 32.6068 110.18C32.7823 108.387 33.623 106.725 34.9632 105.522C35.3375 105.218 35.7544 104.97 36.2004 104.786C36.2618 104.757 36.2843 104.818 36.2243 104.85C35.3226 105.324 34.5479 106.013 33.9706 106.859C33.2982 107.844 32.9215 109.001 32.8849 110.193C32.7452 111.378 32.8445 112.579 33.1768 113.724C33.568 115.05 34.1262 116.321 34.8381 117.506C35.5332 118.764 36.4437 120.029 37.3335 121.357C38.2831 122.72 39.1067 124.167 39.7941 125.68C40.4924 127.208 40.8618 128.866 40.8784 130.546C40.8308 132.121 40.3628 133.654 39.523 134.987C37.9938 137.524 36.0475 139.443 35.3941 141.549C35.0605 142.476 34.9003 143.456 34.9215 144.441C34.9363 145.184 35.1143 145.915 35.4428 146.582C35.672 146.99 35.9613 147.36 36.3003 147.68Z" fill="#455A64"/>
<path d="M68.1266 92.0285C68.282 92.1429 68.2401 92.207 68.0843 92.0932C67.8262 91.9455 67.5799 91.7782 67.3475 91.5927C66.5094 90.8917 65.8032 90.0467 65.2622 89.0973C64.4801 87.69 63.8264 86.2151 63.309 84.6904C62.9892 83.8424 62.6487 82.9666 62.2177 82.0908C61.7708 81.1932 61.2377 80.3412 60.6259 79.5467C58.46 76.7344 55.4716 74.6668 52.0763 73.6315C51.0454 73.3454 49.9963 73.1318 48.9366 72.9922C48.8086 72.9754 48.8129 72.8543 48.9414 72.8669C50.0268 72.9307 51.1029 73.1054 52.1527 73.3882C53.7127 73.8203 55.2001 74.4808 56.5666 75.3484C59.1451 76.9442 61.2236 79.2323 62.5652 81.9518C62.9962 82.8484 63.3368 83.7382 63.6496 84.5862C64.1454 86.1017 64.7661 87.5734 65.5055 88.9861C66.0125 89.9274 66.6726 90.7777 67.4587 91.5023C67.7385 91.7407 67.9685 91.9121 68.1266 92.0285Z" fill="#455A64"/>
<path d="M78.9141 92.4824C78.7756 92.4816 78.6377 92.4629 78.504 92.4268C78.1181 92.3546 77.7408 92.2428 77.3779 92.0932C76.0359 91.5465 74.8322 90.7084 73.8538 89.6395C72.4095 88.0613 71.2057 86.279 70.281 84.3498C69.1619 82.2298 68.0915 79.8039 66.3815 77.67C64.7624 75.6741 62.584 74.2073 60.1257 73.4577C58.106 72.8529 56.0182 72.5049 53.9116 72.422C52.1113 72.3247 50.6446 72.3525 49.6298 72.3595H48.4412C48.3581 72.3696 48.3506 72.3063 48.4342 72.3039C48.6984 72.3039 49.1293 72.2482 49.602 72.2274C50.6099 72.1718 52.0765 72.1023 53.8977 72.1648C56.0346 72.2102 58.1565 72.535 60.2091 73.131C62.7542 73.8804 65.0127 75.3829 66.6874 77.4406C68.446 79.6371 69.5095 82.0908 70.6008 84.2039C71.5054 86.1129 72.6754 87.8844 74.0762 89.4657C75.0179 90.5284 76.1708 91.383 77.4613 91.975C78.358 92.3712 78.921 92.4824 78.9141 92.4824Z" fill="#455A64"/>
<path d="M32.6766 78.5807C32.7947 78.678 31.2864 80.7911 30.1951 83.8773C29.1038 86.9635 28.9578 89.6605 28.8049 89.6466C28.652 89.6327 28.645 86.8662 29.7641 83.6897C30.8832 80.5131 32.6071 78.5182 32.6766 78.5807Z" fill="#FF725E"/>
<path d="M0.00290778 127.764C0.00766644 127.749 0.0263373 127.746 0.0359158 127.757C0.436001 128.242 0.948591 128.622 1.52921 128.864C2.22542 129.143 2.98009 129.246 3.7257 129.162C4.71476 129.068 5.65107 128.672 6.40876 128.029C8.11869 126.639 9.05707 123.908 8.98061 121.009C8.98061 119.549 8.77903 118.02 8.63306 116.428C8.43562 114.778 8.46368 113.108 8.71647 111.465C8.86074 110.631 9.12286 109.821 9.49498 109.06C9.87385 108.334 10.3562 107.667 10.9269 107.079C12.0352 105.998 13.3154 105.107 14.7151 104.445C16.0358 103.75 17.3217 103.242 18.5173 102.714C19.6233 102.231 20.686 101.654 21.6939 100.99C23.1878 100.076 24.4039 98.7706 25.211 97.2159C25.4002 96.7824 25.5515 96.3337 25.6636 95.8748C25.732 95.5948 25.7588 95.5982 25.7046 95.8813C25.6242 96.3604 25.4841 96.8274 25.2875 97.2715C24.5029 98.8652 23.2867 100.207 21.7773 101.143C20.7658 101.819 19.6985 102.408 18.5868 102.902C17.3982 103.437 16.1123 103.979 14.8055 104.64C13.4304 105.301 12.1721 106.181 11.0798 107.246C10.5228 107.825 10.0544 108.483 9.68961 109.199C9.32738 109.943 9.07006 110.734 8.925 111.549C8.34807 114.885 9.19609 118.103 9.18219 121.051C9.16828 123.998 8.27856 126.75 6.50608 128.189C5.71944 128.847 4.74767 129.243 3.7257 129.322C2.96285 129.399 2.19291 129.282 1.4875 128.982C0.880391 128.745 0.362243 128.325 0.0050333 127.78C0.00184817 127.775 0.00107061 127.769 0.00290778 127.764Z" fill="#263238"/>
<path d="M88.3049 79.1436C88.2919 79.0993 88.3102 79.0913 88.3188 79.1366C88.4072 79.5626 88.3784 80.0046 88.2354 80.4156C87.9613 81.1706 87.4435 81.8127 86.7638 82.2407C86.0841 82.6686 85.2812 82.858 84.4819 82.7789C83.3819 82.6476 82.3448 82.1956 81.4999 81.4791C80.5414 80.6691 79.7321 79.6975 79.1088 78.6083C78.4137 77.4892 77.7881 76.252 76.961 75.1329C76.118 73.934 75.1252 72.8478 74.0068 71.9007C71.4321 69.7221 68.2878 68.3256 64.9451 67.876C61.6024 67.4264 58.2008 67.9426 55.142 69.3636C54.6415 69.5999 54.2523 69.7946 54.002 69.9405C53.9494 69.9713 53.9274 69.9325 53.9793 69.9003C54.3413 69.6756 54.7156 69.4709 55.1003 69.2871C56.5189 68.5973 58.0249 68.1039 59.5767 67.8205C62.1474 67.3316 64.7953 67.4297 67.3229 68.1073C69.8504 68.7849 72.1922 70.0246 74.1736 71.7339C75.3073 72.6913 76.312 73.7918 77.1625 75.0077C77.9967 76.1894 78.6153 77.4267 79.3034 78.5388C79.9143 79.6106 80.7042 80.5698 81.639 81.3748C82.456 82.0732 83.458 82.5199 84.5236 82.6607C85.4054 82.7615 86.2916 82.5119 86.9912 81.9656C87.5317 81.5657 87.9445 81.0176 88.1798 80.3878C88.3286 79.9909 88.3717 79.5621 88.3049 79.1436Z" fill="#263238"/>
<path d="M99.9243 115.132C99.8693 115.106 99.8764 115.096 99.9339 115.115C100.04 115.15 100.14 115.199 100.233 115.261C100.587 115.507 100.848 115.864 100.977 116.276C101.087 116.6 101.125 116.944 101.086 117.284C101.048 117.624 100.934 117.952 100.754 118.243C100.492 118.613 100.144 118.914 99.7392 119.118C99.3346 119.323 98.886 119.426 98.4325 119.417C97.8863 119.418 97.3458 119.305 96.8448 119.088C96.3438 118.87 95.8929 118.552 95.5201 118.152C94.6606 117.252 94.0124 116.172 93.6225 114.99C92.7119 112.522 92.6841 109.589 92.9691 106.649C93.2541 103.708 93.6642 100.851 93.5252 98.2727C93.4682 97.0556 93.2484 95.8516 92.8718 94.6929C92.5309 93.6953 92.036 92.7572 91.4051 91.9125C90.5184 90.6499 89.2741 89.6816 87.8324 89.1322C87.4349 89.0013 87.0291 88.8984 86.6177 88.8241C86.3893 88.7829 86.3908 88.7568 86.6229 88.7568C86.8033 88.7661 86.9824 88.7916 87.1581 88.8333C87.3956 88.8756 87.6284 88.9407 87.8532 89.0279C89.3332 89.5556 90.6147 90.5264 91.5233 91.8083C92.1721 92.6684 92.6811 93.6255 93.0317 94.6443C93.4252 95.817 93.659 97.0375 93.7268 98.2727C93.9005 100.879 93.4765 103.715 93.1846 106.683C92.8926 109.651 92.9274 112.536 93.8102 114.969C94.187 116.122 94.8135 117.178 95.6452 118.062C95.9987 118.449 96.4278 118.759 96.9061 118.973C97.3844 119.187 97.9016 119.3 98.4256 119.306C98.8647 119.32 99.3005 119.226 99.6953 119.034C100.09 118.841 100.432 118.555 100.692 118.201C100.865 117.926 100.977 117.615 101.018 117.292C101.058 116.969 101.028 116.641 100.928 116.331C100.812 115.929 100.568 115.575 100.233 115.323C100.106 115.222 99.9968 115.166 99.9243 115.132Z" fill="#263238"/>
<path d="M30.0128 156.995C32.349 155.965 35.1169 156.958 36.748 158.922C39.4961 162.232 44.4917 166.475 51.8886 166.162C56.7571 165.957 59.8588 164.093 61.8261 161.948C63.8795 159.708 68.3434 158.546 70.3868 160.794C71.3033 161.802 71.5602 163.247 71.0473 164.509L67.3538 173.602C65.9465 177.066 63.2344 179.839 59.8021 181.322C56.8642 182.592 53.5846 182.836 50.4912 182.015L46.7447 181.021C41.8659 179.727 37.6569 176.636 34.9621 172.368L34.8449 172.182L28.2956 164.433C26.2411 162.002 27.1006 158.279 30.0128 156.995Z" fill="#FF725E"/>
<path d="M74.1941 167.553H73.5825C73.0142 167.603 72.4528 167.712 71.9073 167.879C71.0502 168.169 70.2293 168.556 69.4606 169.033C68.5569 169.582 67.5838 170.298 66.5064 171.119C65.3522 172.014 64.1218 172.807 62.8294 173.489C62.091 173.842 61.3235 174.13 60.5356 174.351C59.6995 174.576 58.8462 174.732 57.9846 174.816C54.4326 175.185 50.5193 174.399 46.6754 173.065C42.8315 171.73 39.2309 170.208 35.7972 169.402C34.1747 169.018 32.5065 168.864 30.8412 168.943C29.3909 168.993 27.9461 169.146 26.5177 169.402C24.4393 169.754 22.4157 170.375 20.4982 171.251C20.1576 171.404 19.8726 171.57 19.6224 171.709C19.4078 171.82 19.2012 171.946 19.0037 172.085L18.4963 172.411C19.0993 171.922 19.7599 171.509 20.4634 171.181C22.3747 170.267 24.4024 169.619 26.4899 169.256C27.9243 168.988 29.3762 168.823 30.8342 168.762C32.5151 168.675 34.1998 168.825 35.8389 169.207C39.3144 170.013 42.8941 171.543 46.7449 172.856C50.5957 174.17 54.4535 174.942 57.9637 174.622C58.8149 174.535 59.6584 174.384 60.4869 174.17C61.2642 173.957 62.0204 173.673 62.746 173.322C64.0383 172.66 65.2668 171.881 66.4161 170.993C67.5004 170.208 68.5013 169.499 69.398 168.957C70.1791 168.485 71.0117 168.105 71.8795 167.824C72.4348 167.668 73.0063 167.577 73.5825 167.553C73.9926 167.553 74.1941 167.553 74.1941 167.553Z" fill="#FAFAFA"/>
<path d="M74.083 130.803C74.3797 128.967 76.362 129.211 77.1868 130.878L80.1267 136.821C80.175 136.918 80.2045 137.024 80.2135 137.133L80.3618 138.912C80.4126 139.521 81.3398 139.622 81.5483 139.047C81.6031 138.896 81.6557 138.711 81.706 138.5C82.5222 135.09 81.5873 131.531 80.0636 128.373L79.0876 126.35C79.0645 126.302 79.0419 126.257 79.0188 126.209C78.7823 125.715 77.4431 122.7 79.1196 120.983C79.2956 120.802 79.5859 120.845 79.738 121.046C80.0767 121.493 81.6689 120.723 81.7599 120.17C81.8586 119.569 82.1118 119.042 82.599 118.679C82.7302 118.582 82.9116 118.614 83.0203 118.737L85.4151 121.427C85.4559 121.473 85.6217 121.376 85.6139 121.315C85.5882 121.114 85.6064 120.911 85.6672 120.718C85.7281 120.526 85.8302 120.349 85.9663 120.2C86.2065 119.937 86.6076 120.05 86.8266 120.331L91.4791 126.298C93.0921 128.367 93.888 130.957 93.7152 133.574L93.0452 143.725L90.5884 157.816C90.5094 158.269 90.5883 158.735 90.8119 159.137C91.3139 160.039 91.0497 161.175 90.2011 161.763L85.9322 164.72C81.9707 167.464 76.4185 165.977 74.8347 161.426C74.3283 159.97 73.9485 158.66 73.8675 157.821C73.7014 156.101 74.5954 150.171 75.3968 145.38C76.1148 141.087 75.0766 136.774 74.1995 132.511C74.0643 131.853 74.0092 131.26 74.083 130.803Z" fill="#FFBE9D"/>
<path d="M79.3909 172.178C79.4335 172.209 79.3906 172.176 79.3627 172.132L79.3241 172.071L79.1156 171.647L78.3302 169.985C77.6351 168.519 76.6758 166.357 75.5498 163.542C74.9022 161.987 74.3497 160.395 73.8955 158.774C73.6836 157.822 73.6389 156.842 73.7634 155.875C73.8468 154.888 73.958 153.859 74.097 152.803C74.6423 148.606 75.4206 143.889 76.3434 138.719C76.3455 138.707 76.363 138.708 76.363 138.72C76.363 138.731 76.349 138.734 76.3444 138.725C75.48 137 74.7631 135.206 74.2013 133.361C74.0575 132.868 73.946 132.367 73.8677 131.86C73.8303 131.592 73.814 131.323 73.819 131.053V131.047C73.819 130.778 73.8446 130.51 73.8955 130.247C74.0033 129.718 74.181 129.206 74.4237 128.725C74.6681 128.21 75.0215 127.755 75.4594 127.39C75.5817 127.293 75.7622 127.332 75.8333 127.471L75.8417 127.487C77.2879 130.407 78.8235 133.479 80.4007 136.654C80.415 136.682 80.4224 136.714 80.4224 136.746V136.795C80.5542 138.284 80.686 139.898 80.8237 141.536C80.8355 141.677 80.7169 141.793 80.577 141.779C80.4359 141.764 80.3434 141.624 80.3858 141.489C80.5761 140.881 80.7744 140.273 80.9993 139.665L81.333 138.616C81.4361 138.267 81.5173 137.912 81.5762 137.552C81.8265 136.086 81.9725 134.557 82.0906 133.027C82.0906 133.063 82.0429 133.073 82.0276 133.042L80.0957 129.003C79.7551 128.308 79.4006 127.613 79.067 126.869C78.9001 126.514 78.7055 126.174 78.5526 125.764C78.3948 125.382 78.2648 124.989 78.1633 124.589C77.9604 123.839 77.9202 123.055 78.0452 122.288C78.1757 121.49 78.6089 120.773 79.2546 120.286L79.2592 120.283C79.3839 120.192 79.5583 120.219 79.6508 120.342L83.0111 124.787C83.1029 124.908 83.0706 125.082 82.9415 125.163C82.8128 125.243 82.6429 125.196 82.5768 125.059C82.0597 123.991 81.6881 122.858 81.472 121.69C81.3469 121.045 81.3469 120.382 81.472 119.737C81.543 119.399 81.6851 119.08 81.8888 118.8C82.0925 118.521 82.3532 118.288 82.6536 118.118L82.6565 118.116C82.772 118.052 82.9164 118.079 83.0012 118.18L85.8539 121.61C85.9451 121.72 85.9209 121.884 85.8019 121.963C85.6808 122.043 85.5159 121.998 85.4689 121.861C85.3443 121.497 85.3125 121.106 85.3784 120.724C85.4302 120.48 85.5374 120.251 85.6916 120.054C85.8459 119.858 86.0431 119.699 86.2681 119.591L86.272 119.589C86.387 119.53 86.5279 119.56 86.6087 119.661L94.1366 129.204L94.1449 129.215C94.1801 129.262 94.1992 129.319 94.1992 129.378C93.8516 134.508 93.5041 139.262 93.233 143.614C92.2243 149.265 91.3461 154.195 90.6052 158.316C90.6037 158.324 90.5916 158.323 90.5916 158.314C90.5916 158.307 90.6011 158.305 90.6045 158.311L95.5268 167.421L96.8196 169.853L97.1463 170.486C97.17 170.532 97.1297 170.555 97.1058 170.509C97.1054 170.508 97.105 170.508 97.1046 170.507L96.7432 169.895L95.353 167.504C94.1757 165.426 92.4671 162.341 90.3029 158.51C90.2872 158.483 90.2788 158.451 90.2788 158.419C90.2788 158.382 90.2818 158.345 90.2879 158.309C90.9814 154.15 91.8331 149.24 92.802 143.565C93.0715 139.239 93.3754 134.508 93.6931 129.419C93.6942 129.401 93.7204 129.397 93.7261 129.415C93.7318 129.433 93.7084 129.445 93.6967 129.431L86.2989 120.109C86.2631 120.064 86.3039 119.999 86.3599 120.011C86.4164 120.024 86.4271 120.105 86.3793 120.138C86.2887 120.2 86.2074 120.275 86.1384 120.362C86.0324 120.494 85.9579 120.649 85.9206 120.815C85.8646 121.172 85.9179 121.538 86.0735 121.864C86.2038 122.153 85.8245 122.407 85.6217 122.163L82.7335 118.7C82.6944 118.653 82.735 118.583 82.7951 118.594C82.8554 118.604 82.8707 118.687 82.8207 118.722C82.6512 118.842 82.5023 118.989 82.3806 119.159C82.2235 119.377 82.1151 119.626 82.0628 119.89C81.9585 120.462 81.9585 121.049 82.0628 121.621C82.27 122.739 82.626 123.825 83.1209 124.848C83.1896 124.99 83.1438 125.161 83.0115 125.247C82.8764 125.335 82.6966 125.303 82.5995 125.175L79.3615 120.898C79.317 120.839 79.3659 120.756 79.4389 120.766C79.5119 120.776 79.5372 120.871 79.4819 120.92C79.0359 121.313 78.738 121.85 78.643 122.441C78.5331 123.137 78.5734 123.848 78.7611 124.526C78.8532 124.901 78.9741 125.268 79.1226 125.625C79.2616 125.979 79.4493 126.32 79.6161 126.695L80.6448 128.829L82.6467 133L82.6473 133.001C82.6697 133.046 82.6814 133.095 82.6814 133.145C82.5563 134.696 82.4104 136.225 82.1462 137.726C82.0861 138.106 82.0025 138.482 81.896 138.852C81.7778 139.214 81.6666 139.547 81.5554 139.916L80.8951 142.001L80.8887 142.021C80.7969 142.308 80.3769 142.26 80.3529 141.959C80.2069 140.228 80.0679 138.526 79.9358 136.955C79.9358 136.979 79.9033 136.986 79.8927 136.965C78.3629 133.872 76.8792 130.897 75.4669 128.02C75.4312 127.947 75.4974 127.866 75.5758 127.887C75.6499 127.906 75.6723 128.001 75.617 128.054C75.3134 128.344 75.0644 128.686 74.8825 129.065C74.6577 129.505 74.4917 129.972 74.389 130.455C74.2358 131.419 74.3242 132.405 74.6462 133.326C75.185 135.134 75.8722 136.894 76.7009 138.588C76.7209 138.629 76.7314 138.674 76.7314 138.72C76.7314 138.771 76.7268 138.822 76.7176 138.872C75.7712 144.035 74.9562 148.764 74.382 152.949C74.2361 153.998 74.1179 155.034 74.0275 156.007C73.8986 156.933 73.9316 157.873 74.1248 158.788C74.5554 160.401 75.0847 161.986 75.7097 163.535C76.8079 166.357 77.7463 168.533 78.3788 170.02C78.6986 170.75 78.9349 171.32 79.0739 171.709L79.2194 172.056C79.2411 172.108 79.3452 172.146 79.3909 172.178Z" fill="#EB996E"/>
<path d="M90.8835 134.403C90.8579 134.919 90.4285 134.888 90.4873 134.376C90.5626 133.007 90.6984 131.12 90.8817 129C90.8835 128.978 90.9142 128.975 90.9207 128.996C90.9273 129.017 90.8995 129.031 90.8858 129.014L90.529 128.558C89.1388 126.709 87.8599 125.02 86.9771 123.782C86.6283 123.359 86.9796 123.084 87.2968 123.532C88.263 124.707 89.5698 126.354 90.9878 128.203C91.1268 128.384 91.2658 128.572 91.4048 128.745C91.4456 128.804 91.4674 128.874 91.4674 128.946V128.947C91.2658 131.102 91.0573 133.02 90.8835 134.403Z" fill="#EB996E"/>
<path d="M76.7072 175.96C75.5568 170.704 78.317 165.375 83.2736 163.282C88.8756 160.917 95.3342 163.454 97.8094 169.008C105.57 186.423 120.866 220.788 122.024 223.709C125.763 232.961 122.065 246.689 111.889 246.439C107.093 246.328 93.3581 244.465 89.6115 229.875C88.6232 226.027 86.1098 217.658 85.3369 215.098C85.1839 214.591 85.0506 214.081 84.9374 213.563L76.7072 175.96Z" fill="#FF725E"/>
<path d="M93.066 159.17C93.0928 159.156 93.1022 159.173 93.0749 159.186C93.0604 159.192 93.0459 159.198 93.0312 159.205L92.0512 159.677L88.3185 161.443L75.0134 167.66C74.9862 167.673 74.9582 167.644 74.9717 167.617C74.9853 167.59 75.0257 167.595 75.0311 167.626C76.1334 173.82 77.5044 181.174 79.185 188.989C81.6039 200.396 84.2452 210.621 86.2749 217.982C87.3106 221.645 88.1517 224.613 88.7356 226.691C89.0275 227.699 89.2499 228.492 89.4306 229.055L89.5975 229.673C89.5979 229.674 89.5982 229.675 89.5986 229.676C89.6171 229.724 89.5771 229.736 89.5627 229.687C89.5141 229.527 89.4445 229.333 89.3611 229.075L88.6243 226.733C87.9918 224.689 87.1021 221.728 86.0525 218.051C83.9672 210.704 81.2772 200.479 78.8513 189.066C77.1774 181.21 75.8227 173.819 74.7456 167.594C74.7441 167.585 74.7433 167.576 74.7433 167.567C74.7433 167.503 74.7809 167.446 74.839 167.42L74.8545 167.414L88.2976 161.297L92.072 159.608L93.066 159.17Z" fill="#263238"/>
<path d="M119.007 219.824C118.96 219.921 118.904 220.014 118.84 220.102L118.326 220.887C118.062 221.304 117.772 221.703 117.457 222.083C117.096 222.534 116.713 223.077 116.213 223.598L115.441 224.446C115.17 224.738 114.864 225.016 114.558 225.315C113.954 225.926 113.245 226.496 112.508 227.122C110.859 228.409 109.095 229.542 107.239 230.507C105.368 231.442 103.413 232.198 101.4 232.766C100.469 232.996 99.5862 233.239 98.7381 233.364C98.3141 233.433 97.911 233.524 97.5148 233.572L96.3748 233.691C95.6797 233.788 94.9846 233.781 94.4147 233.809C93.9217 233.841 93.4271 233.841 92.9341 233.809L91.9957 233.767C91.9633 233.769 91.9631 233.763 91.9955 233.766C91.9979 233.767 92.0003 233.767 92.0027 233.767H92.9341C93.4273 233.794 93.9215 233.794 94.4147 233.767C94.9846 233.725 95.645 233.725 96.3609 233.614L97.487 233.482C97.8832 233.427 98.2863 233.336 98.7034 233.267C99.5445 233.135 100.42 232.884 101.352 232.655C105.361 231.523 109.109 229.615 112.383 227.039C113.113 226.427 113.829 225.864 114.468 225.259C114.774 224.967 115.087 224.696 115.358 224.404C115.629 224.112 115.886 223.841 116.129 223.57C116.637 223.056 117.033 222.527 117.401 222.09C117.718 221.713 118.015 221.321 118.291 220.915L118.621 220.459C118.767 220.258 118.896 220.046 119.007 219.824Z" fill="#FAFAFA"/>
<path d="M113.712 203.618C113.743 203.569 113.783 203.594 113.752 203.642C113.648 203.823 113.509 204.108 113.279 204.441C112.661 205.4 111.933 206.284 111.111 207.076C109.9 208.264 108.508 209.254 106.989 210.009C105.129 210.948 103.103 211.513 101.025 211.67C98.9565 211.727 96.8867 211.634 94.8317 211.392C93.1616 211.213 91.4745 211.269 89.82 211.559C88.7053 211.758 87.6389 212.169 86.6782 212.768C86.0872 213.135 86.0456 213.085 86.6245 212.7C86.6285 212.697 86.6325 212.695 86.6365 212.692C87.592 212.057 88.665 211.62 89.7922 211.406C91.4579 211.094 93.1594 211.022 94.8456 211.191C96.8922 211.42 98.9523 211.508 101.011 211.455C103.061 211.3 105.06 210.748 106.898 209.828C108.408 209.093 109.794 208.127 111.006 206.964C111.828 206.187 112.564 205.325 113.203 204.393C113.439 204.073 113.585 203.795 113.71 203.621C113.711 203.62 113.712 203.619 113.712 203.618Z" fill="#FAFAFA"/>
<path d="M94.7681 168.2C94.7849 168.167 94.8185 168.18 94.8039 168.213C94.7366 168.397 94.6552 168.576 94.5606 168.748C94.2019 169.384 93.7309 169.949 93.1704 170.416C92.3468 171.11 91.4049 171.649 90.39 172.008C89.1503 172.426 87.8641 172.689 86.5601 172.794C85.1699 172.939 83.8701 172.995 82.6884 173.127C81.6383 173.228 80.5989 173.419 79.5813 173.697C78.9008 173.895 78.2418 174.16 77.6142 174.49C77.3911 174.608 77.2169 174.707 77.0987 174.774C76.9852 174.839 76.9669 174.806 77.079 174.74C77.2349 174.622 77.3973 174.513 77.5656 174.413C78.1857 174.051 78.8458 173.761 79.5327 173.551C80.5541 173.248 81.6011 173.038 82.6606 172.926C83.8492 172.787 85.1629 172.717 86.5323 172.578C87.818 172.474 89.0871 172.22 90.3136 171.82C91.3062 171.477 92.2308 170.962 93.0453 170.298C93.7582 169.724 94.3444 169.009 94.7681 168.2Z" fill="#FAFAFA"/>
<path d="M260.562 229.11C262.168 231.028 264.886 230.104 266.06 228.741C267.235 227.379 267.617 225.53 267.958 223.765C268.743 219.733 269.515 215.507 268.313 211.58C268.004 210.384 267.371 209.297 266.484 208.438C266.035 208.016 265.482 207.72 264.882 207.578C264.282 207.437 263.655 207.455 263.065 207.632C261.674 208.125 260.979 209.571 260.437 210.933C258.934 214.949 258.34 219.248 258.699 223.521C258.873 225.509 259.29 227.574 260.562 229.082" fill="#FF725E"/>
<g opacity="0.2">
<path opacity="0.2" d="M260.562 229.11C262.168 231.028 264.886 230.104 266.06 228.741C267.235 227.379 267.617 225.53 267.958 223.765C268.743 219.733 269.515 215.507 268.313 211.58C268.004 210.384 267.371 209.297 266.484 208.438C266.035 208.016 265.482 207.72 264.882 207.578C264.282 207.437 263.655 207.455 263.065 207.632C261.674 208.125 260.979 209.571 260.437 210.933C258.934 214.949 258.34 219.248 258.699 223.521C258.873 225.509 259.29 227.574 260.562 229.082" fill="black"/>
</g>
<path d="M256.92 232.391C257.572 231.365 257.962 230.195 258.058 228.983C258.154 227.772 257.952 226.555 257.469 225.44C256.479 223.218 254.897 221.311 252.896 219.928C250.608 218.232 248.011 217.002 245.25 216.306C244.181 215.98 243.055 215.89 241.948 216.042C241.395 216.123 240.87 216.338 240.419 216.669C239.968 217 239.605 217.436 239.362 217.94C238.73 219.462 239.613 221.158 240.537 222.527C242.154 224.939 243.96 227.22 245.938 229.346C247.53 231.056 249.323 232.724 251.568 233.364C253.813 234.003 256.065 233.697 257.087 232.092" fill="#FF725E"/>
<path d="M262.133 246.508C262.15 246.678 262.26 246.663 262.231 246.495C262.229 246.481 262.226 246.466 262.224 246.452C262.106 245.632 261.883 244.45 261.529 243.012C261.095 241.326 260.566 239.667 259.944 238.042C259.198 236.044 258.311 234.102 257.289 232.231C255.499 228.778 253.094 225.68 250.192 223.09C249.691 222.646 249.162 222.235 248.607 221.86C248.364 221.693 248.148 221.519 247.912 221.387L247.356 221.074C247.24 221.002 247.172 221.119 247.284 221.197C248.236 221.863 249.157 222.571 250.046 223.32C252.861 225.945 255.212 229.028 256.997 232.439C258.01 234.297 258.9 236.219 259.659 238.195C260.294 239.803 260.846 241.444 261.313 243.109C261.709 244.499 261.967 245.702 262.133 246.508Z" fill="#263238"/>
<path d="M113.423 169.172V150.692H126.807V153.268H116.419V158.588H124.539V161.108H116.419V166.596H127.199V169.172H113.423ZM138.756 150.692C140.734 150.692 142.302 151.187 143.46 152.176C144.636 153.166 145.224 154.5 145.224 156.18C145.224 157.524 144.86 158.635 144.132 159.512C143.422 160.371 142.442 160.968 141.192 161.304L146.316 169.172H142.872L138.168 161.78H134.192V169.172H131.224V150.692H138.756ZM138.532 159.288C140.921 159.288 142.116 158.28 142.116 156.264C142.116 154.248 140.921 153.24 138.532 153.24H134.192V159.288H138.532ZM157.568 150.692C159.547 150.692 161.115 151.187 162.272 152.176C163.448 153.166 164.036 154.5 164.036 156.18C164.036 157.524 163.672 158.635 162.944 159.512C162.235 160.371 161.255 160.968 160.004 161.304L165.128 169.172H161.684L156.98 161.78H153.004V169.172H150.036V150.692H157.568ZM157.344 159.288C159.733 159.288 160.928 158.28 160.928 156.264C160.928 154.248 159.733 153.24 157.344 153.24H153.004V159.288H157.344ZM176.357 150.412C178.149 150.412 179.698 150.795 181.005 151.56C182.311 152.326 183.319 153.427 184.029 154.864C184.738 156.283 185.093 157.972 185.093 159.932C185.093 161.892 184.738 163.591 184.029 165.028C183.319 166.447 182.311 167.539 181.005 168.304C179.698 169.07 178.149 169.452 176.357 169.452C174.565 169.452 173.015 169.07 171.709 168.304C170.421 167.539 169.422 166.447 168.713 165.028C168.003 163.591 167.649 161.892 167.649 159.932C167.649 157.972 168.003 156.283 168.713 154.864C169.422 153.427 170.421 152.326 171.709 151.56C173.015 150.795 174.565 150.412 176.357 150.412ZM176.357 153.016C174.621 153.016 173.258 153.623 172.269 154.836C171.279 156.031 170.785 157.73 170.785 159.932C170.785 162.135 171.279 163.843 172.269 165.056C173.258 166.251 174.621 166.848 176.357 166.848C178.111 166.848 179.483 166.251 180.473 165.056C181.462 163.843 181.957 162.135 181.957 159.932C181.957 157.73 181.462 156.031 180.473 154.836C179.483 153.623 178.111 153.016 176.357 153.016ZM197.08 150.692C199.058 150.692 200.626 151.187 201.784 152.176C202.96 153.166 203.548 154.5 203.548 156.18C203.548 157.524 203.184 158.635 202.456 159.512C201.746 160.371 200.766 160.968 199.516 161.304L204.64 169.172H201.196L196.492 161.78H192.516V169.172H189.548V150.692H197.08ZM196.856 159.288C199.245 159.288 200.44 158.28 200.44 156.264C200.44 154.248 199.245 153.24 196.856 153.24H192.516V159.288H196.856ZM211.104 150.692V158.084L210.712 163.292H208.36L207.968 158.084V150.692H211.104ZM209.536 165.476C210.171 165.476 210.675 165.663 211.048 166.036C211.44 166.391 211.636 166.867 211.636 167.464C211.636 168.062 211.44 168.538 211.048 168.892C210.675 169.247 210.171 169.424 209.536 169.424C208.902 169.424 208.398 169.247 208.024 168.892C207.651 168.538 207.464 168.062 207.464 167.464C207.464 166.867 207.651 166.391 208.024 166.036C208.398 165.663 208.902 165.476 209.536 165.476Z" fill="black"/>
<path d="M116.299 181.236L113.939 185.256V187.836H113.139V185.256L110.779 181.236H111.729L113.009 183.496L113.539 184.436L114.069 183.496L115.349 181.236H116.299ZM118.679 182.736C119.152 182.736 119.569 182.839 119.929 183.046C120.295 183.252 120.582 183.552 120.789 183.946C120.995 184.332 121.099 184.796 121.099 185.336C121.099 185.876 120.995 186.342 120.789 186.736C120.582 187.122 120.295 187.419 119.929 187.626C119.569 187.832 119.152 187.936 118.679 187.936C118.212 187.936 117.795 187.832 117.429 187.626C117.062 187.419 116.775 187.122 116.569 186.736C116.362 186.342 116.259 185.876 116.259 185.336C116.259 184.796 116.362 184.332 116.569 183.946C116.775 183.552 117.062 183.252 117.429 183.046C117.795 182.839 118.212 182.736 118.679 182.736ZM118.679 183.426C118.172 183.426 117.775 183.596 117.489 183.936C117.202 184.276 117.059 184.742 117.059 185.336C117.059 185.929 117.202 186.396 117.489 186.736C117.775 187.076 118.172 187.246 118.679 187.246C119.185 187.246 119.582 187.076 119.869 186.736C120.155 186.396 120.299 185.929 120.299 185.336C120.299 184.742 120.155 184.276 119.869 183.936C119.582 183.596 119.185 183.426 118.679 183.426ZM124.415 187.936C124.095 187.936 123.792 187.876 123.505 187.756C123.225 187.636 122.995 187.442 122.815 187.176C122.642 186.902 122.555 186.549 122.555 186.116V182.836H123.355V185.906C123.355 186.412 123.465 186.762 123.685 186.956C123.905 187.142 124.215 187.236 124.615 187.236C124.868 187.236 125.108 187.179 125.335 187.066C125.562 186.946 125.748 186.762 125.895 186.516C126.042 186.269 126.115 185.949 126.115 185.556V182.836H126.915V187.836H126.215L126.165 187.076C125.992 187.376 125.755 187.596 125.455 187.736C125.162 187.869 124.815 187.936 124.415 187.936ZM135.105 184.606C135.105 184.232 135.005 183.946 134.805 183.746C134.605 183.539 134.322 183.436 133.955 183.436C133.608 183.436 133.315 183.512 133.075 183.666C132.835 183.812 132.658 184.052 132.545 184.386L131.895 183.986C132.028 183.612 132.275 183.312 132.635 183.086C132.995 182.852 133.442 182.736 133.975 182.736C134.335 182.736 134.662 182.799 134.955 182.926C135.248 183.046 135.478 183.232 135.645 183.486C135.818 183.732 135.905 184.052 135.905 184.446V186.866C135.905 187.106 136.032 187.226 136.285 187.226C136.412 187.226 136.535 187.209 136.655 187.176L136.615 187.806C136.482 187.872 136.308 187.906 136.095 187.906C135.848 187.906 135.635 187.846 135.455 187.726C135.282 187.606 135.168 187.422 135.115 187.176C134.942 187.436 134.705 187.629 134.405 187.756C134.105 187.876 133.808 187.936 133.515 187.936C133.222 187.936 132.948 187.886 132.695 187.786C132.442 187.686 132.238 187.536 132.085 187.336C131.938 187.129 131.865 186.876 131.865 186.576C131.865 186.202 131.988 185.896 132.235 185.656C132.488 185.409 132.838 185.242 133.285 185.156L135.105 184.796V184.606ZM132.685 186.536C132.685 186.742 132.765 186.912 132.925 187.046C133.092 187.172 133.325 187.236 133.625 187.236C133.885 187.236 134.125 187.192 134.345 187.106C134.572 187.012 134.755 186.876 134.895 186.696C135.035 186.509 135.105 186.272 135.105 185.986V185.456L133.655 185.756C133.328 185.822 133.085 185.916 132.925 186.036C132.765 186.156 132.685 186.322 132.685 186.536ZM138.609 180.536V186.566C138.609 186.819 138.656 186.996 138.749 187.096C138.842 187.189 138.992 187.236 139.199 187.236C139.332 187.236 139.442 187.226 139.529 187.206C139.616 187.186 139.732 187.149 139.879 187.096L139.749 187.796C139.529 187.889 139.282 187.936 139.009 187.936C138.209 187.936 137.809 187.489 137.809 186.596V180.536H138.609ZM140.906 187.836V182.836H141.556L141.666 183.656C141.946 183.042 142.479 182.736 143.266 182.736C143.352 182.736 143.446 182.742 143.546 182.756C143.652 182.769 143.742 182.796 143.816 182.836L143.676 183.566C143.602 183.539 143.522 183.519 143.436 183.506C143.349 183.492 143.226 183.486 143.066 183.486C142.859 183.486 142.649 183.546 142.436 183.666C142.229 183.786 142.056 183.969 141.916 184.216C141.776 184.456 141.706 184.762 141.706 185.136V187.836H140.906ZM146.921 187.936C146.448 187.936 146.025 187.832 145.651 187.626C145.285 187.419 144.998 187.122 144.791 186.736C144.585 186.342 144.481 185.876 144.481 185.336C144.481 184.796 144.585 184.332 144.791 183.946C144.998 183.552 145.281 183.252 145.641 183.046C146.001 182.839 146.411 182.736 146.871 182.736C147.338 182.736 147.735 182.836 148.061 183.036C148.395 183.236 148.648 183.509 148.821 183.856C148.995 184.196 149.081 184.579 149.081 185.006C149.081 185.119 149.078 185.222 149.071 185.316C149.065 185.409 149.055 185.492 149.041 185.566H145.271C145.311 186.092 145.475 186.502 145.761 186.796C146.048 187.089 146.428 187.236 146.901 187.236C147.268 187.236 147.565 187.166 147.791 187.026C148.025 186.886 148.211 186.696 148.351 186.456L148.981 186.826C148.795 187.166 148.525 187.436 148.171 187.636C147.825 187.836 147.408 187.936 146.921 187.936ZM146.851 183.436C146.431 183.436 146.085 183.562 145.811 183.816C145.545 184.062 145.375 184.409 145.301 184.856H148.281C148.261 184.402 148.121 184.052 147.861 183.806C147.601 183.559 147.265 183.436 146.851 183.436ZM153.523 184.606C153.523 184.232 153.423 183.946 153.223 183.746C153.023 183.539 152.74 183.436 152.373 183.436C152.026 183.436 151.733 183.512 151.493 183.666C151.253 183.812 151.076 184.052 150.963 184.386L150.313 183.986C150.446 183.612 150.693 183.312 151.053 183.086C151.413 182.852 151.86 182.736 152.393 182.736C152.753 182.736 153.08 182.799 153.373 182.926C153.666 183.046 153.896 183.232 154.063 183.486C154.236 183.732 154.323 184.052 154.323 184.446V186.866C154.323 187.106 154.45 187.226 154.703 187.226C154.83 187.226 154.953 187.209 155.073 187.176L155.033 187.806C154.9 187.872 154.726 187.906 154.513 187.906C154.266 187.906 154.053 187.846 153.873 187.726C153.7 187.606 153.586 187.422 153.533 187.176C153.36 187.436 153.123 187.629 152.823 187.756C152.523 187.876 152.226 187.936 151.933 187.936C151.64 187.936 151.366 187.886 151.113 187.786C150.86 187.686 150.656 187.536 150.503 187.336C150.356 187.129 150.283 186.876 150.283 186.576C150.283 186.202 150.406 185.896 150.653 185.656C150.906 185.409 151.256 185.242 151.703 185.156L153.523 184.796V184.606ZM151.103 186.536C151.103 186.742 151.183 186.912 151.343 187.046C151.51 187.172 151.743 187.236 152.043 187.236C152.303 187.236 152.543 187.192 152.763 187.106C152.99 187.012 153.173 186.876 153.313 186.696C153.453 186.509 153.523 186.272 153.523 185.986V185.456L152.073 185.756C151.746 185.822 151.503 185.916 151.343 186.036C151.183 186.156 151.103 186.322 151.103 186.536ZM158.217 187.936C157.804 187.936 157.424 187.832 157.077 187.626C156.73 187.419 156.454 187.122 156.247 186.736C156.04 186.342 155.937 185.876 155.937 185.336C155.937 184.782 156.047 184.312 156.267 183.926C156.487 183.539 156.777 183.246 157.137 183.046C157.497 182.839 157.884 182.736 158.297 182.736C158.657 182.736 158.977 182.819 159.257 182.986C159.537 183.146 159.744 183.366 159.877 183.646V180.536H160.677V187.836H159.977L159.927 186.896C159.787 187.236 159.56 187.496 159.247 187.676C158.934 187.849 158.59 187.936 158.217 187.936ZM158.297 187.236C158.77 187.236 159.15 187.059 159.437 186.706C159.73 186.352 159.877 185.872 159.877 185.266C159.877 184.692 159.734 184.246 159.447 183.926C159.16 183.599 158.79 183.436 158.337 183.436C157.83 183.436 157.437 183.609 157.157 183.956C156.877 184.302 156.737 184.762 156.737 185.336C156.737 185.909 156.874 186.369 157.147 186.716C157.42 187.062 157.804 187.236 158.297 187.236ZM166.647 182.836L164.297 188.676C164.103 189.162 163.883 189.502 163.637 189.696C163.397 189.889 163.1 189.986 162.747 189.986C162.52 189.986 162.31 189.952 162.117 189.886C161.93 189.826 161.763 189.742 161.617 189.636L161.837 188.936C161.97 189.056 162.11 189.142 162.257 189.196C162.41 189.256 162.56 189.286 162.707 189.286C162.88 189.286 163.043 189.232 163.197 189.126C163.35 189.019 163.49 188.802 163.617 188.476L163.877 187.826L163.377 186.636L161.787 182.836H162.697L163.947 186.096L164.257 186.986L164.617 185.996L165.787 182.836H166.647ZM170.847 187.836V180.536H171.647V183.586C171.82 183.286 172.05 183.069 172.337 182.936C172.624 182.802 172.937 182.736 173.277 182.736C173.637 182.736 173.964 182.806 174.257 182.946C174.55 183.079 174.784 183.286 174.957 183.566C175.137 183.846 175.227 184.202 175.227 184.636V187.836H174.427V184.916C174.427 184.362 174.307 183.979 174.067 183.766C173.834 183.546 173.544 183.436 173.197 183.436C172.957 183.436 172.717 183.492 172.477 183.606C172.237 183.719 172.037 183.906 171.877 184.166C171.724 184.419 171.647 184.759 171.647 185.186V187.836H170.847ZM179.958 184.606C179.958 184.232 179.858 183.946 179.658 183.746C179.458 183.539 179.175 183.436 178.808 183.436C178.462 183.436 178.168 183.512 177.928 183.666C177.688 183.812 177.512 184.052 177.398 184.386L176.748 183.986C176.882 183.612 177.128 183.312 177.488 183.086C177.848 182.852 178.295 182.736 178.828 182.736C179.188 182.736 179.515 182.799 179.808 182.926C180.102 183.046 180.332 183.232 180.498 183.486C180.672 183.732 180.758 184.052 180.758 184.446V186.866C180.758 187.106 180.885 187.226 181.138 187.226C181.265 187.226 181.388 187.209 181.508 187.176L181.468 187.806C181.335 187.872 181.162 187.906 180.948 187.906C180.702 187.906 180.488 187.846 180.308 187.726C180.135 187.606 180.022 187.422 179.968 187.176C179.795 187.436 179.558 187.629 179.258 187.756C178.958 187.876 178.662 187.936 178.368 187.936C178.075 187.936 177.802 187.886 177.548 187.786C177.295 187.686 177.092 187.536 176.938 187.336C176.792 187.129 176.718 186.876 176.718 186.576C176.718 186.202 176.842 185.896 177.088 185.656C177.342 185.409 177.692 185.242 178.138 185.156L179.958 184.796V184.606ZM177.538 186.536C177.538 186.742 177.618 186.912 177.778 187.046C177.945 187.172 178.178 187.236 178.478 187.236C178.738 187.236 178.978 187.192 179.198 187.106C179.425 187.012 179.608 186.876 179.748 186.696C179.888 186.509 179.958 186.272 179.958 185.986V185.456L178.508 185.756C178.182 185.822 177.938 185.916 177.778 186.036C177.618 186.156 177.538 186.322 177.538 186.536ZM185.847 182.836H186.687L184.607 187.836H183.807L181.727 182.836H182.637L184.217 187.026L185.847 182.836ZM189.822 187.936C189.349 187.936 188.925 187.832 188.552 187.626C188.185 187.419 187.899 187.122 187.692 186.736C187.485 186.342 187.382 185.876 187.382 185.336C187.382 184.796 187.485 184.332 187.692 183.946C187.899 183.552 188.182 183.252 188.542 183.046C188.902 182.839 189.312 182.736 189.772 182.736C190.239 182.736 190.635 182.836 190.962 183.036C191.295 183.236 191.549 183.509 191.722 183.856C191.895 184.196 191.982 184.579 191.982 185.006C191.982 185.119 191.979 185.222 191.972 185.316C191.965 185.409 191.955 185.492 191.942 185.566H188.172C188.212 186.092 188.375 186.502 188.662 186.796C188.949 187.089 189.329 187.236 189.802 187.236C190.169 187.236 190.465 187.166 190.692 187.026C190.925 186.886 191.112 186.696 191.252 186.456L191.882 186.826C191.695 187.166 191.425 187.436 191.072 187.636C190.725 187.836 190.309 187.936 189.822 187.936ZM189.752 183.436C189.332 183.436 188.985 183.562 188.712 183.816C188.445 184.062 188.275 184.409 188.202 184.856H191.182C191.162 184.402 191.022 184.052 190.762 183.806C190.502 183.559 190.165 183.436 189.752 183.436ZM199.832 184.606C199.832 184.232 199.732 183.946 199.532 183.746C199.332 183.539 199.048 183.436 198.682 183.436C198.335 183.436 198.042 183.512 197.802 183.666C197.562 183.812 197.385 184.052 197.272 184.386L196.622 183.986C196.755 183.612 197.002 183.312 197.362 183.086C197.722 182.852 198.168 182.736 198.702 182.736C199.062 182.736 199.388 182.799 199.682 182.926C199.975 183.046 200.205 183.232 200.372 183.486C200.545 183.732 200.632 184.052 200.632 184.446V186.866C200.632 187.106 200.758 187.226 201.012 187.226C201.138 187.226 201.262 187.209 201.382 187.176L201.342 187.806C201.208 187.872 201.035 187.906 200.822 187.906C200.575 187.906 200.362 187.846 200.182 187.726C200.008 187.606 199.895 187.422 199.842 187.176C199.668 187.436 199.432 187.629 199.132 187.756C198.832 187.876 198.535 187.936 198.242 187.936C197.948 187.936 197.675 187.886 197.422 187.786C197.168 187.686 196.965 187.536 196.812 187.336C196.665 187.129 196.592 186.876 196.592 186.576C196.592 186.202 196.715 185.896 196.962 185.656C197.215 185.409 197.565 185.242 198.012 185.156L199.832 184.796V184.606ZM197.412 186.536C197.412 186.742 197.492 186.912 197.652 187.046C197.818 187.172 198.052 187.236 198.352 187.236C198.612 187.236 198.852 187.192 199.072 187.106C199.298 187.012 199.482 186.876 199.622 186.696C199.762 186.509 199.832 186.272 199.832 185.986V185.456L198.382 185.756C198.055 185.822 197.812 185.916 197.652 186.036C197.492 186.156 197.412 186.322 197.412 186.536ZM207.549 187.936C207.063 187.936 206.613 187.832 206.199 187.626C205.793 187.419 205.479 187.126 205.259 186.746L205.939 186.256C206.086 186.562 206.299 186.802 206.579 186.976C206.866 187.149 207.209 187.236 207.609 187.236C207.963 187.236 208.239 187.169 208.439 187.036C208.639 186.896 208.739 186.716 208.739 186.496C208.739 186.356 208.693 186.229 208.599 186.116C208.513 185.996 208.343 185.909 208.089 185.856L206.889 185.606C206.403 185.506 206.053 185.339 205.839 185.106C205.633 184.872 205.529 184.582 205.529 184.236C205.529 183.962 205.606 183.712 205.759 183.486C205.919 183.259 206.143 183.079 206.429 182.946C206.723 182.806 207.066 182.736 207.459 182.736C207.953 182.736 208.369 182.832 208.709 183.026C209.049 183.219 209.303 183.492 209.469 183.846L208.799 184.286C208.686 183.992 208.503 183.779 208.249 183.646C207.996 183.506 207.733 183.436 207.459 183.436C207.099 183.436 206.819 183.509 206.619 183.656C206.419 183.802 206.319 183.986 206.319 184.206C206.319 184.352 206.369 184.489 206.469 184.616C206.569 184.736 206.756 184.822 207.029 184.876L208.279 185.136C208.746 185.229 209.073 185.382 209.259 185.596C209.446 185.809 209.539 186.069 209.539 186.376C209.539 186.849 209.356 187.229 208.989 187.516C208.623 187.796 208.143 187.936 207.549 187.936ZM213.093 182.736C213.606 182.736 214.033 182.856 214.373 183.096C214.713 183.329 214.976 183.652 215.163 184.066L214.403 184.426C214.296 184.106 214.133 183.862 213.913 183.696C213.7 183.522 213.42 183.436 213.073 183.436C212.573 183.436 212.18 183.606 211.893 183.946C211.613 184.279 211.473 184.742 211.473 185.336C211.473 185.929 211.613 186.396 211.893 186.736C212.18 187.069 212.573 187.236 213.073 187.236C213.466 187.236 213.78 187.146 214.013 186.966C214.246 186.786 214.4 186.532 214.473 186.206L215.213 186.466C215.046 186.926 214.783 187.286 214.423 187.546C214.07 187.806 213.626 187.936 213.093 187.936C212.626 187.936 212.21 187.832 211.843 187.626C211.476 187.419 211.19 187.122 210.983 186.736C210.776 186.342 210.673 185.876 210.673 185.336C210.673 184.796 210.776 184.332 210.983 183.946C211.19 183.552 211.476 183.252 211.843 183.046C212.21 182.839 212.626 182.736 213.093 182.736ZM216.619 187.836V180.536H217.419V183.586C217.592 183.286 217.822 183.069 218.109 182.936C218.395 182.802 218.709 182.736 219.049 182.736C219.409 182.736 219.735 182.806 220.029 182.946C220.322 183.079 220.555 183.286 220.729 183.566C220.909 183.846 220.999 184.202 220.999 184.636V187.836H220.199V184.916C220.199 184.362 220.079 183.979 219.839 183.766C219.605 183.546 219.315 183.436 218.969 183.436C218.729 183.436 218.489 183.492 218.249 183.606C218.009 183.719 217.809 183.906 217.649 184.166C217.495 184.419 217.419 184.759 217.419 185.186V187.836H216.619ZM224.76 187.936C224.347 187.936 223.967 187.832 223.62 187.626C223.273 187.419 222.997 187.122 222.79 186.736C222.583 186.342 222.48 185.876 222.48 185.336C222.48 184.782 222.59 184.312 222.81 183.926C223.03 183.539 223.32 183.246 223.68 183.046C224.04 182.839 224.427 182.736 224.84 182.736C225.2 182.736 225.52 182.819 225.8 182.986C226.08 183.146 226.287 183.366 226.42 183.646V180.536H227.22V187.836H226.52L226.47 186.896C226.33 187.236 226.103 187.496 225.79 187.676C225.477 187.849 225.133 187.936 224.76 187.936ZM224.84 187.236C225.313 187.236 225.693 187.059 225.98 186.706C226.273 186.352 226.42 185.872 226.42 185.266C226.42 184.692 226.277 184.246 225.99 183.926C225.703 183.599 225.333 183.436 224.88 183.436C224.373 183.436 223.98 183.609 223.7 183.956C223.42 184.302 223.28 184.762 223.28 185.336C223.28 185.909 223.417 186.369 223.69 186.716C223.963 187.062 224.347 187.236 224.84 187.236ZM230.89 187.936C230.57 187.936 230.266 187.876 229.98 187.756C229.7 187.636 229.47 187.442 229.29 187.176C229.116 186.902 229.03 186.549 229.03 186.116V182.836H229.83V185.906C229.83 186.412 229.94 186.762 230.16 186.956C230.38 187.142 230.69 187.236 231.09 187.236C231.343 187.236 231.583 187.179 231.81 187.066C232.036 186.946 232.223 186.762 232.37 186.516C232.516 186.269 232.59 185.949 232.59 185.556V182.836H233.39V187.836H232.69L232.64 187.076C232.466 187.376 232.23 187.596 231.93 187.736C231.636 187.869 231.29 187.936 230.89 187.936ZM236.011 180.536V186.566C236.011 186.819 236.058 186.996 236.151 187.096C236.245 187.189 236.395 187.236 236.601 187.236C236.735 187.236 236.845 187.226 236.931 187.206C237.018 187.186 237.135 187.149 237.281 187.096L237.151 187.796C236.931 187.889 236.685 187.936 236.411 187.936C235.611 187.936 235.211 187.489 235.211 186.596V180.536H236.011ZM240.398 187.936C239.925 187.936 239.501 187.832 239.128 187.626C238.761 187.419 238.475 187.122 238.268 186.736C238.061 186.342 237.958 185.876 237.958 185.336C237.958 184.796 238.061 184.332 238.268 183.946C238.475 183.552 238.758 183.252 239.118 183.046C239.478 182.839 239.888 182.736 240.348 182.736C240.815 182.736 241.211 182.836 241.538 183.036C241.871 183.236 242.125 183.509 242.298 183.856C242.471 184.196 242.558 184.579 242.558 185.006C242.558 185.119 242.555 185.222 242.548 185.316C242.541 185.409 242.531 185.492 242.518 185.566H238.748C238.788 186.092 238.951 186.502 239.238 186.796C239.525 187.089 239.905 187.236 240.378 187.236C240.745 187.236 241.041 187.166 241.268 187.026C241.501 186.886 241.688 186.696 241.828 186.456L242.458 186.826C242.271 187.166 242.001 187.436 241.648 187.636C241.301 187.836 240.885 187.936 240.398 187.936ZM240.328 183.436C239.908 183.436 239.561 183.562 239.288 183.816C239.021 184.062 238.851 184.409 238.778 184.856H241.758C241.738 184.402 241.598 184.052 241.338 183.806C241.078 183.559 240.741 183.436 240.328 183.436Z" fill="black"/>
</svg>
