<svg width="117" height="123" viewBox="0 0 117 123" fill="none" xmlns="http://www.w3.org/2000/svg">
<path d="M105.469 62.8936H78.0371V100.858H105.469V62.8936Z" fill="#EBEBEB"/>
<path d="M106.799 61.4854H76.7085V62.8935H106.799V61.4854Z" fill="#DBDBDB"/>
<path d="M116.265 61.4854H106.801V62.8935H116.265V61.4854Z" fill="#EBEBEB"/>
<path d="M114.765 62.8936H105.47V100.858H114.765V62.8936Z" fill="#DBDBDB"/>
<path d="M102.516 80.4637H80.9937V68.2969H102.516V80.4637ZM81.0596 80.3978H102.45V68.3654H81.0596V80.3978Z" fill="#C7C7C7"/>
<path d="M92.9416 71.854H88.7515V74.2615H92.9416V71.854Z" fill="#C7C7C7"/>
<path d="M94.2126 74.1139H89.9565V72.0044H94.2126V74.1139ZM90.0225 74.048H94.1466V72.0703H90.0225V74.048Z" fill="#C7C7C7"/>
<path d="M102.516 95.7471H80.9937V83.5908H102.516V95.7471ZM81.0596 95.6812H102.45V83.6488H81.0596V95.6812Z" fill="#C7C7C7"/>
<path d="M92.9416 87.1377H88.7515V89.5452H92.9416V87.1377Z" fill="#C7C7C7"/>
<path d="M94.2126 89.3923H89.9565V87.2827H94.2126V89.3923ZM90.0225 89.3263H94.1466V87.3486H90.0225V89.3263Z" fill="#C7C7C7"/>
<path d="M65.5278 9.52979H109.008V47.8972H65.5278V9.52979ZM107.861 10.6769H66.6749V46.7502H107.861V10.6769Z" fill="#EBEBEB"/>
<path d="M88.2872 10.9775H87.1401V47.3251H88.2872V10.9775Z" fill="#EBEBEB"/>
<path d="M64.489 13.4458L110.047 13.4458V11.8505L64.489 11.8505V13.4458Z" fill="#EBEBEB"/>
<path d="M64.489 15.2417L110.047 15.2417V13.6464L64.489 13.6464V15.2417Z" fill="#EBEBEB"/>
<path d="M64.489 17.0371L110.047 17.0371V15.4418L64.489 15.4418V17.0371Z" fill="#EBEBEB"/>
<path d="M64.489 18.833L110.047 18.833V17.2377L64.489 17.2377V18.833Z" fill="#EBEBEB"/>
<path d="M64.489 20.6289L110.047 20.6289V19.0336L64.489 19.0336V20.6289Z" fill="#EBEBEB"/>
<path d="M64.489 22.4248L110.047 22.4248V20.8295L64.489 20.8295V22.4248Z" fill="#EBEBEB"/>
<path d="M64.489 24.2231L110.047 24.2231V22.6278L64.489 22.6278V24.2231Z" fill="#EBEBEB"/>
<path d="M64.489 26.0186L110.047 26.0186V24.4232L64.489 24.4232V26.0186Z" fill="#EBEBEB"/>
<path d="M64.489 27.8145L110.047 27.8145V26.2191L64.489 26.2191V27.8145Z" fill="#EBEBEB"/>
<path d="M68.1805 11.5259H67.8931V29.8658H68.1805V11.5259Z" fill="#263238"/>
<path d="M67.5293 31.2001H68.5445L68.2914 29.7393H67.7824L67.5293 31.2001Z" fill="#263238"/>
<path d="M67.1497 11.5259H66.8623V46.3018H67.1497V11.5259Z" fill="#263238"/>
<path d="M66.4956 47.3754H67.5135L67.2577 45.9146H66.7514L66.4956 47.3754Z" fill="#263238"/>
<path d="M62.7115 12.6465L111.827 12.6465V9.30548L62.7115 9.30548V12.6465Z" fill="#DBDBDB"/>
<path d="M73.4333 51.0986H80.3631L67.9484 100.847H61.0186L73.4333 51.0986Z" fill="#EBEBEB"/>
<path d="M80.3634 51.0986H81.8085L69.3938 100.847H67.9487L80.3634 51.0986Z" fill="#DBDBDB"/>
<g opacity="0.98">
<path opacity="0.98" d="M75.1738 51.9478C74.6991 54.1259 74.2007 56.2987 73.6971 58.4689L72.1624 64.9742L70.567 71.4611L69.7549 74.7019L68.9189 77.9374L69.6441 74.6755L70.393 71.4189L71.9303 64.9109L73.5125 58.4188C74.0636 56.2644 74.6068 54.1048 75.1738 51.9478Z" fill="#DBDBDB"/>
<path opacity="0.98" d="M73.6024 62.4956C73.286 63.967 72.9458 65.4358 72.6004 66.9019C72.2549 68.3681 71.8937 69.8289 71.5456 71.2924L70.4249 75.6803L69.85 77.8637C69.6496 78.5915 69.4571 79.3193 69.2515 80.0418C69.407 79.3061 69.5758 78.573 69.7393 77.8373L70.2509 75.6355L71.3056 71.245C71.6774 69.7867 72.0387 68.3232 72.4211 66.8677C72.8034 65.4121 73.2042 63.9459 73.6024 62.4956Z" fill="#DBDBDB"/>
<path opacity="0.98" d="M76.8456 55.3149C76.5819 56.5807 76.3051 57.8385 76.0176 59.0963C75.7302 60.3541 75.4243 61.6067 75.129 62.8619C74.8336 64.117 74.5119 65.3669 74.1876 66.6142L73.6998 68.4864C73.5284 69.1088 73.3649 69.7311 73.1855 70.3534C73.3121 69.7205 73.4492 69.0903 73.589 68.4601L74.0135 66.572C74.301 65.3142 74.6069 64.0617 74.9022 62.8065C75.1975 61.5513 75.5192 60.3014 75.8436 59.0541C76.1679 57.8068 76.4949 56.5569 76.8456 55.3149Z" fill="#DBDBDB"/>
<path opacity="0.98" d="M78.1297 52.4487C78.0057 53.1554 77.866 53.8542 77.7077 54.5583C77.5495 55.2623 77.394 55.9532 77.2278 56.6494C77.0617 57.3455 76.8824 58.0364 76.7004 58.7273L76.413 59.761C76.3102 60.1038 76.2152 60.4466 76.1045 60.7894C76.1651 60.436 76.2363 60.0853 76.3023 59.7346L76.5264 58.6798C76.6741 57.9784 76.8402 57.2849 77.0063 56.5887C77.1725 55.8926 77.3491 55.2017 77.5337 54.5108C77.7183 53.8199 77.9134 53.1317 78.1297 52.4487Z" fill="#DBDBDB"/>
<path opacity="0.98" d="M74.7309 70.0342C74.3696 71.6295 73.982 73.2222 73.5917 74.8123L72.3919 79.5799L71.1394 84.3264L70.496 86.6996C70.2718 87.4907 70.0582 88.2818 69.8262 89.0729C70.0055 88.2818 70.198 87.4775 70.3852 86.6785L70.9653 84.2921L72.1651 79.5272L73.4177 74.7807C73.8422 73.1959 74.2747 71.6137 74.7309 70.0342Z" fill="#DBDBDB"/>
<path opacity="0.98" d="M69.0901 86.7344C68.9346 87.6257 68.7526 88.509 68.5628 89.3924C68.3729 90.2758 68.1725 91.1539 67.9774 92.0293C67.7822 92.9048 67.5634 93.7829 67.3419 94.6663L67.0043 95.9848C66.883 96.4198 66.7723 96.8576 66.6431 97.3032C66.7195 96.8576 66.8118 96.4172 66.8936 95.9716L67.1573 94.6531C67.3419 93.7697 67.5475 92.8916 67.74 92.0162C67.9325 91.1407 68.1567 90.26 68.3782 89.3792C68.5997 88.4985 68.8396 87.6046 69.0901 86.7344Z" fill="#DBDBDB"/>
<path opacity="0.98" d="M65.061 89.0918C64.879 90.0147 64.6707 90.9377 64.4597 91.8421C64.2488 92.7466 64.0167 93.6643 63.7952 94.574C63.5737 95.4837 63.3285 96.3908 63.0806 97.2953L62.7035 98.6507C62.5717 99.099 62.4399 99.5525 62.3027 100.001C62.3924 99.5394 62.4979 99.0805 62.5928 98.6217L62.9066 97.2505C63.1176 96.3381 63.3496 95.4284 63.5711 94.5186C63.7926 93.6089 64.0378 92.7018 64.2857 91.7973C64.5336 90.8928 64.7841 89.991 65.061 89.0918Z" fill="#DBDBDB"/>
<path opacity="0.98" d="M68.3333 81.3286C68.0538 82.7077 67.7532 84.0816 67.4473 85.4554C67.1414 86.8293 66.8145 88.1926 66.5007 89.5638C66.1869 90.935 65.8441 92.2983 65.5013 93.6616L64.9739 95.7052C64.7919 96.3855 64.6179 97.0659 64.4307 97.7436C64.5678 97.0553 64.7181 96.3671 64.8631 95.6788L65.3167 93.6194C65.6226 92.2482 65.9469 90.8796 66.2633 89.511C66.5798 88.1425 66.9199 86.7765 67.2627 85.4132C67.6055 84.0499 67.9615 82.6866 68.3333 81.3286Z" fill="#DBDBDB"/>
<path opacity="0.98" d="M79.0793 52.6309C78.8156 53.9493 78.5229 55.2678 78.2302 56.6021C77.9375 57.9364 77.6237 59.239 77.3205 60.5575C77.0172 61.876 76.6876 63.1944 76.358 64.5129L75.857 66.4801C75.6829 67.134 75.5168 67.7985 75.3296 68.4419C75.4588 67.7774 75.5933 67.1235 75.741 66.4537L76.1787 64.4707C76.4714 63.1522 76.7852 61.8338 77.0884 60.5153C77.3917 59.1968 77.7213 57.8784 78.0509 56.5599C78.3805 55.2414 78.7207 53.9361 79.0793 52.6309Z" fill="#DBDBDB"/>
<path opacity="0.98" d="M69.0772 72.3076C68.8373 73.4441 68.5736 74.5727 68.3046 75.7014C68.0357 76.83 67.7482 77.9533 67.4713 79.0793C67.1945 80.2053 66.8912 81.3233 66.5853 82.444L66.1239 84.1185C65.963 84.6749 65.8074 85.2339 65.6387 85.7903C65.7573 85.2207 65.8892 84.6564 66.0131 84.0895L66.4113 82.3965C66.675 81.2679 66.9677 80.1446 67.2446 79.0186C67.5214 77.8927 67.8273 76.7746 68.1306 75.6539C68.4338 74.5332 68.745 73.4204 69.0772 72.3076Z" fill="#DBDBDB"/>
</g>
<path d="M67.4052 53.8408H74.815L55.8976 100.847H48.4878L67.4052 53.8408Z" fill="#EBEBEB"/>
<path d="M74.8149 53.8408H76.3601L57.4427 100.847H55.8975L74.8149 53.8408Z" fill="#DBDBDB"/>
<path d="M69.512 53.8408C68.7209 55.9504 67.8876 58.0599 67.0623 60.1695L64.5677 66.4981L62.031 72.8268L60.7468 75.9911L59.4468 79.1554L60.6624 75.9911L61.8965 72.8268L64.391 66.4981L66.9278 60.1695C67.7874 58.0546 68.6418 55.9477 69.512 53.8408Z" fill="#DBDBDB"/>
<path d="M66.3875 63.9536C65.8601 65.3802 65.2879 66.8068 64.7236 68.2334L63.0122 72.5158L61.2613 76.7902L60.3726 78.9262L59.4629 81.0594L60.2856 78.9209L61.1268 76.7797L62.8382 72.5026L64.5891 68.2281C65.1824 66.7989 65.7757 65.3749 66.3875 63.9536Z" fill="#DBDBDB"/>
<path d="M70.6696 56.7124C70.2161 57.9359 69.7441 59.1595 69.2694 60.3804L67.8217 64.0431L66.3477 67.7058L65.5882 69.5358C65.3246 70.145 65.0767 70.7541 64.813 71.3632C65.0371 70.7515 65.2718 70.1423 65.5039 69.5306L66.2132 67.6979L67.6582 64.0325L69.1349 60.3857C69.6386 59.1516 70.1449 57.9307 70.6696 56.7124Z" fill="#DBDBDB"/>
<path d="M72.368 53.8252C72.1307 54.5029 71.8776 55.1806 71.6218 55.8583C71.366 56.536 71.0944 57.2137 70.8307 57.8914C70.567 58.569 70.2822 59.2441 69.9974 59.9192L69.5676 60.9317C69.4173 61.2693 69.2723 61.6068 69.1167 61.9443C69.2327 61.6042 69.3593 61.2666 69.4806 60.9265L69.8629 59.9113C70.1266 59.2336 70.3903 58.5559 70.654 57.8782C70.9177 57.2005 71.2025 56.5254 71.4873 55.8504C71.7721 55.1753 72.0595 54.5003 72.368 53.8252Z" fill="#DBDBDB"/>
<path d="M66.3769 70.8149C65.773 72.3655 65.1481 73.916 64.531 75.4639L62.6272 80.1154L60.6838 84.7644L59.6975 87.0875L58.6929 89.4106L59.6132 87.0822L60.5493 84.7564L62.4531 80.1102L64.3966 75.4612C65.0294 73.9134 65.6992 72.3655 66.3769 70.8149Z" fill="#DBDBDB"/>
<path d="M58.3052 87.3433C58.0072 88.2003 57.6908 89.0546 57.3744 89.9116C57.0579 90.7686 56.7204 91.6204 56.3961 92.4747C56.0717 93.3291 55.7237 94.1835 55.3782 95.0378L54.8508 96.3168C54.6689 96.7439 54.4948 97.1711 54.3076 97.5957C54.4553 97.1685 54.6109 96.7413 54.7638 96.3115L55.2385 95.0299C55.5575 94.1729 55.8898 93.3186 56.2141 92.4642C56.5385 91.6098 56.8865 90.7555 57.2346 89.9037C57.5827 89.052 57.936 88.195 58.3052 87.3433Z" fill="#DBDBDB"/>
<path d="M53.9544 90.2046C53.6274 91.0959 53.2819 91.9819 52.9312 92.8705C52.5805 93.7592 52.2193 94.6452 51.8765 95.5338C51.5337 96.4225 51.1434 97.3059 50.7663 98.1919L50.1994 99.5104C50.0016 99.9534 49.8117 100.396 49.6113 100.829C49.7722 100.386 49.9462 99.9402 50.1123 99.4972L50.6397 98.1629C50.9878 97.2769 51.3517 96.3882 51.6945 95.5022C52.0373 94.6162 52.4276 93.7275 52.8047 92.8415C53.1817 91.9555 53.5667 91.088 53.9544 90.2046Z" fill="#DBDBDB"/>
<path d="M58.3606 82.415C57.8728 83.7493 57.3638 85.081 56.8523 86.4126L55.2991 90.4102L53.7169 94.4026L52.8995 96.3961L52.0688 98.3923L52.8125 96.3908L53.5745 94.3946L55.1303 90.397L56.7125 86.4047C57.2583 85.0757 57.7989 83.7441 58.3606 82.415Z" fill="#DBDBDB"/>
<path d="M73.2803 53.8408C72.8109 55.1224 72.3231 56.4066 71.83 57.6881L70.3348 61.5354L68.7975 65.3774L68.0064 67.2971C67.7427 67.9379 67.479 68.5787 67.2153 69.2168C67.4474 68.576 67.6926 67.9353 67.9299 67.2918L68.663 65.3695L70.1608 61.5222L71.6955 57.6802C72.215 56.3987 72.7371 55.1118 73.2803 53.8408Z" fill="#DBDBDB"/>
<path d="M60.4465 73.8633C60.0299 74.9629 59.5975 76.0599 59.1597 77.1595C58.722 78.2591 58.2684 79.3534 57.8254 80.4504C57.3824 81.5473 56.9157 82.6443 56.4516 83.7413L55.7502 85.3841C55.5102 85.9299 55.2755 86.4784 55.0303 87.0242C55.236 86.4758 55.4522 85.9273 55.6631 85.3762L56.3171 83.7307C56.7548 82.6311 57.2057 81.5341 57.6514 80.4372C58.097 79.3402 58.5585 78.2432 59.0252 77.1489C59.492 76.0546 59.9587 74.9576 60.4465 73.8633Z" fill="#DBDBDB"/>
<path d="M12.6123 0H12.3486V22.0896H12.6123V0Z" fill="#C7C7C7"/>
<path d="M20.1513 29.4836L19.5342 30.839H5.42661L4.80957 29.4836L10.8165 25.3252H14.1443L20.1513 29.4836Z" fill="#EBEBEB"/>
<path d="M14.561 21.3198L14.1444 25.3253H10.8165L10.3999 21.3198H14.561Z" fill="#DBDBDB"/>
<path d="M20.1513 29.4839L19.5342 30.8393H5.42398L4.80957 29.4839H20.1513Z" fill="#DBDBDB"/>
<path d="M31.1631 0H30.8994V17.715H31.1631V0Z" fill="#C7C7C7"/>
<path d="M38.7021 25.1065L38.085 26.4645H23.9748L23.3604 25.1065L29.3673 20.9507H32.6951L38.7021 25.1065Z" fill="#EBEBEB"/>
<path d="M33.1118 16.9448L32.6951 20.9503H29.3673L28.9507 16.9448H33.1118Z" fill="#DBDBDB"/>
<path d="M38.6994 25.1089L38.0824 26.4643H23.9748L23.3604 25.1089H38.6994Z" fill="#DBDBDB"/>
<path d="M96.0451 40.4347C96.104 39.4421 96.2442 38.4561 96.4644 37.4866C96.6394 36.5926 96.9986 35.7448 97.5192 34.9973C97.7614 34.6572 98.0686 34.3684 98.4229 34.1475C98.7773 33.9267 99.1719 33.7781 99.5839 33.7105C99.98 33.6822 100.378 33.7359 100.752 33.8684C101.126 34.0009 101.469 34.2093 101.759 34.4804C102.483 35.1492 103.11 35.9161 103.621 36.7588C104.211 37.666 104.749 38.6063 105.232 39.575C105.248 39.6093 105.198 39.6357 105.182 39.604C104.766 38.7809 104.285 37.9926 103.742 37.2466C103.251 36.5296 102.697 35.858 102.086 35.2399C101.53 34.6967 100.826 34.1851 100.019 34.164C99.6246 34.1692 99.2369 34.266 98.8863 34.4468C98.5358 34.6275 98.232 34.8873 97.9991 35.2056C97.4941 35.9217 97.1472 36.7369 96.9812 37.5973C96.7673 38.5207 96.628 39.4599 96.5646 40.4056C96.4064 42.3491 96.3642 44.303 96.3194 46.2517C96.2948 47.354 96.2781 48.4571 96.2693 49.5611C96.2693 50.1201 96.2693 50.6792 96.2561 51.2356C96.2774 51.7752 96.2562 52.3157 96.1928 52.852C96.1743 52.9627 95.995 52.9522 95.9792 52.852C95.9129 52.3451 95.8873 51.8336 95.9027 51.3226C95.9027 50.7952 95.8896 50.2678 95.8843 49.7404C95.8843 48.712 95.8711 47.681 95.8843 46.6526C95.8816 44.5641 95.9054 42.4967 96.0451 40.4347Z" fill="#A6A6A6"/>
<path d="M98.8217 38.9716C98.908 38.373 99.1124 37.7976 99.4229 37.2787C99.9872 36.5139 100.594 36.8462 100.032 37.6927C99.6157 38.3219 99.3454 39.0364 99.241 39.7837C99.241 39.7837 100.185 41.1339 101.327 41.7984C101.214 41.1083 101.182 40.4074 101.232 39.7099C101.451 38.0407 102.461 38.1278 102.213 39.4462C102.031 40.328 101.954 41.2282 101.983 42.128C102.365 42.3755 102.775 42.5765 103.204 42.7266C103.138 42.5341 103.067 42.2994 102.991 42.0199C102.587 40.5221 103.584 40.0554 103.616 40.8965C103.679 41.6145 103.809 42.3251 104.003 43.0193C104.552 43.2039 105.005 43.3304 105.282 43.428C106.002 43.6939 106.645 44.1332 107.154 44.7069C107.673 44.2361 108.104 43.6772 108.428 43.0562C108.08 42.7556 107.529 42.3099 106.764 41.7694C105.33 40.7568 105.828 39.4779 106.967 40.2742C107.787 40.8464 108.423 41.9091 108.713 42.455C109.101 41.5053 109.321 40.4951 109.362 39.47C108.236 38.4152 105.448 36.9385 106.289 36.9385C107.046 36.9385 108.737 38.046 109.356 38.4732C109.341 38.1824 109.31 37.8928 109.261 37.6056C108.207 36.9095 104.752 35.8283 105.306 35.5172C105.91 35.1744 108.315 36.2898 109.042 36.6405C108.906 36.1685 108.691 35.7228 108.407 35.322C106.941 33.3575 104.296 32.6851 103.133 33.0569C102.318 33.3206 102.556 35.3932 102.382 35.322C99.1065 34.0168 97.6166 34.9476 98.8217 38.9716ZM106.859 38.7448C107.094 38.4626 108.178 39.288 107.858 39.7416C107.539 40.1951 106.561 39.1034 106.859 38.7448ZM101.237 36.978C101.519 37.1574 101.103 38.2042 100.665 37.8878C100.293 37.6162 100.952 36.7961 101.237 36.978Z" fill="#EBEBEB"/>
<path d="M101.667 37.2969C101.814 37.0042 101.967 36.7142 102.139 36.432C102.289 36.152 102.465 35.8871 102.666 35.6409C102.619 35.5856 102.574 35.5249 102.526 35.4695C102.524 35.4674 102.521 35.4648 102.52 35.4617C102.518 35.4586 102.517 35.4552 102.517 35.4517C102.517 35.4483 102.517 35.4448 102.519 35.4415C102.52 35.4383 102.522 35.4354 102.524 35.4331C102.527 35.4307 102.53 35.4289 102.533 35.4279C102.537 35.4268 102.54 35.4265 102.544 35.427C102.547 35.4274 102.55 35.4286 102.553 35.4305C102.556 35.4324 102.559 35.4349 102.561 35.4379C102.616 35.4985 102.666 35.5645 102.721 35.6277C102.727 35.6301 102.732 35.6338 102.735 35.6384C102.739 35.643 102.741 35.6484 102.743 35.6541C102.946 35.8967 103.138 36.1472 103.32 36.403C103.642 36.4737 103.96 36.5617 104.272 36.6667C104.594 36.7748 104.913 36.8882 105.224 37.02C105.258 37.0332 105.24 37.086 105.208 37.0728C104.9 36.9357 104.586 36.8091 104.264 36.6931C103.942 36.577 103.652 36.5138 103.344 36.4294C103.444 36.57 103.542 36.7124 103.637 36.8566C104.215 37.0396 104.778 37.2698 105.319 37.5448C105.888 37.8085 106.437 38.1276 106.983 38.444C107.012 38.4598 106.983 38.5099 106.954 38.4915C106.418 38.1777 105.866 37.8917 105.3 37.6345C104.773 37.3892 104.227 37.1862 103.695 36.9515C105.034 39.0399 105.838 41.4501 106.912 43.6836C106.927 43.7152 106.875 43.7442 106.861 43.71C106.535 42.9189 106.157 42.1647 105.807 41.3947C105.488 40.7038 105.174 40.0077 104.852 39.3168C104.76 39.1138 104.662 38.9134 104.565 38.7103C104.623 39.8257 104.599 40.9623 104.784 42.0645C104.785 42.0689 104.785 42.0735 104.785 42.0779C104.784 42.0824 104.782 42.0867 104.779 42.0903C104.777 42.094 104.773 42.097 104.769 42.099C104.765 42.1011 104.76 42.1022 104.756 42.1022C104.751 42.1022 104.747 42.1011 104.743 42.099C104.739 42.097 104.735 42.094 104.733 42.0903C104.73 42.0867 104.728 42.0824 104.727 42.0779C104.727 42.0735 104.727 42.0689 104.728 42.0645C104.649 40.87 104.441 39.6913 104.449 38.4967C104.449 38.4967 104.449 38.4967 104.449 38.4809C104.222 38.0247 103.982 37.5764 103.718 37.1387C103.275 38.1935 102.809 39.2483 102.603 40.3637C102.602 40.3671 102.6 40.3704 102.598 40.3732C102.596 40.376 102.593 40.3783 102.59 40.38C102.586 40.3817 102.583 40.3828 102.579 40.3832C102.576 40.3835 102.572 40.3832 102.569 40.3821C102.565 40.3811 102.562 40.3794 102.559 40.3771C102.556 40.3748 102.554 40.372 102.552 40.3688C102.551 40.3656 102.549 40.3622 102.549 40.3586C102.549 40.355 102.549 40.3513 102.55 40.3479C102.851 39.2245 103.13 38.0986 103.671 37.0596C103.386 36.5865 103.072 36.1321 102.729 35.6989C102.579 35.9785 102.389 36.2263 102.22 36.5058C102.052 36.7854 101.893 37.0332 101.741 37.2969C101.41 37.8623 101.13 38.4552 100.902 39.0689C100.889 39.1006 100.836 39.0848 100.849 39.0531C101.116 38.473 101.374 37.8744 101.667 37.2969Z" fill="#A6A6A6"/>
<path d="M91.1115 39.839C91.9711 38.9768 92.9573 37.8455 94.2969 37.8481C95.5784 37.8481 96.5225 38.8818 97.063 39.9577C97.63 41.0705 97.8356 42.3309 97.9939 43.5571C98.1823 45.0262 98.2958 46.5039 98.334 47.9845C98.3578 48.8073 98.3551 49.63 98.334 50.4501C98.3351 51.2834 98.2726 52.1156 98.1468 52.9394C98.1231 53.0738 97.9095 53.0765 97.9016 52.9394C97.862 52.2485 97.9016 51.5523 97.9016 50.8588C97.9016 50.1653 97.9016 49.4955 97.8699 48.8125C97.8198 47.4334 97.7196 46.0569 97.5561 44.6857C97.4164 43.4886 97.2924 42.2597 96.9444 41.1021C96.6227 40.0605 96.0162 38.866 94.9587 38.4072C93.5163 37.7822 92.1056 38.9346 91.1616 39.8891C91.1352 39.8997 91.0851 39.8628 91.1115 39.839Z" fill="#A6A6A6"/>
<path d="M86.7259 41.7638C86.7259 41.9404 86.7444 42.1145 86.7549 42.2911C87.1698 41.9851 87.6532 41.785 88.1631 41.7084C89.384 41.5792 89.3049 42.4995 88.49 42.5443C87.9168 42.5513 87.3499 42.6649 86.8182 42.8792C87.016 44.4904 87.459 45.7798 87.5249 45.8035C88.6072 45.7417 89.6838 45.6051 90.7473 45.3948C90.444 44.7488 89.7531 43.8918 90.1065 43.8127C90.4598 43.7336 90.8422 44.5088 91.0373 45.3289C91.8346 45.176 92.6185 44.9599 93.3816 44.6829C92.8542 44.2188 92.0156 43.6281 92.3268 43.396C92.6379 43.164 93.3025 43.963 93.698 44.5536C94.0576 44.4082 94.3977 44.2186 94.7106 43.9893C93.9881 42.9346 92.2266 42.7104 92.456 41.9431C92.6854 41.1757 94.3335 42.241 95.0745 43.6624C95.942 42.7605 96.1978 41.4842 96.1055 40.3952C95.3487 40.3082 93.8931 40.4664 93.996 39.9232C94.0988 39.38 95.1536 39.4828 96.0159 39.8019C95.9349 39.3703 95.7623 38.9611 95.5096 38.6021C94.7185 37.5789 92.2767 38.8816 92.2767 38.8816C92.2767 38.8816 92.5404 36.4345 91.6069 36.01C91.0795 35.7674 90.1276 35.77 89.1809 36.329C89.7083 36.3712 90.3544 36.54 90.6128 36.9092C90.9424 37.3785 90.4229 37.6343 90.0854 37.4181C89.8533 37.2651 89.4183 36.7799 88.6324 36.7167C88.2961 36.9995 87.9998 37.3269 87.7517 37.6897C87.6568 37.8195 87.5688 37.9541 87.488 38.0931C87.9378 37.8918 88.4265 37.7922 88.9192 37.8013C89.4119 37.8104 89.8965 37.9281 90.3385 38.1459C91.3933 38.6733 90.8026 39.765 89.8955 39.3404C88.9884 38.9159 88.1446 38.4992 87.1795 38.7392C86.8397 39.6076 86.6817 40.5365 86.7154 41.4684C87.1863 41.1245 87.7163 40.8698 88.2791 40.7169C89.3339 40.4532 89.645 41.0702 88.4927 41.1863C87.8708 41.2574 87.2698 41.4538 86.7259 41.7638ZM88.0022 40.0788C87.931 39.7386 88.6746 39.641 88.7933 39.9179C88.9014 40.1526 88.0734 40.4189 88.0022 40.0814V40.0788ZM94.3704 41.9615C94.4416 41.7769 94.9374 41.9879 94.8978 42.2252C94.8266 42.5285 94.2992 42.1488 94.3704 41.9615ZM90.8554 43.1561C91.2193 43.011 91.7862 43.9129 91.3828 44.1185C90.9793 44.3242 90.56 43.2747 90.8554 43.1561Z" fill="#EBEBEB"/>
<path d="M87.6674 45.6188C88.2158 44.7038 88.7564 43.7862 89.3286 42.887C89.5923 42.4703 89.8771 42.059 90.1672 41.6581L90.038 41.6265C89.9668 41.6133 89.8929 41.5975 89.8191 41.5869C89.653 41.5553 89.4816 41.5316 89.3128 41.5157C89.144 41.4999 88.9937 41.4894 88.8329 41.4894C88.661 41.4797 88.4886 41.4886 88.3187 41.5157C88.3002 41.5157 88.295 41.4867 88.3187 41.4867C88.4901 41.4867 88.6641 41.4736 88.8461 41.4709C89.028 41.4683 89.1783 41.4709 89.3444 41.4709C89.5106 41.4709 89.6556 41.4947 89.8086 41.5184L90.0722 41.5632C90.1223 41.5632 90.1751 41.5817 90.2252 41.5975C90.5205 41.1896 90.8282 40.7906 91.1481 40.4003C90.2006 39.9395 89.1917 39.6172 88.1526 39.4431C88.1367 39.4431 88.1526 39.4141 88.1526 39.4167C89.2029 39.567 90.2233 39.8802 91.1771 40.3449L91.7045 39.7042C91.9023 39.4668 92.1132 39.2348 92.2926 38.9817C92.2926 38.9658 92.3268 38.9817 92.3136 38.9975C92.0682 39.2695 91.8368 39.5538 91.6201 39.8492C92.0106 40.122 92.3824 40.4206 92.7329 40.7431C93.0968 41.0648 93.4528 41.3997 93.7877 41.7425C93.8009 41.7425 93.7877 41.7742 93.7692 41.761C93.4282 41.4235 93.0766 41.1 92.7145 40.7906C92.3426 40.4847 91.955 40.2026 91.5832 39.8993C91.4988 40.0101 91.4145 40.1234 91.3195 40.2342L91.1929 40.4003C91.1941 40.4046 91.1941 40.4092 91.1929 40.4135L90.7684 40.9699C90.9334 41.2096 91.0747 41.4649 91.1903 41.732C91.3142 41.9957 91.4197 42.2594 91.5199 42.5231C91.7141 43.0823 91.8666 43.6552 91.9761 44.2371C91.9761 44.2529 91.9524 44.2634 91.9471 44.2371C91.831 43.6638 91.6651 43.1018 91.4514 42.5573C91.3433 42.2778 91.2219 42.0036 91.098 41.732C90.9741 41.4604 90.8475 41.2468 90.742 40.9989C90.6181 41.1598 90.4968 41.3259 90.3755 41.4894L90.2727 41.6344C90.2744 41.6361 90.2758 41.6382 90.2768 41.6404C90.2777 41.6427 90.2782 41.6451 90.2782 41.6476C90.2782 41.6501 90.2777 41.6525 90.2768 41.6547C90.2758 41.657 90.2744 41.6591 90.2727 41.6608C89.8956 42.1882 89.5369 42.7156 89.1915 43.264C89.2116 43.3018 89.2275 43.3415 89.239 43.3827C89.2601 43.4486 89.2812 43.5145 89.2996 43.5831C89.3392 43.7176 89.3708 43.8468 89.3972 43.9892C89.4236 44.1316 89.4367 44.2529 89.4499 44.3795C89.4521 44.5277 89.4635 44.6757 89.4842 44.8225C89.4842 44.8436 89.4526 44.8462 89.4552 44.8225C89.4666 44.6838 89.4568 44.5442 89.4262 44.4085C89.4051 44.2696 89.3787 44.1298 89.3471 43.9892C89.3181 43.8626 89.2838 43.7387 89.2469 43.6148C89.2284 43.5515 89.2073 43.4908 89.1862 43.4302C89.1651 43.3695 89.1599 43.3642 89.1493 43.33C88.9858 43.5937 88.825 43.8415 88.6668 44.0973C88.3503 44.6089 88.0392 45.1231 87.7254 45.6346C87.7069 45.661 87.6515 45.6373 87.6674 45.6188Z" fill="#A6A6A6"/>
<path d="M96.1033 52.6332C96.1165 52.1059 96.1983 51.5943 96.2536 51.0774C96.309 50.5606 96.3697 50.0438 96.425 49.5243C96.4938 48.5182 96.6277 47.5175 96.8258 46.5287C96.9999 45.677 97.4241 44.8966 98.0441 44.2873C98.366 43.9657 98.7887 43.7646 99.2413 43.7177C99.6956 43.7039 100.142 43.8412 100.51 44.108C100.928 44.4184 101.29 44.7994 101.578 45.234C101.887 45.6633 102.164 46.1145 102.408 46.5841C102.408 46.6026 102.39 46.6131 102.382 46.5973C101.92 45.8132 101.308 45.1278 100.581 44.58C100.257 44.3134 99.8616 44.1483 99.4443 44.1054C99.241 44.1021 99.039 44.1394 98.8502 44.215C98.6615 44.2906 98.4896 44.403 98.3447 44.5457C97.7652 45.1035 97.361 45.8184 97.1818 46.6026C96.9695 47.5143 96.8188 48.4393 96.7309 49.3713L96.5173 51.0142C96.4435 51.56 96.3987 52.119 96.2826 52.657C96.2811 52.6687 96.2772 52.6801 96.2713 52.6904C96.2653 52.7007 96.2574 52.7097 96.248 52.7169C96.2386 52.7241 96.2278 52.7294 96.2163 52.7325C96.2048 52.7355 96.1929 52.7363 96.1811 52.7348C96.1693 52.7332 96.158 52.7293 96.1477 52.7234C96.1374 52.7174 96.1284 52.7095 96.1212 52.7001C96.114 52.6907 96.1087 52.6799 96.1056 52.6685C96.1025 52.657 96.1018 52.645 96.1033 52.6332Z" fill="#A6A6A6"/>
<path d="M98.6502 48.6096C98.8107 48.8265 99.0006 49.02 99.2145 49.1844C99.1301 48.6781 99.0273 47.7816 99.2831 47.3017C99.6786 46.5607 100.148 46.9299 99.9107 47.5654C99.6745 48.1474 99.5458 48.7674 99.531 49.3954C100.069 49.735 100.646 50.0078 101.25 50.2076C101.187 49.9167 101.168 49.618 101.195 49.3216C101.274 48.5305 101.883 48.5305 101.722 49.369C101.663 49.689 101.634 50.014 101.638 50.3394C102.515 50.6097 103.412 50.8125 104.32 50.9459C104.784 50.3445 105.158 49.6782 105.43 48.9682C104.784 48.8074 103.476 48.7704 103.505 48.3063C103.542 47.6867 104.807 48.1639 105.551 48.6149C105.72 48.0743 105.796 47.509 105.775 46.943C105.194 46.7799 104.596 46.6808 103.993 46.6477C102.674 46.5317 102.727 45.7775 103.689 45.796C104.401 45.796 105.303 46.2442 105.728 46.471C105.451 44.6594 104.069 43.4992 102.962 43.4544C101.1 43.3805 101.77 45.6958 101.77 45.6958C101.77 45.6958 100.509 44.8098 99.32 44.8335C98.1307 44.8572 97.3792 46.8376 98.6502 48.6096ZM103.623 45.2607C103.581 44.997 104.415 44.9363 104.457 45.2607C104.499 45.585 103.666 45.5244 103.623 45.2607ZM104.96 47.9925C104.945 47.8211 105.303 47.7921 105.382 48.0057C105.438 48.1323 104.976 48.1455 104.96 47.9925ZM100.491 48.1508C100.77 48.1903 100.931 49.1923 100.449 49.1739C100.079 49.1449 100.253 48.1033 100.491 48.1376V48.1508Z" fill="#EBEBEB"/>
<path d="M100.892 49.2503C100.939 49.1264 100.979 48.9866 101.018 48.8706C100.981 48.9991 100.95 49.1293 100.926 49.2609C100.926 49.2637 100.925 49.2664 100.924 49.2688C100.922 49.2713 100.92 49.2734 100.918 49.2749C100.916 49.2765 100.913 49.2776 100.91 49.278C100.908 49.2784 100.905 49.2782 100.902 49.2774C100.9 49.2766 100.897 49.2752 100.895 49.2733C100.893 49.2714 100.891 49.269 100.89 49.2664C100.889 49.2638 100.889 49.261 100.889 49.2582C100.889 49.2554 100.89 49.2527 100.892 49.2503Z" fill="#A6A6A6"/>
<path d="M101.005 48.8704C101.005 48.8414 101.024 48.8124 101.032 48.7808C101.025 48.8111 101.016 48.841 101.005 48.8704Z" fill="#A6A6A6"/>
<path d="M92.9888 51.626L93.1206 54.3974L93.4581 61.5409H100.826L101.163 54.3974L101.295 51.626H92.9888Z" fill="#C7C7C7"/>
<path d="M92.9888 51.626L93.1206 54.3974H101.163L101.295 51.626H92.9888Z" fill="#A6A6A6"/>
<path d="M92.4642 52.7466H101.817V50.5052H92.4642V52.7466Z" fill="#C7C7C7"/>
<path d="M58.1732 123C84.0408 123 105.011 120.276 105.011 116.916C105.011 113.557 84.0408 110.833 58.1732 110.833C32.3057 110.833 11.3359 113.557 11.3359 116.916C11.3359 120.276 32.3057 123 58.1732 123Z" fill="#EBEBEB"/>
<path d="M18.8195 32.7534H29.5545L24.9425 100.847H14.2075L18.8195 32.7534Z" fill="#FB855E"/>
<path opacity="0.1" d="M18.8195 32.7534H29.5545L24.9425 100.847H14.2075L18.8195 32.7534Z" fill="black"/>
<path d="M29.5544 32.7534H31.7932L27.1811 100.847H24.9424L29.5544 32.7534Z" fill="#FB855E"/>
<path opacity="0.3" d="M29.5544 32.7534H31.7932L27.1811 100.847H24.9424L29.5544 32.7534Z" fill="black"/>
<g opacity="0.1">
<path opacity="0.1" d="M21.8812 32.7534C21.7441 35.8123 21.5754 38.8711 21.404 41.9273L20.8581 51.0986L20.2516 60.2646L19.9378 64.8476L19.5845 69.4253L19.8112 64.8371L20.0749 60.2514L20.6234 51.0828L21.2299 41.9141C21.4198 38.8606 21.636 35.807 21.8812 32.7534Z" fill="black"/>
<path opacity="0.1" d="M22.2506 47.4019C22.161 49.4719 22.0397 51.5366 21.9157 53.6039L21.5202 59.7981L21.0535 65.9896L20.7898 69.0854L20.5103 72.1759L20.6632 69.0749L20.8451 65.9765L21.2565 59.7796L21.7232 53.5881C21.8841 51.526 22.0476 49.4639 22.2506 47.4019Z" fill="black"/>
<path opacity="0.1" d="M24.9482 36.917C24.8849 38.689 24.7952 40.4584 24.6845 42.2278L24.368 47.5359L23.9883 52.8388L23.7774 55.4889C23.6983 56.3723 23.6271 57.2557 23.54 58.1259C23.569 57.2372 23.6139 56.3539 23.6508 55.4679L23.7879 52.8125L24.107 47.5043L24.4867 42.2014C24.6317 40.4479 24.7741 38.6811 24.9482 36.917Z" fill="black"/>
<path opacity="0.1" d="M26.0026 32.7324C26.0026 33.716 25.9525 34.6969 25.9103 35.6779C25.8681 36.6588 25.7996 37.6398 25.7468 38.6207C25.6941 39.6017 25.6071 40.5826 25.5227 41.5609L25.3908 43.027C25.3355 43.5175 25.2906 44.0053 25.23 44.4932C25.23 44.0027 25.2511 43.5122 25.2643 43.0191L25.3249 41.5477C25.3671 40.5668 25.433 39.5858 25.4884 38.6049C25.5438 37.6239 25.6255 36.6456 25.7099 35.6647C25.7943 34.6838 25.8839 33.7081 26.0026 32.7324Z" fill="black"/>
<path opacity="0.1" d="M25.5623 57.3428C25.4384 59.5868 25.2986 61.8256 25.1298 64.0775L24.6262 70.8149L24.0645 77.5496L23.7613 80.917L23.4316 84.2791L23.6347 80.9065L23.8641 77.5391L24.3678 70.8043L24.9294 64.0775C25.1272 61.8308 25.3302 59.5947 25.5623 57.3428Z" fill="black"/>
<path opacity="0.1" d="M21.8813 81.2837C21.8681 82.5257 21.8259 83.765 21.7785 85.0044C21.731 86.2438 21.6625 87.4805 21.6071 88.7172C21.5517 89.9539 21.462 91.1933 21.375 92.43L21.2353 94.2759C21.1825 94.8929 21.1351 95.5126 21.0718 96.1217C21.0718 95.4994 21.0981 94.8824 21.1087 94.2601L21.1746 92.4142C21.2221 91.1748 21.2906 89.9355 21.346 88.6988C21.4014 87.462 21.4911 86.2227 21.5807 84.9886C21.6704 83.7545 21.76 82.5204 21.8813 81.2837Z" fill="black"/>
<path opacity="0.1" d="M16.9845 85.437C16.9423 86.7265 16.8711 88.0133 16.7946 89.3001C16.7181 90.587 16.6232 91.8711 16.5309 93.1553C16.4386 94.4395 16.3305 95.7263 16.2118 97.0079L16.0325 98.9329C15.964 99.5736 15.9033 100.214 15.8242 100.855C15.8427 100.212 15.8796 99.5684 15.906 98.9223L16.0141 96.9947C16.0879 95.7079 16.1855 94.4237 16.2778 93.1369C16.3701 91.85 16.4782 90.5685 16.5942 89.2843C16.7102 88.0001 16.8342 86.7107 16.9845 85.437Z" fill="black"/>
<path opacity="0.1" d="M19.5741 74.1479C19.5135 76.0782 19.4238 78.0084 19.3289 79.9492L19.0151 85.7347L18.638 91.5016L18.4297 94.4023L18.1924 97.2897L18.3031 94.3891L18.4403 91.4885L18.7541 85.6872L19.1311 79.9044C19.2656 77.9979 19.4106 76.0729 19.5741 74.1479Z" fill="black"/>
<path opacity="0.1" d="M27.3213 32.7534C27.2633 34.5993 27.1763 36.4715 27.0866 38.3279L26.7939 43.8998L26.43 49.4663L26.2296 52.2483C26.1505 53.1765 26.0846 54.0942 25.9976 55.0303C26.0239 54.0994 26.0688 53.1712 26.1004 52.2404L26.2322 49.4558L26.5302 43.8839L26.8941 38.3174C27.0312 36.461 27.1657 34.6072 27.3213 32.7534Z" fill="black"/>
<path opacity="0.1" d="M18.4482 61.7573C18.3796 63.3395 18.2847 64.9427 18.1845 66.5328C18.0843 68.1229 17.9603 69.7103 17.8496 71.3004C17.7388 72.8905 17.5859 74.4779 17.454 76.0654L17.2352 78.4386C17.1508 79.2297 17.077 80.0208 16.9873 80.8118C17.0189 80.0208 17.0664 79.2297 17.106 78.4228L17.2536 76.0363C17.3565 74.4542 17.4778 72.872 17.5912 71.2688C17.7046 69.6655 17.8549 68.0913 17.9867 66.5038C18.1186 64.9164 18.2741 63.3421 18.4482 61.7573Z" fill="black"/>
</g>
<path d="M14.2076 61.2061H23.0387L20.5811 100.847H11.75L14.2076 61.2061Z" fill="#FB855E"/>
<path d="M23.0392 61.2061H24.8798L22.4221 100.847H20.5815L23.0392 61.2061Z" fill="#FB855E"/>
<path opacity="0.3" d="M23.0392 61.2061H24.8798L22.4221 100.847H20.5815L23.0392 61.2061Z" fill="black"/>
<g opacity="0.1">
<path opacity="0.1" d="M18.0291 61.23C17.9737 62.9835 17.8867 64.7345 17.7971 66.4854C17.7074 68.2363 17.5967 69.9846 17.4991 71.725L17.1378 76.9699L16.9374 79.591C16.861 80.4664 16.7924 81.3393 16.708 82.2121C16.7344 81.3366 16.7766 80.4612 16.8108 79.5752L16.9401 76.9382L17.2407 71.725C17.3593 69.9741 17.4674 68.2258 17.5993 66.4775C17.7311 64.7292 17.8656 62.9756 18.0291 61.23Z" fill="black"/>
<path opacity="0.1" d="M18.2397 69.6152C18.2107 70.8019 18.1527 71.9885 18.0894 73.1672C18.0261 74.3459 17.9444 75.5404 17.8706 76.7139C17.7967 77.8873 17.6965 79.0871 17.6069 80.2579L17.446 82.0273C17.3827 82.618 17.3273 83.2087 17.2588 83.7967C17.2588 83.2034 17.2983 82.6127 17.3194 82.0194L17.4065 80.2447C17.4697 79.0607 17.5541 77.8715 17.6253 76.698C17.6965 75.5246 17.802 74.3248 17.9048 73.154C18.0077 71.9832 18.0921 70.7939 18.2397 69.6152Z" fill="black"/>
<path opacity="0.1" d="M19.7826 63.6133C19.7826 64.6285 19.7272 65.6437 19.6797 66.6563C19.6323 67.6689 19.5664 68.6815 19.511 69.6967C19.4556 70.7119 19.3686 71.7192 19.2816 72.7292L19.1444 74.2454C19.0917 74.7517 19.0442 75.2554 18.981 75.7617C18.981 75.2527 19.0073 74.7464 19.0179 74.2375L19.0812 72.716C19.1286 71.7034 19.1972 70.6908 19.2526 69.6782C19.3079 68.6657 19.395 67.6531 19.482 66.6431C19.569 65.6332 19.6745 64.6206 19.7826 63.6133Z" fill="black"/>
<path opacity="0.1" d="M20.3861 61.2192C20.4019 61.7835 20.3861 62.3452 20.3861 62.9069C20.3861 63.4685 20.3386 64.0329 20.3043 64.5945C20.27 65.1562 20.2252 65.7152 20.1646 66.2742L20.0723 67.1128C20.0327 67.3923 20.0011 67.6718 19.9536 67.9513C19.9536 67.6692 19.9536 67.387 19.9536 67.1049L19.9721 66.2611C19.9879 65.6994 20.0195 65.1377 20.0538 64.5761C20.0881 64.0144 20.1356 63.4554 20.1962 62.8963C20.2569 62.3373 20.2964 61.7756 20.3861 61.2192Z" fill="black"/>
<path opacity="0.1" d="M20.1356 75.3057C20.0882 76.5899 20.0117 77.8767 19.93 79.1609C19.8482 80.4451 19.7454 81.7345 19.6663 83.0187C19.5872 84.3029 19.4527 85.5897 19.3314 86.8739L19.1415 88.8015C19.0703 89.4423 19.007 90.0831 18.9253 90.7238C18.949 90.0778 18.9859 89.4344 19.0149 88.791L19.131 86.8634C19.2127 85.5765 19.3156 84.295 19.3947 83.0082C19.4738 81.7213 19.6056 80.4424 19.7296 79.1582C19.8535 77.874 19.9801 76.5899 20.1356 75.3057Z" fill="black"/>
<path opacity="0.1" d="M15.1756 62.6064C15.0912 65.1194 14.9779 67.6351 14.8618 70.1507L14.4768 77.6976L14.0312 85.2446L13.7886 89.0154L13.5249 92.7836L13.6673 89.0075L13.8387 85.234L14.2237 77.6897L14.6641 70.1428C14.8196 67.6351 14.9831 65.1326 15.1756 62.6064Z" fill="black"/>
<path opacity="0.1" d="M18.0288 89.0098C18.0156 89.9986 17.976 90.9875 17.9312 91.9763C17.8864 92.9652 17.8284 93.9488 17.7651 94.9297C17.7018 95.9106 17.6253 96.9021 17.5409 97.8857L17.4065 99.3624C17.3511 99.8555 17.3063 100.349 17.2456 100.839C17.2456 100.343 17.2667 99.8502 17.2799 99.3545L17.3405 97.8725C17.3854 96.8863 17.4513 95.9001 17.5067 94.9112C17.562 93.9224 17.6464 92.9388 17.7334 91.9552C17.8205 90.9717 17.9101 89.9933 18.0288 89.0098Z" fill="black"/>
<path opacity="0.1" d="M15.2256 91.3833C15.2256 92.1744 15.1861 92.9655 15.1465 93.7565C15.107 94.5476 15.0569 95.3387 15.0015 96.1298C14.9461 96.9209 14.8776 97.712 14.7932 98.503L14.664 99.6765C14.6139 100.072 14.5717 100.468 14.5137 100.858C14.5137 100.46 14.5295 100.067 14.5374 99.6686L14.5901 98.4819C14.6244 97.6909 14.6798 96.8998 14.7378 96.1087C14.7958 95.3176 14.8617 94.5265 14.9435 93.7355C15.0252 92.9444 15.1123 92.1691 15.2256 91.3833Z" fill="black"/>
<path opacity="0.1" d="M16.7076 84.9253C16.7076 86.0302 16.6548 87.1377 16.61 88.2426C16.5652 89.3474 16.5098 90.447 16.4413 91.5546C16.3727 92.6621 16.3015 93.7617 16.2145 94.8639L16.08 96.512C16.0246 97.0631 15.9798 97.6142 15.9165 98.1654C15.9165 97.6116 15.9402 97.0579 15.9534 96.5067L16.0167 94.8481C16.0615 93.7432 16.1275 92.6383 16.1828 91.5335C16.2382 90.4286 16.3252 89.3263 16.4122 88.2241C16.4993 87.1219 16.5889 86.0249 16.7076 84.9253Z" fill="black"/>
<path opacity="0.1" d="M21.1483 61.23C21.1483 62.2979 21.1008 63.3606 21.056 64.4233C21.0112 65.486 20.9505 66.5513 20.8978 67.614C20.8451 68.6767 20.7607 69.7394 20.6763 70.7994L20.5444 72.3816C20.4917 72.909 20.4469 73.4364 20.3862 73.9638C20.3862 73.4364 20.4073 72.909 20.4179 72.3658L20.4785 70.7704C20.5207 69.7157 20.584 68.6424 20.6367 67.5797C20.6895 66.517 20.7739 65.4544 20.8582 64.3943C20.9426 63.3343 21.0323 62.29 21.1483 61.23Z" fill="black"/>
<path opacity="0.1" d="M16.0641 77.832C16.0483 78.747 16.0035 79.6568 15.9534 80.5692C15.9033 81.4816 15.84 82.3887 15.7741 83.2984C15.7081 84.2082 15.629 85.1179 15.5341 86.025L15.3943 87.3883C15.3363 87.8392 15.2889 88.2954 15.2256 88.7463C15.2256 88.2901 15.2546 87.8339 15.2678 87.3777L15.3363 86.0118C15.3812 85.0994 15.4471 84.1897 15.5157 83.2799C15.5842 82.3702 15.6607 81.4605 15.7556 80.5534C15.8505 79.6462 15.9402 78.7391 16.0641 77.832Z" fill="black"/>
<path opacity="0.1" d="M20.9216 80.8247C20.8451 82.4201 20.7397 84.0128 20.6316 85.6081C20.5234 87.2035 20.389 88.7909 20.2703 90.3836C20.1516 91.9763 20.0066 93.5664 19.851 95.1565L19.6216 97.5297C19.5346 98.3208 19.4555 99.1119 19.3579 99.903C19.3922 99.1119 19.4449 98.3076 19.4871 97.5113L19.648 95.1196C19.7561 93.5374 19.8879 91.9341 20.0066 90.3414C20.1253 88.7487 20.2703 87.1586 20.4259 85.5712C20.5814 83.9838 20.7291 82.4121 20.9216 80.8247Z" fill="black"/>
</g>
<path d="M14.8062 45.4106H22.5272L8.69381 100.847H0.970215L14.8062 45.4106Z" fill="#FB855E"/>
<path d="M22.5272 45.4106H24.1384L10.305 100.847H8.69385L22.5272 45.4106Z" fill="#FB855E"/>
<path opacity="0.3" d="M22.5272 45.4106H24.1384L10.305 100.847H8.69385L22.5272 45.4106Z" fill="black"/>
<g opacity="0.1">
<path opacity="0.1" d="M16.7446 46.355C16.2172 48.7836 15.6608 51.2017 15.0992 53.6224L13.3878 60.8713L11.6184 68.1071L10.7087 71.725L9.77783 75.3323L10.5847 71.696L11.4206 68.0649L13.132 60.816L14.904 53.5802C15.5079 51.1568 16.1118 48.7572 16.7446 46.355Z" fill="black"/>
<path opacity="0.1" d="M14.9939 58.1079C14.6405 59.7507 14.2608 61.3856 13.8732 63.0232C13.4855 64.6607 13.0821 66.2851 12.6892 67.9173L11.4525 72.7798L10.8117 75.2164C10.5902 76.0259 10.3739 76.8355 10.1445 77.6424C10.3186 76.8223 10.5084 76.0048 10.6877 75.1847L11.26 72.7324L12.4439 67.8382C12.8579 66.2139 13.2588 64.5842 13.6833 62.9599C14.1079 61.3355 14.5377 59.7244 14.9939 58.1079Z" fill="black"/>
<path opacity="0.1" d="M18.6196 50.1021C18.3295 51.5128 18.0157 52.913 17.6967 54.3212C17.3776 55.7293 17.0374 57.1189 16.6946 58.5165C16.3518 59.9141 16.0064 61.3064 15.6398 62.6987L15.0966 64.7845C14.9041 65.478 14.7222 66.1742 14.5244 66.8651C14.6642 66.1584 14.8224 65.4569 14.9727 64.7555L15.4473 62.646C15.7664 61.2458 16.1066 59.8482 16.4362 58.4506C16.7658 57.053 17.1244 55.6607 17.491 54.2684C17.8575 52.8761 18.2161 51.4917 18.6196 50.1021Z" fill="black"/>
<path opacity="0.1" d="M20.0383 46.9141C19.9012 47.7051 19.7377 48.4804 19.5689 49.2583C19.4001 50.0362 19.2182 50.8141 19.0415 51.5867C18.8648 52.3593 18.6592 53.1346 18.4456 53.902L18.1291 55.0543C18.0131 55.4366 17.9076 55.8216 17.7837 56.2014C17.8496 55.8058 17.9314 55.4103 18.0052 55.0253L18.2531 53.8545C18.4192 53.0766 18.6038 52.3013 18.7805 51.5261C18.9571 50.7508 19.1654 49.9808 19.3764 49.2108C19.5874 48.4408 19.7983 47.6761 20.0383 46.9141Z" fill="black"/>
<path opacity="0.1" d="M16.2463 66.5117C15.8454 68.289 15.413 70.061 14.9779 71.8331L13.641 77.1465L12.246 82.4467L11.5288 85.0837C11.2809 85.9618 11.0409 86.8425 10.7852 87.7206C10.9829 86.8293 11.1992 85.9407 11.4048 85.052L12.0535 82.394L13.3878 77.0832L14.7828 71.7882C15.2627 70.032 15.7426 68.2706 16.2463 66.5117Z" fill="black"/>
<path opacity="0.1" d="M9.9679 85.1206C9.79123 86.1121 9.59082 87.0957 9.3825 88.0819C9.17419 89.0681 8.94741 90.0438 8.73118 91.0247C8.51495 92.0057 8.26971 92.9813 8.02184 93.957L7.6474 95.4152C7.51291 95.9004 7.3837 96.3882 7.24658 96.8708C7.33096 96.3751 7.43117 95.882 7.52346 95.3888L7.82935 93.9095C8.03503 92.9259 8.2618 91.9476 8.48067 90.9667C8.69954 89.9858 8.94213 89.0101 9.19001 88.0371C9.43788 87.064 9.68839 86.0884 9.9679 85.1206Z" fill="black"/>
<path opacity="0.1" d="M5.47692 87.7471C5.27124 88.7728 5.03918 89.7933 4.8045 90.8112C4.56981 91.8291 4.31139 92.8416 4.06615 93.8569C3.82092 94.8721 3.53877 95.8794 3.27507 96.8867L2.8558 98.3977C2.70813 98.8987 2.56837 99.4023 2.41016 99.9007C2.51036 99.3892 2.62639 98.8776 2.7345 98.366L3.08258 96.8392C3.31726 95.8214 3.57568 94.8088 3.82092 93.7936C4.06615 92.7783 4.34831 91.7684 4.612 90.7611C4.87569 89.7538 5.17103 88.7465 5.47692 87.7471Z" fill="black"/>
<path opacity="0.1" d="M9.12644 79.1084C8.81791 80.6431 8.48039 82.1752 8.13758 83.7046C7.79478 85.234 7.43616 86.7555 7.08281 88.2823C6.72946 89.8091 6.3471 91.3201 5.96211 92.8389L5.38462 95.1173C5.18158 95.8741 4.98908 96.6335 4.78076 97.3877C4.93107 96.6203 5.09983 95.8556 5.26068 95.0883L5.76698 92.7915C6.10714 91.2647 6.47104 89.7405 6.82175 88.2137C7.17246 86.687 7.55746 85.1734 7.93981 83.6466C8.32217 82.1198 8.70716 80.6088 9.12644 79.1084Z" fill="black"/>
<path opacity="0.1" d="M21.096 47.1172C20.8006 48.5965 20.4789 50.0706 20.1493 51.542C19.8197 53.0134 19.4742 54.4795 19.1367 55.9509C18.7992 57.4223 18.4326 58.8832 18.0635 60.3467L17.5071 62.538C17.3119 63.2658 17.1274 63.9962 16.9243 64.724C17.0693 63.983 17.2302 63.2473 17.3831 62.509L17.871 60.2992C18.198 58.8278 18.546 57.3591 18.8836 55.8903C19.2211 54.4215 19.5876 52.958 19.9568 51.4945C20.326 50.031 20.6978 48.5728 21.096 47.1172Z" fill="black"/>
<path opacity="0.1" d="M9.95179 69.043C9.68809 70.3087 9.38748 71.5665 9.08951 72.8243C8.79153 74.0822 8.46983 75.3347 8.1613 76.5873C7.85278 77.8398 7.51262 79.0897 7.17509 80.337L6.6477 82.2066C6.46575 82.8263 6.29435 83.4512 6.10449 84.0682C6.23634 83.4354 6.38401 82.8052 6.52377 82.1749L6.96677 80.2869C7.26738 79.0317 7.58645 77.7792 7.89497 76.524C8.2035 75.2688 8.54366 74.0215 8.88383 72.7742C9.22399 71.527 9.57998 70.2823 9.95179 69.043Z" fill="black"/>
</g>
<path d="M0.0839844 100.858L14.6056 100.795L29.1272 100.771L58.1731 100.726L87.219 100.771L101.741 100.792L116.262 100.858L101.741 100.921L87.219 100.945L58.1731 100.99L29.1272 100.945L14.6056 100.921L0.0839844 100.858Z" fill="#263238"/>
<path d="M65.8575 117.172C65.2457 117.37 47.8023 117.143 47.1352 116.713C46.8715 116.555 46.766 114.01 46.7159 110.933V110.835C46.7027 110.203 46.6948 109.549 46.6948 108.887C46.6948 108.797 46.6948 108.705 46.6948 108.623L58.06 108.655L58.0468 109.008L57.9756 110.854V111.044C57.9756 111.044 64.6128 114.118 65.2879 114.667C65.9629 115.215 66.4692 116.977 65.8575 117.172Z" fill="#EBEBEB"/>
<path d="M65.8574 117.172C65.5436 117.272 60.805 117.262 56.1719 117.172C55.241 117.154 54.326 117.132 53.4321 117.106C50.128 117.016 47.3988 116.879 47.1456 116.716C46.8925 116.552 46.7791 114.079 46.729 111.062C46.729 111.02 46.729 110.978 46.729 110.936C46.729 110.893 46.729 110.87 46.729 110.835L57.9703 110.859V111.049C57.9703 111.049 64.6101 114.121 65.2825 114.672C65.9549 115.223 66.4691 116.977 65.8574 117.172Z" fill="#FB855E"/>
<path d="M65.6672 116.495C62.727 116.384 50.8608 116.215 47.947 116.331C47.9233 116.331 47.9233 116.347 47.947 116.35C50.8476 116.521 62.7139 116.592 65.6672 116.542C65.7305 116.553 65.7305 116.497 65.6672 116.495Z" fill="#263238"/>
<path d="M59.228 110.904C58.073 110.675 56.657 110.833 55.7604 111.645C55.7261 111.677 55.7604 111.727 55.8105 111.717C56.9223 111.372 58.0682 111.149 59.228 111.052C59.2476 111.052 59.2663 111.044 59.2802 111.03C59.294 111.017 59.3018 110.998 59.3018 110.978C59.3018 110.959 59.294 110.94 59.2802 110.926C59.2663 110.912 59.2476 110.904 59.228 110.904Z" fill="#263238"/>
<path d="M60.0586 111.418C58.9062 111.189 57.4876 111.347 56.5937 112.159C56.5567 112.191 56.5937 112.241 56.6411 112.23C57.7513 111.887 58.8953 111.664 60.0533 111.566C60.0729 111.566 60.092 111.559 60.1063 111.546C60.1206 111.533 60.1291 111.514 60.1298 111.495C60.1305 111.475 60.1234 111.456 60.11 111.442C60.0967 111.427 60.0782 111.419 60.0586 111.418Z" fill="#263238"/>
<path d="M60.8892 111.933C59.7342 111.703 58.3155 111.862 57.4216 112.674C57.3873 112.705 57.4216 112.755 57.4691 112.745C58.5788 112.398 59.7229 112.171 60.8813 112.07C60.8953 112.065 60.9077 112.056 60.9167 112.045C60.9257 112.033 60.931 112.019 60.9319 112.004C60.9327 111.989 60.9291 111.974 60.9215 111.962C60.9139 111.949 60.9026 111.939 60.8892 111.933Z" fill="#263238"/>
<path d="M56.1719 117.17C55.241 117.151 54.326 117.13 53.4321 117.104C50.128 117.014 47.3988 116.877 47.1456 116.713C46.8925 116.55 46.7791 114.076 46.729 111.06C46.729 111.018 46.729 110.975 46.729 110.933C46.729 110.891 46.729 110.867 46.729 110.833C48.2769 111.914 53.7037 115.527 56.1719 117.17Z" fill="#263238"/>
<path d="M58.7424 110.896H46.1801C46.1801 110.896 48.7115 81.5524 48.6113 81.0408C48.4874 80.3842 43.7989 62.0285 42.8997 58.5557L40.5054 49.3105H51.1507C51.1507 49.3105 52.3716 53.2501 53.9538 58.3658C56.501 66.6853 59.908 78.1428 60.2429 80.9143C60.7808 85.4102 58.7424 110.896 58.7424 110.896Z" fill="#455A64"/>
<path d="M58.1862 108.753C56.2691 108.713 56.8202 108.697 54.9005 108.679C53.9618 108.679 47.7808 108.615 46.9133 108.761C46.8948 108.761 46.8948 108.797 46.9133 108.8C47.7914 108.945 53.9618 108.892 54.9005 108.882C56.8202 108.863 56.2691 108.848 58.1862 108.808C58.1935 108.808 58.2006 108.805 58.2058 108.8C58.2109 108.795 58.2139 108.788 58.2139 108.78C58.2139 108.773 58.2109 108.766 58.2058 108.761C58.2006 108.756 58.1935 108.753 58.1862 108.753Z" fill="#263238"/>
<path d="M50.9769 79.2475C50.5629 77.4306 49.9485 75.6507 49.4132 73.8681C48.325 70.2467 47.229 66.6271 46.125 63.0092C45.5765 61.2003 45.0245 59.3913 44.469 57.5824C44.1868 56.67 43.9073 55.7576 43.6225 54.8453C43.3377 53.9329 43.0239 53.0706 42.7708 52.1714C42.6679 51.8049 42.6126 52.0053 42.7444 52.472C43.0081 53.4081 43.2718 54.3469 43.5355 55.2804C44.0787 57.1315 44.6237 58.9817 45.1704 60.8311C46.2586 64.5123 47.3573 68.1899 48.4666 71.8641C49.0186 73.7082 49.5723 75.554 50.1278 77.4016C50.4095 78.278 50.6368 79.171 50.8082 80.0755C50.9557 81.0217 50.9929 81.9818 50.9189 82.9366C50.7976 84.8589 50.5761 86.7786 50.3915 88.6956C50.2069 90.6127 50.0382 92.5377 49.8641 94.46C49.5125 98.2836 49.161 102.108 48.8094 105.933C48.7645 106.419 48.7223 106.904 48.6854 107.389C48.6854 107.55 48.9201 107.539 48.9359 107.389C49.3499 103.608 49.6664 99.813 50.0223 96.0237L51.0771 84.7191C51.1641 83.7725 51.2643 82.8258 51.267 81.8739C51.2691 80.9903 51.1718 80.1093 50.9769 79.2475Z" fill="#263238"/>
<path d="M52.7383 117.172C52.1265 117.37 34.6832 117.143 34.0161 116.713C33.7524 116.555 33.6469 114.01 33.5968 110.933C33.5968 110.901 33.5968 110.867 33.5968 110.835C33.5968 110.203 33.5783 109.549 33.5757 108.887C33.5757 108.797 33.5757 108.705 33.5757 108.623L44.9409 108.655L44.9251 109.008L44.8565 110.854V111.044C44.8565 111.044 51.4963 114.118 52.1687 114.667C52.8412 115.215 53.3527 116.977 52.7383 117.172Z" fill="#EBEBEB"/>
<path d="M52.7413 117.172C52.4275 117.272 47.6863 117.262 43.0559 117.172C42.1224 117.154 41.21 117.132 40.3134 117.106C37.012 117.016 34.2801 116.879 34.027 116.716C33.7738 116.552 33.6631 114.079 33.6104 111.062C33.6104 111.02 33.6104 110.978 33.6104 110.936C33.6104 110.893 33.6104 110.87 33.6104 110.835L44.8543 110.859V111.049C44.8543 111.049 51.4914 114.121 52.1639 114.672C52.8363 115.223 53.3531 116.977 52.7413 117.172Z" fill="#FB855E"/>
<path d="M52.551 116.495C49.6108 116.384 37.7446 116.215 34.8308 116.331C34.8071 116.331 34.8071 116.347 34.8308 116.35C37.7314 116.521 49.5976 116.592 52.551 116.542C52.6117 116.553 52.6117 116.497 52.551 116.495Z" fill="#263238"/>
<path d="M46.1148 110.904C44.9598 110.675 43.5411 110.833 42.6472 111.645C42.6129 111.677 42.6472 111.727 42.6947 111.717C43.8048 111.373 44.9488 111.15 46.1069 111.052C46.1264 111.053 46.1456 111.046 46.1602 111.033C46.1748 111.02 46.1836 111.002 46.1846 110.982C46.1857 110.963 46.1789 110.943 46.1658 110.929C46.1527 110.914 46.1343 110.905 46.1148 110.904Z" fill="#263238"/>
<path d="M46.9423 111.418C45.7874 111.189 44.3713 111.347 43.4748 112.159C43.4405 112.191 43.4748 112.241 43.5249 112.23C44.6341 111.887 45.7773 111.664 46.9344 111.566C46.954 111.567 46.9732 111.56 46.9878 111.547C47.0024 111.534 47.0112 111.515 47.0122 111.496C47.0133 111.476 47.0065 111.457 46.9934 111.442C46.9803 111.428 46.9619 111.419 46.9423 111.418Z" fill="#263238"/>
<path d="M47.7705 111.933C46.6155 111.703 45.1995 111.862 44.3056 112.674C44.2686 112.705 44.3056 112.755 44.353 112.745C45.4628 112.398 46.6068 112.171 47.7652 112.07C47.7792 112.065 47.7913 112.056 47.8001 112.044C47.8088 112.032 47.8138 112.018 47.8144 112.003C47.815 111.988 47.8111 111.974 47.8033 111.961C47.7954 111.949 47.784 111.939 47.7705 111.933Z" fill="#263238"/>
<path d="M50.7896 49.3105C50.7896 49.3105 50.5444 54.4051 49.3789 58.4396C49.2839 58.7719 49.1837 59.1015 49.073 59.4153C49.073 59.4153 49.2338 59.2861 47.3801 60.4226C47.3801 60.4226 48.0973 80.6796 48.1263 81.8873C48.2344 86.4123 44.9462 111.076 44.9462 111.076L32.3838 111.126C32.3838 111.126 36.8666 83.1583 36.8666 81.5023C36.8429 78.839 35.2581 67.2628 35.7459 58.677C35.9562 55.4149 36.8235 52.229 38.2958 49.3105H50.7896Z" fill="#455A64"/>
<path d="M44.5245 108.845C42.6048 108.813 43.1559 108.795 41.2362 108.784C40.2975 108.784 34.1165 108.752 33.2489 108.903C33.244 108.903 33.2393 108.905 33.2359 108.908C33.2324 108.912 33.2305 108.916 33.2305 108.921C33.2305 108.926 33.2324 108.931 33.2359 108.934C33.2393 108.938 33.244 108.94 33.2489 108.94C34.127 109.082 40.2975 109.003 41.2362 108.99C43.1559 108.963 42.6048 108.95 44.5245 108.9C44.5304 108.898 44.5355 108.895 44.5392 108.89C44.5429 108.885 44.5448 108.879 44.5448 108.872C44.5448 108.866 44.5429 108.86 44.5392 108.855C44.5355 108.85 44.5304 108.847 44.5245 108.845Z" fill="#263238"/>
<path d="M39.0448 50.0753C37.4627 53.1289 36.8641 56.6044 36.7349 60.0113C36.5951 63.703 37.0381 67.3947 37.4284 71.0864C37.8371 74.9496 38.1931 78.8179 37.8977 82.689C37.5998 86.6127 36.9036 90.5075 36.342 94.3996C35.7803 98.2917 35.187 102.184 34.7044 106.087C34.6438 106.58 34.5805 107.073 34.5225 107.568C34.5225 107.592 34.5567 107.605 34.562 107.568C35.2503 103.724 35.8172 99.8554 36.4079 95.9923C36.9985 92.1292 37.6551 88.2977 38.0507 84.4294C38.4462 80.561 38.2801 76.7189 37.8925 72.8585C37.5207 69.143 37.0276 65.4276 37.0144 61.6858C37.0144 58.2076 37.3545 54.6478 38.5965 51.3674C38.76 50.9297 38.9393 50.4972 39.1239 50.0674C39.1345 50.0147 39.0791 50.012 39.0448 50.0753Z" fill="#263238"/>
<path d="M49.6031 59.117C48.354 59.6391 47.1524 60.2682 46.0116 60.9972C46.0031 61.0031 45.9972 61.0119 45.9948 61.0219C45.9924 61.032 45.9938 61.0425 45.9987 61.0516C46.0035 61.0607 46.0115 61.0677 46.0212 61.0712C46.0309 61.0748 46.0415 61.0747 46.0511 61.071C47.2615 60.483 48.4982 59.916 49.6769 59.2621C49.6941 59.2511 49.7065 59.2342 49.7119 59.2146C49.7173 59.195 49.7151 59.1741 49.7059 59.156C49.6967 59.1379 49.681 59.1238 49.662 59.1166C49.643 59.1094 49.622 59.1096 49.6031 59.117Z" fill="#263238"/>
<path d="M49.6745 54.7954C49.5901 55.241 49.482 55.684 49.387 56.1138C49.2921 56.5436 49.2288 56.955 49.1233 57.3664C49.035 57.7674 48.8316 58.134 48.538 58.4211C48.3745 58.5741 48.1952 58.7086 48.0106 58.8483C47.9183 58.9222 47.8154 58.9934 47.7179 59.0698C47.731 59.0118 47.7416 58.9512 47.7521 58.8905L47.8392 58.3816C47.9024 58.0071 47.9605 57.6301 48.0185 57.253C48.1319 56.512 48.2373 55.7631 48.3903 55.03C48.3915 55.0265 48.3919 55.0226 48.3914 55.0189C48.3908 55.0151 48.3894 55.0116 48.3872 55.0085C48.385 55.0054 48.3821 55.0029 48.3788 55.0011C48.3754 54.9994 48.3717 54.9985 48.3679 54.9985C48.3641 54.9985 48.3603 54.9994 48.357 55.0011C48.3536 55.0029 48.3507 55.0054 48.3485 55.0085C48.3463 55.0116 48.3449 55.0151 48.3444 55.0189C48.3438 55.0226 48.3442 55.0265 48.3455 55.03C48.1609 55.7552 47.9578 56.4751 47.797 57.2081C47.7179 57.5668 47.4357 59.3414 47.4225 59.468C47.4093 59.5946 47.3988 59.7317 47.3962 59.8583C47.379 59.9904 47.379 60.1243 47.3962 60.2565C47.3962 60.2881 47.4436 60.2828 47.4568 60.2565C47.5123 60.134 47.5505 60.0044 47.5702 59.8715C47.6018 59.7449 47.6308 59.6078 47.6546 59.4891C47.6546 59.4416 47.6678 59.3942 47.6757 59.3467C47.8497 59.2412 48.0132 59.0988 48.1767 58.9802C48.3402 58.8615 48.5327 58.7165 48.7041 58.5899C49.0116 58.3293 49.2331 57.9819 49.3396 57.5931C49.4482 57.1749 49.5188 56.7478 49.5505 56.3169C49.6059 55.8132 49.6481 55.3069 49.7167 54.8033C49.7351 54.7769 49.6797 54.7637 49.6745 54.7954Z" fill="#263238"/>
<path d="M68.7288 115.729H65.9521L75.0549 64.2354H77.8316L68.7288 115.729Z" fill="#A6A6A6"/>
<path d="M87.1797 115.729H89.9564L80.8537 64.2354H78.0796L87.1797 115.729Z" fill="#A6A6A6"/>
<path d="M86.2119 101.86V98.9932H69.1773V101.86H86.2119Z" fill="#A6A6A6"/>
<path d="M53.0337 65.459H30.7305V68.0801H53.0337V65.459Z" fill="#FB855E"/>
<path opacity="0.3" d="M53.0337 65.459H30.7305V68.0801H53.0337V65.459Z" fill="black"/>
<path d="M89.7929 62.0073H67.4923L30.7334 65.4591H53.034L89.7929 62.0073Z" fill="#FB855E"/>
<path d="M89.7926 64.5071V62.0073L53.0337 65.4591V68.0802L89.7926 64.5071Z" fill="#FB855E"/>
<path opacity="0.1" d="M89.7926 64.5071V62.0073L53.0337 65.4591V68.0802L89.7926 64.5071Z" fill="black"/>
<path d="M41.8823 65.4592L50.0067 64.647L46.3519 65.4592H41.8823Z" fill="#FB855E"/>
<path opacity="0.3" d="M41.8823 65.4592L50.0067 64.647L46.3519 65.4592H41.8823Z" fill="black"/>
<path d="M36.4844 65.4593L39.1609 65.0532L37.8213 65.4593H36.4844Z" fill="#FB855E"/>
<path opacity="0.3" d="M36.4844 65.4593L39.1609 65.0532L37.8213 65.4593H36.4844Z" fill="black"/>
<path d="M33.0194 119.572H30.2427L39.3454 68.0801H42.1221L33.0194 119.572Z" fill="#A6A6A6"/>
<path d="M51.4699 119.572H54.2466L45.1439 68.0801H42.3672L51.4699 119.572Z" fill="#A6A6A6"/>
<path d="M50.5024 105.701V102.835H33.4678V105.701H50.5024Z" fill="#A6A6A6"/>
<path d="M52.4692 35.7381C57.5506 40.9672 64.9921 54.2389 65.9176 56.1454C66.5426 57.4375 59.7867 60.8919 59.494 59.9505C59.1196 58.7454 53.1311 43.881 51.5305 38.2669C50.6445 35.1712 51.4197 34.6596 52.4692 35.7381Z" fill="#EB9481"/>
<path d="M59.1646 59.0673C59.4045 59.7107 60.2193 62.4479 60.7915 62.788C61.3638 63.1282 64.3066 63.0359 65.8017 63.0253C67.2969 63.0148 67.579 62.6008 67.5527 62.0892C67.5263 61.5777 64.4015 61.4986 64.4015 61.4986C64.4015 61.4986 68.5784 62.6694 69.6306 62.8592C70.6827 63.0491 73.1008 63.6503 73.4462 62.7722C73.5992 62.3793 72.9373 61.9811 72.9373 61.9811C72.9373 61.9811 73.9525 62.2712 74.1107 61.7649C74.29 61.19 73.4831 60.8789 73.4831 60.8789C73.4831 60.8789 74.1186 61.0028 74.1292 60.5361C74.1556 59.4813 70.187 58.9987 70.187 58.9987C70.187 58.9987 73.2326 60.4596 73.3249 59.6079C73.4515 58.4265 67.2204 57.1661 66.5691 56.6545C66.1396 56.301 65.7816 55.8687 65.5143 55.3809L59.1646 59.0673Z" fill="#EB9481"/>
<path d="M67.5261 62.3448C67.5363 62.2719 67.5287 62.1976 67.5039 62.1282C67.4791 62.0589 67.4379 61.9966 67.3837 61.9466C67.275 61.8492 67.1512 61.77 67.0172 61.7119C66.7408 61.5989 66.4549 61.5107 66.1628 61.4482C65.5774 61.3032 64.9736 61.203 64.375 61.0501C64.9962 61.0365 65.6166 61.103 66.2209 61.2478C66.5273 61.3167 66.8228 61.4277 67.099 61.5775C67.2411 61.655 67.3659 61.7609 67.4655 61.8886C67.5137 61.9532 67.5446 62.029 67.5552 62.1088C67.5658 62.1887 67.5558 62.2699 67.5261 62.3448Z" fill="#263238"/>
<path d="M72.9399 61.9808C72.5101 61.8779 72.0855 61.7593 71.6636 61.638C71.2417 61.5167 70.8198 61.3928 70.3979 61.2688L69.14 60.8812C68.7208 60.752 68.3015 60.6175 67.877 60.5015C68.321 60.5467 68.7614 60.6216 69.1954 60.7256C69.6252 60.8232 70.0498 60.9418 70.4717 61.0684C70.8936 61.195 71.3129 61.3321 71.7243 61.4877C72.1356 61.6433 72.5285 61.7962 72.9399 61.9808Z" fill="#263238"/>
<path d="M68.8687 59.4551C69.2736 59.4787 69.6764 59.5316 70.0737 59.6133C70.4716 59.6906 70.8651 59.7892 71.2524 59.9086C71.6405 60.0271 72.0217 60.1671 72.3942 60.3279C72.7679 60.4861 73.1301 60.6703 73.478 60.879C73.093 60.7498 72.7186 60.6153 72.3362 60.4782C71.9539 60.3411 71.5768 60.2145 71.1918 60.109C70.8068 60.0036 70.4244 59.8796 70.0368 59.7689C69.6492 59.6581 69.2616 59.5579 68.8687 59.4551Z" fill="#263238"/>
<path d="M69.4775 58.4556C70.1311 58.5016 70.7757 58.6337 71.3946 58.8485C72.0187 59.0492 72.613 59.333 73.1613 59.6923C72.5443 59.4761 71.9431 59.2466 71.3287 59.0462C70.7143 58.8458 70.0999 58.6507 69.4775 58.4556Z" fill="#263238"/>
<path d="M51.5966 39.7225C53.1551 44.7802 56.8283 54.645 56.8283 54.645L63.6843 51.2855C63.6843 51.2855 57.3557 41.4524 53.7906 36.901C51.2802 33.6919 50.1753 35.1 51.5966 39.7225Z" fill="#FB855E"/>
<path d="M55.8081 53.8723L63.6082 50.4126L64.5021 52.24L56.702 55.8315L55.8081 53.8723Z" fill="#FB855E"/>
<path opacity="0.1" d="M55.8081 53.8723L63.6082 50.4126L64.5021 52.24L56.702 55.8315L55.8081 53.8723Z" fill="black"/>
<path d="M36.479 54.2072L53.1181 55.7208C53.1181 55.7208 53.2104 43.7438 53.01 40.7562C52.8096 37.7685 52.625 34.6912 52.087 33.9265C51.5491 33.1618 49.5002 32.5263 48.2292 32.964C46.9582 33.4018 44.5375 35.4348 41.5947 41.4022C38.6518 47.3696 36.479 54.2072 36.479 54.2072Z" fill="#FB855E"/>
<path d="M47.7626 33.1646C47.7626 33.1646 48.0764 38.7206 48.1054 38.7971C48.1344 38.8735 52.4774 38.8287 52.5302 38.7971C52.5829 38.7654 51.8604 33.6919 51.8604 33.6919L52.2559 34.0848C52.2559 34.0848 53.2474 39.1214 53.4241 42.6101C53.6007 46.0987 53.1762 55.8633 53.1762 55.8633L36.4316 54.3049C37.3736 50.4901 38.7401 46.7929 40.5057 43.2825C40.5057 43.2825 44.1104 42.7182 45.0913 42.1908C46.0723 41.6634 47.2431 33.4124 47.2431 33.4124L47.7626 33.1646Z" fill="#455A64"/>
<path d="M36.6188 54.8483C36.5239 54.9379 35.7539 60.5098 36.1046 60.7445C36.4553 60.9792 41.2387 61.8836 41.5947 61.7096C41.9507 61.5355 42.4913 55.9531 42.4623 55.8793C42.4333 55.8055 36.7981 54.6663 36.6188 54.8483Z" fill="#FB855E"/>
<path opacity="0.1" d="M42.2198 58.3528C42.0378 59.8954 41.7899 61.6015 41.5948 61.6964C41.2388 61.8704 36.4554 60.966 36.1047 60.7313C35.9122 60.6021 36.0572 58.8854 36.2418 57.3375C36.3253 56.4974 36.4521 55.6622 36.6215 54.8351C36.7982 54.6663 42.4228 55.7923 42.4624 55.8661C42.4755 55.903 42.3701 57.0686 42.2198 58.3528Z" fill="black"/>
<path d="M36.0231 54.6452C35.9414 54.5688 36.5505 52.4988 36.8696 51.9819C36.8696 51.9819 42.0089 53.0367 46.3995 53.5114C49.6824 53.8594 53.4427 53.7935 53.4559 53.8858C53.4691 53.9781 53.5561 56.2221 53.4744 56.4041C53.3926 56.586 48.4062 56.4937 45.5767 56.259C42.7473 56.0244 36.2868 54.9037 36.0231 54.6452Z" fill="#FB855E"/>
<path d="M50.9692 53.6298C50.7714 53.5322 47.615 53.4109 47.4463 53.5006C47.1615 53.6535 47.1061 56.4197 47.1826 56.5014C47.259 56.5832 50.8295 56.6438 50.9349 56.57C51.0404 56.4962 51.1696 53.73 50.9692 53.6298ZM50.5816 56.2193C49.5671 56.2626 48.5509 56.245 47.5386 56.1665C47.4858 56.1059 47.5386 53.9673 47.7601 53.8487C48.714 53.81 49.6696 53.8435 50.6185 53.9489C50.7899 54.0253 50.6686 56.1665 50.5816 56.2193Z" fill="#DBDBDB"/>
<path d="M50.8459 54.9003L49.8442 54.8735L49.834 55.2558L50.8357 55.2825L50.8459 54.9003Z" fill="#DBDBDB"/>
<path d="M46.2909 54.9245C46.2909 54.9539 46.2822 54.9825 46.2659 55.0069C46.2495 55.0312 46.2263 55.0501 46.1992 55.0612C46.172 55.0723 46.1422 55.0751 46.1135 55.0692C46.0848 55.0632 46.0585 55.0489 46.0379 55.028C46.0174 55.0071 46.0035 54.9805 45.9981 54.9517C45.9927 54.9229 45.996 54.8931 46.0076 54.8662C46.0192 54.8393 46.0385 54.8164 46.0632 54.8005C46.0878 54.7846 46.1166 54.7764 46.1459 54.7769C46.1652 54.7769 46.1843 54.7807 46.202 54.7882C46.2198 54.7956 46.2359 54.8065 46.2494 54.8203C46.2629 54.834 46.2735 54.8503 46.2807 54.8682C46.2878 54.8861 46.2913 54.9053 46.2909 54.9245Z" fill="#263238"/>
<path d="M44.7724 54.7769C44.7729 54.8063 44.7646 54.8352 44.7486 54.8599C44.7326 54.8846 44.7095 54.9039 44.6824 54.9154C44.6553 54.9269 44.6254 54.9301 44.5966 54.9245C44.5677 54.9188 44.5411 54.9047 44.5203 54.8839C44.4995 54.8631 44.4854 54.8366 44.4798 54.8077C44.4741 54.7788 44.4773 54.7489 44.4888 54.7218C44.5003 54.6947 44.5196 54.6717 44.5443 54.6556C44.569 54.6396 44.5979 54.6313 44.6273 54.6319C44.6656 54.6325 44.7021 54.648 44.7291 54.6751C44.7562 54.7021 44.7717 54.7386 44.7724 54.7769Z" fill="#263238"/>
<path d="M38.3753 48.8473L38.8347 48.9135C39.0077 48.9385 39.1638 49.0311 39.2685 49.1711C39.3733 49.3111 39.4181 49.487 39.3931 49.66L38.7496 54.1257L36.9827 53.8711L37.6262 49.4054C37.6511 49.2324 37.7438 49.0763 37.8838 48.9716C38.0238 48.8668 38.1997 48.822 38.3727 48.847L38.3753 48.8473Z" fill="#37474F"/>
<path d="M38.4655 54.0826L37.2754 53.9111L37.2073 54.3835L38.3975 54.555L38.4655 54.0826Z" fill="#37474F"/>
<path d="M37.9908 54.4979L37.6123 54.4434L36.8808 59.5198L37.2592 59.5743L37.9908 54.4979Z" fill="#EBEBEB"/>
<path d="M37.3837 60.0508C37.3837 60.0508 37.0409 60.7971 37.0145 60.7944L36.8905 60.776L36.7666 60.7575C36.7402 60.7575 36.6216 59.9401 36.6216 59.9401L36.8853 59.5234L37.2597 59.5762L37.3837 60.0508Z" fill="#EBEBEB"/>
<path d="M38.1029 49.4873L37.7949 49.4429L37.2247 53.3996L37.5327 53.444L38.1029 49.4873Z" fill="#263238"/>
<path d="M38.6737 49.5683L38.3657 49.5239L37.7955 53.4807L38.1035 53.525L38.6737 49.5683Z" fill="#263238"/>
<path d="M39.2469 49.6518L38.939 49.6074L38.3688 53.5641L38.6768 53.6085L39.2469 49.6518Z" fill="#263238"/>
<path d="M39.7735 50.8159L38.7554 50.6514L38.4984 52.2412L39.5166 52.4057L39.7735 50.8159Z" fill="#EBEBEB"/>
<path d="M39.604 51.1169L40.2923 51.2277C40.3977 51.2435 40.8777 50.8348 41.1994 50.8875L41.5553 50.9455C41.8612 50.993 43.1006 51.5151 42.9714 52.3115C42.8422 53.1078 42.8949 52.7887 42.8949 52.7887C42.8949 52.7887 42.7868 52.3405 42.5073 52.2139C42.3765 52.1558 42.2283 52.1508 42.094 52.2001C41.9596 52.2493 41.8497 52.3488 41.7874 52.4776C41.6905 52.7038 41.6095 52.9364 41.5448 53.1737L40.2843 52.9707C40.2711 52.682 40.2314 52.3951 40.1657 52.1137C40.0839 51.8975 39.4854 51.85 39.4854 51.85L39.604 51.1169Z" fill="#EBEBEB"/>
<path d="M41.3046 53.1347L40.521 53.0083L40.0647 55.8381L40.8483 55.9645L41.3046 53.1347Z" fill="#EBEBEB"/>
<path d="M41.2517 54.6715L40.0854 54.4834L39.07 60.7808L40.2363 60.9689L41.2517 54.6715Z" fill="#263238"/>
<path d="M42.2198 58.3526C42.0378 59.8952 41.7899 61.6013 41.5948 61.6963C41.2388 61.8703 36.4554 60.9658 36.1047 60.7311C35.9122 60.6019 36.0572 58.8853 36.2418 57.3374L42.2198 58.3526Z" fill="#FB855E"/>
<path d="M52.5668 40.0283C52.4376 39.878 47.8572 40.0046 47.8018 40.1602C47.7465 40.3157 47.6436 43.3456 47.7728 43.4642C48.0919 43.7701 50.1197 44.2553 50.5548 44.2052C51.3397 44.0114 52.0801 43.6686 52.7356 43.1953C52.8779 43.0661 52.8569 40.3606 52.5668 40.0283ZM52.5852 43.1003C52.369 43.2691 51.0954 43.931 50.5258 44.0154C50.1382 44.0734 48.0207 43.422 47.9416 43.3324C47.8625 43.2427 47.8994 40.9301 47.9258 40.3052C48.2475 40.0652 52.3136 40.0758 52.4666 40.205C52.5694 40.292 52.7329 42.9817 52.5852 43.1003Z" fill="#263238"/>
<path d="M50.6473 36.5185C49.7139 36.3445 48.696 34.2244 48.5879 32.9243C48.5879 32.8347 49.023 32.1333 49.524 31.242C49.8246 30.7146 50.1463 30.0975 50.3995 29.5227C50.4522 29.404 50.7581 29.7996 50.7581 29.7996L51.4226 30.3059L53.6165 31.9909C53.0955 32.6197 52.6528 33.3095 52.2981 34.045C52.2653 34.1246 52.2389 34.2066 52.219 34.2903C52.2199 34.3043 52.2199 34.3184 52.219 34.3325C52.0766 34.8071 51.5492 36.6846 50.6473 36.5185Z" fill="#EB9481"/>
<path d="M52.2137 34.2801C52.2146 34.2941 52.2146 34.3082 52.2137 34.3223C52.0832 34.2849 51.9562 34.2363 51.834 34.1772C49.4317 33.0512 50.4918 29.8315 50.4918 29.8315L51.4332 30.2956L53.6271 31.9806C53.1061 32.6095 52.6633 33.2993 52.3086 34.0348C52.2705 34.1139 52.2387 34.1959 52.2137 34.2801Z" fill="#263238"/>
<path d="M52.0608 25.1274C51.0377 26.1821 49.8273 30.0927 50.2941 31.3505C50.9691 33.1727 53.0048 34.3725 54.7769 33.3467C56.504 32.3552 57.9913 27.2158 57.3848 25.9791C56.5014 24.1543 53.5718 23.5874 52.0608 25.1274Z" fill="#EB9481"/>
<path d="M54.3498 29.2407C54.3498 29.2407 54.3261 29.2407 54.3235 29.2565C54.2444 29.5202 54.1099 29.8129 53.8462 29.8208C53.8462 29.8208 53.833 29.8367 53.8462 29.8367C54.1468 29.892 54.3208 29.5044 54.3498 29.2407Z" fill="#263238"/>
<path d="M54.2178 28.8902C53.8038 28.7188 53.4927 29.5547 53.875 29.713C54.2574 29.8712 54.5527 29.0326 54.2178 28.8902Z" fill="#263238"/>
<path d="M55.7473 29.7285C55.7473 29.7285 55.7632 29.7496 55.7473 29.7602C55.6445 30.0239 55.568 30.3271 55.7684 30.4985C55.7684 30.4985 55.7684 30.517 55.7684 30.5143C55.5021 30.3667 55.6076 29.9553 55.7473 29.7285Z" fill="#263238"/>
<path d="M56.0796 29.5335C56.5068 29.6574 56.2299 30.5065 55.8317 30.3905C55.4335 30.2745 55.7209 29.4412 56.0796 29.5335Z" fill="#263238"/>
<path d="M54.0014 28.3602C54.1103 28.4154 54.2221 28.4647 54.3363 28.5079C54.4469 28.5778 54.5779 28.6084 54.7081 28.5949C54.7479 28.5827 54.7827 28.5578 54.807 28.524C54.8313 28.4902 54.8438 28.4493 54.8425 28.4076C54.827 28.3257 54.79 28.2494 54.7353 28.1864C54.6807 28.1234 54.6103 28.076 54.5314 28.049C54.3803 27.9708 54.2057 27.9511 54.0409 27.9936C54.0033 28.0051 53.97 28.0273 53.9449 28.0576C53.9199 28.0879 53.9043 28.1248 53.9001 28.1639C53.8959 28.2029 53.9032 28.2423 53.9212 28.2772C53.9392 28.3121 53.9671 28.341 54.0014 28.3602Z" fill="#263238"/>
<path d="M56.5592 29.2433C56.4511 29.1827 56.3614 29.1062 56.2586 29.035C56.1558 28.9638 56.045 28.9005 55.9949 28.7713C55.9844 28.7312 55.9875 28.6887 56.0037 28.6505C56.0199 28.6123 56.0484 28.5806 56.0846 28.5604C56.1624 28.5307 56.2466 28.5224 56.3287 28.5363C56.4108 28.5503 56.4876 28.5859 56.5513 28.6395C56.6961 28.7294 56.803 28.8691 56.8519 29.0324C56.8584 29.0695 56.8544 29.1076 56.8402 29.1425C56.826 29.1774 56.8023 29.2076 56.7717 29.2296C56.7412 29.2516 56.705 29.2646 56.6674 29.267C56.6299 29.2695 56.5923 29.2612 56.5592 29.2433Z" fill="#263238"/>
<path d="M50.8558 28.3943C51.5334 28.7081 52.3351 27.0759 52.3351 27.0759C52.3351 27.0759 53.4347 27.4371 54.6688 26.327C54.6688 26.327 55.5205 27.8327 56.7071 28.2203C58.5688 28.8268 59.7106 26.6012 59.3177 25.8101C58.7639 24.6894 56.6623 24.7554 56.6623 24.7554C56.6623 24.7554 54.6028 22.7724 52.9969 24.0223C52.6711 23.8754 52.3018 23.8573 51.9632 23.9718C51.6246 24.0863 51.342 24.3248 51.1722 24.6393C50.4549 25.7811 50.3495 28.157 50.8558 28.3943Z" fill="#263238"/>
<path d="M52 27.1314C52.5309 27.312 53.1066 27.312 53.6375 27.1314C53.9243 27.0274 54.1817 26.856 54.3883 26.6316C54.5948 26.4071 54.7443 26.1363 54.8242 25.842C54.8242 25.8103 54.8822 25.8261 54.8743 25.8578C54.8034 26.17 54.6646 26.4629 54.4677 26.7154C54.2708 26.9679 54.0207 27.1738 53.7351 27.3186C53.4554 27.4519 53.1454 27.509 52.8365 27.484C52.5277 27.459 52.2309 27.3528 51.9763 27.1762C51.9525 27.1604 51.9684 27.1209 52 27.1314Z" fill="#263238"/>
<path d="M51.465 23.8798C52.0266 23.6372 52.5725 23.8482 53.0656 24.1435C53.0946 24.162 53.0656 24.2068 53.0392 24.1883C52.7944 24.0425 52.5147 23.9655 52.2297 23.9655C51.9447 23.9655 51.665 24.0425 51.4201 24.1883C50.9508 24.452 50.7372 24.9794 50.6027 25.4752C50.3356 26.4271 50.4295 27.4441 50.8664 28.331C50.8664 28.331 50.8532 28.3573 50.8426 28.331C50.5802 27.8561 50.4169 27.3329 50.3625 26.7931C50.3081 26.2533 50.3638 25.708 50.5262 25.1904C50.6792 24.6814 50.9455 24.1039 51.465 23.8798Z" fill="#263238"/>
<path d="M53.2028 30.5117C53.005 30.4089 52.8401 30.2528 52.7266 30.0609C52.6131 29.8691 52.5557 29.6493 52.5609 29.4265C52.566 29.2037 52.6336 28.9868 52.7558 28.8004C52.878 28.6141 53.05 28.4657 53.2523 28.3722C53.4546 28.2787 53.6791 28.2438 53.9003 28.2714C54.1214 28.299 54.3304 28.3881 54.5034 28.5286C54.6765 28.669 54.8067 28.8551 54.8793 29.0658C54.9519 29.2765 54.964 29.5034 54.9142 29.7206C54.8785 29.8732 54.813 30.0172 54.7216 30.1444C54.6301 30.2716 54.5144 30.3794 54.3811 30.4618C54.2478 30.5441 54.0995 30.5993 53.9448 30.6241C53.7901 30.649 53.6321 30.643 53.4797 30.6066C53.3835 30.5876 53.2904 30.5557 53.2028 30.5117ZM54.2312 28.5393C54.1557 28.4985 54.075 28.4684 53.9912 28.4496C53.7353 28.3888 53.4658 28.4278 53.2377 28.5587C53.0096 28.6897 52.8399 28.9027 52.7633 29.1543C52.6867 29.4059 52.709 29.6773 52.8255 29.9131C52.942 30.149 53.144 30.3315 53.3904 30.4236C53.6368 30.5156 53.9091 30.5103 54.1517 30.4087C54.3943 30.307 54.589 30.1167 54.6962 29.8765C54.8034 29.6363 54.8149 29.3642 54.7286 29.1158C54.6422 28.8673 54.4643 28.6611 54.2312 28.5393Z" fill="#FB855E"/>
<path d="M55.7658 31.4744C55.3597 31.2635 55.2094 30.657 55.4309 30.0742C55.5301 29.7951 55.7146 29.5544 55.9583 29.386C56.0588 29.3065 56.1781 29.2544 56.3048 29.2348C56.4314 29.2152 56.561 29.2288 56.6808 29.2742C56.8006 29.3196 56.9066 29.3954 56.9884 29.494C57.0702 29.5926 57.125 29.7108 57.1475 29.8369C57.2176 30.1263 57.1964 30.4302 57.0869 30.7071C56.8522 31.3215 56.2958 31.6801 55.8317 31.4982L55.7658 31.4744ZM56.6834 29.4493C56.6659 29.4393 56.6474 29.4313 56.6281 29.4255C56.5314 29.3936 56.4286 29.3853 56.3281 29.4013C56.2276 29.4174 56.1324 29.4573 56.0506 29.5178C55.8342 29.6691 55.6702 29.8838 55.5812 30.1322C55.3781 30.6596 55.5179 31.2134 55.8924 31.3558C56.2668 31.4982 56.7388 31.1817 56.9471 30.6491C57.0464 30.4048 57.0667 30.1355 57.0051 29.8791C56.9842 29.7891 56.9448 29.7044 56.8894 29.6304C56.834 29.5564 56.7639 29.4947 56.6834 29.4493Z" fill="#FB855E"/>
<path d="M54.827 29.8419L54.7769 29.6916C54.9984 29.6151 55.4625 29.5729 55.6233 29.9684L55.4756 30.0291C55.3333 29.6731 54.8481 29.8366 54.827 29.8419Z" fill="#FB855E"/>
<path d="M49.751 28.2386L49.6455 28.1199C49.7009 28.0698 50.1966 27.6374 50.55 27.7086C50.9033 27.7798 52.8072 28.7264 52.8889 28.7634L52.8177 28.9084C52.2666 28.6447 50.7741 27.9169 50.5183 27.8536C50.2626 27.7903 49.8855 28.1173 49.751 28.2386Z" fill="#FB855E"/>
<path d="M51.317 28.4443C51.317 28.4443 51.0797 26.8622 50.4046 26.8991C49.7296 26.936 49.5028 28.9269 50.0117 29.4675C50.072 29.5414 50.1466 29.6025 50.231 29.6469C50.3155 29.6912 50.4081 29.7181 50.5032 29.7257C50.5983 29.7333 50.694 29.7216 50.7844 29.6913C50.8749 29.661 50.9583 29.6126 51.0296 29.5492L51.317 28.4443Z" fill="#EB9481"/>
<path d="M50.3444 27.4741H50.3312C50.6819 27.8697 50.7109 28.3891 50.6634 28.8875C50.6595 28.8311 50.6434 28.7763 50.6163 28.7267C50.5892 28.6771 50.5517 28.6339 50.5064 28.6001C50.4611 28.5663 50.409 28.5427 50.3538 28.5309C50.2985 28.519 50.2413 28.5193 50.1862 28.5315C50.173 28.5315 50.173 28.5579 50.1862 28.5632C50.2754 28.5763 50.3584 28.6169 50.4236 28.6792C50.4888 28.7416 50.533 28.8227 50.5501 28.9113C50.5765 29.0591 50.5871 29.2094 50.5817 29.3595C50.5817 29.4096 50.6634 29.4228 50.6714 29.3595C50.9614 28.819 50.914 27.8248 50.3444 27.4741Z" fill="#263238"/>
<path d="M52.2399 34.2799L50.5444 36.1258L48.8857 32.355L47.7861 32.9483C47.7861 32.9483 48.7723 38.3145 48.8646 38.1246L50.4679 36.5899L51.259 38.383L52.3929 35.0737L52.2399 34.2799Z" fill="#FB855E"/>
<path d="M51.9209 36.7695C52.0896 36.2158 52.2768 35.662 52.4192 35.103C52.4192 35.0845 52.3981 35.0634 52.385 35.0845C52.0791 35.5644 51.4436 37.6819 51.2537 38.175C51.2221 38.0985 50.489 36.5744 50.4626 36.5928C50.1567 36.817 48.9833 37.9324 48.8805 38.0405C48.7249 37.1888 48.0894 34.0587 47.8257 33.2149C47.8242 33.2109 47.8215 33.2074 47.818 33.205C47.8144 33.2025 47.8102 33.2012 47.8059 33.2012C47.8016 33.2012 47.7974 33.2025 47.7939 33.205C47.7903 33.2074 47.7876 33.2109 47.7861 33.2149C47.8784 34.0878 48.7117 38.2858 48.746 38.2884C49.3361 37.7764 49.8994 37.2342 50.4336 36.664C50.5365 36.9752 51.2247 38.6417 51.259 38.5626C51.5112 37.9771 51.7321 37.3785 51.9209 36.7695Z" fill="#263238"/>
<path d="M45.8798 43.6992L39.8887 48.7358L45.2944 55.162L51.2829 50.1254L45.8798 43.6992ZM44.4611 52.438L41.4128 48.8122L45.7031 45.2049L48.7514 48.8307L44.4611 52.438Z" fill="#263238"/>
<path d="M61.0264 69.4252L61.0317 69.4121L60.5386 69.6336L60.5175 69.6151V69.6125L60.7363 69.1352L60.2432 69.354L60.2221 69.3329L60.4436 68.853L59.9479 69.0745L59.9268 69.0534L60.1483 68.5761L59.6552 68.7924L59.6341 68.7739L59.8556 68.294L59.3599 68.5155L59.3388 68.4944L59.5576 68.0145L59.0619 68.2334L59.0434 68.2149H59.0408L59.2623 67.735L58.7692 67.9538L58.7507 67.9354L58.9696 67.4555L58.4739 67.6743L58.4554 67.6559H58.4528L58.6743 67.1759L58.1812 67.3948L58.1627 67.3763L58.1601 67.3737L58.3816 66.8964L57.8858 67.1153L57.8674 67.0968L58.0862 66.6169L57.5905 66.8358L57.5694 66.8173L57.7935 66.3348L57.2978 66.5563L57.2767 66.5352L57.4982 66.0579L57.0024 66.2767L56.9813 66.2583L57.2029 65.7757L56.7071 65.9946L56.6886 65.9761L56.9075 65.4962L56.4118 65.7151L56.3933 65.6992L56.6122 65.2167L56.1191 65.4356L56.098 65.4171L56.3195 64.9372L55.8237 65.156L55.8026 65.1376L56.0241 64.6577L55.5284 64.8792L55.5073 64.8607L55.7288 64.3781L55.2357 64.597L55.2146 64.5785L55.4335 64.0986L54.9377 64.3175L54.9193 64.299L55.1408 63.8165L54.645 64.0353L54.6239 64.0169L54.8454 63.537L54.3497 63.7585L54.3286 63.74L54.5501 63.2574L54.0543 63.4789L54.0332 63.4605L54.2548 62.9779L53.759 63.1994L53.7405 63.181L53.9621 62.6984L53.4637 62.9199L53.4452 62.9015L53.6667 62.4189L53.171 62.6378L53.1525 62.6193L53.3714 62.1394L52.8756 62.3609L52.8572 62.3424L53.0787 61.8599L52.5829 62.0787H52.5803L52.5618 62.0603L52.7807 61.5777L52.285 61.7992L52.2665 61.7808L52.488 61.2982L51.9896 61.5197L51.9712 61.5012L52.1927 61.0187L51.6969 61.2402L51.6785 61.2217L51.9 60.7392L51.4016 60.9607L51.3831 60.9422L51.6046 60.4597L51.1089 60.6812L51.0904 60.6627L51.3119 60.1801L50.8109 60.399L50.7951 60.3832L51.0166 59.9006L50.5156 60.1195L50.4997 60.101L50.7213 59.6211L50.2229 59.84L50.2044 59.8215L50.4259 59.339L49.9275 59.5605L49.9091 59.542L50.1306 59.0594L49.6348 59.2809L49.6137 59.2625L49.8379 58.7799L49.3395 59.0014L49.3184 58.983L49.5399 58.5004L49.0468 58.7219L49.0257 58.7034L49.2472 58.2209L48.7488 58.4398L48.7304 58.4239L48.9519 57.9414L48.4535 58.1629L48.435 58.1471L48.6592 57.6619L48.1608 57.8807L48.1397 57.8623L48.3612 57.3797L47.8654 57.6038L47.8444 57.5854L48.0685 57.1002L47.5701 57.3217L47.5517 57.3032L47.7732 56.8207L47.2748 57.0422L47.2563 57.0264L47.4778 56.5438L46.9794 56.7653L46.9636 56.7442L47.1851 56.2616L46.6867 56.4831L46.6683 56.4647L46.8898 55.9821L46.3914 56.2036L46.3729 56.1878L46.5971 55.7026L46.0961 55.9241L46.0802 55.9057L46.3017 55.4231L45.8007 55.6446L45.7823 55.6261L46.0064 55.1409L45.508 55.3624L45.2944 55.162L51.2829 50.1255L64.0378 66.8463L61.0264 69.4252Z" fill="#C7C7C7"/>
<g opacity="0.3">
<path opacity="0.3" d="M55.4358 55.5703L48.0154 57.2131L47.6094 57.3028L47.5619 57.3133L47.5513 57.3028L47.7728 56.8202L47.2745 57.0417L47.256 57.0259L47.4775 56.5433L46.9791 56.7648L46.9633 56.7438L47.1848 56.2612L46.6864 56.4827L46.668 56.4642L46.8209 56.132L54.5577 54.418L55.4358 55.5703Z" fill="white"/>
<path opacity="0.3" d="M63.4256 67.3706L61.3029 69.1875L60.6463 69.3325L60.736 69.1347L60.2429 69.3536L60.2218 69.3325L60.4433 68.8526L59.9475 69.0741L59.9264 69.053L60.1479 68.5757L59.6548 68.7919L59.6337 68.7735L59.8552 68.2935L59.3595 68.515L59.3384 68.4939L59.4491 68.2513L63.4256 67.3706Z" fill="white"/>
<path opacity="0.3" d="M56.1187 65.0264L55.8233 65.1556L55.8022 65.1371L55.8233 65.0897L56.1187 65.0264Z" fill="white"/>
<path opacity="0.3" d="M62.5845 64.9395L57.4926 66.0681L57.453 66.076L57.0206 66.1735L57.2025 65.7754L56.7068 65.9942L56.6883 65.9758L56.9072 65.4958L56.4115 65.7147L56.393 65.6989L56.6119 65.2163L56.1188 65.4352L56.0977 65.4167L56.2954 64.9869L61.7038 63.7871L62.5845 64.9395Z" fill="white"/>
<path opacity="0.3" d="M53.8355 53.4715L45.9721 55.2119L45.7163 55.2699L45.4685 55.3253L45.2944 55.1618L46.0591 54.5184L53.3951 52.894L53.8355 53.4715Z" fill="white"/>
<path opacity="0.3" d="M54.7663 63.7079L54.8455 63.5365L54.3497 63.758L54.3286 63.7396L54.4684 63.4363L60.4278 62.1152L60.6494 62.4027L54.7663 63.7079Z" fill="white"/>
<path opacity="0.3" d="M53.0917 52.4956L46.8105 53.8853L47.3564 53.4291L52.8702 52.2056L53.0917 52.4956Z" fill="white"/>
</g>
<path d="M47.8602 47.1613C47.784 47.3894 47.6398 47.5886 47.447 47.7324C47.2542 47.8762 47.0221 47.9575 46.7817 47.9655C46.8913 48.3594 46.8596 48.7792 46.6921 49.1522C46.3677 49.7929 45.218 49.5662 45.218 49.5662C45.2462 49.9976 45.1442 50.4275 44.9253 50.8003C44.5509 51.383 43.359 51.3276 43.359 51.3276C43.1659 51.7381 42.8318 52.0656 42.4176 52.2506C41.2916 52.7015 39.7965 51.6045 38.8393 50.9163C37.882 50.228 35.8279 47.3591 35.377 46.8554L39.7147 40.6929C39.7147 40.6929 44.8858 42.5519 45.8957 43.5197C46.7474 44.3345 48.116 46.2779 47.8602 47.1613Z" fill="#EB9481"/>
<path d="M46.8082 47.8364C46.112 46.7526 45.1311 45.9325 44.2002 45.0623C44.1791 45.0412 44.1475 45.0755 44.1686 45.0939C45.1073 45.951 45.8615 46.982 46.7607 47.8759C46.7664 47.8803 46.7734 47.8827 46.7806 47.8825C46.7878 47.8824 46.7948 47.8798 46.8003 47.8752C46.8058 47.8706 46.8096 47.8642 46.811 47.8572C46.8125 47.8501 46.8115 47.8428 46.8082 47.8364Z" fill="#263238"/>
<path d="M45.2525 49.4716C45.0707 49.2397 44.8588 49.0331 44.6223 48.8572C44.385 48.6568 44.145 48.4591 43.8998 48.2666C43.4128 47.8781 42.9144 47.5036 42.4046 47.1432C42.3835 47.1274 42.3519 47.1564 42.3756 47.1749C42.8608 47.5625 43.3434 47.966 43.8128 48.3615C44.0475 48.5645 44.2795 48.7702 44.5116 48.9785C44.7177 49.1881 44.9468 49.3739 45.1945 49.5323C45.2029 49.5359 45.2122 49.5368 45.2211 49.535C45.2301 49.5332 45.2382 49.5286 45.2445 49.5221C45.2508 49.5155 45.255 49.5071 45.2564 49.4981C45.2578 49.4891 45.2565 49.4799 45.2525 49.4716Z" fill="#263238"/>
<path d="M43.3376 51.3013C43.17 51.0933 42.9685 50.915 42.7416 50.774L42.0666 50.2466C41.6183 49.8985 41.17 49.5478 40.7323 49.1918C40.7112 49.176 40.6795 49.2076 40.7033 49.2261C41.1436 49.5979 41.5814 49.975 42.0217 50.3441L42.681 50.8715C42.8667 51.0526 43.0827 51.1998 43.3191 51.3066C43.3191 51.3066 43.3455 51.3119 43.3376 51.3013Z" fill="#263238"/>
<path d="M43.5251 33.7524C34.8232 33.7524 25.0428 36.1547 26.8175 39.0131C28.3495 41.4813 35.0368 46.6603 36.5741 47.715C37.4391 48.3083 41.7452 41.4734 40.7036 41.0541C39.3768 40.4208 38.0902 39.7066 36.851 38.9156C36.6743 38.6835 40.7326 38.3539 44.0024 37.1119C47.5306 35.7723 47.6493 33.7524 43.5251 33.7524Z" fill="#EB9481"/>
<path d="M38.5835 39.667L29.6601 44.2078C29.6601 44.2078 26.654 41.178 26.3982 38.5964C26.1425 36.0149 31.9358 33.5862 44.311 33.4438C45.1759 33.4438 47.1589 33.4939 47.1378 33.7524C47.0059 35.2765 46.6473 36.7453 44.3189 37.5469C42.0871 38.3004 39.7805 38.8106 37.4391 39.0684L38.5835 39.667Z" fill="#FB855E"/>
<path d="M28.9243 44.208L38.2564 39.3481L39.8887 40.3133C39.8887 40.3133 31.3714 46.3413 31.2633 46.2543C31.1552 46.1673 28.9243 44.208 28.9243 44.208Z" fill="#FB855E"/>
<path opacity="0.1" d="M28.9243 44.208L38.2564 39.3481L39.8887 40.3133C39.8887 40.3133 31.3714 46.3413 31.2633 46.2543C31.1552 46.1673 28.9243 44.208 28.9243 44.208Z" fill="black"/>
<path d="M79.8406 104.558H78.8755V119.628H79.8406V104.558Z" fill="#FB855E"/>
<path d="M91.9177 112.861L91.124 112.582L91.538 112.394L91.3323 111.986L91.7463 111.796L91.5407 111.39L91.9573 111.197L91.749 110.794L92.1656 110.601L91.9599 110.193L92.3739 110.005L92.1683 109.597L92.5823 109.407L92.3766 109.001L92.7906 108.808L92.5849 108.402L92.9989 108.212L92.7932 107.804L93.2098 107.614L93.0015 107.208L93.4182 107.018L93.2098 106.612L93.6265 106.419L93.4208 106.013L93.8348 105.823L93.6291 105.414L94.0431 105.225L93.8374 104.819L94.2514 104.629L94.0458 104.22L94.4624 104.03L94.2541 103.624L94.6707 103.431L94.465 103.025L94.879 102.836L94.6733 102.427L95.0873 102.24L94.8817 101.831L95.2957 101.641L95.09 101.235L95.504 101.042L95.2983 100.636L95.7149 100.446L95.5066 100.038L95.9233 99.8505L95.7176 99.4418L96.1316 99.2519L95.9259 98.8459L96.3399 98.6534L96.1342 98.2473L96.5482 98.0574L96.3425 97.6487L96.7565 97.4615L96.5508 97.0527L97.3472 97.3296L91.9177 112.861Z" fill="#C7C7C7"/>
<path d="M97.3578 97.3411L98.5146 94.0303L97.7156 93.7511L96.5587 97.0619L97.3578 97.3411Z" fill="#37474F"/>
<path d="M91.9258 112.861L92.1367 112.257L95.0901 113.294C95.2303 113.342 95.3839 113.332 95.5173 113.268C95.6506 113.203 95.753 113.088 95.8021 112.948L100.549 99.3812C100.598 99.2409 100.589 99.087 100.525 98.9531C100.46 98.8191 100.346 98.7161 100.206 98.6665L97.2498 97.6355L97.4634 97.0396L100.419 98.0732C100.568 98.125 100.705 98.2057 100.822 98.3105C100.94 98.4153 101.036 98.5422 101.104 98.684C101.172 98.8258 101.212 98.9797 101.221 99.1369C101.229 99.2941 101.207 99.4515 101.155 99.6L96.4086 113.167C96.3034 113.467 96.0835 113.713 95.7973 113.851C95.5111 113.989 95.1818 114.007 94.8818 113.903L91.9258 112.861Z" fill="#263238"/>
<path d="M100.432 104.558H99.4673V119.628H100.432V104.558Z" fill="#FB855E"/>
<path d="M99.5174 105.757H79.8379V106.533H99.5174V105.757Z" fill="#FB855E"/>
<path d="M79.5795 102.975L84.7822 101.847L83.5718 96.2642L78.3691 97.3928L79.5795 102.975ZM79.9408 101.071L79.2578 97.907L82.9838 97.1001L83.6667 100.249L79.9408 101.071Z" fill="#263238"/>
<path d="M85.916 116.25L85.908 116.247L86.2324 116.073L86.2298 116.055V116.052L85.8817 115.973L86.2034 115.796L86.2007 115.778L85.85 115.696L86.177 115.522L86.1744 115.501L85.8237 115.422L86.1454 115.248V115.229L85.7947 115.147L86.119 114.973L86.1164 114.952L85.7683 114.871L86.0926 114.696L86.09 114.678V114.675L85.7393 114.596L86.0636 114.422L86.061 114.404L85.7129 114.322L86.0346 114.145L86.032 114.13L86.0346 114.127L85.6839 114.048L86.0083 113.871L86.0056 113.855V113.853L85.6549 113.774L85.9792 113.597L85.9766 113.581L85.6285 113.497L85.9529 113.323L85.9502 113.304L85.5969 113.222L85.9239 113.048L85.9212 113.027L85.5705 112.948L85.8949 112.774V112.753L85.5415 112.671L85.8659 112.497L85.8632 112.479L85.5151 112.397L85.8395 112.22L85.8369 112.205L85.4861 112.123L85.8105 111.949L85.8078 111.928L85.4598 111.849L85.7815 111.672V111.653L85.4308 111.574L85.7577 111.398L85.7551 111.379L85.4044 111.297L85.7261 111.123V111.105L85.3754 111.023L85.6997 110.847L85.6971 110.828L85.3464 110.749L85.6707 110.572L85.6681 110.554L85.3174 110.472L85.6444 110.298L85.6417 110.28L85.291 110.198L85.6153 110.021V110.003L85.262 109.921L85.589 109.747L85.5863 109.728L85.233 109.647L85.56 109.473L85.5573 109.454L85.2066 109.372L85.531 109.196L85.5283 109.18L85.1803 109.098L85.5046 108.922L85.502 108.906L85.1512 108.824L85.4756 108.647L85.473 108.629L85.1222 108.547L85.4466 108.37V108.355L85.0932 108.273L85.4202 108.096L85.4176 108.078L85.0669 107.996L85.3912 107.822L85.3886 107.804L85.0379 107.722L85.3648 107.548L85.3622 107.529L85.0088 107.448L85.3358 107.273L85.3332 107.255L84.9798 107.173L85.3068 106.994L85.3042 106.981L84.9535 106.899L85.2805 106.72L85.2752 106.704L84.9245 106.625L85.2515 106.446L85.2488 106.43L84.8981 106.348L85.2224 106.171L85.2198 106.153L84.8691 106.071L85.1934 105.897V105.879L84.8401 105.797L85.1671 105.623V105.604L84.8137 105.523L85.1381 105.349V105.33L84.7847 105.248L85.1091 105.072V105.053L84.7583 104.971L85.0853 104.797L85.0827 104.779L84.7293 104.7L85.0537 104.521V104.502L84.7003 104.42L85.0273 104.246V104.228L84.6713 104.146L84.9983 103.972L84.9957 103.954L84.645 103.872L84.9719 103.695L84.9693 103.679L84.6186 103.598L84.9456 103.421L84.9403 103.405L84.5896 103.323L84.9139 103.147L84.9113 103.128L84.5606 103.046L84.8876 102.872V102.854L84.5316 102.775L84.8585 102.596L84.8559 102.58L84.5052 102.498L84.8322 102.321L84.8295 102.303L84.4762 102.221L84.8032 102.047L84.7821 101.847L79.582 102.975L83.2737 116.795L85.916 116.25Z" fill="#C7C7C7"/>
<g opacity="0.3">
<path opacity="0.3" d="M80.7846 107.476L84.7558 104.164L84.9721 103.985L84.9984 103.964L84.9958 103.953L84.6451 103.872L84.9721 103.695L84.9694 103.679L84.6187 103.598L84.9457 103.421L84.9404 103.405L84.5897 103.323L84.914 103.147L84.9114 103.128L84.6714 103.073L80.5288 106.525L80.7846 107.476Z" fill="white"/>
<path opacity="0.3" d="M83.812 116.685L85.6737 116.3L86.0244 116.007L85.882 115.973L86.2037 115.796L86.2011 115.778L85.8504 115.696L86.1773 115.522L86.1747 115.501L85.824 115.422L86.1457 115.247V115.229L85.795 115.147L86.1193 114.973L86.1167 114.952L85.94 114.913L83.812 116.685Z" fill="white"/>
<path opacity="0.3" d="M85.5894 111.777L85.7819 111.672V111.653L85.7476 111.646L85.5894 111.777Z" fill="white"/>
<path opacity="0.3" d="M82.8549 115.221L85.5789 112.951L85.6 112.932L85.832 112.74L85.5419 112.671L85.8663 112.497L85.8637 112.479L85.5156 112.397L85.8399 112.22L85.8373 112.205L85.4866 112.123L85.8109 111.949L85.8083 111.928L85.4971 111.856L82.5991 114.269L82.8549 115.221Z" fill="white"/>
<path opacity="0.3" d="M80.3204 105.741L84.529 102.234L84.6661 102.121L84.7979 102.01L84.7821 101.847L84.1176 101.992L80.1938 105.264L80.3204 105.741Z" fill="white"/>
<path opacity="0.3" d="M85.4442 110.501L85.3176 110.472L85.6446 110.298L85.642 110.28L85.4205 110.227L82.2324 112.885L82.2931 113.125L85.4442 110.501Z" fill="white"/>
<path opacity="0.3" d="M80.1043 104.935L83.4664 102.134L82.9918 102.237L80.041 104.697L80.1043 104.935Z" fill="white"/>
</g>
<path d="M85.461 116.089L84.2702 116.423C84.1019 116.47 83.9217 116.448 83.7692 116.363C83.6168 116.277 83.5046 116.134 83.4574 115.966L81.6327 109.461L84.0929 108.771L85.9176 115.276C85.9649 115.444 85.9433 115.624 85.8576 115.777C85.772 115.929 85.6293 116.041 85.461 116.089Z" fill="#37474F"/>
<path d="M82.0325 109.351L83.6904 108.886L83.506 108.229L81.848 108.694L82.0325 109.351Z" fill="#37474F"/>
<path d="M82.4139 108.531L82.9395 108.383L80.9523 101.3L80.4268 101.447L82.4139 108.531Z" fill="#EBEBEB"/>
<path d="M79.9775 100.908C79.9775 100.908 79.996 99.729 80.0303 99.7185L80.2043 99.671L80.381 99.6235C80.4153 99.6235 81.0429 100.612 81.0429 100.612L80.9453 101.309L80.4179 101.456L79.9775 100.908Z" fill="#EBEBEB"/>
<path d="M85.1691 115.171L85.5981 115.051L84.0505 109.534L83.6214 109.654L85.1691 115.171Z" fill="#263238"/>
<path d="M84.3722 115.394L84.8013 115.273L83.2536 109.756L82.8245 109.877L84.3722 115.394Z" fill="#263238"/>
<path d="M83.5734 115.619L84.0024 115.499L82.4548 109.982L82.0257 110.102L83.5734 115.619Z" fill="#263238"/>
<path d="M85.7903 100.892L87.0255 100.953C87.2001 100.962 87.3641 101.04 87.4814 101.169C87.5988 101.299 87.6598 101.47 87.6511 101.644L87.3152 108.392L84.7631 108.265L85.0991 101.517C85.1078 101.343 85.1855 101.179 85.3151 101.061C85.4447 100.944 85.6156 100.883 85.7903 100.892Z" fill="#37474F"/>
<path d="M86.9019 108.372L85.1821 108.286L85.1482 108.968L86.868 109.054L86.9019 108.372Z" fill="#37474F"/>
<path d="M86.2815 109.022L85.7363 108.995L85.3705 116.343L85.9157 116.37L86.2815 109.022Z" fill="#EBEBEB"/>
<path d="M86.1532 117.036C86.1532 117.036 85.7629 118.151 85.726 118.148H85.5441H85.3648C85.3279 118.148 85.0483 116.999 85.0483 116.999L85.3621 116.371L85.9053 116.397L86.1532 117.036Z" fill="#EBEBEB"/>
<path d="M85.7757 101.852L85.3306 101.83L85.0457 107.553L85.4907 107.575L85.7757 101.852Z" fill="#263238"/>
<path d="M86.6917 102.048L86.2461 102.025L85.9596 107.755L86.4052 107.778L86.6917 102.048Z" fill="#263238"/>
<path d="M87.426 101.939L86.981 101.917L86.6961 107.64L87.1411 107.662L87.426 101.939Z" fill="#263238"/>
<path d="M89.6983 115.801L91.8843 115.538L90.2483 101.979L88.0623 102.243L89.6983 115.801Z" fill="#263238"/>
<path d="M87.9612 103.698L90.6865 103.369L90.3577 100.644L87.6324 100.973L87.9612 103.698Z" fill="#C7C7C7"/>
<path d="M90.375 100.771C90.375 100.771 92.9697 98.9037 94.3304 98.7402L94.8973 103.442L90.6782 103.234L90.375 100.771Z" fill="#C7C7C7"/>
<g opacity="0.2">
<path opacity="0.2" d="M94.5863 100.913L92.8274 103.339H92.8248L91.7568 103.287L94.4307 99.6108L94.5863 100.913Z" fill="white"/>
<path opacity="0.2" d="M94.1248 98.7773L90.8708 103.244H90.6651L90.6177 102.844L93.3917 99.0226C93.6278 98.918 93.8733 98.8359 94.1248 98.7773Z" fill="white"/>
<path opacity="0.2" d="M92.8275 99.2759L90.5703 102.382L90.5308 102.055L92.3766 99.5106C92.5269 99.4288 92.6772 99.3497 92.8275 99.2759Z" fill="white"/>
</g>
<path d="M95.0017 101.164L93.3408 100.896L92.9227 103.489L94.5836 103.757L95.0017 101.164Z" fill="#EBEBEB"/>
<path d="M94.8683 101.944L95.9943 102.126C96.1657 102.153 96.9488 101.486 97.4762 101.57L98.0537 101.665C98.5547 101.744 100.583 102.596 100.372 103.901C100.161 105.206 100.245 104.676 100.245 104.676C100.245 104.676 100.066 103.946 99.6121 103.74C99.3989 103.643 99.1562 103.634 98.9363 103.715C98.7164 103.795 98.5367 103.959 98.4361 104.17C98.2768 104.54 98.1446 104.92 98.0405 105.309L95.9784 104.977C95.9567 104.505 95.8923 104.037 95.7859 103.577C95.6541 103.221 94.6758 103.144 94.6758 103.144L94.8683 101.944Z" fill="#EBEBEB"/>
<path d="M97.6466 105.238L96.3657 105.031L95.6202 109.655L96.901 109.861L97.6466 105.238Z" fill="#EBEBEB"/>
<path d="M97.5594 107.756L95.6538 107.448L93.9944 117.739L95.9 118.046L97.5594 107.756Z" fill="#263238"/>
<path d="M99.4673 109.23H79.8379V119.627H99.4673V109.23Z" fill="#FB855E"/>
<g opacity="0.1">
<path opacity="0.1" d="M79.8379 110.433C80.7898 110.393 81.7418 110.375 82.6937 110.359C83.6456 110.343 84.5976 110.343 85.5495 110.335L88.4079 110.356C89.3599 110.372 90.3118 110.393 91.2637 110.433C90.3118 110.475 89.3599 110.493 88.4079 110.509L85.5495 110.533C84.5976 110.533 83.6456 110.533 82.6937 110.509C81.7418 110.485 80.7898 110.488 79.8379 110.433Z" fill="black"/>
<path opacity="0.1" d="M84.4922 111.379C85.7421 111.337 86.9894 111.318 88.2366 111.303L91.9811 111.279L95.7229 111.303C96.9728 111.318 98.2201 111.337 99.4674 111.379C98.2201 111.419 96.9728 111.437 95.7229 111.453L91.9811 111.477L88.2366 111.453C86.9894 111.437 85.7421 111.419 84.4922 111.379Z" fill="black"/>
<path opacity="0.1" d="M96.1448 112.801C94.9951 112.843 93.848 112.861 92.6983 112.877L89.2518 112.901L85.8054 112.877C84.6557 112.861 83.506 112.843 82.3589 112.801C83.506 112.761 84.6557 112.74 85.8054 112.724L89.2518 112.703L92.6983 112.724C93.8401 112.74 94.9872 112.761 96.1448 112.801Z" fill="black"/>
<path opacity="0.1" d="M79.8379 113.37C80.5683 113.331 81.2988 113.312 82.0292 113.296C82.7596 113.28 83.49 113.28 84.2205 113.273C84.9509 113.265 85.6813 113.273 86.4091 113.294C87.1369 113.315 87.87 113.331 88.6004 113.37C87.87 113.412 87.1396 113.431 86.4091 113.447C85.6787 113.462 84.9509 113.462 84.2205 113.47C83.49 113.478 82.7596 113.47 82.0292 113.447C81.2988 113.423 80.5683 113.412 79.8379 113.37Z" fill="black"/>
<path opacity="0.1" d="M79.8379 114.058L82.0292 114.008L84.2205 113.982L88.6031 113.958L92.9857 113.982L95.177 114.008L97.3683 114.058L95.177 114.106L92.9857 114.132L88.6031 114.156L84.2205 114.132L82.0292 114.106L79.8379 114.058Z" fill="black"/>
<path opacity="0.1" d="M99.4671 114.599C98.676 114.638 97.8665 114.659 97.0649 114.675C96.2632 114.691 95.4616 114.688 94.6626 114.696C93.8636 114.704 93.0594 114.696 92.2577 114.675C91.4561 114.654 90.6571 114.638 89.8555 114.599C90.6466 114.557 91.4561 114.538 92.2577 114.522C93.0594 114.506 93.861 114.506 94.6626 114.499C95.4642 114.491 96.2632 114.499 97.0649 114.522C97.8665 114.546 98.6655 114.557 99.4671 114.599Z" fill="black"/>
<path opacity="0.1" d="M87.2607 115.432C87.9991 115.39 88.7401 115.372 89.4784 115.356C90.2168 115.34 90.9577 115.34 91.6987 115.332C92.4397 115.324 93.178 115.332 93.9164 115.356C94.6547 115.38 95.3983 115.39 96.1367 115.432C95.3983 115.472 94.6574 115.493 93.9164 115.509C93.1754 115.525 92.4371 115.509 91.6987 115.53C90.9604 115.551 90.2194 115.53 89.4784 115.506C88.7374 115.482 87.9991 115.472 87.2607 115.432Z" fill="black"/>
<path opacity="0.1" d="M79.8379 116.972C81.0588 116.933 82.2771 116.914 83.4953 116.898L87.1554 116.875L90.8128 116.896C92.0311 116.911 93.252 116.933 94.4703 116.972C93.252 117.014 92.0311 117.033 90.8128 117.049L87.1554 117.072L83.4874 117.049C82.2771 117.033 81.0588 117.014 79.8379 116.972Z" fill="black"/>
<path opacity="0.1" d="M99.4675 118.019C98.6501 118.058 97.8326 118.077 97.0152 118.093C96.1977 118.108 95.3776 118.108 94.5602 118.116C93.7427 118.124 92.9253 118.116 92.1078 118.095C91.2904 118.074 90.4703 118.058 89.6528 118.019C90.4703 117.977 91.2877 117.958 92.1078 117.942C92.9279 117.926 93.7427 117.926 94.5602 117.918C95.3776 117.911 96.1951 117.918 97.0152 117.942C97.8352 117.966 98.6501 117.977 99.4675 118.019Z" fill="black"/>
<path opacity="0.1" d="M79.8379 118.895C80.5235 118.855 81.2065 118.837 81.8894 118.821C82.5724 118.805 83.258 118.805 83.941 118.797C84.6239 118.789 85.3095 118.797 85.9925 118.818C86.6755 118.839 87.3611 118.855 88.044 118.895C87.3611 118.937 86.6781 118.955 85.9925 118.971C85.3069 118.987 84.6266 118.987 83.941 118.995C83.2554 119.003 82.575 118.995 81.8894 118.971C81.2038 118.947 80.5235 118.926 79.8379 118.895Z" fill="black"/>
</g>
</svg>
