<svg width="322" height="280" viewBox="0 0 322 280" fill="none" xmlns="http://www.w3.org/2000/svg">
<path d="M154.24 9.17945L161.089 53.4235C161.351 55.1136 162.933 56.2715 164.623 56.0099L191.571 51.8381C193.261 51.5765 194.419 49.9943 194.158 48.3042L187.308 4.06018C187.047 2.37011 185.465 1.21213 183.775 1.47377L156.826 5.64556C155.136 5.9072 153.978 7.48938 154.24 9.17945Z" stroke="#263238" stroke-linecap="round" stroke-linejoin="round"/>
<path d="M168.973 55.3345L161.177 4.97043" stroke="#263238" stroke-linecap="round" stroke-linejoin="round"/>
<path d="M170.017 8.90851L171.277 17.0442L182.992 15.2306L181.732 7.09496L170.017 8.90851Z" stroke="#263238" stroke-linecap="round" stroke-linejoin="round"/>
<path d="M173.195 13.7421C171.149 12.0233 172.513 9.19953 178.863 9.86114L180.111 7.3443L181.707 7.09874L182.969 15.229L180.834 15.5632L179.641 12.4939C179.641 12.4939 175.125 15.3586 173.195 13.7421Z" stroke="#263238" stroke-linecap="round" stroke-linejoin="round"/>
<path d="M187.519 31.3867C187.519 31.3867 187.567 25.5073 186.394 27.192C185.221 28.8767 184.034 29.1291 184.013 27.6967C183.993 26.2644 186.742 23.8635 185.064 24.0545C183.386 24.2454 184.477 23.2087 184.586 23.0109C184.695 22.8131 184.013 21.1147 184.211 21.0329C184.409 20.951 184.961 21.067 184.109 15.5354" stroke="#263238" stroke-linecap="round" stroke-linejoin="round"/>
<path d="M174.204 51.0645L170.385 26.4008" stroke="#263238" stroke-linecap="round" stroke-linejoin="round"/>
<path d="M177.001 50.6284L174.75 36.1003" stroke="#263238" stroke-linecap="round" stroke-linejoin="round"/>
<path d="M181.933 49.8645L178.795 29.6002" stroke="#263238" stroke-linecap="round" stroke-linejoin="round"/>
<path d="M163.49 43.5752L159.657 18.8433" stroke="#263238" stroke-linecap="round" stroke-linejoin="round"/>
<path d="M146.213 279.115L135.17 223.819L227.877 204.51L240.482 263.284L146.213 279.115Z" stroke="#263238" stroke-linecap="round" stroke-linejoin="round"/>
<path d="M227.256 265.508L216.636 206.85" stroke="#263238" stroke-linecap="round" stroke-linejoin="round"/>
<path d="M208.752 213.8L213.922 241.812" stroke="#263238" stroke-linecap="round" stroke-linejoin="round"/>
<path d="M204.1 217.954L205.307 226.139" stroke="#263238" stroke-linecap="round" stroke-linejoin="round"/>
<path d="M194.633 216.705L202.477 258.516" stroke="#263238" stroke-linecap="round" stroke-linejoin="round"/>
<path d="M189.279 271.885L179.177 214.653" stroke="#263238" stroke-linecap="round" stroke-linejoin="round" stroke-dasharray="1 2"/>
<path d="M224.876 211.071L232.16 245.836" stroke="#263238" stroke-linecap="round" stroke-linejoin="round"/>
<path d="M221.943 212.109L224.876 228.451" stroke="#263238" stroke-linecap="round" stroke-linejoin="round"/>
<path d="M173.066 220.948L178.748 249.615" stroke="#263238" stroke-linecap="round" stroke-linejoin="round"/>
<path d="M166.702 223.212L168.496 232.345" stroke="#263238" stroke-linecap="round" stroke-linejoin="round"/>
<path d="M162.283 223.751L170.331 265.508" stroke="#263238" stroke-linecap="round" stroke-linejoin="round"/>
<path d="M140.77 227.543L143.103 238.818" stroke="#263238" stroke-linecap="round" stroke-linejoin="round"/>
<path d="M148.784 265.507L150.674 275.234" stroke="#263238" stroke-linecap="round" stroke-linejoin="round"/>
<path d="M156.034 271.694C155.343 271.491 154.703 271.143 154.157 270.672C153.611 270.202 153.172 269.62 152.87 268.966" stroke="#263238" stroke-linecap="round" stroke-linejoin="round"/>
<path d="M162.282 267.37C162.139 268.577 161.568 269.694 160.672 270.516C159.776 271.338 158.614 271.812 157.399 271.851" stroke="#263238" stroke-linecap="round" stroke-linejoin="round"/>
<path d="M161.123 263.577C161.746 264.27 162.149 265.131 162.282 266.053" stroke="#263238" stroke-linecap="round" stroke-linejoin="round"/>
<path d="M152.406 266.892C152.435 266.014 152.691 265.158 153.148 264.408C153.606 263.658 154.25 263.04 155.018 262.612C155.786 262.185 156.651 261.964 157.53 261.971C158.408 261.977 159.27 262.211 160.032 262.65" stroke="#263238" stroke-linecap="round" stroke-linejoin="round"/>
<path d="M153.688 256.948C153.402 257.855 153.074 258.755 152.87 259.676" stroke="#263238" stroke-linecap="round" stroke-linejoin="round"/>
<path d="M154.343 249.213C156.178 249.984 154.507 254.294 154.125 255.549" stroke="#263238" stroke-linecap="round" stroke-linejoin="round"/>
<path d="M149.473 256.593L151.369 248.53C151.908 248.66 152.454 248.762 152.993 248.865" stroke="#263238" stroke-linecap="round" stroke-linejoin="round"/>
<path d="M151.369 260.583C149.323 259.724 148.641 260.065 149.139 257.923" stroke="#263238" stroke-linecap="round" stroke-linejoin="round"/>
<path d="M296.152 162.208L299.426 151.534L290.082 159.466C285.247 155.118 279.025 152.628 272.526 152.441" stroke="#263238" stroke-linecap="round" stroke-linejoin="round"/>
<path d="M300.272 175.16C299.13 171.583 297.434 168.206 295.245 165.154" stroke="#263238" stroke-linecap="round" stroke-linejoin="round"/>
<path d="M280.424 216.351C295.573 213.207 304.903 196.469 301.275 178.96" stroke="#263238" stroke-linecap="round" stroke-linejoin="round"/>
<path d="M263.345 213.8C264.621 214.472 265.948 215.043 267.314 215.506" stroke="#263238" stroke-linecap="round" stroke-linejoin="round"/>
<path d="M267.274 152.953C252.125 156.09 242.794 172.835 246.429 190.337C247.99 198.284 252.253 205.447 258.495 210.608" stroke="#263238" stroke-linecap="round" stroke-linejoin="round"/>
<path d="M261.721 171.526C256.231 176.566 260.037 183.435 265.609 186.293C261.517 191.012 260.514 198.809 267.492 201.441C279.244 205.888 286.412 190.678 289.004 183.639C289.304 182.841 289.557 182.186 289.741 181.641C289.366 181.197 288.888 180.679 288.315 180.052C283.289 174.486 270.984 163.027 261.721 171.526Z" stroke="#263238" stroke-linecap="round" stroke-linejoin="round"/>
<path d="M38.1451 129.612L33.8549 139.918L43.9222 132.927C48.3149 137.705 54.2606 140.77 60.7011 141.575" stroke="#263238" stroke-linecap="round" stroke-linejoin="round"/>
<path d="M35.2733 116.339C36.0688 120.008 37.4311 123.531 39.3112 126.781" stroke="#263238" stroke-linecap="round" stroke-linejoin="round"/>
<path d="M58.9965 77.2359C43.6021 78.907 32.689 94.6696 34.6466 112.444" stroke="#263238" stroke-linecap="round" stroke-linejoin="round"/>
<path d="M75.7483 81.4172C74.5416 80.6377 73.2759 79.9535 71.9628 79.371" stroke="#263238" stroke-linecap="round" stroke-linejoin="round"/>
<path d="M65.9808 141.576C81.3615 139.905 92.261 124.142 90.3307 106.367C89.5389 98.3079 85.9845 90.7703 80.2702 85.0321" stroke="#263238" stroke-linecap="round" stroke-linejoin="round"/>
<path d="M75.3929 101.931C71.1743 94.0499 61.3657 91.081 53.4847 95.2996C45.6038 99.5183 42.6349 109.327 46.8536 117.208C51.0722 125.089 60.8808 128.058 68.7618 123.839C76.6427 119.62 79.6116 109.812 75.3929 101.931Z" stroke="#263238" stroke-linecap="round" stroke-linejoin="round"/>
<path d="M63.171 115.719L67.7409 110.876L53.8335 102.8" stroke="#263238" stroke-linecap="round" stroke-linejoin="round"/>
<path opacity="0.2" d="M215.286 89.3357C215.286 89.3357 244.669 91.7639 251.797 88.2512C258.924 84.7385 307.624 82.9788 313.749 84.5544C313.749 84.5544 316.6 73.2457 312.549 68.7713C308.497 64.2969 312.399 57.4148 308.456 46.0788C304.514 34.7428 217.011 42.9208 217.011 42.9208L185.179 42.573L168.523 61.2685L215.286 89.3357Z" fill="black" fill-opacity="0.7"/>
<path d="M229.418 74.2618C229.628 74.3324 229.821 74.4462 229.984 74.596C232.269 77.0105 234.806 87.3166 236.634 96.1699C238.155 103.502 239.185 109.811 239.185 109.811C239.185 109.811 198.827 114.668 194.585 114.668C190.342 114.668 121.658 122.498 121.658 122.498L120.846 103.727L119.768 78.8249C119.768 78.8249 121.603 78.6748 124.809 78.4224C145.23 76.7787 221.363 71.1311 229.418 74.2618Z" fill="#FB855E"/>
<path opacity="0.2" d="M229.418 74.2619L233.899 96.17L235.597 104.443C233.394 106.687 233.353 108.399 233.353 108.399L227.18 109.082L217.079 110.152L128.205 119.579C126.793 117.532 123.703 116.523 123.703 116.523L123.247 103.905L122.448 82.0443L124.781 78.4361C145.23 76.7787 221.362 71.1312 229.418 74.2619Z" fill="black" fill-opacity="0.7"/>
<path d="M229.418 74.2619L233.899 96.17L235.597 104.443C233.394 106.687 233.353 108.399 233.353 108.399L227.18 109.082L217.079 110.152L128.205 119.579C126.793 117.532 123.703 116.523 123.703 116.523L123.247 103.905L122.448 82.0443L124.781 78.4361C145.23 76.7787 221.362 71.1312 229.418 74.2619Z" stroke="#263238" stroke-linecap="round" stroke-linejoin="round"/>
<path d="M203.254 107.24L203.24 99.928L205.525 99.9211L206.248 101.954L206.76 106.64L203.254 107.24Z" fill="#FB855E" stroke="#263238" stroke-linecap="round" stroke-linejoin="round"/>
<path d="M207.96 106.79L207.776 101.415L208.431 100.038L211.466 100.106L211.534 106.381L207.96 106.79Z" fill="#FB855E" stroke="#263238" stroke-linecap="round" stroke-linejoin="round"/>
<path d="M212.809 105.93L212.366 99.7919L214.665 99.8601L215.715 102.827L215.538 105.965L212.809 105.93Z" fill="#FB855E" stroke="#263238" stroke-linecap="round" stroke-linejoin="round"/>
<path d="M216.683 105.562L216.936 100.604L218.204 100.153L219.603 100.876L219.889 105.31L217.727 106.074L216.683 105.562Z" fill="#FB855E" stroke="#263238" stroke-linecap="round" stroke-linejoin="round"/>
<path d="M221.124 99.8462L223.108 99.1642C223.319 99.0553 223.553 98.9985 223.79 98.9985C224.028 98.9985 224.262 99.0553 224.473 99.1642C224.617 99.291 224.728 99.4529 224.792 99.6345C224.856 99.816 224.873 100.011 224.841 100.201C224.807 100.583 224.677 100.958 224.657 101.34C224.609 102.493 225.557 103.55 225.339 104.682C224.111 105.125 222.31 106.244 221.758 104.73C221.669 104.45 221.574 99.6825 221.124 99.8462Z" fill="#FB855E" stroke="#263238" stroke-linecap="round" stroke-linejoin="round"/>
<path d="M226.709 99.8664C227.181 99.7582 227.66 99.6808 228.142 99.6345C228.447 99.5653 228.764 99.5754 229.064 99.6638C229.363 99.7521 229.635 99.9158 229.854 100.139C230.014 100.43 230.1 100.756 230.106 101.087L230.461 105.03C229.717 105.087 228.969 105.099 228.224 105.064C227.337 104.832 227.412 104.996 227.051 104.157C226.484 102.827 227.385 101.231 226.709 99.8664Z" fill="#FB855E" stroke="#263238" stroke-linecap="round" stroke-linejoin="round"/>
<path d="M130.224 114.204C130.224 114.204 144.595 112.717 147.439 112.649" stroke="#263238" stroke-linecap="round" stroke-linejoin="round"/>
<path d="M130.381 110.998L138.3 110.303" stroke="#263238" stroke-linecap="round" stroke-linejoin="round"/>
<path d="M127.387 99.8872L136.67 98.9869L136.792 97.725L127.475 98.1343L127.387 99.8872Z" fill="#FB855E" stroke="#263238" stroke-linecap="round" stroke-linejoin="round"/>
<path opacity="0.2" d="M229.418 74.262C229.628 74.3325 229.821 74.4464 229.984 74.5962C232.269 77.0107 234.806 87.3168 236.634 96.1701L230.496 96.1701L227.194 109.054L226.696 110.998L217.093 110.125L180.398 106.79L123.274 103.877L120.846 103.755L119.768 78.825C119.768 78.825 121.603 78.675 124.809 78.4226C145.23 76.7788 221.363 71.1313 229.418 74.262Z" fill="black" fill-opacity="0.7"/>
<path d="M229.418 74.2618C229.628 74.3324 229.821 74.4462 229.984 74.596C232.269 77.0105 234.806 87.3166 236.634 96.1699C238.155 103.502 239.185 109.811 239.185 109.811C239.185 109.811 198.827 114.668 194.585 114.668C190.342 114.668 121.658 122.498 121.658 122.498L120.846 103.727L119.768 78.8249C119.768 78.8249 121.603 78.6748 124.809 78.4224C145.23 76.7787 221.363 71.1311 229.418 74.2618Z" stroke="#263238" stroke-linecap="round" stroke-linejoin="round"/>
<path d="M321 61.0502C319.56 60.8934 298.914 63.1578 296.67 63.1988C290.532 63.3079 282.476 65.0472 282.476 65.0472C276.269 67.4753 261.966 69.3647 252.793 75.8444C243.619 82.324 232.828 82.3172 223.668 83.3949C214.508 84.4725 215.299 84.2065 207.169 83.9337C201.062 83.7369 194.948 84.0082 188.883 84.7454C183.481 85.2842 173.979 86.3619 169.553 84.7454C165.126 83.1289 164.096 78.9 168.53 74.2688C172.963 69.6375 191.14 67.7482 193.384 67.7482C195.628 67.7482 202.64 67.7482 205.341 66.1249C205.341 66.1249 200.648 56.951 199.352 56.951C198.057 56.951 186.605 57.2238 185.991 55.8733L168.53 61.2685L164.894 51.0375C166.622 49.1116 168.621 47.448 170.828 46.0993C172.656 44.9445 174.596 43.9779 176.619 43.2141C188.071 38.8966 196.058 31.96 199.352 30.5276C202.647 29.0953 228.811 30.5276 233.674 30.5276C238.537 30.5276 260.957 33.6651 264.729 33.5833C267.457 33.5219 277.606 31.6803 285.389 29.8455C288.39 29.1635 310.134 25.0233 311.86 24.389L321 61.0502Z" fill="white"/>
<path opacity="0.4" d="M184.838 52.9745C186.304 53.0428 197.995 51.2898 197.995 51.2898C200.908 50.0757 210.839 56.7055 210.839 56.7055C211.643 58.1378 216.636 58.7517 216.636 58.7517C215.64 63.2397 205.307 73.5185 205.307 73.5185C205.307 73.5185 209.543 74.7326 220.026 76.0967C230.509 77.4609 255.412 68.8122 272.607 65.129C289.802 61.4459 296.65 63.1988 296.65 63.1988C290.511 63.3079 282.456 65.0472 282.456 65.0472C276.249 67.4753 261.946 69.3647 252.772 75.8444C243.598 82.324 232.828 82.3172 223.668 83.3949C214.508 84.4725 215.299 84.2065 207.169 83.9337C201.062 83.7369 194.948 84.0082 188.883 84.7454C183.481 85.2842 173.979 86.3619 169.553 84.7454C165.126 83.1289 164.096 78.9 168.53 74.2688C172.963 69.6375 191.14 67.7482 193.384 67.7482C195.628 67.7482 202.64 67.7482 205.341 66.1249C205.341 66.1249 200.648 56.951 199.352 56.951C198.057 56.951 186.605 57.2238 185.991 55.8733L168.53 61.2685L164.894 51.0375C166.622 49.1116 168.621 47.448 170.828 46.0993C177.444 49.4073 183.924 52.9063 184.838 52.9745Z" fill="#FB855E"/>
<path opacity="0.4" d="M266.536 35.7726C262.444 35.3225 252.717 33.9788 246.647 33.1262C251.387 34.1698 253.788 35.8545 253.788 35.8545C253.788 35.8545 219.003 32.9489 216.881 32.6624C214.76 32.3759 205.225 29.443 199.318 30.5207C202.606 29.0884 228.777 30.5207 233.64 30.5207C238.503 30.5207 260.923 33.6582 264.695 33.5764C267.423 33.515 284.809 30.5889 292.591 28.7541C286.862 32.6965 270.649 36.2228 266.536 35.7726Z" fill="#FB855E"/>
<path d="M311.826 24.4026C305.62 26.5579 268.447 33.481 264.695 33.5628C260.944 33.6447 238.497 30.5071 233.641 30.5071C228.784 30.5071 202.606 29.0748 199.319 30.5071C196.031 31.9395 188.037 38.8761 176.586 43.1937C172.107 44.8256 168.087 47.5085 164.861 51.017L168.496 61.248L185.957 55.8529C186.571 57.217 198.023 56.9305 199.319 56.9305C200.615 56.9305 205.307 66.1044 205.307 66.1044C202.579 67.7277 195.595 67.7277 193.351 67.7277C191.107 67.7277 172.923 69.617 168.496 74.2483C164.07 78.8796 165.086 83.1152 169.519 84.7249C173.953 86.3346 183.447 85.2637 188.849 84.7249C194.922 83.9867 201.042 83.7154 207.156 83.9132C215.286 84.186 214.481 84.4589 223.655 83.3744C232.829 82.2899 243.619 82.2967 252.793 75.8239C261.967 69.351 276.27 67.4549 282.477 65.0267C282.477 65.0267 315.605 60.4432 321 61.0298" stroke="#263238" stroke-linecap="round" stroke-linejoin="round"/>
<path d="M205.307 66.1248C205.307 66.1248 212.857 64.5083 216.636 60.866" stroke="#263238" stroke-linecap="round" stroke-linejoin="round"/>
<path d="M208.752 65.1423C208.752 65.1423 210.839 58.3216 210.968 55.4706" stroke="#263238" stroke-linecap="round" stroke-linejoin="round"/>
<path d="M199.318 56.9509C199.318 56.9509 197.074 52.0946 198.425 48.9912" stroke="#263238" stroke-linecap="round" stroke-linejoin="round"/>
<path d="M185.956 55.8728C185.956 55.8728 185.608 52.0941 183.719 51.2893" stroke="#263238" stroke-linecap="round" stroke-linejoin="round"/>
<path d="M254.716 74.5959C254.716 74.5959 263.726 67.3387 268.31 65.1834" stroke="#263238" stroke-linecap="round" stroke-linejoin="round"/>
<path d="M215.286 32.3967C222.441 33.6108 242.003 35.2341 245.509 35.7729" stroke="#263238" stroke-linecap="round" stroke-linejoin="round"/>
<path d="M201.794 30.077C208.274 29.8724 211.643 31.4412 211.643 31.4412" stroke="#263238" stroke-linecap="round" stroke-linejoin="round"/>
<path d="M111.127 85.8641L124.318 35.8547C124.318 35.8547 177.663 53.4316 184.279 56.9989L230.782 62.9601C230.782 62.9601 229.377 94.9083 224.937 109.6C224.937 109.6 176.51 100.31 170.051 99.8124C163.592 99.3145 111.127 85.8641 111.127 85.8641Z" fill="#FB855E"/>
<path opacity="0.2" d="M167.186 96.6199L120.062 85.5976C120.062 85.5976 117.709 80.8572 115.561 79.0225L125.751 43.1933C125.751 43.1933 129.263 43.0842 131.514 41.0312L183.617 59.1128L222.025 63.4985C222.025 63.4985 222.489 69.3302 226.799 69.8895C226.799 69.8895 227.822 88.7965 224.48 101.476C224.48 101.476 219.822 102.97 216.875 105.255L167.186 96.6199Z" fill="black" fill-opacity="0.7"/>
<path d="M167.186 96.6199L120.062 85.5976C120.062 85.5976 117.709 80.8572 115.561 79.0225L125.751 43.1933C125.751 43.1933 129.263 43.0842 131.514 41.0312L183.617 59.1128L222.025 63.4986C222.025 63.4986 222.489 69.3302 226.799 69.8895C226.799 69.8895 227.822 88.7965 224.48 101.476C224.48 101.476 219.822 102.97 216.875 105.255L167.186 96.6199Z" stroke="#263238" stroke-linecap="round" stroke-linejoin="round"/>
<path d="M169.635 87.4459C169.635 87.4459 157.358 84.1924 159.561 72.7337C161.764 61.2749 176.892 67.7477 176.892 67.7477C176.892 67.7477 189.101 67.6795 187.417 76.9761C185.957 85.0382 181.53 89.3352 169.635 87.4459Z" fill="#FB855E" stroke="#263238" stroke-linecap="round" stroke-linejoin="round"/>
<path d="M124.544 81.239C124.544 81.239 138.574 84.7039 141.275 85.5974" stroke="#263238" stroke-linecap="round" stroke-linejoin="round"/>
<path d="M125.757 78.2716L133.451 80.2905" stroke="#263238" stroke-linecap="round" stroke-linejoin="round"/>
<path d="M131.153 52.9738L133.581 46.078L135.743 46.8351L135.743 48.9905L134.666 53.5808L131.153 52.9738Z" fill="#FB855E" stroke="#263238" stroke-linecap="round" stroke-linejoin="round"/>
<path d="M135.743 54.1197L137.359 48.9906L138.437 47.9129L141.274 48.9906L139.249 54.9314L135.743 54.1197Z" fill="#FB855E" stroke="#263238" stroke-linecap="round" stroke-linejoin="round"/>
<path d="M140.6 54.9313L142.237 48.9905L144.378 49.8294L144.378 52.9738L143.164 55.8726L140.6 54.9313Z" fill="#FB855E" stroke="#263238" stroke-linecap="round" stroke-linejoin="round"/>
<path d="M144.378 55.8732L146.267 51.2897L147.611 51.2897L148.695 52.4356L147.481 56.7053L145.183 56.7053L144.378 55.8732Z" fill="#FB855E" stroke="#263238" stroke-linecap="round" stroke-linejoin="round"/>
<path d="M150.469 51.9648L152.57 51.9648C152.801 51.9293 153.038 51.9485 153.26 52.0207C153.483 52.093 153.686 52.2163 153.852 52.3809C153.945 52.5503 153.993 52.7403 153.993 52.9334C153.993 53.1264 153.945 53.3164 153.852 53.4858C153.688 53.8337 153.443 54.1679 153.3 54.4953C152.87 55.5661 153.409 56.8825 152.836 57.9056C151.533 57.9056 149.466 58.3626 149.426 56.753C149.446 56.4869 150.947 51.9648 150.469 51.9648Z" fill="#FB855E" stroke="#263238" stroke-linecap="round" stroke-linejoin="round"/>
<path d="M155.727 53.854C156.208 53.9055 156.685 53.9921 157.153 54.1132C157.76 54.2632 158.435 54.5565 158.599 55.1636C158.653 55.4904 158.625 55.8257 158.517 56.1389L157.507 59.9722C156.79 59.7868 156.084 59.559 155.393 59.2901C154.636 58.7717 154.65 58.9491 154.588 58.0419C154.527 56.5686 155.911 55.3682 155.727 53.854Z" fill="#FB855E" stroke="#263238" stroke-linecap="round" stroke-linejoin="round"/>
<path d="M126.705 66.7993L135.743 69.0979L136.282 67.952L127.374 65.1828L126.705 66.7993Z" fill="#FB855E" stroke="#263238" stroke-linecap="round" stroke-linejoin="round"/>
<path d="M187.396 95.6037L189.231 88.5238L191.441 89.0968L191.632 91.2453L190.943 95.9106L187.396 95.6037Z" fill="#FB855E" stroke="#263238" stroke-linecap="round" stroke-linejoin="round"/>
<path d="M192.069 96.3542L193.242 91.109L194.224 89.9359L197.143 90.768L195.629 96.8589L192.069 96.3542Z" fill="#FB855E" stroke="#263238" stroke-linecap="round" stroke-linejoin="round"/>
<path d="M196.979 96.7423L198.097 90.6856L200.3 91.3404L200.573 94.4711L199.612 97.4653L196.979 96.7423Z" fill="#FB855E" stroke="#263238" stroke-linecap="round" stroke-linejoin="round"/>
<path d="M200.819 97.3635L202.312 92.6299L203.656 92.514L204.829 93.5644L203.984 97.9228L201.699 98.1206L200.819 97.3635Z" fill="#FB855E" stroke="#263238" stroke-linecap="round" stroke-linejoin="round"/>
<path d="M206.555 92.9501L208.649 92.7659C208.877 92.71 209.115 92.7087 209.344 92.762C209.573 92.8153 209.786 92.9218 209.965 93.0729C210.072 93.2335 210.136 93.4184 210.151 93.6105C210.167 93.8025 210.133 93.9954 210.054 94.171C209.924 94.5325 209.706 94.8531 209.597 95.2282C209.256 96.3263 209.904 97.595 209.42 98.6386C208.124 98.7613 206.105 99.382 205.948 97.786C205.934 97.5404 207.033 92.9092 206.555 92.9501Z" fill="#FB855E" stroke="#263238" stroke-linecap="round" stroke-linejoin="round"/>
<path d="M211.957 94.3758C212.453 94.3855 212.948 94.4311 213.438 94.5122C214.051 94.6145 214.754 94.8464 214.965 95.433C215.047 95.7553 215.047 96.0929 214.965 96.4152L214.283 100.317C213.55 100.185 212.826 100.01 212.114 99.7914C211.316 99.3413 211.344 99.5186 211.207 98.6183C210.996 97.1859 212.271 95.8764 211.957 94.3758Z" fill="#FB855E" stroke="#263238" stroke-linecap="round" stroke-linejoin="round"/>
<path d="M218.581 66.1248C218.581 66.1248 200.478 64.5014 198.657 64.5014" stroke="#263238" stroke-linecap="round" stroke-linejoin="round"/>
<path d="M217.769 69.364C217.769 69.364 208.356 68.6819 206.719 68.5592" stroke="#263238" stroke-linecap="round" stroke-linejoin="round"/>
<path d="M210.969 82.0164L221.684 84.2058L221.684 82.0164L210.969 80.4271L210.969 82.0164Z" fill="#FB855E" stroke="#263238" stroke-linecap="round" stroke-linejoin="round"/>
<path opacity="0.2" d="M184.013 56.8827C183.024 61.6163 181.571 65.8383 179.477 68.9622C179.477 68.9622 185.984 66.6978 197.075 58.6698L230.782 62.9873C230.782 62.9873 229.868 83.8382 227.174 99.594C213.533 94.7513 187.682 85.9526 182.56 86.9962C175.528 88.408 167.227 83.4221 167.227 83.4221C164.39 67.6595 152.474 52.3743 142.4 41.884C158.19 47.2246 179.334 54.516 184.013 56.8827Z" fill="black" fill-opacity="0.7"/>
<path d="M111.127 85.8641L124.318 35.8547C124.318 35.8547 177.663 53.4316 184.279 56.9989L230.782 62.9601C230.782 62.9601 229.377 94.9083 224.937 109.6C224.937 109.6 176.51 100.31 170.051 99.8124C163.592 99.3145 111.127 85.8641 111.127 85.8641Z" stroke="#263238" stroke-linecap="round" stroke-linejoin="round"/>
<path d="M217.318 58.1378L268.31 65.1836C264.974 66.7524 259.286 71.0289 256.442 73.2388C255.378 74.0573 254.716 74.603 254.716 74.603L252.793 75.8512C243.619 82.324 232.828 82.324 223.655 83.4017C214.481 84.4793 215.286 84.2133 207.155 83.9405C201.053 83.7422 194.944 84.0112 188.883 84.7454C183.481 85.2842 173.979 86.3619 169.553 84.7454C167.384 83.9542 166.033 82.5286 165.747 80.7416C165.46 78.9546 166.279 76.6492 168.53 74.2688C172.956 69.6375 191.14 67.7482 193.384 67.7482C195.628 67.7482 202.64 67.7482 205.341 66.1249C205.307 66.1249 213.539 61.7733 217.318 58.1378Z" fill="white"/>
<path opacity="0.4" d="M249.158 76.3832C251.04 74.9099 253.755 73.9073 256.442 73.2388C255.378 74.0573 254.716 74.603 254.716 74.603L252.793 75.8512C243.619 82.324 232.829 82.324 223.655 83.4017C214.481 84.4793 215.286 84.2133 207.156 83.9405C201.053 83.7422 194.944 84.0112 188.883 84.7454C183.481 85.2842 173.98 86.3619 169.553 84.7454C167.384 83.9542 166.034 82.5286 165.747 80.7416C166.716 77.3313 170.187 73.9209 176.128 72.7341C186.1 70.6879 178.045 79.9163 186.496 82.0512C194.947 84.1861 197.225 81.0826 199.353 79.8072C201.481 78.5317 206.173 80.1619 212.476 82.0512C218.778 83.9405 243.981 80.4279 249.158 76.3832Z" fill="#FB855E"/>
<path d="M217.318 58.1379C213.539 61.7801 205.307 66.1249 205.307 66.1249C202.579 67.7482 195.594 67.7482 193.35 67.7482C191.106 67.7482 172.922 69.6376 168.495 74.2688C164.069 78.9001 165.085 83.1357 169.519 84.7454C173.952 86.3551 183.446 85.2842 188.848 84.7454C194.921 84.0072 201.041 83.7359 207.155 83.9337C215.285 84.2066 214.481 84.4794 223.654 83.3949C232.828 82.3104 243.619 82.3172 252.793 75.8444L254.716 74.5962C254.716 74.5962 263.726 67.339 268.31 65.1836" stroke="#263238" stroke-linecap="round" stroke-linejoin="round"/>
<path d="M195.737 82.0171C195.737 82.0171 192.538 75.8307 192.811 72.7341" stroke="#263238" stroke-linecap="round" stroke-linejoin="round"/>
<path opacity="0.2" d="M108.269 176.49C108.269 176.49 91.0397 192.136 89.9825 193.214C88.9253 194.292 70.5503 195.103 62.461 198.077C54.3716 201.051 6.87227 202.49 6.87227 202.49C6.87227 202.49 3.36643 205.321 5.25576 213.301C7.1451 221.281 3.63243 229.105 8.7616 238.006C13.8908 246.907 87.2542 229.643 87.2542 229.643L143.095 212.121L108.269 176.49Z" fill="black" fill-opacity="0.7"/>
<path d="M108.399 165.741C108.399 165.741 153.19 172.753 159.124 180.065C162.535 184.287 164.103 190.869 163.899 196.707C163.749 200.936 162.685 204.783 160.754 207.047C156.164 212.443 153.736 220.007 150.769 223.772C147.802 227.537 137.278 227.55 128.37 229.979C119.462 232.407 119.196 235.919 110.295 236.724C101.394 237.529 74.1452 240.776 66.581 246.642C59.0169 252.507 53.0897 252.644 45.3959 255.072C37.7022 257.5 9.86691 275.261 9.86691 275.261L0.999998 231.963C0.999998 231.963 18.6179 227.707 32.9891 223.151C39.8098 220.989 45.9075 218.759 49.0314 216.89C55.0738 213.301 61.3887 210.193 67.9179 207.593C73.0471 202.696 84.4104 200.015 94.3618 199.204L100.828 187.608C103.263 178.694 108.399 165.741 108.399 165.741Z" fill="white"/>
<path opacity="0.4" d="M108.399 165.741C108.399 165.741 153.191 172.752 159.125 180.064C162.535 184.286 164.104 190.868 163.899 196.707C160.489 210.553 152.768 214.277 150.899 216.152C148.409 218.649 133.24 221.929 124.414 220.129C115.588 218.328 112.321 219.624 108.01 221.111C98.4613 224.405 93.3185 214.359 89.7035 213.322C86.0886 212.285 65.872 212.64 59.2968 217.162C55.7978 219.563 37.7639 225.749 33.0031 223.144C39.8238 220.981 45.9215 218.751 49.0453 216.882C55.0878 213.294 61.4027 210.185 67.9319 207.586C73.061 202.688 84.4243 200.008 94.3757 199.196L100.842 187.601C103.263 178.693 108.399 165.741 108.399 165.741Z" fill="#FB855E"/>
<path d="M105.248 218.615C105.248 218.615 108.12 221.056 108.12 223.212" stroke="#263238" stroke-linecap="round" stroke-linejoin="round"/>
<path d="M114.954 213.301C114.954 213.301 120.533 215.927 121.775 220.122" stroke="#263238" stroke-linecap="round" stroke-linejoin="round"/>
<path d="M147.652 217.967C147.652 217.967 145.087 212.026 140.77 211.084" stroke="#263238" stroke-linecap="round" stroke-linejoin="round"/>
<path d="M100.835 187.594C100.835 187.594 102.724 189.081 104.245 189.081" stroke="#263238" stroke-linecap="round" stroke-linejoin="round"/>
<path d="M0.999998 231.936C0.999998 231.936 39.3119 222.674 49.0586 216.862C55.1011 213.274 61.416 210.165 67.9452 207.566C73.0743 202.669 84.4444 199.988 94.3958 199.176L100.862 187.581C103.29 178.68 108.419 165.755 108.419 165.755C108.419 165.755 153.211 172.767 159.145 180.078C165.079 187.39 165.324 201.598 160.741 207.054C156.157 212.511 153.722 220.014 150.755 223.779C147.788 227.544 137.264 227.557 128.356 229.985C119.448 232.414 119.182 235.926 110.281 236.731C101.38 237.536 74.1315 240.783 66.5674 246.648C59.0032 252.514 53.076 252.651 45.3823 255.079C37.6885 257.507 9.86691 275.261 9.86691 275.261" stroke="#263238" stroke-linecap="round" stroke-linejoin="round"/>
<path d="M105.493 149.337L215.723 220.948L217.605 204.046L219.74 152.693L121.692 147.434L105.493 149.337Z" fill="#263238" stroke="#263238" stroke-linecap="round" stroke-linejoin="round"/>
<path d="M105.486 149.337L217.857 155.953L215.722 220.948L129.618 215.818L102.88 214.222L104.019 185.903L105.486 149.337Z" fill="#757575"/>
<path d="M204.918 165.679C204.918 161.309 201.376 157.767 197.006 157.767C192.637 157.767 189.094 161.309 189.094 165.679C189.094 170.048 192.637 173.591 197.006 173.591C201.376 173.591 204.918 170.048 204.918 165.679Z" fill="#BFBFBF" stroke="#263238" stroke-miterlimit="10"/>
<path d="M191.754 167.909L192.456 162.548" stroke="#263238" stroke-linecap="round" stroke-linejoin="round"/>
<path d="M193.057 169.348L193.841 161.293" stroke="#263238" stroke-linecap="round" stroke-linejoin="round"/>
<path d="M200.996 170.242L201.781 162.18" stroke="#263238" stroke-linecap="round" stroke-linejoin="round"/>
<path d="M194.85 166.715C194.905 166.494 194.873 166.26 194.76 166.062C194.647 165.864 194.461 165.717 194.243 165.651L194.304 165.051L199.999 165.658L199.904 166.552L195.559 166.088L195.484 166.77L194.85 166.715Z" fill="#263238"/>
<path d="M195.089 163.735C195.089 163.38 195.355 163.216 195.73 163.257L195.798 163.257L195.764 163.605L195.702 163.605C195.539 163.605 195.464 163.646 195.45 163.762C195.436 163.878 195.498 163.953 195.661 163.967C195.825 163.98 195.968 163.926 196.2 163.707C196.294 163.597 196.413 163.51 196.547 163.454C196.681 163.398 196.826 163.375 196.971 163.387C197.346 163.428 197.537 163.632 197.496 163.994C197.455 164.355 197.223 164.512 196.855 164.478L196.712 164.478L196.746 164.137L196.916 164.137C197.08 164.137 197.148 164.089 197.162 163.973C197.176 163.857 197.121 163.776 196.957 163.762C196.794 163.748 196.65 163.803 196.419 164.021C196.325 164.132 196.206 164.219 196.072 164.275C195.938 164.33 195.793 164.353 195.648 164.342C195.239 164.294 195.02 164.083 195.089 163.735Z" fill="#263238"/>
<path d="M195.185 163.094L195.301 161.962L195.635 162.003L195.594 162.384L197.586 162.596L197.551 162.957L195.553 162.746L195.512 163.128L195.185 163.094Z" fill="#263238"/>
<path d="M110.473 182.268L107.704 194.956C107.633 195.283 107.841 195.607 108.168 195.678L116.078 197.404C116.406 197.476 116.729 197.268 116.801 196.941L119.569 184.253C119.641 183.925 119.433 183.602 119.106 183.53L111.196 181.804C110.868 181.733 110.545 181.94 110.473 182.268Z" fill="white" stroke="#263238" stroke-linecap="round" stroke-linejoin="round"/>
<path d="M115.396 190.854C115.341 190.857 115.288 190.871 115.239 190.895C115.212 190.901 115.184 190.901 115.157 190.895C115.137 190.884 115.12 190.868 115.109 190.847C114.946 190.663 114.727 190.888 114.686 191.065C114.671 191.127 114.672 191.191 114.689 191.252C114.705 191.313 114.738 191.368 114.782 191.413L114.25 191.27L114.386 190.642L114.059 190.574L113.854 191.515C113.9 191.535 113.948 191.549 113.998 191.556C114.045 191.556 114.059 191.495 114.114 191.495C114.168 191.495 114.161 191.495 114.189 191.495C114.229 191.482 114.263 191.456 114.284 191.42C114.284 191.386 114.345 191.352 114.386 191.359C114.4 191.354 114.414 191.354 114.427 191.359C114.49 191.384 114.543 191.43 114.577 191.488C114.583 191.515 114.597 191.539 114.618 191.556L114.659 191.556C114.707 191.556 114.734 191.611 114.762 191.652C114.789 191.693 115.007 191.795 115.157 191.836L115.232 191.495L115.164 191.495C115 191.461 114.959 191.372 114.98 191.263C115 191.154 115.082 191.086 115.246 191.127L115.751 191.236C115.907 191.236 115.955 191.352 115.928 191.468C115.901 191.584 115.832 191.638 115.669 191.604L115.457 191.556L115.382 191.897L115.573 191.938C115.647 191.965 115.726 191.975 115.804 191.969C115.883 191.962 115.959 191.939 116.027 191.901C116.096 191.863 116.156 191.81 116.203 191.747C116.249 191.684 116.282 191.612 116.299 191.535C116.316 191.458 116.316 191.379 116.299 191.302C116.283 191.225 116.25 191.153 116.203 191.089C116.156 191.026 116.097 190.974 116.028 190.935C115.959 190.897 115.883 190.874 115.805 190.867C115.67 190.843 115.532 190.839 115.396 190.854Z" fill="#263238"/>
<path d="M116.351 186.4C116.297 186.406 116.244 186.42 116.194 186.441C116.167 186.448 116.139 186.448 116.112 186.441C116.091 186.431 116.075 186.414 116.064 186.393C115.901 186.216 115.682 186.441 115.641 186.612C115.626 186.673 115.627 186.737 115.644 186.798C115.66 186.859 115.692 186.915 115.737 186.959L115.205 186.816L115.341 186.189L115.014 186.121L114.809 187.062C114.854 187.085 114.902 187.099 114.952 187.103C115 187.103 115.014 187.048 115.068 187.041C115.123 187.034 115.116 187.041 115.143 187.041C115.183 187.029 115.217 187.002 115.239 186.966C115.239 186.932 115.3 186.898 115.341 186.905C115.382 186.912 115.341 186.905 115.382 186.905C115.447 186.931 115.5 186.979 115.532 187.041C115.539 187.065 115.554 187.087 115.573 187.103C115.573 187.103 115.573 187.103 115.614 187.103C115.655 187.103 115.689 187.15 115.716 187.191C115.744 187.232 115.962 187.335 116.112 187.376L116.187 187.034L116.119 187.034C115.955 187 115.914 186.912 115.935 186.803C115.955 186.693 116.037 186.632 116.201 186.666L116.705 186.775C116.862 186.775 116.91 186.891 116.883 187.007C116.855 187.123 116.787 187.178 116.624 187.144L116.412 187.096L116.337 187.437L116.528 187.478C116.6 187.498 116.675 187.504 116.749 187.494C116.823 187.485 116.894 187.46 116.958 187.422C117.022 187.384 117.078 187.333 117.122 187.272C117.165 187.211 117.196 187.142 117.212 187.07C117.228 186.997 117.228 186.921 117.214 186.848C117.2 186.775 117.17 186.705 117.128 186.644C117.086 186.582 117.031 186.53 116.968 186.491C116.904 186.451 116.834 186.425 116.76 186.414C116.625 186.387 116.487 186.382 116.351 186.4Z" fill="#263238"/>
<path d="M115.847 188.398L115.847 188.364C115.812 188.364 115.778 188.364 115.731 188.364L115.731 188.214L115.205 188.098C115.131 188.072 115.051 188.062 114.972 188.069C114.894 188.075 114.817 188.099 114.748 188.137C114.679 188.176 114.619 188.229 114.571 188.292C114.524 188.356 114.491 188.428 114.474 188.506C114.457 188.583 114.457 188.663 114.473 188.74C114.489 188.818 114.521 188.891 114.568 188.955C114.615 189.019 114.674 189.072 114.743 189.112C114.812 189.151 114.888 189.175 114.967 189.183L115.062 189.183C115.103 189.135 115.171 189.108 115.205 189.06C115.239 189.012 115.205 188.937 115.321 188.957C115.437 188.978 115.417 188.998 115.451 188.957C115.485 188.917 115.451 188.91 115.499 188.903C115.509 188.895 115.523 188.89 115.536 188.89C115.55 188.89 115.563 188.895 115.574 188.903C115.574 188.903 115.574 188.951 115.635 188.957C115.696 188.964 115.737 188.957 115.751 188.998C115.765 189.039 115.669 189.128 115.676 189.203C115.684 189.23 115.699 189.254 115.719 189.273C115.739 189.293 115.765 189.306 115.792 189.312C115.908 189.347 116.027 189.372 116.147 189.387C116.219 189.412 116.296 189.421 116.371 189.413C116.447 189.404 116.52 189.379 116.586 189.34C116.651 189.3 116.706 189.246 116.748 189.183C116.79 189.119 116.818 189.047 116.829 188.971C116.849 188.894 116.853 188.812 116.839 188.734C116.825 188.655 116.793 188.58 116.747 188.514C116.695 188.454 116.632 188.403 116.563 188.364C116.528 188.333 116.483 188.316 116.437 188.316C116.39 188.316 116.345 188.333 116.31 188.364L116.31 188.398L116.147 188.446C116.147 188.446 116.147 188.446 116.106 188.398C116.065 188.35 115.976 188.398 115.928 188.33C115.881 188.262 115.86 188.412 115.847 188.398ZM116.31 188.685C116.474 188.719 116.522 188.807 116.494 188.923C116.467 189.039 116.392 189.094 116.228 189.06L115.001 188.787C114.837 188.753 114.789 188.671 114.817 188.555C114.844 188.439 114.919 188.385 115.083 188.419L116.31 188.685Z" fill="#263238"/>
<path d="M116.692 187.791L117.04 187.866L116.965 188.214L116.617 188.139L116.692 187.791Z" fill="#263238"/>
<path d="M116.085 184.94C116.085 184.899 115.928 184.899 115.874 184.886C115.799 184.86 115.72 184.85 115.641 184.856C115.562 184.863 115.486 184.887 115.416 184.925C115.347 184.964 115.287 185.016 115.24 185.08C115.193 185.143 115.159 185.216 115.142 185.293C115.125 185.371 115.125 185.451 115.141 185.528C115.157 185.606 115.19 185.679 115.236 185.743C115.283 185.807 115.343 185.86 115.411 185.899C115.48 185.939 115.556 185.963 115.635 185.97L116.092 186.073C116.174 185.984 116.304 186.073 116.399 186.032C116.495 185.991 116.399 186.032 116.44 186.032C116.481 186.032 116.501 186.134 116.556 186.134C116.61 186.134 116.556 186.134 116.556 186.134C116.556 186.134 116.638 186.189 116.679 186.223C116.711 186.244 116.749 186.256 116.788 186.257C116.862 186.283 116.942 186.293 117.021 186.286C117.1 186.28 117.176 186.256 117.245 186.218C117.314 186.179 117.374 186.126 117.422 186.063C117.469 185.999 117.502 185.927 117.519 185.849C117.536 185.772 117.537 185.692 117.52 185.615C117.504 185.537 117.472 185.464 117.425 185.4C117.379 185.336 117.319 185.283 117.25 185.243C117.182 185.204 117.105 185.18 117.027 185.172L116.651 185.09C116.556 185.09 116.304 184.968 116.229 185.09C116.153 185.213 116.229 185.145 116.181 185.159C116.165 185.167 116.147 185.171 116.13 185.171C116.112 185.171 116.094 185.167 116.078 185.159C116.01 185.077 116.126 185.015 116.085 184.94ZM116.685 185.356C116.726 185.356 116.74 185.425 116.795 185.459C116.862 185.485 116.934 185.501 117.006 185.507C117.17 185.541 117.211 185.629 117.19 185.738C117.17 185.848 117.088 185.916 116.924 185.875C116.876 185.875 116.74 185.813 116.699 185.827C116.658 185.841 116.699 185.895 116.617 185.923C116.546 185.943 116.47 185.943 116.399 185.923C116.383 185.919 116.367 185.919 116.351 185.923C116.351 185.923 116.29 185.957 116.263 185.923C116.235 185.888 116.263 185.923 116.263 185.923C116.263 185.923 116.174 185.923 116.113 185.923C116.051 185.923 116.113 185.923 116.113 185.923C116.194 185.704 115.86 185.711 115.724 185.677C115.587 185.643 115.512 185.554 115.54 185.445C115.567 185.336 115.642 185.275 115.799 185.309C115.938 185.355 116.082 185.383 116.229 185.391C116.233 185.362 116.247 185.336 116.268 185.316C116.289 185.296 116.316 185.284 116.344 185.281C116.381 185.288 116.418 185.288 116.454 185.281C116.454 185.281 116.515 185.281 116.542 185.281C116.57 185.281 116.542 185.322 116.542 185.35C116.55 185.368 116.562 185.385 116.577 185.398C116.593 185.411 116.611 185.42 116.631 185.425L116.685 185.356Z" fill="#263238"/>
<path d="M111.127 188.753L111.631 186.448" stroke="#263238" stroke-linecap="round" stroke-linejoin="round"/>
<path d="M109.981 193.991L110.881 189.899" stroke="#263238" stroke-linecap="round" stroke-linejoin="round"/>
<path d="M111.563 194.333L112.149 191.632" stroke="#263238" stroke-linecap="round" stroke-linejoin="round"/>
<path opacity="0.4" d="M214.725 217.966C213.788 214.382 213.293 210.696 213.252 206.992C213.088 200.335 214.35 196.078 211.649 190.622C208.948 185.165 213.811 181.625 211.11 176.408C208.409 171.19 204.085 168.768 204.181 165.754C204.276 162.739 155.965 158.251 147.651 156.805C139.336 155.359 116.159 152.283 111.453 151.226L216.199 157.166L214.725 217.966Z" fill="white"/>
<path d="M194.114 217.68L214.351 201.044L213.259 218.614L194.114 217.68Z" fill="#FB855E" stroke="#263238" stroke-linecap="round" stroke-linejoin="round"/>
<path d="M154.096 173.53L161.797 173.796C162.871 173.833 163.928 174.081 164.906 174.526C165.885 174.972 166.766 175.606 167.499 176.392C168.233 177.178 168.804 178.1 169.181 179.107C169.558 180.114 169.732 181.186 169.695 182.26L169.415 190.172C169.379 191.25 169.129 192.309 168.682 193.29C168.234 194.271 167.597 195.153 166.807 195.887C166.018 196.621 165.091 197.192 164.08 197.566C163.069 197.941 161.994 198.112 160.917 198.07L150.89 197.716C148.722 197.639 146.672 196.705 145.192 195.117C143.712 193.53 142.923 191.42 142.999 189.251L143.272 181.339C143.272 181.121 143.272 180.903 143.319 180.657C144.384 181.764 145.804 182.463 147.331 182.632C148.858 182.801 150.395 182.43 151.677 181.582C152.958 180.735 153.902 179.465 154.344 177.994C154.786 176.523 154.698 174.943 154.096 173.53Z" fill="#FB855E" stroke="#263238" stroke-linecap="round" stroke-linejoin="round"/>
<path d="M147.446 172.104C148.186 172.129 148.903 172.373 149.505 172.805C150.106 173.236 150.567 173.837 150.827 174.531C151.087 175.224 151.136 175.979 150.967 176.7C150.798 177.422 150.419 178.076 149.878 178.582C149.337 179.088 148.658 179.422 147.927 179.542C147.196 179.662 146.446 179.562 145.772 179.256C145.098 178.949 144.529 178.45 144.139 177.82C143.749 177.191 143.554 176.46 143.579 175.719C143.614 174.728 144.041 173.791 144.766 173.113C145.491 172.436 146.455 172.073 147.446 172.104Z" fill="#FB855E" stroke="#263238" stroke-linecap="round" stroke-linejoin="round"/>
<path opacity="0.4" d="M161.872 195.819L151.927 184.19C151.927 184.19 146.6 185.663 144.916 184.19L144.916 189.776C144.911 191.121 145.421 192.417 146.34 193.4C147.259 194.382 148.518 194.977 149.861 195.062L161.872 195.819Z" fill="white"/>
<path opacity="0.4" d="M147.651 177.431L144.923 174.941C144.923 174.941 143.879 176.49 144.923 177.431C145.966 178.372 147.651 177.431 147.651 177.431Z" fill="white"/>
<path d="M207.066 178.645L207.878 159.895" stroke="#263238" stroke-linecap="round" stroke-linejoin="round"/>
<path d="M208.955 185.139L210.306 159.895" stroke="#263238" stroke-linecap="round" stroke-linejoin="round"/>
<path d="M214.35 166.504L214.35 159.895" stroke="#263238" stroke-linecap="round" stroke-linejoin="round"/>
<path opacity="0.2" d="M145.482 189.483C150.134 199.155 133.839 209.631 131.595 213.301C131.024 214.205 130.361 215.049 129.617 215.818L102.88 214.222L104.019 185.909C108.002 186.093 112.402 186.032 114.932 185.145C120.45 183.235 140.837 179.818 145.482 189.483Z" fill="black" fill-opacity="0.7"/>
<path opacity="0.4" d="M146.314 200.321C146.314 200.321 149.67 192.586 147.679 189.081C145.687 185.575 141.881 181.796 133.43 181.257C133.43 181.257 145.332 176.653 148.9 185.936C152.467 195.219 146.314 200.321 146.314 200.321Z" fill="white"/>
<path opacity="0.4" d="M151.076 203.336C151.076 203.336 155.291 187.649 147.665 180.937C147.665 180.937 151.901 181.837 153.122 189.081C154.343 196.324 151.076 203.336 151.076 203.336Z" fill="white"/>
<path opacity="0.4" d="M123.826 178.106C121.705 179.3 140.769 177.833 140.769 177.833C140.769 177.833 128.178 175.678 123.826 178.106Z" fill="white"/>
<path d="M105.486 149.337L217.857 155.953L215.722 220.948L129.618 215.818L102.88 214.222L104.019 185.903L105.486 149.337Z" stroke="#263238" stroke-linecap="round" stroke-linejoin="round"/>
<path opacity="0.4" d="M218.458 152.625L217.858 154.991L114.954 149.337L121.747 148.334L218.458 152.625Z" fill="white"/>
<path d="M145.483 189.483C145.958 190.378 146.214 191.372 146.229 192.385C146.245 193.398 146.019 194.4 145.571 195.308C144.746 196.88 143.442 198.149 141.847 198.93C136.991 201.624 125.928 208.915 122.749 210.259C119.571 211.603 110.581 214.577 106.809 217.544C103.037 220.511 97.3625 222.134 97.3625 222.134L42.3195 223.212C50.2792 221.595 59.3166 217.141 59.3166 217.141C61.3302 213.272 64.3034 209.984 67.9516 207.592C68.693 206.896 69.4992 206.273 70.3594 205.73C77.1801 201.324 89.4573 199.189 99.0063 198.957C109.803 198.684 114.694 195.179 124.1 189.511C133.505 183.843 143.389 185.8 145.483 189.483Z" fill="white"/>
<path opacity="0.4" d="M145.483 189.483C145.947 190.381 146.196 191.375 146.212 192.385C146.227 193.396 146.008 194.396 145.572 195.308C144.726 192.212 143.137 188.146 140.797 189.081C137.06 190.547 142.605 194.837 140.797 196.993C138.99 199.148 128.623 206.978 124.059 202.006C119.496 197.034 111.844 198.596 109.688 202.006C107.533 205.416 102.397 203.2 94.3144 202.122C89.424 201.44 78.3471 203.779 70.3533 205.703C77.174 201.297 89.4512 199.162 99.0002 198.93C109.797 198.657 114.688 195.151 124.094 189.483C133.499 183.815 143.519 185.8 145.483 189.483Z" fill="#FB855E"/>
<path d="M42.2858 223.212C50.2455 221.595 59.2829 217.141 59.2829 217.141C61.2965 213.272 64.2697 209.984 67.918 207.592C73.852 201.924 88.155 199.223 98.9453 198.957C109.736 198.691 114.633 195.179 124.039 189.511C133.444 183.843 143.253 185.418 145.483 189.511C147.045 192.362 146.704 196.256 141.848 198.957C136.991 201.658 125.928 208.943 122.75 210.286C119.571 211.63 110.581 214.604 106.81 217.571C103.038 220.538 97.3629 222.161 97.3629 222.161" stroke="#263238" stroke-linecap="round" stroke-linejoin="round"/>
<path d="M121.747 205.689C121.747 205.689 121.352 201.283 119.701 199.264" stroke="#263238" stroke-linecap="round" stroke-linejoin="round"/>
<path d="M98.4468 223.75C98.4468 223.75 100.493 224.61 102.539 220.108" stroke="#263238" stroke-linecap="round" stroke-linejoin="round"/>
</svg>
