<svg width="118" height="114" viewBox="0 0 118 114" fill="none" xmlns="http://www.w3.org/2000/svg">
<path d="M28.4382 11.3125H4.54004V43.4051H28.4382V11.3125Z" stroke="#676F74" stroke-width="0.5" stroke-linecap="round" stroke-linejoin="round"/>
<path d="M26.149 14.3843H6.82715V40.3305H26.149V14.3843Z" stroke="#676F74" stroke-width="0.5" stroke-linecap="round" stroke-linejoin="round"/>
<path d="M47.938 30.5176H31.4419V52.6701H47.938V30.5176Z" stroke="#676F74" stroke-width="0.5" stroke-linecap="round" stroke-linejoin="round"/>
<path d="M46.3583 32.6387H33.022V50.5489H46.3583V32.6387Z" stroke="#676F74" stroke-width="0.5" stroke-linecap="round" stroke-linejoin="round"/>
<path d="M98.7187 6.35107H99.6257C103.635 6.35107 107.48 7.94367 110.314 10.7785C113.149 13.6133 114.742 17.4582 114.742 21.4673V77.9042H83.6025V21.4673C83.6025 17.4582 85.1951 13.6133 88.03 10.7785C90.8648 7.94367 94.7097 6.35107 98.7187 6.35107V6.35107Z" stroke="#676F74" stroke-width="0.5" stroke-linecap="round" stroke-linejoin="round"/>
<path d="M87.1182 77.7361V22.4304C87.1182 19.2341 88.3879 16.1688 90.648 13.9087C92.9081 11.6486 95.9734 10.3789 99.1697 10.3789V10.3789C100.752 10.3789 102.319 10.6906 103.781 11.2963C105.243 11.902 106.572 12.7897 107.69 13.9089C108.809 15.028 109.697 16.3565 110.302 17.8187C110.908 19.2808 111.219 20.8479 111.219 22.4304V77.7361" stroke="#676F74" stroke-width="0.5" stroke-linecap="round" stroke-linejoin="round"/>
<path d="M99.1699 6.35107V77.8189" stroke="#676F74" stroke-width="0.5" stroke-linecap="round" stroke-linejoin="round"/>
<path d="M83.771 20.1191H114.525" stroke="#676F74" stroke-width="0.5" stroke-linecap="round" stroke-linejoin="round"/>
<path d="M102.313 27.4209L101.669 27.9085" stroke="#676F74" stroke-width="0.5" stroke-linecap="round" stroke-linejoin="round"/>
<path d="M110.382 21.2871L103.602 26.4412" stroke="#676F74" stroke-width="0.5" stroke-linecap="round" stroke-linejoin="round"/>
<path d="M107.42 25.2949L103.761 28.0841" stroke="#676F74" stroke-width="0.5" stroke-linecap="round" stroke-linejoin="round"/>
<path d="M95.6686 52.187L89.644 57.1851" stroke="#676F74" stroke-width="0.5" stroke-linecap="round" stroke-linejoin="round"/>
<path d="M97.836 50.3901L96.7876 51.2581" stroke="#676F74" stroke-width="0.5" stroke-linecap="round" stroke-linejoin="round"/>
<path d="M92.4335 53.1772L88.4253 56.3151" stroke="#676F74" stroke-width="0.5" stroke-linecap="round" stroke-linejoin="round"/>
<path d="M103.171 65.7773L102.366 66.421" stroke="#676F74" stroke-width="0.5" stroke-linecap="round" stroke-linejoin="round"/>
<path d="M109.337 60.8447L104.451 64.753" stroke="#676F74" stroke-width="0.5" stroke-linecap="round" stroke-linejoin="round"/>
<path d="M106.548 64.853L104.283 66.5963" stroke="#676F74" stroke-width="0.5" stroke-linecap="round" stroke-linejoin="round"/>
<path d="M83.771 29.8252H114.525" stroke="#676F74" stroke-width="0.5" stroke-linecap="round" stroke-linejoin="round"/>
<path d="M83.771 39.5337H114.525" stroke="#676F74" stroke-width="0.5" stroke-linecap="round" stroke-linejoin="round"/>
<path d="M83.771 49.2422H114.525" stroke="#676F74" stroke-width="0.5" stroke-linecap="round" stroke-linejoin="round"/>
<path d="M83.771 58.9482H114.525" stroke="#676F74" stroke-width="0.5" stroke-linecap="round" stroke-linejoin="round"/>
<path d="M83.771 68.6567H114.525" stroke="#676F74" stroke-width="0.5" stroke-linecap="round" stroke-linejoin="round"/>
<path d="M87.8838 11.2104L90.673 13.7509" stroke="#676F74" stroke-width="0.5" stroke-linecap="round" stroke-linejoin="round"/>
<path d="M110.338 11.2104L107.549 13.7509" stroke="#676F74" stroke-width="0.5" stroke-linecap="round" stroke-linejoin="round"/>
<path d="M1 59.3066H83.605" stroke="#676F74" stroke-width="0.5" stroke-linecap="round" stroke-linejoin="round"/>
<path d="M1 60.7622H83.605" stroke="#676F74" stroke-width="0.5" stroke-linecap="round" stroke-linejoin="round"/>
<path d="M1 105.379H116.936" stroke="#676F74" stroke-width="0.5" stroke-linecap="round" stroke-linejoin="round"/>
<path d="M25.02 60.7085V105.326" stroke="#676F74" stroke-width="0.5" stroke-linecap="round" stroke-linejoin="round"/>
<path d="M51.1079 60.7085V105.326" stroke="#676F74" stroke-width="0.5" stroke-linecap="round" stroke-linejoin="round"/>
<path d="M77.1953 60.7085V105.326" stroke="#676F74" stroke-width="0.5" stroke-linecap="round" stroke-linejoin="round"/>
<path d="M103.283 79.9692V105.325" stroke="#676F74" stroke-width="0.5" stroke-linecap="round" stroke-linejoin="round"/>
<path d="M115.717 77.9385H82.8027V79.9694H115.717V77.9385Z" stroke="#676F74" stroke-width="0.5" stroke-linecap="round" stroke-linejoin="round"/>
<path d="M1 112.884H117.18" stroke="#263238" stroke-width="0.5" stroke-linecap="round" stroke-linejoin="round"/>
<path d="M17.3697 53.7356C17.3697 53.7356 17.3697 52.3727 15.4631 50.4661C13.5565 48.5596 12.3423 47.4697 12.3423 47.4697C12.3423 47.4697 11.3671 50.6027 13.1469 52.5093C14.4495 53.8512 15.862 55.0818 17.3697 56.1883V53.7356Z" fill="#FB855E"/>
<path d="M14.6025 62.242C14.6025 62.242 14.6025 60.8791 12.6934 58.9725C10.7844 57.0659 9.56048 55.9761 9.56048 55.9761C9.56048 55.9761 8.60718 59.109 10.3919 61.0156C11.6945 62.3575 13.107 63.5882 14.6146 64.6947L14.6025 62.242Z" fill="#FB855E"/>
<path d="M17.2501 56.0567C17.2501 56.0567 17.394 54.7011 19.4907 53.0067C21.5875 51.3122 22.9236 50.3564 22.9236 50.3564C22.9236 50.3564 23.5404 53.5723 21.5777 55.2838C20.1405 56.4803 18.6057 57.5544 16.9893 58.4948L17.2501 56.0567Z" fill="#FB855E"/>
<path d="M13.9051 66.1015C13.9051 66.1015 14.1903 64.7703 16.4553 63.305C18.7203 61.8397 20.1441 61.0303 20.1441 61.0303C20.1441 61.0303 20.4197 64.2949 18.2888 65.787C16.7357 66.8297 15.098 67.7407 13.3931 68.5103L13.9051 66.1015Z" fill="#FB855E"/>
<path d="M14.5366 77.0559C14.5366 77.0559 14.5366 75.693 16.4432 73.7865C18.3498 71.8799 19.5762 70.79 19.5762 70.79C19.5762 70.79 20.527 73.923 18.757 75.8247C17.4553 77.1682 16.0436 78.4005 14.5366 79.5087V77.0559Z" fill="#FB855E"/>
<path d="M14.5025 79.7259C14.5025 79.7259 14.6951 78.3777 13.0787 76.2175C11.4622 74.0574 10.3968 72.8042 10.3968 72.8042C10.3968 72.8042 9.00704 75.7689 10.4894 77.9096C11.5884 79.4221 12.8117 80.8403 14.1465 82.1494L14.5025 79.7259Z" fill="#FB855E"/>
<path d="M12.6226 87.6521C12.6226 87.6521 12.6226 86.2917 14.5291 84.3851C16.4357 82.4785 17.6621 81.3887 17.6621 81.3887C17.6621 81.3887 18.6154 84.5216 16.8453 86.4282C15.5424 87.7691 14.1299 88.9989 12.6226 90.1049V87.6521Z" fill="#FB855E"/>
<path d="M13.8953 94.8421C13.8953 94.8421 13.549 93.5255 14.9119 91.1849C16.2748 88.8444 17.1842 87.4912 17.1842 87.4912C17.1842 87.4912 18.8909 90.2804 17.6719 92.5746C16.7528 94.2044 15.6983 95.754 14.5194 97.207L13.8953 94.8421Z" fill="#FB855E"/>
<path d="M17.5428 53.3945C17.4458 54.8131 17.2708 56.2253 17.0186 57.6246C16.2653 61.5256 14.3806 64.0319 13.6272 67.5501C12.8739 71.0683 15.0365 75.5958 14.4586 80.1185C13.8808 84.6411 12.1205 87.1475 12.6227 90.1634C13.125 93.1793 15.7557 101.34 15.7557 101.34" stroke="#263238" stroke-width="0.5" stroke-linecap="round" stroke-linejoin="round"/>
<path d="M17.2305 56.9612L19.2858 55.3838" stroke="#263238" stroke-width="0.5" stroke-linecap="round" stroke-linejoin="round"/>
<path d="M17.3255 55.1449L16.4648 53.6162" stroke="#263238" stroke-width="0.5" stroke-linecap="round" stroke-linejoin="round"/>
<path d="M13.7417 67.3793C13.7417 67.3793 15.463 66.0896 17.2306 64.7998" stroke="#263238" stroke-width="0.5" stroke-linecap="round" stroke-linejoin="round"/>
<path d="M14.6023 64.6948C14.6023 64.6948 13.1687 61.8837 11.5425 60.0186" stroke="#263238" stroke-width="0.5" stroke-linecap="round" stroke-linejoin="round"/>
<path d="M14.6025 78.9943C15.5847 77.1844 16.8239 75.5263 18.2816 74.0718" stroke="#263238" stroke-width="0.5" stroke-linecap="round" stroke-linejoin="round"/>
<path d="M14.2659 80.906C13.7448 79.6769 13.1217 78.4935 12.4032 77.3683C11.3987 75.8884 11.2549 75.6958 11.2549 75.6958" stroke="#263238" stroke-width="0.5" stroke-linecap="round" stroke-linejoin="round"/>
<path d="M12.6226 90.1557C13.0573 89.0732 13.5749 88.0257 14.1707 87.0228C14.7671 86.093 15.439 85.2139 16.1797 84.3945" stroke="#263238" stroke-width="0.5" stroke-linecap="round" stroke-linejoin="round"/>
<path d="M14.5169 97.2093C14.5169 97.2093 14.3146 95.5734 15.0241 94.191C15.7335 92.8086 16.5527 90.9897 16.8892 90.2729" stroke="#263238" stroke-width="0.5" stroke-linecap="round" stroke-linejoin="round"/>
<path d="M4.88148 71.9241C4.88148 71.9241 4.73275 71.0683 5.72262 69.6664C6.71248 68.2645 7.36102 67.4478 7.36102 67.4478C7.36102 67.4478 8.29968 69.308 7.39515 70.6953C6.72511 71.6786 5.97313 72.6035 5.14723 73.4601L4.88148 71.9241Z" fill="#FB855E"/>
<path d="M7.53938 76.968C7.53938 76.968 7.3931 76.1123 8.38052 74.7104C9.36795 73.3085 10.0214 72.4917 10.0214 72.4917C10.0214 72.4917 10.9576 74.352 10.0555 75.7392C9.38472 76.7228 8.63279 77.6484 7.80757 78.5065L7.53938 76.968Z" fill="#FB855E"/>
<path d="M5.2083 73.3866C5.2083 73.3866 4.96449 72.5528 3.47238 71.719C1.98027 70.8851 1.03429 70.4292 1.03429 70.4292C1.03429 70.4292 0.995276 72.5138 2.41181 73.372C3.44309 73.9661 4.52201 74.4733 5.63741 74.8885L5.2083 73.3866Z" fill="#FB855E"/>
<path d="M8.39481 79.311C8.39481 79.311 8.07055 78.5065 6.4931 77.8336C4.91565 77.1606 3.93066 76.7998 3.93066 76.7998C3.93066 76.7998 4.11352 78.8771 5.61051 79.5817C6.69843 80.0639 7.82467 80.4545 8.97752 80.7495L8.39481 79.311Z" fill="#FB855E"/>
<path d="M9.18958 86.2503C9.18958 86.2503 9.0433 85.3945 7.63896 84.4071C6.23461 83.4197 5.34959 82.8662 5.34959 82.8662C5.34959 82.8662 5.09115 84.9362 6.41016 85.9382C7.37164 86.6385 8.39028 87.2567 9.45534 87.7863L9.18958 86.2503Z" fill="#FB855E"/>
<path d="M9.49936 87.9227C9.49936 87.9227 9.23361 87.0986 10.0114 85.5675C10.7891 84.0364 11.3206 83.1294 11.3206 83.1294C11.3206 83.1294 12.5128 84.8361 11.8082 86.3404C11.2834 87.4081 10.6701 88.4299 9.97479 89.3953L9.49936 87.9227Z" fill="#FB855E"/>
<path d="M11.8938 94.8125C11.8938 94.8125 11.9938 93.9518 13.3371 92.884C14.6805 91.8161 15.5314 91.2163 15.5314 91.2163C15.5314 91.2163 15.9069 93.2667 14.6488 94.3444C13.7271 95.0974 12.7444 95.7727 11.7109 96.3631L11.8938 94.8125Z" fill="#FB855E"/>
<path d="M11.5402 92.6868C11.5402 92.6868 11.3915 91.8335 9.98961 90.8436C8.58771 89.8537 7.70999 89.3052 7.70999 89.3052C7.70999 89.3052 7.45155 91.3727 8.76813 92.3772C9.73132 93.0761 10.7507 93.6943 11.8157 94.2252L11.5402 92.6868Z" fill="#FB855E"/>
<path d="M11.5205 97.3287C11.5205 97.3287 11.5937 96.4656 10.4868 95.1539C9.37988 93.8422 8.66308 93.0864 8.66308 93.0864C8.66308 93.0864 7.8902 95.0198 8.90689 96.3242C9.66034 97.2454 10.4898 98.1017 11.3864 98.8842L11.5205 97.3287Z" fill="#FB855E"/>
<path d="M4.73535 71.7339C4.94792 72.6122 5.20837 73.4782 5.51554 74.328C6.41276 76.6881 7.86586 78.0607 8.72163 80.1794C9.5774 82.2981 8.72163 85.3799 9.56521 88.152C10.4088 90.9241 11.7936 92.2968 11.8058 94.2472C11.818 96.1977 11.05 101.601 11.05 101.601" stroke="#263238" stroke-width="0.5" stroke-linecap="round" stroke-linejoin="round"/>
<path d="M5.31833 73.9404L3.85791 73.1748" stroke="#263238" stroke-width="0.5" stroke-linecap="round" stroke-linejoin="round"/>
<path d="M5.06201 72.8111L5.43504 71.7603" stroke="#263238" stroke-width="0.5" stroke-linecap="round" stroke-linejoin="round"/>
<path d="M8.63629 80.0965C8.63629 80.0965 7.41725 79.4723 6.16895 78.8555" stroke="#263238" stroke-width="0.5" stroke-linecap="round" stroke-linejoin="round"/>
<path d="M7.80713 78.5068C8.16398 77.374 8.63619 76.2809 9.21635 75.2446" stroke="#263238" stroke-width="0.5" stroke-linecap="round" stroke-linejoin="round"/>
<path d="M9.35795 87.4715C8.54568 86.4441 7.58801 85.5406 6.51514 84.7896" stroke="#263238" stroke-width="0.5" stroke-linecap="round" stroke-linejoin="round"/>
<path d="M9.7749 88.6348C9.96929 87.8075 10.2319 86.9977 10.56 86.2137C11.0281 85.1751 11.0988 85.041 11.0988 85.041" stroke="#263238" stroke-width="0.5" stroke-linecap="round" stroke-linejoin="round"/>
<path d="M11.7451 95.7319C11.7451 95.7319 12.7204 94.547 13.3152 94.1033C13.6785 93.8356 14.0193 93.5388 14.3344 93.2158" stroke="#263238" stroke-width="0.5" stroke-linecap="round" stroke-linejoin="round"/>
<path d="M11.8106 94.2568C11.42 93.6252 10.9815 93.0245 10.4989 92.46C10.0244 91.9416 9.5082 91.4629 8.95557 91.0288" stroke="#263238" stroke-width="0.5" stroke-linecap="round" stroke-linejoin="round"/>
<path d="M11.389 98.8841C11.3388 98.2252 11.1141 97.5916 10.7381 97.0482C10.1383 96.2583 9.43125 95.2074 9.14355 94.793" stroke="#263238" stroke-width="0.5" stroke-linecap="round" stroke-linejoin="round"/>
<path d="M18.5227 105.738C18.5557 103.931 18.0041 102.161 16.9501 100.693H9.63586C8.58483 102.161 8.03429 103.928 8.06573 105.733C8.06573 108.742 9.46276 111.306 11.4279 112.316V112.884H15.2264V112.325H15.1581C17.1257 111.311 18.5227 108.739 18.5227 105.738Z" fill="#263238" stroke="#263238" stroke-width="0.5" stroke-linecap="round" stroke-linejoin="round"/>
<path d="M53.3093 41.3354H44.8101V44.4586H53.3093V41.3354Z" fill="#545454"/>
<path d="M53.3119 41.3354H45.3003V44.4586H53.3119V41.3354Z" fill="#263238"/>
<path d="M53.3119 41.3354H45.3003V42.0596H53.3119V41.3354Z" fill="#545454"/>
<path d="M49.4668 44.1538H46.2632L71.0708 112.884H74.2744L49.4668 44.1538Z" fill="#545454"/>
<path d="M50.0474 44.1538H46.8438L71.6514 112.884H74.855L50.0474 44.1538Z" fill="#263238"/>
<path d="M75.2546 104.221H69.2861V105.491H75.2546V104.221Z" fill="white" stroke="#263238" stroke-width="0.5" stroke-miterlimit="10"/>
<path d="M70.381 90.7847H64.4126V92.0549H70.381V90.7847Z" fill="white" stroke="#263238" stroke-width="0.5" stroke-miterlimit="10"/>
<path d="M65.507 77.3511H59.5386V78.6213H65.507V77.3511Z" fill="white" stroke="#263238" stroke-width="0.5" stroke-miterlimit="10"/>
<path d="M60.6335 63.9146H54.665V65.1848H60.6335V63.9146Z" fill="white" stroke="#263238" stroke-width="0.5" stroke-miterlimit="10"/>
<path d="M55.7595 50.478H49.791V51.7483H55.7595V50.478Z" fill="white" stroke="#263238" stroke-width="0.5" stroke-miterlimit="10"/>
<path d="M56.0156 55.7665L60.1872 52.8262L61.6354 42.0449C61.6354 42.0449 57.2907 51.2 56.7154 52.3044C56.14 53.4089 56.0156 55.7665 56.0156 55.7665Z" fill="#263238" stroke="#263238" stroke-width="0.5" stroke-miterlimit="10"/>
<path d="M65.4704 85.7378C65.4704 85.7378 64.5245 87.225 62.14 87.3445C60.9795 87.403 60.5747 87.6931 60.5162 88.388C60.4577 89.0829 61.038 89.49 62.2546 89.8947C63.4712 90.2995 65.6167 90.5896 66.6602 90.6481C67.7037 90.7066 69.208 91.0553 69.3836 90.3019C69.5591 89.5485 69.9053 87.6931 69.9053 87.52C69.9053 87.3469 65.4704 85.7378 65.4704 85.7378Z" fill="#263238" stroke="#263238" stroke-width="0.5" stroke-miterlimit="10"/>
<path d="M60.1456 50.4517C59.8408 54.2258 59.4922 59.1703 59.4922 62.0399C59.4922 67.1404 61.3476 71.7191 62.0424 73.399C62.7373 75.0788 63.9368 78.5946 63.9929 78.8262C64.049 79.0578 64.6317 82.3029 64.8633 83.1148C65.0949 83.9267 65.2095 84.5069 65.2095 84.5069C65.2095 84.5069 64.5732 85.726 64.5732 86.2453C64.5732 86.7646 65.2875 86.0186 65.2875 86.0186C66.2544 86.369 67.2421 86.6589 68.2449 86.8865C69.8078 87.2352 70.1954 88.2397 70.1954 88.2397C70.1954 88.2397 70.3003 87.1133 70.4173 82.1883C70.5343 77.2634 67.6062 67.5354 67.6062 66.0384C67.6062 64.5414 68.7057 51.4927 68.7057 51.4927C68.7057 51.4927 62.6227 51.5512 60.7673 50.6833L60.1456 50.4517Z" fill="#5C5C5C" stroke="#263238" stroke-width="0.5" stroke-miterlimit="10"/>
<path d="M69.0352 86.8814C69.0352 86.8814 67.5284 87.8567 67.0652 88.1005C66.602 88.3443 64.6271 88.7393 64.4564 89.2025C64.2858 89.6657 64.5735 90.4776 64.5735 90.4776C64.5735 90.4776 68.4549 91.231 70.2518 91.3456C72.0487 91.4602 74.4819 91.6357 74.772 91.3456C75.0621 91.0555 75.0036 87.9859 75.0036 87.9859C75.0036 87.9859 69.9617 86.4767 69.0352 86.8814Z" fill="#263238" stroke="#263238" stroke-width="0.5" stroke-miterlimit="10"/>
<path d="M65.0049 57.6367C65.0049 57.6367 65.7583 66.9673 66.2239 68.5887C66.6896 70.21 69.2764 79.0018 69.3935 80.1013C69.5058 81.0437 69.5441 81.9934 69.508 82.9417C69.452 83.2879 69.1618 83.6951 69.1033 84.563C69.0448 85.431 69.0448 86.8817 69.0448 86.8817C69.7383 86.9961 70.3945 87.2744 70.9587 87.6936C71.8852 88.3884 73.3968 88.5615 74.1453 88.4469C74.8938 88.3323 75.0133 88.3884 75.0133 87.9837V86.4769C75.0133 85.3749 74.8987 84.3899 75.0133 82.3614C75.1278 80.333 74.3964 74.0354 74.038 72.1824C73.6796 70.3295 72.5898 67.8353 72.5313 67.0819C72.4728 66.3286 73.7503 60.3016 73.7503 58.3316C73.7503 56.3616 73.4041 51.7268 73.4041 51.7268L65.9289 51.5513" fill="#5C5C5C"/>
<path d="M65.0049 57.6367C65.0049 57.6367 65.7583 66.9673 66.2239 68.5887C66.6896 70.21 69.2764 79.0018 69.3935 80.1013C69.5058 81.0437 69.5441 81.9934 69.508 82.9417C69.452 83.2879 69.1618 83.6951 69.1033 84.563C69.0448 85.431 69.0448 86.8817 69.0448 86.8817C69.7383 86.9961 70.3945 87.2745 70.9587 87.6936C71.8852 88.3884 73.3968 88.5615 74.1453 88.4469C74.8938 88.3323 75.0133 88.3884 75.0133 87.9837V86.4769C75.0133 85.3749 74.8987 84.3899 75.0133 82.3614C75.1278 80.333 74.3964 74.0354 74.038 72.1824C73.6796 70.3295 72.5898 67.8353 72.5313 67.0819C72.4728 66.3286 73.7503 60.3016 73.7503 58.3316C73.7503 56.3616 73.4041 51.7268 73.4041 51.7268L65.9289 51.5513" stroke="#263238" stroke-width="0.5" stroke-miterlimit="10"/>
<path d="M66.9871 30.3179L65.3828 30.391C65.3828 30.391 62.1767 35.4915 61.5916 38.9902C61.0064 42.4888 59.9897 51.5366 59.9897 51.5366C59.9897 51.5366 61.8866 52.1924 65.7485 52.268C69.6105 52.3436 73.3286 52.1217 73.3286 52.1217C73.3286 52.1217 75.2205 42.1987 75.8764 38.0442C76.5322 33.8897 75.3668 32.9437 74.199 31.9221C73.4609 31.2949 72.5882 30.8461 71.6487 30.6104L66.9871 30.3179Z" fill="#263238" stroke="#263238" stroke-width="0.5" stroke-miterlimit="10"/>
<path d="M60.1287 49.7856C61.7972 50.3577 63.5418 50.6774 65.3048 50.7341C68.1451 50.8072 73.5406 50.5878 73.5406 50.5878V52.5553L70.6149 52.7016C70.6149 52.7016 70.6149 58.4604 70.5418 58.6774C70.4686 58.8944 70.905 59.1162 68.0647 59.1162C65.2243 59.1162 62.5253 58.6067 62.379 58.0215C62.2328 57.4364 62.8667 52.4968 62.8667 52.4968L59.9629 51.5362L60.1287 49.7856Z" fill="white" stroke="#263238" stroke-width="0.5" stroke-miterlimit="10"/>
<path d="M65.2658 52.0069L63.9907 51.985L64.0346 49.4055C64.0384 49.2363 64.109 49.0754 64.231 48.958C64.3529 48.8407 64.5163 48.7763 64.6856 48.7789C64.8544 48.7827 65.0148 48.853 65.1321 48.9744C65.2495 49.0958 65.3141 49.2586 65.3122 49.4274L65.2658 52.0069Z" fill="white" stroke="#263238" stroke-width="0.5" stroke-miterlimit="10"/>
<path d="M64.6561 51.9409L64.5806 56.1564" stroke="#263238" stroke-width="0.5" stroke-miterlimit="10"/>
<path d="M65.4335 51.9002L63.7686 51.8706L63.7587 52.4264L65.4236 52.456L65.4335 51.9002Z" fill="white" stroke="#263238" stroke-width="0.5" stroke-miterlimit="10"/>
<path d="M64.5976 51.5875C64.5635 51.5892 64.5295 51.5838 64.4976 51.5715C64.4658 51.5593 64.4368 51.5405 64.4127 51.5164C64.3886 51.4922 64.3698 51.4633 64.3575 51.4315C64.3453 51.3996 64.3399 51.3655 64.3416 51.3315V49.4931C64.3416 49.4601 64.3483 49.4273 64.3613 49.3969C64.3743 49.3665 64.3933 49.3391 64.4173 49.3163C64.4412 49.2935 64.4696 49.2758 64.5006 49.2643C64.5316 49.2528 64.5646 49.2477 64.5976 49.2493C64.6307 49.2477 64.6637 49.2528 64.6947 49.2643C64.7257 49.2758 64.754 49.2935 64.778 49.3163C64.8019 49.3391 64.821 49.3665 64.834 49.3969C64.847 49.4273 64.8537 49.4601 64.8536 49.4931V51.3217C64.8568 51.3566 64.8525 51.3917 64.8409 51.4248C64.8293 51.4578 64.8107 51.4879 64.7864 51.5132C64.7621 51.5384 64.7327 51.5581 64.7001 51.5709C64.6675 51.5837 64.6326 51.5894 64.5976 51.5875Z" fill="white" stroke="#263238" stroke-width="0.5" stroke-miterlimit="10"/>
<path d="M67.9572 52.6041L66.6797 52.5797L66.726 50.0027C66.7273 49.9189 66.7451 49.8362 66.7784 49.7593C66.8117 49.6824 66.8599 49.6129 66.9201 49.5547C66.9804 49.4965 67.0515 49.4507 67.1295 49.4201C67.2075 49.3894 67.2908 49.3745 67.3745 49.3761C67.4584 49.377 67.5413 49.3946 67.6183 49.4278C67.6953 49.461 67.765 49.5092 67.8233 49.5695C67.8816 49.6298 67.9273 49.7011 67.9578 49.7792C67.9884 49.8574 68.0031 49.9408 68.0011 50.0246L67.9572 52.6041Z" fill="white" stroke="#263238" stroke-width="0.5" stroke-miterlimit="10"/>
<path d="M67.348 52.5386L67.2725 56.754" stroke="#263238" stroke-width="0.5" stroke-miterlimit="10"/>
<path d="M68.0148 52.6593L66.3496 52.626L66.3385 53.1819L68.0037 53.2152L68.0148 52.6593Z" fill="white" stroke="#263238" stroke-width="0.5" stroke-miterlimit="10"/>
<path d="M67.2897 52.175C67.2211 52.175 67.1554 52.1478 67.1069 52.0993C67.0585 52.0509 67.0312 51.9851 67.0312 51.9166V50.0905C67.0312 50.0565 67.0379 50.0229 67.0509 49.9916C67.0639 49.9602 67.0829 49.9317 67.1069 49.9077C67.1309 49.8837 67.1594 49.8647 67.1908 49.8517C67.2221 49.8387 67.2557 49.832 67.2897 49.832C67.3578 49.8327 67.4229 49.8602 67.4709 49.9086C67.5188 49.957 67.5457 50.0223 67.5457 50.0905V51.9312C67.542 51.9968 67.5134 52.0585 67.4659 52.1038C67.4184 52.149 67.3553 52.1745 67.2897 52.175Z" fill="white" stroke="#263238" stroke-width="0.5" stroke-miterlimit="10"/>
<path d="M63.1131 52.9312C63.9674 53.1603 64.8559 53.2346 65.7365 53.1506L65.5097 58.7582C65.5097 58.7582 63.6251 59.158 62.5962 57.9L63.1131 52.9312Z" fill="white" stroke="#263238" stroke-width="0.5" stroke-miterlimit="10"/>
<path d="M65.7365 53.1504C65.7365 53.1504 66.88 53.7233 69.1645 53.3796L69.4497 58.9189C69.4497 58.9189 67.1652 59.7186 65.5098 58.7483L65.7365 53.1504Z" fill="white" stroke="#263238" stroke-width="0.5" stroke-miterlimit="10"/>
<path d="M60.797 38.1734C60.797 38.1734 56.1378 38.2831 55.5258 38.0613C54.9138 37.8394 55.1942 36.674 55.638 34.0677C56.0817 31.4613 58.8538 22.416 58.8538 22.416C58.8538 22.416 57.9127 21.4188 57.8566 20.863C57.8005 20.3071 58.3004 18.2566 58.3004 18.2566C58.3004 18.2566 57.3007 18.7004 57.0252 18.4224C56.7497 18.1445 57.8566 17.0912 57.8566 17.0912C57.8566 17.0912 58.9099 16.7572 59.6316 17.257C60.3532 17.7568 61.0749 18.5882 61.1846 19.6439C61.2943 20.6996 60.9628 22.9719 60.6848 24.6371C60.4069 26.3023 59.9095 32.2367 59.9095 32.2367C59.9095 32.2367 62.4061 30.6275 63.1814 30.2862C64.2648 29.8205 65.4617 29.6856 66.6216 29.8985C66.6216 29.8985 65.678 34.0604 65.1807 35.5061C64.6833 36.9519 61.5625 43.6689 60.2874 46.6092C59.0123 49.5496 56.0159 55.7643 56.0159 55.7643C56.0159 55.7643 55.5721 53.3262 56.9033 49.8275C58.2345 46.3288 60.797 38.1734 60.797 38.1734Z" fill="#B2B2B2" stroke="#263238" stroke-width="0.5" stroke-miterlimit="10"/>
<path d="M58.3321 23.2104L61.1725 23.6152L60.7678 25.295L58.042 24.7733L58.3321 23.2104Z" fill="white" stroke="#263238" stroke-width="0.5" stroke-miterlimit="10"/>
<path d="M57.8686 24.2544L61.2819 24.8907L60.3067 31.6126C60.3067 31.6126 62.5009 30.3935 63.5518 30.0473C64.6026 29.7011 66.2775 30.0473 66.2775 30.0473C66.2775 30.0473 66.7018 30.5179 66.1995 31.754C65.6973 32.9901 64.2491 37.8053 63.5518 39.5559C62.8545 41.3064 55.7889 56.5372 55.7889 56.5372C55.7889 56.5372 55.4987 54.0455 56.1375 52.0755C56.7763 50.1055 60.4237 38.1637 60.4237 38.1637C60.4237 38.1637 55.962 38.4538 55.4402 38.2807C54.9185 38.1076 54.977 36.2522 55.0331 35.789C55.0891 35.3258 57.8686 24.2544 57.8686 24.2544Z" fill="#FB855E" stroke="#263238" stroke-width="0.5" stroke-miterlimit="10"/>
<path d="M60.4508 44.2856L66.273 30.0472L65.0832 29.9106L59.4951 43.9102L58.8319 43.6907C58.7198 44.0394 58.5199 44.6075 58.4028 44.9707L59.0026 45.3925L60.2875 46.6116C60.563 46.0386 61.0457 45.0731 61.3017 44.5416L60.4508 44.2856Z" fill="white" stroke="#263238" stroke-width="0.5" stroke-miterlimit="10"/>
<path d="M65.8557 19.6534C65.8557 19.6534 66.9821 17.2323 68.2207 16.6131C69.4592 15.9938 71.712 16.8934 71.712 16.8934C71.712 16.8934 74.6963 18.1881 75.4886 20.2166C76.281 22.245 74.8694 25.9607 74.8694 25.9607L65.6875 20.0483L65.8557 19.6534Z" fill="white" stroke="#263238" stroke-width="0.5" stroke-miterlimit="10"/>
<path d="M68.8398 19.3658C69.076 18.957 69.2806 18.5307 69.4518 18.0907C69.5721 17.6511 69.5525 17.185 69.3957 16.7571C69.942 16.7072 70.4925 16.7831 71.0049 16.9789" stroke="#263238" stroke-width="0.5" stroke-miterlimit="10"/>
<path d="M65.1244 22.5255C65.1244 22.5255 63.2666 20.8359 63.2666 20.2166C63.2666 19.5973 68.2208 19.0902 69.4033 19.4852C70.5858 19.8802 72.329 22.4109 73.0604 23.1423C73.7919 23.8737 75.9861 25.3366 75.5375 26.3509C75.0889 27.3651 73.6236 28.155 71.8804 27.0823C70.1372 26.0095 65.2488 22.7498 65.2488 22.7498C65.868 22.1866 66.263 22.6937 66.263 22.6937" fill="white"/>
<path d="M65.1244 22.5255C65.1244 22.5255 63.2666 20.8359 63.2666 20.2166C63.2666 19.5973 68.2208 19.0902 69.4033 19.4852C70.5858 19.8802 72.329 22.4109 73.0604 23.1423C73.7919 23.8737 75.9861 25.3366 75.5375 26.3509C75.0889 27.3651 73.6236 28.155 71.8804 27.0823C70.1372 26.0095 65.2488 22.7498 65.2488 22.7498C65.868 22.1866 66.263 22.6937 66.263 22.6937" stroke="#263238" stroke-width="0.5" stroke-miterlimit="10"/>
<path d="M73.6845 24.4395C73.6845 24.4395 71.5438 21.9063 69.7982 21.1749C68.0525 20.4434 66.024 20.9481 65.5193 21.5113C65.0146 22.0745 63.9979 24.7784 63.9419 25.6219C63.8858 26.4655 63.7858 29.0572 64.2734 29.34C64.7611 29.6229 66.358 29.7886 66.358 29.7886C66.1718 30.9988 66.0781 32.2214 66.0776 33.4458C66.1337 34.9086 67.1626 34.8623 67.9501 34.5234C68.7376 34.1845 71.99 31.0248 71.99 30.6225C71.9614 30.2062 71.9044 29.7924 71.8193 29.3839L72.4971 27.5237C72.4971 27.5237 74.6402 26.2412 73.6845 24.4395Z" fill="#B2B2B2" stroke="#263238" stroke-width="0.5" stroke-miterlimit="10"/>
<path d="M71.0247 21.9038C71.2035 22.2181 71.3226 22.5628 71.3758 22.9205C71.3758 23.3691 70.8687 25.9608 70.8687 25.9608C70.8687 25.9608 71.4879 26.2973 71.6562 25.7901C71.8244 25.283 72.0511 23.9884 73.6847 24.4394C72.8837 23.5087 71.9927 22.6594 71.0247 21.9038Z" fill="#263238" stroke="#263238" stroke-width="0.5" stroke-miterlimit="10"/>
<path d="M66.4193 25.6219C66.251 25.5658 64.9564 25.1148 64.9003 24.7783C64.8443 24.4418 66.4753 23.1448 66.4753 23.1448V22.5816C66.4753 22.5816 65.9877 22.1257 65.2368 22.7498" stroke="#263238" stroke-width="0.5" stroke-miterlimit="10"/>
<path d="M65.7361 25.5096C65.7361 25.5096 63.8783 25.1147 64.1587 26.2971C64.2465 26.6653 66.1311 26.9749 66.7504 27.0286C67.3697 27.0822 68.8886 27.1407 68.6082 26.4654C68.3278 25.79 66.4676 25.3414 65.7361 25.5096Z" fill="#263238" stroke="#263238" stroke-width="0.5" stroke-miterlimit="10"/>
<path d="M67.8843 22.8058C67.8843 22.8058 69.1789 22.1304 69.7421 23.3129" stroke="#263238" stroke-width="0.5" stroke-miterlimit="10"/>
<path d="M68.9499 23.9204C68.906 24.1983 68.7451 24.408 68.5915 24.3763C68.4379 24.3446 68.3477 24.1081 68.394 23.8326C68.4403 23.5571 68.5988 23.345 68.7524 23.3767C68.906 23.4084 68.9938 23.6497 68.9499 23.9204Z" fill="#263238"/>
<path d="M65.7363 23.4814C65.6998 23.7106 65.5681 23.8788 65.4413 23.8569C65.3145 23.8349 65.2414 23.6375 65.278 23.4083C65.3145 23.1791 65.4462 23.0133 65.573 23.0328C65.6998 23.0523 65.7802 23.2547 65.7363 23.4814Z" fill="#263238"/>
<path d="M67.9307 24.3271C67.9307 24.3271 68.211 25.0586 69.2814 25.0025" stroke="#263238" stroke-width="0.5" stroke-miterlimit="10"/>
<path d="M66.3631 29.7886L68.5037 29.9592L66.1948 31.761L66.3631 29.7886Z" fill="#263238" stroke="#263238" stroke-width="0.5" stroke-miterlimit="10"/>
<path d="M71.9951 30.6348C71.9951 30.6348 68.8402 37.4492 68.277 39.2534C67.7138 41.0576 68.4403 49.0936 68.4403 50.671C68.4403 52.2485 69.4156 59.7188 69.4156 59.7188C69.4156 59.7188 72.8508 59.3238 74.8793 58.4242C75.9865 57.9504 77.0427 57.3655 78.0318 56.6785L74.8062 46.6165C74.8062 46.6165 78.2488 37.6199 78.7072 35.4793C79.1655 33.3386 77.9757 32.1561 76.5129 31.5929C75.05 31.0297 71.9951 30.6348 71.9951 30.6348Z" fill="#FB855E" stroke="#263238" stroke-width="0.5" stroke-miterlimit="10"/>
<path d="M74.806 46.6236L71.1196 45.7483C71.1196 45.7483 70.4857 41.3963 71.8705 37.0541C73.2553 32.7118 74.9206 31.2319 74.9206 31.2319L72.8872 30.8613C72.8872 30.8613 70.9367 35.0207 70.0224 37.5149C69.1081 40.0091 69.3641 46.1189 69.3641 46.1189L68.2061 46.4481C68.2768 47.2185 68.3255 47.7012 68.3914 48.3644C69.5738 48.045 71.4999 47.7183 71.9534 47.7817C72.3606 47.8402 74.1209 48.1547 75.3667 48.379L74.806 46.6236Z" fill="white" stroke="#263238" stroke-width="0.5" stroke-miterlimit="10"/>
<path d="M57.4251 25.7391L56.5083 23.0889H54.4238L53.5899 25.7927C53.3987 26.1267 53.2986 26.505 53.2998 26.8899C53.2996 27.233 53.3788 27.5715 53.5312 27.8789C53.6836 28.1863 53.905 28.4543 54.1782 28.6618C54.4514 28.8694 54.769 29.0109 55.106 29.0753C55.443 29.1397 55.7903 29.1253 56.1208 29.0331C56.4513 28.9409 56.756 28.7734 57.011 28.5439C57.266 28.3143 57.4644 28.0289 57.5907 27.7099C57.717 27.3909 57.7678 27.0469 57.7391 26.705C57.7103 26.3631 57.6029 26.0325 57.4251 25.7391Z" fill="white" stroke="#263238" stroke-width="0.5" stroke-miterlimit="10"/>
<path d="M56.5645 21.3989H54.4238V23.0885H56.5645V21.3989Z" fill="#263238" stroke="#263238" stroke-width="0.5" stroke-miterlimit="10"/>
<path d="M55.3818 15.0918H54.3115V16.2182H55.3818V15.0918Z" fill="#263238" stroke="#263238" stroke-width="0.5" stroke-miterlimit="10"/>
<path d="M54.6505 16.0498C54.2743 16.82 53.8007 17.5386 53.2412 18.188C52.4537 19.034 52.9048 19.6509 53.5241 19.7655C54.1433 19.88 55.2137 19.8776 55.2137 20.2726V21.3429" stroke="#263238" stroke-width="0.5" stroke-miterlimit="10"/>
<path d="M55.0454 16.2744C55.0454 16.2744 53.2997 18.5833 53.3558 18.9222C53.4119 19.2611 55.3258 19.5975 55.7208 19.7658C56.1157 19.934 56.0011 21.3432 56.0011 21.3432" stroke="#263238" stroke-width="0.5" stroke-miterlimit="10"/>
<path d="M54.6504 15.1479V0.0561523" stroke="#263238" stroke-width="0.5" stroke-miterlimit="10"/>
<path d="M55.2134 0V15.4307" stroke="#263238" stroke-width="0.5" stroke-miterlimit="10"/>
<path d="M59.5487 31.4222L58.7051 29.8447C58.7051 29.8447 58.1419 27.1994 58.1419 26.9751C58.1419 26.7508 57.4105 25.2294 57.1277 24.7223C56.8449 24.2152 56.5645 24.2712 56.5645 24.8344C56.5645 25.3976 57.0716 26.3534 57.0716 26.524C57.0378 26.7359 56.9814 26.9435 56.9034 27.1433C56.9034 27.1433 54.5384 25.4537 54.2556 25.1709C53.9728 24.8881 53.4681 25.2855 53.4681 25.6219C53.48 25.911 53.5368 26.1964 53.6363 26.468C53.6924 26.6362 53.356 27.8187 53.356 28.2136C53.4059 28.7173 53.5802 29.2007 53.8631 29.6204C54.1435 30.0715 56.1695 30.7468 56.1695 30.7468L57.9737 33.28L59.5487 31.4222Z" fill="#B2B2B2" stroke="#263238" stroke-width="0.5" stroke-miterlimit="10"/>
<path d="M60.8457 31.8171L59.2682 30.5225L56.8691 32.8557C56.8691 32.8557 58.5758 34.6404 58.7392 34.6404C58.9025 34.6404 60.8457 31.8171 60.8457 31.8171Z" fill="white" stroke="#263238" stroke-width="0.5" stroke-miterlimit="10"/>
<path d="M74.1916 32.9437L69.1789 36.83L60.5066 31.3662L57.8027 34.9136C57.8027 34.9136 62.9837 39.0243 64.7294 40.7139C66.475 42.4035 69.235 43.9809 70.5808 43.2495C71.9266 42.518 77.3392 38.405 77.5074 38.2368" fill="#FB855E"/>
<path d="M74.1916 32.9437L69.1789 36.83L60.5066 31.3662L57.8027 34.9136C57.8027 34.9136 62.9837 39.0243 64.7294 40.7139C66.475 42.4035 69.235 43.9809 70.5808 43.2495C71.9266 42.518 77.3392 38.405 77.5074 38.2368" stroke="#263238" stroke-width="0.5" stroke-miterlimit="10"/>
<path d="M70.4736 35.8155C70.4736 35.8155 73.6846 35.7595 74.2478 40.7137L76.5567 39.0241C76.5567 39.0241 76.0496 35.0841 72.3875 34.4624L70.4736 35.8155Z" fill="white" stroke="#263238" stroke-width="0.5" stroke-miterlimit="10"/>
<path d="M61.7453 14.0215H48.231L52.7707 8.61621H57.2056L61.7453 14.0215Z" fill="white" stroke="#263238" stroke-width="0.5" stroke-miterlimit="10"/>
<path d="M57.0713 6.36328H52.7705V8.61608H57.0713V6.36328Z" fill="white" stroke="#263238" stroke-width="0.5" stroke-miterlimit="10"/>
<path d="M50.552 12.7583L49.9888 13.4849" stroke="#263238" stroke-width="0.5" stroke-miterlimit="10"/>
<path d="M51.0859 12.0659L53.6679 8.73306V7.0459" stroke="#263238" stroke-width="0.5" stroke-miterlimit="10"/>
<path d="M59.6681 16.4229C59.6681 16.4229 59.1171 15.9596 58.7124 15.9499C58.3077 15.9401 57.0886 16.3132 57.2861 16.6082C57.4836 16.9032 59.6681 16.4229 59.6681 16.4229Z" fill="#B2B2B2" stroke="#263238" stroke-width="0.5" stroke-miterlimit="10"/>
<path d="M60.487 16.9694C60.2633 16.7223 59.9819 16.5347 59.6678 16.4232C59.1802 16.2745 57.8319 16.7207 57.8709 16.9645C57.91 17.2083 58.9461 17.2449 59.1924 17.2083C59.4386 17.1717 60.487 16.9694 60.487 16.9694Z" fill="#B2B2B2" stroke="#263238" stroke-width="0.5" stroke-miterlimit="10"/>
<path d="M61.6186 18.9197C61.6186 18.9197 61.2675 17.0424 60.9896 16.7937C60.7116 16.545 59.1708 16.9303 58.9513 17.1009C58.7319 17.2716 59.0879 17.6568 59.2488 17.7007C59.6293 17.7274 60.011 17.7347 60.3922 17.7226L60.5678 18.9783L61.6186 18.9197Z" fill="#B2B2B2" stroke="#263238" stroke-width="0.5" stroke-miterlimit="10"/>
<path d="M57.4224 17.9396L58.2245 16.9448L60.2335 18.5637C60.3649 18.6702 60.4487 18.8245 60.4665 18.9927C60.4843 19.1609 60.4347 19.3293 60.3286 19.4609C60.2221 19.5923 60.0678 19.6761 59.8996 19.694C59.7314 19.7118 59.563 19.6622 59.4314 19.556L57.4224 17.9396Z" fill="white" stroke="#263238" stroke-width="0.5" stroke-miterlimit="10"/>
<path d="M57.8491 17.4984L54.5649 14.853" stroke="#263238" stroke-width="0.5" stroke-miterlimit="10"/>
<path d="M57.403 18.1365L58.4478 16.8398L58.0149 16.4911L56.9701 17.7877L57.403 18.1365Z" fill="white" stroke="#263238" stroke-width="0.5" stroke-miterlimit="10"/>
<path d="M59.9093 21.6406C59.6874 20.8068 60.5188 19.5316 60.5188 19.5316C60.1814 19.3663 59.8647 19.1617 59.5753 18.9221C59.2998 18.6442 59.2997 17.9786 59.6874 18.0907C60.0751 18.2029 61.5721 18.8222 61.5721 18.8222C61.7419 18.9209 61.8764 19.0706 61.9565 19.25C62.0365 19.4294 62.0581 19.6294 62.0182 19.8218C61.9061 20.5532 60.9625 22.65 60.9625 22.65" fill="#B2B2B2"/>
<path d="M59.9093 21.6406C59.6874 20.8068 60.5188 19.5316 60.5188 19.5316C60.1814 19.3663 59.8647 19.1617 59.5753 18.9221C59.2998 18.6442 59.2997 17.9786 59.6874 18.0907C60.0751 18.2029 61.5721 18.8222 61.5721 18.8222C61.7419 18.9209 61.8764 19.0706 61.9565 19.25C62.0365 19.4294 62.0581 19.6294 62.0182 19.8218C61.9061 20.5532 60.9625 22.65 60.9625 22.65" stroke="#263238" stroke-width="0.5" stroke-miterlimit="10"/>
<path d="M66.6972 82.9805H40.0391V84.2556H66.6972V82.9805Z" fill="#545454"/>
<path d="M50.4152 54.5034L29.3428 112.884H31.3883L51.5465 57.0342L50.6688 54.5034H50.4152Z" fill="#545454"/>
<path d="M49.8351 54.5034L28.7627 112.884H29.6502L50.6933 54.579L50.669 54.5034H49.8351Z" fill="#263238"/>
<path d="M54.6846 44.1538H51.481L76.2886 112.884H79.4922L54.6846 44.1538Z" fill="#545454"/>
<path d="M55.2622 44.1538H52.0586L76.8662 112.884H80.0698L55.2622 44.1538Z" fill="#263238"/>
<path d="M55.7477 54.5034L34.6753 112.884H36.7184L56.879 57.0342L55.9989 54.5034H55.7477Z" fill="#545454"/>
<path d="M55.1672 54.5034L34.0947 112.884H34.9798L56.0254 54.579L55.9986 54.5034H55.1672Z" fill="#263238"/>
<path d="M57.1838 41.3354H48.6846V44.4586H57.1838V41.3354Z" fill="#545454"/>
<path d="M57.1859 41.3354H49.1743V44.4586H57.1859V41.3354Z" fill="#454545"/>
</svg>
