<svg width="117" height="120" viewBox="0 0 117 120" fill="none" xmlns="http://www.w3.org/2000/svg">
<path d="M60.046 119.493C88.784 119.493 112.081 118.408 112.081 117.07C112.081 115.731 88.784 114.646 60.046 114.646C31.308 114.646 8.01123 115.731 8.01123 117.07C8.01123 118.408 31.308 119.493 60.046 119.493Z" fill="#263238"/>
<path d="M95.2779 5.50106C95.6499 6.12467 96.9941 7.03912 96.9941 7.04174C96.9941 7.04436 97.3295 5.97269 97.3426 5.90195C97.4841 5.08706 97.2823 3.42847 96.4648 2.99613C96.3268 2.92742 96.1758 2.88862 96.0218 2.88228C95.8677 2.87593 95.7141 2.90219 95.5709 2.95932C95.4276 3.01645 95.2981 3.10318 95.1907 3.21383C95.0834 3.32448 95.0005 3.45655 94.9477 3.6014C94.704 4.20929 94.9608 4.97177 95.2779 5.50106Z" fill="#263238"/>
<path d="M108.452 15.3532C108.452 15.3689 109.32 14.6457 109.369 14.5933C109.938 13.9933 110.68 12.4971 110.242 11.6875C110.165 11.5543 110.06 11.439 109.935 11.349C109.81 11.259 109.667 11.1964 109.517 11.1652C109.366 11.1341 109.21 11.1351 109.06 11.1682C108.909 11.2013 108.767 11.2657 108.644 11.3573C108.104 11.7268 107.897 12.505 107.858 13.1234C107.834 13.8465 108.452 15.3532 108.452 15.3532Z" fill="#263238"/>
<path d="M92.9955 9.66218C93.4986 10.1443 94.924 10.6448 95.0366 10.6841C94.7488 11.4955 94.5159 12.3253 94.3397 13.168C94.2322 13.658 94.1405 14.1585 94.054 14.6589C94.054 14.4257 94.054 14.2135 94.054 14.1847C93.9781 13.3619 93.3466 11.8265 92.44 11.6142C92.2882 11.5838 92.1317 11.5858 91.9808 11.62C91.8298 11.6543 91.6878 11.7202 91.5641 11.8132C91.4404 11.9062 91.3378 12.0244 91.2629 12.1599C91.1881 12.2954 91.1428 12.4452 91.1299 12.5994C91.0539 13.2492 91.502 13.9095 91.9474 14.3445C92.3928 14.7795 93.606 15.2301 93.9283 15.3454C93.8968 15.5393 93.8628 15.7306 93.834 15.9245C93.6898 16.8494 93.5483 17.7586 93.3833 18.6757C93.3256 18.9928 93.2575 19.3046 93.1894 19.6137C93.1894 19.4067 93.1894 19.2312 93.1894 19.205C93.1134 18.3796 92.4819 16.8468 91.578 16.6319C91.4262 16.6019 91.2699 16.6042 91.1191 16.6387C90.9683 16.6731 90.8265 16.739 90.7029 16.8319C90.5792 16.9249 90.4766 17.0429 90.4017 17.1782C90.3267 17.3135 90.2811 17.463 90.2678 17.6171C90.1919 18.267 90.6399 18.9272 91.0854 19.3648C91.5308 19.8024 92.6287 20.2059 93.0086 20.3448C92.93 20.6592 92.8514 20.9789 92.7597 21.2802C92.6942 21.4872 92.6444 21.6889 92.5658 21.8933L92.3457 22.4934C92.1937 22.8707 92.0391 23.2611 91.8793 23.6253C91.7718 23.8873 91.6644 24.1205 91.557 24.3616C91.6173 24.0471 91.7247 23.4261 91.7273 23.3737C91.7771 22.5484 91.3867 20.9238 90.522 20.5885C90.3765 20.5369 90.2218 20.5166 90.068 20.529C89.9141 20.5414 89.7646 20.5862 89.6293 20.6604C89.494 20.7346 89.3759 20.8366 89.2827 20.9597C89.1895 21.0828 89.1235 21.2241 89.0888 21.3745C88.9132 22.006 89.2564 22.7344 89.6311 23.2244C90.0451 23.7642 91.3238 24.4533 91.4836 24.5345C91.3028 24.9328 91.1247 25.3206 90.9596 25.6848C90.4565 26.7329 89.9901 27.6316 89.618 28.305L90.1237 28.6666C90.4879 27.9617 90.9543 27.0263 91.4574 25.9101C91.6435 25.5066 91.8321 25.069 92.0208 24.6183C92.475 24.7309 92.9351 24.8183 93.399 24.8804C93.4855 25.5721 94.1248 26.7669 94.2086 26.9215C93.8366 27.1573 93.475 27.38 93.1291 27.587C92.1439 28.1792 91.2792 28.6561 90.6006 29.0177L91.1509 29.4107C91.785 29.0491 92.5553 28.5984 93.4147 28.0561C93.7946 27.8176 94.2008 27.5582 94.5991 27.2857C94.7196 27.4167 95.7126 28.4805 96.3389 28.7452C96.9101 28.9862 97.7014 29.133 98.2674 28.8054C98.4029 28.7326 98.5216 28.6321 98.6159 28.5104C98.7101 28.3888 98.7776 28.2486 98.8142 28.0992C98.8508 27.9497 98.8555 27.7942 98.8281 27.6428C98.8007 27.4914 98.7418 27.3474 98.6551 27.2202C98.1128 26.4682 96.4411 26.5023 95.655 26.7564C95.6078 26.7722 95.131 26.9923 94.8192 27.1364C94.9868 27.0263 95.1467 26.9189 95.317 26.801C95.6524 26.573 95.9825 26.3346 96.3363 26.0778L96.842 25.6848C97.0123 25.559 97.1773 25.4018 97.3503 25.2603C97.7381 24.9197 98.1154 24.5581 98.4875 24.186C98.6892 24.4795 99.4202 25.5118 99.9495 25.8367C100.479 26.1616 101.236 26.4237 101.844 26.1852C101.989 26.1345 102.122 26.0535 102.234 25.9478C102.346 25.842 102.434 25.7138 102.493 25.5716C102.552 25.4293 102.58 25.2763 102.576 25.1224C102.571 24.9685 102.534 24.8172 102.468 24.6786C102.046 23.8559 100.39 23.6305 99.5722 23.7668C99.5224 23.7668 98.9486 23.9371 98.6342 24.0288C98.8543 23.8008 99.077 23.5781 99.2945 23.3423C99.9207 22.661 100.534 21.951 101.15 21.2461L101.718 20.6042C101.789 20.709 102.63 21.9562 103.222 22.3204C103.746 22.6427 104.511 22.9073 105.119 22.6689C105.264 22.6174 105.396 22.5361 105.508 22.4303C105.619 22.3244 105.707 22.1963 105.766 22.0543C105.825 21.9122 105.853 21.7595 105.849 21.6058C105.845 21.4522 105.809 21.3011 105.743 21.1623C105.321 20.3369 103.665 20.1142 102.847 20.2505C102.787 20.2505 101.959 20.4941 101.752 20.5649C102.169 20.0932 102.591 19.6295 103.023 19.1866C103.613 18.5884 104.242 18.0291 104.904 17.5123C104.938 17.5621 105.811 18.867 106.419 19.239C106.943 19.5613 107.705 19.826 108.316 19.5875C108.461 19.5364 108.594 19.4553 108.705 19.3495C108.817 19.2437 108.905 19.1155 108.964 18.9734C109.023 18.8313 109.051 18.6783 109.047 18.5246C109.043 18.3708 109.006 18.2196 108.939 18.0809C108.515 17.2582 106.859 17.0328 106.044 17.1691C105.989 17.1691 105.36 17.3577 105.062 17.4494L105.038 17.4023C105.711 16.8974 106.427 16.4537 107.179 16.0765C107.59 15.8616 107.994 15.6834 108.392 15.5157C108.531 15.7778 109.178 16.9542 109.681 17.3499C110.184 17.7455 110.897 18.0757 111.528 17.9054C111.678 17.8709 111.819 17.8052 111.942 17.7125C112.065 17.6198 112.167 17.5021 112.241 17.3673C112.315 17.2325 112.36 17.0835 112.373 16.9302C112.385 16.7768 112.365 16.6225 112.314 16.4773C111.984 15.6101 110.362 15.2092 109.537 15.2537C109.492 15.2537 109.036 15.3297 108.706 15.39C108.887 15.3166 109.073 15.238 109.249 15.1725C109.901 14.9105 110.517 14.7349 111.062 14.5725C111.374 14.4834 111.657 14.4074 111.921 14.3393C112.183 14.5253 113.281 15.2537 113.902 15.369C114.523 15.4843 115.314 15.4528 115.797 15.01C115.913 14.9101 116.008 14.7867 116.074 14.6478C116.14 14.5089 116.176 14.3577 116.18 14.2039C116.184 14.0502 116.155 13.8974 116.096 13.7555C116.036 13.6135 115.948 13.4857 115.836 13.3803C115.144 12.7645 113.52 13.1549 112.807 13.5742C112.747 13.6108 111.848 14.2869 111.861 14.2973H111.877C111.615 14.3576 111.353 14.4257 111.046 14.5043C110.496 14.6537 109.875 14.8292 109.212 15.0651C108.497 15.3132 107.798 15.6019 107.116 15.9297C106.341 16.2971 105.601 16.7329 104.904 17.232L104.881 17.2503C105.041 17.0328 105.473 16.4066 105.499 16.3542C105.89 15.6258 106.217 13.996 105.572 13.32C105.462 13.2127 105.331 13.1297 105.187 13.0764C105.043 13.0231 104.889 13.0007 104.736 13.0106C104.582 13.0205 104.433 13.0624 104.297 13.1338C104.16 13.2051 104.041 13.3043 103.945 13.4248C103.523 13.9253 103.529 14.7349 103.662 15.3323C103.817 16.0136 104.729 17.2162 104.802 17.3132C104.112 17.8335 103.457 18.399 102.842 19.0059C102.483 19.357 102.132 19.7238 101.794 20.0932C101.928 19.902 102.056 19.7264 102.056 19.7028C102.447 18.9718 102.774 17.3446 102.13 16.666C102.019 16.5587 101.888 16.4757 101.744 16.4224C101.6 16.3691 101.446 16.3467 101.293 16.3566C101.139 16.3665 100.99 16.4084 100.854 16.4798C100.717 16.5512 100.598 16.6503 100.502 16.7708C100.078 17.2713 100.086 18.0809 100.219 18.6783C100.353 19.2757 101.116 20.3317 101.32 20.6068C101.186 20.7483 101.058 20.8924 100.922 21.0365C100.293 21.7283 99.6665 22.42 99.0298 23.0829C98.8071 23.3161 98.5765 23.5362 98.3486 23.7589C98.4665 23.586 98.5661 23.4419 98.5792 23.4183C98.9696 22.6872 99.2945 21.0601 98.6499 20.3841C98.5402 20.2763 98.409 20.1928 98.2649 20.139C98.1208 20.0853 97.967 20.0625 97.8135 20.0721C97.66 20.0818 97.5103 20.1236 97.374 20.195C97.2378 20.2663 97.1181 20.3656 97.0228 20.4863C96.6009 20.9867 96.6061 21.7964 96.7424 22.3938C96.8786 22.9912 97.5625 23.9476 97.7905 24.2725C97.552 24.4926 97.311 24.7153 97.0673 24.917C96.897 25.0533 96.745 25.1948 96.5668 25.3206L96.0428 25.7005C95.7074 25.9311 95.3615 26.1721 95.0288 26.387C94.7982 26.539 94.5755 26.6805 94.3528 26.8246C94.5781 26.594 95.0104 26.1354 95.0419 26.0935C95.4562 25.495 95.7105 24.8005 95.7808 24.076C95.8299 24.0121 95.8729 23.9436 95.9092 23.8716C95.9824 23.736 96.0263 23.5866 96.038 23.4329C96.0497 23.2793 96.0289 23.1249 95.977 22.9799C95.9251 22.8348 95.8432 22.7023 95.7367 22.5909C95.6303 22.4795 95.5015 22.3919 95.3589 22.3335C94.4916 22.0086 93.1186 22.9571 92.6025 23.6043C92.571 23.641 92.288 24.0943 92.1151 24.3904C92.1911 24.2044 92.2671 24.0262 92.3457 23.8349C92.4976 23.4576 92.6418 23.0777 92.7964 22.6689C92.8619 22.4698 92.9326 22.268 93.0007 22.0636C93.0689 21.8593 93.1239 21.6418 93.1894 21.4269C93.3256 20.9317 93.4514 20.4208 93.5457 19.9046C93.8759 20.0382 95.055 20.4968 95.676 20.4758C96.297 20.4548 97.0961 20.2426 97.4734 19.7185C97.5663 19.5958 97.6322 19.4549 97.6669 19.305C97.7016 19.1551 97.7044 18.9995 97.675 18.8485C97.6455 18.6974 97.5846 18.5543 97.4962 18.4283C97.4077 18.3024 97.2937 18.1965 97.1616 18.1176C96.3546 17.6617 94.8506 18.3796 94.2453 18.9534C94.206 18.9901 93.8156 19.4408 93.606 19.695C93.6689 19.3832 93.7291 19.074 93.7815 18.7569C93.9283 17.8425 94.0436 16.9228 94.172 15.9874C94.2086 15.7018 94.2506 15.4214 94.2899 15.1384C94.4078 15.1856 95.7965 15.762 96.4935 15.7384C97.1092 15.7175 97.89 15.5184 98.2674 14.9838C98.3598 14.8607 98.4255 14.7196 98.46 14.5696C98.4945 14.4195 98.4971 14.2639 98.4678 14.1128C98.4384 13.9616 98.3776 13.8183 98.2894 13.6922C98.2011 13.566 98.0874 13.4597 97.9555 13.3803C97.1485 12.927 95.6445 13.658 95.0393 14.2187C94.9921 14.2606 94.4314 14.9131 94.2977 15.086C94.3868 14.4624 94.4811 13.8414 94.5991 13.2361C94.749 12.4148 94.953 11.6043 95.2096 10.8098C95.2646 10.8334 96.7109 11.4387 97.4236 11.4151C98.0394 11.3941 98.8202 11.195 99.1975 10.6605C99.2904 10.5377 99.3563 10.3968 99.391 10.2469C99.4257 10.097 99.4285 9.94144 99.3991 9.79039C99.3696 9.63934 99.3087 9.49619 99.2203 9.37026C99.1318 9.24433 99.0178 9.13845 98.8857 9.05953C98.0787 8.60623 96.5747 9.33465 95.9694 9.89538C95.9301 9.93206 95.5004 10.4194 95.3039 10.6814L95.2567 10.6552C95.5378 9.8633 95.8886 9.09782 96.3048 8.36779C96.5301 7.96428 96.7686 7.58173 97.007 7.23062C97.269 7.37211 98.4534 8.00097 99.1032 8.05075C99.753 8.10053 100.518 7.98524 100.95 7.49526C101.056 7.38329 101.137 7.25033 101.188 7.10504C101.239 6.95975 101.259 6.80536 101.246 6.65192C101.234 6.49847 101.189 6.34939 101.115 6.21435C101.041 6.07932 100.939 5.96135 100.817 5.86811C100.065 5.32835 98.4901 5.88907 97.8245 6.39216C97.7879 6.41836 97.4498 6.73016 97.2088 6.96336C97.3188 6.80353 97.4315 6.63584 97.5389 6.48386C97.9477 5.91528 98.3564 5.41744 98.7233 4.98248C98.9329 4.73618 99.1268 4.51608 99.3102 4.31433C99.6377 4.31433 100.948 4.31433 101.53 4.07851C102.111 3.84269 102.756 3.36843 102.913 2.73434C102.955 2.58645 102.966 2.43129 102.944 2.27898C102.923 2.12667 102.869 1.98062 102.788 1.85035C102.706 1.72008 102.597 1.60851 102.47 1.5229C102.342 1.43729 102.197 1.37957 102.046 1.35349C101.129 1.22248 99.9888 2.4435 99.6272 3.18764C99.5958 3.25052 99.2185 4.31171 99.2368 4.31171H99.2552C99.0744 4.50298 98.8831 4.7126 98.6761 4.94318C98.3014 5.37027 97.89 5.86025 97.4577 6.4236C96.9965 7.02472 96.5705 7.652 96.1817 8.30229C95.7425 9.02887 95.3698 9.79358 95.0681 10.5871C95.0666 10.5967 95.0666 10.6064 95.0681 10.6159C95.0838 10.3539 95.0969 9.58619 95.0917 9.52593C95.0157 8.70318 94.3842 7.16774 93.4802 6.9555C93.3285 6.92504 93.172 6.92702 93.021 6.96131C92.8701 6.9956 92.7281 7.06142 92.6043 7.15445C92.4806 7.24749 92.378 7.36563 92.3032 7.50114C92.2283 7.63664 92.183 7.78644 92.1701 7.9407C92.102 8.56431 92.55 9.2377 92.9955 9.66218Z" fill="#263238"/>
<path d="M68.714 18.9848C69.3953 18.7228 70.5482 17.583 70.5482 17.583C70.5482 17.583 69.5603 17.059 69.5001 17.0302C68.7271 16.7393 67.0606 16.6319 66.4842 17.3577C66.3919 17.4805 66.3265 17.6214 66.2923 17.7711C66.258 17.9209 66.2556 18.0762 66.2852 18.2269C66.3149 18.3777 66.3759 18.5205 66.4644 18.6461C66.5528 18.7717 66.6667 18.8773 66.7986 18.956C67.3358 19.3097 68.1349 19.1945 68.714 18.9848Z" fill="#263238"/>
<path d="M80.8272 7.85699C80.8456 7.85699 80.3032 6.87179 80.2508 6.80891C79.766 6.13813 78.435 5.12935 77.5546 5.41496C77.4096 5.46657 77.2771 5.54815 77.1658 5.65439C77.0545 5.76062 76.9668 5.88912 76.9084 6.03152C76.8501 6.17392 76.8224 6.32701 76.8272 6.48082C76.832 6.63463 76.8691 6.7857 76.9362 6.9242C77.1982 7.52423 77.9266 7.87271 78.5293 8.01421C79.2263 8.18976 80.8272 7.85699 80.8272 7.85699Z" fill="#263238"/>
<path d="M72.3798 21.9955C72.9484 21.5894 73.703 20.2819 73.7633 20.1771C74.51 20.6105 75.2847 20.9939 76.0822 21.3247C76.5459 21.5212 77.0202 21.702 77.4971 21.8802C77.2665 21.8304 77.0595 21.7885 77.0307 21.7859C76.2079 21.7099 74.5703 22.0479 74.2061 22.8995C74.1498 23.0426 74.1243 23.1959 74.1311 23.3496C74.1379 23.5032 74.1769 23.6537 74.2456 23.7913C74.3143 23.9289 74.4111 24.0505 74.5297 24.1483C74.6484 24.2461 74.7863 24.3178 74.9345 24.3589C75.5581 24.5528 76.2996 24.2358 76.8027 23.8768C77.3058 23.5178 77.9792 22.4095 78.1495 22.116L78.6997 22.3152C79.5828 22.627 80.4658 22.9362 81.32 23.2637C81.6213 23.3816 81.9121 23.5047 82.2056 23.6305C82.0038 23.586 81.8309 23.5519 81.8047 23.5493C80.9793 23.4733 79.3443 23.8113 78.9801 24.6603C78.923 24.8033 78.8966 24.9568 78.9029 25.1107C78.9091 25.2647 78.9477 25.4155 79.0162 25.5535C79.0847 25.6915 79.1815 25.8135 79.3004 25.9115C79.4192 26.0095 79.5574 26.0814 79.7059 26.1223C80.3321 26.3162 81.071 25.9992 81.5741 25.6402C82.0772 25.2812 82.6851 24.2803 82.8842 23.9318C83.1803 24.0681 83.479 24.1939 83.7594 24.3484C83.948 24.4533 84.1393 24.5397 84.3253 24.655L84.8756 24.9799C85.2188 25.2 85.5726 25.4227 85.9001 25.6455C86.1307 25.8 86.3482 25.9494 86.5656 26.1014C86.2669 25.9835 85.6774 25.7634 85.625 25.7503C84.8232 25.5485 83.1541 25.6323 82.6641 26.421C82.5867 26.5537 82.5381 26.7013 82.5214 26.854C82.5047 27.0067 82.5204 27.1613 82.5673 27.3076C82.6143 27.4539 82.6915 27.5886 82.7939 27.7031C82.8964 27.8176 83.0218 27.9093 83.162 27.9722C83.7515 28.2604 84.5297 28.0587 85.0826 27.7809C85.6879 27.4744 86.6023 26.345 86.715 26.2088C87.0739 26.4708 87.4224 26.7066 87.7473 26.9451C88.6932 27.6368 89.4819 28.2552 90.0819 28.7478L90.53 28.3207C89.9038 27.8307 89.0705 27.1992 88.067 26.4865C87.7028 26.2245 87.3071 25.9625 86.8984 25.7005C87.0921 25.2742 87.2601 24.8367 87.4015 24.3904C88.0985 24.4323 89.3902 24.0235 89.5579 23.9711C89.7204 24.3773 89.875 24.7755 90.0138 25.1555C90.4121 26.2324 90.7213 27.1704 90.9519 27.9041L91.4392 27.4351C91.2034 26.7459 90.8995 25.9049 90.5248 24.959C90.3623 24.545 90.1815 24.1048 89.9876 23.6488C90.1396 23.5545 91.3685 22.7763 91.7432 22.2077C92.0838 21.6837 92.3746 20.9396 92.1572 20.3238C92.1109 20.177 92.0342 20.0416 91.9322 19.9264C91.8301 19.8113 91.7049 19.7189 91.5647 19.6554C91.4245 19.5918 91.2725 19.5586 91.1186 19.5577C90.9647 19.5568 90.8124 19.5884 90.6715 19.6504C89.833 20.0434 89.5579 21.6916 89.6653 22.5117C89.6653 22.5615 89.7963 23.0776 89.8828 23.4025C89.8042 23.2191 89.7282 23.041 89.6444 22.8523C89.4819 22.4802 89.3064 22.1134 89.1203 21.7178C89.026 21.5291 88.9264 21.3404 88.8295 21.1492C88.7325 20.9579 88.612 20.7666 88.5046 20.5701C88.2426 20.1273 87.957 19.6897 87.6583 19.26C87.9858 19.1159 89.1361 18.5892 89.5527 18.1281C89.9693 17.6669 90.3675 16.9726 90.2444 16.3306C90.2212 16.1784 90.1663 16.0328 90.083 15.9033C89.9998 15.7738 89.8902 15.6632 89.7614 15.5789C89.6326 15.4946 89.4875 15.4384 89.3355 15.414C89.1835 15.3895 89.028 15.3974 88.8793 15.4371C87.991 15.6991 87.467 17.287 87.4486 18.115C87.4486 18.1674 87.501 18.7622 87.5351 19.0871C87.3543 18.825 87.1761 18.563 86.9849 18.301C86.4294 17.5595 85.8477 16.8258 85.2686 16.0922C85.0904 15.8668 84.9149 15.6415 84.7446 15.4135C84.8599 15.3637 86.2407 14.7663 86.7071 14.2528C87.1211 13.7942 87.522 13.0946 87.4015 12.4527C87.378 12.3004 87.3228 12.1548 87.2392 12.0254C87.1557 11.896 87.0458 11.7856 86.9167 11.7015C86.7876 11.6175 86.6423 11.5616 86.4901 11.5375C86.338 11.5134 86.1825 11.5217 86.0337 11.5618C85.1481 11.8238 84.624 13.4117 84.6057 14.2397C84.6057 14.2999 84.6817 15.1567 84.7105 15.3742C84.3253 14.8764 83.9454 14.3759 83.5917 13.8702C83.1092 13.1875 82.6716 12.4742 82.2816 11.7347C82.334 11.7112 83.7803 11.0954 84.2572 10.5661C84.6712 10.1102 85.0721 9.41062 84.9516 8.76867C84.9277 8.61655 84.8722 8.47114 84.7886 8.34183C84.705 8.21252 84.5952 8.10219 84.4663 8.01798C84.3373 7.93377 84.1922 7.87754 84.0402 7.85294C83.8882 7.82835 83.7327 7.83592 83.5838 7.87518C82.6956 8.1372 82.1741 9.72767 82.1558 10.553C82.1558 10.6081 82.2108 11.2605 82.2475 11.5697L82.1951 11.5854C81.8238 10.8277 81.5205 10.0385 81.2885 9.22721C81.1549 8.78439 81.0527 8.35468 80.961 7.93282C81.244 7.84374 82.52 7.42974 83.0048 7.00265C83.4895 6.57556 83.9428 5.95456 83.8904 5.29165C83.8851 5.13695 83.8471 4.98512 83.779 4.84612C83.7109 4.70712 83.6142 4.5841 83.4951 4.48513C83.3761 4.38616 83.2375 4.31347 83.0884 4.27184C82.9393 4.23021 82.7831 4.22057 82.6301 4.24357C81.7182 4.40864 81.0265 5.92836 80.9165 6.74849C80.9165 6.79303 80.8981 7.25419 80.8955 7.58958C80.8588 7.3983 80.8143 7.20179 80.7828 7.01837C80.6571 6.32663 80.5863 5.68992 80.5208 5.12396C80.4894 4.79905 80.4684 4.50821 80.4501 4.23571C80.6806 4.00513 81.6003 3.06971 81.8257 2.47755C82.051 1.88538 82.1715 1.10455 81.8257 0.54907C81.7489 0.415673 81.6449 0.299948 81.5204 0.209438C81.396 0.118928 81.2538 0.0556656 81.1033 0.0237742C80.9527 -0.00811726 80.7971 -0.00792145 80.6467 0.0243489C80.4962 0.0566192 80.3542 0.120239 80.23 0.211062C79.4963 0.777028 79.5801 2.4461 79.8605 3.2243C79.8841 3.28981 80.3845 4.29859 80.3976 4.28811L80.4107 4.27239C80.4107 4.53441 80.4369 4.82001 80.4605 5.12658C80.5077 5.69516 80.5653 6.33974 80.6754 7.03409C80.7845 7.78417 80.9385 8.52702 81.1365 9.25865C81.352 10.0793 81.6405 10.8791 81.9986 11.6483L82.0143 11.6745C81.8283 11.4753 81.2938 10.9382 81.2492 10.8884C80.6046 10.3644 79.0535 9.74601 78.2805 10.257C78.1542 10.3449 78.0478 10.4585 77.9683 10.5904C77.8888 10.7222 77.8381 10.8693 77.8193 11.0221C77.8005 11.1749 77.8141 11.33 77.8593 11.4771C77.9044 11.6243 77.9801 11.7603 78.0814 11.8762C78.4954 12.3819 79.2867 12.5261 79.9155 12.5025C80.6125 12.4789 81.9645 11.8055 82.072 11.7505C82.4574 12.5252 82.8951 13.2728 83.3821 13.9881C83.6598 14.4074 83.9559 14.8187 84.2546 15.2301C84.0895 15.0624 83.9428 14.9157 83.9192 14.8973C83.2746 14.3733 81.7235 13.7549 80.9505 14.2659C80.8242 14.3538 80.7178 14.4674 80.6383 14.5993C80.5588 14.7311 80.5081 14.8782 80.4893 15.031C80.4705 15.1838 80.4841 15.3389 80.5293 15.486C80.5744 15.6332 80.6501 15.7692 80.7514 15.8852C81.1654 16.3909 81.9567 16.535 82.5855 16.514C83.2144 16.4931 84.3751 15.9402 84.6817 15.7882C84.7996 15.9454 84.9123 16.1026 85.0302 16.2572C85.5935 17.0066 86.1595 17.7508 86.6914 18.4949C86.88 18.7569 87.0556 19.0189 87.2312 19.281L86.9403 18.9901C86.2957 18.4661 84.7446 17.8503 83.9716 18.3586C83.8453 18.4466 83.7389 18.5602 83.6594 18.6921C83.5799 18.8239 83.5292 18.971 83.5104 19.1238C83.4916 19.2766 83.5052 19.4316 83.5504 19.5788C83.5955 19.726 83.6712 19.862 83.7725 19.9779C84.1839 20.4863 84.9778 20.6304 85.6066 20.6068C86.2355 20.5832 87.2836 20.0827 87.6478 19.9098C87.8207 20.1876 87.9936 20.4653 88.1482 20.7404C88.2478 20.9317 88.3579 21.1099 88.4496 21.3064C88.5413 21.5029 88.6382 21.6916 88.7299 21.8828C88.895 22.2549 89.0653 22.6374 89.2173 23.0043C89.3247 23.2663 89.4217 23.5047 89.5212 23.751C89.3378 23.489 88.9657 22.965 88.9317 22.9388C88.4197 22.4206 87.7839 22.0418 87.0844 21.8383C87.0308 21.7781 86.9711 21.7236 86.9063 21.6758C86.7864 21.579 86.6475 21.5085 86.4986 21.469C86.3496 21.4295 86.194 21.4218 86.042 21.4466C85.8899 21.4713 85.7447 21.5278 85.616 21.6125C85.4872 21.6971 85.3778 21.808 85.2948 21.9379C84.8153 22.7239 85.4913 24.2567 86.0337 24.8803C86.0652 24.917 86.4582 25.2786 86.7071 25.504C86.5394 25.3939 86.3796 25.2865 86.2067 25.1764C85.8634 24.9563 85.5149 24.7441 85.1428 24.5188L84.5847 24.2043C84.4013 24.0943 84.1917 24.0026 83.9952 23.903C83.5314 23.6751 83.0519 23.4681 82.5646 23.2689C82.7558 22.9702 83.424 21.8959 83.5183 21.2828C83.6126 20.6697 83.5602 19.8679 83.1043 19.3989C83.0014 19.2844 82.8755 19.1929 82.7349 19.1303C82.5943 19.0676 82.4421 19.0353 82.2881 19.0353C82.1342 19.0353 81.982 19.0676 81.8414 19.1303C81.7008 19.1929 81.5749 19.2844 81.4719 19.3989C80.8771 20.1089 81.3173 21.7204 81.7575 22.42C81.7837 22.4645 82.1584 22.944 82.368 23.1825C82.072 23.0672 81.7785 22.9493 81.4772 22.8392C80.6073 22.5274 79.7164 22.2366 78.8281 21.9431L78.0159 21.6811C78.084 21.5763 78.9067 20.3159 79.0116 19.6268C79.1033 19.0163 79.0535 18.2119 78.5976 17.7455C78.4946 17.6311 78.3687 17.5396 78.2281 17.4769C78.0875 17.4143 77.9353 17.3819 77.7814 17.3819C77.6274 17.3819 77.4752 17.4143 77.3346 17.4769C77.194 17.5396 77.0681 17.6311 76.9652 17.7455C76.3704 18.4556 76.8106 20.0696 77.2508 20.7692C77.2822 20.8216 77.8194 21.4924 77.9661 21.6575C77.3687 21.4531 76.7765 21.2487 76.2027 21.0208C75.425 20.7195 74.6671 20.3695 73.9336 19.9727C73.965 19.9229 74.8297 18.6102 74.9371 17.908C75.0315 17.2975 74.979 16.4931 74.5231 16.024C74.4202 15.9096 74.2943 15.8181 74.1537 15.7554C74.0131 15.6928 73.8609 15.6604 73.7069 15.6604C73.553 15.6604 73.4008 15.6928 73.2602 15.7554C73.1196 15.8181 72.9937 15.9096 72.8907 16.024C72.296 16.7341 72.7362 18.3455 73.1763 19.0451C73.2052 19.0923 73.6139 19.6032 73.8131 19.8312L73.779 19.8731C73.0531 19.4486 72.3665 18.9602 71.7274 18.4137C71.371 18.1176 71.0461 17.8136 70.7395 17.5123C70.9256 17.2844 71.7641 16.2337 71.9291 15.6127C72.0942 14.9917 72.1283 14.2108 71.7247 13.6947C71.6346 13.57 71.5191 13.4658 71.3859 13.3887C71.2528 13.3117 71.1048 13.2635 70.9518 13.2475C70.7988 13.2314 70.6441 13.2477 70.4978 13.2955C70.3516 13.3432 70.217 13.4212 70.1028 13.5244C69.4321 14.1663 69.6941 15.817 70.0531 16.5612C70.074 16.6005 70.3151 16.9909 70.5011 17.2713C70.3649 17.1324 70.2208 16.9935 70.0924 16.8573C69.6076 16.3516 69.1936 15.859 68.8347 15.4188C68.6303 15.1567 68.4521 14.934 68.2844 14.7166C68.3525 14.3969 68.6015 13.1104 68.4652 12.492C68.329 11.8736 67.9936 11.1557 67.3988 10.8832C67.2558 10.8129 67.0992 10.7746 66.9399 10.7709C66.7806 10.7672 66.6225 10.7982 66.4764 10.8617C66.3303 10.9253 66.1997 11.0199 66.0939 11.139C65.988 11.2581 65.9094 11.3988 65.8633 11.5513C65.5646 12.4291 66.5551 13.7733 67.218 14.2685C67.2756 14.3104 68.2477 14.8764 68.253 14.8607C68.2582 14.8449 68.253 14.8449 68.253 14.8397C68.4076 15.0546 68.5753 15.2825 68.777 15.5262C69.1281 15.9743 69.5316 16.4773 70.0059 16.9961C70.5113 17.5617 71.0493 18.0971 71.6173 18.5997C72.2507 19.1647 72.9328 19.6723 73.6558 20.1168H73.6847C73.4226 20.0539 72.6759 19.8967 72.6182 19.8915C71.7955 19.8155 70.1579 20.1535 69.7937 21.0024C69.737 21.1457 69.7111 21.2993 69.7177 21.4532C69.7243 21.6072 69.7632 21.758 69.8319 21.8959C69.9006 22.0338 69.9975 22.1557 70.1164 22.2537C70.2354 22.3516 70.3736 22.4235 70.5221 22.4645C71.1378 22.6715 71.8898 22.3545 72.3798 21.9955Z" fill="#263238"/>
<path d="M29.9245 97.3687C30.4119 97.5364 31.2346 98.3408 31.2346 98.3408C31.2346 98.3408 30.5376 98.7312 30.4905 98.7495C29.9428 98.9696 28.7559 99.0718 28.334 98.5635C28.2671 98.4769 28.219 98.3773 28.1928 98.271C28.1666 98.1648 28.1629 98.0542 28.1818 97.9464C28.2008 97.8386 28.2421 97.736 28.3031 97.6451C28.364 97.5542 28.4433 97.477 28.5358 97.4185C28.9367 97.1565 29.5079 97.2246 29.9245 97.3687Z" fill="#263238"/>
<path d="M38.7258 105.122C38.7258 105.122 38.359 105.832 38.3302 105.874C37.9948 106.359 37.0594 107.098 36.4279 106.906C36.3242 106.871 36.2291 106.814 36.1486 106.74C36.068 106.666 36.0039 106.576 35.9602 106.476C35.9166 106.375 35.8944 106.267 35.895 106.157C35.8957 106.048 35.9192 105.94 35.9641 105.84C36.1449 105.41 36.6559 105.151 37.0829 105.041C37.5834 104.912 38.7258 105.122 38.7258 105.122Z" fill="#263238"/>
<path d="M32.4923 95.1806C32.9036 95.461 33.4617 96.3833 33.5063 96.4567C34.0325 96.1357 34.5796 95.8503 35.1439 95.6025C35.4714 95.4584 35.8068 95.3195 36.1422 95.1885C35.9798 95.2252 35.833 95.2592 35.8121 95.2592C35.2278 95.3274 34.0565 95.1125 33.7814 94.5099C33.7402 94.4088 33.7206 94.3002 33.7237 94.1911C33.7268 94.082 33.7525 93.9747 33.7994 93.8761C33.8462 93.7775 33.9131 93.6898 33.9957 93.6184C34.0783 93.5471 34.1749 93.4937 34.2792 93.4618C34.7221 93.3124 35.254 93.5273 35.6182 93.7762C35.9824 94.0251 36.4802 94.8059 36.606 95.0129L36.9964 94.861C37.62 94.6251 38.2436 94.3919 38.8489 94.1456C39.0637 94.0592 39.2707 93.9649 39.4777 93.8836L39.1921 93.9465C38.6052 94.012 37.434 93.7972 37.1615 93.1945C37.1203 93.0934 37.1006 92.9849 37.1037 92.8758C37.1068 92.7666 37.1326 92.6594 37.1795 92.5608C37.2263 92.4622 37.2931 92.3744 37.3758 92.3031C37.4584 92.2317 37.5549 92.1784 37.6593 92.1464C38.0995 91.9971 38.6314 92.2146 38.9956 92.4609C39.3598 92.7072 39.8079 93.4146 39.9625 93.6609C40.1695 93.5587 40.3817 93.4565 40.5782 93.3491C40.7119 93.2731 40.8403 93.2076 40.9765 93.1238L41.3643 92.8827C41.6054 92.7229 41.8569 92.5552 42.0875 92.3927L42.5434 92.0364C42.3312 92.1255 41.9145 92.2984 41.8779 92.2984C41.3093 92.453 40.1171 92.4163 39.7581 91.8634C39.7013 91.7696 39.6647 91.6649 39.6507 91.5561C39.6368 91.4473 39.6458 91.3367 39.6771 91.2316C39.7085 91.1265 39.7615 91.029 39.8327 90.9456C39.904 90.8622 39.9919 90.7946 40.0909 90.7472C40.5049 90.535 41.063 90.666 41.4612 90.8573C41.8595 91.0486 42.5643 91.8582 42.6482 91.9578C42.9102 91.7744 43.146 91.5909 43.374 91.418C44.0369 90.9097 44.5898 90.4538 45.0116 90.1079L45.3365 90.4066C44.8963 90.763 44.312 91.2267 43.6072 91.7403C43.3452 91.929 43.0831 92.1255 42.7871 92.322C42.9307 92.6227 43.0567 92.9315 43.1644 93.2469C43.6884 93.263 44.2077 93.3511 44.7077 93.5089C44.8177 93.2155 44.9225 92.9299 45.0142 92.6574C45.2763 91.8844 45.4911 91.211 45.6431 90.6844L45.9968 91.0093C45.8396 91.5045 45.6352 92.1097 45.3837 92.791C45.2736 93.0871 45.1505 93.4041 45.0195 93.729C45.1295 93.7919 46.0178 94.3291 46.2929 94.73C46.568 95.1309 46.7619 95.6235 46.6152 96.0663C46.5838 96.1711 46.5309 96.2682 46.4598 96.3514C46.3887 96.4346 46.301 96.5021 46.2023 96.5494C46.1037 96.5968 45.9962 96.623 45.8868 96.6264C45.7774 96.6299 45.6685 96.6104 45.5671 96.5693C44.9645 96.3073 44.7417 95.1282 44.8046 94.5413C44.8046 94.5072 44.8911 94.1378 44.9487 93.9046C44.8937 94.0356 44.8439 94.1666 44.7863 94.3002C44.6762 94.5623 44.5557 94.8243 44.4299 95.1178C44.3644 95.2514 44.2989 95.3798 44.2308 95.5265C44.1627 95.6732 44.0814 95.8042 44.0081 95.9431C43.8273 96.2654 43.6308 96.5798 43.4238 96.8943C43.6596 96.9938 44.4876 97.3528 44.7915 97.6803C45.0955 98.0078 45.3889 98.4926 45.3156 98.9537C45.3003 99.0619 45.2626 99.1658 45.2049 99.2586C45.1472 99.3514 45.0708 99.4312 44.9806 99.4929C44.8904 99.5545 44.7883 99.5966 44.6808 99.6166C44.5734 99.6366 44.4629 99.6339 44.3566 99.6088C43.7199 99.4359 43.3216 98.3118 43.3085 97.7222C43.3085 97.6856 43.3347 97.2611 43.3557 97.0279C43.2299 97.2165 43.0936 97.4026 42.9731 97.5886C42.5879 98.1258 42.187 98.6577 41.7809 99.1896C41.6578 99.352 41.5372 99.5171 41.4167 99.6795C41.5005 99.7136 42.4936 100.12 42.8342 100.481C43.1356 100.801 43.4316 101.294 43.3583 101.752C43.343 101.861 43.3053 101.965 43.2474 102.058C43.1896 102.151 43.1129 102.231 43.0224 102.292C42.9319 102.354 42.8294 102.396 42.7217 102.416C42.6139 102.436 42.5032 102.433 42.3967 102.407C41.7599 102.234 41.3643 101.11 41.3486 100.521C41.3486 100.476 41.3879 99.8656 41.4062 99.711C41.1442 100.07 40.8822 100.432 40.6202 100.798C40.2879 101.293 39.9868 101.807 39.7188 102.339C39.7581 102.355 40.7983 102.774 41.1468 103.143C41.4481 103.463 41.7442 103.956 41.6709 104.417C41.6556 104.525 41.6179 104.629 41.56 104.723C41.5022 104.816 41.4255 104.895 41.335 104.957C41.2444 105.019 41.142 105.061 41.0342 105.081C40.9265 105.1 40.8158 105.097 40.7092 105.072C40.0725 104.896 39.6769 103.762 39.6612 103.185C39.6612 103.146 39.69 102.68 39.7109 102.46H39.6743C39.4207 103.003 39.2164 103.567 39.0637 104.147C38.9747 104.464 38.9065 104.773 38.8489 105.077C39.0506 105.135 39.9677 105.41 40.3188 105.709C40.6699 106.007 41.0027 106.45 40.9765 106.914C40.9733 107.023 40.9473 107.131 40.9001 107.23C40.8529 107.329 40.7856 107.417 40.7025 107.488C40.6193 107.559 40.5222 107.612 40.4174 107.644C40.3125 107.675 40.2022 107.685 40.0935 107.671C39.4411 107.569 38.9249 106.495 38.8332 105.913C38.8332 105.882 38.8148 105.554 38.807 105.313C38.7834 105.452 38.7546 105.591 38.7362 105.722C38.6576 106.217 38.6157 106.673 38.5816 107.076C38.5633 107.307 38.5528 107.517 38.5449 107.71C38.7126 107.873 39.3808 108.525 39.5511 108.945C39.7214 109.364 39.8131 109.917 39.5799 110.318C39.5264 110.413 39.4535 110.496 39.366 110.562C39.2786 110.627 39.1783 110.674 39.0718 110.699C38.9653 110.723 38.8548 110.725 38.7474 110.705C38.6399 110.684 38.538 110.642 38.448 110.58C37.924 110.189 37.9502 109.007 38.1388 108.439C38.1572 108.389 38.4978 107.653 38.5056 107.671C38.5056 107.483 38.5056 107.281 38.5292 107.061C38.5528 106.655 38.5842 106.196 38.6524 105.701C38.7209 105.165 38.8198 104.633 38.9485 104.108C39.0905 103.519 39.2843 102.944 39.5275 102.389C39.5284 102.383 39.5284 102.377 39.5275 102.37C39.3991 102.515 39.0271 102.908 39.0035 102.934C38.5502 103.314 37.4549 103.78 36.8942 103.429C36.8033 103.368 36.7263 103.288 36.6681 103.195C36.6099 103.102 36.5718 102.998 36.5562 102.889C36.5407 102.781 36.548 102.67 36.5778 102.564C36.6076 102.459 36.6591 102.361 36.7291 102.276C37.0174 101.909 37.5781 101.797 38.0209 101.802C38.5161 101.802 39.4908 102.271 39.5668 102.308C39.8243 101.747 40.1184 101.205 40.4472 100.683C40.6411 100.379 40.8455 100.08 41.0525 99.7843C40.9372 99.9049 40.8324 100.012 40.8167 100.025C40.366 100.405 39.2681 100.872 38.7205 100.521C38.6296 100.459 38.5526 100.379 38.4944 100.286C38.4362 100.193 38.3981 100.089 38.3825 99.9808C38.367 99.8722 38.3743 99.7615 38.4041 99.6559C38.4339 99.5504 38.4854 99.4522 38.5554 99.3677C38.841 99.0009 39.4044 98.8882 39.8446 98.8935C40.2848 98.8987 41.1311 99.276 41.3512 99.3782L41.5922 99.0402C41.9827 98.4978 42.3783 97.9581 42.7451 97.4183C42.8735 97.2296 43.0072 97.0357 43.1172 96.8445C43.015 96.9519 42.9286 97.0436 42.9128 97.0541C42.4595 97.434 41.3643 97.9004 40.8167 97.5493C40.7262 97.4879 40.6495 97.4082 40.5916 97.3155C40.5336 97.2227 40.4956 97.1189 40.4801 97.0106C40.4646 96.9024 40.4718 96.792 40.5013 96.6867C40.5309 96.5814 40.582 96.4834 40.6516 96.399C40.9372 96.0296 41.5005 95.9169 41.9407 95.9222C42.3809 95.9274 43.1434 96.268 43.4054 96.3885C43.526 96.1894 43.6439 95.9903 43.7513 95.7911C43.8194 95.6523 43.8954 95.5291 43.9583 95.3824C44.0212 95.2357 44.0867 95.1046 44.1496 94.9684C44.2596 94.7064 44.3775 94.4234 44.4797 94.1614C44.5531 93.978 44.6186 93.8024 44.6841 93.6242C44.5583 93.8155 44.3015 94.1823 44.2753 94.2112C43.9203 94.5893 43.4735 94.8691 42.9783 95.0234C42.9397 95.0661 42.8976 95.1055 42.8526 95.1413C42.7686 95.2117 42.6709 95.2638 42.5656 95.2942C42.4603 95.3246 42.3499 95.3326 42.2413 95.3178C42.1328 95.303 42.0285 95.2657 41.9352 95.2082C41.842 95.1507 41.7617 95.0744 41.6997 94.9841C41.346 94.426 41.8071 93.3281 42.1818 92.8722C42.2054 92.846 42.4779 92.584 42.6534 92.4189C42.5355 92.5002 42.4229 92.5788 42.2997 92.66C42.0613 92.8224 41.815 92.977 41.5529 93.1447L41.1599 93.3779C41.0315 93.4592 40.8822 93.5273 40.7433 93.6006C40.4184 93.771 40.0778 93.9256 39.7319 94.0723C39.8734 94.2845 40.366 95.0418 40.442 95.4767C40.518 95.9117 40.4944 96.4855 40.18 96.8261C40.1074 96.9082 40.0185 96.9742 39.9189 97.0199C39.8193 97.0655 39.7113 97.0899 39.6017 97.0914C39.4922 97.0929 39.3836 97.0714 39.2828 97.0284C39.182 96.9855 39.0913 96.9219 39.0166 96.8418C38.5842 96.344 38.8725 95.1885 39.1764 94.6828C39.1948 94.6514 39.4542 94.3133 39.5983 94.1299C39.3913 94.219 39.1843 94.3055 38.9694 94.3919C38.3537 94.6278 37.7222 94.8479 37.0933 95.0706C36.9021 95.1361 36.7108 95.2068 36.5195 95.2776C36.5693 95.3509 37.1746 96.2366 37.2584 96.7266C37.3344 97.1589 37.3108 97.7327 36.9964 98.0733C36.924 98.1552 36.8354 98.221 36.7362 98.2666C36.6369 98.3123 36.5293 98.3368 36.4201 98.3385C36.3109 98.3402 36.2025 98.3192 36.1019 98.2767C36.0012 98.2342 35.9106 98.1712 35.8356 98.0917C35.4007 97.5938 35.6889 96.4383 35.9929 95.9326C36.0138 95.8933 36.3885 95.4086 36.4881 95.2881C36.0662 95.4427 35.647 95.5972 35.2409 95.7702C34.6901 95.9957 34.1552 96.2583 33.6399 96.5562C33.6635 96.5903 34.2976 97.5126 34.3867 98.0131C34.46 98.4454 34.4365 99.0192 34.1246 99.3599C34.0523 99.4421 33.9635 99.5083 33.864 99.5542C33.7645 99.6001 33.6566 99.6247 33.547 99.6264C33.4375 99.6282 33.3288 99.607 33.2279 99.5642C33.127 99.5215 33.0362 99.4581 32.9613 99.3782C32.5263 98.8804 32.8145 97.7249 33.1185 97.2192C33.1394 97.1851 33.4224 96.8156 33.5613 96.6427L33.5351 96.6139C33.0239 96.9267 32.5416 97.2845 32.094 97.6829C31.8451 97.9004 31.6197 98.1205 31.4049 98.3406C31.5385 98.5004 32.1516 99.2367 32.28 99.6769C32.4084 100.117 32.4425 100.675 32.1647 101.047C32.1017 101.137 32.0205 101.213 31.9265 101.269C31.8325 101.326 31.7277 101.362 31.6189 101.375C31.5101 101.389 31.3996 101.38 31.2946 101.348C31.1896 101.316 31.0924 101.263 31.0092 101.191C30.5219 100.746 30.6817 99.5669 30.928 99.0297C30.9411 99.0009 31.1114 98.7205 31.2372 98.5057C31.1429 98.6053 31.0407 98.7074 30.9516 98.807C30.6136 99.1738 30.328 99.5328 30.0764 99.8551C29.9349 100.036 29.8144 100.206 29.6965 100.363C29.7489 100.589 29.9454 101.503 29.8563 101.936C29.7672 102.368 29.5419 102.895 29.12 103.096C29.023 103.147 28.9166 103.176 28.8075 103.183C28.6985 103.19 28.5892 103.174 28.4866 103.136C28.384 103.099 28.2904 103.04 28.2118 102.964C28.1332 102.888 28.0713 102.797 28.03 102.695C27.8047 102.074 28.4912 101.1 28.955 100.738C28.9969 100.707 29.6808 100.29 29.6834 100.301C29.7908 100.146 29.9087 99.9809 30.0397 99.8053C30.2834 99.4804 30.5638 99.1136 30.8939 98.7389C31.2467 98.3288 31.6229 97.9395 32.0206 97.5729C32.4565 97.1722 32.9264 96.8101 33.4251 96.4907H33.4434C33.2574 96.5405 32.7281 96.6637 32.6888 96.6689C32.1018 96.7344 30.9306 96.5196 30.6581 95.9169C30.6169 95.816 30.5971 95.7076 30.6 95.5986C30.603 95.4896 30.6285 95.3825 30.6751 95.2839C30.7217 95.1853 30.7882 95.0975 30.8706 95.0261C30.9529 94.9546 31.0492 94.9011 31.1533 94.8688C31.5961 94.7038 32.128 94.9186 32.4923 95.1806Z" fill="#263238"/>
<path d="M45.7978 101.115C46.2799 100.924 47.438 100.992 47.438 100.992C47.438 100.992 47.1603 101.742 47.1367 101.778C46.8747 102.302 46.0284 103.149 45.3759 103.036C45.2689 103.014 45.1678 102.969 45.079 102.905C44.9902 102.841 44.9157 102.76 44.8602 102.666C44.8047 102.571 44.7695 102.467 44.7568 102.358C44.7441 102.25 44.7542 102.14 44.7864 102.035C44.9017 101.595 45.389 101.275 45.7978 101.115Z" fill="#263238"/>
<path d="M57.5259 101.286C57.5259 101.286 57.7093 102.072 57.7146 102.114C57.7748 102.701 57.5469 103.869 56.9285 104.134C56.8267 104.175 56.7175 104.194 56.6078 104.19C56.4982 104.187 56.3905 104.16 56.2918 104.112C56.1931 104.064 56.1055 103.996 56.0346 103.912C55.9638 103.828 55.9112 103.731 55.8804 103.625C55.7363 103.183 55.959 102.651 56.2106 102.292C56.5224 101.867 57.5259 101.286 57.5259 101.286Z" fill="#263238"/>
<path d="M46.3193 97.7721C46.8145 97.7197 47.8364 98.0577 47.9176 98.0839C48.1099 97.498 48.3409 96.9255 48.6094 96.3703C48.7613 96.048 48.929 95.7257 49.0967 95.406C48.9998 95.5397 48.9081 95.6681 48.895 95.6681C48.4915 96.0978 47.4617 96.6978 46.8643 96.4175C46.7664 96.3678 46.6801 96.2981 46.6107 96.213C46.5414 96.1279 46.4907 96.0293 46.4618 95.9234C46.4329 95.8175 46.4265 95.7067 46.4431 95.5982C46.4596 95.4897 46.4987 95.3859 46.5577 95.2934C46.7962 94.8951 47.3438 94.7117 47.7788 94.6645C48.2137 94.6174 49.102 94.8846 49.3352 94.9606L49.5317 94.5938C49.854 94.0069 50.1763 93.4252 50.475 92.8435C50.5824 92.6391 50.6767 92.4347 50.7737 92.2277C50.6872 92.3483 50.6112 92.4478 50.5981 92.4609C50.1972 92.8933 49.1648 93.4907 48.5674 93.2103C48.4699 93.1606 48.3839 93.0911 48.3148 93.0062C48.2458 92.9213 48.1952 92.8229 48.1663 92.7173C48.1375 92.6118 48.131 92.5013 48.1473 92.3931C48.1635 92.2849 48.2022 92.1813 48.2609 92.0889C48.5019 91.688 49.0469 91.5072 49.4845 91.46C49.9221 91.4128 50.7213 91.6539 50.9964 91.743C51.0881 91.5281 51.1824 91.3159 51.2584 91.1037C51.3108 90.9596 51.3711 90.8233 51.413 90.6739C51.4549 90.5246 51.5073 90.3831 51.5519 90.239C51.6305 89.9586 51.7117 89.673 51.7824 89.3979C51.8322 89.2066 51.8741 89.0232 51.9187 88.8398C51.8165 89.0442 51.6069 89.4424 51.5859 89.4739C51.2532 89.9613 50.3256 90.708 49.6915 90.522C49.5875 90.4875 49.4919 90.4316 49.4107 90.358C49.3295 90.2844 49.2647 90.1946 49.2203 90.0944C49.1759 89.9943 49.1529 89.8859 49.1528 89.7763C49.1527 89.6668 49.1756 89.5584 49.2199 89.4582C49.3954 89.0285 49.9064 88.7638 50.3335 88.6511C50.8025 88.5254 51.8217 88.6931 51.9501 88.714C52.0235 88.4101 52.0916 88.114 52.1493 87.8336C52.3248 87.0161 52.448 86.3113 52.5371 85.7637L52.9773 85.782C52.8777 86.3375 52.7336 87.0685 52.5318 87.9175C52.4585 88.2267 52.3772 88.5568 52.2881 88.8948C52.5924 89.0284 52.8882 89.1807 53.1738 89.3507C53.5842 89.0278 54.0375 88.7632 54.5206 88.5647C54.4131 88.2686 54.3057 87.9856 54.2009 87.7183C53.9022 86.9559 53.6218 86.3087 53.3939 85.8082L53.876 85.8266C54.0777 86.3061 54.3162 86.8956 54.5651 87.5795C54.6778 87.8756 54.7878 88.1978 54.9005 88.528C55.0263 88.507 56.0481 88.3367 56.5172 88.4599C56.9443 88.5725 57.4552 88.8346 57.6334 89.2669C57.6777 89.3671 57.7005 89.4755 57.7004 89.5851C57.7004 89.6946 57.6774 89.803 57.633 89.9032C57.5886 90.0033 57.5237 90.0931 57.4425 90.1667C57.3614 90.2404 57.2657 90.2962 57.1617 90.3307C56.5276 90.5194 55.5896 89.7726 55.2673 89.2826C55.2464 89.2538 55.0682 88.9184 54.9608 88.7062C55.0053 88.8398 55.0498 88.9682 55.0944 89.1123C55.1835 89.3874 55.2673 89.6652 55.3564 89.9639C55.3931 90.1106 55.4324 90.2573 55.4691 90.4041C55.5058 90.5508 55.5372 90.7133 55.5713 90.8678C55.642 91.2268 55.6997 91.5963 55.7468 91.9683C55.9879 91.8897 56.8499 91.6251 57.2901 91.6722C57.7303 91.7194 58.2727 91.9002 58.5138 92.3011C58.5725 92.3933 58.6113 92.4968 58.6278 92.6049C58.6443 92.713 58.638 92.8234 58.6094 92.9289C58.5808 93.0345 58.5305 93.1329 58.4617 93.2179C58.3929 93.3029 58.3071 93.3726 58.2098 93.4226C57.6124 93.7055 56.58 93.1081 56.1792 92.6784C56.1529 92.6496 55.8988 92.309 55.7625 92.1177C55.7887 92.343 55.8176 92.5657 55.8385 92.7937C55.8962 93.4514 55.9329 94.1195 55.9748 94.7851C55.9748 94.9894 56.001 95.1912 56.0141 95.3956C56.1005 95.3667 57.1198 95.0287 57.6124 95.0811C58.05 95.1283 58.595 95.3091 58.836 95.7074C58.8952 95.7997 58.9344 95.9034 58.9511 96.0118C58.9679 96.1202 58.9617 96.2309 58.9331 96.3367C58.9044 96.4426 58.854 96.5413 58.7849 96.6265C58.7159 96.7117 58.6298 96.7815 58.5321 96.8314C57.9347 97.1118 56.9023 96.517 56.4988 96.0847C56.47 96.0532 56.1032 95.5606 56.0167 95.4322C56.0481 95.8803 56.0822 96.3257 56.1346 96.7633C56.2035 97.3545 56.3094 97.9409 56.4517 98.5189C56.4936 98.5058 57.5548 98.1494 58.0578 98.2044C58.4954 98.249 59.0404 98.4324 59.2815 98.8307C59.3407 98.923 59.3799 99.0267 59.3966 99.1351C59.4133 99.2435 59.4071 99.3542 59.3785 99.46C59.3499 99.5659 59.2994 99.6646 59.2304 99.7498C59.1613 99.835 59.0752 99.9048 58.9775 99.9547C58.3801 100.235 57.3478 99.6403 56.9469 99.208C56.9207 99.1792 56.6403 98.8045 56.5119 98.6237L56.4779 98.6394C56.6378 99.2182 56.85 99.7812 57.1119 100.322C57.2508 100.62 57.4002 100.898 57.5521 101.165C57.7434 101.079 58.6212 100.691 59.0797 100.691C59.5383 100.691 60.0833 100.809 60.3636 101.181C60.4321 101.266 60.4821 101.365 60.5103 101.47C60.5386 101.576 60.5445 101.686 60.5278 101.794C60.511 101.902 60.4719 102.005 60.413 102.097C60.354 102.19 60.2765 102.268 60.1855 102.329C59.6221 102.675 58.5321 102.195 58.0893 101.805C58.0657 101.784 57.8273 101.543 57.6805 101.367C57.7513 101.485 57.822 101.611 57.8928 101.723C58.1548 102.15 58.4168 102.523 58.6553 102.853C58.7915 103.039 58.9173 103.204 59.0404 103.358C59.271 103.358 60.2038 103.432 60.6125 103.639C61.0213 103.846 61.4458 104.207 61.527 104.666C61.5488 104.773 61.5479 104.884 61.5243 104.991C61.5007 105.098 61.455 105.199 61.3901 105.287C61.3252 105.376 61.2426 105.45 61.1475 105.504C61.0524 105.559 60.9469 105.593 60.8379 105.604C60.1802 105.651 59.4308 104.724 59.2107 104.176C59.1924 104.129 58.9802 103.356 58.9933 103.356H59.0064C58.8858 103.212 58.7601 103.054 58.6264 102.879C58.3801 102.554 58.1024 102.185 57.8404 101.763C57.5434 101.312 57.273 100.844 57.0307 100.361C56.7559 99.8213 56.5297 99.2584 56.3547 98.6787C56.3547 98.6787 56.3547 98.663 56.3547 98.6577C56.3547 98.8516 56.3233 99.3914 56.3154 99.4438C56.2185 100.025 55.6892 101.092 55.0367 101.189C54.9278 101.201 54.8175 101.191 54.7129 101.158C54.6082 101.125 54.5116 101.071 54.4292 100.999C54.3467 100.926 54.2804 100.838 54.2343 100.738C54.1882 100.639 54.1634 100.531 54.1616 100.421C54.1406 99.9547 54.4944 99.5014 54.8324 99.2211C55.2149 98.904 56.2551 98.621 56.339 98.5975C56.1754 98.0038 56.052 97.3998 55.9695 96.7895C55.9198 96.4332 55.8804 96.0742 55.8438 95.7126C55.8438 95.8803 55.828 96.0297 55.8228 96.0506C55.7259 96.6323 55.1966 97.6987 54.5441 97.7957C54.4329 97.8106 54.3198 97.8016 54.2123 97.7692C54.1049 97.7368 54.0056 97.6818 53.9212 97.6078C53.8368 97.5338 53.7692 97.4426 53.723 97.3403C53.6768 97.2381 53.653 97.1271 53.6533 97.0149C53.6323 96.5511 53.986 96.0978 54.324 95.8148C54.6621 95.5318 55.5503 95.2724 55.7835 95.2069C55.7835 95.068 55.7599 94.9292 55.7468 94.7903C55.6918 94.1248 55.6394 93.4619 55.5686 92.812C55.5451 92.5815 55.511 92.3561 55.4796 92.1334C55.4796 92.2801 55.4638 92.3954 55.4612 92.4243C55.3643 93.0059 54.835 94.075 54.1799 94.1693C54.0712 94.1814 53.9612 94.1706 53.8568 94.1377C53.7525 94.1048 53.6562 94.0504 53.5741 93.9782C53.492 93.9059 53.4258 93.8173 53.3799 93.718C53.334 93.6187 53.3093 93.511 53.3074 93.4016C53.2864 92.9378 53.6402 92.4845 53.9782 92.2042C54.3162 91.9238 55.118 91.6801 55.3957 91.6041C55.3564 91.3762 55.3171 91.1456 55.2673 90.9255C55.2306 90.7761 55.2044 90.6294 55.1599 90.4801L55.0341 90.0425C54.945 89.7647 54.8559 89.4791 54.7721 89.2119C54.7092 89.0258 54.6437 88.8503 54.5808 88.6721C54.607 88.9001 54.6516 89.3481 54.6516 89.3848C54.6256 89.9028 54.4668 90.4054 54.1904 90.8443C54.1906 90.9023 54.1854 90.9602 54.1747 91.0172C54.1565 91.1253 54.116 91.2285 54.0556 91.32C53.9952 91.4116 53.9163 91.4895 53.824 91.5487C53.7317 91.6079 53.628 91.6472 53.5197 91.6639C53.4113 91.6807 53.3006 91.6746 53.1947 91.646C52.5633 91.4522 52.1991 90.3176 52.1912 89.7281C52.1912 89.694 52.2253 89.3167 52.2541 89.0782C52.2148 89.2145 52.1807 89.3403 52.1414 89.4896C52.0654 89.77 51.979 90.0477 51.8794 90.3464C51.8322 90.4879 51.7824 90.632 51.7327 90.7761C51.6829 90.9202 51.62 91.0696 51.5623 91.2163C51.4235 91.557 51.2663 91.895 51.1012 92.233C51.3449 92.3011 52.2122 92.5553 52.5528 92.8382C52.8934 93.1212 53.2471 93.5693 53.2262 94.0357C53.2247 94.1453 53.2002 94.2533 53.1545 94.3529C53.1087 94.4525 53.0426 94.5415 52.9604 94.614C52.8783 94.6865 52.7818 94.7411 52.6773 94.7742C52.5728 94.8072 52.4626 94.8181 52.3536 94.806C51.6986 94.7091 51.1693 93.6453 51.0697 93.0636C51.0697 93.0269 51.0409 92.5998 51.0331 92.3666C50.9309 92.5684 50.8313 92.7701 50.7213 92.9719C50.4068 93.5509 50.0714 94.13 49.7361 94.7065L49.4347 95.2305C49.5212 95.2541 50.5588 95.5344 50.9387 95.8489C51.3187 96.1633 51.6331 96.5825 51.6147 97.0489C51.6129 97.1585 51.5881 97.2666 51.5421 97.366C51.496 97.4655 51.4296 97.5543 51.3472 97.6266C51.2648 97.6989 51.1681 97.7531 51.0635 97.7859C50.9589 97.8186 50.8485 97.8291 50.7396 97.8166C50.0872 97.7223 49.5553 96.6559 49.4583 96.0742C49.4583 96.0297 49.4164 95.4191 49.4164 95.2619C49.1963 95.6523 48.9788 96.048 48.7797 96.4384C48.5113 96.9702 48.2759 97.518 48.0748 98.0787C48.1168 98.0787 49.1989 98.3774 49.5893 98.6997C49.9299 98.9826 50.2837 99.4333 50.2627 99.8997C50.2608 100.009 50.2361 100.117 50.1902 100.216C50.1443 100.315 50.0782 100.404 49.996 100.476C49.9139 100.549 49.8176 100.603 49.7133 100.636C49.609 100.669 49.4989 100.679 49.3902 100.667C48.7378 100.573 48.2058 99.5067 48.1063 98.925C48.1063 98.8883 48.0748 98.4219 48.0696 98.1992H48.0303C47.8458 98.7696 47.7125 99.3554 47.632 99.9495C47.5822 100.277 47.5534 100.591 47.5351 100.898C47.7421 100.932 48.6854 101.092 49.0705 101.343C49.4557 101.595 49.8409 101.996 49.8723 102.462C49.8825 102.572 49.8698 102.682 49.8349 102.786C49.8 102.89 49.7437 102.985 49.6697 103.066C49.5957 103.147 49.5055 103.212 49.405 103.256C49.3045 103.3 49.1959 103.322 49.0862 103.322C48.4259 103.298 47.7761 102.297 47.6189 101.731C47.6189 101.7 47.556 101.375 47.5194 101.139C47.5194 101.278 47.501 101.422 47.4984 101.553C47.4801 102.054 47.4984 102.512 47.5115 102.918C47.5115 103.149 47.5377 103.356 47.5534 103.55C47.7395 103.689 48.4836 104.255 48.7037 104.65C48.9238 105.046 49.0889 105.583 48.9002 106.01C48.8592 106.111 48.7975 106.203 48.719 106.279C48.6405 106.356 48.5469 106.415 48.4443 106.453C48.3417 106.491 48.2323 106.507 48.1231 106.5C48.014 106.493 47.9074 106.464 47.8102 106.414C47.2338 106.089 47.1237 104.902 47.2416 104.317C47.2416 104.268 47.5036 103.505 47.5036 103.51C47.4853 103.322 47.4669 103.12 47.4512 102.902C47.425 102.496 47.3988 102.035 47.4067 101.535C47.4071 100.994 47.4395 100.455 47.5036 99.918C47.5736 99.3165 47.6954 98.7221 47.8678 98.1415V98.1206C47.7578 98.2804 47.4355 98.7154 47.4067 98.7468C47.0058 99.1791 45.9761 99.7766 45.3786 99.4962C45.2812 99.4465 45.1951 99.3769 45.126 99.2921C45.057 99.2072 45.0064 99.1088 44.9775 99.0032C44.9487 98.8977 44.9422 98.7872 44.9585 98.679C44.9747 98.5708 45.0134 98.4672 45.0721 98.3747C45.3367 98.0027 45.8817 97.8219 46.3193 97.7721Z" fill="#263238"/>
<path d="M105.994 20.8267H32.8196C31.8255 20.8267 31.0195 21.6326 31.0195 22.6267V93.7628C31.0195 94.757 31.8255 95.5629 32.8196 95.5629H105.994C106.988 95.5629 107.794 94.757 107.794 93.7628V22.6267C107.794 21.6326 106.988 20.8267 105.994 20.8267Z" fill="white" stroke="#263238" stroke-width="0.3" stroke-linecap="round" stroke-linejoin="round"/>
<path d="M106.044 20.8267H32.7751C32.3099 20.8267 31.8638 21.0113 31.5346 21.3399C31.2055 21.6686 31.0202 22.1144 31.0195 22.5796V25.6741H107.786V22.5796C107.786 22.1167 107.602 21.6728 107.276 21.3445C106.95 21.0162 106.507 20.8301 106.044 20.8267Z" fill="#FB855E" stroke="#263238" stroke-width="0.3" stroke-linecap="round" stroke-linejoin="round"/>
<path d="M34.7037 23.1664C34.7042 23.3095 34.6622 23.4496 34.5831 23.5688C34.5039 23.6881 34.3912 23.7812 34.2591 23.8364C34.127 23.8915 33.9815 23.9062 33.841 23.8786C33.7006 23.851 33.5715 23.7823 33.4701 23.6813C33.3687 23.5802 33.2995 23.4514 33.2714 23.311C33.2433 23.1707 33.2575 23.0251 33.3121 22.8928C33.3668 22.7605 33.4595 22.6474 33.5785 22.5679C33.6974 22.4883 33.8374 22.4458 33.9805 22.4458C34.1716 22.4465 34.3548 22.5225 34.4902 22.6574C34.6256 22.7924 34.7023 22.9752 34.7037 23.1664Z" fill="white" stroke="#263238" stroke-width="0.3" stroke-linecap="round" stroke-linejoin="round"/>
<path d="M37.7349 23.1664C37.7354 23.3095 37.6935 23.4496 37.6143 23.5688C37.5352 23.6881 37.4224 23.7812 37.2903 23.8364C37.1582 23.8915 37.0127 23.9062 36.8723 23.8786C36.7318 23.851 36.6027 23.7823 36.5013 23.6813C36.3999 23.5802 36.3308 23.4514 36.3027 23.311C36.2745 23.1707 36.2887 23.0251 36.3434 22.8928C36.398 22.7605 36.4907 22.6474 36.6097 22.5679C36.7287 22.4883 36.8686 22.4458 37.0117 22.4458C37.2031 22.4458 37.3866 22.5216 37.5222 22.6567C37.6577 22.7917 37.7342 22.975 37.7349 23.1664Z" fill="white" stroke="#263238" stroke-width="0.3" stroke-linecap="round" stroke-linejoin="round"/>
<path d="M40.7667 23.1664C40.7672 23.3096 40.7251 23.4498 40.6459 23.5691C40.5666 23.6884 40.4537 23.7815 40.3214 23.8366C40.1892 23.8917 40.0436 23.9062 39.903 23.8784C39.7625 23.8506 39.6334 23.7816 39.5321 23.6803C39.4308 23.579 39.3619 23.4499 39.3341 23.3094C39.3063 23.1689 39.3208 23.0233 39.3759 22.891C39.4309 22.7588 39.524 22.6459 39.6433 22.5666C39.7627 22.4873 39.9029 22.4453 40.0461 22.4458C40.237 22.4465 40.4199 22.5226 40.5549 22.6576C40.6898 22.7926 40.766 22.9755 40.7667 23.1664Z" fill="white" stroke="#263238" stroke-width="0.3" stroke-linecap="round" stroke-linejoin="round"/>
<path d="M70.5794 34.4991V29.5914H69.5732V29.0386H72.1935V29.5914H71.1873V34.4991H70.5794Z" fill="#263238"/>
<path d="M72.5708 30.3564C72.5708 29.5205 72.9848 28.9834 73.818 28.9834C74.6512 28.9834 75.0757 29.5074 75.0757 30.3564V33.1784C75.0757 34.0063 74.6617 34.5513 73.818 34.5513C72.9743 34.5513 72.5708 34.0063 72.5708 33.1784V30.3564ZM73.1708 33.2098C73.1708 33.7103 73.3831 33.9959 73.818 33.9959C74.253 33.9959 74.4652 33.7076 74.4652 33.2098V30.3276C74.4652 29.835 74.2635 29.5415 73.818 29.5415C73.3726 29.5415 73.1708 29.8376 73.1708 30.3276V33.2098Z" fill="#263238"/>
<path d="M76.931 29.0386C77.78 29.0386 78.1704 29.5626 78.1704 30.3958V33.1497C78.1704 33.9829 77.78 34.4991 76.931 34.4991H75.6523V29.0386H76.931ZM76.931 33.9436C77.3686 33.9436 77.5782 33.6816 77.5782 33.1733V30.3644C77.5782 29.8639 77.3686 29.5914 76.9231 29.5914H76.2681V33.9436H76.931Z" fill="#263238"/>
<path d="M79.3465 33.3986L79.1369 34.4991H78.5762L79.6243 29.0386H80.5047L81.5527 34.4991H80.9448L80.7326 33.3986H79.3465ZM79.4251 32.8746H80.6435L80.0251 29.7303L79.4251 32.8746Z" fill="#263238"/>
<path d="M82.6086 32.5392L81.4531 29.0386H82.0846L82.9362 31.7217L83.793 29.0386H84.3694L83.2087 32.5392V34.4991H82.6086V32.5392Z" fill="#263238"/>
<path d="M35.8091 29.1878V29.2664H35.5025V29.1695C35.5025 28.9074 35.4029 28.7555 35.1697 28.7555C34.9366 28.7555 34.8396 28.9101 34.8396 29.1668C34.8396 29.8166 35.8117 29.8795 35.8117 30.6944C35.8117 31.132 35.6021 31.4176 35.1593 31.4176C34.7165 31.4176 34.5068 31.132 34.5068 30.6944V30.5293H34.8108V30.7232C34.8108 30.9853 34.9182 31.1372 35.1488 31.1372C35.3794 31.1372 35.4894 30.9853 35.4894 30.7232C35.4894 30.0787 34.5199 30.0158 34.5199 29.2009C34.5199 28.7528 34.7269 28.4751 35.1619 28.4751C35.5968 28.4751 35.8091 28.7476 35.8091 29.1878Z" fill="#263238"/>
<path d="M37.3737 29.1903V29.4524H37.0672V29.1746C37.0672 28.9126 36.965 28.7554 36.7291 28.7554C36.4933 28.7554 36.3885 28.9126 36.3885 29.1746V30.7074C36.3885 30.9695 36.4959 31.124 36.7291 31.124C36.9623 31.124 37.0672 30.9668 37.0672 30.7074V30.3301H37.3737V30.6891C37.3737 31.1293 37.1667 31.4175 36.7213 31.4175C36.2758 31.4175 36.0688 31.1293 36.0688 30.6891V29.1903C36.0688 28.7528 36.2758 28.4619 36.7213 28.4619C37.1667 28.4619 37.3737 28.7528 37.3737 29.1903Z" fill="#263238"/>
<path d="M37.9917 30.0864V31.3965H37.6694V28.4907H37.9917V29.8008H38.7044V28.4907H39.0267V31.3887H38.7044V30.0786L37.9917 30.0864Z" fill="#263238"/>
<path d="M40.3896 29.7746V30.0655H39.6821V31.0952H40.5521V31.3887H39.3599V28.4907H40.5521V28.7842H39.6821V29.7746H40.3896Z" fill="#263238"/>
<path d="M41.5292 28.4907C41.9799 28.4907 42.1869 28.7527 42.1869 29.2113V30.6734C42.1869 31.1162 41.9799 31.3887 41.5292 31.3887H40.8506V28.4907H41.5292ZM41.5292 31.0952C41.7624 31.0952 41.8725 30.9511 41.8725 30.6865V29.1956C41.8725 28.9335 41.7624 28.7842 41.5266 28.7842H41.1781V31.0952H41.5292Z" fill="#263238"/>
<path d="M42.805 30.7074C42.805 30.9694 42.9072 31.124 43.143 31.124C43.3788 31.124 43.4784 30.9668 43.4784 30.7074V28.4907H43.7824V30.6891C43.7824 31.1293 43.578 31.4227 43.1325 31.4227C42.6871 31.4227 42.4854 31.1293 42.4854 30.6891V28.4907H42.805V30.7074Z" fill="#263238"/>
<path d="M44.0918 31.3887V28.4907H44.4167V31.0952H45.2447V31.3887H44.0918Z" fill="#263238"/>
<path d="M46.5206 29.7746V30.0655H45.8106V31.0952H46.6805V31.3887H45.4883V28.4907H46.6805V28.7842H45.8106V29.7746H46.5206Z" fill="#263238"/>
<path d="M54.4914 37.887V37.9735C54.5065 38.0894 54.4842 38.2071 54.4276 38.3094C54.371 38.4117 54.2832 38.4932 54.177 38.542C54.2845 38.5928 54.373 38.6767 54.4296 38.7813C54.4862 38.8859 54.5078 39.0059 54.4914 39.1237V39.3281C54.4914 39.5018 54.4224 39.6685 54.2995 39.7913C54.1767 39.9141 54.0101 39.9832 53.8363 39.9832C53.6626 39.9832 53.496 39.9141 53.3732 39.7913C53.2503 39.6685 53.1813 39.5018 53.1813 39.3281V39.1237C53.1644 39.0052 53.1865 38.8845 53.2441 38.7796C53.3018 38.6747 53.3919 38.5913 53.501 38.542C53.3929 38.4951 53.3032 38.4142 53.2455 38.3115C53.1878 38.2088 53.1653 38.0901 53.1813 37.9735V37.887C53.1813 37.7133 53.2503 37.5466 53.3732 37.4238C53.496 37.3009 53.6626 37.2319 53.8363 37.2319C54.0101 37.2319 54.1767 37.3009 54.2995 37.4238C54.4224 37.5466 54.4914 37.7133 54.4914 37.887ZM53.4957 37.887V38.0206C53.4957 38.2826 53.6241 38.4084 53.8416 38.4084C54.0591 38.4084 54.1875 38.2879 54.1875 38.0206V37.887C54.1875 37.604 54.0591 37.4756 53.8416 37.4756C53.6241 37.4756 53.4957 37.6119 53.4957 37.8948V37.887ZM53.4957 39.0792V39.3124C53.4957 39.5954 53.6215 39.729 53.8416 39.729C54.0617 39.729 54.1848 39.5954 54.1875 39.3124V39.0792C54.1875 38.8172 54.0695 38.6835 53.8416 38.6835C53.6136 38.6835 53.4957 38.8198 53.4957 39.087V39.0792Z" fill="#263238"/>
<path d="M55.0651 38.1069V38.4895H54.769V38.1069H55.0651ZM55.0651 39.6083V39.9882H54.769V39.6083H55.0651Z" fill="#263238"/>
<path d="M55.356 37.8999C55.356 37.4781 55.5656 37.2056 55.9874 37.2056C56.4093 37.2056 56.6189 37.4676 56.6189 37.8999V39.3201C56.6189 39.7419 56.4119 40.0171 55.9874 40.0171C55.563 40.0171 55.356 39.7419 55.356 39.3201V37.8999ZM55.6599 39.3384C55.6599 39.6004 55.7647 39.7367 55.9874 39.7367C56.2101 39.7367 56.3123 39.5873 56.3123 39.3384V37.8842C56.3123 37.6222 56.2101 37.4833 55.9874 37.4833C55.7647 37.4833 55.6599 37.6327 55.6599 37.8842V39.3384Z" fill="#263238"/>
<path d="M56.8862 37.8999C56.8862 37.4781 57.0958 37.2056 57.5177 37.2056C57.9396 37.2056 58.1492 37.4676 58.1492 37.8999V39.3201C58.1492 39.7419 57.9422 40.0171 57.5177 40.0171C57.0932 40.0171 56.8862 39.7419 56.8862 39.3201V37.8999ZM57.1902 39.3384C57.1902 39.6004 57.295 39.7367 57.5177 39.7367C57.7404 39.7367 57.8426 39.5873 57.8426 39.3384V37.8842C57.8426 37.6222 57.7404 37.4833 57.5177 37.4833C57.295 37.4833 57.1902 37.6327 57.1902 37.8842V39.3384Z" fill="#263238"/>
<path d="M61.3591 37.7351C61.2432 37.8053 61.1118 37.8458 60.9766 37.853V37.591C61.0854 37.5937 61.1919 37.5586 61.2779 37.4917C61.3638 37.4249 61.424 37.3303 61.4482 37.2241H61.6709V39.978H61.367L61.3591 37.7351Z" fill="#263238"/>
<path d="M62.103 37.8999C62.103 37.4781 62.31 37.2056 62.7319 37.2056C63.1537 37.2056 63.366 37.4676 63.366 37.8999V39.3201C63.366 39.7419 63.1564 40.0171 62.7319 40.0171C62.3074 40.0171 62.103 39.7419 62.103 39.3201V37.8999ZM62.4044 39.3384C62.4044 39.6004 62.5118 39.7367 62.7319 39.7367C62.952 39.7367 63.0594 39.5873 63.0594 39.3384V37.8842C63.0594 37.6222 62.9572 37.4833 62.7319 37.4833C62.5065 37.4833 62.4044 37.6327 62.4044 37.8842V39.3384Z" fill="#263238"/>
<path d="M63.9502 38.1069V38.4895H63.6567V38.1069H63.9502ZM63.9502 39.6083V39.9882H63.6567V39.6083H63.9502Z" fill="#263238"/>
<path d="M64.2437 37.8999C64.2437 37.4781 64.4506 37.2056 64.8725 37.2056C65.2944 37.2056 65.5066 37.4676 65.5066 37.8999V39.3201C65.5066 39.7419 65.297 40.0171 64.8725 40.0171C64.448 40.0171 64.2437 39.7419 64.2437 39.3201V37.8999ZM64.545 39.3384C64.545 39.6004 64.6524 39.7367 64.8725 39.7367C65.0926 39.7367 65.2 39.5873 65.2 39.3384V37.8842C65.2 37.6222 65.0952 37.4833 64.8725 37.4833C64.6498 37.4833 64.545 37.6327 64.545 37.8842V39.3384Z" fill="#263238"/>
<path d="M65.7739 37.8999C65.7739 37.4781 65.9809 37.2056 66.4028 37.2056C66.8246 37.2056 67.0369 37.4676 67.0369 37.8999V39.3201C67.0369 39.7419 66.8272 40.0171 66.4028 40.0171C65.9783 40.0171 65.7739 39.7419 65.7739 39.3201V37.8999ZM66.0752 39.3384C66.0752 39.6004 66.1827 39.7367 66.4028 39.7367C66.6229 39.7367 66.7303 39.5873 66.7303 39.3384V37.8842C66.7303 37.6222 66.6281 37.4833 66.4028 37.4833C66.1774 37.4833 66.0752 37.6327 66.0752 37.8842V39.3384Z" fill="#263238"/>
<path d="M70.4407 37.7351C70.3248 37.8053 70.1934 37.8458 70.0581 37.853V37.591C70.167 37.5937 70.2734 37.5586 70.3594 37.4917C70.4454 37.4249 70.5056 37.3303 70.5297 37.2241H70.7446V39.978H70.4407V37.7351Z" fill="#263238"/>
<path d="M72.4479 37.9024C72.4479 38.733 71.5151 39.0317 71.5098 39.6658V39.7103H72.4138V39.9881H71.2085V39.7522C71.2085 38.864 72.1413 38.691 72.1413 37.9181C72.1413 37.6351 72.047 37.4857 71.8164 37.4857C71.5858 37.4857 71.4941 37.6456 71.4941 37.8893V38.1329H71.2085V37.9102C71.2085 37.4884 71.3998 37.208 71.8269 37.208C72.254 37.208 72.4479 37.4831 72.4479 37.9024Z" fill="#263238"/>
<path d="M73.0266 38.1069V38.4895H72.7305V38.1069H73.0266ZM73.0266 39.6083V39.9882H72.7305V39.6083H73.0266Z" fill="#263238"/>
<path d="M73.3174 37.8999C73.3174 37.4781 73.5244 37.2056 73.9462 37.2056C74.3681 37.2056 74.5803 37.4676 74.5803 37.8999V39.3201C74.5803 39.7419 74.3707 40.0171 73.9462 40.0171C73.5218 40.0171 73.3174 39.7419 73.3174 39.3201V37.8999ZM73.6187 39.3384C73.6187 39.6004 73.7261 39.7367 73.9462 39.7367C74.1663 39.7367 74.2738 39.5873 74.2738 39.3384V37.8842C74.2738 37.6222 74.1689 37.4833 73.9462 37.4833C73.7235 37.4833 73.6187 37.6327 73.6187 37.8842V39.3384Z" fill="#263238"/>
<path d="M74.8477 37.8999C74.8477 37.4781 75.0547 37.2056 75.4765 37.2056C75.8984 37.2056 76.1106 37.4676 76.1106 37.8999V39.3201C76.1106 39.7419 75.901 40.0171 75.4765 40.0171C75.052 40.0171 74.8477 39.7419 74.8477 39.3201V37.8999ZM75.149 39.3384C75.149 39.6004 75.2564 39.7367 75.4765 39.7367C75.6966 39.7367 75.804 39.5873 75.804 39.3384V37.8842C75.804 37.6222 75.7018 37.4833 75.4765 37.4833C75.2512 37.4833 75.149 37.6327 75.149 37.8842V39.3384Z" fill="#263238"/>
<path d="M80.5362 37.9024C80.5362 38.733 79.6034 39.0317 79.5982 39.6658V39.7103H80.5048V39.9881H79.2969V39.7522C79.2969 38.864 80.2271 38.691 80.2271 37.9181C80.2271 37.6351 80.1327 37.4857 79.9048 37.4857C79.6768 37.4857 79.5825 37.6456 79.5825 37.8893V38.1329H79.2969V37.9102C79.2969 37.4884 79.4882 37.208 79.9126 37.208C80.3371 37.208 80.5362 37.4831 80.5362 37.9024Z" fill="#263238"/>
<path d="M81.1128 38.1069V38.4895H80.8193V38.1069H81.1128ZM81.1128 39.6083V39.9882H80.8193V39.6083H81.1128Z" fill="#263238"/>
<path d="M81.4033 37.8999C81.4033 37.4781 81.6129 37.2056 82.0348 37.2056C82.4566 37.2056 82.6663 37.4676 82.6663 37.8999V39.3201C82.6663 39.7419 82.4593 40.0171 82.0348 40.0171C81.6103 40.0171 81.4033 39.7419 81.4033 39.3201V37.8999ZM81.7073 39.3384C81.7073 39.6004 81.8147 39.7367 82.0348 39.7367C82.2549 39.7367 82.3597 39.5873 82.3597 39.3384V37.8842C82.3597 37.6222 82.2575 37.4833 82.0348 37.4833C81.8121 37.4833 81.7073 37.6327 81.7073 37.8842V39.3384Z" fill="#263238"/>
<path d="M82.9336 37.8999C82.9336 37.4781 83.1432 37.2056 83.5651 37.2056C83.9869 37.2056 84.1992 37.4676 84.1992 37.8999V39.3201C84.1992 39.7419 83.9895 40.0171 83.5651 40.0171C83.1406 40.0171 82.9336 39.7419 82.9336 39.3201V37.8999ZM83.2375 39.3384C83.2375 39.6004 83.345 39.7367 83.5651 39.7367C83.7852 39.7367 83.89 39.5873 83.89 39.3384V37.8842C83.89 37.6222 83.7878 37.4833 83.5651 37.4833C83.3423 37.4833 83.2375 37.6327 83.2375 37.8842V39.3384Z" fill="#263238"/>
<path d="M89.1593 39.4327V39.9882H88.858V39.4327H87.9697V39.155L88.8239 37.2344H89.1593V39.155H89.3794V39.4327H89.1593ZM88.2527 39.155H88.858V37.7977L88.2527 39.155Z" fill="#263238"/>
<path d="M89.9087 38.1069V38.4895H89.6152V38.1069H89.9087ZM89.9087 39.6083V39.9882H89.6152V39.6083H89.9087Z" fill="#263238"/>
<path d="M90.1997 37.8999C90.1997 37.4781 90.4093 37.2056 90.8312 37.2056C91.253 37.2056 91.4627 37.4676 91.4627 37.8999V39.3201C91.4627 39.7419 91.2557 40.0171 90.8312 40.0171C90.4067 40.0171 90.1997 39.7419 90.1997 39.3201V37.8999ZM90.5037 39.3384C90.5037 39.6004 90.6111 39.7367 90.8312 39.7367C91.0513 39.7367 91.1561 39.5873 91.1561 39.3384V37.8842C91.1561 37.6222 91.0539 37.4833 90.8312 37.4833C90.6085 37.4833 90.5037 37.6327 90.5037 37.8842V39.3384Z" fill="#263238"/>
<path d="M91.7324 37.8999C91.7324 37.4781 91.9394 37.2056 92.3613 37.2056C92.7831 37.2056 92.9954 37.4676 92.9954 37.8999V39.3201C92.9954 39.7419 92.7857 40.0171 92.3613 40.0171C91.9368 40.0171 91.7324 39.7419 91.7324 39.3201V37.8999ZM92.0337 39.3384C92.0337 39.6004 92.1412 39.7367 92.3613 39.7367C92.5814 39.7367 92.6888 39.5873 92.6888 39.3384V37.8842C92.6888 37.6222 92.584 37.4833 92.3613 37.4833C92.1386 37.4833 92.0337 37.6327 92.0337 37.8842V39.3384Z" fill="#263238"/>
<path d="M98.5266 37.8947V37.9471H98.2383V37.8763C98.2383 37.6143 98.1362 37.4833 97.9134 37.4833C97.6907 37.4833 97.5781 37.6327 97.5781 37.9261V38.5445C97.6099 38.4533 97.6706 38.3751 97.751 38.3216C97.8314 38.2682 97.9271 38.2424 98.0235 38.2484C98.3772 38.2484 98.5344 38.5104 98.5344 38.9035V39.3201C98.5344 39.7419 98.3248 40.0171 97.903 40.0171C97.4811 40.0171 97.2715 39.7419 97.2715 39.3201V37.9156C97.2715 37.4781 97.468 37.2056 97.903 37.2056C98.3379 37.2056 98.5266 37.4754 98.5266 37.8947ZM97.5676 38.927V39.3384C97.5676 39.6004 97.6698 39.7367 97.8925 39.7367C98.1152 39.7367 98.22 39.5873 98.22 39.3384V38.927C98.22 38.6781 98.1152 38.5288 97.8925 38.5288C97.6698 38.5288 97.5676 38.6781 97.5676 38.927Z" fill="#263238"/>
<path d="M99.1164 38.1069V38.4895H98.8203V38.1069H99.1164ZM99.1164 39.6083V39.9882H98.8203V39.6083H99.1164Z" fill="#263238"/>
<path d="M99.4019 37.8999C99.4019 37.4781 99.6115 37.2056 100.031 37.2056C100.45 37.2056 100.665 37.4676 100.665 37.8999V39.3201C100.665 39.7419 100.458 40.0171 100.031 40.0171C99.6036 40.0171 99.4019 39.7419 99.4019 39.3201V37.8999ZM99.7058 39.3384C99.7058 39.6004 99.8106 39.7367 100.031 39.7367C100.251 39.7367 100.358 39.5873 100.358 39.3384V37.8842C100.358 37.6222 100.256 37.4833 100.031 37.4833C99.8054 37.4833 99.7058 37.6327 99.7058 37.8842V39.3384Z" fill="#263238"/>
<path d="M100.937 37.8999C100.937 37.4781 101.147 37.2056 101.568 37.2056C101.99 37.2056 102.2 37.4676 102.2 37.8999V39.3201C102.2 39.7419 101.993 40.0171 101.568 40.0171C101.144 40.0171 100.937 39.7419 100.937 39.3201V37.8999ZM101.241 39.3384C101.241 39.6004 101.346 39.7367 101.568 39.7367C101.791 39.7367 101.893 39.5873 101.893 39.3384V37.8842C101.893 37.6222 101.791 37.4833 101.568 37.4833C101.346 37.4833 101.241 37.6327 101.241 37.8842V39.3384Z" fill="#263238"/>
<path d="M60.2322 70.6943H51.8423V78.5995H60.2322V70.6943Z" stroke="#ADADAD" stroke-width="0.3" stroke-miterlimit="10"/>
<path d="M68.866 70.6943H60.4761V78.5995H68.866V70.6943Z" stroke="#ADADAD" stroke-width="0.3" stroke-miterlimit="10"/>
<path d="M77.4993 70.6943H69.1094V78.5995H77.4993V70.6943Z" stroke="#ADADAD" stroke-width="0.3" stroke-miterlimit="10"/>
<path d="M86.1355 70.6943H77.7456V78.5995H86.1355V70.6943Z" stroke="#ADADAD" stroke-width="0.3" stroke-miterlimit="10"/>
<path d="M94.7693 70.6943H86.3794V78.5995H94.7693V70.6943Z" stroke="#ADADAD" stroke-width="0.3" stroke-miterlimit="10"/>
<path d="M103.44 70.6943H95.0498V78.5995H103.44V70.6943Z" stroke="#ADADAD" stroke-width="0.3" stroke-miterlimit="10"/>
<path d="M34.5908 41.6494H48.1766" stroke="#ADADAD" stroke-width="0.3" stroke-miterlimit="10"/>
<path d="M34.5908 43.1401H48.1766" stroke="#ADADAD" stroke-width="0.3" stroke-miterlimit="10"/>
<path d="M34.5908 44.6284H48.1766" stroke="#ADADAD" stroke-width="0.3" stroke-miterlimit="10"/>
<path d="M34.5908 46.1167H48.1766" stroke="#ADADAD" stroke-width="0.3" stroke-miterlimit="10"/>
<path d="M34.5908 47.605H48.1766" stroke="#ADADAD" stroke-width="0.3" stroke-miterlimit="10"/>
<path d="M34.5908 49.0962H48.1766" stroke="#ADADAD" stroke-width="0.3" stroke-miterlimit="10"/>
<path d="M34.5908 50.5845H48.1766" stroke="#ADADAD" stroke-width="0.3" stroke-miterlimit="10"/>
<path d="M34.5908 52.0728H48.1766" stroke="#ADADAD" stroke-width="0.3" stroke-miterlimit="10"/>
<path d="M34.5908 74.811H48.1766" stroke="#ADADAD" stroke-width="0.3" stroke-miterlimit="10"/>
<path d="M34.5908 76.2993H48.1766" stroke="#ADADAD" stroke-width="0.3" stroke-miterlimit="10"/>
<path d="M34.5908 77.7876H48.1766" stroke="#ADADAD" stroke-width="0.3" stroke-miterlimit="10"/>
<path d="M34.5908 79.2759H48.1766" stroke="#ADADAD" stroke-width="0.3" stroke-miterlimit="10"/>
<path d="M34.5908 80.7666H48.1766" stroke="#ADADAD" stroke-width="0.3" stroke-miterlimit="10"/>
<path d="M34.5908 82.2549H48.1766" stroke="#ADADAD" stroke-width="0.3" stroke-miterlimit="10"/>
<path d="M34.5908 83.7432H48.1766" stroke="#ADADAD" stroke-width="0.3" stroke-miterlimit="10"/>
<path d="M34.5908 85.2314H48.1766" stroke="#ADADAD" stroke-width="0.3" stroke-miterlimit="10"/>
<path d="M60.2322 41.6572H51.8423V49.5624H60.2322V41.6572Z" stroke="#ADADAD" stroke-width="0.3" stroke-miterlimit="10"/>
<path d="M68.866 41.6572H60.4761V49.5624H68.866V41.6572Z" fill="#FB855E" stroke="#ADADAD" stroke-width="0.3" stroke-miterlimit="10"/>
<path d="M77.4993 41.6572H69.1094V49.5624H77.4993V41.6572Z" fill="#FB855E" stroke="#ADADAD" stroke-width="0.3" stroke-miterlimit="10"/>
<path d="M86.1355 41.6572H77.7456V49.5624H86.1355V41.6572Z" stroke="#ADADAD" stroke-width="0.3" stroke-miterlimit="10"/>
<path d="M94.7693 41.6572H86.3794V49.5624H94.7693V41.6572Z" stroke="#ADADAD" stroke-width="0.3" stroke-miterlimit="10"/>
<path d="M103.44 41.6572H95.0498V49.5624H103.44V41.6572Z" stroke="#ADADAD" stroke-width="0.3" stroke-miterlimit="10"/>
<path d="M61.9482 43.9106H67.8149" stroke="#ADADAD" stroke-width="0.3" stroke-miterlimit="10"/>
<path d="M61.9482 44.8042H67.8149" stroke="#ADADAD" stroke-width="0.3" stroke-miterlimit="10"/>
<path d="M61.9482 45.6978H67.8149" stroke="#ADADAD" stroke-width="0.3" stroke-miterlimit="10"/>
<path d="M61.9482 46.5884H67.8149" stroke="#ADADAD" stroke-width="0.3" stroke-miterlimit="10"/>
<path d="M61.9482 47.4819H67.8149" stroke="#ADADAD" stroke-width="0.3" stroke-miterlimit="10"/>
<path d="M60.2322 51.3286H51.8423V59.2338H60.2322V51.3286Z" stroke="#ADADAD" stroke-width="0.3" stroke-miterlimit="10"/>
<path d="M68.866 51.3286H60.4761V59.2338H68.866V51.3286Z" fill="#FB855E" stroke="#ADADAD" stroke-width="0.3" stroke-miterlimit="10"/>
<path d="M77.4993 51.3286H69.1094V59.2338H77.4993V51.3286Z" stroke="#ADADAD" stroke-width="0.3" stroke-miterlimit="10"/>
<path d="M86.1355 51.3286H77.7456V59.2338H86.1355V51.3286Z" stroke="#ADADAD" stroke-width="0.3" stroke-miterlimit="10"/>
<path d="M94.7693 51.3286H86.3794V59.2338H94.7693V51.3286Z" stroke="#ADADAD" stroke-width="0.3" stroke-miterlimit="10"/>
<path d="M103.44 51.3286H95.0498V59.2338H103.44V51.3286Z" stroke="#ADADAD" stroke-width="0.3" stroke-miterlimit="10"/>
<path d="M61.9482 53.4771H67.8149" stroke="#ADADAD" stroke-width="0.3" stroke-miterlimit="10"/>
<path d="M61.9482 54.3682H67.8149" stroke="#ADADAD" stroke-width="0.3" stroke-miterlimit="10"/>
<path d="M61.9482 55.2612H67.8149" stroke="#ADADAD" stroke-width="0.3" stroke-miterlimit="10"/>
<path d="M61.9482 56.1548H67.8149" stroke="#ADADAD" stroke-width="0.3" stroke-miterlimit="10"/>
<path d="M61.9482 57.0483H67.8149" stroke="#ADADAD" stroke-width="0.3" stroke-miterlimit="10"/>
<path d="M60.2322 60.9971H51.8423V68.9022H60.2322V60.9971Z" stroke="#ADADAD" stroke-width="0.3" stroke-miterlimit="10"/>
<path d="M68.866 60.9971H60.4761V68.9022H68.866V60.9971Z" stroke="#ADADAD" stroke-width="0.3" stroke-miterlimit="10"/>
<path d="M77.4993 60.9971H69.1094V68.9022H77.4993V60.9971Z" stroke="#ADADAD" stroke-width="0.3" stroke-miterlimit="10"/>
<path d="M86.1355 60.9971H77.7456V68.9022H86.1355V60.9971Z" stroke="#ADADAD" stroke-width="0.3" stroke-miterlimit="10"/>
<path d="M94.7693 60.9971H86.3794V68.9022H94.7693V60.9971Z" fill="#FB855E" stroke="#ADADAD" stroke-width="0.3" stroke-miterlimit="10"/>
<path d="M103.44 60.9971H95.0498V68.9022H103.44V60.9971Z" stroke="#ADADAD" stroke-width="0.3" stroke-miterlimit="10"/>
<path d="M87.9644 63.1694H93.831" stroke="#ADADAD" stroke-width="0.3" stroke-miterlimit="10"/>
<path d="M87.9644 64.063H93.831" stroke="#ADADAD" stroke-width="0.3" stroke-miterlimit="10"/>
<path d="M87.9644 64.9536H93.831" stroke="#ADADAD" stroke-width="0.3" stroke-miterlimit="10"/>
<path d="M87.9644 65.8472H93.831" stroke="#ADADAD" stroke-width="0.3" stroke-miterlimit="10"/>
<path d="M87.9644 66.7407H93.831" stroke="#ADADAD" stroke-width="0.3" stroke-miterlimit="10"/>
<path d="M60.2322 80.3892H51.8423V88.2943H60.2322V80.3892Z" stroke="#ADADAD" stroke-width="0.3" stroke-miterlimit="10"/>
<path d="M68.866 80.3892H60.4761V88.2943H68.866V80.3892Z" stroke="#ADADAD" stroke-width="0.3" stroke-miterlimit="10"/>
<path d="M77.4993 80.3892H69.1094V88.2943H77.4993V80.3892Z" fill="#FB855E" stroke="#ADADAD" stroke-width="0.3" stroke-miterlimit="10"/>
<path d="M86.1355 80.3892H77.7456V88.2943H86.1355V80.3892Z" fill="#FB855E" stroke="#ADADAD" stroke-width="0.3" stroke-miterlimit="10"/>
<path d="M94.7693 80.3892H86.3794V88.2943H94.7693V80.3892Z" fill="#FB855E" stroke="#ADADAD" stroke-width="0.3" stroke-miterlimit="10"/>
<path d="M103.44 80.3892H95.0498V88.2943H103.44V80.3892Z" stroke="#ADADAD" stroke-width="0.3" stroke-miterlimit="10"/>
<path d="M70.4932 82.5537H76.3598" stroke="#ADADAD" stroke-width="0.3" stroke-miterlimit="10"/>
<path d="M70.4932 83.4473H76.3598" stroke="#ADADAD" stroke-width="0.3" stroke-miterlimit="10"/>
<path d="M70.4932 84.3403H76.3598" stroke="#ADADAD" stroke-width="0.3" stroke-miterlimit="10"/>
<path d="M70.4932 85.2314H76.3598" stroke="#ADADAD" stroke-width="0.3" stroke-miterlimit="10"/>
<path d="M70.4932 86.125H76.3598" stroke="#ADADAD" stroke-width="0.3" stroke-miterlimit="10"/>
<path d="M79.0376 82.5537H84.9043" stroke="#ADADAD" stroke-width="0.3" stroke-miterlimit="10"/>
<path d="M79.0376 83.4473H84.9043" stroke="#ADADAD" stroke-width="0.3" stroke-miterlimit="10"/>
<path d="M79.0376 84.3403H84.9043" stroke="#ADADAD" stroke-width="0.3" stroke-miterlimit="10"/>
<path d="M79.0376 85.2314H84.9043" stroke="#ADADAD" stroke-width="0.3" stroke-miterlimit="10"/>
<path d="M79.0376 86.125H84.9043" stroke="#ADADAD" stroke-width="0.3" stroke-miterlimit="10"/>
<path d="M87.582 82.5537H93.4487" stroke="#ADADAD" stroke-width="0.3" stroke-miterlimit="10"/>
<path d="M87.582 83.4473H93.4487" stroke="#ADADAD" stroke-width="0.3" stroke-miterlimit="10"/>
<path d="M87.582 84.3403H93.4487" stroke="#ADADAD" stroke-width="0.3" stroke-miterlimit="10"/>
<path d="M87.582 85.2314H93.4487" stroke="#ADADAD" stroke-width="0.3" stroke-miterlimit="10"/>
<path d="M87.582 86.125H93.4487" stroke="#ADADAD" stroke-width="0.3" stroke-miterlimit="10"/>
<path d="M28.6247 25.1029C26.2508 23.3448 23.1223 23.5308 21.2436 24.7073C19.3649 25.8838 18.7832 28.0009 18.2565 29.4499C17.2084 32.3321 14.9577 34.0457 12.5209 35.7096C10.1627 37.3262 7.09967 39.6949 8.71634 42.9256C9.44738 44.3903 10.3618 45.3965 8.97836 47.7756C7.59489 50.1548 6.14067 51.2553 7.14421 53.5401C8.14776 55.8249 9.43166 59.3989 14.8319 58.1176C20.2322 56.8363 21.8803 50.7024 22.4305 48.4228C22.9808 46.1432 25.6246 45.2078 27.5557 43.5702C29.4868 41.9326 29.2955 39.3595 28.7452 37.714C28.326 36.4511 27.8544 34.6536 29.2981 33.223L29.4868 33.2806C29.4868 33.2806 32.3873 31.9705 32.8694 31.1714C33.3516 30.3722 30.996 26.8585 28.6247 25.1029Z" fill="#263238" stroke="#263238" stroke-width="0.3" stroke-linecap="round" stroke-linejoin="round"/>
<path d="M32.8483 40.5518C32.8483 40.5518 38.4975 44.9144 39.97 45.8341C41.4426 46.7538 45.0087 48.4753 45.8052 49.091C46.6018 49.7068 45.3755 52.3453 43.6567 53.3279C41.9378 54.3105 40.3395 53.2048 39.4198 52.7122C38.5001 52.2196 32.3452 48.229 32.3452 48.229L32.8483 40.5518Z" fill="#919191" stroke="#263238" stroke-width="0.3" stroke-linecap="round" stroke-linejoin="round"/>
<path d="M34.1089 43.1484L33.1499 48.6483L35.3325 44.283" stroke="#263238" stroke-width="0.3" stroke-linecap="round" stroke-linejoin="round"/>
<path d="M34.7456 69.2404C34.7456 69.2404 33.2731 69.3007 31.6014 67.7652C29.9297 66.2298 29.5052 65.5538 29.5052 65.5538C29.5052 65.5538 28.6562 57.0119 28.6562 56.2127C28.6562 55.4136 29.3427 51.423 29.9664 49.4578C30.59 47.4927 31.7481 49.8273 31.7481 49.8273C31.7481 49.8273 33.1604 63.5834 33.4067 64.9354C33.653 66.2874 34.7456 69.2404 34.7456 69.2404Z" fill="#787878" stroke="#263238" stroke-width="0.3" stroke-linecap="round" stroke-linejoin="round"/>
<path d="M29.8144 84.3145C29.8144 84.3145 28.1374 88.4858 28.0719 90.5008C28.0064 92.5157 28.4204 95.5552 26.8666 98.9641C25.3128 102.373 23.856 107.37 23.6123 108.897C23.3686 110.425 24.7652 114.607 25.4884 115.972C26.2116 117.337 25.9286 117.235 25.1609 117.209C24.5872 117.21 24.0234 117.059 23.5265 116.773C23.0296 116.486 22.6172 116.073 22.331 115.576C21.5135 114.203 21.828 113.349 21.283 112.851L20.7222 112.351L20.2401 115.314L19.5693 115.196L20.1798 111.373C20.1798 111.373 20.1117 110.506 20.5074 110.134C20.903 109.762 21.5188 108.63 21.5188 108.63C21.5188 108.63 22.1791 103.272 22.014 99.6139C21.8489 95.9561 21.7336 93.6476 22.1686 92.1253C22.6035 90.603 22.6193 90.1208 22.6717 88.5854C22.7241 87.0499 22.6874 85.2237 22.6952 84.9354C22.7031 84.6472 29.8144 84.3145 29.8144 84.3145Z" fill="white"/>
<path opacity="0.2" d="M22.6821 84.9407C22.6821 85.1503 22.6821 86.1879 22.6821 87.3303C23.518 87.5033 25.5644 87.7338 28.8842 86.9058C29.3401 85.4962 29.8143 84.3145 29.8143 84.3145C29.8143 84.3145 22.6926 84.6525 22.6821 84.9407Z" fill="black"/>
<path d="M29.8144 84.3145C29.8144 84.3145 28.1374 88.4858 28.0719 90.5008C28.0064 92.5157 28.4204 95.5552 26.8666 98.9641C25.3128 102.373 23.856 107.37 23.6123 108.897C23.3686 110.425 24.7652 114.607 25.4884 115.972C26.2116 117.337 25.9286 117.235 25.1609 117.209C24.5872 117.21 24.0234 117.059 23.5265 116.773C23.0296 116.486 22.6172 116.073 22.331 115.576C21.5135 114.203 21.828 113.349 21.283 112.851L20.7222 112.351L20.2401 115.314L19.5693 115.196L20.1798 111.373C20.1798 111.373 20.1117 110.506 20.5074 110.134C20.903 109.762 21.5188 108.63 21.5188 108.63C21.5188 108.63 22.1791 103.272 22.014 99.6139C21.8489 95.9561 21.7336 93.6476 22.1686 92.1253C22.6035 90.603 22.6193 90.1208 22.6717 88.5854C22.7241 87.0499 22.6874 85.2237 22.6952 84.9354C22.7031 84.6472 29.8144 84.3145 29.8144 84.3145Z" stroke="#263238" stroke-width="0.3" stroke-linecap="round" stroke-linejoin="round"/>
<path d="M25.4883 115.977L25.4123 115.825C23.7668 116.318 23.0541 114.656 22.2026 112.681C21.7957 111.732 21.25 110.849 20.5833 110.061C20.5518 110.092 20.523 110.123 20.4942 110.15C20.0985 110.522 20.1667 111.389 20.1667 111.389L19.5562 115.212L20.2269 115.33L20.709 112.366L21.2698 112.867C21.8279 113.365 21.5135 114.219 22.3179 115.592C22.604 116.089 23.0164 116.502 23.5133 116.788C24.0102 117.075 24.574 117.225 25.1477 117.224C25.9285 117.24 26.2115 117.345 25.4883 115.977Z" fill="#FB855E" stroke="#263238" stroke-width="0.3" stroke-linecap="round" stroke-linejoin="round"/>
<path d="M19.4199 113.564L19.5195 117.031L19.999 117.046L20.2558 114.455L19.4199 113.564Z" fill="#FB855E" stroke="#263238" stroke-width="0.3" stroke-linecap="round" stroke-linejoin="round"/>
<path d="M16.6711 83.6831C16.6711 83.6831 17.7454 86.023 16.8572 89.6467C15.9689 93.2705 16.8336 98.9668 18.1673 102.567C19.501 106.167 19.3778 109.429 19.5455 110.202C19.7132 110.975 19.3726 112.503 19.4328 113.564C19.4931 114.625 21.267 116.412 21.6233 116.999C21.9797 117.586 24.6759 117.678 25.3493 117.701C26.0227 117.725 26.1353 117.054 25.6689 116.75C25.2025 116.446 24.199 114.683 24.199 114.683C24.199 114.683 22.6819 111.277 22.5273 110.111C22.3727 108.945 21.833 102.111 22.074 100.678C22.3151 99.2445 23.1562 91.2974 23.4182 89.1934C23.6802 87.0894 23.8767 84.1154 23.8767 84.1154L16.6711 83.6831Z" fill="white"/>
<path opacity="0.2" d="M23.6307 87.0737C23.7722 85.5146 23.8639 84.1154 23.8639 84.1154L16.6714 83.6831C16.9923 84.5081 17.1695 85.3819 17.1954 86.2666C18.3798 86.6885 20.4864 87.1889 23.6307 87.0737Z" fill="black"/>
<path d="M16.6711 83.6831C16.6711 83.6831 17.7454 86.023 16.8572 89.6467C15.9689 93.2705 16.8336 98.9668 18.1673 102.567C19.501 106.167 19.3778 109.429 19.5455 110.202C19.7132 110.975 19.3726 112.503 19.4328 113.564C19.4931 114.625 21.267 116.412 21.6233 116.999C21.9797 117.586 24.6759 117.678 25.3493 117.701C26.0227 117.725 26.1353 117.054 25.6689 116.75C25.2025 116.446 24.199 114.683 24.199 114.683C24.199 114.683 22.6819 111.277 22.5273 110.111C22.3727 108.945 21.833 102.111 22.074 100.678C22.3151 99.2445 23.1562 91.2974 23.4182 89.1934C23.6802 87.0894 23.8767 84.1154 23.8767 84.1154L16.6711 83.6831Z" stroke="#263238" stroke-width="0.3" stroke-linecap="round" stroke-linejoin="round"/>
<path d="M25.6559 116.75C25.4465 116.578 25.2645 116.376 25.1161 116.15C23.827 116.087 22.2758 115.94 21.7596 115.466C21.1544 114.913 19.7185 112.28 19.5062 111.887C19.4376 112.443 19.4087 113.003 19.4198 113.564C19.48 114.612 21.2539 116.412 21.6103 116.999C21.9666 117.586 24.6628 117.677 25.3362 117.701C26.0096 117.725 26.1249 117.054 25.6559 116.75Z" fill="#FB855E" stroke="#263238" stroke-width="0.3" stroke-linecap="round" stroke-linejoin="round"/>
<path d="M15.4606 57.3184C15.4606 57.3184 12.1461 67.2752 12.3898 71.5671C12.6334 75.859 15.0938 84.3432 15.0938 84.3432C15.0938 84.3432 20.6198 85.8158 24.5502 85.8158C27.0553 85.7839 29.5408 85.3695 31.9208 84.5869C31.9208 84.5869 33.886 70.6998 33.0265 65.7947C32.4854 62.8002 31.3126 59.9553 29.5862 57.4494L15.4606 57.3184Z" fill="#263238" stroke="#263238" stroke-width="0.3" stroke-linecap="round" stroke-linejoin="round"/>
<path d="M18.2876 40.1848C18.2876 40.1848 21.4791 38.7725 23.0774 38.7725C24.6757 38.7725 28.1737 41.4739 28.7266 41.9665C29.2794 42.4591 31.2446 48.0454 31.5512 49.5808C31.8577 51.1163 29.586 57.8712 29.586 57.8712C29.586 57.8712 25.4723 58.7306 22.4014 58.6101C19.3305 58.4895 17.9785 58.1175 17.9785 58.1175C17.9785 58.1175 16.7522 51.9757 16.1443 48.352C15.5364 44.7282 14.8552 42.3255 15.408 41.4136C15.9609 40.5018 18.2876 40.1848 18.2876 40.1848Z" fill="white"/>
<path opacity="0.3" d="M29.5861 57.8715C29.5861 57.8715 31.8605 51.1166 31.5513 49.5811C31.2421 48.0457 29.2796 42.4568 28.7267 41.9668C28.559 41.8148 28.1136 41.4585 27.5319 41.0366L27.1362 41.6104C27.1362 41.6104 29.18 47.4928 29.2481 49.775C29.3136 51.9053 27.414 57.5571 27.152 58.2855C28.5669 58.0863 29.5861 57.8715 29.5861 57.8715Z" fill="black"/>
<path d="M18.2876 40.1848C18.2876 40.1848 21.4791 38.7725 23.0774 38.7725C24.6757 38.7725 28.1737 41.4739 28.7266 41.9665C29.2794 42.4591 31.2446 48.0454 31.5512 49.5808C31.8577 51.1163 29.586 57.8712 29.586 57.8712C29.586 57.8712 25.4723 58.7306 22.4014 58.6101C19.3305 58.4895 17.9785 58.1175 17.9785 58.1175C17.9785 58.1175 16.7522 51.9757 16.1443 48.352C15.5364 44.7282 14.8552 42.3255 15.408 41.4136C15.9609 40.5018 18.2876 40.1848 18.2876 40.1848Z" stroke="#263238" stroke-width="0.3" stroke-linecap="round" stroke-linejoin="round"/>
<path d="M25.9624 39.6924C25.9624 39.6924 29.1564 45.4044 30.0788 48.9679C31.0011 52.5314 32.5339 67.4535 33.2099 68.1295C33.6678 68.5677 34.1846 68.9399 34.7454 69.2353C34.7454 69.2353 32.9112 59.1632 32.9112 56.1525C32.9112 53.1419 33.4038 41.351 33.0946 40.675C32.7854 39.9989 31.7452 40.3684 29.594 40.1221C27.4428 39.8758 25.9624 39.6924 25.9624 39.6924Z" fill="#919191" stroke="#263238" stroke-width="0.3" stroke-linecap="round" stroke-linejoin="round"/>
<path d="M20.7144 38.458L10.4956 42.3333C10.4956 42.3333 10.8624 54.2474 10.9856 55.7828C11.1087 57.3183 11.7245 58.1174 12.5839 58.7306C13.4433 59.3437 13.7499 58.61 13.7499 58.61C13.7499 58.61 12.031 65.0584 10.9856 67.2567C9.9401 69.4551 10.4956 69.5913 10.4956 69.5913C10.4956 69.5913 14.4862 71.3102 17.3736 70.3905C20.2611 69.4708 21.1205 67.3799 21.1205 67.3799L19.5143 48.5406C19.5143 48.5406 19.5143 43.1351 19.8209 41.9062C20.1275 40.6773 20.7144 38.458 20.7144 38.458Z" fill="#919191" stroke="#263238" stroke-width="0.3" stroke-linecap="round" stroke-linejoin="round"/>
<path d="M13.5112 61.8278C13.5112 61.8278 16.5664 61.9143 18.3979 61.2173V62.3518C17.0389 62.5351 15.6686 62.6227 14.2973 62.6139" stroke="#263238" stroke-width="0.3" stroke-linecap="round" stroke-linejoin="round"/>
<path d="M12.6387 42.3623C12.6387 42.3623 15.3453 44.1965 16.2179 47.0787" stroke="#263238" stroke-width="0.3" stroke-linecap="round" stroke-linejoin="round"/>
<path d="M20.7144 38.4583C20.4409 38.6823 20.1907 38.9333 19.9677 39.2077C19.6166 39.6452 18.6576 41.668 18.0785 42.2812C17.4994 42.8943 17.8165 43.0279 18.0366 42.986C18.2567 42.9441 20.3633 42.2 20.759 42.0192C21.0893 41.8835 21.427 41.7662 21.7704 41.6681L24.933 44.7861L25.8134 41.6235C25.8134 41.6235 29.107 41.8855 29.5026 41.9301C29.8983 41.9746 30.2048 41.7545 29.8983 41.7545C29.5917 41.7545 27.0422 40.4811 26.6911 40.3055C26.34 40.13 25.8553 39.074 24.802 38.3718C23.7486 37.6696 21.4638 37.4495 20.7144 38.4583Z" fill="white" stroke="#263238" stroke-width="0.3" stroke-linecap="round" stroke-linejoin="round"/>
<path d="M25.1526 39.514L24.9325 44.7859C24.9325 44.7859 21.7254 40.7429 21.3193 40.2608C21.0402 39.8491 20.846 39.3859 20.748 38.8983L21.0992 34.3286C21.0992 34.3286 23.1639 37.6694 23.6932 38.0205C24.2224 38.3716 25.1081 39.0738 25.1526 39.514Z" fill="white" stroke="#263238" stroke-width="0.3" stroke-linecap="round" stroke-linejoin="round"/>
<path d="M23.7037 38.0205C23.1796 37.6694 21.1097 34.3286 21.1097 34.3286L20.8477 37.7506C21.2512 38.5655 24.3509 40.3892 24.8671 40.473C24.9475 40.4879 25.029 40.4967 25.1107 40.4992L25.1527 39.514C25.1081 39.0738 24.2303 38.3716 23.7037 38.0205Z" fill="#263238" stroke="#263238" stroke-width="0.3" stroke-linecap="round" stroke-linejoin="round"/>
<path d="M28.9313 28.792C28.9313 28.792 24.2306 31.5616 22.8236 32.2192L22.0375 32.4393C22.0375 32.4393 21.0261 30.9904 20.5414 31.2969C20.0567 31.6035 19.7946 32.3948 20.0593 33.0996C20.2941 33.5945 20.6557 34.0185 21.1074 34.3285C21.1074 34.3285 21.1519 36.4378 21.4611 37.2291C21.7703 38.0204 24.9879 39.9095 25.5119 39.996C26.036 40.0825 26.5233 39.996 26.788 39.5139C27.0526 39.0318 28.7191 37.0535 29.4658 34.3285C30.2126 31.6035 29.7672 29.2322 28.9313 28.792Z" fill="white" stroke="#263238" stroke-width="0.3" stroke-linecap="round" stroke-linejoin="round"/>
<path d="M27.8781 33.231L28.0091 35.7804L26.6021 35.4712" stroke="#263238" stroke-width="0.3" stroke-linecap="round" stroke-linejoin="round"/>
<path d="M24.8462 35.7803C24.8462 35.7803 25.1528 36.1733 26.4183 36.6135" stroke="#263238" stroke-width="0.3" stroke-linecap="round" stroke-linejoin="round"/>
<path d="M24.626 32.9243C24.626 32.9243 24.9771 33.6711 26.2505 33.4064" stroke="#263238" stroke-width="0.3" stroke-linecap="round" stroke-linejoin="round"/>
<path d="M28.3599 33.9331C28.4535 34.084 28.5969 34.1974 28.7653 34.2539C28.9337 34.3103 29.1165 34.3062 29.2822 34.2423" stroke="#263238" stroke-width="0.3" stroke-linecap="round" stroke-linejoin="round"/>
<path d="M24.9878 31.693C25.3142 31.554 25.6654 31.4824 26.0202 31.4824C26.3749 31.4824 26.7261 31.554 27.0525 31.693" stroke="#263238" stroke-width="0.3" stroke-linecap="round" stroke-linejoin="round"/>
<path d="M29.6332 32.7042C29.4576 32.2195 28.6689 32.0439 28.6689 32.0439" stroke="#263238" stroke-width="0.3" stroke-linecap="round" stroke-linejoin="round"/>
<path d="M37.6249 51.7373L33.6946 52.6203C33.6946 52.6203 28.8184 52.4081 28.4542 52.5496C28.09 52.6911 28.4201 54.14 28.4201 54.14C27.8907 54.1785 27.3591 54.1785 26.8297 54.14C26.2296 54.0693 25.9466 54.1767 26.0881 54.5645C26.2296 54.9523 26.8297 55.306 27.3982 55.306C27.9799 55.2658 28.5578 55.1834 29.1276 55.0597C29.1276 55.0597 30.5766 55.5838 31.1085 55.5838C31.6404 55.5838 32.4186 55.1252 32.4186 55.1252C32.4186 55.1252 33.3723 55.1593 33.8675 55.196C34.3628 55.2327 34.9968 54.5933 34.9968 54.5933L38.8486 54.4885L37.6249 51.7373Z" fill="white" stroke="#263238" stroke-width="0.3" stroke-linecap="round" stroke-linejoin="round"/>
<path d="M27.802 52.3032C27.802 52.3032 26.8823 52.374 26.8823 52.657C26.8823 52.9399 27.6265 55.0597 27.6265 55.0597L29.1095 55.2012C29.1095 55.2012 29.3217 55.1304 29.1436 54.8474C28.9378 54.5842 28.7012 54.3467 28.4387 54.14L28.4728 52.5495L27.802 52.3032Z" fill="white" stroke="#263238" stroke-width="0.3" stroke-linecap="round" stroke-linejoin="round"/>
<path d="M29.3162 52.0544C29.3162 52.0544 27.7152 51.9155 27.655 52.0963C27.5947 52.2771 27.917 54.9785 27.917 54.9785C27.917 54.9785 29.5363 55.327 29.7511 55.3113C29.8066 55.3047 29.8591 55.2827 29.9026 55.2479C29.9462 55.213 29.9792 55.1666 29.9977 55.1139C30.0163 55.0613 30.0197 55.0045 30.0076 54.95C29.9955 54.8955 29.9684 54.8455 29.9293 54.8056C29.6674 54.6032 29.3824 54.4326 29.0804 54.2973L29.3162 52.0544Z" fill="white" stroke="#263238" stroke-width="0.3" stroke-linecap="round" stroke-linejoin="round"/>
<path d="M30.2411 51.8789C30.2411 51.8789 28.6506 51.6169 28.5799 51.8082C28.5091 51.9994 28.6506 54.7061 28.6506 54.7061C28.6506 54.7061 30.2411 55.1647 30.4507 55.1647C30.5065 55.1613 30.5603 55.1425 30.606 55.1104C30.6518 55.0782 30.6877 55.034 30.7097 54.9826C30.7317 54.9312 30.739 54.8747 30.7308 54.8194C30.7225 54.7641 30.699 54.7121 30.6629 54.6694C30.4152 54.4505 30.1426 54.2614 29.8507 54.1061L30.2411 51.8789Z" fill="white" stroke="#263238" stroke-width="0.3" stroke-linecap="round" stroke-linejoin="round"/>
<path d="M34.3394 52.9375C34.3394 52.9375 30.3803 51.4544 30.1706 51.3837C29.961 51.3129 29.8169 51.4204 29.8169 51.5619C29.8169 51.7034 29.1802 54.3052 29.3924 54.4939C29.6047 54.6825 30.8755 55.0598 30.8755 55.0598C30.8755 55.0598 31.2292 54.8109 31.2659 54.7061C31.3026 54.6013 30.8755 54.3157 30.8755 54.3157L30.9462 53.5296L31.8659 53.8467" fill="white"/>
<path d="M34.3394 52.9375C34.3394 52.9375 30.3803 51.4544 30.1706 51.3837C29.961 51.3129 29.8169 51.4204 29.8169 51.5619C29.8169 51.7034 29.1802 54.3052 29.3924 54.4939C29.6047 54.6825 30.8755 55.0598 30.8755 55.0598C30.8755 55.0598 31.2292 54.8109 31.2659 54.7061C31.3026 54.6013 30.8755 54.3157 30.8755 54.3157L30.9462 53.5296L31.8659 53.8467" stroke="#263238" stroke-width="0.3" stroke-linecap="round" stroke-linejoin="round"/>
<path d="M34.7271 52.3372C34.7271 52.3372 35.6127 53.3853 35.1882 54.4937H36.1053C36.1053 54.4937 36.459 52.7276 35.6467 52.2324L34.7271 52.3372Z" fill="#263238" stroke="#263238" stroke-width="0.3" stroke-linecap="round" stroke-linejoin="round"/>
<path d="M36.1055 51.8079C36.1055 51.8079 36.7317 52.6254 36.8915 55.3688C36.923 55.8771 43.518 54.9888 45.3548 54.6351C47.1916 54.2814 47.899 53.587 48.0405 52.0542C48.182 50.5214 46.4841 48.9807 45.2133 48.4514C43.9425 47.9221 36.1055 51.8079 36.1055 51.8079Z" fill="#919191" stroke="#263238" stroke-width="0.3" stroke-linecap="round" stroke-linejoin="round"/>
<path d="M19.3354 29.9417L17.0252 31.0925C16.7726 31.2183 16.6699 31.5251 16.7957 31.7777L19.8275 37.8638C19.9533 38.1163 20.26 38.2191 20.5126 38.0933L22.8228 36.9425C23.0753 36.8167 23.1781 36.5099 23.0523 36.2573L20.0205 30.1712C19.8947 29.9186 19.5879 29.8159 19.3354 29.9417Z" fill="#FB855E" stroke="#263238" stroke-width="0.3" stroke-linecap="round" stroke-linejoin="round"/>
<path d="M17.5069 42.281L18.1226 39.7787L16.8125 35.6467C16.8125 35.6467 17.9995 32.6151 18.2196 32.3085C18.4396 32.0019 19.0056 31.6928 19.2283 31.7845C19.4511 31.8762 19.4484 32.1801 19.1419 32.3557C18.9254 32.51 18.7573 32.7226 18.6571 32.9688L17.9995 35.2117L18.2982 35.7017L19.134 33.1522C19.134 33.1522 21.5498 32.8456 21.6809 32.8456C21.8119 32.8456 22.3411 32.8902 22.0765 33.2413C21.9296 33.446 21.7105 33.5874 21.4634 33.637H22.4722C22.4722 33.637 22.8233 33.8125 22.6032 34.0771C22.3831 34.3418 20.8922 34.7348 20.8922 34.7348L20.321 36.5375L21.4188 35.2615L22.5167 35.0859C22.5167 35.0859 23.2635 35.2615 23.1324 35.5707C23.0014 35.8799 22.3464 35.7017 22.3464 35.7017L21.6861 36.0528L20.6773 37.8869V40.1718C20.6773 40.743 19.6659 42.8103 19.6659 42.8103L17.5069 42.281Z" fill="white" stroke="#263238" stroke-width="0.3" stroke-linecap="round" stroke-linejoin="round"/>
<path d="M21.4635 33.6265L19.9674 33.9776L19.1787 36.527" stroke="#263238" stroke-width="0.3" stroke-linecap="round" stroke-linejoin="round"/>
<path d="M16.996 41.4663L20.9892 42.8183C20.9892 42.8183 17.8239 56.7893 17.3209 58.068C16.5191 60.1327 13.6762 59.7056 12.5075 59.3388C11.3389 58.9719 10.6734 56.6976 10.9721 55.7753C11.2708 54.853 16.996 41.4663 16.996 41.4663Z" fill="#919191" stroke="#263238" stroke-width="0.3" stroke-linecap="round" stroke-linejoin="round"/>
</svg>
