<svg width="263" height="277" viewBox="0 0 263 277" fill="none" xmlns="http://www.w3.org/2000/svg">
<path d="M19.7175 152.744H50.7117V256.968" stroke="#263238" stroke-linecap="round" stroke-linejoin="round"/>
<path d="M93.8087 199.407H59.1176V203.941H63.6452V257.03H93.8087V199.407Z" fill="#999999"/>
<path d="M54.7019 168.176C54.7019 168.176 55.5762 163.973 54.7019 161.469C55.0167 161.4 55.3426 161.4 55.6574 161.469C56.132 161.581 56.4505 164.448 56.4505 164.448C56.4505 164.448 58.68 162.149 59.1546 162.343C59.6405 162.618 60.0076 163.063 60.185 163.592C60.2662 163.942 60.8096 164.447 60.9844 164.71C61.1593 164.972 61.3778 165.959 61.6089 166.483C61.84 167.008 60.4973 169.606 57.2374 170.38L54.7019 168.176Z" fill="white" stroke="#263238" stroke-linecap="round" stroke-linejoin="round"/>
<path d="M36.8041 163.616C36.2446 163.701 35.7158 163.926 35.2678 164.272C34.737 164.597 34.1375 165.003 33.5504 165.421C32.1952 166.389 30.9462 167.382 30.9462 167.382L27.1992 163.011L29.029 159.107C29.029 159.107 37.7034 163.804 36.8041 163.616Z" fill="white" stroke="#263238" stroke-linecap="round" stroke-linejoin="round"/>
<path d="M35.2675 164.272C34.7367 164.597 34.1371 165.003 33.5501 165.422C32.6754 164.919 31.9285 164.221 31.3674 163.383C30.8063 162.545 30.4463 161.588 30.3152 160.588C30.3152 160.588 33.3315 162.624 35.2675 164.272Z" fill="#263238"/>
<path d="M26.1498 163.679L27.1365 161.469C27.1365 161.469 32.4385 163.03 33.6001 166.521L28.96 168.176L26.1498 163.679Z" fill="#FB855E" stroke="#263238" stroke-linecap="round" stroke-linejoin="round"/>
<path d="M30.0344 148.897C32.2014 145.887 39.1646 148.622 40.22 152.125C41.2754 155.629 40.4199 163.604 37.9468 164.447C31.6019 166.608 24.7948 156.141 30.0344 148.897Z" fill="white" stroke="#263238" stroke-linecap="round" stroke-linejoin="round"/>
<path d="M33.7815 152.781C33.7815 152.781 35.1617 151.532 38.7776 151.832L37.7034 153.037C37.7034 153.037 40.6948 153.562 41.3942 151.932C42.0937 150.302 37.8221 143.37 29.6785 147.479C24.058 150.302 28.1985 160.594 28.1985 160.594L29.6536 159.857L30.659 158.777C30.659 158.777 28.6543 156.834 30.0907 155.273C31.5271 153.712 32.7823 156.054 32.7823 156.054C32.7823 156.054 34.2999 154.262 33.7815 152.781Z" fill="#263238"/>
<path d="M34.5616 154.899C35.2039 154.762 35.8679 154.762 36.5101 154.899" stroke="#263238" stroke-linecap="round" stroke-linejoin="round"/>
<path d="M39.146 154.842C39.4872 154.7 39.8509 154.619 40.2201 154.604" stroke="#263238" stroke-linecap="round" stroke-linejoin="round"/>
<path d="M35.9173 156.722C35.9173 157.116 35.7487 157.428 35.5364 157.428C35.324 157.428 35.1492 157.116 35.1492 156.722C35.1492 156.329 35.324 156.017 35.5364 156.017C35.7487 156.017 35.9173 156.335 35.9173 156.722Z" fill="#263238"/>
<path d="M39.5333 156.722C39.5333 157.116 39.3584 157.428 39.1461 157.428C38.9338 157.428 38.7589 157.116 38.7589 156.722C38.7589 156.329 38.9338 156.017 39.1461 156.017C39.3584 156.017 39.5333 156.335 39.5333 156.722Z" fill="#263238"/>
<path d="M38.4586 156.723C38.6357 157.587 38.8651 158.44 39.1456 159.277L38.4586 159.901" fill="white"/>
<path d="M38.4586 156.723C38.6357 157.587 38.8651 158.44 39.1456 159.277L38.4586 159.901" stroke="#263238" stroke-linecap="round" stroke-linejoin="round"/>
<path d="M38.459 160.588C37.36 160.726 36.2482 160.726 35.1492 160.588C35.184 161.021 35.3681 161.428 35.6699 161.74C35.9718 162.052 36.3727 162.25 36.8041 162.299C38.3966 162.536 37.8595 160.988 37.8595 160.988" fill="white"/>
<path d="M38.459 160.588C37.36 160.726 36.2482 160.726 35.1492 160.588C35.184 161.021 35.3681 161.428 35.6699 161.74C35.9718 162.052 36.3727 162.25 36.8041 162.299C38.3966 162.536 37.8595 160.988 37.8595 160.988" stroke="#263238" stroke-linecap="round" stroke-linejoin="round"/>
<path d="M19.7175 169.531C19.7175 169.531 24.164 163.436 26.7245 163.623C29.2849 163.811 36.8039 168.338 36.8039 168.338L44.7726 180.691L53.141 170.455L54.8708 167.445L58.1495 170.455L56.9567 171.63C56.5668 174.251 55.8666 176.817 54.8708 179.273C53.3783 182.64 50.2183 189.734 46.6774 190.596C43.1364 191.458 35.5612 183.495 35.5612 183.495C35.5612 183.495 31.6893 194.705 31.6893 198.92L19.7175 199.77V169.531Z" fill="#FB855E" stroke="#263238" stroke-linecap="round" stroke-linejoin="round"/>
<path d="M32.0201 174.502C32.2262 173.519 32.4826 172.548 32.7883 171.592" stroke="#263238" stroke-linecap="round" stroke-linejoin="round"/>
<path d="M35.5361 183.494C33.4128 181.327 31.3457 179.341 31.7454 176.138" stroke="#263238" stroke-linecap="round" stroke-linejoin="round"/>
<path d="M31.6643 198.92L32.0202 202.342C32.0202 202.342 39.0084 216.518 41.3565 222.607C46.0278 234.698 41.3565 256.955 41.3565 256.955H35.5487C35.5487 256.955 34.2622 233.105 33.6314 232.468C33.0007 231.831 23.477 217.012 23.477 217.012L19.73 228.565V199.769L31.6643 198.92Z" fill="#263238"/>
<path d="M78.8395 212.434C78.8395 212.434 75.6671 220.165 76.3415 224.156C77.016 228.146 83.9792 256.967 83.9792 256.967H87.3515C87.3515 256.967 87.2704 238.382 86.2337 233.861C85.197 229.339 83.5171 224.668 83.6607 223.456C83.8044 222.245 88.2821 212.428 88.2821 212.428L78.8395 212.434Z" fill="white" stroke="#263238" stroke-linecap="round" stroke-linejoin="round"/>
<path d="M67.5043 133.296C67.5043 133.296 66.4302 134.352 65.787 143.607L62.3085 142.433C62.3085 142.433 64.4193 135.045 64.3069 131.929" fill="white"/>
<path d="M67.5043 133.296C67.5043 133.296 66.4302 134.352 65.787 143.607L62.3085 142.433C62.3085 142.433 64.4193 135.045 64.3069 131.929" stroke="#263238" stroke-linecap="round" stroke-linejoin="round"/>
<path d="M66.8365 133.347C67.1147 133.367 67.394 133.332 67.6587 133.244C67.9234 133.156 68.1681 133.017 68.379 132.835C68.6582 132.628 68.9082 132.384 69.1222 132.11C69.3089 131.863 69.5179 131.633 69.7467 131.423C69.9028 131.28 70.059 131.149 70.2151 131.024C70.5337 130.769 70.8673 130.533 71.2143 130.318C71.2143 130.318 71.1831 129.656 70.5898 129.806C70.424 129.853 70.2661 129.925 70.1214 130.018C69.8716 130.168 69.628 130.362 69.4282 130.505C69.3164 130.597 69.1832 130.66 69.041 130.686C68.985 130.693 68.9284 130.693 68.8724 130.686H68.8099C68.6938 130.651 68.5886 130.586 68.5039 130.499C68.4651 130.459 68.4334 130.413 68.4103 130.362V130.324C68.4075 130.287 68.4075 130.249 68.4103 130.212C68.3796 130.005 68.3796 129.794 68.4103 129.587C68.4474 129.273 68.5101 128.961 68.5976 128.657C68.5976 128.544 68.6601 128.426 68.6975 128.32C68.7789 128.043 68.8769 127.772 68.9911 127.508C69.0722 127.32 69.1597 127.114 69.2346 126.883C69.3096 126.652 69.372 126.484 69.4282 126.296C69.5781 125.747 69.5843 125.297 69.2096 125.291C68.8349 125.285 68.7912 125.484 68.6163 125.953C68.5477 126.115 68.4727 126.309 68.3728 126.54C68.1939 126.938 67.9852 127.322 67.7483 127.689L67.6546 127.833L67.436 127.776C67.436 127.808 67.436 127.726 67.436 127.558C67.4742 127.115 67.541 126.674 67.6359 126.24C67.6796 126.04 67.7296 125.834 67.7795 125.616C67.8295 125.397 67.8857 125.241 67.9419 125.06C68.2292 124.148 67.5172 124.242 67.2799 124.473C67.0974 124.755 66.9762 125.072 66.9239 125.403C66.8677 125.603 66.8115 125.822 66.7553 126.028C66.7553 126.128 66.6991 126.228 66.6679 126.315C66.5492 126.696 66.4243 127.096 66.3432 127.37L66.3057 127.477L66.0122 127.514V127.37C65.9568 126.956 65.9401 126.538 65.9622 126.121C65.9622 125.84 66.0059 125.622 66.0184 125.447C66.0184 125.122 66.0184 124.96 65.8123 124.854C65.6062 124.747 65.3502 125.028 65.1878 125.428C65.0843 125.745 65.0295 126.075 65.0255 126.409C65.0219 126.467 65.0219 126.525 65.0255 126.584C65.0429 126.887 65.024 127.191 64.9692 127.489C64.9553 127.549 64.9449 127.609 64.938 127.67L64.7382 127.808C64.7103 127.726 64.6874 127.642 64.6695 127.558C64.5986 127.295 64.5444 127.028 64.5071 126.758C64.4851 126.549 64.4517 126.34 64.4072 126.134C64.3635 125.971 64.2948 125.878 64.1512 125.847C64.0075 125.815 63.8139 126.059 63.7702 126.396C63.7441 126.603 63.7441 126.813 63.7702 127.021C63.7781 127.174 63.8075 127.325 63.8576 127.47C63.9259 127.748 63.9636 128.033 63.97 128.32C63.97 128.438 63.97 128.557 63.97 128.669C63.97 129.094 63.97 129.487 63.97 129.625V129.675C63.9076 129.981 63.8639 130.243 63.8326 130.474C63.7398 131.027 63.7761 131.593 63.9388 132.129C64.118 132.479 64.4276 132.743 64.8006 132.866" fill="white"/>
<path d="M66.8365 133.347C67.1147 133.367 67.394 133.332 67.6587 133.244C67.9234 133.156 68.1681 133.017 68.379 132.835C68.6582 132.628 68.9082 132.384 69.1222 132.11C69.3089 131.863 69.5179 131.633 69.7467 131.423C69.9028 131.28 70.059 131.149 70.2151 131.024C70.5337 130.769 70.8673 130.533 71.2143 130.318C71.2143 130.318 71.1831 129.656 70.5898 129.806C70.424 129.853 70.2661 129.925 70.1214 130.018C69.8716 130.168 69.628 130.362 69.4282 130.505C69.3164 130.597 69.1832 130.66 69.041 130.686C68.985 130.693 68.9284 130.693 68.8724 130.686V130.686H68.8099C68.6938 130.651 68.5886 130.586 68.5039 130.499C68.4651 130.459 68.4334 130.413 68.4103 130.362V130.324C68.4075 130.287 68.4075 130.249 68.4103 130.212C68.3796 130.005 68.3796 129.794 68.4103 129.587V129.587C68.4474 129.273 68.5101 128.961 68.5976 128.657C68.5976 128.544 68.6601 128.426 68.6975 128.32C68.7789 128.043 68.8769 127.772 68.9911 127.508C69.0722 127.32 69.1597 127.114 69.2346 126.883C69.3096 126.652 69.372 126.484 69.4282 126.296C69.5781 125.747 69.5843 125.297 69.2096 125.291C68.8349 125.285 68.7912 125.484 68.6163 125.953C68.5477 126.115 68.4727 126.309 68.3728 126.54C68.1939 126.938 67.9852 127.322 67.7483 127.689V127.689L67.6546 127.833L67.436 127.776C67.436 127.808 67.436 127.726 67.436 127.558C67.4742 127.115 67.541 126.674 67.6359 126.24C67.6796 126.04 67.7296 125.834 67.7795 125.616C67.8295 125.397 67.8857 125.241 67.9419 125.06C68.2292 124.148 67.5172 124.242 67.2799 124.473C67.0974 124.755 66.9762 125.072 66.9239 125.403C66.8677 125.603 66.8115 125.822 66.7553 126.028C66.7553 126.128 66.6991 126.228 66.6679 126.315C66.5492 126.696 66.4243 127.096 66.3432 127.37L66.3057 127.477L66.0122 127.514V127.37C65.9568 126.956 65.9401 126.538 65.9622 126.121C65.9622 125.84 66.0059 125.622 66.0184 125.447C66.0184 125.122 66.0184 124.96 65.8123 124.854C65.6062 124.747 65.3502 125.028 65.1878 125.428C65.0843 125.745 65.0295 126.075 65.0255 126.409V126.409C65.0219 126.467 65.0219 126.525 65.0255 126.584C65.0429 126.887 65.024 127.191 64.9692 127.489C64.9553 127.549 64.9449 127.609 64.938 127.67L64.7382 127.808C64.7103 127.726 64.6874 127.642 64.6695 127.558V127.558C64.5986 127.295 64.5444 127.028 64.5071 126.758V126.758C64.4851 126.549 64.4517 126.34 64.4072 126.134C64.3635 125.971 64.2948 125.878 64.1512 125.847C64.0075 125.815 63.8139 126.059 63.7702 126.396C63.7441 126.603 63.7441 126.813 63.7702 127.021C63.7781 127.174 63.8075 127.325 63.8576 127.47C63.9259 127.748 63.9636 128.033 63.97 128.32C63.97 128.438 63.97 128.557 63.97 128.669C63.97 129.094 63.97 129.487 63.97 129.625V129.675C63.9076 129.981 63.8639 130.243 63.8326 130.474C63.7398 131.027 63.7761 131.593 63.9388 132.129C64.118 132.479 64.4276 132.743 64.8006 132.866" stroke="#263238" stroke-linecap="round" stroke-linejoin="round"/>
<path d="M68.3724 130.274C68.0192 130.162 67.64 130.162 67.2868 130.274C66.9336 130.386 66.6235 130.604 66.3989 130.899" stroke="#263238" stroke-linecap="round" stroke-linejoin="round"/>
<path d="M80.0696 134.639C80.0696 134.639 81.3186 140.185 80.0696 143.57C78.8206 146.955 78.2461 155.866 85.6902 158.271C93.1343 160.675 93.6339 159.576 93.6339 159.576L93.4652 135.177L84.0165 129.487L80.0696 134.639Z" fill="#263238"/>
<path d="M86.2397 147.823L78.8268 148.11L65.8309 152.157L66.9613 136.151L67.4796 134.639L63.8388 133.678L63.4828 135.383C63.4828 135.383 57.9372 155.104 59.3236 158.227C60.71 161.35 77.8027 157.103 77.8027 157.103C77.8027 157.103 78.4272 165.69 80.8377 168.725C83.2483 171.76 85.4341 178.092 85.4341 178.092H93.6089V146.336L86.2397 147.823Z" fill="#FB855E" stroke="#263238" stroke-linecap="round" stroke-linejoin="round"/>
<path d="M92.7592 147.042C92.7592 147.042 87.8568 151.214 87.8943 149.821C87.9427 148.258 87.7682 146.695 87.376 145.181C87.1771 144.367 86.9097 143.571 86.5766 142.802C86.4142 142.452 86.3206 142.265 86.3206 142.265L91.9786 134.265L92.7592 147.042Z" fill="white" stroke="#263238" stroke-linecap="round" stroke-linejoin="round"/>
<path d="M93.0154 143.97L88.0069 149.422L87.1638 145.487L83.6791 150.465L86.3207 149.297L87.5822 153.587L89.1435 149.815L93.0154 151.639L93.8085 144.788L93.0154 143.97Z" fill="#FB855E" stroke="#263238" stroke-linecap="round" stroke-linejoin="round"/>
<path d="M85.4466 178.099C85.4466 178.099 84.004 187.666 83.9977 189.777C83.9977 189.777 78.4459 207.838 77.403 215.082C77.403 215.082 83.6792 218.242 93.6401 217.011V178.099H85.4466Z" fill="#263238"/>
<path d="M77.8151 157.102C77.8151 157.102 76.6348 151.444 77.8151 150.414" stroke="#263238" stroke-linecap="round" stroke-linejoin="round"/>
<path d="M87.5821 155.892C87.5821 155.892 87.5446 163.941 88.3003 166.727" stroke="#263238" stroke-linecap="round" stroke-linejoin="round"/>
<path d="M90.88 140.104C90.88 140.104 90.2118 143.95 87.3765 145.181C87.1777 144.366 86.9103 143.571 86.5771 142.801C88.4632 141.446 90.88 140.104 90.88 140.104Z" fill="#263238"/>
<path d="M87.876 124.929C79.3577 124.504 80.2383 133.522 81.4561 140.185C82.3179 144.869 86.2523 146.243 90.9985 141.034C93.3654 138.443 94.9828 125.284 87.876 124.929Z" fill="white" stroke="#263238" stroke-linecap="round" stroke-linejoin="round"/>
<path d="M88.1134 128.132C88.1134 128.132 88.4506 134.29 91.5794 136.975C94.7081 139.661 93.584 144.869 93.584 144.869L93.7839 124.429C93.7839 124.429 88.7191 123.099 85.2531 123.967C85.2531 123.967 79.5264 124.398 78.9207 128.563C78.3149 132.729 80.5131 136.975 80.5131 136.975C80.5131 136.975 80.9378 128.214 88.1134 128.132Z" fill="#263238"/>
<path d="M87.5826 135.383C87.5826 135.807 87.3952 136.151 87.1642 136.151C86.9331 136.151 86.7395 135.807 86.7395 135.383C86.7395 134.958 86.9268 134.608 87.1642 134.608C87.4015 134.608 87.5826 134.952 87.5826 135.383Z" fill="#263238"/>
<path d="M83.1543 135.383C83.1543 135.807 82.967 136.151 82.7359 136.151C82.5049 136.151 82.3175 135.807 82.3175 135.383C82.3175 134.958 82.5049 134.608 82.7359 134.608C82.967 134.608 83.1543 134.952 83.1543 135.383Z" fill="#263238"/>
<path d="M86.3019 132.979C86.5979 132.906 86.9066 132.901 87.205 132.963C87.5034 133.026 87.7839 133.155 88.0255 133.341" stroke="#263238" stroke-linecap="round" stroke-linejoin="round"/>
<path d="M82.5798 133.409C82.2035 133.32 81.8112 133.323 81.4362 133.418C81.0612 133.512 80.7145 133.696 80.4253 133.953" stroke="#263238" stroke-linecap="round" stroke-linejoin="round"/>
<path d="M83.6789 136.582L82.636 137.831C82.636 137.831 83.1543 138.743 83.6789 138.943" stroke="#263238" stroke-linecap="round" stroke-linejoin="round"/>
<path d="M83.1547 140.117C84.2318 140.18 85.3072 139.965 86.2772 139.492C86.2772 139.492 86.2772 141.647 84.7284 141.64C83.8291 141.64 83.7667 140.598 83.7667 140.598" stroke="#263238" stroke-linecap="round" stroke-linejoin="round"/>
<path d="M71.8198 82.125V96.601" stroke="#263238" stroke-linecap="round" stroke-linejoin="round"/>
<path d="M89.9554 99.4181H53.5219L54.8396 96.6016H88.644L89.9554 99.4181Z" stroke="#263238" stroke-linecap="round" stroke-linejoin="round"/>
<path d="M41.1007 82.125V118.765" stroke="#263238" stroke-linecap="round" stroke-linejoin="round"/>
<path d="M54.8647 120.907H27.2117L28.2109 118.765H53.8655L54.8647 120.907Z" stroke="#263238" stroke-linecap="round" stroke-linejoin="round"/>
<path d="M121.968 256.967V77.4287H19.7175V256.967" stroke="#263238" stroke-linecap="round" stroke-linejoin="round"/>
<path d="M117.184 82.125L93.8086 100.86V256.967H117.184" fill="white"/>
<path d="M117.184 82.125L93.8086 100.86V256.967H117.184" stroke="#263238" stroke-linecap="round" stroke-linejoin="round"/>
<path d="M96.0815 195.847H88.6812V163.473H96.0815V165.808H91.3728V193.449H96.0815V195.847Z" fill="#BFBFBF" stroke="#263238" stroke-miterlimit="10"/>
<path d="M117.184 256.967V82.125H19.7175V256.967" stroke="#263238" stroke-linecap="round" stroke-linejoin="round"/>
<path d="M81.8743 59.7178H60.0416V72.1641H81.8743V59.7178Z" fill="#FB855E" stroke="#263238" stroke-linecap="round" stroke-linejoin="round"/>
<path d="M99.3793 116.222V144.069L109.265 140.135V110.327L99.3793 116.222Z" fill="white" stroke="#263238" stroke-linecap="round" stroke-linejoin="round"/>
<path d="M100.541 143.608V117.254L108.053 113.082" fill="white"/>
<path d="M100.541 143.608V117.254L108.053 113.082" stroke="#263238" stroke-linecap="round" stroke-linejoin="round"/>
<path d="M65.8435 65.2569H67.3236V66.2374H65.8435V68.2483H67.717V69.2475H64.7819V62.3779H67.717V63.3584H65.8435V65.2569Z" fill="#263238"/>
<path d="M71.9696 62.3779L70.8393 65.7065L72.0445 69.235H70.9079L70.0399 66.5184L69.1344 69.2475H68.1289L69.3342 65.719L68.2038 62.3779H69.3217L70.1273 64.8759L70.9517 62.3779H71.9696Z" fill="#263238"/>
<path d="M72.5814 62.3779H73.6618V69.2475H72.5814V62.3779Z" fill="#263238"/>
<path d="M74.1304 62.3779H77.459V63.3584H76.3349V69.2475H75.2607V63.3709H74.1304V62.3779Z" fill="#263238"/>
<path d="M138.654 36.043V257.03" stroke="#263238" stroke-linecap="round" stroke-linejoin="round"/>
<path d="M138.654 24.7646V33.439" stroke="#263238" stroke-linecap="round" stroke-linejoin="round"/>
<path d="M138.655 18.2881V20.4301" stroke="#263238" stroke-linecap="round" stroke-linejoin="round"/>
<path d="M233.679 79.5459H153.143V200.725H233.679V79.5459Z" stroke="#263238" stroke-linecap="round" stroke-linejoin="round"/>
<path d="M193.411 79.5459V200.731" stroke="#263238" stroke-linecap="round" stroke-linejoin="round"/>
<path d="M231.505 82.4307H195.584V197.396" stroke="#263238" stroke-linecap="round" stroke-linejoin="round"/>
<path d="M190.913 82.4307H155.503V197.396" stroke="#263238" stroke-linecap="round" stroke-linejoin="round"/>
<path d="M11.5863 256.968H252.07" stroke="#263238" stroke-width="0.979097" stroke-linecap="round" stroke-linejoin="round"/>
<path d="M208.867 112.163C216.605 116.279 246.643 136.65 252.582 143.014C258.521 149.377 249.722 199.188 249.722 199.188H234.815L238.306 151.132L204.489 137.83L208.867 112.163Z" fill="#FB855E"/>
<path opacity="0.3" d="M250.384 195.278C243.677 195.197 238.269 195.104 238.269 195.104L235.115 195.022L238.3 151.132L205.744 138.324L205.52 135.57C205.52 135.57 210.422 135.532 213.982 132.403C214.292 133.007 214.454 133.676 214.454 134.355C214.454 135.034 214.292 135.703 213.982 136.306C213.982 136.306 241.922 148.915 247.661 144.425C248.862 143.502 249.777 142.257 250.296 140.834C251.096 141.513 251.861 142.232 252.588 142.989C257.522 148.284 252.314 183.413 250.384 195.278Z" fill="black" fill-opacity="0.7"/>
<path d="M208.867 112.163C216.605 116.279 246.643 136.65 252.582 143.014C258.521 149.377 249.722 199.188 249.722 199.188H234.815L238.306 151.132L204.489 137.83L208.867 112.163Z" stroke="#263238" stroke-linecap="round" stroke-linejoin="round"/>
<path d="M199.012 178.18L195.003 159.014L207.231 155.704L213.975 172.697L199.012 178.18Z" fill="#757575" stroke="#263238" stroke-linecap="round" stroke-linejoin="round"/>
<path d="M203.646 179.548V149.403L210.391 147.023L227.889 156.903L228.995 184.288L203.646 179.548Z" fill="#757575"/>
<path opacity="0.3" d="M203.646 149.403L210.391 147.023L210.341 174.808H203.646V149.403Z" fill="black" fill-opacity="0.7"/>
<path d="M203.646 179.548V149.403L210.391 147.023L227.889 156.903L228.995 184.288L203.646 179.548Z" stroke="#263238" stroke-linecap="round" stroke-linejoin="round"/>
<path d="M217.298 176.862L213.976 150.614L219.827 145.631L241.011 152.831L244.014 179.548L217.298 176.862Z" fill="#FB855E"/>
<path opacity="0.3" d="M213.976 150.614L216.324 169.649L222.363 166.939L219.827 145.631L213.976 150.614Z" fill="black" fill-opacity="0.7"/>
<path d="M217.298 176.862L213.976 150.614L219.827 145.631L241.011 152.831L244.014 179.548L217.298 176.862Z" stroke="#263238" stroke-linecap="round" stroke-linejoin="round"/>
<path d="M221.394 160.419L221.563 162.011" stroke="#263238" stroke-linecap="round" stroke-linejoin="round"/>
<path d="M219.827 145.631L220.995 156.635" stroke="#263238" stroke-linecap="round" stroke-linejoin="round"/>
<path d="M210.341 155.704V166.327" stroke="#263238" stroke-linecap="round" stroke-linejoin="round"/>
<path d="M210.341 149.403V151.133" stroke="#263238" stroke-linecap="round" stroke-linejoin="round"/>
<path d="M240.38 158.046L226.94 154.349L227.74 161.218L241.01 164.372L240.38 158.046Z" fill="white" stroke="#263238" stroke-linecap="round" stroke-linejoin="round"/>
<path d="M237.588 175.014C237.588 175.014 236.339 146.636 241.591 139.642C246.843 132.648 243.696 155.623 243.696 155.623C243.696 155.623 251.496 129.694 257.61 130.537C263.724 131.38 248.548 158.152 248.548 158.152C248.548 158.152 258.665 147.211 261.613 148.572C264.56 149.934 249.535 164.372 249.535 164.372C249.535 164.372 253.182 160.894 255.711 163.635C258.24 166.377 244.751 173.54 244.12 178.18L237.588 175.014Z" fill="#263238"/>
<path opacity="0.2" d="M251.158 165.303C251.111 165.275 251.059 165.256 251.005 165.248C250.95 165.24 250.895 165.242 250.841 165.256C250.788 165.269 250.738 165.293 250.694 165.326C250.65 165.358 250.612 165.399 250.584 165.447C248.681 168.456 246.075 170.957 242.99 172.735C243.234 171.567 243.739 169.281 244.433 166.49C246.4 163.305 251.165 159.732 251.215 159.695C251.302 159.628 251.359 159.53 251.374 159.421C251.389 159.313 251.361 159.202 251.296 159.114C251.264 159.07 251.223 159.033 251.176 159.004C251.13 158.976 251.078 158.957 251.024 158.949C250.97 158.941 250.915 158.943 250.862 158.957C250.809 158.97 250.759 158.994 250.715 159.027C248.635 160.602 246.716 162.38 244.988 164.335C246.543 158.402 248.798 151.071 251.321 146.974C251.371 146.88 251.384 146.77 251.356 146.667C251.328 146.564 251.262 146.475 251.171 146.419C251.08 146.363 250.971 146.344 250.867 146.366C250.762 146.388 250.67 146.449 250.609 146.537C246.924 152.513 243.883 164.797 242.615 170.418C240.661 161.825 241.416 150.396 241.422 150.271C241.427 150.217 241.42 150.163 241.403 150.111C241.387 150.059 241.36 150.011 241.324 149.97C241.289 149.929 241.246 149.895 241.197 149.871C241.149 149.846 241.096 149.832 241.042 149.828C240.987 149.824 240.932 149.83 240.88 149.847C240.828 149.865 240.78 149.892 240.739 149.928C240.697 149.964 240.664 150.008 240.639 150.057C240.615 150.107 240.601 150.16 240.598 150.215C240.598 150.346 239.724 163.398 242.216 172.235C242.084 172.859 241.997 173.278 241.978 173.384C241.965 173.459 241.971 173.536 241.998 173.608C242.024 173.679 242.069 173.742 242.128 173.79C242.202 173.845 242.292 173.876 242.384 173.877C242.447 173.878 242.508 173.865 242.565 173.84C248.048 171.286 251.171 166.065 251.308 165.846C251.357 165.754 251.369 165.646 251.341 165.545C251.313 165.444 251.248 165.358 251.158 165.303Z" fill="white"/>
<path d="M191.393 168.8L225.36 164.372L255.711 171.054L254.45 205.158L226.94 209.505L189.014 206.108L191.393 168.8Z" fill="#999999"/>
<path opacity="0.3" d="M255.711 171.054L255.249 183.506L231.743 184.287L226.946 177.83V209.504L189.02 206.101L191.4 168.805L225.36 164.365L255.711 171.054Z" fill="black" fill-opacity="0.7"/>
<path d="M191.393 168.8L225.36 164.372L255.711 171.054L254.45 205.158L226.94 209.505L189.014 206.108L191.393 168.8Z" stroke="#263238" stroke-linecap="round" stroke-linejoin="round"/>
<path d="M225.36 164.372L235.896 181.421L262 182.601L255.711 171.054L225.36 164.372Z" fill="#BFBFBF" stroke="#263238" stroke-linecap="round" stroke-linejoin="round"/>
<path d="M225.36 164.372L220.508 181.421L187.415 182.601L191.393 168.8L225.36 164.372Z" fill="#999999" stroke="#263238" stroke-linecap="round" stroke-linejoin="round"/>
<path d="M226.94 173.49V171.011" stroke="#263238" stroke-linecap="round" stroke-linejoin="round"/>
<path d="M226.94 186.03V178.18" stroke="#263238" stroke-linecap="round" stroke-linejoin="round"/>
<path d="M226.94 209.505V188.878" stroke="#263238" stroke-linecap="round" stroke-linejoin="round"/>
<path d="M133.583 257.023H181.214C186.604 238.855 190.072 220.172 191.562 201.28L135.407 193.567L133.764 201.542C133.764 201.542 128.431 211.322 130.079 236.671C130.602 243.55 131.775 250.365 133.583 257.023Z" fill="#263238"/>
<path d="M136.199 200.63C146.192 208.205 179.29 211.565 190.05 205.108L190.369 198.095L137.186 194.348L136.199 200.63Z" fill="#757575" stroke="#263238" stroke-linecap="round" stroke-linejoin="round"/>
<path d="M165.47 201.43V208.512C165.47 208.512 171.522 209.337 174.145 208.469L174.582 201.418L165.47 201.43Z" fill="#BFBFBF" stroke="#263238" stroke-miterlimit="10"/>
<path d="M152.193 199.825C152.193 199.825 151.631 204.871 151.257 207.063H148.902C148.902 207.063 149.564 201.361 150.114 199.825H152.193Z" fill="#263238"/>
<path d="M182.669 208.93C182.669 208.93 182.669 203.853 182.844 201.63L185.18 201.38C185.18 201.38 185.123 207.125 184.743 208.712L182.669 208.93Z" fill="#263238"/>
<path d="M163.759 100.473C168.13 97.8934 183.574 99.8481 185.617 101.79C187.659 103.733 179.859 129.774 179.859 129.774L167.019 131.467L163.759 100.473Z" fill="#FB855E" stroke="#263238" stroke-linecap="round" stroke-linejoin="round"/>
<path d="M207.868 133.534C206.597 141.873 204.395 150.042 201.304 157.89C191.431 182.914 201.086 197.858 193.473 201.868C188.408 204.528 138.411 202.842 134.445 195.766C129.118 186.261 134.888 111.895 140.89 108.96C154.335 102.315 187.141 103.571 208.867 112.214C208.867 112.214 208.979 113.263 209.048 115.18" fill="#FB855E"/>
<path opacity="0.3" d="M171.222 135.57C171.222 135.57 169.468 149.515 159.682 153.556C149.896 157.596 148.066 160.425 148.11 164.584C148.11 164.584 143.114 171.785 142.433 178.18C141.977 182.639 138.848 188.859 133.196 191.251C131.641 181.402 132.347 159.976 134.146 141.446L136.2 140.004C136.2 140.004 144.35 130.736 145.374 124.166C145.428 123.823 145.461 123.477 145.474 123.13C145.699 116.541 152.6 131.873 148.597 140.878C144.594 149.884 171.222 135.57 171.222 135.57Z" fill="black" fill-opacity="0.7"/>
<path opacity="0.3" d="M188.902 121.537L182.364 114.911L177.368 120.051L170.96 117.422L163.735 124.204C159.182 119.651 158.639 110.015 158.739 104.925C169.048 104.29 179.396 104.919 189.552 106.799C191.887 116.042 188.902 121.537 188.902 121.537Z" fill="black" fill-opacity="0.7"/>
<path d="M207.868 133.534C206.597 141.873 204.395 150.042 201.304 157.89C191.431 182.914 201.086 197.858 193.473 201.868C188.408 204.528 138.411 202.842 134.445 195.766C129.118 186.261 134.888 111.895 140.89 108.96C154.335 102.315 187.141 103.571 208.867 112.214C208.867 112.214 208.979 113.263 209.048 115.18" stroke="#263238" stroke-linecap="round" stroke-linejoin="round"/>
<path d="M186.16 106.78C186.16 106.78 178.703 118.583 177.379 118.583C175.581 118.583 163.759 107.23 163.759 107.23C165.044 106.016 165.918 104.431 166.257 102.696C166.636 100.686 166.636 98.623 166.257 96.6131C166.157 96.0448 166.07 95.7139 166.07 95.7139L163.746 70.3652L189.045 74.8429C182.144 93.4844 182.363 104.588 186.16 106.78Z" fill="white" stroke="#263238" stroke-linecap="round" stroke-linejoin="round"/>
<path d="M161.767 105.75C161.767 105.75 163.678 116.086 170.316 122.693L175.206 124.335C175.206 124.335 183.949 114.911 186.179 106.787L189.064 108.866C189.064 108.866 181.864 123.392 176.412 125.672L170.548 132.604C170.548 132.604 171.665 141.547 163.753 144.469C155.84 147.392 134.108 162.848 138.379 176.662L130.473 180.26L126.832 172.004C126.832 172.004 129.811 160.825 138.361 151.963C146.91 143.102 165.327 146.468 168.299 132.604V124.204C168.299 124.204 157.002 111.09 161.767 105.75Z" fill="#263238"/>
<path d="M184.911 111.664L191.506 118.084C192.38 106.068 185.63 101.79 185.63 101.79C186.454 106.068 182.388 108.697 182.388 108.697C181.28 112.054 179.271 115.042 176.581 117.334C174.285 115.085 172.196 112.636 170.335 110.015C166.588 108.373 163.778 100.473 163.778 100.473C162.135 101.831 160.753 103.478 159.7 105.331C159.7 105.331 160.281 116.273 164.696 120.881C166.388 118.539 168.268 116.337 170.317 114.299L177.38 120.057L184.911 111.664Z" fill="#FB855E" stroke="#263238" stroke-linecap="round" stroke-linejoin="round"/>
<path d="M145.567 128.444C145.247 130.738 144.714 132.999 143.975 135.195L103.882 160.062C103.882 160.062 97.5993 157.252 102.008 141.121C106.417 124.99 140.877 108.909 140.877 108.909C141.504 109.652 142.059 110.453 142.532 111.301" fill="#FB855E"/>
<path opacity="0.3" d="M145.568 128.438C145.25 130.736 144.715 132.999 143.969 135.195L128.887 144.563C121.68 144.563 114.018 144.026 112.15 142.102C108.403 138.249 113.674 135.72 113.674 135.72C117.171 132.947 129.049 131.91 134.32 130.53C139.591 129.15 144.849 125.534 144.849 125.534L145.112 125.859L145.568 128.438Z" fill="black" fill-opacity="0.7"/>
<path d="M145.567 128.444C145.247 130.738 144.714 132.999 143.975 135.195L103.882 160.062C103.882 160.062 97.5993 157.252 102.008 141.121C106.417 124.99 140.877 108.909 140.877 108.909C141.504 109.652 142.059 110.453 142.532 111.301" stroke="#263238" stroke-linecap="round" stroke-linejoin="round"/>
<path d="M154.311 130.917C154.311 130.917 160.612 125.159 161.742 123.841C162.873 122.524 171.51 120.388 172.702 120.881C173.895 121.375 173.239 123.017 173.239 123.017C173.239 123.017 175.637 123.017 175.182 124.335C174.726 125.652 170.498 127.457 170.498 127.457C170.498 127.457 173.808 129.924 174.345 130.911C174.882 131.897 172.702 133.546 172.702 133.546C172.702 133.546 173.327 135.189 172.702 135.688C172.078 136.188 168.862 138.648 168.862 138.648C168.862 138.648 167.675 138.155 168.974 136.013L167.138 135.925C167.138 135.925 161.717 139.304 157.933 138.648L154.311 130.917Z" fill="white" stroke="#263238" stroke-linecap="round" stroke-linejoin="round"/>
<path d="M110.364 139.817C122.23 134.496 146.167 129.157 148.74 132.373L154.361 129.75C154.361 129.75 159.132 135.171 157.983 140.442L153.461 141.428C153.461 141.428 148.603 151.633 123.585 161.506C109.515 167.064 104.032 162.755 102.521 156.81" fill="#FB855E"/>
<path d="M110.364 139.817C122.23 134.496 146.167 129.157 148.74 132.373L154.361 129.75C154.361 129.75 159.132 135.171 157.983 140.442L153.461 141.428C153.461 141.428 148.603 151.633 123.585 161.506C109.515 167.064 104.032 162.755 102.521 156.81" stroke="#263238" stroke-linecap="round" stroke-linejoin="round"/>
<path d="M189.095 153.393C191.973 153.65 194.87 153.583 197.732 153.193L199.774 144.138" stroke="#263238" stroke-linecap="round" stroke-linejoin="round"/>
<path d="M183.905 150.265L183.581 152.313" stroke="#263238" stroke-linecap="round" stroke-linejoin="round"/>
<path d="M200.43 141.221L201.242 137.612C201.242 137.612 190.707 137.456 186.098 136.294L184.287 147.897" stroke="#263238" stroke-linecap="round" stroke-linejoin="round"/>
<path d="M168.868 189.971C168.868 191.17 168.911 192.369 168.999 193.568" stroke="#263238" stroke-linecap="round" stroke-linejoin="round"/>
<path d="M169.923 173.977C169.243 178.525 168.882 183.116 168.843 187.716" stroke="#263238" stroke-linecap="round" stroke-linejoin="round"/>
<path d="M174.869 144.444C173.783 153.631 171.672 162.649 170.254 171.785" stroke="#263238" stroke-linecap="round" stroke-linejoin="round"/>
<path d="M176.412 130.518C176.006 134.227 175.612 137.943 175.194 141.652" stroke="#263238" stroke-linecap="round" stroke-linejoin="round"/>
<path d="M152.15 225.948C151.118 225.419 150.028 225.01 148.902 224.73" stroke="white" stroke-linecap="round" stroke-linejoin="round"/>
<path d="M173.046 255.144C172.421 250.354 171.797 245.358 169.923 240.362C166.801 234.116 159.307 232.243 154.654 227.328" stroke="white" stroke-linecap="round" stroke-linejoin="round"/>
<path d="M170.972 217.648C170.585 222.876 171.903 229.576 168.849 234.167" stroke="white" stroke-linecap="round" stroke-linejoin="round"/>
<path d="M171.615 210.904C171.465 212.153 171.341 213.44 171.222 214.714" stroke="white" stroke-linecap="round" stroke-linejoin="round"/>
<path d="M173.358 238.663C174.338 239.347 175.358 239.973 176.411 240.537" stroke="white" stroke-linecap="round" stroke-linejoin="round"/>
<path d="M156.259 220.121C160.211 226.354 165.097 231.942 170.748 236.689" stroke="white" stroke-linecap="round" stroke-linejoin="round"/>
<path d="M139.141 205.158C139.141 205.158 139.366 213.758 132.341 217.024" stroke="white" stroke-linecap="round" stroke-linejoin="round"/>
<path d="M189.014 208.881C189.014 208.881 188.359 213.49 189.064 215.513" stroke="white" stroke-linecap="round" stroke-linejoin="round"/>
<path d="M134.327 250.841C135.338 252.277 136.398 253.678 137.505 255.044" stroke="white" stroke-linecap="round" stroke-linejoin="round"/>
<path d="M185.535 139.816C185.535 139.816 193.223 141.534 198.494 140.547" stroke="#263238" stroke-linecap="round" stroke-linejoin="round"/>
<path d="M118.089 136.906C118.089 136.906 115.191 134.683 109.234 136.281" stroke="#263238" stroke-linecap="round" stroke-linejoin="round"/>
<path d="M148.74 132.397C150.435 134.12 151.53 136.343 151.862 138.736" stroke="#263238" stroke-linecap="round" stroke-linejoin="round"/>
<path d="M212.926 134.489C212.312 135.608 211.456 136.575 210.42 137.32C209.383 138.064 208.193 138.567 206.937 138.792" stroke="#263238" stroke-linecap="round" stroke-linejoin="round"/>
<path d="M178.56 181.209C177.636 181.784 176.649 182.251 175.618 182.602" stroke="#263238" stroke-linecap="round" stroke-linejoin="round"/>
<path d="M192.761 165.658C189.551 170.785 185.635 175.825 180.896 179.591" stroke="#263238" stroke-linecap="round" stroke-linejoin="round"/>
<path d="M149.47 168.943C153.261 180.291 159.793 193.611 171.784 198.07" stroke="#263238" stroke-linecap="round" stroke-linejoin="round"/>
<path d="M147.597 162.78C147.922 163.954 148.263 165.126 148.621 166.296" stroke="#263238" stroke-linecap="round" stroke-linejoin="round"/>
<path d="M145.492 153.556C145.842 155.635 146.304 157.696 146.804 159.744" stroke="#263238" stroke-linecap="round" stroke-linejoin="round"/>
<path d="M177.336 96.2764C177.336 96.2764 172.733 104.264 166.239 102.684C166.618 100.674 166.618 98.6109 166.239 96.6011C166.632 96.3888 166.894 96.2764 166.894 96.2764H177.336Z" fill="#263238"/>
<path d="M186.304 85.1723C186.304 85.1723 189.152 81.8312 189.083 75.5862C188.964 65.5067 184.599 56.0642 169.642 58.5872C163.366 59.6489 159.088 63.9704 157.739 70.6776C157.114 73.8001 157.652 77.4909 158.014 80.9007C158.407 84.6477 158.413 87.839 159.331 91.2175C160.924 97.1066 164.146 100.991 168.262 100.416C172.69 99.792 179.965 95.3517 180.127 92.8225" fill="white"/>
<path d="M186.304 85.1723C186.304 85.1723 189.152 81.8312 189.083 75.5862C188.964 65.5067 184.599 56.0642 169.642 58.5872C163.366 59.6489 159.088 63.9704 157.739 70.6776C157.114 73.8001 157.652 77.4909 158.014 80.9007C158.407 84.6477 158.413 87.839 159.331 91.2175C160.924 97.1066 164.146 100.991 168.262 100.416C172.69 99.792 179.965 95.3517 180.127 92.8225" stroke="#263238" stroke-linecap="round" stroke-linejoin="round"/>
<path d="M168.318 75.349C168.318 75.349 171.191 74.2811 172.727 77.6535" stroke="#263238" stroke-linecap="round" stroke-linejoin="round"/>
<path d="M158.844 73.7563C158.844 73.7563 161.723 72.6884 163.26 76.0607" stroke="#263238" stroke-linecap="round" stroke-linejoin="round"/>
<path d="M168.886 80.1453C168.886 80.8572 169.205 81.4317 169.598 81.4317C169.992 81.4317 170.316 80.8572 170.316 80.1453C170.316 79.4333 169.998 78.8525 169.598 78.8525C169.199 78.8525 168.886 79.4271 168.886 80.1453Z" fill="#263238"/>
<path d="M160.337 79.3207C160.337 80.0326 160.662 80.6134 161.055 80.6134C161.449 80.6134 161.767 80.0326 161.767 79.3207C161.767 78.6087 161.449 78.0342 161.055 78.0342C160.662 78.0342 160.337 78.615 160.337 79.3207Z" fill="#263238"/>
<path d="M168.999 89.7373C168.999 89.7373 165.876 91.4734 162.935 90.7115" stroke="#263238" stroke-linecap="round" stroke-linejoin="round"/>
<path d="M168.43 90.3184C168.43 90.3184 168.093 92.5853 165.97 92.8164C165.697 92.855 165.419 92.836 165.154 92.7605C164.89 92.6851 164.643 92.5548 164.432 92.3782C164.221 92.2016 164.049 91.9826 163.928 91.7353C163.806 91.488 163.738 91.2181 163.728 90.9429" stroke="#263238" stroke-linecap="round" stroke-linejoin="round"/>
<path d="M163.759 78.8408C163.759 79.9337 159.388 85.4231 159.8 86.0788C160.212 86.7345 163.759 86.9594 163.759 86.9594" fill="white"/>
<path d="M163.759 78.8408C163.759 79.9337 159.388 85.4231 159.8 86.0788C160.212 86.7345 163.759 86.9594 163.759 86.9594" stroke="#263238" stroke-linecap="round" stroke-linejoin="round"/>
<path d="M179.291 82.8992H177.479C178.141 79.3208 176.855 74.0812 174.738 71.833L177.86 67.2242C177.86 67.2242 170.291 63.2211 159.75 65.2258C159.75 65.2258 156.427 62.2906 157.427 56.2017C159.029 57.3723 160.935 58.0573 162.916 58.1751C162.916 58.1751 161.442 56.3641 161.748 54.3906C164.824 55.8123 168.226 56.3796 171.597 56.0331C177.523 55.5397 184.312 56.3641 189.083 63.2773C193.242 69.3225 192.08 83.3551 184.936 88.3199L183.749 86.9585C183.749 86.9585 186.079 78.1842 182.588 79.3208C180.071 80.1452 179.291 82.8992 179.291 82.8992Z" fill="#263238"/>
<path d="M179.847 81.4318C179.847 81.4318 181.164 78.5841 183.794 79.321C186.423 80.0579 183.962 91.5863 179.847 88.9509" fill="white"/>
<path d="M179.847 81.4318C179.847 81.4318 181.164 78.5841 183.794 79.321C186.423 80.0579 183.962 91.5863 179.847 88.9509" stroke="#263238" stroke-linecap="round" stroke-linejoin="round"/>
</svg>
