<svg width="577" height="376" viewBox="0 0 577 376" fill="none" xmlns="http://www.w3.org/2000/svg">
<path d="M0.00012207 375.4L576.1 375.4V-9.15527e-05L0.00012207 -9.15527e-05V375.4Z" fill="#DDE0F8"/>
<path d="M428.462 66.7649C428.462 66.7649 410.862 49.6649 373.062 53.4649C335.262 57.2649 332.962 75.2649 305.362 75.5649C277.762 75.8649 234.262 23.5649 167.462 26.1649C100.662 28.7649 140.962 125.065 140.962 146.865C140.962 168.665 105.262 227.665 138.362 270.665C171.462 313.665 203.662 328.165 233.162 328.165C262.662 328.165 248.962 306.365 305.262 309.565C361.562 312.665 429.362 285.965 470.362 241.565C511.362 197.165 459.462 75.2649 428.462 66.7649Z" fill="white"/>
<path d="M140.362 349.265H86.6617C86.6617 349.265 92.4617 320.165 82.3617 311.165C72.1617 302.165 66.9617 292.865 72.6617 280.165C78.3617 267.465 97.5617 259.765 93.8617 241.265C90.1617 222.765 93.6617 203.065 107.362 198.165C121.062 193.265 117.062 211.365 117.362 217.865C117.662 224.365 115.162 235.265 127.262 245.965C139.262 256.665 124.962 274.665 126.562 285.865C128.262 297.065 140.462 315.265 140.462 315.265V349.265H140.362Z" fill="#6DB6E6"/>
<path d="M144.162 349.265C144.162 349.265 143.462 346.065 136.862 344.565C130.262 343.065 129.062 338.565 128.762 334.465C128.562 330.365 128.662 311.065 122.762 306.965C122.762 306.965 136.862 313.565 140.962 323.865C145.062 334.165 148.762 349.265 148.762 349.265H144.162Z" fill="#0E66A6"/>
<path d="M147.762 344.565C147.762 344.565 127.962 331.465 130.162 309.965C132.362 288.365 142.762 280.165 142.762 280.165C142.762 280.165 133.162 305.065 149.562 316.265C166.062 327.465 147.762 344.565 147.762 344.565Z" fill="#4991CE"/>
<path d="M146.962 349.265C146.962 349.265 140.662 335.965 146.962 321.665C153.262 307.365 159.462 304.965 155.162 288.065C155.162 288.065 173.962 299.665 167.862 317.165C161.762 334.665 156.962 334.665 157.162 349.265H146.962Z" fill="#6DB6E6"/>
<path d="M148.862 349.265C148.862 349.265 149.962 341.965 157.362 339.465C164.762 336.965 164.662 331.165 165.562 326.065C166.462 320.965 174.662 309.865 183.862 308.665C183.862 308.665 174.362 318.365 175.362 330.865C176.362 343.365 170.262 344.965 164.862 346.265C159.462 347.565 157.162 349.265 157.162 349.265H148.862Z" fill="#4291CF"/>
<path d="M110.562 349.265C110.562 349.265 112.362 307.665 108.562 285.765C104.762 263.865 105.162 236.465 109.762 223.165" stroke="#4B98D3" stroke-miterlimit="10"/>
<path d="M122.062 335.865L110.962 347.065L106.862 342.465" stroke="#4095CB" stroke-miterlimit="10"/>
<path d="M122.062 319.765L110.962 331.665L106.862 324.965" stroke="#4095CB" stroke-miterlimit="10"/>
<path d="M120.662 303.165L110.962 315.565L106.362 309.365" stroke="#4095CB" stroke-miterlimit="10"/>
<path d="M118.862 286.865L110.062 298.965L99.2617 288.065" stroke="#4095CB" stroke-miterlimit="10"/>
<path d="M116.962 270.765L108.062 282.765L96.8618 270.765" stroke="#4095CB" stroke-miterlimit="10"/>
<path d="M135.862 355.665C182.309 355.665 219.962 353.158 219.962 350.065C219.962 346.972 182.309 344.465 135.862 344.465C89.4146 344.465 51.7617 346.972 51.7617 350.065C51.7617 353.158 89.4146 355.665 135.862 355.665Z" fill="#253575"/>
<path d="M394.762 96.1649H330.962C324.762 96.1649 319.762 91.1649 319.762 84.9649V29.9649C319.762 23.7649 324.762 18.7649 330.962 18.7649H394.762C400.962 18.7649 405.962 23.7649 405.962 29.9649V84.9649C406.062 91.1649 400.962 96.1649 394.762 96.1649Z" fill="#E6E7F5"/>
<path d="M295.762 178.365H203.062C196.862 178.365 191.862 173.365 191.862 167.165V74.4649C191.862 68.2649 196.862 63.2649 203.062 63.2649H295.762C301.962 63.2649 306.962 68.2649 306.962 74.4649V167.165C307.062 173.265 301.962 178.365 295.762 178.365Z" fill="#E8E9F6"/>
<path d="M475.462 288.165H340.362C334.162 288.165 329.162 283.165 329.162 276.965V113.965C329.162 107.765 334.162 102.765 340.362 102.765H475.562C481.762 102.765 486.762 107.765 486.762 113.965V276.965C486.762 283.165 481.762 288.165 475.462 288.165Z" fill="#E8E9F6"/>
<path d="M369.762 31.0649C369.762 31.0649 372.562 33.5649 372.162 40.4649C371.762 47.2649 362.862 35.7649 362.862 35.7649L369.762 31.0649Z" fill="#383E4F"/>
<path d="M378.862 72.965H348.962C348.962 72.965 346.862 55.065 348.462 49.265L357.062 37.165L358.162 32.365L357.162 19.865L372.662 20.465C372.662 20.465 371.962 30.965 366.462 35.065C366.462 35.065 365.362 35.865 366.662 37.165C368.062 38.465 376.162 46.165 376.262 52.765C376.362 52.765 379.062 69.265 378.862 72.965Z" fill="#EDA27E"/>
<path d="M359.762 35.8649C359.762 35.8649 359.062 28.7649 360.362 27.9649C360.362 27.9649 357.462 24.2649 359.562 23.1649C361.662 22.0649 362.162 24.4649 361.662 24.8649C361.662 24.8649 368.362 26.1649 372.662 20.4649C372.662 20.4649 372.162 9.36485 361.862 10.5649C351.662 11.7649 352.462 37.1649 359.762 35.8649Z" fill="#333F54"/>
<path d="M357.062 37.1648C357.062 37.1648 361.662 44.6648 369.562 43.6648C369.562 43.6648 369.162 38.0648 366.762 37.1648C366.762 37.1648 376.762 40.0648 376.362 50.8648C375.962 61.6648 373.062 60.5648 373.862 72.9648H356.162C356.162 72.9648 353.662 62.1648 356.162 54.3648C356.162 54.3648 349.262 55.3648 346.862 52.1648C346.762 52.1648 344.462 37.0648 357.062 37.1648Z" fill="#E94848"/>
<path d="M335.562 32.2649H333.962V40.5649H335.562V32.2649Z" fill="#6296CF"/>
<path d="M342.228 33.8151V32.2151H333.928V33.8151H342.228Z" fill="#6296CF"/>
<path d="M391.851 33.8922V32.2922H383.551V33.8922H391.851Z" fill="#6296CF"/>
<path d="M390.249 40.5068H391.849V32.2068H390.249V40.5068Z" fill="#6296CF"/>
<path d="M335.562 75.5649H333.962V83.8649H335.562V75.5649Z" fill="#6296CF"/>
<path d="M333.946 82.2967V83.8967H342.246V82.2967H333.946Z" fill="#6296CF"/>
<path d="M383.569 82.2196V83.8196H391.869V82.2196H383.569Z" fill="#6296CF"/>
<path d="M390.249 83.887H391.849V75.587H390.249V83.887Z" fill="#6296CF"/>
<path d="M213.562 73.5649H211.962V81.8649H213.562V73.5649Z" fill="#6296CF"/>
<path d="M220.182 75.141V73.541H211.882V75.141H220.182Z" fill="#6296CF"/>
<path d="M288.766 75.1569V73.5569H280.466V75.1569H288.766Z" fill="#6296CF"/>
<path d="M287.2 81.887H288.8V73.587H287.2V81.887Z" fill="#6296CF"/>
<path d="M213.562 133.665H211.962V141.965H213.562V133.665Z" fill="#6296CF"/>
<path d="M211.94 140.431V142.031H220.24V140.431H211.94Z" fill="#6296CF"/>
<path d="M280.524 140.415V142.015H288.824V140.415H280.524Z" fill="#6296CF"/>
<path d="M287.2 142.027H288.8V133.727H287.2V142.027Z" fill="#6296CF"/>
<path d="M380.162 200.665H415.262L421.462 147.065L401.062 150.765L393.762 145.565L376.962 167.265L380.162 200.665Z" fill="#E5C5C2"/>
<path d="M389.162 147.065L370.862 155.965L357.262 191.965L360.862 200.665H370.662L373.262 193.565L374.962 200.665H383.162L388.162 163.065L389.162 147.065Z" fill="#3C4144"/>
<path d="M406.662 200.665H428.862L430.762 181.665C430.762 181.665 437.862 193.265 437.862 200.665H453.162C453.162 200.665 448.662 158.165 442.562 151.865L423.362 144.565L409.162 164.265L406.662 200.665Z" fill="#3C4144"/>
<path d="M393.762 145.565C393.762 145.565 387.662 163.065 384.862 200.665H383.162V167.665L385.362 165.065L382.362 161.165L389.062 146.965L393.762 145.565Z" fill="#4E5761"/>
<path d="M357.862 355.265C357.862 355.265 353.562 360.965 348.262 362.465C342.962 364.065 343.262 367.765 349.062 367.765C354.862 367.865 365.162 367.765 365.162 367.765C365.162 367.765 367.562 358.965 364.362 355.665C361.162 352.465 357.862 355.265 357.862 355.265Z" fill="#2A2C46"/>
<path d="M420.262 143.065C420.262 143.065 406.162 159.665 403.462 174.565C400.762 189.465 404.162 200.665 404.162 200.665H406.762L412.762 167.365L410.762 164.765L416.662 160.265L423.362 144.565L420.262 143.065Z" fill="#4E575E"/>
<path d="M415.062 140.665C415.062 140.665 411.262 135.965 412.862 123.165L417.262 107.565L406.662 98.5649L389.962 102.665C389.962 102.665 386.262 110.065 388.162 119.665C390.062 129.265 390.462 137.465 399.262 137.665L397.462 142.065V150.865H410.062L415.062 140.665Z" fill="#EBA987"/>
<path d="M404.662 115.965C404.662 115.965 409.262 104.465 403.562 104.165C397.862 103.865 385.962 106.265 386.662 95.0649C386.662 95.0649 395.262 96.8649 399.962 91.6649C404.562 86.5649 419.762 87.1649 420.262 96.9649C420.762 106.765 417.362 118.265 412.862 123.165L411.262 116.965C411.262 116.965 417.062 112.765 413.362 108.665C409.662 104.465 406.962 112.865 407.962 115.065L404.662 115.965Z" fill="#EA744E"/>
<path d="M401.062 150.765L393.762 160.265V145.565L397.462 141.965L401.062 150.765Z" fill="#F6DED6"/>
<path d="M406.062 161.165L401.062 150.765L415.062 140.665L420.262 143.065L406.062 161.165Z" fill="#F6DED6"/>
<path d="M397.062 155.965C397.062 155.965 390.562 184.465 392.462 200.665H398.762C398.762 200.665 397.362 173.365 401.062 158.365H402.362L402.762 154.165L401.162 150.665L397.062 155.965Z" fill="#CD4346"/>
<path d="M355.162 121.165H353.562V129.465H355.162V121.165Z" fill="#6296CF"/>
<path d="M361.86 122.801V121.201H353.56V122.801H361.86Z" fill="#6296CF"/>
<path d="M461.307 122.855V121.255H453.007V122.855H461.307Z" fill="#6296CF"/>
<path d="M459.742 129.525H461.342V121.225H459.742V129.525Z" fill="#6296CF"/>
<path d="M313.762 355.265C313.762 355.265 318.362 367.465 313.762 367.765C309.162 367.965 289.962 368.265 289.962 365.765C289.962 363.265 303.162 362.665 307.062 355.265C310.962 347.965 313.762 355.265 313.762 355.265Z" fill="#2A2C46"/>
<path d="M355.162 207.865H353.562V216.165H355.162V207.865Z" fill="#6296CF"/>
<path d="M353.62 214.569V216.169H361.92V214.569H353.62Z" fill="#6296CF"/>
<path d="M454.462 258.865C460.758 258.865 465.862 253.761 465.862 247.465C465.862 241.169 460.758 236.065 454.462 236.065C448.166 236.065 443.062 241.169 443.062 247.465C443.062 253.761 448.166 258.865 454.462 258.865Z" fill="#DDDFEB" stroke="#6196CF" stroke-width="2" stroke-miterlimit="10"/>
<path d="M453.066 214.515V216.115H461.366V214.515H453.066Z" fill="#6296CF"/>
<path d="M459.742 216.186H461.342V207.886H459.742V216.186Z" fill="#6296CF"/>
<path d="M449.09 246.037L447.958 247.168L453.827 253.037L454.959 251.906L449.09 246.037Z" fill="#6296CF"/>
<path d="M452.765 251.892L453.896 253.023L462.028 244.892L460.897 243.76L452.765 251.892Z" fill="#6296CF"/>
<path d="M425.762 234.465H350.262V238.965H425.762V234.465Z" fill="#94BFE3"/>
<path d="M390.162 245.565H350.262V250.065H390.162V245.565Z" fill="#94BFE3"/>
<path d="M412.762 256.565H350.262V261.065H412.762V256.565Z" fill="#94BFE3"/>
<path d="M314.962 203.965L291.662 212.965L274.062 180.365L297.462 171.365L314.962 203.965Z" fill="white" stroke="black" stroke-miterlimit="10"/>
<path d="M292.162 176.765L282.162 180.265L280.662 177.465L290.662 173.865L292.162 176.765Z" fill="black"/>
<path d="M291.162 199.965C291.162 199.965 288.662 196.965 288.362 194.865C288.062 192.765 288.162 189.765 287.062 189.765C285.962 189.765 286.762 195.565 286.762 195.565C286.762 195.565 280.762 191.765 279.862 188.965C278.962 186.165 277.562 188.065 278.662 190.265C279.762 192.365 282.062 197.265 286.762 202.265L287.862 203.165L291.162 199.965Z" fill="#F5A884"/>
<path d="M308.262 195.465C308.262 195.465 305.462 195.165 302.662 196.665C299.862 198.165 300.862 194.565 303.962 193.865C307.062 193.165 301.262 189.965 296.362 189.565C291.562 189.165 296.462 186.765 303.262 188.065C310.062 189.365 311.562 190.865 311.562 190.865L308.262 195.465Z" fill="#F5A884"/>
<path d="M304.862 355.265H315.862C315.862 355.265 324.762 327.865 325.062 311.165C325.362 294.465 335.062 268.465 335.062 268.465C335.062 268.465 355.162 327.465 356.262 355.265H365.962C365.962 355.265 365.562 319.265 363.162 305.665C360.762 292.065 357.862 261.765 357.862 261.765L310.862 262.765L304.862 355.265Z" fill="#282C48"/>
<path d="M326.362 153.065C326.362 153.065 321.262 165.765 327.762 173.565V178.365H340.862L342.062 166.765L335.562 152.765L326.362 153.065Z" fill="#EFA88B"/>
<path d="M330.762 161.465C330.762 161.465 335.562 168.665 342.062 166.665C342.062 166.665 350.562 153.565 346.162 149.465C341.762 145.365 326.462 140.765 323.762 153.565C323.762 153.565 326.362 157.565 326.062 160.665C325.762 163.765 326.862 156.865 328.662 156.565C330.362 156.265 332.962 156.665 330.762 161.465Z" fill="#393E46"/>
<path d="M310.162 184.065C310.162 184.065 323.062 174.665 336.362 176.165C349.662 177.665 359.162 177.965 361.862 184.965C364.562 191.965 362.862 215.865 355.162 212.965C355.162 212.965 354.062 245.765 357.762 261.865C357.762 261.865 316.462 268.265 310.762 262.865C310.762 262.865 316.362 220.565 315.162 212.065C315.162 212.065 308.462 231.965 305.362 231.065C302.262 230.165 286.762 203.065 286.762 203.065L291.162 199.965L303.462 211.965L310.162 184.065Z" fill="#FEDD69"/>
<path d="M239.162 71.0648C239.162 71.0648 236.562 76.1648 241.262 76.2648C241.262 76.2648 240.362 83.9648 243.762 85.4648V90.7648L236.462 95.2648L240.162 112.265L257.462 111.765L263.862 97.7648L261.162 93.8648L255.762 90.9648L255.662 85.0648C255.662 85.0648 258.562 82.1648 258.962 77.6648C258.962 77.6648 263.862 71.4648 259.762 71.9648L252.662 64.1648H241.462L239.162 71.0648Z" fill="#ECA687"/>
<path d="M236.462 95.365C236.462 95.365 225.462 96.565 221.262 103.765C216.962 110.965 210.962 122.865 210.962 122.865H223.762L226.262 119.165L227.862 122.865H270.462L271.262 117.165L275.962 122.865H288.162C288.162 122.865 278.962 101.065 272.262 98.565C265.562 96.065 261.362 93.865 261.362 93.865C261.362 93.865 257.462 111.365 249.662 111.065C241.662 110.865 236.462 95.365 236.462 95.365Z" fill="#3A5770"/>
<path d="M241.262 76.2649C241.262 76.2649 240.162 66.3649 249.462 66.2649C258.762 66.1649 258.762 75.1649 258.762 75.1649C258.762 75.1649 263.162 64.1649 260.062 59.8649C256.962 55.5649 253.262 59.0649 253.262 59.0649C253.262 59.0649 251.162 53.1649 243.262 54.7649C235.362 56.3649 239.362 76.5649 241.262 76.2649Z" fill="#404042"/>
<path d="M277.062 152.665H223.162V154.665H277.062V152.665Z" fill="#A0BCDC"/>
<path d="M269.162 160.665H231.262V163.265H269.162V160.665Z" fill="#A0BCDC"/>
<path d="M196.362 189.465L211.362 188.265L209.862 180.065C209.862 180.065 206.562 179.765 206.462 177.065C206.362 174.365 212.862 177.565 213.562 167.265C214.262 157.065 212.762 153.765 212.762 153.765L193.562 158.265L195.662 178.465L194.462 179.065L192.062 186.665L196.362 189.465Z" fill="#ECA692"/>
<path d="M191.862 247.365C191.862 247.365 212.962 246.465 216.162 244.165V200.465L209.762 179.865C209.762 179.865 210.362 186.765 205.062 188.665C199.762 190.465 194.262 178.765 194.262 178.765L191.862 247.365Z" fill="#FABB5D"/>
<path d="M194.262 178.865C194.262 178.865 201.662 206.765 196.962 219.665L186.162 214.565L185.362 205.865L186.962 184.165L194.262 178.865Z" fill="#225472"/>
<path d="M200.062 163.265C200.062 163.265 210.262 163.865 214.262 157.065C218.262 150.265 206.362 142.665 200.062 145.465C193.762 148.265 190.462 154.465 190.362 163.265C190.262 172.165 195.562 178.365 195.562 178.365C195.562 178.365 198.162 176.365 197.962 166.665C197.962 166.665 193.962 162.765 196.662 160.765C199.362 158.665 200.062 163.265 200.062 163.265Z" fill="#102D42"/>
<path d="M183.862 352.065L191.962 351.265C191.962 351.265 189.762 307.665 191.962 294.965C191.962 294.965 200.462 273.265 202.162 265.865C202.162 265.865 209.962 286.165 214.262 291.665L204.162 346.065L214.262 345.665C214.262 345.665 227.762 287.765 226.762 280.565C225.762 273.365 219.762 260.265 219.762 260.265L216.362 244.165H198.662L183.862 255.165L182.062 278.065C182.062 278.065 183.262 287.365 180.362 298.065C177.462 308.765 183.862 352.065 183.862 352.065Z" fill="#183A55"/>
<path d="M174.762 276.765L189.762 279.465C189.762 279.465 197.162 249.665 195.662 235.265L189.662 239.265L178.962 240.265C178.962 240.265 176.462 267.765 174.762 276.765Z" fill="#235074"/>
<path d="M194.462 251.165L173.462 237.565L189.562 204.265L210.562 217.765L194.462 251.165Z" fill="#E7CEC7" stroke="#3A3A3A" stroke-miterlimit="10"/>
<path d="M209.862 179.965C209.862 179.965 214.762 198.065 214.362 207.665C213.962 217.265 215.962 260.165 221.762 273.365H225.562C225.562 273.365 216.662 246.965 216.562 236.565C216.462 226.165 216.562 203.365 218.362 203.265C220.162 203.065 227.162 213.565 230.862 214.865C234.562 216.265 255.762 222.965 255.762 222.965L257.662 216.265L233.762 208.265C233.762 208.265 219.162 179.565 209.862 179.965Z" fill="#295278"/>
<path d="M194.262 178.865C194.262 178.865 183.162 177.865 179.462 186.165C175.762 194.365 176.862 199.765 175.362 205.365C173.862 210.965 169.362 219.965 172.162 222.965C175.062 225.965 192.662 236.565 192.662 236.565L196.362 229.165L181.162 217.665L185.462 205.965L192.062 191.565L194.262 178.865Z" fill="#235172"/>
<path d="M203.062 216.765L194.362 210.765L195.762 207.865L204.462 213.765L203.062 216.765Z" fill="#3A3A3A"/>
<path d="M257.062 218.065C257.062 218.065 260.562 213.065 262.562 213.865C264.562 214.665 260.562 217.565 260.562 217.565C260.562 217.565 269.062 219.365 269.362 220.465C269.662 221.565 269.262 226.565 265.862 226.165C262.562 225.765 256.062 221.365 256.062 221.365L257.062 218.065Z" fill="#F0A27D"/>
<path d="M196.362 229.165C196.362 229.165 203.962 227.865 204.062 231.165C204.162 234.465 204.262 239.965 199.462 239.165C194.562 238.365 193.962 234.065 193.962 234.065L196.362 229.165Z" fill="#F0A27D"/>
<path d="M185.362 352.065V365.165H186.562L187.162 358.565C187.162 358.565 188.062 366.465 195.062 366.365C202.062 366.265 200.262 360.365 196.662 358.965C193.262 357.465 185.362 352.065 185.362 352.065Z" fill="#1B3943"/>
<path d="M186.562 351.765C186.562 351.765 189.462 359.765 193.062 359.965C196.562 360.265 196.762 358.965 196.762 358.965L190.762 351.365L186.562 351.765Z" fill="#F5AC87"/>
<path d="M206.162 346.065C206.162 346.065 204.562 350.665 206.162 356.965C207.762 363.365 207.162 364.065 207.162 364.065H208.362V357.265C208.362 357.265 213.662 364.765 219.862 364.765C226.062 364.765 225.262 359.365 223.662 358.165C222.062 356.965 219.862 356.765 219.862 356.765L206.162 346.065Z" fill="#1B3943"/>
<path d="M207.062 345.965C207.062 345.965 211.662 356.365 214.362 356.765C217.162 357.165 219.662 356.765 219.662 356.765C219.662 356.765 212.462 349.465 212.162 345.965H207.062Z" fill="#F5AC87"/>
</svg>
