<svg width="447" height="428" viewBox="0 0 447 428" fill="none" xmlns="http://www.w3.org/2000/svg">
<path d="M255.489 55.27H227.196V61.7862H255.489V55.27Z" fill="#FB855E"/>
<path d="M245.785 64.6844H227.196V71.2006H245.785V64.6844Z" fill="#FB855E"/>
<path d="M237.899 74.0989H227.196V80.615H237.899V74.0989Z" fill="#FB855E"/>
<g opacity="0.2">
<path opacity="0.2" d="M255.489 55.27H227.196V61.7862H255.489V55.27Z" fill="black"/>
<path opacity="0.2" d="M245.785 64.6844H227.196V71.2006H245.785V64.6844Z" fill="black"/>
<path opacity="0.2" d="M237.899 74.099H227.196V80.6151H237.899V74.099Z" fill="black"/>
</g>
<path d="M178.064 127.427V147.046H187.659V127.427H178.064Z" fill="#FB855E"/>
<path d="M191.926 134.163V147.046H201.521V134.163H191.926Z" fill="#FB855E"/>
<path d="M205.778 139.62V147.036H215.373V139.62H205.778Z" fill="#FB855E"/>
<g opacity="0.2">
<path opacity="0.2" d="M178.064 127.427V147.046H187.659V127.427H178.064Z" fill="black"/>
<path opacity="0.2" d="M191.926 134.163V147.046H201.521V134.163H191.926Z" fill="black"/>
<path opacity="0.2" d="M205.778 139.62V147.036H215.373V139.62H205.778Z" fill="black"/>
</g>
<path d="M175.916 161.357H292.097C293.619 161.36 295.126 161.063 296.532 160.482C297.939 159.902 299.217 159.05 300.294 157.975C301.37 156.9 302.225 155.623 302.808 154.218C303.39 152.812 303.69 151.306 303.69 149.784V54.0408C303.69 52.5193 303.39 51.0128 302.808 49.6073C302.225 48.2019 301.37 46.9252 300.294 45.8503C299.217 44.7754 297.939 43.9233 296.532 43.3429C295.126 42.7624 293.619 42.465 292.097 42.4677H175.916C174.395 42.4664 172.888 42.7647 171.482 43.3456C170.077 43.9265 168.799 44.7786 167.722 45.8532C166.646 46.9279 165.792 48.2041 165.208 49.6089C164.625 51.0137 164.324 52.5197 164.323 54.0408V149.784C164.324 151.305 164.625 152.811 165.208 154.216C165.792 155.621 166.646 156.897 167.722 157.972C168.799 159.047 170.077 159.899 171.482 160.48C172.888 161.06 174.395 161.359 175.916 161.357V161.357Z" stroke="#263238" stroke-width="1.0631" stroke-miterlimit="10"/>
<path d="M249.173 128.487H290.598" stroke="#263238" stroke-width="1.0631" stroke-miterlimit="10"/>
<path d="M249.173 132.914H290.598" stroke="#263238" stroke-width="1.0631" stroke-miterlimit="10"/>
<path d="M249.173 137.341H290.598" stroke="#263238" stroke-width="1.0631" stroke-miterlimit="10"/>
<path d="M249.173 141.779H290.598" stroke="#263238" stroke-width="1.0631" stroke-miterlimit="10"/>
<path d="M249.173 146.206H290.598" stroke="#263238" stroke-width="1.0631" stroke-miterlimit="10"/>
<path d="M176.795 56.2394H218.221" stroke="#263238" stroke-width="1.0631" stroke-miterlimit="10"/>
<path d="M176.795 60.6669H218.221" stroke="#263238" stroke-width="1.0631" stroke-miterlimit="10"/>
<path d="M176.795 65.0942H218.221" stroke="#263238" stroke-width="1.0631" stroke-miterlimit="10"/>
<path d="M176.795 69.5216H218.221" stroke="#263238" stroke-width="1.0631" stroke-miterlimit="10"/>
<path d="M176.795 73.959H218.221" stroke="#263238" stroke-width="1.0631" stroke-miterlimit="10"/>
<path d="M285.411 91.0589L293.307 95.2064L292.417 72.9396L273.548 84.8425L281.444 88.9801L275.507 100.283C274.457 100.288 273.438 100.639 272.609 101.283L262.155 96.4257C262.155 95.1481 261.647 93.9228 260.744 93.0195C259.841 92.1161 258.615 91.6085 257.338 91.6085C256.06 91.6085 254.835 92.1161 253.932 93.0195C253.028 93.9228 252.521 95.1481 252.521 96.4257C252.52 97.116 252.67 97.7981 252.96 98.4245L239.259 113.276C238.822 113.136 238.367 113.062 237.909 113.056C237.678 113.064 237.448 113.087 237.22 113.126L217.521 88.2305C217.805 87.6026 217.948 86.9206 217.941 86.2317C217.941 84.9541 217.434 83.7289 216.53 82.8255C215.627 81.9221 214.402 81.4146 213.124 81.4146C211.846 81.4146 210.621 81.9221 209.718 82.8255C208.814 83.7289 208.307 84.9541 208.307 86.2317C208.317 86.7278 208.401 87.2196 208.557 87.6909L186.06 110.597C185.531 110.404 184.974 110.303 184.411 110.297C183.461 110.299 182.532 110.583 181.743 111.113C180.954 111.642 180.339 112.393 179.977 113.272C179.615 114.151 179.521 115.117 179.707 116.049C179.894 116.98 180.353 117.836 181.025 118.507C181.698 119.179 182.555 119.635 183.487 119.82C184.419 120.005 185.385 119.909 186.263 119.545C187.141 119.181 187.891 118.565 188.419 117.774C188.946 116.984 189.228 116.055 189.228 115.105C189.226 114.706 189.172 114.31 189.068 113.925L211.755 90.759C212.198 90.8984 212.659 90.9725 213.124 90.9789C213.419 90.9783 213.713 90.9515 214.003 90.899L233.602 115.744C233.247 116.453 233.073 117.239 233.095 118.031C233.117 118.824 233.334 119.598 233.727 120.287C234.12 120.975 234.677 121.556 235.348 121.978C236.019 122.399 236.784 122.649 237.575 122.704C238.366 122.759 239.158 122.618 239.881 122.294C240.605 121.97 241.237 121.472 241.721 120.845C242.206 120.218 242.529 119.481 242.661 118.699C242.792 117.917 242.729 117.115 242.477 116.364L256.528 101.143C256.796 101.19 257.066 101.217 257.338 101.223C258.293 101.224 259.226 100.939 260.016 100.403L270.71 105.4C270.751 106.142 270.963 106.864 271.33 107.509C271.697 108.155 272.208 108.707 272.824 109.122C273.44 109.537 274.144 109.803 274.88 109.9C275.616 109.998 276.365 109.923 277.067 109.683C277.77 109.442 278.407 109.042 278.929 108.514C279.451 107.986 279.843 107.344 280.076 106.638C280.308 105.933 280.374 105.183 280.268 104.448C280.162 103.714 279.887 103.013 279.465 102.402L285.411 91.0589Z" fill="#263238"/>
<path d="M137.769 112.936L124.257 91.8184L101.93 108.239L81.342 67.4928L27.0142 102.032V129.936H149.522V106.48L137.769 112.936Z" fill="#263238" stroke="#263238" stroke-width="1.16063" stroke-linecap="round" stroke-linejoin="round"/>
<path d="M140.117 128.767L125.436 106.48L100.761 116.454L71.9676 88.8901L27.0142 107.039V147.535H149.522V122.31L140.117 128.767Z" fill="#FB855E" stroke="#263238" stroke-width="0.876601" stroke-miterlimit="10"/>
<path opacity="0.2" d="M140.117 128.767L125.436 106.48L100.761 116.454L71.9676 88.8901L27.0142 107.039V147.535H149.522V122.31L140.117 128.767Z" fill="black"/>
<path d="M140.117 128.767L125.436 106.48L100.761 116.454L71.9676 88.8901L27.0142 107.039V147.535H149.522V122.31L140.117 128.767Z" stroke="#263238" stroke-width="0.876601" stroke-miterlimit="10"/>
<path d="M96.623 57.1589H86.7588C86.1556 57.1544 85.5687 57.3544 85.0938 57.7263C84.6189 58.0982 84.284 58.62 84.1437 59.2066C84.0034 59.7933 84.066 60.4102 84.3214 60.9567C84.5767 61.5032 85.0096 61.947 85.5495 62.2159L82.1016 65.8837L88.3878 62.5157H96.623C97.3333 62.5157 98.0146 62.2335 98.5169 61.7312C99.0192 61.2289 99.3014 60.5477 99.3014 59.8373C99.3014 59.1269 99.0192 58.4457 98.5169 57.9434C98.0146 57.4411 97.3333 57.1589 96.623 57.1589Z" fill="#FB855E"/>
<path opacity="0.2" d="M96.623 57.1589H86.7588C86.1556 57.1544 85.5687 57.3544 85.0938 57.7263C84.6189 58.0982 84.284 58.62 84.1437 59.2066C84.0034 59.7933 84.066 60.4102 84.3214 60.9567C84.5767 61.5032 85.0096 61.947 85.5495 62.2159L82.1016 65.8837L88.3878 62.5157H96.623C97.3333 62.5157 98.0146 62.2335 98.5169 61.7312C99.0192 61.2289 99.3014 60.5477 99.3014 59.8373C99.3014 59.1269 99.0192 58.4457 98.5169 57.9434C98.0146 57.4411 97.3333 57.1589 96.623 57.1589Z" fill="black"/>
<path d="M139.828 81.0047H129.963C129.36 81.0002 128.773 81.2002 128.298 81.5721C127.824 81.944 127.489 82.4658 127.348 83.0525C127.208 83.6391 127.271 84.256 127.526 84.8025C127.781 85.349 128.214 85.7929 128.754 86.0617L125.306 89.7595L131.592 86.3815H139.828C140.538 86.3815 141.219 86.0994 141.721 85.5971C142.224 85.0948 142.506 84.4135 142.506 83.7031C142.506 82.9928 142.224 82.3115 141.721 81.8092C141.219 81.3069 140.538 81.0247 139.828 81.0247V81.0047Z" fill="#FB855E"/>
<path opacity="0.2" d="M139.828 81.0047H129.963C129.36 81.0002 128.773 81.2002 128.298 81.5721C127.824 81.944 127.489 82.4658 127.348 83.0525C127.208 83.6391 127.271 84.256 127.526 84.8025C127.781 85.349 128.214 85.7929 128.754 86.0617L125.306 89.7595L131.592 86.3815H139.828C140.538 86.3815 141.219 86.0994 141.721 85.5971C142.224 85.0948 142.506 84.4135 142.506 83.7031C142.506 82.9928 142.224 82.3115 141.721 81.8092C141.219 81.3069 140.538 81.0247 139.828 81.0247V81.0047Z" fill="black"/>
<path d="M31.9613 161.357H148.143C149.664 161.36 151.171 161.063 152.578 160.482C153.984 159.902 155.262 159.05 156.339 157.975C157.416 156.9 158.27 155.623 158.853 154.218C159.436 152.812 159.736 151.306 159.736 149.784V54.0408C159.736 52.5193 159.436 51.0128 158.853 49.6073C158.27 48.2019 157.416 46.9252 156.339 45.8503C155.262 44.7754 153.984 43.9233 152.578 43.3429C151.171 42.7624 149.664 42.465 148.143 42.4677H31.9613C30.4398 42.465 28.9327 42.7624 27.5263 43.3429C26.1199 43.9233 24.8417 44.7754 23.7649 45.8503C22.6881 46.9252 21.8339 48.2019 21.251 49.6073C20.6682 51.0128 20.3682 52.5193 20.3682 54.0408V149.784C20.3682 151.306 20.6682 152.812 21.251 154.218C21.8339 155.623 22.6881 156.9 23.7649 157.975C24.8417 159.05 26.1199 159.902 27.5263 160.482C28.9327 161.063 30.4398 161.36 31.9613 161.357V161.357Z" stroke="#263238" stroke-width="1.0631" stroke-miterlimit="10"/>
<path d="M29.1929 55.3899H37.1981" stroke="#263238" stroke-width="1.0631" stroke-miterlimit="10"/>
<path d="M29.1929 64.1047H37.1981" stroke="#263238" stroke-width="1.0631" stroke-miterlimit="10"/>
<path d="M29.1929 72.8197H37.1981" stroke="#263238" stroke-width="1.0631" stroke-miterlimit="10"/>
<path d="M29.1929 81.5344H37.1981" stroke="#263238" stroke-width="1.0631" stroke-miterlimit="10"/>
<path d="M29.1929 90.2494H37.1981" stroke="#263238" stroke-width="1.0631" stroke-miterlimit="10"/>
<path d="M343.597 67.203C338.392 67.2109 333.307 68.7615 328.983 71.6589C324.659 74.5563 321.291 78.6703 319.305 83.4812C317.319 88.292 316.803 93.5837 317.823 98.6875C318.843 103.791 321.354 108.478 325.037 112.156C328.72 115.833 333.411 118.336 338.516 119.349C343.621 120.361 348.912 119.838 353.72 117.844C358.528 115.851 362.637 112.477 365.528 108.148C368.418 103.82 369.961 98.7322 369.961 93.5274C369.951 86.5421 367.168 79.8465 362.225 74.9108C357.282 69.9752 350.582 67.203 343.597 67.203ZM343.597 112.116C339.921 112.103 336.332 111 333.282 108.947C330.232 106.895 327.859 103.985 326.463 100.584C325.066 97.184 324.708 93.4461 325.435 89.8426C326.161 86.2391 327.939 82.9316 330.544 80.3379C333.149 77.7442 336.464 75.9805 340.07 75.2697C343.677 74.5588 347.413 74.9326 350.807 76.3439C354.202 77.7552 357.102 80.1406 359.141 83.199C361.18 86.2573 362.268 89.8515 362.266 93.5274C362.261 95.9738 361.774 98.3952 360.833 100.653C359.892 102.912 358.515 104.962 356.781 106.688C355.048 108.415 352.991 109.782 350.729 110.714C348.467 111.645 346.043 112.122 343.597 112.116Z" fill="#FB855E" stroke="#263238" stroke-width="1.0631" stroke-miterlimit="10"/>
<g opacity="0.2">
<path opacity="0.2" d="M343.597 67.203C338.392 67.2109 333.307 68.7615 328.983 71.6589C324.659 74.5563 321.291 78.6703 319.305 83.4812C317.319 88.292 316.803 93.5837 317.823 98.6875C318.843 103.791 321.354 108.478 325.037 112.156C328.72 115.833 333.411 118.336 338.516 119.349C343.621 120.361 348.912 119.838 353.72 117.844C358.528 115.851 362.637 112.477 365.528 108.148C368.418 103.82 369.961 98.7322 369.961 93.5274C369.951 86.5421 367.168 79.8465 362.225 74.9108C357.282 69.9752 350.582 67.203 343.597 67.203ZM343.597 112.116C339.921 112.103 336.332 111 333.282 108.947C330.232 106.895 327.859 103.985 326.463 100.584C325.066 97.184 324.708 93.4461 325.435 89.8426C326.161 86.2391 327.939 82.9316 330.544 80.3379C333.149 77.7442 336.464 75.9805 340.07 75.2697C343.677 74.5588 347.413 74.9326 350.807 76.3439C354.202 77.7552 357.102 80.1406 359.141 83.199C361.18 86.2573 362.268 89.8515 362.266 93.5274C362.261 95.9738 361.774 98.3952 360.833 100.653C359.892 102.912 358.515 104.962 356.781 106.688C355.048 108.415 352.991 109.782 350.729 110.714C348.467 111.645 346.043 112.122 343.597 112.116Z" fill="black"/>
</g>
<path d="M343.597 67.203C338.392 67.2109 333.307 68.7615 328.983 71.6589C324.659 74.5563 321.291 78.6703 319.305 83.4812C317.319 88.292 316.803 93.5837 317.823 98.6875C318.843 103.791 321.354 108.478 325.037 112.156C328.72 115.833 333.411 118.336 338.516 119.349C343.621 120.361 348.912 119.838 353.72 117.844C358.528 115.851 362.637 112.477 365.528 108.148C368.418 103.82 369.961 98.7322 369.961 93.5274C369.951 86.5421 367.168 79.8465 362.225 74.9108C357.282 69.9752 350.582 67.203 343.597 67.203V67.203ZM343.597 112.116C339.921 112.103 336.332 111 333.282 108.947C330.232 106.895 327.859 103.985 326.463 100.584C325.066 97.184 324.708 93.4461 325.435 89.8426C326.161 86.2391 327.939 82.9316 330.544 80.3379C333.149 77.7442 336.464 75.9805 340.07 75.2697C343.677 74.5588 347.413 74.9326 350.807 76.3439C354.202 77.7552 357.102 80.1406 359.141 83.199C361.18 86.2573 362.268 89.8515 362.266 93.5274C362.261 95.9738 361.774 98.3952 360.833 100.653C359.892 102.912 358.515 104.962 356.781 106.688C355.048 108.415 352.991 109.782 350.729 110.714C348.467 111.645 346.043 112.122 343.597 112.116V112.116Z" stroke="#263238" stroke-width="1.0631" stroke-miterlimit="10"/>
<path d="M343.597 67.203C340.039 67.1886 336.516 67.8999 333.242 69.2935C329.969 70.6872 327.014 72.7337 324.558 75.3082L330.145 80.655C332.271 78.4286 334.917 76.7645 337.844 75.8119C340.772 74.8592 343.89 74.6477 346.919 75.1964C349.948 75.745 352.794 77.0367 355.202 78.9556C357.609 80.8745 359.503 83.3607 360.713 86.1914C361.923 89.0222 362.413 92.1089 362.137 95.1752C361.861 98.2414 360.828 101.191 359.132 103.76C357.436 106.33 355.129 108.438 352.418 109.896C349.706 111.355 346.675 112.117 343.597 112.116V119.842C347.096 119.91 350.574 119.28 353.827 117.988C357.08 116.696 360.043 114.768 362.542 112.317C365.041 109.866 367.026 106.942 368.381 103.715C369.736 100.488 370.434 97.0226 370.434 93.5224C370.434 90.0223 369.736 86.5573 368.381 83.3302C367.026 80.103 365.041 77.1785 362.542 74.7278C360.043 72.277 357.08 70.3493 353.827 69.0572C350.574 67.7652 347.096 67.1348 343.597 67.203Z" fill="#263238" stroke="#263238" stroke-width="1.0631" stroke-linecap="round" stroke-linejoin="round"/>
<path d="M408.618 67.203C403.414 67.2109 398.328 68.7615 394.004 71.6589C389.681 74.5563 386.313 78.6703 384.326 83.4812C382.34 88.292 381.824 93.5837 382.845 98.6875C383.865 103.791 386.375 108.478 390.058 112.156C393.741 115.833 398.432 118.336 403.537 119.349C408.643 120.361 413.934 119.838 418.742 117.844C423.549 115.851 427.658 112.477 430.549 108.148C433.44 103.82 434.983 98.7322 434.983 93.5274C434.972 86.5421 432.19 79.8465 427.247 74.9108C422.304 69.9752 415.604 67.203 408.618 67.203ZM408.618 112.116C404.94 112.114 401.345 111.022 398.287 108.976C395.23 106.931 392.847 104.025 391.441 100.626C390.036 97.2265 389.669 93.4866 390.389 89.8792C391.108 86.2717 392.882 82.9586 395.484 80.3589C398.087 77.7592 401.402 75.9896 405.01 75.2739C408.618 74.5582 412.357 74.9285 415.755 76.338C419.153 77.7476 422.056 80.133 424.099 83.1927C426.141 86.2524 427.229 89.8489 427.227 93.5274C427.214 98.457 425.249 103.18 421.761 106.664C418.274 110.148 413.548 112.109 408.618 112.116Z" fill="#FB855E" stroke="#263238" stroke-width="1.0631" stroke-miterlimit="10"/>
<g opacity="0.2">
<path opacity="0.2" d="M408.618 67.203C403.414 67.2109 398.328 68.7615 394.004 71.6589C389.681 74.5563 386.313 78.6703 384.326 83.4812C382.34 88.292 381.824 93.5837 382.845 98.6875C383.865 103.791 386.375 108.478 390.058 112.156C393.741 115.833 398.432 118.336 403.537 119.349C408.643 120.361 413.934 119.838 418.742 117.844C423.549 115.851 427.658 112.477 430.549 108.148C433.44 103.82 434.983 98.7322 434.983 93.5274C434.972 86.5421 432.19 79.8465 427.247 74.9108C422.304 69.9752 415.604 67.203 408.618 67.203ZM408.618 112.116C404.94 112.114 401.345 111.022 398.287 108.976C395.23 106.931 392.847 104.025 391.441 100.626C390.036 97.2265 389.669 93.4866 390.389 89.8792C391.108 86.2717 392.882 82.9586 395.484 80.3589C398.087 77.7592 401.402 75.9896 405.01 75.2739C408.618 74.5582 412.357 74.9285 415.755 76.338C419.153 77.7476 422.056 80.133 424.099 83.1927C426.141 86.2524 427.229 89.8489 427.227 93.5274C427.214 98.457 425.249 103.18 421.761 106.664C418.274 110.148 413.548 112.109 408.618 112.116Z" fill="black"/>
</g>
<path d="M408.618 67.203C403.414 67.2109 398.328 68.7615 394.004 71.6589C389.681 74.5563 386.313 78.6703 384.326 83.4812C382.34 88.292 381.824 93.5837 382.845 98.6875C383.865 103.791 386.375 108.478 390.058 112.156C393.741 115.833 398.432 118.336 403.537 119.349C408.643 120.361 413.934 119.838 418.742 117.844C423.549 115.851 427.658 112.477 430.549 108.148C433.44 103.82 434.983 98.7322 434.983 93.5274C434.972 86.5421 432.19 79.8465 427.247 74.9108C422.304 69.9752 415.604 67.203 408.618 67.203V67.203ZM408.618 112.116C404.94 112.114 401.345 111.022 398.287 108.976C395.23 106.931 392.847 104.025 391.441 100.626C390.036 97.2265 389.669 93.4866 390.389 89.8792C391.108 86.2717 392.882 82.9586 395.484 80.3589C398.087 77.7592 401.402 75.9896 405.01 75.2739C408.618 74.5582 412.357 74.9285 415.755 76.338C419.153 77.7476 422.056 80.133 424.099 83.1927C426.141 86.2524 427.229 89.8489 427.227 93.5274C427.214 98.457 425.249 103.18 421.761 106.664C418.274 110.148 413.548 112.109 408.618 112.116V112.116Z" stroke="#263238" stroke-width="1.0631" stroke-miterlimit="10"/>
<path d="M418.882 69.2717L415.884 76.3875C419.837 78.0594 423.09 81.0471 425.092 84.8438C427.093 88.6405 427.72 93.0127 426.866 97.2189C426.012 101.425 423.729 105.206 420.405 107.922C417.081 110.637 412.92 112.119 408.628 112.116V119.842C414.709 119.856 420.607 117.763 425.32 113.92C430.032 110.077 433.268 104.721 434.478 98.7616C435.687 92.8024 434.795 86.6081 431.954 81.2319C429.113 75.8558 424.497 71.6295 418.892 69.2717H418.882Z" fill="#263238" stroke="#263238" stroke-width="1.0631" stroke-linecap="round" stroke-linejoin="round"/>
<path d="M431.545 42.4677H322.909C321.018 42.4663 319.145 42.8376 317.397 43.5601C315.649 44.2826 314.061 45.3423 312.723 46.6787C311.384 48.0151 310.323 49.6019 309.598 51.3487C308.873 53.0955 308.499 54.9679 308.498 56.8592V146.976C308.503 150.794 310.024 154.453 312.726 157.15C315.429 159.847 319.091 161.36 322.909 161.357H431.545C433.436 161.36 435.308 160.99 437.056 160.269C438.804 159.547 440.392 158.488 441.731 157.153C443.069 155.817 444.131 154.231 444.856 152.485C445.581 150.739 445.955 148.867 445.956 146.976V56.8592C445.955 54.9679 445.581 53.0955 444.856 51.3487C444.131 49.6019 443.069 48.0151 441.731 46.6787C440.393 45.3423 438.805 44.2826 437.057 43.5601C435.309 42.8376 433.436 42.4663 431.545 42.4677V42.4677Z" stroke="#263238" stroke-width="1.0631" stroke-miterlimit="10"/>
<path d="M320.17 128.487H361.586" stroke="#263238" stroke-width="1.0631" stroke-miterlimit="10"/>
<path d="M320.17 132.914H361.586" stroke="#263238" stroke-width="1.0631" stroke-miterlimit="10"/>
<path d="M320.17 137.341H361.586" stroke="#263238" stroke-width="1.0631" stroke-miterlimit="10"/>
<path d="M320.17 141.779H361.586" stroke="#263238" stroke-width="1.0631" stroke-miterlimit="10"/>
<path d="M320.17 146.206H361.586" stroke="#263238" stroke-width="1.0631" stroke-miterlimit="10"/>
<path d="M388.57 128.487H429.996" stroke="#263238" stroke-width="1.0631" stroke-miterlimit="10"/>
<path d="M388.57 132.914H429.996" stroke="#263238" stroke-width="1.0631" stroke-miterlimit="10"/>
<path d="M388.57 137.341H429.996" stroke="#263238" stroke-width="1.0631" stroke-miterlimit="10"/>
<path d="M388.57 141.779H429.996" stroke="#263238" stroke-width="1.0631" stroke-miterlimit="10"/>
<path d="M388.57 146.206H429.996" stroke="#263238" stroke-width="1.0631" stroke-miterlimit="10"/>
<path d="M355.13 54.6704H396.545" stroke="#263238" stroke-width="1.0631" stroke-miterlimit="10"/>
<path d="M355.13 59.1078H396.545" stroke="#263238" stroke-width="1.0631" stroke-miterlimit="10"/>
<path d="M308.058 327.959H430.665C434.716 327.962 438.603 326.356 441.47 323.494C444.337 320.632 445.951 316.749 445.956 312.698V183.564C445.955 181.558 445.558 179.571 444.789 177.717C444.02 175.864 442.893 174.18 441.473 172.762C440.053 171.344 438.368 170.219 436.514 169.453C434.659 168.686 432.672 168.292 430.665 168.293H249.572C247.565 168.292 245.578 168.686 243.724 169.453C241.869 170.219 240.184 171.344 238.764 172.762C237.344 174.18 236.217 175.864 235.448 177.717C234.679 179.571 234.283 181.558 234.281 183.564V268.654" stroke="#263238" stroke-width="1.0631" stroke-miterlimit="10"/>
<path d="M293.586 243.599H264.423V285.984H293.586V243.599Z" fill="#FB855E" stroke="#263238" stroke-width="1.16063" stroke-miterlimit="10"/>
<path opacity="0.2" d="M293.586 243.599H264.423V285.984H293.586V243.599Z" fill="black"/>
<path d="M293.586 243.599H264.423V285.984H293.586V243.599Z" stroke="#263238" stroke-width="1.16063" stroke-miterlimit="10"/>
<path d="M334.082 222.401H304.919V269.324H334.082V222.401Z" fill="#FB855E" stroke="#263238" stroke-width="1.16063" stroke-miterlimit="10"/>
<path opacity="0.2" d="M334.082 222.401H304.919V269.324H334.082V222.401Z" fill="black"/>
<path d="M334.082 222.401H304.919V269.324H334.082V222.401Z" stroke="#263238" stroke-width="1.16063" stroke-miterlimit="10"/>
<path d="M374.578 205.001H345.416V236.033H374.578V205.001Z" fill="#FB855E" stroke="#263238" stroke-width="1.16063" stroke-miterlimit="10"/>
<path opacity="0.2" d="M374.578 205.001H345.416V236.033H374.578V205.001Z" fill="black"/>
<path d="M374.578 205.001H345.416V236.033H374.578V205.001Z" stroke="#263238" stroke-width="1.16063" stroke-miterlimit="10"/>
<path d="M293.586 285.974H264.423V303.383H293.586V285.974Z" fill="#263238" stroke="#263238" stroke-width="1.16063" stroke-linecap="round" stroke-linejoin="round"/>
<path d="M334.082 269.323H304.919V303.383H334.082V269.323Z" fill="#263238" stroke="#263238" stroke-width="1.16063" stroke-linecap="round" stroke-linejoin="round"/>
<path d="M412.686 222.401H383.523V269.324H412.686V222.401Z" fill="#FB855E" stroke="#263238" stroke-width="1.16063" stroke-miterlimit="10"/>
<path opacity="0.2" d="M412.686 222.401H383.523V269.324H412.686V222.401Z" fill="black"/>
<path d="M412.686 222.401H383.523V269.324H412.686V222.401Z" stroke="#263238" stroke-width="1.16063" stroke-miterlimit="10"/>
<path d="M412.686 269.323H383.523V303.383H412.686V269.323Z" fill="#263238" stroke="#263238" stroke-width="1.16063" stroke-linecap="round" stroke-linejoin="round"/>
<path d="M374.578 236.023H345.416V303.383H374.578V236.023Z" fill="#263238" stroke="#263238" stroke-width="1.16063" stroke-linecap="round" stroke-linejoin="round"/>
<path d="M329.025 205.062H310.826C309.991 205.062 309.19 205.393 308.6 205.984C308.009 206.574 307.678 207.375 307.678 208.21V212.397C307.678 213.232 308.009 214.033 308.6 214.623C309.19 215.214 309.991 215.545 310.826 215.545H317.572L319.931 219.623L322.279 215.545H329.025C329.86 215.545 330.661 215.214 331.251 214.623C331.842 214.033 332.173 213.232 332.173 212.397V208.21C332.173 207.375 331.842 206.574 331.251 205.984C330.661 205.393 329.86 205.062 329.025 205.062Z" fill="#FB855E"/>
<path opacity="0.5" d="M329.025 205.062H310.826C309.991 205.062 309.19 205.393 308.6 205.984C308.009 206.574 307.678 207.375 307.678 208.21V212.397C307.678 213.232 308.009 214.033 308.6 214.623C309.19 215.214 309.991 215.545 310.826 215.545H317.572L319.931 219.623L322.279 215.545H329.025C329.86 215.545 330.661 215.214 331.251 214.623C331.842 214.033 332.173 213.232 332.173 212.397V208.21C332.173 207.375 331.842 206.574 331.251 205.984C330.661 205.393 329.86 205.062 329.025 205.062Z" fill="white"/>
<path d="M329.025 205.062H310.826C309.991 205.062 309.19 205.393 308.6 205.984C308.009 206.574 307.678 207.375 307.678 208.21V212.397C307.678 213.232 308.009 214.033 308.6 214.623C309.19 215.214 309.991 215.545 310.826 215.545H317.572L319.931 219.623L322.279 215.545H329.025C329.86 215.545 330.661 215.214 331.251 214.623C331.842 214.033 332.173 213.232 332.173 212.397V208.21C332.173 207.375 331.842 206.574 331.251 205.984C330.661 205.393 329.86 205.062 329.025 205.062V205.062Z" stroke="#263238" stroke-width="1.16689" stroke-linecap="round" stroke-linejoin="round"/>
<path d="M288.1 226.799H269.91C269.077 226.799 268.278 227.129 267.688 227.717C267.098 228.305 266.765 229.104 266.762 229.937V234.134C266.765 234.967 267.098 235.766 267.688 236.354C268.278 236.942 269.077 237.272 269.91 237.272H276.646L279.005 241.35L281.364 237.272H288.1C288.933 237.272 289.732 236.942 290.322 236.354C290.912 235.766 291.245 234.967 291.248 234.134V229.937C291.245 229.104 290.912 228.305 290.322 227.717C289.732 227.129 288.933 226.799 288.1 226.799Z" fill="#FB855E"/>
<path opacity="0.5" d="M288.1 226.799H269.91C269.077 226.799 268.278 227.129 267.688 227.717C267.098 228.305 266.765 229.104 266.762 229.937V234.134C266.765 234.967 267.098 235.766 267.688 236.354C268.278 236.942 269.077 237.272 269.91 237.272H276.646L279.005 241.35L281.364 237.272H288.1C288.933 237.272 289.732 236.942 290.322 236.354C290.912 235.766 291.245 234.967 291.248 234.134V229.937C291.245 229.104 290.912 228.305 290.322 227.717C289.732 227.129 288.933 226.799 288.1 226.799Z" fill="white"/>
<path d="M288.1 226.799H269.91C269.077 226.799 268.278 227.129 267.688 227.717C267.098 228.305 266.765 229.104 266.762 229.937V234.134C266.765 234.967 267.098 235.766 267.688 236.354C268.278 236.942 269.077 237.272 269.91 237.272H276.646L279.005 241.35L281.364 237.272H288.1C288.933 237.272 289.732 236.942 290.322 236.354C290.912 235.766 291.245 234.967 291.248 234.134V229.937C291.245 229.104 290.912 228.305 290.322 227.717C289.732 227.129 288.933 226.799 288.1 226.799V226.799Z" stroke="#263238" stroke-width="1.16689" stroke-linecap="round" stroke-linejoin="round"/>
<path d="M368.912 187.602H350.713C349.878 187.602 349.077 187.933 348.487 188.524C347.896 189.114 347.564 189.915 347.564 190.75V194.937C347.564 195.35 347.646 195.759 347.804 196.141C347.963 196.522 348.195 196.868 348.487 197.16C348.78 197.452 349.127 197.683 349.509 197.84C349.89 197.997 350.3 198.077 350.713 198.076H357.459L359.807 202.153L362.166 198.076H368.912C369.325 198.077 369.734 197.997 370.116 197.84C370.498 197.683 370.845 197.452 371.137 197.16C371.43 196.868 371.662 196.522 371.82 196.141C371.978 195.759 372.06 195.35 372.06 194.937V190.75C372.06 189.915 371.728 189.114 371.138 188.524C370.547 187.933 369.747 187.602 368.912 187.602Z" fill="#FB855E"/>
<path opacity="0.5" d="M368.912 187.602H350.713C349.878 187.602 349.077 187.933 348.487 188.524C347.896 189.114 347.564 189.915 347.564 190.75V194.937C347.564 195.35 347.646 195.759 347.804 196.141C347.963 196.522 348.195 196.868 348.487 197.16C348.78 197.452 349.127 197.683 349.509 197.84C349.89 197.997 350.3 198.077 350.713 198.076H357.459L359.807 202.153L362.166 198.076H368.912C369.325 198.077 369.734 197.997 370.116 197.84C370.498 197.683 370.845 197.452 371.137 197.16C371.43 196.868 371.662 196.522 371.82 196.141C371.978 195.759 372.06 195.35 372.06 194.937V190.75C372.06 189.915 371.728 189.114 371.138 188.524C370.547 187.933 369.747 187.602 368.912 187.602Z" fill="white"/>
<path d="M368.912 187.602H350.713C349.878 187.602 349.077 187.933 348.487 188.524C347.896 189.114 347.564 189.915 347.564 190.75V194.937C347.564 195.35 347.646 195.759 347.804 196.141C347.963 196.522 348.195 196.868 348.487 197.16C348.78 197.452 349.127 197.683 349.509 197.84C349.89 197.997 350.3 198.077 350.713 198.076H357.459L359.807 202.153L362.166 198.076H368.912C369.325 198.077 369.734 197.997 370.116 197.84C370.498 197.683 370.845 197.452 371.137 197.16C371.43 196.868 371.662 196.522 371.82 196.141C371.978 195.759 372.06 195.35 372.06 194.937V190.75C372.06 189.915 371.728 189.114 371.138 188.524C370.547 187.933 369.747 187.602 368.912 187.602V187.602Z" stroke="#263238" stroke-width="1.16689" stroke-linecap="round" stroke-linejoin="round"/>
<path d="M407.239 204.792H389.05C388.215 204.792 387.414 205.123 386.824 205.714C386.234 206.304 385.902 207.105 385.902 207.94V212.127C385.902 212.54 385.983 212.949 386.142 213.331C386.3 213.712 386.532 214.058 386.825 214.35C387.117 214.641 387.464 214.872 387.846 215.029C388.228 215.187 388.637 215.267 389.05 215.265H395.786L398.145 219.343L400.503 215.265H407.239C407.653 215.267 408.062 215.187 408.445 215.03C408.827 214.873 409.175 214.642 409.468 214.35C409.762 214.059 409.995 213.713 410.154 213.331C410.313 212.95 410.396 212.541 410.397 212.127V207.94C410.395 207.104 410.061 206.303 409.469 205.713C408.877 205.123 408.075 204.792 407.239 204.792Z" fill="#FB855E"/>
<path opacity="0.5" d="M407.239 204.792H389.05C388.215 204.792 387.414 205.123 386.824 205.714C386.234 206.304 385.902 207.105 385.902 207.94V212.127C385.902 212.54 385.983 212.949 386.142 213.331C386.3 213.712 386.532 214.058 386.825 214.35C387.117 214.641 387.464 214.872 387.846 215.029C388.228 215.187 388.637 215.267 389.05 215.265H395.786L398.145 219.343L400.503 215.265H407.239C407.653 215.267 408.062 215.187 408.445 215.03C408.827 214.873 409.175 214.642 409.468 214.35C409.762 214.059 409.995 213.713 410.154 213.331C410.313 212.95 410.396 212.541 410.397 212.127V207.94C410.395 207.104 410.061 206.303 409.469 205.713C408.877 205.123 408.075 204.792 407.239 204.792Z" fill="white"/>
<path d="M407.239 204.792H389.05C388.215 204.792 387.414 205.123 386.824 205.714C386.234 206.304 385.902 207.105 385.902 207.94V212.127C385.902 212.54 385.983 212.949 386.142 213.331C386.3 213.712 386.532 214.058 386.825 214.35C387.117 214.641 387.464 214.872 387.846 215.029C388.228 215.187 388.637 215.267 389.05 215.265H395.786L398.145 219.343L400.503 215.265H407.239C407.653 215.267 408.062 215.187 408.445 215.03C408.827 214.873 409.175 214.642 409.468 214.35C409.762 214.059 409.995 213.713 410.154 213.331C410.313 212.95 410.396 212.541 410.397 212.127V207.94C410.395 207.104 410.061 206.303 409.469 205.713C408.877 205.123 408.075 204.792 407.239 204.792V204.792Z" stroke="#263238" stroke-width="1.16689" stroke-linecap="round" stroke-linejoin="round"/>
<path d="M265.413 181.645H306.839" stroke="#263238" stroke-width="1.0631" stroke-miterlimit="10"/>
<path d="M265.413 186.073H306.839" stroke="#263238" stroke-width="1.0631" stroke-miterlimit="10"/>
<path d="M265.413 190.51H306.839" stroke="#263238" stroke-width="1.0631" stroke-miterlimit="10"/>
<path d="M265.413 194.938H306.839" stroke="#263238" stroke-width="1.0631" stroke-miterlimit="10"/>
<path d="M265.413 199.365H306.839" stroke="#263238" stroke-width="1.0631" stroke-miterlimit="10"/>
<path d="M43.1345 252.294C42.5848 252.953 42.0252 253.653 41.4255 254.452C33.9899 264.447 37.8676 285.434 33.3503 293.18C28.833 300.925 17.5196 298.706 15.261 310.879C13.0023 323.052 14.2616 335.764 12.3527 341.861C10.4438 347.957 2.98823 351.855 1.689 359.011C0.389768 366.166 0 371.353 0 371.353L43.1345 369.934V252.294Z" fill="#FB855E"/>
<path opacity="0.7" d="M43.1345 252.294C42.5848 252.953 42.0252 253.653 41.4255 254.452C33.9899 264.447 37.8676 285.434 33.3503 293.18C28.833 300.925 17.5196 298.706 15.261 310.879C13.0023 323.052 14.2616 335.764 12.3527 341.861C10.4438 347.957 2.98823 351.855 1.689 359.011C0.389768 366.166 0 371.353 0 371.353L43.1345 369.934V252.294Z" fill="white"/>
<path d="M196.524 370.384L152.23 375.501L165.832 388.093L196.374 385.445" fill="#263238"/>
<path d="M196.524 370.384L152.23 375.501L165.832 388.093L196.374 385.445" stroke="#263238" stroke-width="0.969857" stroke-linecap="round" stroke-linejoin="round"/>
<path d="M166.671 377.51L195.045 374.411" stroke="white" stroke-width="0.484928" stroke-linecap="round" stroke-linejoin="round"/>
<path d="M168.89 380.608L194.605 378.399" stroke="white" stroke-width="0.484928" stroke-linecap="round" stroke-linejoin="round"/>
<path d="M171.548 383.266L195.044 381.047" stroke="white" stroke-width="0.484928" stroke-linecap="round" stroke-linejoin="round"/>
<path d="M169.5 375.691L177.585 384.506" stroke="white" stroke-width="0.484928" stroke-linecap="round" stroke-linejoin="round"/>
<path d="M175.486 375.401L183.522 383.706" stroke="white" stroke-width="0.484928" stroke-linecap="round" stroke-linejoin="round"/>
<path d="M181.703 374.511L189.728 382.817" stroke="white" stroke-width="0.484928" stroke-linecap="round" stroke-linejoin="round"/>
<path d="M188.349 374.072L195.045 381.048" stroke="white" stroke-width="0.484928" stroke-linecap="round" stroke-linejoin="round"/>
<path d="M151.23 265.506C149.771 264.886 143.015 238.592 143.015 238.592L139.537 228.678C139.537 228.678 134.31 210.838 132.312 207.52C130.313 204.202 122.317 201.524 122.317 201.524L119.319 199.875L106.327 192.879V192.949L104.458 189.041L82.0912 171.052C82.0912 171.052 82.491 175.389 83.0906 179.667C83.0307 179.667 78.4334 182.665 76.7944 185.293C76.4845 185.783 76.2147 186.832 74.9754 189.581C69.9784 192.159 51.1595 202.023 44.9332 206.831C37.6275 212.457 36.2983 216.435 36.6281 219.753L36.9679 225.05C36.9679 225.05 40.0861 244.039 43.3341 253.403L42.9344 253.213L42.8245 369.764L136.399 366.216L136.549 279.638C139.747 278.588 143.075 277.359 145.084 276.469L145.584 276.919L149.801 280.007C150.479 280.517 151.266 280.863 152.1 281.017C152.934 281.171 153.793 281.13 154.608 280.897C156.397 280.387 155.278 278.268 153.979 277.569C152.992 276.903 152.057 276.165 151.18 275.36L147.283 270.503C149.621 270.923 153.369 271.582 154.928 271.802C157.247 272.132 160.235 272.802 160.565 269.803C160.895 266.805 153.559 266.505 151.23 265.506Z" fill="white"/>
<path d="M82.2012 171.092C82.2012 171.092 83.4704 185.183 84.2999 187.722C85.0495 190.02 88.8373 202.563 92.1553 208.19C95.4733 213.816 99.5209 213.187 100.151 206.871C100.78 200.554 100.46 190.31 100.46 190.31" stroke="#263238" stroke-width="0.969857" stroke-linecap="round" stroke-linejoin="round"/>
<path d="M82.9611 179.996C82.9611 179.996 78.5537 182.685 76.8947 185.333C75.2356 187.982 68.2598 212.497 68.2598 212.497L81.5319 213.167L70.2486 218.164" stroke="#263238" stroke-width="0.969857" stroke-linecap="round" stroke-linejoin="round"/>
<path d="M70.5884 221.112C70.5884 221.112 81.8717 239.671 83.5307 241.67C84.55 242.907 85.4376 244.247 86.1792 245.668" stroke="#263238" stroke-width="0.969857" stroke-linecap="round" stroke-linejoin="round"/>
<path d="M83.8604 185.703C83.8604 185.703 89.497 208.899 92.855 221.152C96.213 233.405 99.4212 248.666 99.4212 248.666" stroke="#263238" stroke-width="0.969857" stroke-linecap="round" stroke-linejoin="round"/>
<path d="M100.42 192.959C100.42 192.959 101.75 219.793 101.75 230.397V247.287" stroke="#263238" stroke-width="0.969857" stroke-linecap="round" stroke-linejoin="round"/>
<path d="M105.098 190.3L114.062 208.53L106.757 210.848L118.04 217.134L107.756 249.275" stroke="#263238" stroke-width="0.969857" stroke-linecap="round" stroke-linejoin="round"/>
<path d="M106.427 192.959L119.37 199.915" stroke="#263238" stroke-width="0.969857" stroke-linecap="round" stroke-linejoin="round"/>
<path d="M129.664 220.123L131.323 251.264" stroke="#263238" stroke-width="0.969857" stroke-linecap="round" stroke-linejoin="round"/>
<path d="M74.8959 189.641C74.8959 189.641 52.3293 201.234 45.0336 206.87C37.7379 212.507 36.3987 216.475 36.7285 219.793" stroke="#263238" stroke-width="0.969857" stroke-linecap="round" stroke-linejoin="round"/>
<path d="M43.0347 253.253V369.205" stroke="#263238" stroke-width="0.969857" stroke-linecap="round" stroke-linejoin="round"/>
<path d="M101.45 281.746V364.907" stroke="#263238" stroke-width="0.969857" stroke-linecap="round" stroke-linejoin="round"/>
<path d="M51.1396 218.144C51.1396 218.144 58.7551 220.812 62.1331 227.278" stroke="#263238" stroke-width="0.969857" stroke-linecap="round" stroke-linejoin="round"/>
<path d="M56.0869 217.764C56.0869 217.764 62.9429 220.432 65.9911 226.899" stroke="#263238" stroke-width="0.969857" stroke-linecap="round" stroke-linejoin="round"/>
<path d="M51.5195 324.191H76.7846V329.148H52.419" stroke="#263238" stroke-width="0.969857" stroke-linecap="round" stroke-linejoin="round"/>
<path d="M144.944 242.969C142.566 236.973 140.577 231.976 139.538 228.688C139.592 230.68 139.241 232.664 138.503 234.516C137.766 236.368 136.659 238.051 135.25 239.461C128.354 246.197 126.405 243.859 126.715 253.213C127.025 262.568 130.713 266.815 128.404 274.79C126.096 282.766 116.051 290.641 116.411 304.453C116.541 307.481 117.383 310.436 118.87 313.078L77.2744 368.595L136.759 366.846V287.423L144.944 242.969Z" fill="#FB855E"/>
<path opacity="0.7" d="M144.944 242.969C142.566 236.973 140.577 231.976 139.538 228.688C139.592 230.68 139.241 232.664 138.503 234.516C137.766 236.368 136.659 238.051 135.25 239.461C128.354 246.197 126.405 243.859 126.715 253.213C127.025 262.568 130.713 266.815 128.404 274.79C126.096 282.766 116.051 290.641 116.411 304.453C116.541 307.481 117.383 310.436 118.87 313.078L77.2744 368.595L136.759 366.846V287.423L144.944 242.969Z" fill="white"/>
<path d="M136.809 328.898V363.408" stroke="#263238" stroke-width="0.969857" stroke-linecap="round" stroke-linejoin="round"/>
<path d="M117.41 143.588C119.409 143.258 129.353 136.962 127.694 130.666C126.035 124.369 112.074 116.744 101.12 120.402C94.5213 122.598 88.4263 126.088 83.1907 130.666C83.1907 130.666 75.895 130.666 73.1966 133.664C70.4982 136.662 72.537 141.279 74.196 144.597C75.6351 147.466 75.5752 155.071 75.5352 157.04C75.4447 157.035 75.3546 157.056 75.2753 157.1C74.7199 157.406 74.2353 157.827 73.8531 158.333C73.4708 158.839 73.1994 159.42 73.0567 160.038C72.6069 162.037 73.4364 164.705 75.4552 167.724C76.127 168.857 77.0713 169.804 78.2023 170.48C79.3333 171.155 80.6152 171.537 81.9314 171.591C82.7971 172.589 83.5018 173.715 84.0202 174.929C84.8597 176.928 93.2247 189.761 98.0119 190.13C98.7015 190.19 99.3611 190.21 100.011 190.21C104.138 190.21 107.137 189.101 108.746 186.962C110.874 184.134 116.151 172.731 116.811 167.184C116.921 166.185 116.981 164.935 117.011 163.436C117.749 162.501 118.151 161.345 118.151 160.153C118.151 158.962 117.749 157.805 117.011 156.87C116.901 151.004 116.591 144.927 116.511 143.528C116.802 143.616 117.11 143.637 117.41 143.588Z" fill="white"/>
<path d="M116.051 143.258C116.051 143.258 117.051 161.477 116.381 167.114C115.712 172.751 110.385 184.004 108.386 186.663C106.387 189.321 102.389 189.971 98.1019 189.661C93.8145 189.351 85.4894 177.068 84.49 174.75C83.9363 173.41 83.1515 172.179 82.1713 171.112C82.1713 171.112 78.5235 171.442 75.8651 167.464C73.2067 163.486 72.2172 159.469 75.5353 157.52" stroke="#263238" stroke-width="0.969857" stroke-linecap="round" stroke-linejoin="round"/>
<path d="M101.78 161.148C101.78 161.148 104.108 157.15 106.427 159.488L108.086 170.092L103.089 171.421L103.749 176.718" stroke="#263238" stroke-width="0.969857" stroke-linecap="round" stroke-linejoin="round"/>
<path d="M96.8027 166.115C99.5515 166.115 101.78 163.891 101.78 161.148C101.78 158.404 99.5515 156.181 96.8027 156.181C94.054 156.181 91.8257 158.404 91.8257 161.148C91.8257 163.891 94.054 166.115 96.8027 166.115Z" fill="#FB855E" stroke="#263238" stroke-width="0.969857" stroke-linecap="round" stroke-linejoin="round"/>
<path opacity="0.4" d="M96.8027 166.115C99.5515 166.115 101.78 163.891 101.78 161.148C101.78 158.404 99.5515 156.181 96.8027 156.181C94.054 156.181 91.8257 158.404 91.8257 161.148C91.8257 163.891 94.054 166.115 96.8027 166.115Z" fill="white" stroke="#263238" stroke-width="1.16689" stroke-miterlimit="10"/>
<path d="M117.71 160.158C117.71 159.17 117.417 158.204 116.868 157.382C116.319 156.56 115.539 155.92 114.626 155.542C113.713 155.163 112.708 155.064 111.738 155.257C110.769 155.45 109.879 155.926 109.18 156.625C108.481 157.324 108.005 158.214 107.812 159.183C107.62 160.153 107.718 161.157 108.097 162.07C108.475 162.984 109.115 163.764 109.937 164.313C110.759 164.862 111.725 165.155 112.713 165.155C114.039 165.155 115.31 164.629 116.247 163.692C117.184 162.755 117.71 161.483 117.71 160.158Z" fill="#FB855E" stroke="#263238" stroke-width="0.969857" stroke-linecap="round" stroke-linejoin="round"/>
<path opacity="0.4" d="M117.71 160.158C117.71 159.17 117.417 158.204 116.868 157.382C116.319 156.56 115.539 155.92 114.626 155.542C113.713 155.163 112.708 155.064 111.738 155.257C110.769 155.45 109.879 155.926 109.18 156.625C108.481 157.324 108.005 158.214 107.812 159.183C107.62 160.153 107.718 161.157 108.097 162.07C108.475 162.984 109.115 163.764 109.937 164.313C110.759 164.862 111.725 165.155 112.713 165.155C114.039 165.155 115.31 164.629 116.247 163.692C117.184 162.755 117.71 161.483 117.71 160.158Z" fill="white" stroke="#263238" stroke-width="1.16689" stroke-miterlimit="10"/>
<path d="M91.8257 161.148L81.8716 161.807" stroke="#263238" stroke-width="0.969857" stroke-linecap="round" stroke-linejoin="round"/>
<path d="M91.9058 154.242C91.9058 154.242 94.5742 151.583 99.5313 153.102" stroke="#263238" stroke-width="0.969857" stroke-linecap="round" stroke-linejoin="round"/>
<path d="M108.676 152.723C108.676 152.723 113.673 150.064 115.152 153.482" stroke="#263238" stroke-width="0.969857" stroke-linecap="round" stroke-linejoin="round"/>
<path d="M85.8492 143.918C85.8492 143.918 88.5076 150.214 89.1672 151.213C89.8268 152.213 85.8492 156.84 85.8492 156.84V161.477L81.8515 161.807L77.8539 158.169L75.5353 157.5C75.5353 157.5 75.8651 147.895 74.2061 144.587C72.547 141.279 70.5582 136.592 73.2066 133.654C75.8551 130.715 83.2007 130.656 83.2007 130.656C88.4364 126.078 94.5314 122.588 101.13 120.392C112.124 116.744 126.015 124.389 127.674 130.656C129.333 136.922 119.409 143.258 117.411 143.588C115.412 143.918 112.413 139.95 109.415 139.95H104.768C101.45 139.95 101.12 139.61 97.4623 139.61C93.8045 139.61 85.8492 143.918 85.8492 143.918Z" fill="#263238"/>
<path d="M90.0069 138.481C90.0069 138.481 95.6736 135.343 98.5119 129.996C101.35 124.649 91.8958 127.168 89.3773 130.626C86.8588 134.084 92.8453 132.824 92.8453 132.824" stroke="white" stroke-width="0.484928" stroke-linecap="round" stroke-linejoin="round"/>
<path d="M85.8493 143.918C85.8493 143.918 82.4513 147.596 78.0439 147.915" stroke="white" stroke-width="0.484928" stroke-linecap="round" stroke-linejoin="round"/>
<path d="M87.4881 148.545C87.4881 148.545 81.4917 151.373 78.3535 151.373" stroke="white" stroke-width="0.484928" stroke-linecap="round" stroke-linejoin="round"/>
<path d="M78.3535 153.882C78.3535 153.882 83.0807 154.881 85.5992 153.882" stroke="white" stroke-width="0.484928" stroke-linecap="round" stroke-linejoin="round"/>
<path d="M95.0439 139.111C95.0439 139.111 97.5625 138.801 105.748 135.972C113.933 133.144 116.741 129.976 111.414 125.908" stroke="white" stroke-width="0.484928" stroke-linecap="round" stroke-linejoin="round"/>
<path d="M259.547 316.786C259.547 316.786 246.505 282.096 243.156 278.758C239.808 275.42 223.028 265.196 223.028 265.196L221.679 262.887L220.86 260.079C220.86 260.079 219.86 255.852 216.982 253.763L216.752 253.273L196.964 244.798C196.964 244.798 197.104 247.417 197.314 250.575C194.975 251.424 189.788 253.703 188.009 257.76C186.85 260.389 186.19 264.756 185.86 268.864L185.051 269.464L185.351 268.364C185.351 268.364 163.444 280.647 162.454 282.646C161.175 284.325 157.867 295.088 157.867 295.088C157.867 295.088 154.569 305.432 150.941 316.856C145.824 332.566 140.877 348.267 140.557 350.775C140.557 351.005 140.557 350.895 140.557 350.895C140.227 355.203 156.678 371.083 156.678 371.083H156.897L158.896 373.082C158.896 373.082 158.896 372.882 158.896 372.253C160.285 375.081 162.554 379.249 164.353 378.369C165.832 377.64 165.352 375.071 164.153 371.723C165.642 373.992 167.351 375.641 168.71 374.981C171.059 373.822 169.89 369.814 167.531 364.078C167.33 363.588 167.023 363.149 166.632 362.792C166.242 362.434 165.778 362.167 165.273 362.009C166.032 361.929 166.802 361.849 167.591 361.749C168.381 365.417 170.15 368.595 172.138 368.175C174.127 367.755 174.427 365.177 174.027 360.79C174.227 360.79 174.497 360.2 174.697 360.17C175.576 363.258 176.926 366.006 178.625 365.647C180.494 365.247 181.003 363.388 180.783 359.65C180.783 358.261 180.683 357.811 180.633 356.932C181.363 357.382 184.941 359.54 185.351 359.85C186.68 360.849 196.794 358.691 196.794 358.691C211.565 353.914 235.181 353.694 250.432 343.48C260.616 336.614 259.547 316.786 259.547 316.786ZM166.442 345.159L170.439 318.854L172.029 342.84L171.559 348.757L166.442 345.159Z" fill="white"/>
<path d="M162.514 282.076L186.31 268.084C186.31 268.084 187.799 255.332 190.837 254.033C190.837 254.033 195.015 250.385 199.762 251.104C202.48 251.504 204.489 248.106 206.028 242.19C206.028 230.487 205.868 215.545 205.748 206.211C204.749 201.604 203.669 197.866 203.31 196.407L192.096 191.699C192.096 191.699 189.698 183.604 177.365 181.795C165.032 179.986 151.81 193.209 150.301 202.213C148.792 211.218 157.517 220.822 154.209 225.929C150.901 231.036 137.069 238.532 133.461 247.237C129.853 255.941 130.753 261.948 130.753 261.948C130.753 261.948 140.677 276.05 137.968 280.857C135.26 285.664 119.329 290.161 119.629 304.273C119.909 317.345 132.851 326.55 147.193 328.259L162.514 282.076Z" fill="#263238"/>
<path d="M188.549 194.108C188.549 194.108 180.054 184.374 169.35 187.512C158.646 190.65 154.549 201.973 156.757 207.63C158.966 213.287 163.993 217.994 160.215 226.479C156.438 234.964 146.993 236.223 142.226 245.967C137.459 255.712 138.768 258.86 138.768 258.86" stroke="white" stroke-width="0.484928" stroke-linecap="round" stroke-linejoin="round"/>
<path d="M182.882 202.283C182.882 202.283 175.016 203.223 175.016 208.28C175.016 213.337 179.424 215.815 180.013 222.102C180.603 228.388 178.754 230.906 174.017 238.762C169.28 246.617 169.02 250.705 172.448 256.051C175.876 261.398 178.114 270.193 173.707 273.331" stroke="white" stroke-width="0.484928" stroke-linecap="round" stroke-linejoin="round"/>
<path d="M184.771 195.997C184.771 195.997 175.326 191 167.781 195.687C160.235 200.374 170.299 209.829 171.558 218.624C172.818 227.418 166.561 233.715 158.026 243.139C155.526 245.991 153.67 249.348 152.583 252.982C151.497 256.615 151.206 260.44 151.73 264.197" stroke="white" stroke-width="0.484928" stroke-linecap="round" stroke-linejoin="round"/>
<path d="M151.091 275.2C151.091 275.2 153.289 279.907 147.303 286.194C141.316 292.48 128.414 294.059 125.316 303.483C122.218 312.908 128.404 317.945 128.404 317.945" stroke="white" stroke-width="0.484928" stroke-linecap="round" stroke-linejoin="round"/>
<path d="M197.034 244.268C197.034 244.268 197.693 256.901 198.363 260.209C199.033 263.517 201.701 275.33 202.71 285.764C203.198 291.177 204.202 296.532 205.709 301.754C205.709 301.754 213.794 333.156 214.273 293.709C214.443 279.797 212.944 257.93 212.944 257.93L213.604 251.304" fill="white"/>
<g style="mix-blend-mode:multiply" opacity="0.3">
<path d="M210.555 252.344L198.363 260.209L197.583 246.927C197.583 246.927 205.728 251.744 210.555 252.344Z" fill="#FB855E"/>
</g>
<g style="mix-blend-mode:multiply" opacity="0.3">
<path d="M212.964 257.89C212.964 257.89 212.564 280.437 211.465 289.971C210.858 296.03 211.484 302.15 213.304 307.961C213.304 307.961 214.833 273.081 212.964 257.89Z" fill="#FB855E"/>
</g>
<path d="M197.034 244.268C197.034 244.268 197.693 256.901 198.363 260.209C199.033 263.517 201.701 275.33 202.71 285.764C203.198 291.177 204.202 296.532 205.709 301.754C205.709 301.754 213.794 333.156 214.273 293.709C214.443 279.797 212.944 257.93 212.944 257.93L213.604 251.304" stroke="#263238" stroke-width="0.969857" stroke-linecap="round" stroke-linejoin="round"/>
<path d="M188.239 297.197L186.13 301.714L200.002 315.256L188.239 297.197Z" fill="#FB855E"/>
<path opacity="0.7" d="M188.239 297.197L186.13 301.714L200.002 315.256L188.239 297.197Z" fill="white"/>
<path d="M172.078 307.181C172.078 307.181 176.715 296.468 178.175 298.906C179.634 301.345 170.369 311.808 174.027 313.268C177.685 314.727 183.022 309.37 181.343 313.747C179.664 318.125 176.715 323.242 176.715 325.44C176.715 327.639 177.715 349.296 177.715 349.296L177.965 350.755L175.036 352.754C175.036 352.754 171.868 349.586 171.868 346.908C171.868 344.229 171.379 333.516 171.379 331.087C171.379 328.658 170.239 320.094 170.239 320.094L172.078 307.181Z" fill="#FB855E"/>
<path opacity="0.7" d="M172.078 307.181C172.078 307.181 176.716 296.468 178.175 298.906C179.634 301.345 170.369 311.808 174.027 313.268C177.685 314.727 183.022 309.37 181.343 313.747C179.664 318.125 176.716 323.242 176.716 325.44C176.716 327.639 177.715 349.296 177.715 349.296L177.965 350.755L175.037 352.754C175.037 352.754 171.869 349.586 171.869 346.908C171.869 344.229 171.379 333.516 171.379 331.087C171.379 328.658 170.379 319.494 170.379 319.494L172.078 307.181Z" fill="white"/>
<path d="M197.194 250.495C197.194 250.495 190.398 251.924 188.069 257.231C185.74 262.538 185.421 274.79 185.75 278.098C185.935 280.76 185.935 283.432 185.75 286.094L195.045 283.096" fill="white"/>
<g style="mix-blend-mode:multiply" opacity="0.3">
<path d="M198.473 258.91C195.673 258.975 192.979 259.994 190.837 261.798C186.91 264.886 186.5 270.453 186.5 270.453C186.5 270.453 185.26 263.857 187.739 258.09C190.218 252.324 197.193 250.495 197.193 250.495L198.473 258.91Z" fill="#FB855E"/>
</g>
<path d="M197.194 250.495C197.194 250.495 190.398 251.924 188.069 257.231C185.74 262.538 185.421 274.79 185.75 278.098C185.935 280.76 185.935 283.432 185.75 286.094L195.045 283.096" stroke="#263238" stroke-width="0.969857" stroke-linecap="round" stroke-linejoin="round"/>
<path d="M197.364 283.735L187.08 295.328C187.08 295.328 194.715 307.251 198.363 311.229" stroke="#263238" stroke-width="0.969857" stroke-linecap="round" stroke-linejoin="round"/>
<path d="M223.588 309.57L228.895 289.362L219.6 282.366L226.906 280.047L220.91 259.509C220.91 259.509 219.8 254.352 215.913 252.693" stroke="#263238" stroke-width="0.969857" stroke-linecap="round" stroke-linejoin="round"/>
<path d="M202.36 273.791C202.36 273.791 205.678 277.789 209.356 277.109C213.034 276.429 213.004 274.461 213.004 274.461" stroke="#263238" stroke-width="0.969857" stroke-linecap="round" stroke-linejoin="round"/>
<path d="M169.889 277.969C169.889 277.969 164.523 283.815 164.763 285.274C165.002 286.733 171.349 289.412 169.889 291.111C168.43 292.81 164.763 288.682 164.033 289.412C163.303 290.141 149.891 335.904 151.111 336.614C152.33 337.323 155.258 334.665 155.988 336.374C156.717 338.083 143.795 342.94 146.473 344.369C149.152 345.798 155.738 342.66 154.469 343.15C153.199 343.64 149.591 348.257 150.571 350.206C151.55 352.155 161.994 362.029 161.994 362.029C161.379 362.282 160.886 362.765 160.62 363.374C160.353 363.984 160.334 364.673 160.565 365.297C160.843 366.553 161.55 367.673 162.564 368.465C162.564 368.465 159.765 366.156 159.336 368.655C159.091 369.958 158.948 371.278 158.906 372.603L152.06 365.827C146.483 360.15 141.946 354.833 140.607 350.266C140.607 350.266 140.367 350.935 141.836 345.579C143.305 340.222 157.927 294.459 157.927 294.459C157.927 294.459 161.235 283.685 162.504 282.016C163.773 280.347 169.889 277.969 169.889 277.969Z" fill="#FB855E"/>
<path opacity="0.7" d="M169.89 277.969C169.89 277.969 164.523 283.815 164.763 285.274C165.002 286.733 171.349 289.412 169.89 291.111C168.43 292.81 164.763 288.682 164.033 289.412C163.303 290.141 149.891 335.904 151.111 336.614C152.33 337.323 155.258 334.665 155.988 336.374C156.717 338.083 143.795 342.94 146.473 344.369C149.152 345.798 155.738 342.66 154.469 343.15C153.199 343.64 149.592 348.257 150.571 350.206C151.55 352.155 161.994 362.029 161.994 362.029C161.379 362.282 160.886 362.765 160.62 363.374C160.353 363.984 160.334 364.673 160.565 365.297C160.843 366.553 161.55 367.673 162.564 368.465C162.564 368.465 159.766 366.156 159.336 368.655C158.906 371.153 158.686 372.792 158.686 372.792L152.06 365.797C145.144 358.891 140.867 353.444 140.607 350.236C140.607 350.236 139.797 351.755 141.836 345.549C143.565 340.272 157.927 294.429 157.927 294.429C157.927 294.429 161.235 283.655 162.504 281.986C163.773 280.317 169.89 277.969 169.89 277.969Z" fill="white"/>
<path d="M181.902 271.312V289.971L193.665 286.963L197.583 282.446L185.52 284.854L186.31 268.034L181.902 271.312Z" fill="#FB855E"/>
<path opacity="0.7" d="M181.902 271.312V289.971L193.665 286.963L197.583 282.446L185.52 284.854L186.31 268.034L181.902 271.312Z" fill="white"/>
<path d="M185.42 267.834C185.42 267.834 163.513 280.087 162.514 282.076C161.514 284.065 140.946 346.038 140.617 350.326C140.287 354.613 156.877 370.864 156.877 370.864" stroke="#263238" stroke-width="0.969857" stroke-linecap="round" stroke-linejoin="round"/>
<path d="M173.138 298.976L166.501 344.689" stroke="#263238" stroke-width="0.969857" stroke-linecap="round" stroke-linejoin="round"/>
<path d="M173.797 296.318L174.797 291.68" stroke="#263238" stroke-width="0.969857" stroke-linecap="round" stroke-linejoin="round"/>
<path d="M147.583 347.348C147.583 347.348 151.9 341.351 158.206 341.711C164.513 342.071 173.797 350.985 173.797 350.985" stroke="#263238" stroke-width="0.969857" stroke-linecap="round" stroke-linejoin="round"/>
<path d="M149.572 340.382C150.964 339.131 152.737 338.385 154.604 338.265C156.472 338.146 158.325 338.659 159.866 339.722" stroke="#263238" stroke-width="0.969857" stroke-linecap="round" stroke-linejoin="round"/>
<path d="M180.373 354.183C180.301 353.633 180.1 353.107 179.787 352.649C179.474 352.19 179.057 351.812 178.571 351.544C178.084 351.277 177.541 351.127 176.987 351.108C176.432 351.089 175.88 351.201 175.376 351.435C174.968 351.64 174.619 351.948 174.365 352.328C174.111 352.708 173.96 353.148 173.927 353.604C173.557 357.252 175.796 366.216 178.794 365.597C181.283 365.037 181.203 360.32 180.373 354.183Z" fill="white" stroke="#263238" stroke-width="0.969857" stroke-linecap="round" stroke-linejoin="round"/>
<path d="M173.697 356.832C173.623 356.282 173.422 355.758 173.108 355.3C172.794 354.843 172.377 354.466 171.891 354.199C171.405 353.933 170.862 353.785 170.308 353.766C169.754 353.748 169.203 353.86 168.7 354.093C168.291 354.295 167.942 354.601 167.687 354.979C167.433 355.358 167.283 355.797 167.251 356.252C166.881 359.9 169.12 368.865 172.118 368.245C174.647 367.685 174.567 362.978 173.697 356.832Z" fill="white" stroke="#263238" stroke-width="0.969857" stroke-linecap="round" stroke-linejoin="round"/>
<path d="M167.601 363.508C167.394 362.989 167.067 362.526 166.647 362.157C166.227 361.788 165.725 361.523 165.183 361.385C164.642 361.247 164.075 361.238 163.529 361.361C162.984 361.483 162.475 361.732 162.044 362.089C161.696 362.386 161.433 362.77 161.28 363.202C161.128 363.633 161.091 364.097 161.175 364.547C161.714 368.165 166.112 376.35 168.84 374.961C171.189 373.762 169.89 368.925 167.601 363.508Z" fill="white" stroke="#263238" stroke-width="0.969857" stroke-linecap="round" stroke-linejoin="round"/>
<path d="M163.303 369.904C163.151 369.515 162.907 369.168 162.594 368.891C162.281 368.615 161.906 368.416 161.501 368.313C161.096 368.209 160.672 368.204 160.264 368.296C159.857 368.389 159.477 368.577 159.156 368.845C158.898 369.069 158.702 369.356 158.586 369.678C158.471 370 158.44 370.346 158.496 370.684C158.906 373.392 162.184 379.468 164.233 378.459C165.992 377.59 165.062 374.202 163.303 369.904Z" fill="white" stroke="#263238" stroke-width="0.969857" stroke-linecap="round" stroke-linejoin="round"/>
<path d="M180.883 356.602C180.883 356.602 183.482 359.41 185.411 360.01C187 360.5 195.265 359.011 195.265 359.011" stroke="#263238" stroke-width="0.969857" stroke-linecap="round" stroke-linejoin="round"/>
<path d="M192.716 365.237C192.716 365.237 187.409 366.556 183.721 367.236C180.033 367.915 176.086 368.235 176.086 368.235C176.086 368.235 173.427 371.553 171.438 371.553" stroke="#263238" stroke-width="0.969857" stroke-linecap="round" stroke-linejoin="round"/>
<path d="M223.098 264.656C223.098 264.656 239.878 274.89 243.226 278.228C246.574 281.566 258.327 312.868 258.327 312.868" stroke="#263238" stroke-width="0.969857" stroke-linecap="round" stroke-linejoin="round"/>
<path d="M239.049 286.993L242.807 314.127" stroke="#263238" stroke-width="0.969857" stroke-linecap="round" stroke-linejoin="round"/>
<path d="M242.806 310.859L240.468 290.701L250.802 313.467L243.276 313.807L242.806 310.859Z" fill="#FB855E"/>
<path opacity="0.7" d="M242.806 310.859L240.468 290.701L250.802 313.467L243.276 313.807L242.806 310.859Z" fill="white"/>
<path d="M178.904 300.925L172.408 311.589L177.915 307.231" stroke="#263238" stroke-width="0.969857" stroke-linecap="round" stroke-linejoin="round"/>
<path d="M170.599 320.144C170.599 320.144 171.948 339.952 171.948 342.65C171.948 345.349 171.569 348.907 171.569 348.907" stroke="#263238" stroke-width="0.969857" stroke-linecap="round" stroke-linejoin="round"/>
<path d="M193.046 190.64C193.046 190.64 183.422 196.267 182.762 204.552C182.444 210.016 183.004 215.496 184.421 220.782C184.421 220.782 181.423 218.134 181.103 224.1C180.783 230.067 185.75 234.694 187.739 234.694H189.738C189.738 234.694 194.165 243.789 199.482 248.096C204.799 252.404 209.986 252.594 213.634 251.264C217.282 249.935 224.258 243.979 224.927 236.023C225.597 228.068 224.927 214.816 224.258 206.541C223.588 198.266 221.939 192.289 212.974 189.311C204.01 186.333 197.693 188.312 193.046 190.64Z" fill="white"/>
<g style="mix-blend-mode:multiply" opacity="0.3">
<path d="M184.421 220.782C184.421 220.782 181.423 218.134 181.103 224.1C180.783 230.067 185.75 234.694 187.739 234.694H189.738C189.738 234.694 194.165 243.779 199.482 248.096L201.761 249.665C202.537 250.135 203.349 250.543 204.189 250.885C202.401 248.686 198.513 243.619 196.684 239.062C194.265 233.065 193.686 220.403 194.265 212.277C194.845 204.152 199.092 200.834 199.092 200.834L193.096 200.534C192.207 200.534 187.559 207.45 182.842 211.418L184.421 220.782Z" fill="#FB855E"/>
</g>
<path d="M193.046 190.64C193.046 190.64 183.422 196.267 182.762 204.552C182.444 210.016 183.004 215.496 184.421 220.782C184.421 220.782 181.423 218.134 181.103 224.1C180.783 230.067 185.75 234.694 187.739 234.694H189.738C189.738 234.694 194.165 243.789 199.482 248.096C204.799 252.404 209.986 252.594 213.634 251.264C217.282 249.935 224.258 243.979 224.927 236.023C225.597 228.068 224.927 214.816 224.258 206.541C223.588 198.266 221.939 192.289 212.974 189.311C204.01 186.333 197.693 188.312 193.046 190.64Z" stroke="#263238" stroke-width="0.969857" stroke-linecap="round" stroke-linejoin="round"/>
<path d="M208.417 221.052C208.417 221.052 211.195 216.305 213.964 219.053L215.963 228.478L211.965 229.297L212.345 235.184" stroke="#263238" stroke-width="0.969857" stroke-linecap="round" stroke-linejoin="round"/>
<path d="M202.48 226.979C205.759 226.979 208.417 224.325 208.417 221.052C208.417 217.779 205.759 215.126 202.48 215.126C199.202 215.126 196.544 217.779 196.544 221.052C196.544 224.325 199.202 226.979 202.48 226.979Z" fill="#FB855E" stroke="#263238" stroke-width="0.969857" stroke-linecap="round" stroke-linejoin="round"/>
<path opacity="0.4" d="M202.48 226.979C205.759 226.979 208.417 224.325 208.417 221.052C208.417 217.779 205.759 215.126 202.48 215.126C199.202 215.126 196.544 217.779 196.544 221.052C196.544 224.325 199.202 226.979 202.48 226.979Z" fill="white" stroke="#263238" stroke-width="1.16689" stroke-miterlimit="10"/>
<path d="M227.435 219.863C227.437 218.688 227.092 217.54 226.442 216.562C225.791 215.584 224.866 214.82 223.783 214.367C222.699 213.914 221.506 213.792 220.353 214.016C219.2 214.24 218.14 214.801 217.305 215.627C216.471 216.453 215.9 217.508 215.664 218.659C215.428 219.809 215.538 221.004 215.98 222.092C216.422 223.18 217.176 224.112 218.148 224.772C219.12 225.432 220.265 225.789 221.439 225.799C222.224 225.807 223.002 225.66 223.729 225.365C224.456 225.07 225.118 224.634 225.676 224.082C226.233 223.53 226.676 222.873 226.978 222.149C227.28 221.424 227.435 220.648 227.435 219.863Z" fill="#FB855E" stroke="#263238" stroke-width="0.969857" stroke-linecap="round" stroke-linejoin="round"/>
<path opacity="0.4" d="M227.435 219.863C227.437 218.688 227.092 217.54 226.442 216.562C225.791 215.584 224.866 214.82 223.783 214.367C222.699 213.914 221.506 213.792 220.353 214.016C219.2 214.24 218.14 214.801 217.305 215.627C216.471 216.453 215.9 217.508 215.664 218.659C215.428 219.809 215.538 221.004 215.98 222.092C216.422 223.18 217.176 224.112 218.148 224.772C219.12 225.432 220.265 225.789 221.439 225.799C222.224 225.807 223.002 225.66 223.729 225.365C224.456 225.07 225.118 224.634 225.676 224.082C226.233 223.53 226.676 222.873 226.978 222.149C227.28 221.424 227.435 220.648 227.435 219.863Z" fill="white" stroke="#263238" stroke-width="1.16689" stroke-miterlimit="10"/>
<path d="M196.544 221.052L184.661 221.842" stroke="#263238" stroke-width="0.969857" stroke-linecap="round" stroke-linejoin="round"/>
<path d="M197.643 213.127C198.336 212.275 199.249 211.63 200.284 211.261C201.318 210.893 202.434 210.816 203.51 211.038" stroke="#263238" stroke-width="0.969857" stroke-linecap="round" stroke-linejoin="round"/>
<path d="M216.102 210.618C217.082 210.08 218.214 209.886 219.318 210.067C220.421 210.248 221.432 210.794 222.188 211.618" stroke="#263238" stroke-width="0.969857" stroke-linecap="round" stroke-linejoin="round"/>
<path d="M224.247 206.541C223.588 198.256 221.929 192.289 212.964 189.311C203.999 186.333 197.693 188.312 193.046 190.64C193.046 190.64 183.421 196.267 182.762 204.552C182.444 210.016 183.004 215.496 184.421 220.782C184.421 220.782 187.079 223.431 187.739 219.783C188.398 216.135 186.41 210.169 195.734 203.213C205.059 196.257 218.301 199.575 222.948 206.211C223.491 206.646 223.96 207.165 224.337 207.75C224.347 207.63 224.257 206.691 224.247 206.541Z" fill="#263238"/>
<path d="M79.213 243.309C79.213 243.309 71.2177 241.99 65.2212 245.967C63.514 247.103 62.1687 248.705 61.3449 250.583C60.5211 252.461 60.2536 254.536 60.574 256.561" stroke="#263238" stroke-width="0.969857" stroke-linecap="round" stroke-linejoin="round"/>
<path d="M61.9532 243.979C61.9532 243.979 57.9556 248.616 57.9556 252.594" stroke="#263238" stroke-width="0.969857" stroke-linecap="round" stroke-linejoin="round"/>
<path d="M37.0581 225.09C37.0581 225.09 41.0557 249.275 44.6936 256.561C48.3314 263.847 58.6853 270.813 66.6006 274.121C74.516 277.429 111.734 282.736 113.063 282.406C114.392 282.076 106.757 275.12 108.416 266.505C109.245 262.228 115.052 257.89 115.052 257.89C115.052 257.89 98.7916 250.894 92.4853 248.286C86.1791 245.678 79.2132 243.289 79.2132 243.289C79.2132 243.289 70.2185 235.014 65.941 231.366C62.0081 228.271 57.9076 225.395 53.6583 222.751" stroke="#263238" stroke-width="0.969857" stroke-linecap="round" stroke-linejoin="round"/>
<path d="M146.803 269.963L151.141 275.36C152.017 276.165 152.953 276.903 153.939 277.569C155.238 278.268 156.358 280.387 154.569 280.897C153.753 281.13 152.895 281.171 152.061 281.017C151.226 280.863 150.44 280.517 149.762 280.007L145.544 276.919L142.016 273.731L144.575 269.134L146.803 269.963Z" fill="white" stroke="#263238" stroke-width="0.969857" stroke-linecap="round" stroke-linejoin="round"/>
<path d="M115.052 257.89C115.052 257.89 125.346 260.209 128.664 260.889C131.982 261.568 148.912 264.536 151.231 265.526C153.549 266.515 160.855 266.855 160.525 269.833C160.196 272.812 157.207 272.152 154.889 271.832C152.57 271.512 145.254 270.183 145.254 270.183C145.254 270.183 147.583 274.491 146.923 275.48C146.264 276.469 131.323 281.776 128.334 281.776C125.346 281.776 123.337 276.469 122.028 274.78L118.03 269.783L110.035 266.145" fill="white"/>
<path d="M115.052 257.89C115.052 257.89 125.346 260.209 128.664 260.889C131.982 261.568 148.912 264.536 151.231 265.526C153.549 266.515 160.855 266.855 160.525 269.833C160.196 272.812 157.207 272.152 154.889 271.832C152.57 271.512 145.254 270.183 145.254 270.183C145.254 270.183 147.583 274.491 146.923 275.48C146.264 276.469 131.323 281.776 128.334 281.776C125.346 281.776 123.337 276.469 122.028 274.78L118.03 269.783L110.035 266.145" stroke="#263238" stroke-width="0.969857" stroke-linecap="round" stroke-linejoin="round"/>
<path d="M145.254 270.153L142.936 266.835" stroke="#263238" stroke-width="0.969857" stroke-linecap="round" stroke-linejoin="round"/>
<path d="M113.063 282.406C114.799 280.825 116.151 278.869 117.017 276.687C117.883 274.505 118.24 272.154 118.06 269.813" stroke="#263238" stroke-width="0.969857" stroke-linecap="round" stroke-linejoin="round"/>
<path d="M130.653 274.121L133.311 280.417" stroke="#263238" stroke-width="0.969857" stroke-linecap="round" stroke-linejoin="round"/>
<path d="M137.289 271.472L139.947 278.428" stroke="#263238" stroke-width="0.969857" stroke-linecap="round" stroke-linejoin="round"/>
<path d="M201.021 319.844V397.698L304.9 391.741V314.547L201.021 319.844Z" fill="#263238" stroke="#263238" stroke-width="0.969857" stroke-linecap="round" stroke-linejoin="round"/>
<path d="M304.9 314.547L299.583 311.559L196.704 316.536V392.401L201.021 397.698V319.844L304.9 314.547Z" fill="white" stroke="#263238" stroke-width="0.969857" stroke-linecap="round" stroke-linejoin="round"/>
<path d="M196.704 316.536L201.011 319.844" stroke="#263238" stroke-width="0.969857" stroke-linecap="round" stroke-linejoin="round"/>
<path d="M242.507 365.237V417.916L271.05 415.927V362.918L242.507 365.237Z" fill="#263238" stroke="#263238" stroke-width="0.969857" stroke-linecap="round" stroke-linejoin="round"/>
<path d="M241.617 395.059V365.237L271.05 362.918L271.13 393.21" stroke="white" stroke-width="0.969857" stroke-linecap="round" stroke-linejoin="round"/>
<path d="M242.507 417.916L227.565 404.664L242.507 403.994" fill="white"/>
<path d="M242.507 417.916L227.565 404.664L242.507 403.994" stroke="#263238" stroke-width="0.969857" stroke-linecap="round" stroke-linejoin="round"/>
<path opacity="0.7" d="M61.4937 369.235L155.888 378.689C155.888 378.689 152.27 375.781 153.679 375.501C156.358 374.981 160.325 374.621 160.325 374.621L152 365.847L61.4937 369.235Z" fill="#FB855E"/>
<path opacity="0.7" d="M61.4937 369.235L155.888 378.689C155.888 378.689 152.27 375.781 153.679 375.501C156.358 374.981 160.325 374.621 160.325 374.621L152 365.847L61.4937 369.235Z" fill="white"/>
<path d="M152.07 365.886L4.75732 371.133" stroke="#263238" stroke-width="0.969857" stroke-linecap="round" stroke-linejoin="round"/>
<path d="M304.19 362.718L403.492 424.002" stroke="#263238" stroke-width="0.969857" stroke-linecap="round" stroke-linejoin="round"/>
<path d="M123.687 378.149L71.7075 384.496L105.198 419.665L161.225 412.739L123.687 378.149Z" fill="#FB855E"/>
<path opacity="0.7" d="M123.687 378.149L71.7075 384.496L105.198 419.665L161.225 412.739L123.687 378.149Z" fill="white"/>
<path d="M70.5483 391.991L116.751 386.224L150.251 420.234L97.1126 427.73L70.5483 391.991Z" fill="white"/>
<path d="M98.7017 422.783C98.6222 422.783 98.5459 422.751 98.4897 422.695C98.4334 422.639 98.4019 422.563 98.4019 422.483C98.4019 422.404 98.4334 422.327 98.4897 422.271C98.5459 422.215 98.6222 422.183 98.7017 422.183L141.197 416.716C141.275 416.71 141.354 416.733 141.416 416.781C141.479 416.829 141.522 416.899 141.536 416.976C141.542 417.017 141.539 417.057 141.529 417.097C141.518 417.136 141.499 417.172 141.474 417.204C141.449 417.236 141.418 417.262 141.382 417.281C141.346 417.301 141.307 417.312 141.267 417.316L98.7816 422.783H98.7017Z" fill="#FB855E"/>
<path d="M96.333 419.945C96.2535 419.945 96.1772 419.913 96.121 419.857C96.0648 419.801 96.0332 419.724 96.0332 419.645C96.0332 419.565 96.0648 419.489 96.121 419.433C96.1772 419.376 96.2535 419.345 96.333 419.345L138.828 413.878C138.907 413.868 138.988 413.889 139.052 413.938C139.115 413.986 139.157 414.058 139.168 414.138C139.178 414.218 139.157 414.298 139.108 414.362C139.059 414.425 138.987 414.467 138.908 414.478L96.423 419.945H96.333Z" fill="#FB855E"/>
<path d="M93.9745 417.106C93.8999 417.107 93.8279 417.079 93.7724 417.029C93.717 416.979 93.6822 416.911 93.6747 416.836C93.666 416.757 93.6882 416.678 93.7366 416.614C93.785 416.551 93.8559 416.509 93.9345 416.497L136.399 411.03C136.479 411.026 136.557 411.051 136.62 411.101C136.682 411.151 136.725 411.221 136.739 411.3C136.743 411.339 136.74 411.379 136.728 411.417C136.717 411.455 136.698 411.49 136.673 411.521C136.648 411.551 136.617 411.577 136.582 411.596C136.547 411.614 136.509 411.626 136.469 411.629L93.9845 417.106H93.9745Z" fill="#FB855E"/>
<path d="M91.606 414.258C91.5265 414.258 91.4502 414.226 91.394 414.17C91.3377 414.114 91.3062 414.038 91.3062 413.958C91.3062 413.879 91.3377 413.802 91.394 413.746C91.4502 413.69 91.5265 413.658 91.606 413.658L134.101 408.191C134.18 408.183 134.26 408.205 134.323 408.253C134.386 408.302 134.428 408.373 134.441 408.451C134.446 408.491 134.444 408.531 134.434 408.569C134.424 408.608 134.406 408.644 134.382 408.676C134.358 408.707 134.328 408.734 134.293 408.754C134.258 408.773 134.22 408.786 134.181 408.791L91.6859 414.258H91.606Z" fill="#FB855E"/>
<path d="M89.2472 411.42C89.1741 411.42 89.1033 411.394 89.0481 411.346C88.9929 411.299 88.9571 411.232 88.9473 411.16C88.9417 411.12 88.944 411.08 88.9541 411.042C88.9642 411.003 88.9818 410.967 89.006 410.935C89.0302 410.904 89.0604 410.877 89.095 410.857C89.1295 410.838 89.1677 410.825 89.2072 410.82L131.702 405.353C131.781 405.344 131.861 405.367 131.924 405.415C131.987 405.463 132.029 405.534 132.042 405.613C132.047 405.653 132.045 405.694 132.034 405.733C132.023 405.772 132.005 405.809 131.98 405.841C131.954 405.872 131.923 405.899 131.887 405.918C131.852 405.937 131.812 405.949 131.772 405.953L89.2871 411.42H89.2472Z" fill="#FB855E"/>
<path d="M86.8785 408.571C86.8039 408.572 86.7318 408.544 86.6764 408.494C86.621 408.444 86.5861 408.376 86.5787 408.301C86.5724 408.223 86.5954 408.144 86.6434 408.082C86.6914 408.019 86.7609 407.976 86.8385 407.962L129.333 402.495C129.414 402.486 129.495 402.51 129.558 402.56C129.622 402.611 129.663 402.684 129.673 402.765C129.682 402.843 129.659 402.921 129.611 402.983C129.562 403.044 129.491 403.084 129.413 403.094L86.9184 408.571H86.8785Z" fill="#FB855E"/>
<path d="M84.5201 405.733C84.447 405.734 84.3763 405.708 84.3211 405.66C84.2659 405.612 84.23 405.546 84.2203 405.473C84.2147 405.434 84.217 405.394 84.227 405.355C84.2371 405.316 84.2547 405.28 84.2789 405.249C84.3031 405.217 84.3334 405.191 84.3679 405.171C84.4025 405.151 84.4406 405.138 84.4801 405.133L126.975 399.667C127.054 399.66 127.132 399.683 127.195 399.731C127.257 399.779 127.3 399.849 127.315 399.926C127.32 399.967 127.318 400.007 127.307 400.047C127.296 400.086 127.278 400.122 127.253 400.154C127.227 400.186 127.196 400.212 127.16 400.231C127.125 400.251 127.085 400.263 127.045 400.266L84.5601 405.733H84.5201Z" fill="#FB855E"/>
<path d="M82.1514 402.895C82.0719 402.895 81.9956 402.863 81.9394 402.807C81.8832 402.751 81.8516 402.674 81.8516 402.595C81.8516 402.515 81.8832 402.439 81.9394 402.383C81.9956 402.327 82.0719 402.295 82.1514 402.295L124.646 396.828C124.686 396.823 124.726 396.826 124.764 396.836C124.802 396.846 124.838 396.864 124.87 396.888C124.902 396.912 124.928 396.942 124.948 396.977C124.968 397.011 124.981 397.049 124.986 397.088C124.991 397.128 124.989 397.168 124.979 397.206C124.968 397.244 124.951 397.28 124.927 397.312C124.902 397.343 124.872 397.37 124.838 397.39C124.804 397.41 124.766 397.423 124.726 397.428L82.2313 402.895H82.1514Z" fill="#FB855E"/>
<path d="M79.7929 400.056C79.7183 400.057 79.6462 400.029 79.5908 399.979C79.5354 399.929 79.5005 399.861 79.4931 399.786C79.4844 399.707 79.5065 399.628 79.5549 399.565C79.6033 399.501 79.6742 399.459 79.7529 399.447L122.248 393.98C122.328 393.974 122.407 393.998 122.47 394.048C122.533 394.098 122.575 394.17 122.588 394.25C122.592 394.289 122.588 394.329 122.577 394.367C122.565 394.405 122.547 394.44 122.521 394.471C122.496 394.502 122.465 394.527 122.43 394.546C122.396 394.564 122.357 394.576 122.318 394.58L79.8329 400.056H79.7929Z" fill="#FB855E"/>
<path d="M77.4341 397.208C77.3546 397.208 77.2783 397.176 77.2221 397.12C77.1659 397.064 77.1343 396.988 77.1343 396.908C77.1343 396.829 77.1659 396.752 77.2221 396.696C77.2783 396.64 77.3546 396.608 77.4341 396.608L119.929 391.142C120.008 391.133 120.088 391.155 120.151 391.203C120.214 391.252 120.256 391.323 120.269 391.401C120.274 391.441 120.272 391.481 120.262 391.52C120.252 391.558 120.234 391.594 120.21 391.626C120.186 391.657 120.156 391.684 120.121 391.704C120.087 391.724 120.048 391.736 120.009 391.741L77.4341 397.208Z" fill="#FB855E"/>
<g opacity="0.7">
<path opacity="0.7" d="M98.7017 422.783C98.6222 422.783 98.5459 422.751 98.4897 422.695C98.4334 422.639 98.4019 422.563 98.4019 422.483C98.4019 422.404 98.4334 422.327 98.4897 422.271C98.5459 422.215 98.6222 422.183 98.7017 422.183L141.197 416.717C141.275 416.71 141.354 416.733 141.416 416.781C141.479 416.829 141.522 416.899 141.536 416.976C141.542 417.017 141.539 417.058 141.529 417.097C141.518 417.136 141.499 417.172 141.474 417.204C141.449 417.236 141.418 417.262 141.382 417.281C141.346 417.301 141.307 417.313 141.267 417.316L98.7816 422.783H98.7017Z" fill="white"/>
<path opacity="0.7" d="M96.333 419.945C96.2535 419.945 96.1772 419.913 96.121 419.857C96.0648 419.801 96.0332 419.724 96.0332 419.645C96.0332 419.565 96.0648 419.489 96.121 419.433C96.1772 419.377 96.2535 419.345 96.333 419.345L138.828 413.878C138.907 413.868 138.988 413.889 139.052 413.938C139.115 413.987 139.157 414.059 139.168 414.138C139.178 414.218 139.157 414.298 139.108 414.362C139.059 414.426 138.987 414.467 138.908 414.478L96.423 419.945H96.333Z" fill="white"/>
<path opacity="0.7" d="M93.9745 417.106C93.8999 417.107 93.8279 417.079 93.7724 417.029C93.717 416.979 93.6822 416.911 93.6747 416.836C93.666 416.757 93.6882 416.678 93.7366 416.615C93.785 416.551 93.8559 416.509 93.9345 416.497L136.399 411.03C136.479 411.026 136.557 411.051 136.62 411.101C136.682 411.151 136.725 411.221 136.739 411.3C136.743 411.339 136.74 411.379 136.728 411.417C136.717 411.455 136.698 411.49 136.673 411.521C136.648 411.552 136.617 411.577 136.582 411.596C136.547 411.614 136.509 411.626 136.469 411.63L93.9845 417.106H93.9745Z" fill="white"/>
<path opacity="0.7" d="M91.606 414.258C91.5265 414.258 91.4502 414.226 91.394 414.17C91.3377 414.114 91.3062 414.038 91.3062 413.958C91.3062 413.879 91.3377 413.802 91.394 413.746C91.4502 413.69 91.5265 413.658 91.606 413.658L134.101 408.192C134.18 408.183 134.26 408.205 134.323 408.253C134.386 408.302 134.428 408.373 134.441 408.451C134.446 408.491 134.444 408.531 134.434 408.569C134.424 408.608 134.406 408.644 134.382 408.676C134.358 408.707 134.328 408.734 134.293 408.754C134.258 408.774 134.22 408.786 134.181 408.791L91.6859 414.258H91.606Z" fill="white"/>
<path opacity="0.7" d="M89.2472 411.42C89.1741 411.42 89.1033 411.394 89.0481 411.346C88.9929 411.299 88.9571 411.232 88.9473 411.16C88.9417 411.12 88.944 411.08 88.9541 411.042C88.9642 411.003 88.9818 410.967 89.006 410.935C89.0302 410.904 89.0604 410.877 89.095 410.858C89.1295 410.838 89.1677 410.825 89.2072 410.82L131.702 405.353C131.781 405.345 131.861 405.367 131.924 405.415C131.987 405.464 132.029 405.534 132.042 405.613C132.047 405.653 132.045 405.694 132.034 405.733C132.023 405.772 132.005 405.809 131.98 405.841C131.954 405.873 131.923 405.899 131.887 405.918C131.852 405.937 131.812 405.949 131.772 405.953L89.2871 411.42H89.2472Z" fill="white"/>
<path opacity="0.7" d="M86.8785 408.571C86.8039 408.572 86.7318 408.544 86.6764 408.494C86.621 408.445 86.5861 408.376 86.5787 408.302C86.5724 408.223 86.5954 408.145 86.6434 408.082C86.6914 408.019 86.7609 407.976 86.8385 407.962L129.333 402.495C129.414 402.487 129.495 402.51 129.558 402.56C129.622 402.611 129.663 402.684 129.673 402.765C129.682 402.843 129.659 402.921 129.611 402.983C129.562 403.044 129.491 403.085 129.413 403.095L86.9184 408.571H86.8785Z" fill="white"/>
<path opacity="0.7" d="M84.5201 405.733C84.447 405.734 84.3763 405.708 84.3211 405.66C84.2659 405.612 84.23 405.546 84.2203 405.473C84.2147 405.434 84.217 405.394 84.227 405.355C84.2371 405.317 84.2547 405.28 84.2789 405.249C84.3031 405.217 84.3334 405.191 84.3679 405.171C84.4025 405.151 84.4406 405.138 84.4801 405.133L126.975 399.667C127.054 399.66 127.132 399.683 127.195 399.731C127.257 399.779 127.3 399.849 127.315 399.927C127.32 399.967 127.318 400.008 127.307 400.047C127.296 400.086 127.278 400.122 127.253 400.154C127.227 400.186 127.196 400.212 127.16 400.232C127.125 400.251 127.085 400.263 127.045 400.266L84.5601 405.733H84.5201Z" fill="white"/>
<path opacity="0.7" d="M82.1514 402.895C82.0719 402.895 81.9956 402.863 81.9394 402.807C81.8832 402.751 81.8516 402.674 81.8516 402.595C81.8516 402.515 81.8832 402.439 81.9394 402.383C81.9956 402.327 82.0719 402.295 82.1514 402.295L124.646 396.828C124.686 396.823 124.726 396.826 124.764 396.836C124.802 396.846 124.838 396.864 124.87 396.888C124.902 396.912 124.928 396.942 124.948 396.977C124.968 397.011 124.981 397.049 124.986 397.088C124.991 397.128 124.989 397.168 124.979 397.206C124.968 397.244 124.951 397.28 124.927 397.312C124.902 397.343 124.872 397.37 124.838 397.39C124.804 397.41 124.766 397.423 124.726 397.428L82.2313 402.895H82.1514Z" fill="white"/>
<path opacity="0.7" d="M79.7929 400.056C79.7183 400.057 79.6462 400.029 79.5908 399.979C79.5354 399.93 79.5005 399.861 79.4931 399.787C79.4844 399.707 79.5065 399.628 79.5549 399.565C79.6033 399.501 79.6742 399.459 79.7529 399.447L122.248 393.98C122.328 393.974 122.407 393.998 122.47 394.048C122.533 394.098 122.575 394.17 122.588 394.25C122.592 394.289 122.588 394.329 122.577 394.367C122.565 394.405 122.547 394.44 122.521 394.471C122.496 394.502 122.465 394.527 122.43 394.546C122.396 394.564 122.357 394.576 122.318 394.58L79.8329 400.056H79.7929Z" fill="white"/>
<path opacity="0.7" d="M77.4341 397.208C77.3546 397.208 77.2783 397.176 77.2221 397.12C77.1659 397.064 77.1343 396.988 77.1343 396.908C77.1343 396.829 77.1659 396.752 77.2221 396.696C77.2783 396.64 77.3546 396.608 77.4341 396.608L119.929 391.142C120.008 391.133 120.088 391.155 120.151 391.203C120.214 391.252 120.256 391.323 120.269 391.401C120.274 391.441 120.272 391.481 120.262 391.52C120.252 391.558 120.234 391.594 120.21 391.626C120.186 391.657 120.156 391.684 120.121 391.704C120.087 391.724 120.048 391.736 120.009 391.741L77.4341 397.208Z" fill="white"/>
</g>
<path d="M122.408 201.564C122.408 201.564 130.403 204.222 132.402 207.56C134.401 210.898 139.538 228.678 139.538 228.678" stroke="#263238" stroke-width="0.969857" stroke-linecap="round" stroke-linejoin="round"/>
</svg>
